#N canvas 843 140 756 638 10;
#X obj 45 20 loadbang;
#X obj 210 385 change;
#X obj 210 407 t b f;
#X obj 569 117 f;
#X msg 577 141 100;
#X obj 544 94 bng 15 250 50 0 empty empty empty 17 7 0 10 -262144 -1
-1;
#X msg 595 90 clear;
#X msg 141 140 print;
#X msg 182 140 clear;
#X obj 45 161 route loaded;
#X obj 109 299 route get;
#X obj 77 432 del 2000;
#X obj 45 57 del 100;
#X msg 633 30 0;
#X obj 210 363 r latency;
#X obj 109 341 s latency;
#X obj 109 321 t f f, f 12;
#X msg 178 342 set \$1;
#X obj 114 64 r datadir;
#X obj 45 86 symbol ., f 12;
#X obj 122 453 r datadir;
#X msg 164 574 remove /reclevel;
#X msg 45 115 clear \, load \$1/settings.xml;
#X obj 45 139 pofxml SETTINGS;
#X obj 77 542 pofxml SETTINGS;
#X msg 109 258 get latency;
#X obj 109 278 pofxml SETTINGS;
#X msg 77 502 save \$1/settings.xml;
#X obj 77 474 symbol .;
#X msg 237 494 remove /latency \, add / latency \$1;
#X msg 479 395 remove /reclevel \, add / reclevel \$1;
#X obj 237 432 t b f, f 8;
#X obj 237 452 del 200;
#X obj 237 473 f, f 8;
#X connect 0 0 12 0;
#X connect 1 0 2 0;
#X connect 2 0 11 0;
#X connect 2 1 31 0;
#X connect 7 0 23 0;
#X connect 8 0 23 0;
#X connect 9 0 25 0;
#X connect 10 0 16 0;
#X connect 11 0 28 0;
#X connect 12 0 19 0;
#X connect 14 0 1 0;
#X connect 16 0 15 0;
#X connect 16 1 17 0;
#X connect 17 0 1 0;
#X connect 18 0 19 1;
#X connect 19 0 22 0;
#X connect 20 0 28 1;
#X connect 21 0 24 0;
#X connect 22 0 23 0;
#X connect 23 0 9 0;
#X connect 25 0 26 0;
#X connect 26 0 10 0;
#X connect 27 0 24 0;
#X connect 28 0 27 0;
#X connect 29 0 24 0;
#X connect 30 0 24 0;
#X connect 31 0 32 0;
#X connect 31 1 33 1;
#X connect 32 0 33 0;
#X connect 33 0 29 0;
