#N canvas 598 1322 450 505 10;
#X obj 128 55 loadbang;
#X obj 128 77 del 500;
#X symbolatom 129 124 0 0 0 0 - - -;
#X obj 97 71 bng 15 250 50 0 empty empty empty 17 7 0 10 -262144 -1
-1;
#X obj 127 149 s schoolscape_MAINDIR;
#X obj 129 182 r schoolscape_MAINDIR;
#X obj 129 228 s schoolscape_SETTINGSDIR;
#X obj 134 306 r schoolscape_MAINDIR;
#X obj 134 352 s schoolscape_DATASDIR;
#X symbolatom 65 264 0 0 0 0 - - -;
#X symbolatom 95 385 0 0 0 0 - - -;
#N canvas 593 556 501 499 getdir 0;
#X obj 172 401 pofutil;
#X obj 175 16 inlet;
#X obj 109 17 loadbang;
#X obj 136 54 b;
#X obj 134 110 pofutil;
#X msg 134 86 getdir;
#X obj 186 51 bng 15 250 50 0 empty empty empty 17 7 0 10 -262144 -1
-1;
#X obj 282 266 s datadir;
#X obj 113 402 outlet;
#X obj 24 357 print;
#X msg 275 61 symbol;
#X msg 129 144 symbol \$1;
#X msg 172 375 setstring data/mixtape .;
#X obj 128 171 splitpath;
#X obj 136 202 splitpath;
#X msg 136 231 symbol \$1/pd/data;
#X connect 1 0 3 0;
#X connect 3 0 5 0;
#X connect 4 0 11 0;
#X connect 5 0 4 0;
#X connect 6 0 3 0;
#X connect 11 0 13 0;
#X connect 12 0 0 0;
#X connect 13 0 14 0;
#X connect 14 0 15 0;
#X connect 15 0 8 0;
#X connect 15 0 12 0;
#X restore 132 101 pd getdir;
#X msg 129 204 symbol \$1/schoolscapeSETTINGS/;
#X msg 134 328 symbol \$1/;
#X connect 0 0 1 0;
#X connect 1 0 11 0;
#X connect 2 0 4 0;
#X connect 3 0 11 0;
#X connect 5 0 12 0;
#X connect 7 0 13 0;
#X connect 11 0 2 0;
#X connect 12 0 6 0;
#X connect 12 0 9 0;
#X connect 13 0 8 0;
#X connect 13 0 10 0;
