#N canvas 433 1180 903 679 10;
#X obj 1 20 cnv 15 99 158 empty empty PREPAS 5 12 1 14 -4034 -1 0;
#X obj 34 70 bng 25 250 50 0 empty empty save 3 -7 1 10 -258113 -1
-1;
#X obj 23 141 bng 15 250 50 0 empty empty load 17 7 1 10 -4034 -1 -1
;
#X obj 24 167 bng 15 250 50 0 empty empty save_as 17 7 1 10 -258113
-1 -1;
#N canvas 458 1041 736 614 apmaster_autoload 0;
#X obj 406 61 route loaded saved;
#X obj 29 162 loadbang;
#X msg 84 397 loadfile \$1;
#X obj 410 90 symbol;
#X obj 84 369 symbol;
#X msg 84 196 set \$1;
#X obj 84 249 symbol;
#X obj 84 271 pack s s;
#X msg 84 293 symbol \$2/\$1;
#X obj 29 184 del 2000;
#X obj 103 131 t b s;
#X obj 200 73 symbol;
#X obj 200 43 inlet;
#X obj 406 116 splitpath;
#X symbolatom 342 281 0 0 0 0 - - -;
#X obj 342 229 r schoolscape_SETTINGSDIR;
#X symbolatom 19 444 0 0 0 0 - - -;
#X msg 85 223 Prepa2;
#X symbolatom 199 123 0 0 0 0 - - -;
#X symbolatom 211 181 0 0 0 0 - - -;
#X symbolatom 82 42 10 0 0 0 - - -;
#X obj 44 14 r NomDuPrepaSelectionné;
#X obj 200 99 r Prepa-play-name;
#X obj 406 39 r PREPAschoolscape-apmaster-snd;
#X obj 345 154 r datadirPrepas;
#X obj 84 422 s PREPAschoolscape-apmaster-rcv;
#X msg 342 252 symbol \$1ConfigPrepa;
#X obj 208 153 r datadirPrepas;
#X msg 15 72 Prepa1;
#X msg 112 68 Prepa2;
#X connect 0 0 3 0;
#X connect 0 1 3 0;
#X connect 1 0 9 0;
#X connect 2 0 25 0;
#X connect 3 0 13 0;
#X connect 4 0 2 0;
#X connect 4 0 16 0;
#X connect 5 0 17 0;
#X connect 6 0 7 0;
#X connect 7 0 8 0;
#X connect 8 0 4 0;
#X connect 10 0 17 0;
#X connect 10 1 5 0;
#X connect 11 0 6 0;
#X connect 12 0 11 0;
#X connect 15 0 26 0;
#X connect 17 0 6 0;
#X connect 21 0 20 0;
#X connect 21 0 10 0;
#X connect 22 0 18 0;
#X connect 23 0 0 0;
#X connect 24 0 7 1;
#X connect 26 0 14 0;
#X connect 27 0 19 0;
#X connect 28 0 10 0;
#X connect 29 0 10 0;
#X restore 266 252 pd apmaster_autoload;
#N canvas 433 551 636 280 apmaster_symbol 0;
#X obj 75 38 route loaded saved;
#X obj 75 155 outlet;
#X obj 75 67 symbol;
#X obj 75 100 splitpath;
#X obj 75 16 r PREPAschoolscape-apmaster-snd;
#X symbolatom 199 177 0 0 0 0 - - -;
#X obj 157 90 r PREPAschoolscape-apmaster-snd-name;
#X connect 0 0 2 0;
#X connect 0 1 2 0;
#X connect 2 0 3 0;
#X connect 3 1 1 0;
#X connect 4 0 0 0;
#X restore 154 18 pd apmaster_symbol;
#X symbolatom 3 42 0 0 0 0 - - NameSongSymbol;
#X msg 67 371 savein;
#X obj 38 104 bng 15 250 50 0 empty empty reload 17 7 1 10 -4034 -1
-1;
#X msg 14 371 loadin;
#X symbolatom 163 228 10 0 0 0 - - -;
#X obj 147 307 hradio 15 1 0 4 empty empty empty 0 -8 0 10 -4034 -1
-1 0;
#X obj 269 307 hradio 15 1 0 4 empty empty empty 0 -8 0 10 -258113
-1 -1 0;
#X msg 147 325 _all_ load \$1;
#X msg 269 326 _all_ store \$1;
#X obj 108 256 t b b;
#X msg 133 278 0, f 1;
#X obj 44 255 t b b;
#X msg 70 277 0, f 1;
#X obj 185 94 bng 15 250 50 0 empty empty empty 17 7 0 10 -262144 -1
-1;
#X obj 126 12 bng 15 250 50 0 empty empty empty 17 7 0 10 -262144 -1
-1;
#X symbolatom 294 442 0 0 0 0 - - -;
#X symbolatom 258 547 0 0 0 0 - - -;
#X symbolatom 417 496 10 0 0 0 - - -;
#X obj 421 474 r list-sets-number;
#X obj 288 419 r set-play-name;
#X symbolatom 174 483 10 0 0 0 - - -;
#X symbolatom 626 309 0 0 0 0 - - -;
#X symbolatom 424 354 10 0 0 0 - - -;
#X obj 502 168 r datadir;
#X symbolatom 480 195 0 0 0 0 - - -;
#X symbolatom 423 147 0 0 0 0 - - -;
#X symbolatom 494 432 0 0 0 0 - - -;
#X obj 449 398 print;
#X obj 528 221 symbol;
#X symbolatom 545 248 0 0 0 0 - - -;
#X obj 412 225 bng 15 250 50 0 empty empty empty 17 7 0 10 -262144
-1 -1;
#X obj 592 329 t b s;
#X obj 473 313 t b;
#X obj 534 373 pack s s;
#X obj 376 44 == 0;
#X obj 384 77 tgl 15 0 empty empty empty 17 7 0 10 -262144 -1 -1 0
1;
#X obj 223 107 spigot 1;
#X obj 366 103 pipe 100;
#X obj 378 22 r Prepa-saving;
#X obj 229 57 r All-LoadPrepa;
#X obj 7 208 apmaster PREPAschoolscape;
#X obj 67 394 s PREPAschoolscape-apmaster-rcv;
#X obj 445 279 r NomDuPrepaSelectionné;
#X obj 698 553 s datadirInstruments2;
#X obj 697 517 s datadirPrepas;
#X obj 172 359 s PREPAschoolscape-pattern-snd;
#X obj 106 48 r All-SavePREPA;
#N canvas 433 340 393 490 getPREPA 0;
#X obj 68 20 r SYNCER/r;
#X obj 76 98 list split 1;
#X obj 116 121 list trim;
#X obj 76 76 route state;
#X obj 116 165 symbol;
#X symbolatom 51 190 10 0 0 0 - - -;
#X obj 115 209 outlet;
#X obj 116 144 route /SONG /UNLOCKSNAP;
#X obj 273 241 outlet;
#X obj 273 50 r Shift-rcv;
#X msg 300 133 reset;
#X obj 273 93 t b b;
#X obj 300 113 del 200;
#X obj 273 178 sel 4;
#X obj 273 72 sel 1;
#X obj 273 221 spigot;
#X obj 183 167 t f f;
#X obj 183 197 sel 0 1;
#X msg 202 218 1, f 1;
#X obj 181 335 i;
#X obj 213 337 + 1;
#X obj 181 359 mod 2;
#X msg 154 256 0, f 1;
#X obj 154 235 t b b;
#X msg 181 256 0, f 1;
#X obj 181 380 s Led9-rcv;
#X obj 181 312 metro 100;
#X obj 273 157 count 5;
#X connect 1 1 2 0;
#X connect 2 0 7 0;
#X connect 3 0 1 0;
#X connect 4 0 5 0;
#X connect 4 0 6 0;
#X connect 7 0 4 0;
#X connect 7 1 16 0;
#X connect 9 0 14 0;
#X connect 10 0 27 0;
#X connect 11 0 27 0;
#X connect 11 1 12 0;
#X connect 12 0 10 0;
#X connect 13 0 15 0;
#X connect 14 0 11 0;
#X connect 15 0 8 0;
#X connect 16 0 17 0;
#X connect 16 1 15 1;
#X connect 17 0 23 0;
#X connect 17 1 18 0;
#X connect 18 0 26 0;
#X connect 19 0 20 0;
#X connect 19 0 21 0;
#X connect 20 0 19 1;
#X connect 21 0 25 0;
#X connect 22 0 19 0;
#X connect 23 0 22 0;
#X connect 23 1 24 0;
#X connect 24 0 26 0;
#X connect 26 0 19 0;
#X connect 27 0 13 0;
#X restore 132 173 pd getPREPA;
#X obj 258 509 r PrepaPropsFilename;
#X obj 440 122 r datadirPrepas;
#X obj 597 286 r Prepa;
#X obj 176 457 r mainPrepa-load;
#X msg 601 375 symbol \$1/schoolscapeSETTINGS/ConfigPrepa/\$2;
#X msg 536 404 symbol \$1/schoolscapeSETTINGS/ConfigPrepa/;
#X obj 393 175 loadbang;
#X obj 392 198 del 500;
#X connect 1 0 15 0;
#X connect 2 0 46 0;
#X connect 3 0 46 1;
#X connect 5 0 6 0;
#X connect 7 0 47 0;
#X connect 8 0 17 0;
#X connect 9 0 47 0;
#X connect 11 0 13 0;
#X connect 12 0 14 0;
#X connect 13 0 51 0;
#X connect 14 0 51 0;
#X connect 15 0 7 0;
#X connect 15 1 16 0;
#X connect 16 0 12 0;
#X connect 17 0 9 0;
#X connect 17 1 18 0;
#X connect 18 0 11 0;
#X connect 24 0 23 0;
#X connect 25 0 21 0;
#X connect 29 0 30 0;
#X connect 29 0 34 1;
#X connect 34 0 35 0;
#X connect 34 0 39 0;
#X connect 36 0 34 0;
#X connect 37 0 39 0;
#X connect 37 1 39 1;
#X connect 38 0 34 0;
#X connect 38 0 39 0;
#X connect 39 0 59 0;
#X connect 40 0 41 0;
#X connect 40 0 43 0;
#X connect 42 0 8 0;
#X connect 43 0 42 1;
#X connect 44 0 40 0;
#X connect 45 0 19 0;
#X connect 45 0 42 0;
#X connect 48 0 28 0;
#X connect 48 0 38 0;
#X connect 52 0 1 0;
#X connect 52 0 20 0;
#X connect 53 0 10 0;
#X connect 53 1 1 0;
#X connect 54 0 22 0;
#X connect 55 0 31 0;
#X connect 56 0 27 0;
#X connect 56 0 37 0;
#X connect 57 0 26 0;
#X connect 59 0 32 0;
#X connect 59 0 50 0;
#X connect 60 0 61 0;
#X connect 61 0 34 0;
#X coords 0 -1 1 1 100 180 1 0 0;
