#N canvas 158 539 903 679 10;
#X obj 1 20 cnv 15 99 158 empty empty MASTERS 5 12 1 14 -260097 -1
0;
#X obj 33 75 bng 25 250 50 0 empty empty save 3 -7 1 10 -258113 -1
-1;
#X obj 23 141 bng 15 250 50 0 empty empty load 17 7 1 10 -4034 -1 -1
;
#X obj 24 167 bng 15 250 50 0 empty empty save_as 17 7 1 10 -258113
-1 -1;
#N canvas 1237 959 683 614 apmaster_autoload 0;
#X obj 406 61 route loaded saved;
#X obj 29 162 loadbang;
#X msg 84 397 loadfile \$1;
#X obj 410 90 symbol;
#X obj 84 369 symbol;
#X msg 84 196 set \$1;
#X obj 84 249 symbol;
#X obj 84 271 pack s s;
#X msg 84 293 symbol \$2/\$1;
#X obj 29 184 del 2000;
#X obj 103 131 t b s;
#X obj 200 73 symbol;
#X obj 200 43 inlet;
#X obj 406 116 splitpath;
#X symbolatom 342 281 0 0 0 0 - - -;
#X obj 342 229 r schoolscape_SETTINGSDIR;
#X msg 342 252 symbol \$1ConfigSong;
#X symbolatom 19 444 0 0 0 0 - - -;
#X obj 406 16 r MASTERschoolscape-apmaster-snd;
#X msg 85 223 Marmande;
#X obj 84 422 s MASTERschoolscape-apmaster-rcv;
#X symbolatom 199 123 0 0 0 0 - - -;
#X obj 200 99 r set-play-name;
#X obj 208 153 r datadirInstruments;
#X symbolatom 211 181 0 0 0 0 - - -;
#X obj 44 14 r NomDuSetSelectionné;
#X symbolatom 89 51 10 0 0 0 - - -;
#X obj 345 154 r datadirInstruments2;
#X connect 0 0 3 0;
#X connect 0 1 3 0;
#X connect 1 0 9 0;
#X connect 2 0 20 0;
#X connect 3 0 13 0;
#X connect 4 0 2 0;
#X connect 4 0 17 0;
#X connect 5 0 19 0;
#X connect 6 0 7 0;
#X connect 7 0 8 0;
#X connect 8 0 4 0;
#X connect 10 0 19 0;
#X connect 10 1 5 0;
#X connect 11 0 6 0;
#X connect 12 0 11 0;
#X connect 15 0 16 0;
#X connect 16 0 14 0;
#X connect 19 0 6 0;
#X connect 22 0 21 0;
#X connect 23 0 24 0;
#X connect 23 0 7 1;
#X connect 25 0 26 0;
#X connect 25 0 10 0;
#X connect 27 0 7 1;
#X restore 266 252 pd apmaster_autoload;
#N canvas 1083 551 636 280 apmaster_symbol 0;
#X obj 75 38 route loaded saved;
#X obj 75 155 outlet;
#X obj 75 67 symbol;
#X obj 75 100 splitpath;
#X obj 75 16 r MASTERschoolscape-apmaster-snd;
#X connect 0 0 2 0;
#X connect 0 1 2 0;
#X connect 2 0 3 0;
#X connect 3 1 1 0;
#X connect 4 0 0 0;
#X restore 154 18 pd apmaster_symbol;
#X symbolatom 3 42 0 0 0 0 - - NameSongSymbol;
#X msg 56 471 savein;
#X obj 38 104 bng 15 250 50 0 empty empty reload 17 7 1 10 -4034 -1
-1;
#X msg 3 471 loadin;
#X symbolatom 163 228 10 0 0 0 - - -;
#X obj 136 407 hradio 15 1 0 4 empty empty empty 0 -8 0 10 -4034 -1
-1 0;
#X obj 258 407 hradio 15 1 0 4 empty empty empty 0 -8 0 10 -258113
-1 -1 0;
#X msg 136 425 _all_ load \$1;
#X msg 258 426 _all_ store \$1;
#X obj 108 256 t b b;
#X msg 133 278 0, f 1;
#X msg 82 290 0, f 1;
#X obj 185 94 bng 15 250 50 0 empty empty empty 17 7 0 10 -262144 -1
-1;
#X obj 126 12 bng 15 250 50 0 empty empty empty 17 7 0 10 -262144 -1
-1;
#X obj 106 48 r All-SaveMASTER;
#X obj 7 208 apmaster MASTERschoolscape;
#X obj 56 494 s MASTERschoolscape-apmaster-rcv;
#X obj 161 459 s MASTERschoolscape-pattern-snd;
#X obj 229 57 r All-LoadMASTER;
#N canvas 384 310 721 490 getMASTER 0;
#X obj 68 20 r SYNCER/r;
#X obj 76 98 list split 1;
#X obj 116 121 list trim;
#X obj 76 76 route state;
#X obj 116 165 symbol;
#X symbolatom 51 190 10 0 0 0 - - -;
#X obj 115 209 outlet;
#X obj 116 144 route /SONG /UNLOCKSNAP;
#X obj 273 241 outlet;
#X obj 273 50 r Shift-rcv;
#X msg 300 133 reset;
#X obj 273 93 t b b;
#X obj 300 113 del 200;
#X obj 273 178 sel 4;
#X obj 273 72 sel 1;
#X obj 273 221 spigot;
#X obj 183 167 t f f;
#X obj 183 197 sel 0 1;
#X msg 202 218 1, f 1;
#X obj 181 335 i;
#X obj 213 337 + 1;
#X obj 181 359 mod 2;
#X msg 154 256 0, f 1;
#X obj 154 235 t b b;
#X msg 181 256 0, f 1;
#X obj 181 380 s Led9-rcv;
#X obj 181 312 metro 100;
#X obj 273 157 count 5;
#X connect 1 1 2 0;
#X connect 2 0 7 0;
#X connect 3 0 1 0;
#X connect 4 0 5 0;
#X connect 4 0 6 0;
#X connect 7 0 4 0;
#X connect 7 1 16 0;
#X connect 9 0 14 0;
#X connect 10 0 27 0;
#X connect 11 0 27 0;
#X connect 11 1 12 0;
#X connect 12 0 10 0;
#X connect 13 0 15 0;
#X connect 14 0 11 0;
#X connect 15 0 8 0;
#X connect 16 0 17 0;
#X connect 16 1 15 1;
#X connect 17 0 23 0;
#X connect 17 1 18 0;
#X connect 18 0 26 0;
#X connect 19 0 20 0;
#X connect 19 0 21 0;
#X connect 20 0 19 1;
#X connect 21 0 25 0;
#X connect 22 0 19 0;
#X connect 23 0 22 0;
#X connect 23 1 24 0;
#X connect 24 0 26 0;
#X connect 26 0 19 0;
#X connect 27 0 13 0;
#X restore 132 173 pd getMASTER;
#X symbolatom 422 557 0 0 0 0 - - -;
#X symbolatom 530 568 0 0 0 0 - - -;
#X obj 530 543 r setPropsFilename;
#X symbolatom 417 496 10 0 0 0 - - -;
#X obj 421 474 r list-sets-number;
#X obj 416 534 r set-play-name;
#X symbolatom 540 513 10 0 0 0 - - -;
#X obj 542 487 r mainSeq-load;
#X obj 597 286 r set;
#X symbolatom 648 346 0 0 0 0 - - -;
#X obj 445 279 r NomDuSetSelectionné;
#X symbolatom 424 354 10 0 0 0 - - -;
#X obj 502 168 r datadir;
#X symbolatom 480 195 0 0 0 0 - - -;
#X obj 440 122 r datadirInstruments;
#X symbolatom 423 147 0 0 0 0 - - -;
#X symbolatom 494 432 0 0 0 0 - - -;
#X obj 449 398 print;
#X obj 528 221 symbol;
#X symbolatom 545 248 0 0 0 0 - - -;
#X obj 412 225 bng 15 250 50 0 empty empty empty 17 7 0 10 -262144
-1 -1;
#X obj 473 313 t b;
#X obj 534 373 pack s s;
#X obj 697 517 s datadirInstruments2;
#X msg 536 404 symbol \$1/set/\$2;
#X obj 378 22 r set-saving;
#X obj 376 44 == 0;
#X obj 384 77 tgl 15 0 empty empty empty 17 7 0 10 -262144 -1 -1 1
1;
#X obj 223 107 spigot 1;
#X obj 366 103 pipe 100;
#X obj 261 141 r NbRecallPrepa;
#X obj 240 292 r All-SavePatternMASTER;
#X obj 243 322 t b f;
#X floatatom 284 352 5 0 0 0 - - -;
#X obj 278 377 - 1;
#X floatatom 344 385 5 0 0 0 - - -;
#X obj 261 166 - 1;
#X msg 134 330 1, f 1;
#X obj 345 336 print;
#X obj 286 185 change;
#X msg 152 334 2, f 1;
#X obj 256 215 pipe 100;
#X obj 219 353 del 200;
#X obj 258 523 s NomDuSetChargé;
#X obj 44 255 t b b b;
#X obj 44 307 bng 15 250 50 0 empty empty empty 17 7 0 10 -262144 -1
-1;
#X obj 9 293 del 500;
#X obj 4 391 bng 15 250 50 0 empty empty empty 17 7 0 10 -262144 -1
-1;
#X obj 659 304 s 1-PrepaRecall;
#X obj 592 329 t b b s;
#X obj 353 173 s LoadTuneTab;
#X obj 332 216 t b;
#X obj 17 347 s LoadTuneTab;
#X connect 1 0 15 0;
#X connect 2 0 21 0;
#X connect 3 0 21 1;
#X connect 5 0 6 0;
#X connect 7 0 22 0;
#X connect 8 0 70 0;
#X connect 9 0 22 0;
#X connect 11 0 13 0;
#X connect 12 0 14 0;
#X connect 13 0 23 0;
#X connect 14 0 23 0;
#X connect 15 0 7 0;
#X connect 15 1 16 0;
#X connect 16 0 12 0;
#X connect 17 0 11 0;
#X connect 20 0 1 0;
#X connect 20 0 19 0;
#X connect 24 0 18 0;
#X connect 24 0 54 0;
#X connect 25 0 10 0;
#X connect 25 1 1 0;
#X connect 28 0 27 0;
#X connect 30 0 29 0;
#X connect 31 0 26 0;
#X connect 33 0 32 0;
#X connect 34 0 35 0;
#X connect 34 0 75 0;
#X connect 36 0 37 0;
#X connect 36 0 47 0;
#X connect 38 0 39 0;
#X connect 38 0 44 1;
#X connect 40 0 41 0;
#X connect 44 0 45 0;
#X connect 44 0 48 0;
#X connect 46 0 44 0;
#X connect 47 0 44 0;
#X connect 47 0 48 0;
#X connect 48 0 50 0;
#X connect 50 0 42 0;
#X connect 50 0 49 0;
#X connect 51 0 52 0;
#X connect 52 0 53 0;
#X connect 52 0 55 0;
#X connect 54 0 8 0;
#X connect 55 0 54 1;
#X connect 56 0 62 0;
#X connect 57 0 58 0;
#X connect 58 0 68 0;
#X connect 58 1 59 0;
#X connect 58 1 60 0;
#X connect 60 0 12 0;
#X connect 62 0 65 0;
#X connect 62 0 67 0;
#X connect 63 0 11 0;
#X connect 66 0 11 0;
#X connect 67 0 11 0;
#X connect 67 0 77 0;
#X connect 68 0 7 0;
#X connect 70 0 72 0;
#X connect 70 1 17 0;
#X connect 70 2 9 0;
#X connect 72 0 73 0;
#X connect 72 0 78 0;
#X connect 75 0 74 0;
#X connect 75 1 48 0;
#X connect 75 2 48 1;
#X coords 0 -1 1 1 100 180 1 0 0;
