#N canvas 180 908 420 307 10;
#X obj 11 11 cnv 15 99 122 empty empty MASTERS 5 12 1 14 -260097 -1
0;
#X obj 38 54 bng 25 250 50 0 empty empty save 3 -7 1 10 -258113 -1
-1;
#X obj 29 144 bng 15 250 50 0 empty empty load 17 7 1 10 -4034 -1 -1
;
#X obj 29 170 bng 15 250 50 0 empty empty save_as 17 7 1 10 -258113
-1 -1;
#N canvas 649 134 541 521 apmaster_autoload 0;
#X obj 84 34 route loaded saved;
#X obj 29 162 loadbang;
#X msg 84 397 loadfile \$1;
#X obj 84 78 symbol;
#X obj 84 369 symbol;
#X msg 84 196 set \$1;
#X msg 84 223 MASTERS;
#X obj 236 353 pack s s;
#X obj 236 308 t b a;
#X obj 84 249 symbol;
#X obj 236 330 getdir 5;
#X obj 84 271 pack s s;
#X msg 84 293 symbol \$2/\$1;
#X obj 29 184 del 2000;
#X obj 84 12 r MASTERschoolscape-apmaster-snd;
#X obj 84 422 s MASTERschoolscape-apmaster-rcv;
#X obj 27 119 splitpath;
#X obj 189 153 r schoolscape_SETTINGSDIR;
#X obj 236 377 makesymbol %s/pd/schoolscapeSETTINGS/ConfigMaster/%s
;
#X msg 189 176 symbol \$1/ConfigMaster;
#X connect 0 0 3 0;
#X connect 0 1 3 0;
#X connect 1 0 13 0;
#X connect 2 0 15 0;
#X connect 3 0 16 0;
#X connect 4 0 2 0;
#X connect 5 0 6 0;
#X connect 6 0 9 0;
#X connect 7 0 18 0;
#X connect 8 0 10 0;
#X connect 8 1 7 1;
#X connect 9 0 11 0;
#X connect 10 0 7 0;
#X connect 11 0 12 0;
#X connect 12 0 4 0;
#X connect 13 0 6 0;
#X connect 14 0 0 0;
#X connect 16 1 5 0;
#X connect 17 0 19 0;
#X connect 19 0 11 1;
#X restore 152 69 pd apmaster_autoload;
#N canvas 513 301 568 280 apmaster_symbol 0;
#X obj 75 38 route loaded saved;
#X obj 75 155 outlet;
#X obj 75 67 symbol;
#X obj 75 16 r MASTERschoolscape-apmaster-snd;
#X obj 75 100 splitpath;
#X connect 0 0 2 0;
#X connect 0 1 2 0;
#X connect 2 0 4 0;
#X connect 3 0 0 0;
#X connect 4 1 1 0;
#X restore 154 18 pd apmaster_symbol;
#X symbolatom 154 43 0 0 0 0 - - -;
#X msg 160 143 savein;
#X obj 38 104 bng 15 250 50 0 empty empty reload 17 7 1 10 -4034 -1
-1;
#X msg 107 143 loadin;
#X obj 160 166 s MASTERschoolscape-apmaster-rcv;
#X obj 16 202 apmaster MASTERschoolscape;
#X connect 1 0 7 0;
#X connect 2 0 11 0;
#X connect 3 0 11 1;
#X connect 5 0 6 0;
#X connect 7 0 10 0;
#X connect 8 0 9 0;
#X connect 9 0 10 0;
#X coords 0 -1 1 1 100 180 1 10 10;
