#N canvas 433 802 679 845 12;
#X obj 354 57 t b b;
#X obj 354 32 loadbang;
#X obj 260 452 route down;
#X obj 322 157 tgl 15 0 empty empty empty 17 7 0 10 -262144 -1 -1 0
1;
#X obj 322 179 sel 0 1;
#X msg 227 386 draw \$1;
#X obj 315 386 bng 15 250 50 0 empty empty empty 17 7 0 10 -262144
-1 -1;
#X floatatom 219 304 5 0 0 0 - - -;
#X floatatom 271 314 5 0 0 0 - - -;
#X obj 190 340 pofscale 1 1;
#X obj 192 421 poftouch 60 60;
#X obj 454 308 r \$1-Set-OnOff;
#X obj 260 476 b;
#X floatatom 89 94 5 0 0 0 - - -;
#X floatatom 128 93 5 0 0 0 - - -;
#X obj 169 518 bng 15 250 50 0 empty empty empty 17 7 0 10 -262144
-1 -1;
#X obj 55 48 inlet;
#X obj 186 274 pofimage instruments/BoutonMachineUp.png 60 60;
#X msg 340 84 reserve instruments/BoutonMachineOn.png \, reserve instruments/BoutonMachineOff.png
, f 93;
#X msg 414 111 reserve instruments/BoutonMachineTouch.png \, reserve
instruments/BoutonMachineUp.png, f 92;
#X msg 322 203 set instruments/BoutonMachineUp.png, f 55;
#X msg 341 225 set instruments/BoutonMachineTouch.png, f 53;
#X obj 335 366 bng 15 250 50 0 empty empty empty 17 7 0 10 -262144
-1 -1;
#X obj 363 365 bng 15 250 50 0 empty empty empty 17 7 0 10 -262144
-1 -1;
#X obj 432 365 route up down;
#X msg 432 392 0;
#X msg 469 391 1;
#X obj 472 418 tgl 15 0 empty empty empty 17 7 0 10 -262144 -1 -1 0
1;
#X obj 410 436 t;
#X obj 433 466 sel 0 1;
#X msg 483 571 1;
#X msg 438 541 stop;
#X obj 452 507 t b b;
#X msg 408 549 0;
#X obj 455 623 f;
#X floatatom 502 658 5 0 0 0 - - -;
#X obj 455 655 sel 1;
#X obj 330 733 spigot 1;
#X msg 541 701 0;
#X msg 376 693 1;
#X obj 377 498 t b b b b;
#X obj 50 124 poftranslate \$2 \$3;
#X obj 96 212 pofcolor 1 1 1 1;
#X obj 55 145 t a a a;
#X msg 212 140 1 1 1 1;
#X obj 206 54 r NbRecallPrepa;
#X obj 206 82 sel \$1;
#N canvas 448 1076 450 404 text 0;
#X obj 75 312 poftexts typo 18;
#X obj 124 209 loadbang;
#X obj 80 66 inlet;
#X floatatom 94 98 5 0 0 0 - - -;
#X floatatom 134 94 5 0 0 0 - - -;
#X obj 291 227 print songg;
#X obj 276 128 r NameSong-snd;
#X obj 124 234 symbol Basic;
#X obj 76 180 pofcolor 1 0 0 1;
#X msg 175 270 text \$1;
#X obj 209 164 loadbang;
#X obj 234 221 f \$1;
#X obj 279 177 bng 15 250 50 0 empty empty empty 17 7 0 10 -262144
-1 -1;
#X obj 59 125 poftranslate 1 14;
#X connect 1 0 7 0;
#X connect 2 0 13 0;
#X connect 3 0 13 1;
#X connect 4 0 13 2;
#X connect 7 0 9 0;
#X connect 8 0 0 0;
#X connect 9 0 0 0;
#X connect 10 0 11 0;
#X connect 11 0 9 0;
#X connect 12 0 11 0;
#X connect 13 0 8 0;
#X restore 17 241 pd text NbPrepa;
#N canvas 1209 2039 450 404 text 0;
#X obj 75 312 poftexts typo 18;
#X obj 175 247 loadbang;
#X obj 80 66 inlet;
#X floatatom 94 98 5 0 0 0 - - -;
#X floatatom 134 94 5 0 0 0 - - -;
#X obj 76 180 pofcolor 1 0 0 1;
#X msg 175 270 text Prepa;
#X obj 59 125 poftranslate 1 -6;
#X connect 1 0 6 0;
#X connect 2 0 7 0;
#X connect 3 0 7 1;
#X connect 4 0 7 2;
#X connect 5 0 0 0;
#X connect 6 0 0 0;
#X connect 7 0 5 0;
#X restore 73 271 pd text Prepa;
#X obj 162 168 unpack f f f f;
#N canvas 37 2191 450 300 StoreButColor 0;
#X obj 89 200 outlet;
#X obj 77 50 sel 0 1;
#X msg 110 115 1 1 0 1;
#X msg 35 81 1 1 1 1;
#X msg 213 113 1 0 1 1;
#X obj 46 17 r \$1-StorePrepaBut;
#X connect 1 0 3 0;
#X connect 1 1 2 0;
#X connect 1 1 4 0;
#X connect 3 0 0 0;
#X connect 4 0 0 0;
#X connect 5 0 1 0;
#X restore 189 25 pd StoreButColor;
#N canvas 0 2009 450 300 RecallButColor 0;
#X obj 59 146 outlet;
#X obj 77 50 sel 0 1;
#X msg 110 115 1 1 0 1;
#X obj 196 120 bng 15 250 50 0 empty empty empty 17 7 0 10 -262144
-1 -1;
#X obj 237 124 bng 15 250 50 0 empty empty empty 17 7 0 10 -262144
-1 -1;
#X obj 46 17 r \$1-RecallPrepaBut;
#X msg 35 81 1 1 0 1;
#X connect 1 0 6 0;
#X connect 1 0 3 0;
#X connect 1 1 2 0;
#X connect 1 1 4 0;
#X connect 2 0 0 0;
#X connect 5 0 1 0;
#X connect 6 0 0 0;
#X restore 139 2 pd RecallButColor;
#X obj 280 131 r \$1-RecallPrepaBut;
#X msg 203 111 1 1 0 1;
#N canvas 96 1428 605 492 RecallPrepa 1;
#X obj 103 35 inlet;
#X obj 237 363 del 250;
#X obj 209 328 t b b;
#X msg 192 362 1;
#X msg 238 385 0;
#X obj 227 428 s \$1-RecallPrepaBut;
#X obj 64 387 s \$1-PrepaRecall;
#X obj 334 356 f \$1;
#X obj 334 382 s NbRecallPrepa;
#X obj 98 250 t b b b;
#X obj 263 24 r NbRecallPrepa;
#X obj 263 49 == 0;
#X obj 263 73 tgl 15 0 empty empty empty 17 7 0 10 -262144 -1 -1 1
1;
#X obj 184 156 ddemux;
#X obj 264 192 t b a;
#X obj 97 337 bng 15 250 50 0 empty empty empty 17 7 0 10 -262144 -1
-1;
#X obj 237 224 outlet;
#X connect 0 0 13 0;
#X connect 1 0 4 0;
#X connect 2 0 3 0;
#X connect 2 1 1 0;
#X connect 3 0 5 0;
#X connect 4 0 5 0;
#X connect 7 0 8 0;
#X connect 9 0 6 0;
#X connect 9 1 2 0;
#X connect 9 2 7 0;
#X connect 10 0 11 0;
#X connect 11 0 12 0;
#X connect 12 0 13 1;
#X connect 13 0 9 0;
#X connect 13 1 14 0;
#X connect 14 0 16 0;
#X connect 15 0 6 0;
#X restore 328 757 pd RecallPrepa;
#N canvas 299 836 602 571 StorePrepa 1;
#X obj 45 20 inlet;
#X obj 98 268 del 250;
#X obj 71 247 t b b;
#X msg 54 281 1;
#X msg 99 290 0;
#X obj 260 349 f \$1;
#X obj 260 375 s NbRecallPrepa;
#X obj 189 250 t b;
#X obj 41 345 s \$1-StorePrepaBut;
#X obj 225 232 bng 15 250 50 0 empty empty empty 17 7 0 10 -262144
-1 -1;
#X obj 155 320 bng 15 250 50 0 empty empty empty 17 7 0 10 -262144
-1 -1;
#X obj 190 288 del 10;
#X obj 230 452 s \$1-PrepaStore;
#X obj 230 315 t b b;
#X obj 230 424 del 10;
#X obj 309 29 r NbRecallPrepa;
#X obj 309 54 == 0;
#X obj 309 78 tgl 15 0 empty empty empty 17 7 0 10 -262144 -1 -1 1
1;
#X obj 230 161 ddemux;
#X obj 310 197 t b a;
#X obj 283 229 outlet;
#X connect 0 0 18 0;
#X connect 1 0 4 0;
#X connect 2 0 3 0;
#X connect 2 1 1 0;
#X connect 3 0 8 0;
#X connect 4 0 8 0;
#X connect 4 0 10 0;
#X connect 4 0 7 0;
#X connect 5 0 6 0;
#X connect 7 0 11 0;
#X connect 9 0 7 0;
#X connect 11 0 13 0;
#X connect 13 0 14 0;
#X connect 13 1 5 0;
#X connect 14 0 12 0;
#X connect 15 0 16 0;
#X connect 16 0 17 0;
#X connect 17 0 18 1;
#X connect 18 0 2 0;
#X connect 18 1 19 0;
#X connect 19 0 20 0;
#X restore 456 750 pd StorePrepa;
#X obj 454 678 t b b;
#X obj 479 540 del 500;
#X obj 98 48 inlet;
#X obj 143 47 inlet;
#X obj 53 317 r NbRecallPrepa;
#X obj 53 344 == 0;
#X obj 53 375 tgl 15 0 empty empty empty 17 7 0 10 -262144 -1 -1 1
1;
#X obj 218 678 r Prepa-1_On;
#X obj 203 747 bng 15 250 50 0 empty empty empty 17 7 0 10 -262144
-1 -1;
#N canvas 331 654 869 1145 popupSave/Load 0;
#X obj 98 33 inlet;
#X floatatom 639 323 5 0 0 0 - - -;
#X obj 500 143 poftexts vera 35 -1;
#X floatatom 522 34 5 0 0 0 - - -;
#X floatatom 561 61 5 0 0 0 - - -;
#X floatatom 609 58 5 0 0 0 - - -;
#X obj 669 57 loadbang;
#X obj 41 508 t a a;
#X floatatom 165 557 5 0 0 0 - - -;
#X floatatom 213 564 5 0 0 0 - - -;
#X floatatom 266 802 5 0 0 0 - - -;
#X obj 39 287 t a a;
#X obj 312 450 route down;
#X msg 193 421 draw 1;
#X obj 191 399 loadbang;
#X msg 336 476 0;
#X msg 79 107 1;
#X obj 129 444 pofcolor 0 0 0 0.8;
#X obj 136 626 vsl 15 100 0 1 0 0 empty empty empty 0 -9 0 10 -262144
-1 -1 0 1;
#X floatatom 136 733 5 0 0 0 - - -;
#X obj 203 626 vsl 15 100 0 1 0 0 empty empty empty 0 -9 0 10 -262144
-1 -1 0 1;
#X floatatom 203 733 5 0 0 0 - - -;
#X obj 270 625 vsl 15 100 0 1 0 0 empty empty empty 0 -9 0 10 -262144
-1 -1 0 1;
#X floatatom 270 732 5 0 0 0 - - -;
#X obj 337 625 vsl 15 100 0 1 0 0 empty empty empty 0 -9 0 10 -262144
-1 -1 0 1;
#X floatatom 337 732 5 0 0 0 - - -;
#X floatatom 192 802 5 0 0 0 - - -;
#X obj 288 470 bng 15 250 50 0 empty empty empty 17 7 0 10 -262144
-1 -1;
#X obj 386 500 bng 15 250 50 0 empty empty empty 17 7 0 10 -262144
-1 -1;
#N canvas 618 356 344 423 vis 0;
#X obj 22 14 inlet;
#X floatatom 120 111 5 0 0 0 - - -;
#X floatatom 62 130 5 0 0 0 - - -;
#X obj 31 80 unpack f f f;
#X floatatom 10 128 5 0 0 0 - - -;
#X obj 113 326 outlet;
#X obj 28 237 t b;
#X obj 164 236 t b;
#X msg 113 291 0;
#X obj 28 172 moses -365;
#X obj 95 197 moses 365;
#X obj 164 171 moses -230;
#X obj 231 196 moses 260;
#X connect 0 0 3 0;
#X connect 3 0 4 0;
#X connect 3 0 9 0;
#X connect 3 1 2 0;
#X connect 3 1 11 0;
#X connect 3 2 1 0;
#X connect 6 0 8 0;
#X connect 7 0 8 0;
#X connect 8 0 5 0;
#X connect 9 0 6 0;
#X connect 9 1 10 0;
#X connect 10 1 6 0;
#X connect 11 0 7 0;
#X connect 11 1 12 0;
#X connect 12 1 7 0;
#X restore 319 510 pd vis;
#X msg 319 535 0;
#X msg 105 173 0;
#X obj 118 583 poftranslate 0 0;
#X msg 189 359 draw 0;
#X obj 139 235 nbx 5 14 -1e+37 1e+37 0 1 empty empty empty 0 -8 0 10
-262144 -1 -1 -35 256;
#X obj 202 236 nbx 5 14 -1e+37 1e+37 0 1 empty empty empty 0 -8 0 10
-262144 -1 -1 5 256;
#X floatatom 347 387 5 0 0 0 - - -;
#X obj 326 323 r PrefGamme-r;
#X obj 390 352 bng 15 250 50 0 empty empty empty 17 7 0 10 -262144
-1 -1;
#X obj 654 95 f \$1;
#X obj 98 253 poftranslate 0 0;
#X obj 532 177 nbx 5 14 -1e+37 1e+37 0 1 empty empty empty 0 -8 0 10
-262144 -1 -1 -131 256;
#X obj 590 177 nbx 5 14 -1e+37 1e+37 0 1 empty empty empty 0 -8 0 10
-262144 -1 -1 57 256;
#X floatatom 638 605 5 0 0 0 - - -;
#X obj 42 541 t a a;
#X obj 491 196 poftranslate, f 21;
#X obj 119 776 pofcolor 0.6 0 0.7 1, f 37;
#X obj 706 87 bng 15 250 50 0 empty empty empty 17 7 0 10 -262144 -1
-1;
#X obj 33 220 pofvisible;
#X obj 166 39 tgl 15 0 empty empty empty 17 7 0 10 -262144 -1 -1 0
1;
#X obj 208 137 t a a;
#X obj 291 173 poftouch 6000 6000;
#X obj 391 236 route down;
#X msg 318 57 0;
#X obj 203 33 sel 1;
#X msg 188 67 1;
#X msg 364 114 draw 1;
#X obj 364 93 loadbang;
#X obj 291 148 pofcolor 0 0 0 0.75;
#X obj 318 4 r page;
#X obj 382 277 bng 15 250 50 0 empty empty empty 17 7 0 10 -262144
-1 -1;
#X obj 444 268 bng 15 250 50 0 empty empty empty 17 7 0 10 -262144
-1 -1;
#X msg 513 119 text Prepa-\$1;
#X obj 504 267 poftexts vera 35 -1;
#X obj 538 220 loadbang;
#X obj 533 418 poftexts vera 35 -1;
#X obj 567 371 loadbang;
#X obj 500 346 poftranslate 0 0 0;
#X obj 513 329 nbx 5 14 -1e+37 1e+37 0 1 empty empty empty 0 -8 0 10
-262144 -1 -1 -77 256;
#X obj 575 323 nbx 5 14 -1e+37 1e+37 0 1 empty empty empty 0 -8 0 10
-262144 -1 -1 46 256;
#X msg 517 243 text You don't load any set ...;
#X obj 522 608 nbx 5 14 -1e+37 1e+37 0 1 empty empty empty 0 -8 0 10
-262144 -1 -1 52 256;
#X obj 580 608 nbx 5 14 -1e+37 1e+37 0 1 empty empty empty 0 -8 0 10
-262144 -1 -1 110 256;
#X obj 504 630 poftranslate 0 0 0;
#X floatatom 691 716 5 0 0 0 - - -;
#X obj 585 811 poftexts vera 35 -1;
#X obj 619 764 loadbang;
#X obj 552 739 poftranslate 0 0 0;
#X obj 565 722 nbx 5 14 -1e+37 1e+37 0 1 empty empty empty 0 -8 0 10
-262144 -1 -1 112 256;
#X obj 627 716 nbx 5 14 -1e+37 1e+37 0 1 empty empty empty 0 -8 0 10
-262144 -1 -1 0 256;
#X msg 598 787 text or;
#X floatatom 648 488 5 0 0 0 - - -;
#X obj 532 491 nbx 5 14 -1e+37 1e+37 0 1 empty empty empty 0 -8 0 10
-262144 -1 -1 260 256;
#X obj 590 491 nbx 5 14 -1e+37 1e+37 0 1 empty empty empty 0 -8 0 10
-262144 -1 -1 62 256;
#X obj 514 513 poftranslate 0 0 0;
#N canvas 79 1283 450 499 CreateNew 0;
#X obj 96 21 inlet;
#X obj 96 42 t a a a;
#X obj 135 67 pofcolor 1 1 1 1;
#X msg 253 53 draw 1;
#X obj 253 32 loadbang;
#X obj 115 280 pofcolor 0.2 0.2 0.2 1;
#X obj 96 370 pofcolor 0.8 0.8 0.8 1;
#X obj 19 305 loadbang;
#X obj 128 350 unpack f f f;
#X obj 147 259 unpack f f f;
#X msg 309 259 0.2 0.2 0.2;
#X msg 309 300 0.8 0.8 0.8;
#X msg 252 300 0 0 0 1;
#X obj 228 107 route down;
#X obj 228 128 b;
#X obj 377 167 loadbang;
#X floatatom 169 142 5 0 0 0 - - -;
#X floatatom 136 191 5 0 0 0 - - -;
#X obj 96 391 poftexts asimov 40;
#X obj 169 126 bng 15 250 50 0 empty empty empty 17 7 0 10 -262144
-1 -1;
#X msg 252 258 1 0 0 0;
#X obj 286 136 t b b;
#X obj 373 214 del 100;
#X obj 322 163 del 150;
#X obj 182 177 s saveTune-rcv;
#X obj 135 88 poftouch 200 50;
#X obj 115 300 pofrect 195 45;
#X msg 19 326 text Create new \, width 200 \, center 1;
#X obj 350 99 s InterfaceCreateNewOpened;
#X obj 330 77 bng 15 250 50 0 empty empty empty 17 7 0 10 -262144 -1
-1;
#X obj 322 47 s ClosePopupNoSet;
#X connect 0 0 1 0;
#X connect 1 0 6 0;
#X connect 1 1 5 0;
#X connect 1 2 2 0;
#X connect 2 0 25 0;
#X connect 3 0 25 0;
#X connect 4 0 3 0;
#X connect 5 0 26 0;
#X connect 6 0 18 0;
#X connect 7 0 27 0;
#X connect 8 0 6 1;
#X connect 8 1 6 2;
#X connect 8 2 6 3;
#X connect 9 0 5 1;
#X connect 9 1 5 2;
#X connect 9 2 5 3;
#X connect 10 0 9 0;
#X connect 10 0 11 0;
#X connect 11 0 8 0;
#X connect 12 0 8 0;
#X connect 13 0 14 0;
#X connect 13 1 29 0;
#X connect 14 0 19 0;
#X connect 14 0 21 0;
#X connect 15 0 10 0;
#X connect 20 0 9 0;
#X connect 20 0 12 0;
#X connect 21 1 20 0;
#X connect 21 1 23 0;
#X connect 23 0 10 0;
#X connect 25 1 13 0;
#X connect 27 0 18 0;
#X connect 29 0 28 0;
#X connect 29 0 30 0;
#X restore 539 566 pd CreateNew;
#X obj 131 466 poftouch 530 250;
#X obj 119 825 pofrect 525 245 0 0 0 0;
#X obj 208 88 r overHead;
#X obj 143 298 nbx 5 14 -1e+37 1e+37 0 1 empty empty empty 0 -8 0 10
-262144 -1 -1 -39 256;
#X obj 206 299 nbx 5 14 -1e+37 1e+37 0 1 empty empty empty 0 -8 0 10
-262144 -1 -1 5 256;
#X obj 102 316 poftranslate 0 0;
#X obj 208 113 pofvisible;
#X obj 396 16 r ClosePopupNoSet;
#N canvas 88 756 450 499 Load 0;
#X obj 96 21 inlet;
#X obj 96 42 t a a a;
#X obj 135 67 pofcolor 1 1 1 1;
#X msg 233 30 draw 1;
#X obj 233 9 loadbang;
#X obj 115 280 pofcolor 0.2 0.2 0.2 1;
#X obj 96 370 pofcolor 0.8 0.8 0.8 1;
#X obj 19 305 loadbang;
#X obj 128 350 unpack f f f;
#X obj 147 259 unpack f f f;
#X msg 309 259 0.2 0.2 0.2;
#X msg 309 300 0.8 0.8 0.8;
#X msg 252 300 0 0 0 1;
#X obj 258 100 route down;
#X obj 228 128 b;
#X obj 377 167 loadbang;
#X floatatom 169 142 5 0 0 0 - - -;
#X floatatom 136 191 5 0 0 0 - - -;
#X obj 96 391 poftexts asimov 40;
#X obj 169 126 bng 15 250 50 0 empty empty empty 17 7 0 10 -262144
-1 -1;
#X msg 252 258 1 0 0 0;
#X obj 286 136 t b b;
#X obj 373 214 del 100;
#X obj 322 163 del 150;
#X obj 135 88 poftouch 200 50;
#X obj 115 300 pofrect 195 45;
#X obj 339 116 bng 15 250 50 0 empty empty empty 17 7 0 10 -262144
-1 -1;
#X obj 359 128 s InterfaceSetOpened;
#X obj 302 46 s ClosePopupNoSet;
#X msg 19 326 text Load \, width 200 \, center 1;
#X connect 0 0 1 0;
#X connect 1 0 6 0;
#X connect 1 1 5 0;
#X connect 1 2 2 0;
#X connect 2 0 24 0;
#X connect 3 0 24 0;
#X connect 4 0 3 0;
#X connect 5 0 25 0;
#X connect 6 0 18 0;
#X connect 7 0 29 0;
#X connect 8 0 6 1;
#X connect 8 1 6 2;
#X connect 8 2 6 3;
#X connect 9 0 5 1;
#X connect 9 1 5 2;
#X connect 9 2 5 3;
#X connect 10 0 9 0;
#X connect 10 0 11 0;
#X connect 11 0 8 0;
#X connect 12 0 8 0;
#X connect 13 0 14 0;
#X connect 13 1 26 0;
#X connect 14 0 19 0;
#X connect 14 0 21 0;
#X connect 15 0 10 0;
#X connect 20 0 9 0;
#X connect 20 0 12 0;
#X connect 21 1 20 0;
#X connect 21 1 23 0;
#X connect 23 0 10 0;
#X connect 24 1 13 0;
#X connect 26 0 27 0;
#X connect 26 0 28 0;
#X connect 29 0 18 0;
#X restore 549 669 pd Load;
#X msg 546 394 text Do you want to create a new one?;
#X obj 488 90 poftranslate -48 -95;
#X connect 0 0 16 0;
#X connect 0 0 55 0;
#X connect 1 0 67 3;
#X connect 3 0 96 1;
#X connect 4 0 96 2;
#X connect 5 0 96 3;
#X connect 6 0 39 0;
#X connect 7 0 44 0;
#X connect 7 1 32 0;
#X connect 8 0 32 1;
#X connect 9 0 32 2;
#X connect 10 0 87 2;
#X connect 11 0 7 0;
#X connect 11 1 17 0;
#X connect 12 0 15 0;
#X connect 12 0 27 0;
#X connect 12 0 29 0;
#X connect 12 1 28 0;
#X connect 13 0 86 0;
#X connect 14 0 13 0;
#X connect 17 0 86 0;
#X connect 18 0 19 0;
#X connect 19 0 46 1;
#X connect 20 0 21 0;
#X connect 21 0 46 2;
#X connect 22 0 23 0;
#X connect 23 0 46 3;
#X connect 24 0 25 0;
#X connect 25 0 46 4;
#X connect 26 0 87 1;
#X connect 29 0 30 0;
#X connect 31 0 48 0;
#X connect 32 0 46 0;
#X connect 33 0 86 0;
#X connect 34 0 40 1;
#X connect 35 0 40 2;
#X connect 37 0 36 0;
#X connect 37 0 38 0;
#X connect 39 0 62 0;
#X connect 40 0 11 0;
#X connect 41 0 45 1;
#X connect 42 0 45 2;
#X connect 43 0 73 3;
#X connect 44 1 96 0;
#X connect 45 0 63 0;
#X connect 45 0 67 0;
#X connect 46 0 87 0;
#X connect 47 0 39 0;
#X connect 48 0 11 0;
#X connect 50 0 40 0;
#X connect 50 1 58 0;
#X connect 51 1 52 0;
#X connect 52 0 53 0;
#X connect 52 0 60 0;
#X connect 52 0 31 0;
#X connect 52 1 61 0;
#X connect 53 0 92 0;
#X connect 54 0 55 0;
#X connect 55 0 48 0;
#X connect 55 0 92 0;
#X connect 56 0 51 0;
#X connect 57 0 56 0;
#X connect 58 0 51 0;
#X connect 62 0 2 0;
#X connect 64 0 70 0;
#X connect 66 0 95 0;
#X connect 67 0 65 0;
#X connect 67 0 84 0;
#X connect 68 0 67 1;
#X connect 69 0 67 2;
#X connect 70 0 63 0;
#X connect 71 0 73 1;
#X connect 72 0 73 2;
#X connect 73 0 94 0;
#X connect 73 0 77 0;
#X connect 74 0 77 3;
#X connect 76 0 80 0;
#X connect 77 0 75 0;
#X connect 78 0 77 1;
#X connect 79 0 77 2;
#X connect 80 0 75 0;
#X connect 81 0 84 3;
#X connect 82 0 84 1;
#X connect 83 0 84 2;
#X connect 84 0 85 0;
#X connect 88 0 92 0;
#X connect 89 0 91 1;
#X connect 90 0 91 2;
#X connect 92 0 50 0;
#X connect 93 0 53 0;
#X connect 95 0 65 0;
#X connect 96 0 2 0;
#X connect 96 0 45 0;
#X restore 449 801 pd popupSave/Load;
#X connect 0 0 18 0;
#X connect 0 1 19 0;
#X connect 1 0 0 0;
#X connect 2 0 12 0;
#X connect 3 0 4 0;
#X connect 4 0 20 0;
#X connect 4 1 21 0;
#X connect 5 0 10 0;
#X connect 7 0 9 1;
#X connect 8 0 9 2;
#X connect 9 0 10 0;
#X connect 10 1 24 0;
#X connect 12 0 15 0;
#X connect 13 0 41 1;
#X connect 14 0 41 2;
#X connect 16 0 41 0;
#X connect 17 0 9 0;
#X connect 18 0 17 0;
#X connect 19 0 17 0;
#X connect 20 0 17 0;
#X connect 21 0 17 0;
#X connect 24 0 25 0;
#X connect 24 1 26 0;
#X connect 25 0 27 0;
#X connect 26 0 27 0;
#X connect 27 0 29 0;
#X connect 29 0 40 0;
#X connect 29 1 32 0;
#X connect 30 0 34 0;
#X connect 31 0 57 0;
#X connect 32 1 57 0;
#X connect 33 0 34 0;
#X connect 34 0 35 0;
#X connect 34 0 36 0;
#X connect 36 0 56 0;
#X connect 37 0 54 0;
#X connect 38 0 37 1;
#X connect 39 0 37 1;
#X connect 40 0 39 0;
#X connect 40 1 37 0;
#X connect 40 2 33 0;
#X connect 40 3 31 0;
#X connect 41 0 43 0;
#X connect 42 0 17 0;
#X connect 43 0 47 0;
#X connect 43 1 48 0;
#X connect 43 2 42 0;
#X connect 44 0 49 0;
#X connect 45 0 46 0;
#X connect 46 0 53 0;
#X connect 46 1 44 0;
#X connect 49 0 42 1;
#X connect 49 1 42 2;
#X connect 49 2 42 3;
#X connect 49 3 42 4;
#X connect 50 0 49 0;
#X connect 51 0 49 0;
#X connect 52 0 3 0;
#X connect 53 0 49 0;
#X connect 54 0 65 0;
#X connect 55 0 65 0;
#X connect 56 0 55 0;
#X connect 56 1 38 0;
#X connect 57 0 30 0;
#X connect 58 0 13 0;
#X connect 59 0 14 0;
#X connect 60 0 61 0;
#X connect 61 0 62 0;
