#N canvas 458 802 679 845 12;
#X obj 354 57 t b b;
#X obj 354 32 loadbang;
#X obj 260 452 route down;
#X obj 322 157 tgl 15 0 empty empty empty 17 7 0 10 -262144 -1 -1 0
1;
#X obj 322 179 sel 0 1;
#X msg 227 386 draw \$1;
#X obj 315 386 bng 15 250 50 0 empty empty empty 17 7 0 10 -262144
-1 -1;
#X floatatom 219 304 5 0 0 0 - - -;
#X floatatom 271 314 5 0 0 0 - - -;
#X obj 190 340 pofscale 1 1;
#X obj 192 421 poftouch 60 60;
#X obj 454 308 r \$1-Set-OnOff;
#X obj 260 476 b;
#X floatatom 89 94 5 0 0 0 - - -;
#X floatatom 128 93 5 0 0 0 - - -;
#X obj 169 518 bng 15 250 50 0 empty empty empty 17 7 0 10 -262144
-1 -1;
#X obj 55 48 inlet;
#X obj 186 274 pofimage instruments/BoutonMachineUp.png 60 60;
#X msg 340 84 reserve instruments/BoutonMachineOn.png \, reserve instruments/BoutonMachineOff.png
, f 93;
#X msg 414 111 reserve instruments/BoutonMachineTouch.png \, reserve
instruments/BoutonMachineUp.png, f 92;
#X msg 322 203 set instruments/BoutonMachineUp.png, f 55;
#X msg 341 225 set instruments/BoutonMachineTouch.png, f 53;
#X obj 335 366 bng 15 250 50 0 empty empty empty 17 7 0 10 -262144
-1 -1;
#X obj 363 365 bng 15 250 50 0 empty empty empty 17 7 0 10 -262144
-1 -1;
#X obj 432 365 route up down;
#X msg 432 392 0;
#X msg 469 391 1;
#X obj 472 418 tgl 15 0 empty empty empty 17 7 0 10 -262144 -1 -1 0
1;
#X obj 410 436 t;
#X obj 433 466 sel 0 1;
#X msg 483 571 1;
#X msg 438 541 stop;
#X obj 452 507 t b b;
#X msg 408 549 0;
#X obj 455 623 f;
#X floatatom 502 658 5 0 0 0 - - -;
#X obj 455 655 sel 1;
#X obj 330 733 spigot 1;
#X msg 541 701 0;
#X msg 376 693 1;
#X obj 377 498 t b b b b;
#X obj 50 124 poftranslate \$2 \$3;
#X obj 96 212 pofcolor 1 1 1 1;
#X obj 55 145 t a a a;
#X msg 212 140 1 1 1 1;
#X obj 206 54 r NbRecallPrepa;
#X obj 206 82 sel \$1;
#N canvas 448 1076 450 404 text 0;
#X obj 75 312 poftexts typo 18;
#X obj 124 209 loadbang;
#X obj 80 66 inlet;
#X floatatom 94 98 5 0 0 0 - - -;
#X floatatom 134 94 5 0 0 0 - - -;
#X obj 291 227 print songg;
#X obj 276 128 r NameSong-snd;
#X obj 124 234 symbol Basic;
#X obj 76 180 pofcolor 1 0 0 1;
#X msg 175 270 text \$1;
#X obj 209 164 loadbang;
#X obj 234 221 f \$1;
#X obj 279 177 bng 15 250 50 0 empty empty empty 17 7 0 10 -262144
-1 -1;
#X obj 59 125 poftranslate 1 14;
#X connect 1 0 7 0;
#X connect 2 0 13 0;
#X connect 3 0 13 1;
#X connect 4 0 13 2;
#X connect 7 0 9 0;
#X connect 8 0 0 0;
#X connect 9 0 0 0;
#X connect 10 0 11 0;
#X connect 11 0 9 0;
#X connect 12 0 11 0;
#X connect 13 0 8 0;
#X restore 17 241 pd text NbPrepa;
#N canvas 1209 2039 450 404 text 0;
#X obj 75 312 poftexts typo 18;
#X obj 175 247 loadbang;
#X obj 80 66 inlet;
#X floatatom 94 98 5 0 0 0 - - -;
#X floatatom 134 94 5 0 0 0 - - -;
#X obj 76 180 pofcolor 1 0 0 1;
#X msg 175 270 text Prepa;
#X obj 59 125 poftranslate 1 -6;
#X connect 1 0 6 0;
#X connect 2 0 7 0;
#X connect 3 0 7 1;
#X connect 4 0 7 2;
#X connect 5 0 0 0;
#X connect 6 0 0 0;
#X connect 7 0 5 0;
#X restore 73 271 pd text Prepa;
#X obj 162 168 unpack f f f f;
#N canvas 37 2191 450 300 StoreButColor 0;
#X obj 89 200 outlet;
#X obj 77 50 sel 0 1;
#X msg 110 115 1 1 0 1;
#X msg 35 81 1 1 1 1;
#X msg 213 113 1 0 1 1;
#X obj 46 17 r \$1-StorePrepaBut;
#X connect 1 0 3 0;
#X connect 1 1 2 0;
#X connect 1 1 4 0;
#X connect 3 0 0 0;
#X connect 4 0 0 0;
#X connect 5 0 1 0;
#X restore 189 25 pd StoreButColor;
#N canvas 0 2009 450 300 RecallButColor 0;
#X obj 59 146 outlet;
#X obj 77 50 sel 0 1;
#X msg 110 115 1 1 0 1;
#X obj 196 120 bng 15 250 50 0 empty empty empty 17 7 0 10 -262144
-1 -1;
#X obj 237 124 bng 15 250 50 0 empty empty empty 17 7 0 10 -262144
-1 -1;
#X obj 46 17 r \$1-RecallPrepaBut;
#X msg 35 81 1 1 0 1;
#X connect 1 0 6 0;
#X connect 1 0 3 0;
#X connect 1 1 2 0;
#X connect 1 1 4 0;
#X connect 2 0 0 0;
#X connect 5 0 1 0;
#X connect 6 0 0 0;
#X restore 139 2 pd RecallButColor;
#X obj 280 131 r \$1-RecallPrepaBut;
#X msg 203 111 1 1 0 1;
#N canvas 0 2023 605 418 RecallPrepa 0;
#X obj 97 38 inlet;
#X obj 233 183 del 250;
#X obj 205 148 t b b;
#X msg 188 182 1;
#X msg 234 205 0;
#X obj 223 248 s \$1-RecallPrepaBut;
#X obj 60 207 s \$1-PrepaRecall;
#X obj 330 176 f \$1;
#X obj 330 202 s NbRecallPrepa;
#X obj 94 70 t b b b;
#X connect 0 0 9 0;
#X connect 1 0 4 0;
#X connect 2 0 3 0;
#X connect 2 1 1 0;
#X connect 3 0 5 0;
#X connect 4 0 5 0;
#X connect 7 0 8 0;
#X connect 9 0 6 0;
#X connect 9 1 2 0;
#X connect 9 2 7 0;
#X restore 323 780 pd RecallPrepa;
#N canvas 452 2133 397 315 StorePrepa 0;
#X obj 45 20 inlet;
#X obj 73 70 del 250;
#X obj 46 49 t b b;
#X msg 29 83 1;
#X msg 74 92 0;
#X obj 235 151 f \$1;
#X obj 235 177 s NbRecallPrepa;
#X obj 164 52 t b;
#X obj 16 147 s \$1-StorePrepaBut;
#X obj 200 34 bng 15 250 50 0 empty empty empty 17 7 0 10 -262144 -1
-1;
#X obj 130 122 bng 15 250 50 0 empty empty empty 17 7 0 10 -262144
-1 -1;
#X obj 165 90 del 10;
#X obj 205 254 s \$1-PrepaStore;
#X obj 205 117 t b b;
#X obj 205 226 del 10;
#X connect 0 0 2 0;
#X connect 1 0 4 0;
#X connect 2 0 3 0;
#X connect 2 1 1 0;
#X connect 3 0 8 0;
#X connect 4 0 8 0;
#X connect 4 0 10 0;
#X connect 4 0 7 0;
#X connect 5 0 6 0;
#X connect 7 0 11 0;
#X connect 9 0 7 0;
#X connect 11 0 13 0;
#X connect 13 0 14 0;
#X connect 13 1 5 0;
#X connect 14 0 12 0;
#X restore 456 750 pd StorePrepa;
#X obj 454 678 t b b;
#X obj 479 540 del 500;
#X obj 98 48 inlet;
#X obj 143 47 inlet;
#X connect 0 0 18 0;
#X connect 0 1 19 0;
#X connect 1 0 0 0;
#X connect 2 0 12 0;
#X connect 3 0 4 0;
#X connect 4 0 20 0;
#X connect 4 1 21 0;
#X connect 5 0 10 0;
#X connect 7 0 9 1;
#X connect 8 0 9 2;
#X connect 9 0 10 0;
#X connect 10 1 24 0;
#X connect 12 0 15 0;
#X connect 13 0 41 1;
#X connect 14 0 41 2;
#X connect 16 0 41 0;
#X connect 17 0 9 0;
#X connect 18 0 17 0;
#X connect 19 0 17 0;
#X connect 20 0 17 0;
#X connect 21 0 17 0;
#X connect 24 0 25 0;
#X connect 24 1 26 0;
#X connect 25 0 27 0;
#X connect 26 0 27 0;
#X connect 27 0 29 0;
#X connect 29 0 40 0;
#X connect 29 1 32 0;
#X connect 30 0 34 0;
#X connect 31 0 57 0;
#X connect 32 1 57 0;
#X connect 33 0 34 0;
#X connect 34 0 35 0;
#X connect 34 0 36 0;
#X connect 36 0 56 0;
#X connect 37 0 54 0;
#X connect 38 0 37 1;
#X connect 39 0 37 1;
#X connect 40 0 39 0;
#X connect 40 1 37 0;
#X connect 40 2 33 0;
#X connect 40 3 31 0;
#X connect 41 0 43 0;
#X connect 42 0 17 0;
#X connect 43 0 47 0;
#X connect 43 1 48 0;
#X connect 43 2 42 0;
#X connect 44 0 49 0;
#X connect 45 0 46 0;
#X connect 46 0 53 0;
#X connect 46 1 44 0;
#X connect 49 0 42 1;
#X connect 49 1 42 2;
#X connect 49 2 42 3;
#X connect 49 3 42 4;
#X connect 50 0 49 0;
#X connect 51 0 49 0;
#X connect 52 0 3 0;
#X connect 53 0 49 0;
#X connect 56 0 55 0;
#X connect 56 1 38 0;
#X connect 57 0 30 0;
#X connect 58 0 13 0;
#X connect 59 0 14 0;
