#N canvas 138 699 724 539 10;
#X obj 11 11 cnv 15 99 122 empty empty SONG 5 12 1 14 -4032 -1 0;
#X obj 33 75 bng 25 250 50 0 empty empty save 3 -7 1 10 -258113 -1
-1;
#X obj 23 141 bng 15 250 50 0 empty empty load 17 7 1 10 -4034 -1 -1
;
#X obj 24 167 bng 15 250 50 0 empty empty save_as 17 7 1 10 -258113
-1 -1;
#N canvas 461 530 683 475 apmaster_autoload 1;
#X obj 84 34 route loaded saved;
#X obj 29 162 loadbang;
#X msg 84 397 loadfile \$1;
#X obj 84 78 symbol;
#X obj 84 369 symbol;
#X msg 84 196 set \$1;
#X obj 236 353 pack s s;
#X obj 236 308 t b a;
#X obj 84 249 symbol;
#X obj 233 282 print;
#X obj 233 232 bng 15 250 50 0 empty empty empty 17 7 0 10 -262144
-1 -1;
#X obj 233 261 getdir 5;
#X obj 236 330 getdir 5;
#X obj 84 271 pack s s;
#X msg 84 293 symbol \$2/\$1;
#X obj 29 184 del 2000;
#X obj 104 151 t b s;
#X obj 191 118 symbol;
#X obj 194 90 inlet;
#X obj 84 422 s SONGschoolscape-apmaster-rcv;
#X obj 84 12 r SONGschoolscape-apmaster-snd;
#X obj 236 377 makesymbol %s/pd/data/schoolscapeSETTINGS/ConfigSong/%s
;
#X obj 27 119 splitpath;
#X symbolatom 283 210 0 0 0 0 - - -;
#X obj 189 153 r schoolscape_SETTINGSDIR;
#X msg 189 176 symbol \$1ConfigSong;
#X symbolatom 19 444 0 0 0 0 - - -;
#X msg 85 223 Triste;
#X connect 0 0 3 0;
#X connect 0 1 3 0;
#X connect 1 0 15 0;
#X connect 2 0 19 0;
#X connect 3 0 22 0;
#X connect 4 0 2 0;
#X connect 5 0 27 0;
#X connect 6 0 21 0;
#X connect 7 0 12 0;
#X connect 7 1 6 1;
#X connect 8 0 13 0;
#X connect 10 0 11 0;
#X connect 11 0 9 0;
#X connect 12 0 6 0;
#X connect 13 0 14 0;
#X connect 14 0 4 0;
#X connect 15 0 27 0;
#X connect 16 0 5 0;
#X connect 16 1 5 0;
#X connect 17 0 8 0;
#X connect 18 0 17 0;
#X connect 20 0 0 0;
#X connect 22 1 5 0;
#X connect 24 0 25 0;
#X connect 25 0 13 1;
#X connect 25 0 23 0;
#X connect 27 0 8 0;
#X restore 266 252 pd apmaster_autoload;
#N canvas 1751 939 636 280 apmaster_symbol 0;
#X obj 75 38 route loaded saved;
#X obj 75 155 outlet;
#X obj 75 67 symbol;
#X obj 75 16 r SONGschoolscape-apmaster-snd;
#X obj 75 100 splitpath;
#X connect 0 0 2 0;
#X connect 0 1 2 0;
#X connect 2 0 4 0;
#X connect 3 0 0 0;
#X connect 4 1 1 0;
#X restore 154 18 pd apmaster_symbol;
#X symbolatom 12 35 0 0 0 0 - - NameSongSymbol;
#X msg 67 371 savein;
#X obj 38 104 bng 15 250 50 0 empty empty reload 17 7 1 10 -4034 -1
-1;
#X msg 14 371 loadin;
#X obj 193 48 r NumSet;
#X floatatom 152 98 5 0 0 0 - - -;
#X msg 259 106 Gabber;
#X msg 282 134 JeMeSouviens;
#X msg 325 109 LeMur;
#X msg 468 135 RienAdire;
#X msg 613 106 Triste;
#X symbolatom 163 228 10 0 0 0 - - -;
#N canvas 394 318 721 490 getSong 0;
#X obj 76 54 r SYNCER/r;
#X obj 76 98 list split 1;
#X obj 116 121 list trim;
#X obj 76 76 route state;
#X obj 116 165 symbol;
#X symbolatom 51 190 10 0 0 0 - - -;
#X obj 115 209 outlet;
#X obj 116 144 route /SONG /UNLOCKSNAP;
#X obj 273 241 outlet;
#X obj 273 50 r Shift-rcv;
#X msg 300 133 reset;
#X obj 273 93 t b b;
#X obj 300 113 del 200;
#X obj 273 178 sel 4;
#X obj 273 72 sel 1;
#X obj 273 221 spigot;
#X obj 183 167 t f f;
#X obj 183 197 sel 0 1;
#X msg 202 218 1, f 1;
#X obj 181 335 i;
#X obj 213 337 + 1;
#X obj 181 359 mod 2;
#X msg 154 256 0, f 1;
#X obj 154 235 t b b;
#X msg 181 256 0, f 1;
#X obj 181 380 s Led9-rcv;
#X obj 181 312 metro 100;
#X obj 273 157 count 5;
#X connect 0 0 3 0;
#X connect 1 1 2 0;
#X connect 2 0 7 0;
#X connect 3 0 1 0;
#X connect 4 0 5 0;
#X connect 4 0 6 0;
#X connect 7 0 4 0;
#X connect 7 1 16 0;
#X connect 9 0 14 0;
#X connect 10 0 27 0;
#X connect 11 0 27 0;
#X connect 11 1 12 0;
#X connect 12 0 10 0;
#X connect 13 0 15 0;
#X connect 14 0 11 0;
#X connect 15 0 8 0;
#X connect 16 0 17 0;
#X connect 16 1 15 1;
#X connect 17 0 23 0;
#X connect 17 1 18 0;
#X connect 18 0 26 0;
#X connect 19 0 20 0;
#X connect 19 0 21 0;
#X connect 20 0 19 1;
#X connect 21 0 25 0;
#X connect 22 0 19 0;
#X connect 23 0 22 0;
#X connect 23 1 24 0;
#X connect 24 0 26 0;
#X connect 26 0 19 0;
#X connect 27 0 13 0;
#X restore 153 159 pd getSong;
#X msg 204 101 Basic;
#X obj 67 394 s SONGschoolscape-apmaster-rcv;
#X obj 7 208 apmaster SONGschoolscape;
#X obj 106 48 r All-SaveBut;
#X obj 172 359 s SONGschoolscape-pattern-snd;
#X obj 147 307 hradio 15 1 0 4 empty empty empty 0 -8 0 10 -4034 -1
-1 0;
#X obj 269 307 hradio 15 1 0 4 empty empty empty 0 -8 0 10 -258113
-1 -1 0;
#X msg 147 325 _all_ load \$1;
#X msg 269 326 _all_ store \$1;
#X obj 108 256 t b b;
#X msg 133 278 0, f 1;
#X obj 44 255 t b b;
#X msg 70 277 0, f 1;
#X obj 205 78 sel 1 2 3 4 5 6 7 8 9 10 11 12 13, f 80;
#X msg 226 129 EhToto;
#X msg 367 108 Mississippi;
#X msg 386 134 Obsolete;
#X msg 454 109 RedouxRelou;
#X msg 534 109 SavoirFaire;
#X msg 557 134 Siberien;
#X msg 631 132 Unisson;
#X connect 1 0 28 0;
#X connect 2 0 21 0;
#X connect 3 0 21 1;
#X connect 5 0 6 0;
#X connect 7 0 20 0;
#X connect 8 0 30 0;
#X connect 9 0 20 0;
#X connect 10 0 11 0;
#X connect 10 0 32 0;
#X connect 12 0 4 0;
#X connect 13 0 4 0;
#X connect 14 0 4 0;
#X connect 15 0 4 0;
#X connect 16 0 4 0;
#X connect 18 0 17 0;
#X connect 18 0 4 0;
#X connect 18 1 1 0;
#X connect 19 0 4 0;
#X connect 22 0 1 0;
#X connect 24 0 26 0;
#X connect 25 0 27 0;
#X connect 26 0 23 0;
#X connect 27 0 23 0;
#X connect 28 0 7 0;
#X connect 28 1 29 0;
#X connect 29 0 25 0;
#X connect 30 0 9 0;
#X connect 30 1 31 0;
#X connect 31 0 24 0;
#X connect 32 0 19 0;
#X connect 32 1 33 0;
#X connect 32 2 12 0;
#X connect 32 3 13 0;
#X connect 32 4 14 0;
#X connect 32 5 34 0;
#X connect 32 6 35 0;
#X connect 32 7 36 0;
#X connect 32 8 15 0;
#X connect 32 9 37 0;
#X connect 32 10 38 0;
#X connect 32 11 16 0;
#X connect 32 12 39 0;
#X connect 33 0 4 0;
#X connect 34 0 4 0;
#X connect 35 0 4 0;
#X connect 36 0 4 0;
#X connect 37 0 4 0;
#X connect 38 0 4 0;
#X connect 39 0 4 0;
#X coords 0 -1 1 1 100 180 1 10 10;
