#N canvas 1009 582 766 762 10;
#X floatatom 615 128 5 0 0 0 - - -;
#X floatatom 449 11 5 0 0 0 - - -;
#X floatatom 492 7 5 0 0 0 - - -;
#X floatatom 151 571 5 0 0 0 - - -;
#X floatatom 64 403 5 0 0 0 - - -;
#X floatatom 107 399 5 0 0 0 - - -;
#X obj 130 24 inlet;
#X floatatom 119 274 5 0 0 0 - - -;
#X floatatom 59 105 5 0 0 0 - - -;
#X floatatom 102 101 5 0 0 0 - - -;
#X floatatom 379 180 5 0 0 0 - - -;
#X floatatom 422 176 5 0 0 0 - - -;
#X floatatom 199 5 5 0 0 0 - - -;
#X floatatom 324 73 5 0 0 0 - - -;
#X floatatom 368 69 5 0 0 0 - - -;
#X obj 301 141 lock/icon;
#X obj 49 614 sel 1;
#X msg 49 635 balance;
#X obj 49 654 s page;
#X obj 16 320 sel 1;
#X obj 16 360 s page;
#X msg 16 341 concert;
#X obj 364 258 song/gui;
#X obj 636 214 bng 15 250 50 0 empty empty empty 17 7 0 10 -262144
-1 -1;
#X obj 620 232 mode/say 1 OuvertureAbout;
#X msg 685 84 draw \$1;
#X obj 694 61 tgl 15 0 empty empty empty 17 7 0 10 -262144 -1 -1 0
1;
#X obj 583 192 route down;
#X obj 49 590 imageTouch ../img/Balances.png 0.27;
#X obj 16 298 imageTouch ../img/Concert.png 0.27;
#X obj 364 234 pofscale 0.9 0.9 1;
#X obj 331 36 t a a;
#X floatatom 416 462 5 0 0 0 - - -;
#X floatatom 339 292 5 0 0 0 - - -;
#X floatatom 382 288 5 0 0 0 - - -;
#X obj 323 484 imageTouch ../img/Help.png 0.27;
#X obj 353 544 mode/say 1 Help\$1;
#X obj 323 505 sel 1;
#X obj 49 458 fixScaleX;
#X obj 44 163 fixScaleX;
#X obj 324 348 fixScaleX;
#X obj 434 67 fixScaleX;
#X obj 301 118 fixScaleX;
#X obj 452 264 b;
#X obj 454 284 s iconTouched;
#X obj 301 94 poftranslate 358 -20;
#X floatatom 738 126 5 0 0 0 - - -;
#X obj 491 150 pofimage ../img/HomeScapeBulle.png 183 126;
#X obj 364 213 poftranslate 50 -20;
#X floatatom 538 4 5 0 0 0 - - -;
#X obj 324 325 poftranslate -97 -20;
#X obj 434 44 poftranslate 272 -64 -103;
#X obj 49 436 poftranslate -312 -20;
#X obj 44 138 poftranslate -202 -20;
#X obj 46 551 pofcolor 1 1 1 1;
#X floatatom 67 521 5 0 0 0 - - -;
#X msg 130 518 0.5;
#X msg 161 519 1;
#X obj 132 467 r page;
#X obj 132 489 route balance concert;
#X obj 109 509 bng 15 250 50 0 empty empty empty 17 7 0 10 -262144
-1 -1;
#X obj 29 247 pofcolor 1 1 1 1;
#X floatatom 50 217 5 0 0 0 - - -;
#X obj 115 163 r page;
#X obj 115 185 route balance concert;
#X obj 92 205 bng 15 250 50 0 empty empty empty 17 7 0 10 -262144 -1
-1;
#X msg 113 214 1;
#X msg 144 215 0.5;
#X obj 416 386 tgl 15 0 empty empty empty 17 7 0 10 -262144 -1 -1 0
1;
#X obj 323 437 pofcolor 1 1 1 1;
#N canvas 0 156 316 307 clignotte 0;
#X msg 121 231 1, f 2;
#X msg 146 231 0.5;
#X obj 121 136 metro 200;
#X obj 121 185 mod 2;
#X obj 121 161 i;
#X obj 151 161 + 1;
#X obj 121 206 sel 0 1, f 9;
#X obj 121 45 sel 0 1;
#X obj 81 89 t b b;
#X msg 109 112 0, f 1;
#X msg 138 107 1, f 1;
#X obj 128 260 outlet;
#X obj 123 17 inlet;
#X obj 138 72 t b b;
#X msg 165 96 0, f 1;
#X obj 220 142 outlet;
#X connect 0 0 11 0;
#X connect 1 0 11 0;
#X connect 2 0 4 0;
#X connect 3 0 6 0;
#X connect 4 0 5 0;
#X connect 4 0 3 0;
#X connect 5 0 4 1;
#X connect 6 0 0 0;
#X connect 6 1 1 0;
#X connect 7 0 8 0;
#X connect 7 1 13 0;
#X connect 8 0 0 0;
#X connect 8 1 9 0;
#X connect 9 0 2 0;
#X connect 10 0 2 0;
#X connect 12 0 7 0;
#X connect 13 0 10 0;
#X connect 13 1 14 0;
#X connect 14 0 15 0;
#X restore 416 407 pd clignotte;
#X obj 491 112 pofcolor 1 1 1 1;
#X obj 584 68 tgl 15 0 empty empty empty 17 7 0 10 -262144 -1 -1 0
1;
#N canvas 0 156 316 307 clignotte 0;
#X msg 121 231 1, f 2;
#X msg 146 231 0.5;
#X obj 121 136 metro 200;
#X obj 121 185 mod 2;
#X obj 121 161 i;
#X obj 151 161 + 1;
#X obj 121 206 sel 0 1, f 9;
#X obj 121 45 sel 0 1;
#X obj 81 89 t b b;
#X msg 109 112 0, f 1;
#X msg 138 107 1, f 1;
#X obj 128 260 outlet;
#X obj 123 17 inlet;
#X obj 138 72 t b b;
#X msg 165 96 0, f 1;
#X obj 220 142 outlet;
#X connect 0 0 11 0;
#X connect 1 0 11 0;
#X connect 2 0 4 0;
#X connect 3 0 6 0;
#X connect 4 0 5 0;
#X connect 4 0 3 0;
#X connect 5 0 4 1;
#X connect 6 0 0 0;
#X connect 6 1 1 0;
#X connect 7 0 8 0;
#X connect 7 1 13 0;
#X connect 8 0 0 0;
#X connect 8 1 9 0;
#X connect 9 0 2 0;
#X connect 10 0 2 0;
#X connect 12 0 7 0;
#X connect 13 0 10 0;
#X connect 13 1 14 0;
#X connect 14 0 15 0;
#X restore 584 88 pd clignotte;
#X msg 288 570 1, f 1;
#X msg 352 577 0, f 1;
#X obj 290 544 t b b;
#X msg 317 568 0, f 1;
#X obj 419 362 r ClignotteHelp;
#X obj 599 41 r ClignotteBulle;
#X obj 366 707 s ClignotteBulle;
#X obj 254 698 s ClignotteHelp;
#X msg 567 267 1, f 1;
#X msg 631 274 0, f 1;
#X obj 569 241 t b b;
#X msg 596 265 0, f 1;
#X obj 532 340 s ClignotteBulle;
#X obj 649 327 s ClignotteHelp;
#X obj 382 585 r page;
#X obj 380 608 t b;
#X msg 380 642 0, f 1;
#X obj 490 171 poftouch 183 126;
#X obj 426 680 r concert-instrument-show;
#X obj 432 657 r InterfaceMixtapeOpened;
#X obj 451 607 r InterfaceModeOpened;
#X obj 450 630 r InterfaceSetOpened;
#X obj 435 585 r InterfaceSetSaveOpened;
#X obj 130 49 poftranslate 0 -220;
#X connect 0 0 47 1;
#X connect 1 0 51 1;
#X connect 2 0 51 2;
#X connect 3 0 28 1;
#X connect 4 0 52 1;
#X connect 5 0 52 2;
#X connect 6 0 97 0;
#X connect 7 0 29 1;
#X connect 8 0 53 1;
#X connect 9 0 53 2;
#X connect 10 0 48 1;
#X connect 11 0 48 2;
#X connect 12 0 97 2;
#X connect 13 0 45 1;
#X connect 14 0 45 2;
#X connect 16 0 17 0;
#X connect 17 0 18 0;
#X connect 19 0 21 0;
#X connect 21 0 20 0;
#X connect 23 0 24 0;
#X connect 24 0 83 0;
#X connect 25 0 91 0;
#X connect 26 0 25 0;
#X connect 27 0 24 0;
#X connect 27 0 43 0;
#X connect 27 0 84 0;
#X connect 28 0 16 0;
#X connect 29 0 19 0;
#X connect 30 0 22 0;
#X connect 31 0 45 0;
#X connect 31 1 51 0;
#X connect 32 0 35 1;
#X connect 33 0 50 1;
#X connect 34 0 50 2;
#X connect 35 0 37 0;
#X connect 36 0 75 0;
#X connect 37 0 36 0;
#X connect 37 0 76 0;
#X connect 38 0 54 0;
#X connect 39 0 61 0;
#X connect 40 0 69 0;
#X connect 41 0 71 0;
#X connect 42 0 15 0;
#X connect 43 0 44 0;
#X connect 45 0 42 0;
#X connect 46 0 47 2;
#X connect 47 0 91 0;
#X connect 48 0 30 0;
#X connect 49 0 51 3;
#X connect 50 0 40 0;
#X connect 51 0 41 0;
#X connect 52 0 38 0;
#X connect 53 0 39 0;
#X connect 54 0 28 0;
#X connect 55 0 54 1;
#X connect 56 0 54 4;
#X connect 57 0 54 4;
#X connect 58 0 59 0;
#X connect 59 0 56 0;
#X connect 59 0 60 0;
#X connect 59 1 57 0;
#X connect 61 0 29 0;
#X connect 62 0 61 1;
#X connect 63 0 64 0;
#X connect 64 0 66 0;
#X connect 64 0 65 0;
#X connect 64 1 67 0;
#X connect 66 0 61 4;
#X connect 67 0 61 4;
#X connect 68 0 70 0;
#X connect 69 0 35 0;
#X connect 70 0 69 4;
#X connect 71 0 47 0;
#X connect 72 0 73 0;
#X connect 73 0 71 4;
#X connect 74 0 81 0;
#X connect 75 0 81 0;
#X connect 76 0 74 0;
#X connect 76 1 77 0;
#X connect 77 0 80 0;
#X connect 78 0 68 0;
#X connect 79 0 72 0;
#X connect 82 0 86 0;
#X connect 83 0 86 0;
#X connect 84 0 82 0;
#X connect 84 1 85 0;
#X connect 85 0 87 0;
#X connect 88 0 89 0;
#X connect 89 0 90 0;
#X connect 90 0 81 0;
#X connect 90 0 80 0;
#X connect 91 1 27 0;
#X connect 92 0 90 0;
#X connect 93 0 90 0;
#X connect 94 0 90 0;
#X connect 95 0 90 0;
#X connect 96 0 90 0;
#X connect 97 0 31 0;
#X connect 97 0 48 0;
#X connect 97 0 50 0;
#X connect 97 0 52 0;
#X connect 97 0 53 0;
