#N canvas 1325 1150 810 762 10;
#X floatatom 594 132 5 0 0 0 - - -;
#X floatatom 428 15 5 0 0 0 - - -;
#X floatatom 471 11 5 0 0 0 - - -;
#X floatatom 140 260 5 0 0 0 - - -;
#X floatatom 53 92 5 0 0 0 - - -;
#X floatatom 96 88 5 0 0 0 - - -;
#X obj 170 24 inlet;
#X floatatom 111 545 5 0 0 0 - - -;
#X floatatom 51 376 5 0 0 0 - - -;
#X floatatom 94 372 5 0 0 0 - - -;
#X floatatom 300 188 5 0 0 0 - - -;
#X floatatom 343 184 5 0 0 0 - - -;
#X floatatom 239 5 5 0 0 0 - - -;
#X floatatom 309 86 5 0 0 0 - - -;
#X floatatom 353 82 5 0 0 0 - - -;
#X obj 286 154 lock/icon;
#X obj 38 303 sel 1;
#X msg 38 324 balance;
#X obj 38 343 s page;
#X obj 8 591 sel 1;
#X obj 8 631 s page;
#X msg 8 612 concert;
#X obj 285 266 song/gui;
#X obj 640 176 bng 15 250 50 0 empty empty empty 17 7 0 10 -262144
-1 -1;
#X obj 636 204 mode/say 1 OuvertureAbout;
#X msg 664 88 draw \$1;
#X obj 673 65 tgl 15 0 empty empty empty 17 7 0 10 -262144 -1 -1 0
1;
#X obj 38 279 imageTouch ../img/Balances.png 0.27;
#X obj 8 569 imageTouch ../img/Concert.png 0.27;
#X obj 285 242 pofscale 0.9 0.9 1;
#X floatatom 380 466 5 0 0 0 - - -;
#X floatatom 303 296 5 0 0 0 - - -;
#X floatatom 346 292 5 0 0 0 - - -;
#X obj 287 488 imageTouch ../img/Help.png 0.27;
#X obj 317 548 mode/say 1 Help\$1;
#X obj 287 509 sel 1;
#X obj 38 147 fixScaleX;
#X obj 36 434 fixScaleX;
#X obj 288 352 fixScaleX;
#X obj 413 71 fixScaleX;
#X obj 286 131 fixScaleX;
#X obj 529 221 b;
#X obj 531 241 s iconTouched;
#X obj 286 107 poftranslate 358 -20;
#X floatatom 717 130 5 0 0 0 - - -;
#X obj 285 221 poftranslate 50 -20;
#X floatatom 517 8 5 0 0 0 - - -;
#X obj 35 240 pofcolor 1 1 1 1;
#X floatatom 56 210 5 0 0 0 - - -;
#X msg 119 207 0.5;
#X msg 150 208 1;
#X obj 121 156 r page;
#X obj 121 178 route balance concert;
#X obj 98 198 bng 15 250 50 0 empty empty empty 17 7 0 10 -262144 -1
-1;
#X obj 21 518 pofcolor 1 1 1 1;
#X floatatom 42 488 5 0 0 0 - - -;
#X obj 107 434 r page;
#X obj 107 456 route balance concert;
#X obj 84 476 bng 15 250 50 0 empty empty empty 17 7 0 10 -262144 -1
-1;
#X msg 105 485 1;
#X msg 176 416 0.5;
#X obj 380 390 tgl 15 0 empty empty empty 17 7 0 10 -262144 -1 -1 0
1;
#X obj 287 441 pofcolor 1 1 1 1;
#N canvas 0 156 316 307 clignotte 0;
#X msg 121 231 1, f 2;
#X msg 146 231 0.5;
#X obj 121 136 metro 200;
#X obj 121 185 mod 2;
#X obj 121 161 i;
#X obj 151 161 + 1;
#X obj 121 206 sel 0 1, f 9;
#X obj 121 45 sel 0 1;
#X obj 81 89 t b b;
#X msg 109 112 0, f 1;
#X msg 138 107 1, f 1;
#X obj 128 260 outlet;
#X obj 123 17 inlet;
#X obj 138 72 t b b;
#X msg 165 96 0, f 1;
#X obj 220 142 outlet;
#X connect 0 0 11 0;
#X connect 1 0 11 0;
#X connect 2 0 4 0;
#X connect 3 0 6 0;
#X connect 4 0 5 0;
#X connect 4 0 3 0;
#X connect 5 0 4 1;
#X connect 6 0 0 0;
#X connect 6 1 1 0;
#X connect 7 0 8 0;
#X connect 7 1 13 0;
#X connect 8 0 0 0;
#X connect 8 1 9 0;
#X connect 9 0 2 0;
#X connect 10 0 2 0;
#X connect 12 0 7 0;
#X connect 13 0 10 0;
#X connect 13 1 14 0;
#X connect 14 0 15 0;
#X restore 380 411 pd clignotte;
#X obj 470 116 pofcolor 1 1 1 1;
#X obj 563 72 tgl 15 0 empty empty empty 17 7 0 10 -262144 -1 -1 0
1;
#N canvas 0 156 316 307 clignotte 0;
#X msg 121 231 1, f 2;
#X msg 146 231 0.5;
#X obj 121 136 metro 200;
#X obj 121 185 mod 2;
#X obj 121 161 i;
#X obj 151 161 + 1;
#X obj 121 206 sel 0 1, f 9;
#X obj 121 45 sel 0 1;
#X obj 81 89 t b b;
#X msg 109 112 0, f 1;
#X msg 138 107 1, f 1;
#X obj 128 260 outlet;
#X obj 123 17 inlet;
#X obj 138 72 t b b;
#X msg 165 96 0, f 1;
#X obj 220 142 outlet;
#X connect 0 0 11 0;
#X connect 1 0 11 0;
#X connect 2 0 4 0;
#X connect 3 0 6 0;
#X connect 4 0 5 0;
#X connect 4 0 3 0;
#X connect 5 0 4 1;
#X connect 6 0 0 0;
#X connect 6 1 1 0;
#X connect 7 0 8 0;
#X connect 7 1 13 0;
#X connect 8 0 0 0;
#X connect 8 1 9 0;
#X connect 9 0 2 0;
#X connect 10 0 2 0;
#X connect 12 0 7 0;
#X connect 13 0 10 0;
#X connect 13 1 14 0;
#X connect 14 0 15 0;
#X restore 563 92 pd clignotte;
#X msg 252 574 1, f 1;
#X msg 316 581 0, f 1;
#X obj 254 548 t b b;
#X msg 281 572 0, f 1;
#X obj 383 366 r ClignotteHelp;
#X obj 578 45 r ClignotteBulle;
#X obj 330 711 s ClignotteBulle;
#X obj 218 702 s ClignotteHelp;
#X msg 562 338 1, f 1;
#X msg 635 236 0, f 1;
#X obj 564 312 t b b;
#X msg 591 336 0, f 1;
#X obj 609 413 s ClignotteBulle;
#X obj 630 364 s ClignotteHelp;
#X obj 346 589 r page;
#X obj 344 612 t b;
#X msg 344 646 0, f 1;
#X obj 390 684 r concert-instrument-show;
#X obj 396 661 r InterfaceMixtapeOpened;
#X obj 415 611 r InterfaceModeOpened;
#X obj 414 634 r InterfaceSetOpened;
#X obj 399 589 r InterfaceSetSaveOpened;
#X obj 469 175 sel 1;
#X obj 441 167 bng 15 250 50 0 empty empty empty 17 7 0 10 -262144
-1 -1;
#X obj 470 154 imageTouch ../img/HomeScapeBulle.png 0.27;
#X obj 413 48 poftranslate 226 -18;
#X obj 12 120 poftranslate -352 -28;
#X obj 36 409 poftranslate 74 0;
#X obj 288 329 poftranslate -72 -20;
#N canvas 1324 984 1180 843 save 0;
#X obj 354 57 t b b;
#X obj 354 32 loadbang;
#X obj 260 452 route down;
#X obj 322 157 tgl 15 0 empty empty empty 17 7 0 10 -262144 -1 -1 0
1;
#X obj 322 179 sel 0 1;
#X msg 227 386 draw \$1;
#X obj 315 386 bng 15 250 50 0 empty empty empty 17 7 0 10 -262144
-1 -1;
#X floatatom 219 304 5 0 0 0 - - -;
#X floatatom 271 314 5 0 0 0 - - -;
#X obj 190 340 pofscale 1 1;
#X obj 192 421 poftouch 60 60;
#X msg 556 344 1;
#X obj 456 296 r \$1-Set-OnOff;
#N canvas 2450 1106 450 404 text 0;
#X obj 75 312 poftexts typo 18;
#X obj 175 247 loadbang;
#X obj 80 66 inlet;
#X floatatom 94 98 5 0 0 0 - - -;
#X floatatom 134 94 5 0 0 0 - - -;
#X msg 175 270 text save;
#X obj 76 180 pofcolor 1 0 0 1;
#X obj 59 125 poftranslate 1 -14;
#X connect 1 0 5 0;
#X connect 2 0 7 0;
#X connect 3 0 7 1;
#X connect 4 0 7 2;
#X connect 5 0 0 0;
#X connect 6 0 0 0;
#X connect 7 0 6 0;
#X restore 188 153 pd text Save;
#X obj 260 476 b;
#N canvas 2036 1173 450 300 Save 0;
#X obj 97 38 inlet;
#X obj 231 115 del 250;
#X obj 204 94 t b b;
#X msg 187 128 1;
#X msg 232 137 0;
#X obj 94 70 t b b;
#X obj 222 194 s \$1-SaveBut;
#X obj 55 178 s All-SaveBut;
#X connect 0 0 5 0;
#X connect 1 0 4 0;
#X connect 2 0 3 0;
#X connect 2 1 1 0;
#X connect 3 0 6 0;
#X connect 4 0 6 0;
#X connect 5 0 7 0;
#X connect 5 1 2 0;
#X restore 254 518 pd Save;
#X floatatom 89 94 5 0 0 0 - - -;
#X floatatom 128 93 5 0 0 0 - - -;
#X obj 169 518 bng 15 250 50 0 empty empty empty 17 7 0 10 -262144
-1 -1;
#X obj 283 122 r \$1-SaveBut;
#N canvas 1785 1084 450 404 text 0;
#X obj 75 312 poftexts typo 18;
#X obj 124 209 loadbang;
#X obj 80 66 inlet;
#X floatatom 94 98 5 0 0 0 - - -;
#X floatatom 134 94 5 0 0 0 - - -;
#X obj 268 251 route symbol;
#X obj 291 227 print songg;
#X obj 276 128 r NameSong-snd;
#X msg 175 270 text \$1;
#X obj 124 234 symbol Basic;
#X obj 76 180 pofcolor 1 0 0 1;
#X obj 59 125 poftranslate 1 8;
#X connect 1 0 9 0;
#X connect 2 0 11 0;
#X connect 3 0 11 1;
#X connect 4 0 11 2;
#X connect 7 0 8 0;
#X connect 8 0 0 0;
#X connect 9 0 8 0;
#X connect 10 0 0 0;
#X connect 11 0 10 0;
#X restore 98 177 pd text Song;
#X obj 55 48 inlet;
#X obj 186 274 pofimage instruments/BoutonMachineUp.png 60 60;
#X msg 340 88 reserve instruments/BoutonMachineOn.png \, reserve instruments/BoutonMachineOff.png
, f 93;
#X msg 378 132 reserve instruments/BoutonMachineTouch.png \, reserve
instruments/BoutonMachineUp.png, f 92;
#X msg 322 203 set instruments/BoutonMachineUp.png, f 55;
#X msg 341 225 set instruments/BoutonMachineTouch.png, f 53;
#X obj 96 212 pofcolor 1 1 0 0.5;
#X obj 50 124 poftranslate -214 -28;
#X msg 566 354 1;
#X obj 335 406 bng 15 250 50 0 empty empty empty 17 7 0 10 -262144
-1 -1;
#X msg 576 364 1;
#X obj 363 405 bng 15 250 50 0 empty empty empty 17 7 0 10 -262144
-1 -1;
#X msg 611 383 1;
#X obj 472 781 bng 15 250 50 0 empty empty empty 17 7 0 10 -262144
-1 -1;
#X obj 432 405 route up down;
#X msg 432 432 0;
#X msg 469 431 1;
#X obj 472 458 tgl 15 0 empty empty empty 17 7 0 10 -262144 -1 -1 0
1;
#X obj 410 476 t;
#X obj 433 506 sel 0 1;
#X msg 483 611 1;
#X msg 438 581 stop;
#X obj 452 547 t b b;
#X msg 408 589 0;
#X obj 455 663 f;
#X floatatom 502 698 5 0 0 0 - - -;
#X obj 455 695 sel 1;
#X obj 330 773 spigot 1;
#X obj 454 718 t b b b;
#X msg 497 738 0;
#X msg 376 733 1;
#X floatatom 430 794 5 0 0 0 - - -;
#X obj 377 538 t b b b b;
#X obj 479 580 del 300;
#N canvas 2036 1173 450 300 SaveSONG 0;
#X obj 97 38 inlet;
#X obj 231 115 del 250;
#X obj 204 94 t b b;
#X msg 187 128 1;
#X msg 232 137 0;
#X obj 94 70 t b b;
#X obj 222 194 s \$1-SaveBut;
#X obj 55 178 s All-SaveSONG;
#X connect 0 0 5 0;
#X connect 1 0 4 0;
#X connect 2 0 3 0;
#X connect 2 1 1 0;
#X connect 3 0 6 0;
#X connect 4 0 6 0;
#X connect 5 0 7 0;
#X connect 5 1 2 0;
#X restore 329 797 pd SaveSONG;
#X obj 472 803 s All-LoadSONG;
#X connect 0 0 23 0;
#X connect 0 1 24 0;
#X connect 1 0 0 0;
#X connect 2 0 14 0;
#X connect 3 0 4 0;
#X connect 4 0 25 0;
#X connect 4 1 26 0;
#X connect 5 0 10 0;
#X connect 7 0 9 1;
#X connect 8 0 9 2;
#X connect 9 0 10 0;
#X connect 10 1 35 0;
#X connect 14 0 18 0;
#X connect 14 0 15 0;
#X connect 16 0 28 1;
#X connect 17 0 28 2;
#X connect 19 0 3 0;
#X connect 21 0 28 0;
#X connect 22 0 9 0;
#X connect 23 0 22 0;
#X connect 24 0 22 0;
#X connect 25 0 22 0;
#X connect 26 0 22 0;
#X connect 27 0 22 0;
#X connect 28 0 13 0;
#X connect 28 0 20 0;
#X connect 28 0 27 0;
#X connect 34 0 56 0;
#X connect 35 0 36 0;
#X connect 35 1 37 0;
#X connect 36 0 38 0;
#X connect 37 0 38 0;
#X connect 38 0 40 0;
#X connect 40 0 53 0;
#X connect 40 1 43 0;
#X connect 41 0 45 0;
#X connect 42 0 54 0;
#X connect 43 1 54 0;
#X connect 44 0 45 0;
#X connect 45 0 46 0;
#X connect 45 0 47 0;
#X connect 47 0 49 0;
#X connect 48 0 55 0;
#X connect 49 1 34 0;
#X connect 49 2 50 0;
#X connect 50 0 48 1;
#X connect 51 0 48 1;
#X connect 53 0 51 0;
#X connect 53 1 48 0;
#X connect 53 2 44 0;
#X connect 53 3 42 0;
#X connect 54 0 41 0;
#X restore 144 86 pd save;
#N canvas 20 882 1180 683 saveMaster 0;
#X obj 354 57 t b b;
#X obj 354 32 loadbang;
#X obj 260 452 route down;
#X obj 322 157 tgl 15 0 empty empty empty 17 7 0 10 -262144 -1 -1 0
1;
#X obj 322 179 sel 0 1;
#X msg 227 386 draw \$1;
#X obj 315 386 bng 15 250 50 0 empty empty empty 17 7 0 10 -262144
-1 -1;
#X floatatom 219 304 5 0 0 0 - - -;
#X floatatom 271 314 5 0 0 0 - - -;
#X obj 190 340 pofscale 1 1;
#X obj 192 421 poftouch 60 60;
#X msg 556 344 1;
#X obj 456 296 r \$1-Set-OnOff;
#N canvas 2450 1106 450 404 text 0;
#X obj 75 312 poftexts typo 18;
#X obj 175 247 loadbang;
#X obj 80 66 inlet;
#X floatatom 94 98 5 0 0 0 - - -;
#X floatatom 134 94 5 0 0 0 - - -;
#X obj 76 180 pofcolor 1 0 0 1;
#X obj 59 125 poftranslate 1 -14;
#X msg 175 270 text save;
#X connect 1 0 7 0;
#X connect 2 0 6 0;
#X connect 3 0 6 1;
#X connect 4 0 6 2;
#X connect 5 0 0 0;
#X connect 6 0 5 0;
#X connect 7 0 0 0;
#X restore 188 153 pd text Save;
#X obj 260 476 b;
#X floatatom 89 94 5 0 0 0 - - -;
#X floatatom 128 93 5 0 0 0 - - -;
#X obj 169 518 bng 15 250 50 0 empty empty empty 17 7 0 10 -262144
-1 -1;
#X obj 55 48 inlet;
#X obj 186 274 pofimage instruments/BoutonMachineUp.png 60 60;
#X msg 340 88 reserve instruments/BoutonMachineOn.png \, reserve instruments/BoutonMachineOff.png
, f 93;
#X msg 378 132 reserve instruments/BoutonMachineTouch.png \, reserve
instruments/BoutonMachineUp.png, f 92;
#X msg 322 203 set instruments/BoutonMachineUp.png, f 55;
#X msg 341 225 set instruments/BoutonMachineTouch.png, f 53;
#N canvas 2036 1173 450 300 SaveMaster 0;
#X obj 97 38 inlet;
#X obj 231 115 del 250;
#X obj 204 94 t b b;
#X msg 187 128 1;
#X msg 232 137 0;
#X obj 94 70 t b b;
#X obj 222 194 s \$1-SaveButMASTER;
#X obj 55 178 s All-SaveMASTER;
#X connect 0 0 5 0;
#X connect 1 0 4 0;
#X connect 2 0 3 0;
#X connect 2 1 1 0;
#X connect 3 0 6 0;
#X connect 4 0 6 0;
#X connect 5 0 7 0;
#X connect 5 1 2 0;
#X restore 309 777 pd SaveMaster;
#X obj 246 79 r \$1-SaveButMASTER;
#X obj 50 124 poftranslate -148 -28;
#N canvas 1608 1166 450 404 text 0;
#X obj 124 209 loadbang;
#X obj 80 66 inlet;
#X floatatom 94 98 5 0 0 0 - - -;
#X floatatom 134 94 5 0 0 0 - - -;
#X obj 268 251 route symbol;
#X obj 291 227 print songg;
#X obj 276 128 r NameSong-snd;
#X msg 175 270 text \$1;
#X obj 59 125 poftranslate 1 8;
#X obj 124 234 symbol MASTER;
#X obj 198 213 bng 15 250 50 0 empty empty empty 17 7 0 10 -262144
-1 -1;
#X obj 76 180 pofcolor 1 0.3 0.5 1;
#X obj 75 312 poftexts typo 12;
#X connect 0 0 9 0;
#X connect 1 0 8 0;
#X connect 2 0 8 1;
#X connect 3 0 8 2;
#X connect 7 0 12 0;
#X connect 8 0 11 0;
#X connect 9 0 7 0;
#X connect 10 0 9 1;
#X connect 10 0 9 0;
#X connect 11 0 12 0;
#X restore 97 177 pd text Master;
#X obj 97 212 pofcolor 0.5 0.5 1 0.5;
#X obj 343 385 bng 15 250 50 0 empty empty empty 17 7 0 10 -262144
-1 -1;
#X msg 591 363 1;
#N canvas 1348 1388 450 300 Save 0;
#X obj 97 38 inlet;
#X obj 231 115 del 250;
#X obj 204 94 t b b;
#X msg 187 128 1;
#X msg 232 137 0;
#X obj 94 70 t b b;
#X obj 222 194 s \$1-SaveBut;
#X obj 55 178 s All-SaveBut;
#X connect 0 0 5 0;
#X connect 1 0 4 0;
#X connect 2 0 3 0;
#X connect 2 1 1 0;
#X connect 3 0 6 0;
#X connect 4 0 6 0;
#X connect 5 0 7 0;
#X connect 5 1 2 0;
#X restore 106 620 pd Save;
#X obj 452 761 bng 15 250 50 0 empty empty empty 17 7 0 10 -262144
-1 -1;
#X obj 412 385 route up down;
#X msg 412 412 0;
#X msg 449 411 1;
#X obj 452 438 tgl 15 0 empty empty empty 17 7 0 10 -262144 -1 -1 0
1;
#X obj 390 456 t;
#X obj 413 486 sel 0 1;
#X msg 463 591 1;
#X msg 418 561 stop;
#X obj 432 527 t b b;
#X msg 388 569 0;
#X obj 435 643 f;
#X floatatom 482 678 5 0 0 0 - - -;
#X obj 435 675 sel 1;
#X obj 310 753 spigot 1;
#X obj 434 698 t b b b;
#X msg 477 718 0;
#X msg 356 713 1;
#X floatatom 410 774 5 0 0 0 - - -;
#X obj 357 518 t b b b b;
#X obj 459 560 del 300;
#X obj 452 783 s All-LoadMASTER;
#X connect 0 0 20 0;
#X connect 0 1 21 0;
#X connect 1 0 0 0;
#X connect 2 0 14 0;
#X connect 3 0 4 0;
#X connect 4 0 22 0;
#X connect 4 1 23 0;
#X connect 5 0 10 0;
#X connect 7 0 9 1;
#X connect 8 0 9 2;
#X connect 9 0 10 0;
#X connect 10 1 33 0;
#X connect 14 0 17 0;
#X connect 15 0 26 1;
#X connect 16 0 26 2;
#X connect 18 0 26 0;
#X connect 19 0 9 0;
#X connect 20 0 19 0;
#X connect 21 0 19 0;
#X connect 22 0 19 0;
#X connect 23 0 19 0;
#X connect 25 0 3 0;
#X connect 26 0 13 0;
#X connect 26 0 27 0;
#X connect 26 0 28 0;
#X connect 28 0 19 0;
#X connect 32 0 53 0;
#X connect 33 0 34 0;
#X connect 33 1 35 0;
#X connect 34 0 36 0;
#X connect 35 0 36 0;
#X connect 36 0 38 0;
#X connect 38 0 51 0;
#X connect 38 1 41 0;
#X connect 39 0 43 0;
#X connect 40 0 52 0;
#X connect 41 1 52 0;
#X connect 42 0 43 0;
#X connect 43 0 44 0;
#X connect 43 0 45 0;
#X connect 45 0 47 0;
#X connect 46 0 24 0;
#X connect 47 1 32 0;
#X connect 47 2 48 0;
#X connect 48 0 46 1;
#X connect 49 0 46 1;
#X connect 51 0 49 0;
#X connect 51 1 46 0;
#X connect 51 2 42 0;
#X connect 51 3 40 0;
#X connect 52 0 39 0;
#X restore 205 96 pd saveMaster;
#X obj 170 49 poftranslate 0 -220;
#X connect 0 0 91 1;
#X connect 1 0 92 1;
#X connect 2 0 92 2;
#X connect 3 0 27 1;
#X connect 4 0 93 1;
#X connect 5 0 93 2;
#X connect 6 0 98 0;
#X connect 7 0 28 1;
#X connect 8 0 94 1;
#X connect 9 0 94 2;
#X connect 10 0 45 1;
#X connect 11 0 45 2;
#X connect 12 0 98 2;
#X connect 13 0 43 1;
#X connect 14 0 43 2;
#X connect 16 0 17 0;
#X connect 17 0 18 0;
#X connect 19 0 21 0;
#X connect 21 0 20 0;
#X connect 23 0 24 0;
#X connect 24 0 76 0;
#X connect 25 0 89 0;
#X connect 26 0 25 0;
#X connect 27 0 16 0;
#X connect 28 0 19 0;
#X connect 29 0 22 0;
#X connect 30 0 33 1;
#X connect 31 0 95 1;
#X connect 32 0 95 2;
#X connect 33 0 35 0;
#X connect 34 0 68 0;
#X connect 35 0 34 0;
#X connect 35 0 69 0;
#X connect 36 0 47 0;
#X connect 37 0 54 0;
#X connect 38 0 62 0;
#X connect 39 0 64 0;
#X connect 40 0 15 0;
#X connect 41 0 42 0;
#X connect 43 0 40 0;
#X connect 44 0 91 2;
#X connect 45 0 29 0;
#X connect 46 0 92 3;
#X connect 47 0 27 0;
#X connect 48 0 47 1;
#X connect 49 0 47 4;
#X connect 50 0 47 4;
#X connect 51 0 52 0;
#X connect 52 0 49 0;
#X connect 52 0 53 0;
#X connect 52 1 50 0;
#X connect 54 0 28 0;
#X connect 55 0 54 1;
#X connect 56 0 57 0;
#X connect 57 0 59 0;
#X connect 57 0 58 0;
#X connect 57 1 60 0;
#X connect 59 0 54 4;
#X connect 60 0 54 4;
#X connect 61 0 63 0;
#X connect 62 0 33 0;
#X connect 63 0 62 4;
#X connect 64 0 91 0;
#X connect 65 0 66 0;
#X connect 66 0 64 4;
#X connect 67 0 74 0;
#X connect 68 0 74 0;
#X connect 69 0 67 0;
#X connect 69 1 70 0;
#X connect 70 0 73 0;
#X connect 71 0 61 0;
#X connect 72 0 65 0;
#X connect 75 0 79 0;
#X connect 76 0 79 0;
#X connect 77 0 75 0;
#X connect 77 1 78 0;
#X connect 78 0 80 0;
#X connect 81 0 82 0;
#X connect 82 0 83 0;
#X connect 83 0 74 0;
#X connect 83 0 73 0;
#X connect 84 0 83 0;
#X connect 85 0 83 0;
#X connect 86 0 83 0;
#X connect 87 0 83 0;
#X connect 88 0 83 0;
#X connect 89 0 41 0;
#X connect 89 0 24 0;
#X connect 89 0 77 0;
#X connect 89 0 90 0;
#X connect 91 0 89 0;
#X connect 92 0 39 0;
#X connect 93 0 36 0;
#X connect 93 0 94 0;
#X connect 94 0 37 0;
#X connect 95 0 38 0;
#X connect 98 0 45 0;
#X connect 98 0 43 0;
#X connect 98 0 92 0;
#X connect 98 0 93 0;
#X connect 98 0 95 0;
#X connect 98 0 96 0;
#X connect 98 0 97 0;
