#N canvas 168 450 397 380 10;
#X declare -lib abl_link~ -path abl_link~;
#X declare -lib cyclone/atan~ -lib cyclone/seq -lib cyclone/midiparse
;
#X declare -stdpath zexy -lib zexy;
#X declare -lib iemlib/filter~;
#X declare -lib moonlib/mknob -lib moonlib/tabenv -lib moonlib/f2s
-lib moonlib/ndmetro -lib moonlib/dispatch;
#X declare -lib maxlib -path maxlib;
#X declare -lib creb/fdn~ -lib creb/filterortho~ -lib creb/dist~ -lib
creb;
#X declare -lib pof;
#X obj 25 180 loadbang;
#X msg 25 205 \; pd-pof_main.pd vis 1;
#X obj 25 289 pofwin;
#N canvas 749 438 307 150 bang_on_first_frame 0;
#X obj 54 49 pofbang 1;
#X obj 54 26 pofhead;
#X msg 105 76 0;
#X obj 143 76 outlet;
#X connect 0 1 2 0;
#X connect 0 1 3 0;
#X connect 1 0 0 0;
#X connect 2 0 0 0;
#X restore 25 246 pd bang_on_first_frame;
#X obj 26 315 iemlib/dsp;
#X floatatom 26 338 5 0 0 0 - - -;
#X msg 25 268 window 800 550 0 \, framerate 25 \, background 0 0 0
;
#N canvas 436 755 450 300 strings&paths 0;
#X obj 162 206 pofutil;
#X msg 162 180 setstring data .;
#X obj 223 208 s datadir;
#X obj 201 25 inlet;
#X obj 135 26 loadbang;
#X obj 162 63 b;
#X obj 162 127 pofutil;
#X msg 162 103 getdir;
#X obj 212 60 bng 15 250 50 0 empty empty empty 17 7 0 10 -262144 -1
-1;
#X msg 162 151 symbol \$1/pd/data;
#X connect 1 0 0 0;
#X connect 3 0 5 0;
#X connect 4 0 5 0;
#X connect 5 0 7 0;
#X connect 6 0 9 0;
#X connect 7 0 6 0;
#X connect 8 0 5 0;
#X connect 9 0 1 0;
#X connect 9 0 2 0;
#X restore 26 103 pd strings&paths;
#X obj 26 84 bng 15 250 50 0 empty empty empty 17 7 0 10 -262144 -1
-1;
#X obj 23 129 cnv 15 90 40 empty empty empty 20 12 0 14 -257985 -66577
0;
#N canvas 406 142 700 317 declares 0;
#X obj 16 229 declare -lib abl_link~ -path abl_link~;
#X obj 16 180 declare -lib cyclone/atan~ -lib cyclone/seq -lib cyclone/midiparse
, f 67;
#X obj 16 92 declare -stdpath zexy -lib zexy;
#X obj 16 162 declare -lib iemlib/filter~;
#X obj 17 134 declare -lib moonlib/mknob -lib moonlib/tabenv -lib moonlib/f2s
-lib moonlib/ndmetro -lib moonlib/dispatch, f 109;
#X obj 16 200 declare -lib maxlib -path maxlib;
#X obj 16 113 declare -lib creb/fdn~ -lib creb/filterortho~ -lib creb/dist~
-lib creb, f 72;
#X text 210 91 allowed: z~ limiter~ [ NOT: lister(l) demux makesymbol
envrms~], f 65;
#X text 43 26 make sure you don't have any path/lib configured in Pd's
prefs., f 64;
#X text 43 43 use only following declared externs:;
#X obj 16 72 declare -lib pof;
#X restore 26 61 pd declares;
#X obj 31 144 pd/pof_main;
#X obj 22 7 cnv 15 300 30 empty empty Schoolscape_EditMaster 10 15
2 26 -233017 -66577 0;
#X connect 0 0 1 0;
#X connect 3 0 6 0;
#X connect 4 0 5 0;
#X connect 6 0 2 0;
#X connect 8 0 7 0;
