#N canvas 482 146 718 810 10;
#X obj 21 27 inlet head;
#X obj 352 44 hsl 128 15 0 20 0 0 list-sets-pos list-sets-pos list-pos
-2 -8 0 10 -262144 -1 -1 0 1;
#X obj 488 395 bng 15 250 50 0 empty empty empty 17 7 0 10 -262144
-1 -1;
#N canvas 411 208 602 465 getprop 0;
#X obj 156 56 unpack f f;
#X msg 232 107 getnum /;
#X floatatom 311 172 5 0 0 0 - - -;
#X obj 213 81 t f b f;
#X obj 240 262 list prepend;
#X obj 213 171 t f f;
#X obj 240 191 <;
#X msg 240 236 visible \$1;
#X obj 46 174 hradio 15 1 0 8 empty empty empty 0 -8 0 10 -262144 -1
-1 1;
#X msg 30 220 print;
#X msg 104 263 date \$1;
#X msg 3 142 name \$1;
#X obj 240 214 || 0;
#X obj 156 35 t a a;
#X obj 309 60 unpack f f;
#X msg 83 287 symbol \$1;
#X msg 83 344 selected 1;
#X msg 156 343 selected 0;
#X obj 59 142 list prepend name;
#X obj 59 119 route get;
#X obj 156 14 r list-sets-getprop;
#X msg 59 76 get /set[\$1][@name];
#X obj 59 97 pofxml sets;
#X msg 83 206 get /set[\$1][@file];
#X obj 83 235 pofxml sets;
#X obj 83 310 sel set;
#X obj 143 310 r set;
#X obj 232 132 pofxml sets;
#X obj 240 285 s list-sets-props;
#X symbolatom 172 406 0 0 0 0 - - -;
#X connect 0 1 3 0;
#X connect 1 0 27 0;
#X connect 3 0 5 0;
#X connect 3 1 1 0;
#X connect 4 0 28 0;
#X connect 5 0 23 0;
#X connect 5 0 21 0;
#X connect 5 1 6 0;
#X connect 6 0 12 0;
#X connect 7 0 4 0;
#X connect 9 0 24 0;
#X connect 10 0 4 0;
#X connect 11 0 4 0;
#X connect 12 0 7 0;
#X connect 13 0 0 0;
#X connect 13 1 14 0;
#X connect 14 0 4 1;
#X connect 15 0 25 0;
#X connect 16 0 4 0;
#X connect 17 0 4 0;
#X connect 18 0 4 0;
#X connect 19 0 18 0;
#X connect 20 0 13 0;
#X connect 21 0 22 0;
#X connect 22 0 19 0;
#X connect 23 0 24 0;
#X connect 24 0 10 0;
#X connect 24 0 15 0;
#X connect 25 0 16 0;
#X connect 25 1 17 0;
#X connect 26 0 25 1;
#X connect 26 0 29 0;
#X connect 27 0 6 1;
#X connect 27 0 2 0;
#X restore 236 210 pd getprop;
#X obj 530 350 t b f;
#X msg 256 39 0 _show;
#X obj 465 335 b;
#X obj 465 356 del 0;
#X obj 21 51 t a a;
#X floatatom 417 78 5 0 0 0 - - -;
#X obj 370 133 pofcolor 0.3 0.2 0.1 1;
#X floatatom 465 85 5 0 0 0 - - -;
#X floatatom 476 189 5 0 0 0 - - -;
#X floatatom 331 116 5 0 0 0 - - -;
#X obj 48 108 pofscale 0.25 0.25 1;
#X obj 21 85 t a a;
#X obj 21 168 t a a;
#X obj 9 343 pofcolor 1 1 1 1;
#X obj 9 365 poftexts typo 43;
#X obj 120 342 loadbang;
#X obj 48 191 pofcolor 0.3 0.2 0.1 1;
#X floatatom 223 251 5 0 0 0 - - -;
#X floatatom 198 192 5 0 0 0 - - -;
#X obj 370 104 poftranslate 0 -16;
#X obj 370 156 pofrect 320 345 10 10 0 0;
#X obj 48 261 poftranslate 0 -177;
#X obj 48 284 pofrect 320 50 10 10 0 0;
#X obj 67 240 pofrect 320 70 0 0 10 10;
#X floatatom 211 313 5 0 0 0 - - -;
#X obj 9 320 poftranslate -60 -175;
#X obj 67 215 poftranslate 0 187;
#X msg 120 366 text Sets;
#X obj 48 145 scrollList/gui sets 1240 1200 168 set/listItem;
#X obj 256 63 s list-sets-props;
#X obj 515 306 r setsChanged;
#X obj 530 328 r setsNumber;
#X obj 557 372 s list-sets-number;
#X obj 515 398 s list-sets-update;
#X obj 465 315 r set;
#X obj 209 390 outlet;
#N canvas 1269 1353 1200 470 OK/Reload 0;
#X obj 122 28 r ADMIN;
#X obj 56 21 inlet;
#X obj 56 157 t a a;
#X obj 83 252 pofcolor 1 1 1 0.5;
#X obj 56 186 pofcolor 0 0 0 1;
#X floatatom 189 162 5 0 0 0 - - -;
#X floatatom 241 197 5 0 0 0 - - -;
#X msg 143 159 draw 1;
#X obj 83 277 poftouch 35 32;
#X msg 157 368 0;
#X msg 188 368 1;
#X obj 161 395 tgl 15 0 empty empty empty 17 7 0 10 -262144 -1 -1 0
1;
#X obj 185 232 max 0.5;
#X obj 231 325 isInside 50 32;
#X obj 162 303 route up down move;
#X obj 246 390 b;
#X obj 246 369 isInside 35 32;
#X obj 115 52 pofvisible;
#X obj 202 118 loadbang;
#X obj 246 411 s sets-update-all;
#X obj 56 209 pofimage mode/64px-Refresh_font_awesome.svg.png 29;
#X obj 378 154 t a a;
#X obj 405 249 pofcolor 1 1 1 0.5;
#X obj 378 183 pofcolor 0 0 0 1;
#X floatatom 563 194 5 0 0 0 - - -;
#X msg 537 159 draw 1;
#X msg 479 365 0;
#X msg 510 365 1;
#X obj 483 392 tgl 15 0 empty empty empty 17 7 0 10 -262144 -1 -1 0
1;
#X obj 507 229 max 0.5;
#X obj 484 300 route up down move;
#X obj 568 387 b;
#X obj 523 130 loadbang;
#X msg 472 162 text OK;
#X obj 378 206 poftexts typo 29;
#X obj 553 322 isInside 100 32;
#X obj 568 366 isInside 100 32;
#X obj 568 408 outlet;
#X obj 377 121 poftranslate -110;
#X obj 405 274 poftouch 170 32;
#X obj 667 162 t a a;
#X obj 694 257 pofcolor 1 1 1 0.5;
#X obj 667 191 pofcolor 0 0 0 1;
#X floatatom 852 202 5 0 0 0 - - -;
#X msg 838 165 draw 1;
#X msg 768 373 0;
#X msg 799 373 1;
#X obj 772 400 tgl 15 0 empty empty empty 17 7 0 10 -262144 -1 -1 0
1;
#X obj 796 237 max 0.5;
#X obj 773 308 route up down move;
#X obj 857 395 b;
#X obj 820 130 loadbang;
#X obj 667 214 poftexts typo 29;
#X obj 842 330 isInside 100 32;
#X obj 857 374 isInside 100 32;
#X obj 857 416 outlet;
#X obj 694 282 poftouch 170 32;
#X obj 666 129 poftranslate 110;
#X msg 762 164 text EXPORT;
#X obj 56 134 poftranslate 50;
#X obj 85 110 nbx 5 14 -1e+37 1e+37 0 1 empty empty empty 0 -8 0 10
-262144 -1 -1 0 256;
#X obj 418 98 nbx 5 14 -1e+37 1e+37 0 1 empty empty empty 0 -8 0 10
-262144 -1 -1 -91 256;
#X obj 709 106 nbx 5 14 -1e+37 1e+37 0 1 empty empty empty 0 -8 0 10
-262144 -1 -1 93 256;
#X obj 786 106 nbx 5 14 -1e+37 1e+37 0 1 empty empty empty 0 -8 0 10
-262144 -1 -1 123 256;
#X obj 494 88 nbx 5 14 -1e+37 1e+37 0 1 empty empty empty 0 -8 0 10
-262144 -1 -1 -118 256;
#X obj 1004 161 t a a;
#X obj 1031 256 pofcolor 1 1 1 0.5;
#X obj 1004 190 pofcolor 0 0 0 1;
#X floatatom 1189 201 5 0 0 0 - - -;
#X msg 1175 164 draw 1;
#X msg 1105 372 0;
#X msg 1136 372 1;
#X obj 1109 399 tgl 15 0 empty empty empty 17 7 0 10 -262144 -1 -1
0 1;
#X obj 1133 236 max 0.5;
#X obj 1110 307 route up down move;
#X obj 1194 394 b;
#X obj 1157 129 loadbang;
#X obj 1004 213 poftexts typo 29;
#X obj 1179 329 isInside 100 32;
#X obj 1194 373 isInside 100 32;
#X obj 1194 415 outlet;
#X obj 1031 281 poftouch 170 32;
#X obj 1003 128 poftranslate 110;
#X obj 1046 105 nbx 5 14 -1e+37 1e+37 0 1 empty empty empty 0 -8 0
10 -262144 -1 -1 93 256;
#X obj 1123 105 nbx 5 14 -1e+37 1e+37 0 1 empty empty empty 0 -8 0
10 -262144 -1 -1 123 256;
#X msg 1099 163 text IMPORT;
#X obj 1072 70 nbx 5 14 -1e+37 1e+37 0 1 empty empty empty 0 -8 0 10
-262144 -1 -1 -23 256;
#X obj 744 76 nbx 5 14 -1e+37 1e+37 0 1 empty empty empty 0 -8 0 10
-262144 -1 -1 15 256;
#N canvas 1676 1103 450 613 SaveSet 1;
#X floatatom 245 130 5 0 0 0 - - -;
#X obj 126 102 nbx 5 14 -1e+37 1e+37 0 1 empty empty empty 0 -8 0 10
-262144 -1 -1 68 256;
#X obj 119 82 nbx 5 14 -1e+37 1e+37 0 1 empty empty empty 0 -8 0 10
-262144 -1 -1 165 256;
#X obj 98 207 nbx 5 14 -1e+37 1e+37 0 1 empty empty empty 0 -8 0 10
-262144 -1 -1 -38 256;
#X obj 37 231 poftranslate;
#X obj 91 187 nbx 5 14 -1e+37 1e+37 0 1 empty empty empty 0 -8 0 10
-262144 -1 -1 -84 256;
#X obj 208 158 loadbang;
#X obj 124 254 pofcolor 1 0.5 0 1;
#X obj 124 277 poftexts asimov 25 -1;
#X obj 65 126 poftranslate;
#X msg 227 207 text \$1;
#X obj 294 103 symbol;
#X obj 69 42 inlet;
#N canvas 1741 1039 450 499 save-set 0;
#X obj 96 21 inlet;
#X obj 96 42 t a a a;
#X obj 135 67 pofcolor 1 1 1 1;
#X msg 253 53 draw 1;
#X obj 253 32 loadbang;
#X obj 115 280 pofcolor 0.2 0.2 0.2 1;
#X obj 96 370 pofcolor 0.8 0.8 0.8 1;
#X obj 19 305 loadbang;
#X obj 128 350 unpack f f f;
#X obj 147 259 unpack f f f;
#X msg 309 259 0.2 0.2 0.2;
#X msg 309 300 0.8 0.8 0.8;
#X msg 252 300 0 0 0 1;
#X obj 228 107 route down;
#X obj 228 128 b;
#X obj 377 167 loadbang;
#X floatatom 169 142 5 0 0 0 - - -;
#X floatatom 136 191 5 0 0 0 - - -;
#X obj 96 391 poftexts asimov 40;
#X obj 169 126 bng 15 250 50 0 empty empty empty 17 7 0 10 -262144
-1 -1;
#X msg 252 258 1 0 0 0;
#X obj 286 136 t b b;
#X obj 373 214 del 100;
#X obj 322 163 del 150;
#X msg 19 326 text SAVE SET \, width 200 \, center 1;
#X obj 182 177 s set-save;
#X obj 115 300 pofrect 165 45;
#X obj 135 88 poftouch 170 50;
#X connect 0 0 1 0;
#X connect 1 0 6 0;
#X connect 1 1 5 0;
#X connect 1 2 2 0;
#X connect 2 0 27 0;
#X connect 3 0 27 0;
#X connect 4 0 3 0;
#X connect 5 0 26 0;
#X connect 6 0 18 0;
#X connect 7 0 24 0;
#X connect 8 0 6 1;
#X connect 8 1 6 2;
#X connect 8 2 6 3;
#X connect 9 0 5 1;
#X connect 9 1 5 2;
#X connect 9 2 5 3;
#X connect 10 0 9 0;
#X connect 10 0 11 0;
#X connect 11 0 8 0;
#X connect 12 0 8 0;
#X connect 13 0 14 0;
#X connect 14 0 19 0;
#X connect 14 0 21 0;
#X connect 14 0 25 0;
#X connect 15 0 10 0;
#X connect 20 0 9 0;
#X connect 20 0 12 0;
#X connect 21 1 20 0;
#X connect 21 1 23 0;
#X connect 23 0 10 0;
#X connect 24 0 18 0;
#X connect 27 1 13 0;
#X restore 90 159 pd save-set;
#X obj 288 70 r PofSetName;
#X obj 296 134 r NomDuSetSelectionné;
#X symbolatom 305 382 10 0 0 0 - - -;
#X obj 273 172 symbol;
#X connect 1 0 9 2;
#X connect 2 0 9 1;
#X connect 3 0 4 2;
#X connect 4 0 7 0;
#X connect 5 0 4 1;
#X connect 7 0 8 0;
#X connect 9 0 13 0;
#X connect 9 0 4 0;
#X connect 10 0 8 0;
#X connect 12 0 9 0;
#X connect 14 0 11 0;
#X connect 15 0 17 0;
#X connect 17 0 10 0;
#X restore 247 70 pd SaveSet;
#X obj 230 13 nbx 5 14 -1e+37 1e+37 0 1 empty empty empty 0 -8 0 10
-262144 -1 -1 -231 256;
#X obj 309 10 nbx 5 14 -1e+37 1e+37 0 1 empty empty empty 0 -8 0 10
-262144 -1 -1 -126 256;
#X obj 56 78 poftranslate 0 190;
#X obj 243 44 poftranslate;
#X connect 0 0 17 0;
#X connect 1 0 91 0;
#X connect 2 0 4 0;
#X connect 2 1 3 0;
#X connect 3 0 8 0;
#X connect 4 0 20 0;
#X connect 5 0 8 1;
#X connect 6 0 8 2;
#X connect 7 0 8 0;
#X connect 8 1 14 0;
#X connect 9 0 11 0;
#X connect 10 0 11 0;
#X connect 11 0 12 0;
#X connect 12 0 3 4;
#X connect 13 0 10 0;
#X connect 13 1 9 0;
#X connect 14 0 9 0;
#X connect 14 0 16 0;
#X connect 14 1 10 0;
#X connect 14 2 13 0;
#X connect 15 0 19 0;
#X connect 16 0 15 0;
#X connect 18 0 7 0;
#X connect 21 0 23 0;
#X connect 21 1 22 0;
#X connect 22 0 39 0;
#X connect 23 0 34 0;
#X connect 24 0 39 2;
#X connect 25 0 39 0;
#X connect 26 0 28 0;
#X connect 27 0 28 0;
#X connect 28 0 29 0;
#X connect 29 0 22 4;
#X connect 30 0 26 0;
#X connect 30 0 36 0;
#X connect 30 1 27 0;
#X connect 30 2 35 0;
#X connect 31 0 37 0;
#X connect 32 0 33 0;
#X connect 32 0 25 0;
#X connect 33 0 34 0;
#X connect 35 0 27 0;
#X connect 35 1 26 0;
#X connect 36 0 31 0;
#X connect 38 0 21 0;
#X connect 39 1 30 0;
#X connect 40 0 42 0;
#X connect 40 1 41 0;
#X connect 41 0 56 0;
#X connect 42 0 52 0;
#X connect 43 0 56 2;
#X connect 44 0 56 0;
#X connect 45 0 47 0;
#X connect 46 0 47 0;
#X connect 47 0 48 0;
#X connect 48 0 41 4;
#X connect 49 0 45 0;
#X connect 49 0 54 0;
#X connect 49 1 46 0;
#X connect 49 2 53 0;
#X connect 50 0 55 0;
#X connect 51 0 58 0;
#X connect 51 0 44 0;
#X connect 53 0 46 0;
#X connect 53 1 45 0;
#X connect 54 0 50 0;
#X connect 56 1 49 0;
#X connect 57 0 40 0;
#X connect 58 0 52 0;
#X connect 59 0 2 0;
#X connect 60 0 59 1;
#X connect 61 0 38 1;
#X connect 62 0 57 1;
#X connect 63 0 56 1;
#X connect 64 0 39 1;
#X connect 65 0 67 0;
#X connect 65 1 66 0;
#X connect 66 0 81 0;
#X connect 67 0 77 0;
#X connect 68 0 81 2;
#X connect 69 0 81 0;
#X connect 70 0 72 0;
#X connect 71 0 72 0;
#X connect 72 0 73 0;
#X connect 73 0 66 4;
#X connect 74 0 70 0;
#X connect 74 0 79 0;
#X connect 74 1 71 0;
#X connect 74 2 78 0;
#X connect 75 0 80 0;
#X connect 76 0 85 0;
#X connect 76 0 69 0;
#X connect 78 0 71 0;
#X connect 78 1 70 0;
#X connect 79 0 75 0;
#X connect 81 1 74 0;
#X connect 82 0 65 0;
#X connect 83 0 82 1;
#X connect 84 0 81 1;
#X connect 85 0 77 0;
#X connect 86 0 82 2;
#X connect 87 0 57 2;
#X connect 89 0 92 1;
#X connect 90 0 92 2;
#X connect 91 0 59 0;
#X connect 91 0 38 0;
#X connect 91 0 57 0;
#X connect 91 0 82 0;
#X connect 91 0 92 0;
#X connect 92 0 88 0;
#X restore 209 363 pd OK/Reload;
#N canvas 1 82 759 574 export 0;
#X obj 109 96 symbol;
#X obj 178 94 r datadir;
#X obj 109 116 list prepend;
#X obj 142 70 r set-load;
#X obj 109 42 inlet;
#X obj 109 63 b;
#X msg 109 137 archive \$1/set/\$2 \$1/set/\$2.zip;
#X obj 109 158 s toSYSTEM;
#X obj 141 209 r SYSTEM;
#X obj 141 232 route archive;
#X obj 141 253 route __, f 15;
#X msg 318 230 symbol \$1/set/\$2.zip;
#X obj 141 325 symbol, f 30;
#X text 162 347 file subject destination message;
#X msg 141 368 mailTo \$1 Soumettre\ mon\ set antoine@metalu.net C'est\ le\ meilleur\ set\ du\ monde!
;
#X msg 42 337 symbol fichier;
#X obj 290 411 route mailTo;
#X obj 290 437 unpack s s s s;
#X symbolatom 249 533 0 0 0 0 - - -;
#X symbolatom 289 510 0 0 0 0 - - -;
#X symbolatom 343 489 0 0 0 0 - - -;
#X symbolatom 378 466 0 0 0 0 - - -;
#X obj 141 427 s toSYSTEM;
#X msg 228 230 symbol \$2.zip;
#X obj 141 274 route success failure;
#X obj 141 299 b;
#X connect 0 0 2 0;
#X connect 1 0 2 1;
#X connect 2 0 6 0;
#X connect 2 0 11 0;
#X connect 2 0 23 0;
#X connect 3 0 0 1;
#X connect 4 0 5 0;
#X connect 5 0 0 0;
#X connect 6 0 7 0;
#X connect 8 0 9 0;
#X connect 9 0 10 0;
#X connect 10 0 24 0;
#X connect 11 0 12 1;
#X connect 12 0 14 0;
#X connect 14 0 16 0;
#X connect 14 0 22 0;
#X connect 15 0 14 0;
#X connect 16 0 17 0;
#X connect 17 0 18 0;
#X connect 17 1 19 0;
#X connect 17 2 20 0;
#X connect 17 3 21 0;
#X connect 23 0 10 1;
#X connect 24 0 25 0;
#X connect 25 0 12 0;
#X restore 264 390 pd export;
#N canvas 1 82 450 300 import 0;
#X obj 109 96 symbol;
#X obj 178 94 r datadir;
#X obj 109 116 list prepend;
#X obj 142 70 r set-load;
#X obj 109 42 inlet;
#X obj 109 63 b;
#X obj 109 158 s toSYSTEM;
#X msg 109 137 extract \$1/set/\$2.zip \$1/set/tmpimport\$2;
#X connect 0 0 2 0;
#X connect 1 0 2 1;
#X connect 2 0 7 0;
#X connect 3 0 0 1;
#X connect 4 0 5 0;
#X connect 5 0 0 0;
#X connect 7 0 6 0;
#X restore 331 392 pd import;
#X obj 340 448 r SYSTEM;
#X obj 340 469 print pd::SYSTEM;
#X connect 0 0 8 0;
#X connect 2 0 37 0;
#X connect 4 0 37 0;
#X connect 4 1 36 0;
#X connect 5 0 33 0;
#X connect 6 0 7 0;
#X connect 7 0 37 0;
#X connect 8 0 15 0;
#X connect 8 1 23 0;
#X connect 10 0 24 0;
#X connect 11 0 23 2;
#X connect 12 0 24 2;
#X connect 14 0 32 0;
#X connect 15 0 16 0;
#X connect 15 1 14 0;
#X connect 16 0 29 0;
#X connect 16 0 40 0;
#X connect 16 1 20 0;
#X connect 17 0 18 0;
#X connect 19 0 31 0;
#X connect 20 0 25 0;
#X connect 20 0 30 0;
#X connect 21 0 27 2;
#X connect 22 0 30 2;
#X connect 23 0 10 0;
#X connect 25 0 26 0;
#X connect 29 0 17 0;
#X connect 30 0 27 0;
#X connect 31 0 18 0;
#X connect 34 0 37 0;
#X connect 35 0 4 0;
#X connect 38 0 6 0;
#X connect 40 0 39 0;
#X connect 40 1 41 0;
#X connect 40 2 42 0;
#X connect 43 0 44 0;
