#N canvas 709 259 554 391 10;
#X obj 43 38 inlet;
#X obj 43 121 poftranslate;
#X obj 70 162 poffill 0;
#X obj 70 184 pofrect 40 40 5, f 28;
#X obj 151 54 unpack f f;
#X obj 151 33 r \$2-keysize;
#X obj 82 96 * \$1;
#X obj 151 110 - 2;
#X obj 208 110 - 2;
#X obj 370 18 r \$2-line-keys;
#X obj 370 39 route \$3;
#X obj 370 62 list split \$1;
#X obj 369 88 list split 1;
#X msg 255 153 text \$1;
#X obj 43 292 poftexts bold 50;
#X obj 43 142 t a a;
#X obj 70 205 poftouch 40 40, f 31;
#X obj 253 227 route down;
#X obj 43 268 pofcolor 1 1 1 1;
#X obj 89 242 == 0;
#X obj 202 293 tgl 15 0 empty empty empty 17 7 0 10 -262144 -1 -1 0
1;
#X obj 253 248 t b b;
#X obj 280 269 list;
#X obj 280 290 s \$2-keyPressed;
#X msg 202 273 1;
#X obj 232 273 del 250;
#X msg 232 294 0;
#X obj 255 130 list tosymbol;
#X obj 255 106 t a;
#X obj 255 34 moses 0;
#X obj 255 55 * -1;
#X msg 255 76 195 \$1;
#X connect 0 0 1 0;
#X connect 1 0 15 0;
#X connect 2 0 3 0;
#X connect 3 0 16 0;
#X connect 4 0 6 0;
#X connect 4 0 7 0;
#X connect 4 1 8 0;
#X connect 5 0 4 0;
#X connect 6 0 1 1;
#X connect 7 0 3 1;
#X connect 7 0 16 1;
#X connect 8 0 3 2;
#X connect 8 0 16 2;
#X connect 9 0 10 0;
#X connect 10 0 11 0;
#X connect 11 1 12 0;
#X connect 12 0 29 0;
#X connect 12 0 22 1;
#X connect 13 0 14 0;
#X connect 15 0 18 0;
#X connect 15 1 2 0;
#X connect 16 1 17 0;
#X connect 17 0 21 0;
#X connect 18 0 14 0;
#X connect 19 0 18 1;
#X connect 19 0 18 2;
#X connect 19 0 18 3;
#X connect 20 0 19 0;
#X connect 20 0 2 0;
#X connect 21 0 24 0;
#X connect 21 0 25 0;
#X connect 21 1 22 0;
#X connect 22 0 23 0;
#X connect 24 0 20 0;
#X connect 25 0 26 0;
#X connect 26 0 20 0;
#X connect 27 0 13 0;
#X connect 28 0 27 0;
#X connect 29 0 30 0;
#X connect 29 1 28 0;
#X connect 30 0 31 0;
#X connect 31 0 28 0;
