#N canvas 320 596 450 300 10;
#X obj 114 33 inlet;
#X obj 133 80 list prepend text;
#X obj 133 104 list trim;
#X obj 133 126 s pofkb_control;
#X obj 114 57 t b a b;
#X obj 290 134 list trim;
#X obj 290 156 s pofkb_control;
#X obj 290 70 pofutil;
#X msg 290 47 dollarg;
#X obj 290 113 list prepend title;
#X obj 290 92 route dollarg;
#X obj 114 154 symbol \$0-rcv;
#X obj 113 218 r pofkb_return;
#X obj 113 242 route \$0-rcv;
#X obj 227 243 route \$0-rcv;
#X obj 227 219 r pofkb_cancel;
#X obj 113 266 outlet return;
#X obj 227 267 outlet cancel;
#X obj 114 178 s pofkb_open;
#X connect 0 0 4 0;
#X connect 1 0 2 0;
#X connect 2 0 3 0;
#X connect 4 0 11 0;
#X connect 4 1 1 0;
#X connect 4 2 8 0;
#X connect 5 0 6 0;
#X connect 7 0 10 0;
#X connect 8 0 7 0;
#X connect 9 0 5 0;
#X connect 10 0 9 0;
#X connect 11 0 18 0;
#X connect 12 0 13 0;
#X connect 13 0 16 0;
#X connect 14 0 17 0;
#X connect 15 0 14 0;
