#N canvas 780 382 658 605 10;
#X obj 44 16 inlet;
#X obj 44 37 t a a;
#X obj 44 368 list prepend all;
#X obj 44 389 list trim;
#X obj 44 281 poftranslate, f 21;
#X obj 85 113 loadbang;
#X obj 85 134 list \$1 \$2;
#X obj 85 179 unpack f f;
#X obj 85 254 * -0.5;
#X obj 142 254 * -0.5;
#X obj 161 105 bng 15 250 50 0 empty empty empty 17 7 0 10 -262144
-1 -1;
#X obj 202 179 unpack f f;
#X obj 202 201 / 13;
#X obj 202 222 pack f f, f 10;
#X obj 202 243 s \$0-keysize;
#X obj 85 155 t a a, f 20;
#X obj 85 228 -;
#X obj 142 227 -;
#X obj 168 338 poftranslate, f 21;
#X obj 168 360 list prepend all;
#X obj 168 381 list trim;
#X obj 309 338 poftranslate, f 21;
#X obj 309 360 list prepend all;
#X obj 309 381 list trim;
#X obj 209 274 r \$0-keysize;
#X obj 209 295 unpack f f;
#X obj 350 276 r \$0-keysize;
#X obj 350 297 unpack f f;
#X obj 407 319 * 2;
#X obj 450 340 poftranslate, f 21;
#X obj 450 362 list prepend all;
#X obj 450 383 list trim;
#X obj 491 278 r \$0-keysize;
#X obj 491 299 unpack f f;
#X obj 548 321 * 3;
#X obj 209 316 * 0.5;
#X obj 350 318 * 0.75;
#X obj 491 320 * 1.25;
#X obj 259 201 / 6;
#X obj 157 207 * 3;
#N canvas 1202 197 717 671 init-keys 0;
#X obj 140 9 loadbang;
#X obj 50 635 s \$0-line-keys;
#X obj 207 11 inlet;
#X obj 50 293 list split 1;
#X obj 84 336 list split 1;
#X obj 118 358 t a;
#X obj 84 385 route float;
#X obj 84 420 makefilename %d;
#X obj 84 441 list fromsymbol;
#X obj 84 315 t a b;
#X obj 118 489 t a;
#X msg 172 385 list;
#X obj 50 521 list append;
#X obj 84 489 list;
#X obj 422 82 b;
#X obj 422 109 f;
#X obj 50 166 sel 0 1;
#X obj 50 13 r \$0-capsLock;
#X obj 50 542 route 3;
#X obj 50 584 list prepend 3;
#X obj 50 56 t f f;
#X obj 193 469 sel 0 1;
#X msg 193 511 44 59 58;
#X msg 212 488 63 46 47;
#X obj 50 562 list append 44 59 58;
#X msg 50 199 0 1 2 3 4 5 6 7 8 9 0 = \, 1 q w e r t y u i o p - @
\, 2 a s d f g h j k l ( ) " \, 3 z x c v b n m, f 23;
#X msg 211 198 0 1 2 3 4 5 6 7 8 9 0 + \, 1 Q W E R T Y U I O P * $
\, 2 A S D F G H J K L ! ? ' \, 3 Z X C V B N M, f 23;
#X obj 370 164 sel 0 1;
#X obj 422 54 route en fr;
#X obj 50 77 list prepend en;
#X obj 50 98 list trim;
#X obj 50 119 route en fr;
#X msg 140 31 fr;
#X msg 193 47 en;
#X obj 417 484 t a a, f 13;
#X obj 417 505 list length;
#X obj 417 632 t a;
#X obj 436 567 unpack f f;
#X obj 436 588 * 256;
#X obj 436 609 +;
#X floatatom 458 651 5 0 0 0 - - -;
#X obj 417 547 route 1 2;
#X obj 417 526 list append, f 13;
#X msg 370 197 0 & é " ' ( - è _ ç à = \, 1 a z e r t y u i o p
- @ \, 2 q s d f g h j k l m ( ) \, 3 w x c v b n m, f 23;
#X msg 525 198 0 1 2 3 4 5 6 7 8 9 0 + \, 1 A Z E R T Y U I O P * $
\, 2 Q S D F G H J K L M ! ? \, 3 W X C V B N M, f 23;
#X obj 304 470 route 195;
#X obj 304 491 * -1;
#X obj 304 512 f;
#X obj 50 34 f;
#X obj 140 54 t b a;
#X connect 0 0 32 0;
#X connect 2 0 32 0;
#X connect 3 0 12 0;
#X connect 3 1 9 0;
#X connect 4 0 6 0;
#X connect 4 1 5 0;
#X connect 5 0 4 0;
#X connect 6 0 7 0;
#X connect 6 1 8 0;
#X connect 7 0 8 0;
#X connect 8 0 45 0;
#X connect 9 0 4 0;
#X connect 9 1 11 0;
#X connect 10 0 12 1;
#X connect 10 0 13 1;
#X connect 11 0 10 0;
#X connect 12 0 18 0;
#X connect 13 0 10 0;
#X connect 14 0 15 0;
#X connect 16 0 25 0;
#X connect 16 1 26 0;
#X connect 17 0 48 0;
#X connect 18 0 24 0;
#X connect 18 1 1 0;
#X connect 19 0 1 0;
#X connect 20 0 29 0;
#X connect 20 1 21 0;
#X connect 21 0 22 0;
#X connect 21 1 23 0;
#X connect 22 0 24 1;
#X connect 23 0 24 1;
#X connect 24 0 19 0;
#X connect 25 0 3 0;
#X connect 26 0 3 0;
#X connect 27 0 43 0;
#X connect 27 1 44 0;
#X connect 28 0 14 0;
#X connect 29 0 30 0;
#X connect 30 0 31 0;
#X connect 31 0 16 0;
#X connect 31 1 27 0;
#X connect 32 0 49 0;
#X connect 33 0 49 0;
#X connect 34 0 35 0;
#X connect 34 1 42 1;
#X connect 35 0 42 0;
#X connect 37 0 38 0;
#X connect 37 1 39 1;
#X connect 38 0 39 0;
#X connect 39 0 36 0;
#X connect 39 0 40 0;
#X connect 41 0 36 0;
#X connect 41 1 37 0;
#X connect 42 0 41 0;
#X connect 43 0 3 0;
#X connect 44 0 3 0;
#X connect 45 0 46 0;
#X connect 45 1 47 0;
#X connect 46 0 47 0;
#X connect 47 0 13 0;
#X connect 48 0 20 0;
#X connect 49 0 48 0;
#X connect 49 1 29 1;
#X restore 264 26 pd init-keys;
#X obj 264 7 bng 15 250 50 0 empty empty empty 17 7 0 10 -262144 -1
-1;
#X obj 264 45 tgl 15 0 empty empty empty 17 7 0 10 -262144 -1 -1 0
1;
#X obj 264 64 s \$0-capsLock;
#N canvas 904 109 413 316 spaceKey 0;
#X obj 30 16 inlet;
#X obj 30 95 poftranslate, f 21;
#X obj 71 31 r \$0-keysize;
#X obj 71 52 unpack f f;
#X obj 128 73 * 4;
#X obj 30 117 poffill 0;
#X obj 30 166 pofrect 40 40 5, f 28;
#X obj 195 144 - 2;
#X obj 112 147 - 2;
#X obj 30 188 poftouch 40 40, f 31;
#X obj 213 210 route down;
#X obj 162 276 tgl 15 0 empty empty empty 17 7 0 10 -262144 -1 -1 0
1;
#X obj 213 231 t b b;
#X msg 162 256 1;
#X obj 192 256 del 250;
#X msg 192 277 0;
#X obj 240 252 f 32;
#X obj 240 273 s \$0-keyPressed;
#X obj 71 73 * 4.25;
#X obj 112 127 * 7;
#X connect 0 0 1 0;
#X connect 1 0 5 0;
#X connect 2 0 3 0;
#X connect 3 0 18 0;
#X connect 3 0 19 0;
#X connect 3 1 4 0;
#X connect 3 1 7 0;
#X connect 4 0 1 2;
#X connect 5 0 6 0;
#X connect 6 0 9 0;
#X connect 7 0 6 2;
#X connect 7 0 9 2;
#X connect 8 0 6 1;
#X connect 8 0 9 1;
#X connect 9 1 10 0;
#X connect 10 0 12 0;
#X connect 12 0 13 0;
#X connect 12 0 14 0;
#X connect 12 1 16 0;
#X connect 13 0 11 0;
#X connect 14 0 15 0;
#X connect 15 0 11 0;
#X connect 16 0 17 0;
#X connect 18 0 1 1;
#X connect 19 0 8 0;
#X restore 27 467 pd spaceKey;
#N canvas 950 101 798 622 textField 1;
#X obj 17 6 inlet;
#X obj 17 70 poftranslate, f 21;
#X obj 58 6 r \$0-keysize;
#X obj 58 27 unpack f f;
#X obj 44 137 pofrect 40 40 5, f 23;
#X obj 179 115 - 2;
#X obj 111 116 - 2;
#X obj 17 94 poffill 1;
#X obj 111 96 * 13;
#X obj 59 48 * 6;
#X obj 115 48 * -1;
#X obj 44 248 pofcolor 0 0 0 1;
#X obj 44 269 poftexts bold 45 -1, f 26;
#X obj 44 228 poftranslate, f 21;
#X obj 214 176 list prepend text;
#X obj 214 198 list trim;
#X obj 85 186 * -0.5;
#X obj 44 308 pofcolor 0 0 0 0;
#X obj 44 330 poftexts bold 45 -1;
#X obj 155 353 route size;
#X obj 155 374 unpack f;
#X obj 197 289 route size;
#X obj 197 310 unpack f;
#X obj 324 98 r \$0-textlist;
#X obj 324 204 list split 0;
#X obj 476 332 list tosymbol;
#X obj 324 275 list prepend text;
#X obj 324 296 list trim;
#X obj 336 142 r \$0-cursor;
#X obj 336 162 t b f, f 10;
#X obj 320 52 s \$0-cursor;
#X floatatom 316 22 5 0 1000 0 - - -;
#X obj 324 183 list;
#X obj 324 122 t b a;
#X obj 155 414 s \$0-cursorX;
#X text 62 292 invisible:;
#X obj 17 399 poftranslate;
#X obj 40 354 r \$0-cursorX;
#X obj 17 545 pofcolor 0 0 0 0.7;
#X obj 17 566 pofrect 3 45;
#X obj 17 420 pofbang 1;
#X msg 68 442 1;
#X obj 100 441 del 400;
#X msg 100 462 0;
#X obj 100 483 change;
#X obj 100 523 tgl 15 0 empty empty empty 17 7 0 10 -262144 -1 -1 1
1;
#X obj 122 523 * 0.7;
#X obj 100 504 metro 500;
#X obj 40 375 +;
#X obj 158 442 r \$0-cursor;
#X obj 158 463 t b b;
#X msg 185 484 0;
#X obj 85 208 + 3;
#X obj 155 395 - 1;
#X obj 17 115 t a a a, f 9;
#X obj 44 160 poftouch, f 23;
#X obj 127 186 s \$0-texttouch;
#X obj 297 341 r \$0-texttouch;
#X obj 297 386 unpack f;
#X obj 297 362 route down move;
#X obj 297 437 /;
#X obj 297 458 *;
#X obj 342 418 r \$0-textlist;
#X obj 297 585 s \$0-cursor;
#X obj 297 407 -;
#X obj 342 439 list length;
#X obj 297 500 i;
#X obj 297 564 change;
#X obj 370 509 r \$0-cursor;
#X msg 370 530 set \$1;
#X obj 297 521 clip 0 1;
#X text 430 428 TODO: fix click to cursor \; currently assumes fixed
width font \, which isn't true., f 29;
#X obj 476 142 t a a, f 10;
#X obj 476 205 list split;
#X obj 533 164 list length;
#X obj 533 185 - 1;
#X obj 504 246 sel 32;
#X obj 476 289 list append;
#X obj 504 267 45;
#X text 438 125 replace last 'space' with '-':;
#X obj 324 227 route bang;
#X msg 324 251 list;
#X obj 297 479 + 0.4;
#X msg 498 544 symbol é;
#X obj 498 565 list fromsymbol;
#X obj 498 586 print;
#X obj 605 585 print;
#X obj 605 564 list tosymbol;
#X msg 606 532 195 169;
#X msg 709 529 43459;
#X msg 669 529 50090;
#N canvas 1 90 546 261 multichar 0;
#X obj 100 16 inlet;
#X obj 119 63 list split 1, f 15;
#X obj 100 39 t b a b;
#X obj 182 85 t a;
#X obj 119 168 list append;
#X obj 203 167 t a;
#X msg 246 63 list;
#X obj 100 195 list;
#X obj 100 216 outlet;
#X obj 119 93 moses 0;
#X obj 119 114 * -1;
#X msg 119 135 195 \$1;
#X connect 0 0 2 0;
#X connect 1 0 9 0;
#X connect 1 1 3 0;
#X connect 2 0 7 0;
#X connect 2 1 1 0;
#X connect 2 2 6 0;
#X connect 3 0 1 0;
#X connect 4 0 5 0;
#X connect 4 0 7 1;
#X connect 5 0 4 1;
#X connect 6 0 5 0;
#X connect 7 0 8 0;
#X connect 9 0 10 0;
#X connect 9 1 4 0;
#X connect 10 0 11 0;
#X connect 11 0 4 0;
#X restore 476 310 pd multichar;
#X obj 214 134 r \$0-textfield;
#X connect 0 0 1 0;
#X connect 1 0 54 0;
#X connect 2 0 3 0;
#X connect 3 0 8 0;
#X connect 3 0 9 0;
#X connect 3 1 5 0;
#X connect 3 1 10 0;
#X connect 4 0 55 0;
#X connect 5 0 4 2;
#X connect 5 0 55 2;
#X connect 6 0 4 1;
#X connect 6 0 55 1;
#X connect 8 0 6 0;
#X connect 8 0 16 0;
#X connect 9 0 1 1;
#X connect 10 0 1 2;
#X connect 11 0 12 0;
#X connect 12 0 17 0;
#X connect 12 1 21 0;
#X connect 13 0 11 0;
#X connect 14 0 15 0;
#X connect 15 0 12 0;
#X connect 16 0 52 0;
#X connect 17 0 18 0;
#X connect 18 1 19 0;
#X connect 19 0 20 0;
#X connect 20 0 53 0;
#X connect 21 0 22 0;
#X connect 22 0 60 1;
#X connect 23 0 33 0;
#X connect 24 0 80 0;
#X connect 25 0 26 0;
#X connect 26 0 27 0;
#X connect 27 0 18 0;
#X connect 28 0 29 0;
#X connect 29 0 32 0;
#X connect 29 1 24 1;
#X connect 31 0 30 0;
#X connect 32 0 24 0;
#X connect 33 0 32 0;
#X connect 33 1 32 1;
#X connect 36 0 40 0;
#X connect 37 0 48 0;
#X connect 38 0 39 0;
#X connect 40 0 38 0;
#X connect 40 1 41 0;
#X connect 40 1 42 0;
#X connect 41 0 44 0;
#X connect 42 0 43 0;
#X connect 43 0 44 0;
#X connect 44 0 47 0;
#X connect 45 0 46 0;
#X connect 46 0 38 4;
#X connect 47 0 45 0;
#X connect 48 0 36 1;
#X connect 49 0 50 0;
#X connect 50 0 47 0;
#X connect 50 1 51 0;
#X connect 51 0 45 0;
#X connect 52 0 13 1;
#X connect 52 0 48 1;
#X connect 52 0 64 1;
#X connect 53 0 34 0;
#X connect 54 0 36 0;
#X connect 54 1 4 0;
#X connect 55 0 13 0;
#X connect 55 1 56 0;
#X connect 57 0 59 0;
#X connect 58 0 64 0;
#X connect 59 0 58 0;
#X connect 59 1 58 0;
#X connect 60 0 61 0;
#X connect 61 0 82 0;
#X connect 62 0 65 0;
#X connect 64 0 60 0;
#X connect 65 0 61 1;
#X connect 65 0 70 2;
#X connect 66 0 70 0;
#X connect 67 0 63 0;
#X connect 68 0 69 0;
#X connect 69 0 67 0;
#X connect 70 0 67 0;
#X connect 72 0 73 0;
#X connect 72 1 74 0;
#X connect 73 0 77 0;
#X connect 73 1 76 0;
#X connect 74 0 75 0;
#X connect 75 0 73 1;
#X connect 76 0 78 0;
#X connect 76 1 77 1;
#X connect 77 0 91 0;
#X connect 78 0 77 1;
#X connect 80 0 81 0;
#X connect 80 1 72 0;
#X connect 81 0 26 0;
#X connect 82 0 66 0;
#X connect 83 0 84 0;
#X connect 84 0 85 0;
#X connect 87 0 86 0;
#X connect 88 0 87 0;
#X connect 89 0 87 0;
#X connect 90 0 87 0;
#X connect 91 0 25 0;
#X connect 92 0 14 0;
#X restore 109 470 pd textField;
#N canvas 101 79 529 410 backKey 0;
#X obj 30 16 inlet;
#X obj 30 95 poftranslate, f 21;
#X obj 71 31 r \$0-keysize;
#X obj 71 52 unpack f f;
#X obj 30 117 poffill 0;
#X obj 30 166 pofrect 40 40 5, f 28;
#X obj 195 144 - 2;
#X obj 112 147 - 2;
#X obj 30 188 poftouch 40 40, f 31;
#X obj 213 210 route down;
#X obj 162 276 tgl 15 0 empty empty empty 17 7 0 10 -262144 -1 -1 0
1;
#X obj 213 231 t b b;
#X msg 162 256 1;
#X obj 192 256 del 250;
#X msg 192 277 0;
#X obj 128 73 * 0;
#X obj 112 127 * 2;
#X obj 71 73 * 11.5;
#X obj 30 209 pofrotate 180;
#X obj 30 288 pofcolor 1 1 1 1;
#X obj 67 259 == 0;
#X obj 240 280 s \$0-backPressed;
#X obj 30 322 pofimage arrow.png;
#X obj 324 171 * 0.6;
#X connect 0 0 1 0;
#X connect 1 0 4 0;
#X connect 2 0 3 0;
#X connect 3 0 16 0;
#X connect 3 0 17 0;
#X connect 3 1 6 0;
#X connect 3 1 15 0;
#X connect 3 1 23 0;
#X connect 4 0 5 0;
#X connect 5 0 8 0;
#X connect 6 0 5 2;
#X connect 6 0 8 2;
#X connect 7 0 5 1;
#X connect 7 0 8 1;
#X connect 8 0 18 0;
#X connect 8 1 9 0;
#X connect 9 0 11 0;
#X connect 10 0 4 0;
#X connect 10 0 20 0;
#X connect 11 0 12 0;
#X connect 11 0 13 0;
#X connect 11 1 21 0;
#X connect 12 0 10 0;
#X connect 13 0 14 0;
#X connect 14 0 10 0;
#X connect 15 0 1 2;
#X connect 16 0 7 0;
#X connect 17 0 1 1;
#X connect 18 0 19 0;
#X connect 19 0 22 0;
#X connect 20 0 19 1;
#X connect 20 0 19 2;
#X connect 20 0 19 3;
#X connect 23 0 22 2;
#X restore 56 511 pd backKey;
#X obj 71 84 pofrect \$1 \$2 5;
#X obj 71 64 pofcolor 0.1 0.1 0.1 0.8;
#N canvas 802 186 603 376 add/remove_char 0;
#X obj 18 29 r \$0-keyPressed;
#X obj 18 318 s \$0-textlist;
#X obj 18 217 list prepend;
#X obj 87 132 r \$0-textlist;
#X obj 138 282 r \$0-cursor;
#X obj 111 323 s \$0-cursor;
#X obj 111 303 +, f 5;
#X obj 129 153 r \$0-cursor;
#X obj 87 195 list split, f 12;
#X obj 18 239 list append, f 17;
#X obj 18 260 t a b, f 16;
#X obj 325 16 r \$0-backPressed;
#X obj 87 153 t b a;
#X obj 87 174 list, f 5;
#X obj 129 174 t b f;
#X obj 352 40 r \$0-textlist;
#X obj 490 59 r \$0-cursor;
#X obj 325 82 list split, f 28;
#X obj 325 61 list, f 5;
#X obj 325 111 t a a, f 10;
#X obj 382 132 list length;
#X obj 382 153 - 1;
#X obj 325 176 list split;
#X obj 325 197 list append, f 22;
#X obj 325 218 t a b;
#X obj 379 238 r \$0-cursor;
#X obj 352 299 s \$0-cursor;
#X obj 352 259 +, f 5;
#X obj 352 280 max 0;
#X obj 325 325 s \$0-textlist;
#X msg 352 239 -1;
#X obj 18 81 spigot;
#X obj 122 30 r \$0-textlist;
#X obj 122 50 list length;
#X obj 122 71 <= 1e+06, f 13;
#X obj 197 50 r \$0-charlimit;
#X obj 18 103 t a a, f 30;
#X obj 111 282 f 1;
#X obj 195 125 list length;
#X connect 0 0 31 0;
#X connect 2 0 9 0;
#X connect 3 0 12 0;
#X connect 4 0 6 1;
#X connect 6 0 5 0;
#X connect 7 0 14 0;
#X connect 8 0 2 1;
#X connect 8 1 9 1;
#X connect 9 0 10 0;
#X connect 10 0 1 0;
#X connect 10 1 37 0;
#X connect 11 0 18 0;
#X connect 12 0 13 0;
#X connect 12 1 13 1;
#X connect 13 0 8 0;
#X connect 14 0 13 0;
#X connect 14 1 8 1;
#X connect 15 0 18 1;
#X connect 16 0 17 1;
#X connect 17 0 19 0;
#X connect 17 1 23 1;
#X connect 18 0 17 0;
#X connect 19 0 22 0;
#X connect 19 1 20 0;
#X connect 20 0 21 0;
#X connect 21 0 22 1;
#X connect 22 0 23 0;
#X connect 23 0 24 0;
#X connect 24 0 29 0;
#X connect 24 1 30 0;
#X connect 25 0 27 1;
#X connect 27 0 28 0;
#X connect 28 0 26 0;
#X connect 30 0 27 0;
#X connect 31 0 36 0;
#X connect 32 0 33 0;
#X connect 33 0 34 0;
#X connect 34 0 31 1;
#X connect 35 0 34 1;
#X connect 36 0 2 0;
#X connect 36 1 38 0;
#X connect 37 0 6 0;
#X connect 38 0 37 1;
#X restore 291 454 pd add/remove_char;
#N canvas 936 124 529 410 shiftKey 0;
#X obj 30 16 inlet;
#X obj 30 95 poftranslate, f 21;
#X obj 71 31 r \$0-keysize;
#X obj 71 52 unpack f f;
#X obj 30 117 poffill 0;
#X obj 30 166 pofrect 40 40 5, f 28;
#X obj 195 144 - 2;
#X obj 112 147 - 2;
#X obj 30 188 poftouch 40 40, f 31;
#X obj 213 210 route down;
#X obj 213 231 t b b;
#X obj 30 288 pofcolor 1 1 1 1;
#X obj 67 259 == 0;
#X obj 128 73 * 3;
#X obj 30 209 pofrotate;
#X obj 30 323 pofimage shiftarrow84.png;
#X obj 324 171 * 0.6;
#X obj 112 127 * 1.25;
#X obj 71 73 * 0.125;
#X obj 255 264 r \$0-capsLock;
#X obj 240 284 f;
#X obj 240 305 == 0;
#X obj 240 325 s \$0-capsLock;
#X obj 107 221 r \$0-capsLock;
#X connect 0 0 1 0;
#X connect 1 0 4 0;
#X connect 2 0 3 0;
#X connect 3 0 17 0;
#X connect 3 0 18 0;
#X connect 3 1 6 0;
#X connect 3 1 13 0;
#X connect 3 1 16 0;
#X connect 4 0 5 0;
#X connect 5 0 8 0;
#X connect 6 0 5 2;
#X connect 6 0 8 2;
#X connect 7 0 5 1;
#X connect 7 0 8 1;
#X connect 8 0 14 0;
#X connect 8 1 9 0;
#X connect 9 0 10 0;
#X connect 10 1 20 0;
#X connect 11 0 15 0;
#X connect 12 0 11 1;
#X connect 12 0 11 2;
#X connect 12 0 11 3;
#X connect 13 0 1 2;
#X connect 14 0 11 0;
#X connect 16 0 15 2;
#X connect 17 0 7 0;
#X connect 18 0 1 1;
#X connect 19 0 20 1;
#X connect 20 0 21 0;
#X connect 21 0 22 0;
#X connect 23 0 12 0;
#X connect 23 0 4 0;
#X restore 51 551 pd shiftKey;
#X obj 44 409 clone _key 11 \$0 0;
#N canvas 362 97 413 444 enterKey 0;
#X obj 30 16 inlet;
#X obj 30 95 poftranslate, f 21;
#X obj 71 31 r \$0-keysize;
#X obj 71 52 unpack f f;
#X obj 30 117 poffill 0;
#X obj 30 166 pofrect 40 40 5, f 28;
#X obj 195 144 - 2;
#X obj 112 147 - 2;
#X obj 30 188 poftouch 40 40, f 31;
#X obj 213 210 route down;
#X obj 162 276 tgl 15 0 empty empty empty 17 7 0 10 -262144 -1 -1 0
1;
#X obj 213 231 t b b;
#X msg 162 256 1;
#X obj 192 256 del 250;
#X msg 192 277 0;
#X msg 263 116 text Enter;
#X obj 30 211 poffill 1;
#X obj 30 338 poftexts bold 31;
#X obj 30 258 pofcolor 1 1 1 1;
#X obj 99 235 == 0;
#X obj 240 273 s \$0-enterPressed;
#X floatatom 163 293 5 0 0 0 - - -;
#X floatatom 75 283 5 0 0 0 - - -;
#X floatatom 71 357 5 0 0 0 - - -;
#X obj 264 92 loadbang;
#X floatatom 44 362 5 0 0 0 - - -;
#X obj 30 306 poftranslate 0 -35;
#X obj 195 125 * 2;
#X obj 128 73 * 3.5;
#X floatatom 193 375 5 0 0 0 - - -;
#X obj 30 404 pofimage enterarrow84.png 55 40;
#X obj 30 383 poftranslate -5 60;
#X obj 112 127 * 1.75;
#X obj 71 74 * 11.625;
#X connect 0 0 1 0;
#X connect 1 0 4 0;
#X connect 2 0 3 0;
#X connect 3 0 32 0;
#X connect 3 0 33 0;
#X connect 3 1 27 0;
#X connect 3 1 28 0;
#X connect 4 0 5 0;
#X connect 5 0 8 0;
#X connect 6 0 5 2;
#X connect 6 0 8 2;
#X connect 7 0 5 1;
#X connect 7 0 8 1;
#X connect 8 0 16 0;
#X connect 8 1 9 0;
#X connect 9 0 11 0;
#X connect 10 0 19 0;
#X connect 10 0 4 0;
#X connect 11 0 12 0;
#X connect 11 0 13 0;
#X connect 11 1 20 0;
#X connect 12 0 10 0;
#X connect 13 0 14 0;
#X connect 14 0 10 0;
#X connect 15 0 17 0;
#X connect 16 0 18 0;
#X connect 17 0 31 0;
#X connect 18 0 26 0;
#X connect 19 0 18 1;
#X connect 19 0 18 2;
#X connect 19 0 18 3;
#X connect 21 0 30 1;
#X connect 22 0 26 2;
#X connect 23 0 31 2;
#X connect 24 0 15 0;
#X connect 25 0 31 1;
#X connect 26 0 17 0;
#X connect 27 0 6 0;
#X connect 28 0 1 2;
#X connect 29 0 30 2;
#X connect 31 0 30 0;
#X connect 32 0 7 0;
#X connect 33 0 1 1;
#X restore 143 524 pd enterKey;
#X obj 290 494 r \$0-enterPressed;
#X obj 401 472 r \$0-textlist;
#X obj 401 514 list tosymbol;
#X obj 290 515 b;
#X obj 290 557 outlet;
#X obj 450 403 clone _key 10 \$0 3;
#X obj 436 180 s \$0-textlist;
#X obj 409 204 list length;
#X obj 409 226 s \$0-cursor;
#X obj 409 92 fudiformat -u;
#X obj 409 159 t a a;
#X obj 168 401 clone _key 12 \$0 1;
#X obj 309 401 clone _key 12 \$0 2;
#N canvas 594 127 413 444 cancelKey 0;
#X obj 30 16 inlet;
#X obj 30 95 poftranslate, f 21;
#X obj 71 31 r \$0-keysize;
#X obj 71 52 unpack f f;
#X obj 30 117 poffill 0;
#X obj 30 166 pofrect 40 40 5, f 28;
#X obj 195 144 - 2;
#X obj 112 147 - 2;
#X obj 30 188 poftouch 40 40, f 31;
#X obj 213 210 route down;
#X obj 162 276 tgl 15 0 empty empty empty 17 7 0 10 -262144 -1 -1 0
1;
#X obj 213 231 t b b;
#X msg 162 256 1;
#X obj 192 256 del 250;
#X msg 192 277 0;
#X obj 30 211 poffill 1;
#X obj 30 338 poftexts bold 31;
#X obj 30 258 pofcolor 1 1 1 1;
#X obj 99 235 == 0;
#X floatatom 163 293 5 0 0 0 - - -;
#X floatatom 252 356 5 0 0 0 - - -;
#X floatatom 71 357 5 0 0 0 - - -;
#X obj 264 92 loadbang;
#X floatatom 44 362 5 0 0 0 - - -;
#X obj 226 361 poftranslate 0 -35;
#X floatatom 193 375 5 0 0 0 - - -;
#X obj 30 404 pofimage enterarrow84.png 55 40;
#X obj 30 383 poftranslate -5 60;
#X msg 263 116 text Cancel;
#X obj 112 127 * 2;
#X obj 195 125 * 1;
#X obj 128 73 * 4;
#X obj 240 273 s \$0-cancelPressed;
#X obj 71 74 * 9.75;
#X connect 0 0 1 0;
#X connect 1 0 4 0;
#X connect 2 0 3 0;
#X connect 3 0 29 0;
#X connect 3 0 33 0;
#X connect 3 1 30 0;
#X connect 3 1 31 0;
#X connect 4 0 5 0;
#X connect 5 0 8 0;
#X connect 6 0 5 2;
#X connect 6 0 8 2;
#X connect 7 0 5 1;
#X connect 7 0 8 1;
#X connect 8 0 15 0;
#X connect 8 1 9 0;
#X connect 9 0 11 0;
#X connect 10 0 18 0;
#X connect 10 0 4 0;
#X connect 11 0 12 0;
#X connect 11 0 13 0;
#X connect 11 1 32 0;
#X connect 12 0 10 0;
#X connect 13 0 14 0;
#X connect 14 0 10 0;
#X connect 15 0 17 0;
#X connect 17 0 16 0;
#X connect 18 0 17 1;
#X connect 18 0 17 2;
#X connect 18 0 17 3;
#X connect 19 0 26 1;
#X connect 20 0 24 2;
#X connect 21 0 27 2;
#X connect 22 0 28 0;
#X connect 23 0 27 1;
#X connect 25 0 26 2;
#X connect 27 0 26 0;
#X connect 28 0 16 0;
#X connect 29 0 7 0;
#X connect 30 0 6 0;
#X connect 31 0 1 2;
#X connect 33 0 1 1;
#X restore 135 553 pd cancelKey;
#X obj 535 493 r \$0-cancelPressed;
#X obj 535 514 outlet cancel;
#N canvas 743 116 475 459 title 1;
#X obj 17 6 inlet;
#X obj 17 70 poftranslate, f 22;
#X obj 58 6 r \$0-keysize;
#X obj 58 27 unpack f f;
#X obj 42 159 pofrect 40 40 5, f 37;
#X obj 261 134 - 2;
#X obj 192 136 - 2;
#X obj 37 95 poffill 1;
#X obj 192 116 * 13;
#X obj 59 48 * 6;
#X obj 131 219 list prepend text;
#X obj 131 240 list trim;
#X obj 320 52 s \$0-cursor;
#X floatatom 316 22 5 0 1000 0 - - -;
#X obj 17 115 t a a a, f 9;
#X obj 131 197 r \$0-title;
#X obj 115 48 * -2;
#X msg 240 250 Title;
#X obj 17 282 pofcolor 1 1 1 1;
#X msg 232 330 center 1;
#X obj 17 303 poftexts bold 45 0, f 26;
#X obj 42 138 pofcolor 0.3 0.3 0.3 1;
#X connect 0 0 1 0;
#X connect 1 0 14 0;
#X connect 2 0 3 0;
#X connect 3 0 8 0;
#X connect 3 0 9 0;
#X connect 3 1 5 0;
#X connect 3 1 16 0;
#X connect 5 0 4 2;
#X connect 6 0 4 1;
#X connect 8 0 6 0;
#X connect 9 0 1 1;
#X connect 10 0 11 0;
#X connect 11 0 20 0;
#X connect 13 0 12 0;
#X connect 14 0 18 0;
#X connect 14 1 21 0;
#X connect 15 0 10 0;
#X connect 16 0 1 2;
#X connect 17 0 10 0;
#X connect 18 0 20 0;
#X connect 19 0 20 0;
#X connect 21 0 4 0;
#X restore 191 470 pd title;
#X obj 460 68 s \$0-title;
#X obj 409 47 route text title charlimit;
#X obj 409 16 inlet control;
#X obj 530 68 s \$0-charlimit;
#X obj 290 536 list, f 19;
#N canvas 1 128 394 222 remove_backslash 0;
#X obj 100 16 inlet;
#X obj 119 63 list split 1, f 15;
#X obj 100 39 t b a b;
#X obj 119 84 sel 92;
#X obj 166 85 t a;
#X obj 119 105 list append;
#X obj 203 104 t a;
#X msg 218 64 list;
#X obj 100 132 list;
#X obj 100 153 outlet;
#X connect 0 0 2 0;
#X connect 1 0 3 0;
#X connect 1 1 4 0;
#X connect 2 0 8 0;
#X connect 2 1 1 0;
#X connect 2 2 7 0;
#X connect 3 1 5 0;
#X connect 4 0 1 0;
#X connect 5 0 6 0;
#X connect 5 0 8 1;
#X connect 6 0 5 1;
#X connect 7 0 6 0;
#X connect 8 0 9 0;
#X restore 409 114 pd remove_backslash;
#N canvas 1 82 546 261 multichar 0;
#X obj 100 16 inlet;
#X obj 119 63 list split 1, f 15;
#X obj 100 39 t b a b;
#X obj 182 85 t a;
#X obj 119 168 list append;
#X obj 203 167 t a;
#X msg 246 63 list;
#X obj 100 195 list;
#X obj 100 216 outlet;
#X obj 119 93 moses 0;
#X obj 119 114 * -1;
#X msg 119 135 195 \$1;
#X connect 0 0 2 0;
#X connect 1 0 9 0;
#X connect 1 1 3 0;
#X connect 2 0 7 0;
#X connect 2 1 1 0;
#X connect 2 2 6 0;
#X connect 3 0 1 0;
#X connect 4 0 5 0;
#X connect 4 0 7 1;
#X connect 5 0 4 1;
#X connect 6 0 5 0;
#X connect 7 0 8 0;
#X connect 9 0 10 0;
#X connect 9 1 4 0;
#X connect 10 0 11 0;
#X connect 11 0 4 0;
#X restore 401 493 pd multichar;
#X obj 426 541 s \$0-textfield;
#N canvas 1282 147 479 461 frommultichar 0;
#X obj 64 18 inlet;
#X obj 64 41 t b a b;
#X obj 167 316 t a;
#X msg 253 66 list;
#X obj 64 344 list;
#X obj 64 365 outlet;
#X msg 83 190 -1;
#X obj 83 250 t a b;
#X msg 123 250 1;
#X obj 83 273 unpack f f;
#X obj 83 295 *, f 10;
#X obj 83 169 sel 195;
#X obj 83 227 list append 1;
#X obj 83 66 t a a, f 14;
#X obj 164 87 list split 1;
#X obj 83 87 list split 1;
#X obj 83 317 list prepend;
#X obj 83 123 moses 0;
#X obj 83 144 + 256;
#X connect 0 0 1 0;
#X connect 1 0 4 0;
#X connect 1 1 13 0;
#X connect 1 2 3 0;
#X connect 2 0 16 1;
#X connect 3 0 2 0;
#X connect 4 0 5 0;
#X connect 6 0 12 1;
#X connect 7 0 9 0;
#X connect 7 1 8 0;
#X connect 8 0 12 1;
#X connect 9 0 10 0;
#X connect 9 1 10 1;
#X connect 10 0 16 0;
#X connect 11 0 6 0;
#X connect 11 1 12 0;
#X connect 12 0 7 0;
#X connect 13 0 15 0;
#X connect 13 1 14 0;
#X connect 14 0 17 0;
#X connect 15 1 13 0;
#X connect 16 0 2 0;
#X connect 16 0 4 1;
#X connect 17 0 18 0;
#X connect 17 1 11 0;
#X connect 18 0 11 0;
#X restore 409 135 pd frommultichar;
#X connect 0 0 1 0;
#X connect 1 0 4 0;
#X connect 1 1 48 0;
#X connect 2 0 3 0;
#X connect 3 0 51 0;
#X connect 4 0 2 0;
#X connect 4 0 18 0;
#X connect 4 0 21 0;
#X connect 4 0 29 0;
#X connect 4 0 44 0;
#X connect 4 0 45 0;
#X connect 4 0 46 0;
#X connect 4 0 50 0;
#X connect 4 0 52 0;
#X connect 4 0 66 0;
#X connect 4 0 69 0;
#X connect 5 0 6 0;
#X connect 6 0 15 0;
#X connect 7 0 16 0;
#X connect 7 1 17 0;
#X connect 8 0 4 1;
#X connect 9 0 4 2;
#X connect 10 0 6 0;
#X connect 11 0 12 0;
#X connect 11 1 38 0;
#X connect 12 0 13 0;
#X connect 12 0 16 1;
#X connect 13 0 14 0;
#X connect 15 0 7 0;
#X connect 15 1 11 0;
#X connect 16 0 8 0;
#X connect 17 0 9 0;
#X connect 18 0 19 0;
#X connect 19 0 20 0;
#X connect 20 0 64 0;
#X connect 21 0 22 0;
#X connect 22 0 23 0;
#X connect 23 0 65 0;
#X connect 24 0 25 0;
#X connect 25 0 35 0;
#X connect 25 1 18 2;
#X connect 26 0 27 0;
#X connect 27 0 36 0;
#X connect 27 1 28 0;
#X connect 28 0 21 2;
#X connect 29 0 30 0;
#X connect 30 0 31 0;
#X connect 31 0 58 0;
#X connect 32 0 33 0;
#X connect 33 0 37 0;
#X connect 33 1 34 0;
#X connect 34 0 29 2;
#X connect 35 0 18 1;
#X connect 36 0 21 1;
#X connect 37 0 29 1;
#X connect 38 0 13 1;
#X connect 38 0 39 0;
#X connect 39 0 17 1;
#X connect 41 0 40 0;
#X connect 42 0 43 0;
#X connect 48 0 47 0;
#X connect 53 0 56 0;
#X connect 54 0 76 0;
#X connect 55 0 74 1;
#X connect 55 0 77 0;
#X connect 56 0 74 0;
#X connect 60 0 61 0;
#X connect 62 0 75 0;
#X connect 63 0 60 0;
#X connect 63 1 59 0;
#X connect 67 0 68 0;
#X connect 71 0 62 0;
#X connect 71 1 70 0;
#X connect 71 2 73 0;
#X connect 72 0 71 0;
#X connect 74 0 57 0;
#X connect 75 0 78 0;
#X connect 76 0 55 0;
#X connect 78 0 63 0;
