#N canvas 1090 149 525 407 10;
#X obj 45 27 bng 15 250 50 0 empty empty empty 17 7 0 10 -4034 -1 -1
;
#X obj 184 205 bng 15 250 50 0 empty empty empty 17 7 0 10 -262144
-1 -1;
#X obj 46 175 pofkb/main 800 350;
#X symbolatom 46 200 0 0 0 0 - - -;
#X obj 162 315 loadbang;
#X obj 46 99 pofvisible;
#X obj 124 93 tgl 15 0 empty empty empty 17 7 0 10 -262144 -1 -1 0
1;
#X obj 46 77 r pofkbHead;
#X obj 46 121 t a a, f 44;
#X obj 307 176 poftouch 1e+06 1e+06;
#X obj 236 161 loadbang;
#X obj 46 143 pofscale 0.8 0.8;
#X obj 183 18 r pofkb_open;
#X obj 183 39 t b a;
#X msg 124 73 1;
#X msg 154 73 0;
#X obj 46 226 list prepend --, f 17;
#X obj 46 274 s pofkb_return;
#X obj 165 227 list prepend --;
#X obj 165 272 s pofkb_cancel;
#X text 261 16 rcv_channel title...;
#X msg 236 180 draw 1;
#X obj 307 155 pofcolor 0.1 0.1 0.1 0.85;
#X obj 210 62 list split 1;
#X obj 233 89 r pofkb_control;
#X text 327 90 (text/title/charlimit);
#X obj 162 370 s pofkb_control;
#X msg 162 350 text Initial Text... \, title Enter text: \, charlimit
8;
#X obj 46 250 list trim;
#X obj 165 249 list trim;
#X connect 1 0 15 0;
#X connect 2 0 3 0;
#X connect 2 0 1 0;
#X connect 2 1 1 0;
#X connect 2 1 18 0;
#X connect 3 0 16 0;
#X connect 5 0 8 0;
#X connect 6 0 5 0;
#X connect 7 0 5 0;
#X connect 8 0 11 0;
#X connect 8 1 22 0;
#X connect 10 0 21 0;
#X connect 11 0 2 0;
#X connect 12 0 13 0;
#X connect 13 0 14 0;
#X connect 13 1 23 0;
#X connect 14 0 6 0;
#X connect 15 0 6 0;
#X connect 16 0 28 0;
#X connect 18 0 29 0;
#X connect 21 0 9 0;
#X connect 22 0 9 0;
#X connect 23 0 16 1;
#X connect 24 0 2 1;
#X connect 27 0 26 0;
#X connect 28 0 17 0;
#X connect 29 0 19 0;
