#N canvas 2570 962 497 789 12;
#X msg 309 28 maj;
#X symbolatom 274 156 10 0 0 0 - - -;
#X obj 72 190 i;
#X obj 101 191 + 1;
#X obj 68 268 t f f;
#X obj 157 116 t b b;
#X msg 187 144 0, f 1;
#X obj 314 270 outlet;
#X obj 50 698 pack f f;
#X obj 67 319 t f f;
#X obj 211 677 f;
#X obj 39 15 bng 15 250 50 0 empty empty empty 17 7 0 10 -262144 -1
-1;
#X obj 306 219 del 10;
#X obj 225 413 f;
#X obj 74 225 spigot 0;
#X msg 97 128 1, f 1;
#X obj 75 90 t b b b;
#X msg 117 126 0, f 1;
#X obj 245 498 transpose 0;
#X obj 161 223 t f f;
#N canvas 0 96 883 664 t 0;
#X obj 20 12 inlet;
#X msg 198 72 1, f 2;
#X msg 227 72 2, f 2;
#X msg 255 72 3, f 2;
#X msg 284 72 4, f 2;
#X msg 314 72 5, f 2;
#X msg 344 72 6, f 2;
#X msg 372 72 7, f 2;
#X msg 401 72 8, f 2;
#X msg 431 72 9, f 2;
#X msg 460 72 10, f 2;
#X msg 488 72 11, f 2;
#X msg 517 125 1, f 2;
#X msg 546 125 2, f 2;
#X msg 574 125 3, f 2;
#X msg 603 125 4, f 2;
#X msg 633 125 5, f 2;
#X msg 663 125 6, f 2;
#X msg 691 125 7, f 2;
#X msg 720 125 8, f 2;
#X msg 750 125 9, f 2;
#X msg 779 125 10, f 2;
#X msg 807 125 11, f 2;
#X obj 517 101 sel 75 151 227 303 379 455 531 607 683 759 835;
#X obj 681 245 f;
#X obj 198 48 sel 74 150 226 302 378 454 530 606 682 758 834;
#X obj 82 281 t b;
#X obj 135 309 t b;
#X msg 82 306 0, f 2;
#X obj 195 333 t b;
#X obj 255 358 t b;
#X obj 315 383 t b;
#X obj 375 408 t b;
#X obj 435 433 t b;
#X obj 495 458 t b;
#X obj 555 483 t b;
#X obj 615 508 t b;
#X obj 675 534 t b;
#X msg 135 333 1, f 2;
#X msg 195 358 2, f 2;
#X msg 255 382 3, f 2;
#X msg 315 407 4, f 2;
#X msg 375 432 5, f 2;
#X msg 435 458 6, f 2;
#X msg 495 482 7, f 2;
#X msg 555 508 8, f 2;
#X msg 615 532 9, f 2;
#X msg 675 558 10, f 2;
#X obj 735 554 t b;
#X msg 735 578 11, f 2;
#X obj 319 596 outlet;
#X obj 362 192 f;
#X obj 1178 203 f;
#X obj 579 214 moses 75;
#X obj 632 240 moses 151;
#X obj 692 265 moses 227;
#X obj 752 291 moses 303;
#X obj 812 315 moses 379;
#X obj 872 341 moses 455;
#X obj 932 366 moses 531;
#X obj 992 392 moses 607;
#X obj 1052 418 moses 683;
#X obj 1112 442 moses 759;
#X obj 1172 468 moses 835;
#X obj 579 239 t b;
#X obj 632 267 t b;
#X msg 579 264 0, f 2;
#X obj 692 291 t b;
#X obj 752 316 t b;
#X obj 812 341 t b;
#X obj 872 366 t b;
#X obj 932 391 t b;
#X obj 992 416 t b;
#X obj 1052 441 t b;
#X obj 1112 466 t b;
#X obj 1172 492 t b;
#X msg 632 291 1, f 2;
#X msg 692 316 2, f 2;
#X msg 752 340 3, f 2;
#X msg 812 365 4, f 2;
#X msg 872 390 5, f 2;
#X msg 932 416 6, f 2;
#X msg 992 440 7, f 2;
#X msg 1052 466 8, f 2;
#X msg 1112 490 9, f 2;
#X msg 1172 516 10, f 2;
#X obj 1232 512 t b;
#X msg 1232 536 11, f 2;
#X obj 816 554 f;
#X floatatom 70 374 5 0 0 0 - - -;
#X floatatom 87 167 5 0 0 0 - - -;
#X obj 82 256 moses 77;
#X obj 135 282 moses 153;
#X obj 195 307 moses 229;
#X obj 255 333 moses 305;
#X obj 315 357 moses 381;
#X obj 375 383 moses 457;
#X obj 435 408 moses 533;
#X obj 495 434 moses 609;
#X obj 555 460 moses 685;
#X obj 615 484 moses 761;
#X obj 675 510 moses 837;
#X connect 0 0 91 0;
#X connect 1 0 51 0;
#X connect 2 0 51 0;
#X connect 3 0 51 0;
#X connect 4 0 51 0;
#X connect 5 0 51 0;
#X connect 6 0 51 0;
#X connect 7 0 51 0;
#X connect 8 0 51 0;
#X connect 9 0 51 0;
#X connect 10 0 51 0;
#X connect 11 0 51 0;
#X connect 12 0 24 0;
#X connect 13 0 24 0;
#X connect 14 0 24 0;
#X connect 15 0 24 0;
#X connect 16 0 24 0;
#X connect 17 0 24 0;
#X connect 18 0 24 0;
#X connect 19 0 24 0;
#X connect 20 0 24 0;
#X connect 21 0 24 0;
#X connect 22 0 24 0;
#X connect 23 0 12 0;
#X connect 23 1 13 0;
#X connect 23 2 14 0;
#X connect 23 3 15 0;
#X connect 23 4 16 0;
#X connect 23 5 17 0;
#X connect 23 6 18 0;
#X connect 23 7 19 0;
#X connect 23 8 20 0;
#X connect 23 9 21 0;
#X connect 23 10 22 0;
#X connect 25 0 1 0;
#X connect 25 1 2 0;
#X connect 25 2 3 0;
#X connect 25 3 4 0;
#X connect 25 4 5 0;
#X connect 25 5 6 0;
#X connect 25 6 7 0;
#X connect 25 7 8 0;
#X connect 25 8 9 0;
#X connect 25 9 10 0;
#X connect 25 10 11 0;
#X connect 26 0 28 0;
#X connect 27 0 38 0;
#X connect 28 0 50 0;
#X connect 28 0 89 0;
#X connect 29 0 39 0;
#X connect 30 0 40 0;
#X connect 31 0 41 0;
#X connect 32 0 42 0;
#X connect 33 0 43 0;
#X connect 34 0 44 0;
#X connect 35 0 45 0;
#X connect 36 0 46 0;
#X connect 37 0 47 0;
#X connect 38 0 50 0;
#X connect 38 0 89 0;
#X connect 39 0 50 0;
#X connect 40 0 50 0;
#X connect 41 0 50 0;
#X connect 42 0 50 0;
#X connect 43 0 50 0;
#X connect 44 0 50 0;
#X connect 46 0 50 0;
#X connect 47 0 50 0;
#X connect 48 0 49 0;
#X connect 49 0 50 0;
#X connect 53 0 64 0;
#X connect 53 1 54 0;
#X connect 54 0 65 0;
#X connect 54 1 55 0;
#X connect 55 0 67 0;
#X connect 55 1 56 0;
#X connect 56 0 68 0;
#X connect 56 1 57 0;
#X connect 57 0 69 0;
#X connect 57 1 58 0;
#X connect 58 0 70 0;
#X connect 58 1 59 0;
#X connect 59 0 71 0;
#X connect 59 1 60 0;
#X connect 60 0 72 0;
#X connect 60 1 61 0;
#X connect 61 0 73 0;
#X connect 61 1 62 0;
#X connect 62 0 74 0;
#X connect 62 1 63 0;
#X connect 63 0 75 0;
#X connect 63 1 86 0;
#X connect 64 0 66 0;
#X connect 65 0 76 0;
#X connect 66 0 88 0;
#X connect 67 0 77 0;
#X connect 68 0 78 0;
#X connect 69 0 79 0;
#X connect 70 0 80 0;
#X connect 71 0 81 0;
#X connect 72 0 82 0;
#X connect 73 0 83 0;
#X connect 74 0 84 0;
#X connect 75 0 85 0;
#X connect 76 0 88 0;
#X connect 77 0 88 0;
#X connect 78 0 88 0;
#X connect 79 0 88 0;
#X connect 80 0 88 0;
#X connect 81 0 88 0;
#X connect 82 0 88 0;
#X connect 84 0 88 0;
#X connect 85 0 88 0;
#X connect 86 0 87 0;
#X connect 87 0 88 0;
#X connect 90 0 91 0;
#X connect 91 0 26 0;
#X connect 91 1 92 0;
#X connect 92 0 27 0;
#X connect 92 1 93 0;
#X connect 93 0 29 0;
#X connect 93 1 94 0;
#X connect 94 0 30 0;
#X connect 94 1 95 0;
#X connect 95 0 31 0;
#X connect 95 1 96 0;
#X connect 96 0 32 0;
#X connect 96 1 97 0;
#X connect 97 0 33 0;
#X connect 97 1 98 0;
#X connect 98 0 34 0;
#X connect 98 1 99 0;
#X connect 99 0 35 0;
#X connect 99 1 100 0;
#X connect 100 0 36 0;
#X connect 100 1 101 0;
#X connect 101 0 37 0;
#X connect 101 1 48 0;
#X restore 317 318 pd t;
#X floatatom 127 326 5 0 0 0 - - -;
#X obj 122 639 t b b f b;
#X obj 234 581 change;
#X obj 210 542 f;
#X obj 198 470 t b;
#N canvas 2190 1365 393 486 double 1;
#X obj 49 17 inlet;
#X floatatom 223 171 5 0 0 0 - - -;
#X obj 226 257 bng 15 250 50 0 empty empty empty 17 7 0 10 -262144
-1 -1;
#X obj 223 193 route 0;
#X obj 287 238 f;
#X obj 262 220 bng 15 250 50 0 empty empty empty 17 7 0 10 -262144
-1 -1;
#X obj 47 48 unpack f f;
#X obj 58 253 f;
#X obj 198 96 t f f f;
#X obj 57 199 f;
#X obj 69 156 t b;
#X obj 57 222 t b f;
#X obj 52 359 pack f f;
#X obj 5 309 tabwrite enumMode;
#X obj 286 303 print Modepass;
#X obj 68 433 print Modewrite;
#X obj 220 135 tabread enumMode;
#X connect 0 0 6 0;
#X connect 1 0 3 0;
#X connect 3 0 2 0;
#X connect 3 0 10 0;
#X connect 3 1 5 0;
#X connect 5 0 4 0;
#X connect 6 0 8 0;
#X connect 6 1 7 1;
#X connect 7 0 12 1;
#X connect 7 0 13 0;
#X connect 8 0 16 0;
#X connect 8 1 9 1;
#X connect 8 2 4 1;
#X connect 9 0 11 0;
#X connect 10 0 9 0;
#X connect 11 0 7 0;
#X connect 11 1 12 0;
#X connect 11 1 13 1;
#X connect 16 0 1 0;
#X restore 55 735 pd double;
#X obj 298 355 t b f;
#X obj 53 40 t b b;
#N canvas 1414 1444 1639 372 InitDoublons 0;
#X obj 103 17 inlet;
#X obj 176 35 bng 15 250 50 0 empty empty empty 17 7 0 10 -262144 -1
-1;
#X obj 1474 233 bng 15 250 50 0 empty empty empty 17 7 0 10 -262144
-1 -1;
#X text 1494 231 reset table to 0s;
#X msg 1193 172 657 716;
#X msg 1487 290 \; enumMode const 0;
#X obj 945 298 s enumMode;
#X obj 1474 329 print reset table;
#X msg 47 130 1387 25;
#X msg 75 185 2774 50;
#X msg 10 153 2741 0.1;
#X msg 132 224 1453 75;
#X msg 137 130 2906 100;
#X msg 170 167 1717 125;
#X msg 228 135 3434 150;
#X msg 243 173 2773 175;
#X msg 270 113 1451 200;
#X msg 322 143 2902 225;
#X msg 290 232 1709 250;
#X msg 369 196 3418 275;
#X msg 375 116 346 26;
#X msg 415 151 692 51;
#X msg 433 117 1384 76;
#X msg 466 179 2768 101;
#X msg 500 143 1441 126;
#X msg 518 277 2882 151;
#X msg 548 187 1669 176;
#X msg 573 119 3338 201;
#X msg 605 156 2581 226;
#X msg 609 215 1067 251;
#X msg 649 107 2134 276;
#X msg 688 133 3506 30;
#X msg 717 157 2917 55;
#X msg 749 110 1739 80;
#X msg 778 137 3478 105;
#X msg 810 108 2861 130;
#X msg 849 140 1627 155;
#X msg 878 106 3254 180;
#X msg 914 131 2413 205;
#X msg 938 156 731 230;
#X msg 963 102 1462 255;
#X msg 992 129 2924 280;
#X msg 1014 156 871 32;
#X msg 1053 103 1742 57;
#X msg 1036 183 3484 82;
#X msg 1121 132 2873 107;
#X msg 1141 104 1651 132;
#X msg 1117 167 3302 157;
#X msg 1188 133 2509 182;
#X msg 1232 106 923 207;
#X msg 1254 145 1846 232;
#X msg 1295 105 3692 257;
#X obj 17 72 t b b b b b b b b b b b b b b b b b b b b b b b b b b
b b b b b b b b b b b b b b b b b b b b b b b b b b b b b b b b, f
229;
#X msg 1270 177 3289 282;
#X msg 1323 133 2458 33;
#X msg 1355 180 821 58;
#X msg 1366 106 1642 83;
#X msg 1390 134 3284 108;
#X msg 1428 178 2473 133;
#X msg 1457 108 851 158;
#X msg 1472 147 1702 183;
#X msg 1501 173 3404 208;
#X msg 1520 107 2713 233;
#X msg 1547 138 1331 258;
#X msg 1576 164 2662 283;
#N canvas 1631 1050 841 300 pentatonique 0;
#X obj 19 8 inlet;
#X obj 15 39 t b b b b b b b b b b b b b b b b b b b, f 84;
#X obj 158 254 outlet;
#X msg 521 87 346 26;
#X msg 561 122 692 51;
#X msg 10 136 1257 24;
#X msg 42 93 2514 49;
#X msg 70 158 933 74;
#X msg 121 194 1866 99;
#X msg 144 102 3732 124;
#X msg 194 141 3369 149;
#X msg 207 79 2643 174;
#X msg 267 148 1191 199;
#X obj 599 81 outlet;
#X msg 282 227 2382 224;
#X msg 309 73 669 249;
#X msg 347 117 1338 274;
#X msg 391 155 2676 299;
#X connect 0 0 1 0;
#X connect 1 0 5 0;
#X connect 1 1 6 0;
#X connect 1 2 7 0;
#X connect 1 3 8 0;
#X connect 1 4 9 0;
#X connect 1 5 10 0;
#X connect 1 6 11 0;
#X connect 1 7 12 0;
#X connect 1 8 14 0;
#X connect 1 9 15 0;
#X connect 1 10 16 0;
#X connect 1 11 17 0;
#X connect 1 18 13 0;
#X connect 5 0 2 0;
#X connect 6 0 2 0;
#X connect 7 0 2 0;
#X connect 8 0 2 0;
#X connect 9 0 2 0;
#X connect 10 0 2 0;
#X connect 11 0 2 0;
#X connect 12 0 2 0;
#X connect 14 0 2 0;
#X connect 15 0 2 0;
#X connect 16 0 2 0;
#X connect 17 0 2 0;
#X restore 1340 276 pd pentatonique;
#X connect 0 0 52 0;
#X connect 2 0 5 0;
#X connect 2 0 7 0;
#X connect 4 0 6 0;
#X connect 8 0 6 0;
#X connect 9 0 6 0;
#X connect 10 0 6 0;
#X connect 11 0 6 0;
#X connect 12 0 6 0;
#X connect 13 0 6 0;
#X connect 14 0 6 0;
#X connect 15 0 6 0;
#X connect 16 0 6 0;
#X connect 17 0 6 0;
#X connect 18 0 6 0;
#X connect 19 0 6 0;
#X connect 20 0 6 0;
#X connect 21 0 6 0;
#X connect 22 0 6 0;
#X connect 23 0 6 0;
#X connect 24 0 6 0;
#X connect 25 0 6 0;
#X connect 26 0 6 0;
#X connect 27 0 6 0;
#X connect 28 0 6 0;
#X connect 29 0 6 0;
#X connect 30 0 6 0;
#X connect 31 0 6 0;
#X connect 32 0 6 0;
#X connect 33 0 6 0;
#X connect 34 0 6 0;
#X connect 35 0 6 0;
#X connect 36 0 6 0;
#X connect 37 0 6 0;
#X connect 38 0 6 0;
#X connect 39 0 6 0;
#X connect 40 0 6 0;
#X connect 41 0 6 0;
#X connect 42 0 6 0;
#X connect 43 0 6 0;
#X connect 44 0 6 0;
#X connect 45 0 6 0;
#X connect 46 0 6 0;
#X connect 47 0 6 0;
#X connect 48 0 6 0;
#X connect 49 0 6 0;
#X connect 50 0 6 0;
#X connect 51 0 6 0;
#X connect 52 0 10 0;
#X connect 52 1 8 0;
#X connect 52 2 9 0;
#X connect 52 3 11 0;
#X connect 52 4 12 0;
#X connect 52 5 13 0;
#X connect 52 6 14 0;
#X connect 52 7 15 0;
#X connect 52 8 16 0;
#X connect 52 9 17 0;
#X connect 52 10 18 0;
#X connect 52 11 19 0;
#X connect 52 12 20 0;
#X connect 52 13 21 0;
#X connect 52 14 22 0;
#X connect 52 15 23 0;
#X connect 52 16 24 0;
#X connect 52 17 25 0;
#X connect 52 18 26 0;
#X connect 52 19 27 0;
#X connect 52 20 28 0;
#X connect 52 21 29 0;
#X connect 52 22 30 0;
#X connect 52 23 31 0;
#X connect 52 24 32 0;
#X connect 52 25 33 0;
#X connect 52 26 34 0;
#X connect 52 27 35 0;
#X connect 52 28 36 0;
#X connect 52 29 37 0;
#X connect 52 30 38 0;
#X connect 52 31 39 0;
#X connect 52 32 40 0;
#X connect 52 33 41 0;
#X connect 52 34 42 0;
#X connect 52 35 43 0;
#X connect 52 36 44 0;
#X connect 52 37 45 0;
#X connect 52 38 46 0;
#X connect 52 39 47 0;
#X connect 52 40 48 0;
#X connect 52 41 49 0;
#X connect 52 42 50 0;
#X connect 52 43 51 0;
#X connect 52 45 53 0;
#X connect 52 46 54 0;
#X connect 52 47 55 0;
#X connect 52 48 56 0;
#X connect 52 49 57 0;
#X connect 52 50 58 0;
#X connect 52 51 59 0;
#X connect 52 52 60 0;
#X connect 52 53 61 0;
#X connect 52 54 62 0;
#X connect 52 55 63 0;
#X connect 52 56 64 0;
#X connect 52 57 65 0;
#X connect 53 0 6 0;
#X connect 54 0 6 0;
#X connect 55 0 6 0;
#X connect 56 0 6 0;
#X connect 57 0 6 0;
#X connect 58 0 6 0;
#X connect 59 0 6 0;
#X connect 60 0 6 0;
#X connect 61 0 6 0;
#X connect 62 0 6 0;
#X connect 63 0 6 0;
#X connect 64 0 6 0;
#X connect 65 0 6 0;
#X connect 65 1 2 0;
#X restore 113 51 pd InitDoublons;
#X obj 271 380 del 1;
#X obj 194 499 del 1;
#X obj 8 386 del 1;
#X obj 64 11 inlet;
#X obj 285 71 s Mode-TypeLoad;
#X obj 302 118 r Mode-Type;
#X obj 162 287 s nMode-TypeLoad;
#X obj 213 324 r Mode-C;
#X obj 379 192 r nMode-Type;
#X floatatom 379 228 5 0 0 0 - - -;
#X obj 161 253 mod 25;
#X obj 158 88 sel 300;
#X connect 0 0 34 0;
#X connect 2 0 3 0;
#X connect 2 0 14 0;
#X connect 3 0 2 1;
#X connect 4 0 9 0;
#X connect 4 1 41 0;
#X connect 5 1 6 0;
#X connect 6 0 2 1;
#X connect 6 0 14 1;
#X connect 8 0 26 0;
#X connect 9 0 10 1;
#X connect 9 1 19 0;
#X connect 10 0 8 1;
#X connect 11 0 28 0;
#X connect 12 0 7 0;
#X connect 13 0 18 0;
#X connect 14 0 4 0;
#X connect 15 0 14 1;
#X connect 16 0 2 0;
#X connect 16 1 15 0;
#X connect 16 2 17 0;
#X connect 17 0 2 1;
#X connect 17 0 20 0;
#X connect 17 0 10 1;
#X connect 17 0 8 1;
#X connect 18 0 24 1;
#X connect 18 0 25 0;
#X connect 19 0 40 0;
#X connect 19 1 20 0;
#X connect 20 0 27 0;
#X connect 22 0 32 0;
#X connect 22 2 8 0;
#X connect 22 3 10 0;
#X connect 23 0 22 0;
#X connect 24 0 22 0;
#X connect 25 0 31 0;
#X connect 27 0 30 0;
#X connect 27 1 18 1;
#X connect 28 0 16 0;
#X connect 28 1 29 0;
#X connect 30 0 13 0;
#X connect 31 0 24 0;
#X connect 32 0 2 0;
#X connect 33 0 28 0;
#X connect 35 0 1 0;
#X connect 37 0 13 1;
#X connect 38 0 39 0;
#X connect 40 0 21 0;
#X connect 40 0 36 0;
#X connect 41 0 5 0;
