#N canvas 2093 946 497 789 12;
#X obj 302 118 r Chord-Type;
#X obj 378 192 r nChord-Type;
#X obj 213 324 r Chord-C;
#X obj 285 71 s Chord-TypeLoad;
#X obj 162 287 s nChord-TypeLoad;
#X msg 309 28 maj;
#X floatatom 376 219 5 0 0 0 - - -;
#X symbolatom 303 158 10 0 0 0 - - -;
#X obj 72 190 i;
#X obj 101 191 + 1;
#X obj 68 268 t f f;
#X obj 157 116 t b b;
#X msg 187 144 0, f 1;
#X obj 314 270 outlet;
#X obj 50 698 pack f f;
#X obj 67 319 t f f;
#X obj 211 677 f;
#X obj 39 15 bng 15 250 50 0 empty empty empty 17 7 0 10 -262144 -1
-1;
#X obj 306 219 del 10;
#X obj 158 88 sel 912;
#X obj 225 413 f;
#X obj 74 225 spigot 0;
#X msg 97 128 1, f 1;
#X obj 75 90 t b b b;
#X msg 117 126 0, f 1;
#X obj 245 498 transpose 0;
#X obj 161 223 t f f;
#X obj 161 253 mod 76;
#N canvas 0 96 883 664 t 0;
#X obj 20 12 inlet;
#X msg 198 72 1, f 2;
#X msg 227 72 2, f 2;
#X msg 255 72 3, f 2;
#X msg 284 72 4, f 2;
#X msg 314 72 5, f 2;
#X msg 344 72 6, f 2;
#X msg 372 72 7, f 2;
#X msg 401 72 8, f 2;
#X msg 431 72 9, f 2;
#X msg 460 72 10, f 2;
#X msg 488 72 11, f 2;
#X msg 517 125 1, f 2;
#X msg 546 125 2, f 2;
#X msg 574 125 3, f 2;
#X msg 603 125 4, f 2;
#X msg 633 125 5, f 2;
#X msg 663 125 6, f 2;
#X msg 691 125 7, f 2;
#X msg 720 125 8, f 2;
#X msg 750 125 9, f 2;
#X msg 779 125 10, f 2;
#X msg 807 125 11, f 2;
#X obj 517 101 sel 75 151 227 303 379 455 531 607 683 759 835;
#X obj 681 245 f;
#X obj 198 48 sel 74 150 226 302 378 454 530 606 682 758 834;
#X obj 82 281 t b;
#X obj 135 309 t b;
#X msg 82 306 0, f 2;
#X obj 195 333 t b;
#X obj 255 358 t b;
#X obj 315 383 t b;
#X obj 375 408 t b;
#X obj 435 433 t b;
#X obj 495 458 t b;
#X obj 555 483 t b;
#X obj 615 508 t b;
#X obj 675 534 t b;
#X msg 135 333 1, f 2;
#X msg 195 358 2, f 2;
#X msg 255 382 3, f 2;
#X msg 315 407 4, f 2;
#X msg 375 432 5, f 2;
#X msg 435 458 6, f 2;
#X msg 495 482 7, f 2;
#X msg 555 508 8, f 2;
#X msg 615 532 9, f 2;
#X msg 675 558 10, f 2;
#X obj 735 554 t b;
#X msg 735 578 11, f 2;
#X obj 319 596 outlet;
#X obj 362 192 f;
#X obj 1178 203 f;
#X obj 579 214 moses 75;
#X obj 632 240 moses 151;
#X obj 692 265 moses 227;
#X obj 752 291 moses 303;
#X obj 812 315 moses 379;
#X obj 872 341 moses 455;
#X obj 932 366 moses 531;
#X obj 992 392 moses 607;
#X obj 1052 418 moses 683;
#X obj 1112 442 moses 759;
#X obj 1172 468 moses 835;
#X obj 579 239 t b;
#X obj 632 267 t b;
#X msg 579 264 0, f 2;
#X obj 692 291 t b;
#X obj 752 316 t b;
#X obj 812 341 t b;
#X obj 872 366 t b;
#X obj 932 391 t b;
#X obj 992 416 t b;
#X obj 1052 441 t b;
#X obj 1112 466 t b;
#X obj 1172 492 t b;
#X msg 632 291 1, f 2;
#X msg 692 316 2, f 2;
#X msg 752 340 3, f 2;
#X msg 812 365 4, f 2;
#X msg 872 390 5, f 2;
#X msg 932 416 6, f 2;
#X msg 992 440 7, f 2;
#X msg 1052 466 8, f 2;
#X msg 1112 490 9, f 2;
#X msg 1172 516 10, f 2;
#X obj 1232 512 t b;
#X msg 1232 536 11, f 2;
#X obj 816 554 f;
#X floatatom 70 374 5 0 0 0 - - -;
#X floatatom 87 167 5 0 0 0 - - -;
#X obj 82 256 moses 77;
#X obj 135 282 moses 153;
#X obj 195 307 moses 229;
#X obj 255 333 moses 305;
#X obj 315 357 moses 381;
#X obj 375 383 moses 457;
#X obj 435 408 moses 533;
#X obj 495 434 moses 609;
#X obj 555 460 moses 685;
#X obj 615 484 moses 761;
#X obj 675 510 moses 837;
#X connect 0 0 91 0;
#X connect 1 0 51 0;
#X connect 2 0 51 0;
#X connect 3 0 51 0;
#X connect 4 0 51 0;
#X connect 5 0 51 0;
#X connect 6 0 51 0;
#X connect 7 0 51 0;
#X connect 8 0 51 0;
#X connect 9 0 51 0;
#X connect 10 0 51 0;
#X connect 11 0 51 0;
#X connect 12 0 24 0;
#X connect 13 0 24 0;
#X connect 14 0 24 0;
#X connect 15 0 24 0;
#X connect 16 0 24 0;
#X connect 17 0 24 0;
#X connect 18 0 24 0;
#X connect 19 0 24 0;
#X connect 20 0 24 0;
#X connect 21 0 24 0;
#X connect 22 0 24 0;
#X connect 23 0 12 0;
#X connect 23 1 13 0;
#X connect 23 2 14 0;
#X connect 23 3 15 0;
#X connect 23 4 16 0;
#X connect 23 5 17 0;
#X connect 23 6 18 0;
#X connect 23 7 19 0;
#X connect 23 8 20 0;
#X connect 23 9 21 0;
#X connect 23 10 22 0;
#X connect 25 0 1 0;
#X connect 25 1 2 0;
#X connect 25 2 3 0;
#X connect 25 3 4 0;
#X connect 25 4 5 0;
#X connect 25 5 6 0;
#X connect 25 6 7 0;
#X connect 25 7 8 0;
#X connect 25 8 9 0;
#X connect 25 9 10 0;
#X connect 25 10 11 0;
#X connect 26 0 28 0;
#X connect 27 0 38 0;
#X connect 28 0 50 0;
#X connect 28 0 89 0;
#X connect 29 0 39 0;
#X connect 30 0 40 0;
#X connect 31 0 41 0;
#X connect 32 0 42 0;
#X connect 33 0 43 0;
#X connect 34 0 44 0;
#X connect 35 0 45 0;
#X connect 36 0 46 0;
#X connect 37 0 47 0;
#X connect 38 0 50 0;
#X connect 38 0 89 0;
#X connect 39 0 50 0;
#X connect 40 0 50 0;
#X connect 41 0 50 0;
#X connect 42 0 50 0;
#X connect 43 0 50 0;
#X connect 44 0 50 0;
#X connect 46 0 50 0;
#X connect 47 0 50 0;
#X connect 48 0 49 0;
#X connect 49 0 50 0;
#X connect 53 0 64 0;
#X connect 53 1 54 0;
#X connect 54 0 65 0;
#X connect 54 1 55 0;
#X connect 55 0 67 0;
#X connect 55 1 56 0;
#X connect 56 0 68 0;
#X connect 56 1 57 0;
#X connect 57 0 69 0;
#X connect 57 1 58 0;
#X connect 58 0 70 0;
#X connect 58 1 59 0;
#X connect 59 0 71 0;
#X connect 59 1 60 0;
#X connect 60 0 72 0;
#X connect 60 1 61 0;
#X connect 61 0 73 0;
#X connect 61 1 62 0;
#X connect 62 0 74 0;
#X connect 62 1 63 0;
#X connect 63 0 75 0;
#X connect 63 1 86 0;
#X connect 64 0 66 0;
#X connect 65 0 76 0;
#X connect 66 0 88 0;
#X connect 67 0 77 0;
#X connect 68 0 78 0;
#X connect 69 0 79 0;
#X connect 70 0 80 0;
#X connect 71 0 81 0;
#X connect 72 0 82 0;
#X connect 73 0 83 0;
#X connect 74 0 84 0;
#X connect 75 0 85 0;
#X connect 76 0 88 0;
#X connect 77 0 88 0;
#X connect 78 0 88 0;
#X connect 79 0 88 0;
#X connect 80 0 88 0;
#X connect 81 0 88 0;
#X connect 82 0 88 0;
#X connect 84 0 88 0;
#X connect 85 0 88 0;
#X connect 86 0 87 0;
#X connect 87 0 88 0;
#X connect 90 0 91 0;
#X connect 91 0 26 0;
#X connect 91 1 92 0;
#X connect 92 0 27 0;
#X connect 92 1 93 0;
#X connect 93 0 29 0;
#X connect 93 1 94 0;
#X connect 94 0 30 0;
#X connect 94 1 95 0;
#X connect 95 0 31 0;
#X connect 95 1 96 0;
#X connect 96 0 32 0;
#X connect 96 1 97 0;
#X connect 97 0 33 0;
#X connect 97 1 98 0;
#X connect 98 0 34 0;
#X connect 98 1 99 0;
#X connect 99 0 35 0;
#X connect 99 1 100 0;
#X connect 100 0 36 0;
#X connect 100 1 101 0;
#X connect 101 0 37 0;
#X connect 101 1 48 0;
#X restore 317 318 pd t;
#X floatatom 127 326 5 0 0 0 - - -;
#X floatatom 103 370 5 0 0 0 - - -;
#X obj 122 639 t b b f b;
#X obj 234 581 change;
#X obj 210 542 f;
#X obj 198 470 t b;
#N canvas 2190 1185 393 486 double 1;
#X obj 49 17 inlet;
#X obj 220 135 tabread enumChord;
#X floatatom 223 171 5 0 0 0 - - -;
#X obj 226 257 bng 15 250 50 0 empty empty empty 17 7 0 10 -262144
-1 -1;
#X obj 223 193 route 0;
#X obj 287 238 f;
#X obj 262 220 bng 15 250 50 0 empty empty empty 17 7 0 10 -262144
-1 -1;
#X obj 5 309 tabwrite enumChord;
#X obj 47 48 unpack f f;
#X obj 58 253 f;
#X obj 198 96 t f f f;
#X obj 57 199 f;
#X obj 69 156 t b;
#X obj 57 222 t b f;
#X obj 289 278 print pass;
#X obj 52 359 pack f f;
#X obj 68 433 print write;
#X connect 0 0 8 0;
#X connect 1 0 2 0;
#X connect 2 0 4 0;
#X connect 4 0 3 0;
#X connect 4 0 12 0;
#X connect 4 1 6 0;
#X connect 6 0 5 0;
#X connect 8 0 10 0;
#X connect 8 1 9 1;
#X connect 9 0 7 0;
#X connect 9 0 15 1;
#X connect 10 0 1 0;
#X connect 10 1 11 1;
#X connect 10 2 5 1;
#X connect 11 0 13 0;
#X connect 12 0 11 0;
#X connect 13 0 9 0;
#X connect 13 1 7 1;
#X connect 13 1 15 0;
#X restore 55 735 pd double;
#X obj 298 355 t b f;
#X obj 53 40 t b b;
#N canvas 1399 1432 1461 372 InitDoublons 0;
#X obj 103 17 inlet;
#X msg 32 173 290 87;
#X obj 946 298 s enumChord;
#X obj 176 35 bng 15 250 50 0 empty empty empty 17 7 0 10 -262144 -1
-1;
#X obj 1389 176 bng 15 250 50 0 empty empty empty 17 7 0 10 -262144
-1 -1;
#X obj 1389 272 print reset table;
#X text 1409 174 reset table to 0s;
#X msg 1402 233 \; enumChord const 0;
#X msg 91 153 545 391;
#X msg 103 185 1090 467;
#X msg 132 224 2180 543;
#X msg 153 137 265 619;
#X msg 170 167 530 695;
#X msg 228 135 1060 771;
#X msg 241 178 2120 847;
#X msg 315 142 289 394;
#X msg 351 173 578 470;
#X msg 395 200 1156 546;
#X msg 426 228 2312 622;
#X msg 431 124 529 698;
#X msg 445 159 1058 774;
#X msg 472 193 2116 850;
#X msg 504 121 581 180;
#X msg 521 152 1162 256;
#X msg 548 187 2324 332;
#X msg 536 229 553 408;
#X msg 596 126 1106 484;
#X msg 605 156 2212 560;
#X msg 609 215 329 636;
#X msg 637 188 658 712;
#X msg 688 133 1316 788;
#X msg 692 159 2632 864;
#X msg 712 190 291 100;
#X msg 704 218 582 176;
#X msg 778 137 1164 252;
#X msg 782 171 2328 328;
#X msg 783 205 561 404;
#X msg 790 238 1122 480;
#X msg 819 110 2244 556;
#X msg 849 140 393 632;
#X msg 868 178 786 708;
#X msg 869 205 1572 784;
#X msg 953 166 3144 860;
#X msg 1017 136 549 184;
#X msg 979 191 1098 260;
#X msg 1032 161 2196 336;
#X msg 1121 132 297 412;
#X msg 1121 165 594 488;
#X msg 1095 239 1188 564;
#X msg 1157 207 2376 640;
#X msg 1193 172 657 716;
#X obj 17 79 t b b b b b b b b b b b b b b b b b b b b b b b b b b
b b b b b b b b b b b b b b b b b b b b b, f 196;
#X msg 1254 145 1314 792;
#X msg 1270 177 2628 868;
#X connect 0 0 51 0;
#X connect 1 0 2 0;
#X connect 4 0 7 0;
#X connect 4 0 5 0;
#X connect 8 0 2 0;
#X connect 9 0 2 0;
#X connect 10 0 2 0;
#X connect 11 0 2 0;
#X connect 12 0 2 0;
#X connect 13 0 2 0;
#X connect 14 0 2 0;
#X connect 15 0 2 0;
#X connect 16 0 2 0;
#X connect 17 0 2 0;
#X connect 18 0 2 0;
#X connect 19 0 2 0;
#X connect 20 0 2 0;
#X connect 21 0 2 0;
#X connect 22 0 2 0;
#X connect 23 0 2 0;
#X connect 24 0 2 0;
#X connect 25 0 2 0;
#X connect 26 0 2 0;
#X connect 27 0 2 0;
#X connect 28 0 2 0;
#X connect 29 0 2 0;
#X connect 30 0 2 0;
#X connect 31 0 2 0;
#X connect 32 0 2 0;
#X connect 33 0 2 0;
#X connect 34 0 2 0;
#X connect 35 0 2 0;
#X connect 36 0 2 0;
#X connect 37 0 2 0;
#X connect 38 0 2 0;
#X connect 39 0 2 0;
#X connect 40 0 2 0;
#X connect 41 0 2 0;
#X connect 42 0 2 0;
#X connect 43 0 2 0;
#X connect 44 0 2 0;
#X connect 45 0 2 0;
#X connect 46 0 2 0;
#X connect 47 0 2 0;
#X connect 48 0 2 0;
#X connect 49 0 2 0;
#X connect 50 0 2 0;
#X connect 51 0 1 0;
#X connect 51 1 8 0;
#X connect 51 2 9 0;
#X connect 51 3 10 0;
#X connect 51 4 11 0;
#X connect 51 5 12 0;
#X connect 51 6 13 0;
#X connect 51 7 14 0;
#X connect 51 8 15 0;
#X connect 51 9 16 0;
#X connect 51 10 17 0;
#X connect 51 11 18 0;
#X connect 51 12 19 0;
#X connect 51 13 20 0;
#X connect 51 14 21 0;
#X connect 51 15 22 0;
#X connect 51 16 23 0;
#X connect 51 17 24 0;
#X connect 51 18 25 0;
#X connect 51 19 26 0;
#X connect 51 20 27 0;
#X connect 51 21 28 0;
#X connect 51 22 29 0;
#X connect 51 23 30 0;
#X connect 51 24 31 0;
#X connect 51 25 32 0;
#X connect 51 26 33 0;
#X connect 51 27 34 0;
#X connect 51 28 35 0;
#X connect 51 29 36 0;
#X connect 51 30 37 0;
#X connect 51 31 38 0;
#X connect 51 32 39 0;
#X connect 51 33 40 0;
#X connect 51 34 41 0;
#X connect 51 35 42 0;
#X connect 51 36 43 0;
#X connect 51 37 44 0;
#X connect 51 38 45 0;
#X connect 51 39 46 0;
#X connect 51 40 47 0;
#X connect 51 41 48 0;
#X connect 51 42 49 0;
#X connect 51 43 50 0;
#X connect 51 44 52 0;
#X connect 51 45 53 0;
#X connect 51 46 4 0;
#X connect 52 0 2 0;
#X connect 53 0 2 0;
#X restore 113 51 pd InitDoublons;
#X obj 271 380 del 1;
#X obj 194 499 del 1;
#X obj 8 386 del 1;
#X obj 64 11 inlet;
#X connect 0 0 7 0;
#X connect 1 0 6 0;
#X connect 2 0 20 1;
#X connect 5 0 3 0;
#X connect 8 0 9 0;
#X connect 8 0 21 0;
#X connect 9 0 8 1;
#X connect 10 0 15 0;
#X connect 10 1 19 0;
#X connect 11 1 12 0;
#X connect 12 0 8 1;
#X connect 12 0 21 1;
#X connect 14 0 35 0;
#X connect 15 0 16 1;
#X connect 15 1 26 0;
#X connect 16 0 14 1;
#X connect 17 0 37 0;
#X connect 18 0 13 0;
#X connect 19 0 11 0;
#X connect 20 0 25 0;
#X connect 21 0 10 0;
#X connect 22 0 21 1;
#X connect 23 0 8 0;
#X connect 23 1 22 0;
#X connect 23 2 24 0;
#X connect 24 0 8 1;
#X connect 24 0 28 0;
#X connect 24 0 16 1;
#X connect 24 0 14 1;
#X connect 25 0 33 1;
#X connect 25 0 34 0;
#X connect 26 0 27 0;
#X connect 26 1 28 0;
#X connect 27 0 4 0;
#X connect 27 0 29 0;
#X connect 28 0 36 0;
#X connect 31 0 41 0;
#X connect 31 2 14 0;
#X connect 31 3 16 0;
#X connect 32 0 31 0;
#X connect 33 0 31 0;
#X connect 34 0 40 0;
#X connect 36 0 39 0;
#X connect 36 1 25 1;
#X connect 37 0 23 0;
#X connect 37 1 38 0;
#X connect 39 0 20 0;
#X connect 40 0 33 0;
#X connect 41 0 8 0;
#X connect 42 0 37 0;
