#N struct 3900-symarray float x array symbols 3900-sym;
#N struct 3900-sym symbol name float on;
#N canvas 228 876 767 566 10;
#X obj 1 17 cnv 11 89 42 empty \$0-canvas empty 34 12 1 14 -261234
-16662 0;
#X obj 1 40 vsl 11 16 0 127 0 0 \$0-s0-snd \$0-s0-rcv empty 0 -9 0
10 -260818 -260818 -262144 0 0;
#X obj 14 40 vsl 11 16 0 127 0 0 \$0-s2-snd \$0-s2-rcv empty 0 -9 0
10 -260818 -260818 -262144 0 0;
#X obj 27 40 vsl 11 16 0 127 0 0 \$0-s4-snd \$0-s4-rcv empty 0 -9 0
10 -260818 -260818 -262144 0 1;
#X obj 40 40 vsl 11 16 0 127 0 0 \$0-s5-snd \$0-s5-rcv empty 0 -9 0
10 -260818 -260818 -262144 0 1;
#X obj 53 40 vsl 11 16 0 127 0 0 \$0-s7-snd \$0-s7-rcv empty 0 -9 0
10 -260818 -260818 -262144 0 1;
#X obj 66 40 vsl 11 16 0 127 0 0 \$0-s9-snd \$0-s9-rcv empty 0 -9 0
10 -260818 -260818 -262144 0 1;
#X obj 79 40 vsl 11 16 0 127 0 0 \$0-s11-snd \$0-s11-rcv empty 0 -9
0 10 -260818 -260818 -262144 0 1;
#X obj 7 18 vsl 11 16 0 127 0 0 \$0-s1-snd \$0-s1-rcv empty 0 -9 0
10 -1 -1 -233017 0 0;
#X obj 21 18 vsl 11 16 0 127 0 0 \$0-s3-snd \$0-s3-rcv empty 0 -9 0
10 -1 -1 -233017 0 1;
#X obj 46 18 vsl 11 16 0 127 0 0 \$0-s6-snd \$0-s6-rcv empty 0 -9 0
10 -1 -1 -233017 0 1;
#X obj 60 18 vsl 11 16 0 127 0 0 \$0-s8-snd \$0-s8-rcv empty 0 -9 0
10 -1 -1 -233017 0 0;
#X obj 74 18 vsl 11 16 0 127 0 0 \$0-s10-snd \$0-s10-rcv empty 0 -9
0 10 -1 -1 -233017 0 0;
#X msg 400 22 reduire;
#X obj 400 66 s \$0-self;
#X obj 456 20 namecanvas \$0-self;
#X msg 400 45 donecanvasdialog 1 -1 1 \, donecanvasdialog 1 -1 0 \,
dirty 0;
#X obj 144 93 _GAMME_COMMON \$1 \$0 \$2;
#X obj 257 304 route list;
#X symbolatom 1 61 0 0 0 0 - #0-TypeM-rcv #0-TypeM-snd;
#X obj 264 379 print dump;
#X msg 248 257 dump;
#X msg 285 261 print;
#X msg 288 140 28;
#X obj 78 487 print;
#X obj 171 340 s \$0-s-rcv;
#X obj 532 255 r \$1;
#X floatatom 532 282 5 0 0 0 - - -;
#X msg 171 316 \$1 bang;
#X obj 261 229 s \$1;
#X msg 261 208 1;
#X msg 231 153 52;
#X obj 234 186 t f b;
#X floatatom 216 129 5 0 0 0 - - -;
#X text 316 140 7;
#X msg 288 114 14;
#X text 314 111 mineur;
#X msg 295 189 32;
#X text 321 186 mineur7;
#X obj 283 425 tgl 15 0 empty empty empty 17 7 0 10 -262144 -1 -1 0
1;
#X obj 276 476 i;
#X obj 306 476 + 1;
#X floatatom 156 61 2 0 0 0 - #0-nType-rcv #0-nType-snd;
#X obj 276 449 metro 500;
#X msg 337 448 0;
#X obj 183 63 bng 15 250 50 0 \$0---snd \$0---rcv - 4 -5 0 10 -4032
-1 -1;
#X obj 203 63 bng 15 250 50 0 \$0-+-snd \$0-+-rcv + 4 -5 0 10 -4034
-1 -1;
#X obj 39 269 s \$0-nType-rcv;
#X obj 141 140 r \$0-+-snd;
#X obj 141 185 i;
#X obj 141 163 t b b;
#X obj 168 185 + 1;
#X obj 55 180 i;
#X obj 55 158 t b b;
#X obj 82 180 - 1;
#X obj 55 135 r \$0---snd;
#X obj 79 210 + 1;
#X obj 141 215 - 1;
#X obj 171 291 m_modedict2;
#X obj 286 355 s \$0-TypeM-rcv;
#X obj 71 308 mod 25;
#X msg 286 85 0;
#X text 310 86 Ionian;
#X obj 333 51 loadbang;
#X text 316 160 majeur7;
#X msg 290 163 7;
#X obj 462 305 s Mode-C;
#X obj 374 338 s Mode-Type;
#X obj 31 393 s nMode-Type;
#X obj 82 107 r +Mode;
#X obj 11 110 r -Mode;
#X obj 404 101 r nMode-TypeLoad;
#X obj 405 364 list trim;
#X msg 500 204 set \$1 \$2;
#X obj 349 228 loadbang;
#X floatatom 153 454 5 0 0 0 - - -;
#X msg 545 228 24 Pentatonic;
#X symbolatom 336 304 10 0 0 0 - - -;
#X obj 343 396 print;
#X obj 470 458 text define -k enumModeSym;
#A set 0 Ionian \; 1 AscendingMelodicMinorAmm \; 2 HarmonicMinorHmin
\; 3 HarmonicMajorHmaj \; 4 WnnWnn \; 5 HungarianMajor1 \; 6 NeapolitanMajorNmaj
\; 7 DoubleHarmonic1Dh1 \; 8 HungarianMinor1Dh2 \; 9 DoubleHarmonic3Dh3
\; 10 DoubleHarmonic4Dh4 \; 11 PersianDh5 \; 12 DoubleHarmonic6Dh6
\; 13 E1e1 \; 14 E2e2 \; 15 NeapolitanMinorE3 \; 16 E4e4 \; 17 E5e5
\; 18 E6e6 \; 19 E7e7 \; 20 E8e8 \; 21 E9e9 \; 22 E10e10 \; 23 E11e11
\; 24 Pentatonic \;;
#X msg 483 417 read enumModeSym.txt;
#X obj 565 379 loadbang;
#X msg 424 424 clear;
#X symbolatom 563 134 10 0 0 0 - - -;
#X obj 550 113 r Mode-TypeLoadSym;
#X msg 177 255 Ionian;
#X obj 457 138 r Gsymbol;
#X symbolatom 426 203 10 0 0 0 - - -;
#N canvas 0 96 450 300 cores 0;
#X obj 76 43 inlet;
#X obj 99 159 sel Ionian;
#X msg 98 192 0;
#X obj 88 238 outlet;
#X obj 154 227 bng 15 250 50 0 empty empty empty 17 7 0 10 -262144
-1 -1;
#X connect 0 0 1 0;
#X connect 1 0 2 0;
#X connect 1 0 4 0;
#X connect 2 0 3 0;
#X restore 457 173 pd cores;
#X connect 13 0 16 0;
#X connect 16 0 14 0;
#X connect 18 0 72 0;
#X connect 18 1 59 0;
#X connect 18 1 67 0;
#X connect 18 1 77 0;
#X connect 21 0 58 1;
#X connect 22 0 58 1;
#X connect 23 0 32 0;
#X connect 26 0 27 0;
#X connect 26 0 66 0;
#X connect 28 0 25 0;
#X connect 30 0 29 0;
#X connect 31 0 32 0;
#X connect 32 0 58 1;
#X connect 32 0 47 0;
#X connect 32 1 30 0;
#X connect 33 0 32 0;
#X connect 35 0 32 0;
#X connect 37 0 32 0;
#X connect 39 0 43 0;
#X connect 40 0 41 0;
#X connect 40 0 60 0;
#X connect 41 0 40 1;
#X connect 43 0 40 0;
#X connect 44 0 40 0;
#X connect 48 0 50 0;
#X connect 49 0 51 0;
#X connect 49 0 57 0;
#X connect 49 0 60 0;
#X connect 50 0 49 0;
#X connect 51 0 49 1;
#X connect 52 0 54 0;
#X connect 52 0 56 0;
#X connect 52 0 60 0;
#X connect 53 0 52 0;
#X connect 54 0 52 1;
#X connect 55 0 53 0;
#X connect 56 0 49 1;
#X connect 57 0 52 1;
#X connect 58 0 28 0;
#X connect 58 1 18 0;
#X connect 60 0 32 0;
#X connect 60 0 68 0;
#X connect 60 0 75 0;
#X connect 61 0 32 0;
#X connect 63 0 61 0;
#X connect 65 0 32 0;
#X connect 69 0 46 0;
#X connect 70 0 45 0;
#X connect 71 0 32 0;
#X connect 73 0 76 0;
#X connect 74 0 21 0;
#X connect 80 0 79 0;
#X connect 81 0 80 0;
#X connect 82 0 79 0;
#X connect 84 0 83 0;
#X connect 85 0 58 0;
#X connect 86 0 87 0;
#X connect 86 0 88 0;
#X coords 0 -1 1 1 220 80 1 0 0;
