#N struct 3811-symarray float x array symbols 3811-sym;
#N struct 3811-sym symbol name float on;
#N canvas 566 218 558 575 10;
#X obj 1 17 cnv 11 89 42 empty \$0-canvas empty 34 12 1 14 -261234
-16662 0;
#X obj 1 40 vsl 11 16 0 127 0 0 \$0-s0-snd \$0-s0-rcv empty 0 -9 0
10 -260818 -260818 -262144 0 0;
#X obj 14 40 vsl 11 16 0 127 0 0 \$0-s2-snd \$0-s2-rcv empty 0 -9 0
10 -262144 -262144 -233017 0 0;
#X obj 27 40 vsl 11 16 0 127 0 0 \$0-s4-snd \$0-s4-rcv empty 0 -9 0
10 -260818 -260818 -262144 0 1;
#X obj 40 40 vsl 11 16 0 127 0 0 \$0-s5-snd \$0-s5-rcv empty 0 -9 0
10 -262144 -262144 -233017 0 1;
#X obj 53 40 vsl 11 16 0 127 0 0 \$0-s7-snd \$0-s7-rcv empty 0 -9 0
10 -260818 -260818 -262144 0 1;
#X obj 66 40 vsl 11 16 0 127 0 0 \$0-s9-snd \$0-s9-rcv empty 0 -9 0
10 -262144 -262144 -233017 0 1;
#X obj 79 40 vsl 11 16 0 127 0 0 \$0-s11-snd \$0-s11-rcv empty 0 -9
0 10 -262144 -262144 -233017 0 1;
#X obj 7 18 vsl 11 16 0 127 0 0 \$0-s1-snd \$0-s1-rcv empty 0 -9 0
10 -1 -1 -233017 0 0;
#X obj 21 18 vsl 11 16 0 127 0 0 \$0-s3-snd \$0-s3-rcv empty 0 -9 0
10 -1 -1 -233017 0 1;
#X obj 46 18 vsl 11 16 0 127 0 0 \$0-s6-snd \$0-s6-rcv empty 0 -9 0
10 -1 -1 -233017 0 1;
#X obj 60 18 vsl 11 16 0 127 0 0 \$0-s8-snd \$0-s8-rcv empty 0 -9 0
10 -1 -1 -233017 0 0;
#X obj 74 18 vsl 11 16 0 127 0 0 \$0-s10-snd \$0-s10-rcv empty 0 -9
0 10 -1 -1 -233017 0 0;
#X msg 145 17 reduire;
#X obj 145 61 s \$0-self;
#X obj 201 15 namecanvas \$0-self;
#X msg 145 40 donecanvasdialog 1 -1 1 \, donecanvasdialog 1 -1 0 \,
dirty 0;
#X obj 144 93 _GAMME_COMMON \$1 \$0 \$2;
#X obj 234 315 route list;
#X symbolatom 1 61 10 0 0 0 - #0-Type-rcv #0-Type-snd;
#X obj 254 360 print dump;
#X msg 248 257 dump;
#X msg 285 261 print;
#X msg 288 140 28;
#X obj 78 487 print;
#X obj 171 340 s \$0-s-rcv;
#X obj 394 271 r \$1;
#X floatatom 394 298 5 0 0 0 - - -;
#X msg 171 316 \$1 bang;
#X obj 261 229 s \$1;
#X msg 286 85 11;
#X msg 261 208 1;
#X msg 231 153 52;
#X obj 234 186 t f b;
#X floatatom 216 129 5 0 0 0 - - -;
#X text 311 83 majeur;
#X text 316 140 7;
#X msg 288 114 14;
#X text 314 111 mineur;
#X msg 295 165 32;
#X text 321 162 mineur7;
#X obj 283 425 tgl 15 0 empty empty empty 17 7 0 10 -262144 -1 -1 0
1;
#X obj 290 488 i;
#X obj 320 488 + 1;
#X obj 71 308 mod 78;
#X floatatom 76 61 2 0 0 0 - #0-nType-rcv #0-nType-snd;
#X obj 276 449 metro 500;
#X obj 171 291 m_chorddict2;
#X msg 337 448 0;
#X obj 103 63 bng 15 250 50 0 \$0---snd \$0---rcv - 4 -5 0 10 -4032
-1 -1;
#X obj 123 63 bng 15 250 50 0 \$0-+-snd \$0-+-rcv + 4 -5 0 10 -4034
-1 -1;
#X obj 293 339 s \$0-Type-rcv;
#X obj 39 382 s \$0-nType-rcv;
#X obj -36 104 r \$0---snd;
#X obj 141 140 r \$0-+-snd;
#X obj 141 185 i;
#X obj 141 163 t b b;
#X obj 168 185 + 1;
#X obj 55 180 i;
#X obj 55 158 t b b;
#X obj 82 180 - 1;
#X obj 55 135 r \$0---snd;
#X obj 79 210 + 1;
#X obj 141 215 - 1;
#X obj 376 63 loadbang;
#X connect 13 0 16 0;
#X connect 16 0 14 0;
#X connect 18 0 20 0;
#X connect 18 1 51 0;
#X connect 21 0 47 1;
#X connect 22 0 47 1;
#X connect 23 0 33 0;
#X connect 26 0 27 0;
#X connect 28 0 25 0;
#X connect 30 0 33 0;
#X connect 31 0 29 0;
#X connect 32 0 33 0;
#X connect 33 0 47 1;
#X connect 33 1 31 0;
#X connect 34 0 33 0;
#X connect 37 0 33 0;
#X connect 39 0 33 0;
#X connect 41 0 46 0;
#X connect 42 0 43 0;
#X connect 42 0 44 0;
#X connect 43 0 42 1;
#X connect 44 0 33 0;
#X connect 44 0 52 0;
#X connect 46 0 42 0;
#X connect 47 0 28 0;
#X connect 47 1 18 0;
#X connect 48 0 42 0;
#X connect 54 0 56 0;
#X connect 55 0 57 0;
#X connect 55 0 63 0;
#X connect 55 0 44 0;
#X connect 56 0 55 0;
#X connect 57 0 55 1;
#X connect 58 0 60 0;
#X connect 58 0 62 0;
#X connect 58 0 44 0;
#X connect 59 0 58 0;
#X connect 60 0 58 1;
#X connect 61 0 59 0;
#X connect 62 0 55 1;
#X connect 63 0 58 1;
#X connect 64 0 30 0;
#X coords 0 -1 1 1 140 80 1 0 0;
