#N canvas 1945 92 398 823 12;
#X obj 10 59 vsl 15 128 0 1 0 0 \$3-1-snd \$3-1-rcv empty 0 -9 0 10
-262144 -1 -1 12700 1;
#X obj 30 59 vsl 15 128 0 1 0 0 \$3-2-snd \$3-2-rcv empty 0 -9 0 10
-262144 -1 -1 12700 1;
#X obj 50 59 vsl 15 128 0 1 0 0 \$3-3-snd \$3-3-rcv empty 0 -9 0 10
-262144 -1 -1 12700 1;
#X obj 70 59 vsl 15 128 0 1 0 0 \$3-4-snd \$3-4-rcv empty 0 -9 0 10
-262144 -1 -1 12700 1;
#X obj 90 59 vsl 15 128 0 1 0 0 \$3-5-snd \$3-5-rcv empty 0 -9 0 10
-262144 -1 -1 12700 1;
#X obj 110 59 vsl 15 128 0 1 0 0 \$3-6-snd \$3-6-rcv empty 0 -9 0 10
-262144 -1 -1 4826 1;
#X obj 130 59 vsl 15 128 0 1 0 0 \$3-7-snd \$3-7-rcv empty 0 -9 0 10
-262144 -1 -1 5461 1;
#X obj 150 59 vsl 15 128 0 1 0 0 \$3-8-snd \$3-8-rcv empty 0 -9 0 10
-262144 -1 -1 9271 1;
#X obj 11 717 pack f f f f f f f f, f 48;
#X obj 26 481 t b f;
#X obj 74 510 t b f;
#X obj 121 539 t b f;
#X obj 169 567 t b f;
#X obj 216 596 t b f;
#X obj 264 626 t b f;
#X obj 312 656 t b f;
#X obj 11 750 outlet;
#X obj 10 198 maxlib/scale 0 1 \$1 \$2;
#X obj 30 228 maxlib/scale 0 1 \$1 \$2;
#X obj 50 258 maxlib/scale 0 1 \$1 \$2;
#X obj 70 288 maxlib/scale 0 1 \$1 \$2;
#X obj 90 318 maxlib/scale 0 1 \$1 \$2;
#X obj 110 348 maxlib/scale 0 1 \$1 \$2;
#X obj 130 378 maxlib/scale 0 1 \$1 \$2;
#X obj 150 408 maxlib/scale 0 1 \$1 \$2;
#X obj 202 84 loadbang;
#X msg 202 109 1;
#X obj 147 36 bng 15 250 50 0 \$3-bang-snd \$3-bang-rcv empty 17 7
0 10 -262144 -1 -1;
#X connect 0 0 17 0;
#X connect 1 0 18 0;
#X connect 2 0 19 0;
#X connect 3 0 20 0;
#X connect 4 0 21 0;
#X connect 5 0 22 0;
#X connect 6 0 23 0;
#X connect 7 0 24 0;
#X connect 8 0 16 0;
#X connect 9 0 8 0;
#X connect 9 1 8 1;
#X connect 10 0 8 0;
#X connect 10 1 8 2;
#X connect 11 0 8 0;
#X connect 11 1 8 3;
#X connect 12 0 8 0;
#X connect 12 1 8 4;
#X connect 13 0 8 0;
#X connect 13 1 8 5;
#X connect 14 0 8 0;
#X connect 14 1 8 6;
#X connect 15 0 8 0;
#X connect 15 1 8 7;
#X connect 17 0 8 0;
#X connect 18 0 9 0;
#X connect 19 0 10 0;
#X connect 20 0 11 0;
#X connect 21 0 12 0;
#X connect 22 0 13 0;
#X connect 23 0 14 0;
#X connect 24 0 15 0;
#X connect 25 0 26 0;
#X connect 26 0 0 0;
#X connect 26 0 1 0;
#X connect 26 0 2 0;
#X connect 26 0 3 0;
#X connect 26 0 4 0;
#X connect 26 0 5 0;
#X connect 26 0 6 0;
#X connect 26 0 7 0;
#X connect 27 0 26 0;
#X coords 0 -1 1 1 155 180 1 10 10;
