#N canvas 2329 92 398 823 12;
#X obj 10 39 vsl 15 128 0 1 0 0 empty empty empty 0 -9 0 10 -262144
-1 -1 8000 1;
#X obj 30 39 vsl 15 128 0 1 0 0 empty empty empty 0 -9 0 10 -262144
-1 -1 8100 1;
#X obj 50 39 vsl 15 128 0 1 0 0 empty empty empty 0 -9 0 10 -262144
-1 -1 6500 1;
#X obj 70 39 vsl 15 128 0 1 0 0 empty empty empty 0 -9 0 10 -262144
-1 -1 9000 1;
#X obj 90 39 vsl 15 128 0 1 0 0 empty empty empty 0 -9 0 10 -262144
-1 -1 8700 1;
#X obj 110 39 vsl 15 128 0 1 0 0 empty empty empty 0 -9 0 10 -262144
-1 -1 7600 1;
#X obj 130 39 vsl 15 128 0 1 0 0 empty empty empty 0 -9 0 10 -262144
-1 -1 9800 1;
#X obj 150 39 vsl 15 128 0 1 0 0 empty empty empty 0 -9 0 10 -262144
-1 -1 7800 1;
#X obj 11 697 pack f f f f f f f f, f 48;
#X obj 26 461 t b f;
#X obj 74 490 t b f;
#X obj 121 519 t b f;
#X obj 169 547 t b f;
#X obj 216 576 t b f;
#X obj 264 606 t b f;
#X obj 312 636 t b f;
#X obj 11 730 outlet;
#X obj 10 178 maxlib/scale 0 1 \$1 \$2;
#X obj 30 208 maxlib/scale 0 1 \$1 \$2;
#X obj 50 238 maxlib/scale 0 1 \$1 \$2;
#X obj 70 268 maxlib/scale 0 1 \$1 \$2;
#X obj 90 298 maxlib/scale 0 1 \$1 \$2;
#X obj 110 328 maxlib/scale 0 1 \$1 \$2;
#X obj 130 358 maxlib/scale 0 1 \$1 \$2;
#X obj 150 388 maxlib/scale 0 1 \$1 \$2;
#X obj 202 64 loadbang;
#X msg 202 89 1;
#X obj 147 16 bng 15 250 50 0 empty empty empty 17 7 0 10 -262144 -1
-1;
#X connect 0 0 17 0;
#X connect 1 0 18 0;
#X connect 2 0 19 0;
#X connect 3 0 20 0;
#X connect 4 0 21 0;
#X connect 5 0 22 0;
#X connect 6 0 23 0;
#X connect 7 0 24 0;
#X connect 8 0 16 0;
#X connect 9 0 8 0;
#X connect 9 1 8 1;
#X connect 10 0 8 0;
#X connect 10 1 8 2;
#X connect 11 0 8 0;
#X connect 11 1 8 3;
#X connect 12 0 8 0;
#X connect 12 1 8 4;
#X connect 13 0 8 0;
#X connect 13 1 8 5;
#X connect 14 0 8 0;
#X connect 14 1 8 6;
#X connect 15 0 8 0;
#X connect 15 1 8 7;
#X connect 17 0 8 0;
#X connect 18 0 9 0;
#X connect 19 0 10 0;
#X connect 20 0 11 0;
#X connect 21 0 12 0;
#X connect 22 0 13 0;
#X connect 23 0 14 0;
#X connect 24 0 15 0;
#X connect 25 0 26 0;
#X connect 26 0 0 0;
#X connect 26 0 1 0;
#X connect 26 0 2 0;
#X connect 26 0 3 0;
#X connect 26 0 4 0;
#X connect 26 0 5 0;
#X connect 26 0 6 0;
#X connect 26 0 7 0;
#X connect 27 0 26 0;
#X coords 0 -1 1 1 155 160 1 10 10;
