#N canvas 830 109 450 300 10;
#X obj 28 10 inlet;
#X obj 28 33 t a a;
#X obj 55 56 pofcolor 0.4 0.5 0.5 1;
#X obj 28 164 poftexts typo 18;
#X obj 55 100 loadbang;
#X msg 55 122 text Check for Updates \, width 125;
#X floatatom 108 31 5 0 0 0 - - -;
#X floatatom 148 31 5 0 0 0 - - -;
#X obj 55 78 cadreVec 138 55;
#X obj 28 185 poftouch 138 55;
#X obj 115 207 route down;
#X obj 79 233 bng 15 250 50 0 empty empty empty 17 7 0 10 -262144 -1
-1;
#N canvas 1 82 450 300 request_last_version 1;
#X obj 42 16 inlet;
#X restore 115 231 pd request_last_version;
#X connect 0 0 1 0;
#X connect 1 0 3 0;
#X connect 1 1 2 0;
#X connect 2 0 8 0;
#X connect 3 0 9 0;
#X connect 4 0 5 0;
#X connect 5 0 3 0;
#X connect 6 0 8 1;
#X connect 7 0 8 2;
#X connect 9 1 10 0;
#X connect 10 0 11 0;
#X connect 10 0 12 0;
