#N canvas 944 99 796 280 10;
#X obj 28 10 inlet;
#X obj 55 78 pofcolor 0.4 0.5 0.5 1;
#X obj 28 236 poftexts typo 18;
#X obj 50 189 loadbang;
#X msg 50 211 text Check for Updates \, width 125;
#X floatatom 97 100 5 0 0 0 - - -;
#X floatatom 137 100 5 0 0 0 - - -;
#X obj 55 120 cadreVec 138 55;
#X obj 55 55 poftouch 138 55, f 26;
#X obj 208 77 route down;
#N canvas 486 158 530 522 request_last_version 0;
#X obj 49 27 inlet;
#X obj 49 121 pofjson \$0-catalog;
#X msg 49 62 load https://home.scape.eu.org/api/items/4;
#X obj 49 168 bng 15 250 50 0 empty empty empty 17 7 0 10 -262144 -1
-1;
#X msg 75 91 getsize o:media;
#X obj 98 184 sel 0;
#X floatatom 98 162 5 0 0 0 - - -;
#X obj 125 204 - 1;
#X text 123 220 get latest;
#X obj 287 251 print;
#X obj 49 142 route loaded float symbol;
#X symbolatom 200 186 0 0 0 0 - - -;
#X obj 200 229 pofjson \$0-update;
#X msg 200 207 load \$1;
#X obj 216 164 bng 15 250 50 0 empty empty empty 17 7 0 10 -262144
-1 -1;
#X obj 200 250 route loaded;
#X symbolatom 269 277 10 0 0 0 - - -;
#N canvas 1075 127 616 700 compare_version 0;
#X obj 41 27 inlet;
#X obj 289 26 inlet;
#X obj 41 51 list fromsymbol;
#X obj 64 103 list split 1;
#X obj 104 127 t a;
#X obj 41 78 t b a b;
#X obj 64 155 sel 46;
#X obj 64 179 32;
#X obj 64 228 t a;
#X msg 161 103 list;
#X obj 41 256 list;
#X obj 41 281 fudiparse;
#X obj 64 203 list append;
#X obj 289 52 list fromsymbol;
#X obj 312 104 list split 1;
#X obj 352 128 t a;
#X obj 289 79 t b a b;
#X obj 312 156 sel 46;
#X obj 312 180 32;
#X obj 312 229 t a;
#X msg 409 104 list;
#X obj 289 257 list;
#X obj 289 282 fudiparse;
#X obj 312 204 list append;
#X obj 41 306 t a a;
#X obj 73 331 list length;
#X obj 41 361 list prepend;
#X msg 79 415 \$1 0 0;
#X msg 132 415 \$1 \$2 0;
#X msg 193 415 0 0 0;
#X obj 41 449 t a;
#X obj 41 385 route 3 1 2, f 17;
#X obj 289 306 t a a;
#X obj 321 331 list length;
#X obj 289 361 list prepend;
#X msg 327 415 \$1 0 0;
#X msg 380 415 \$1 \$2 0;
#X msg 441 415 0 0 0;
#X obj 289 449 t a;
#X obj 289 385 route 3 1 2, f 17;
#X obj 41 473 unpack f f f;
#X obj 289 472 unpack f f f;
#X obj 41 516 -;
#X obj 41 564 moses 0;
#X msg 41 588 -1;
#X obj 99 564 sel 0;
#X msg 131 588 1;
#X obj 207 518 -;
#X obj 189 541 f;
#X obj 352 514 -;
#X obj 334 537 f;
#X obj 189 563 moses 0;
#X msg 189 587 -1;
#X obj 247 563 sel 0;
#X msg 279 587 1;
#X obj 334 560 moses 0;
#X msg 334 584 -1;
#X obj 392 560 sel 0;
#X msg 424 584 1;
#X msg 390 585 0;
#X obj 189 636 f;
#X floatatom 242 661 5 0 0 0 - - -;
#X msg 95 27 symbol 0.1.1;
#X msg 356 26 symbol 0.1.3;
#X obj 189 660 outlet;
#X connect 0 0 2 0;
#X connect 1 0 13 0;
#X connect 2 0 5 0;
#X connect 3 0 6 0;
#X connect 3 1 4 0;
#X connect 4 0 3 0;
#X connect 5 0 10 0;
#X connect 5 1 3 0;
#X connect 5 2 9 0;
#X connect 6 0 7 0;
#X connect 6 1 12 0;
#X connect 7 0 12 0;
#X connect 8 0 10 1;
#X connect 8 0 12 1;
#X connect 9 0 8 0;
#X connect 10 0 11 0;
#X connect 11 0 24 0;
#X connect 12 0 8 0;
#X connect 13 0 16 0;
#X connect 14 0 17 0;
#X connect 14 1 15 0;
#X connect 15 0 14 0;
#X connect 16 0 21 0;
#X connect 16 1 14 0;
#X connect 16 2 20 0;
#X connect 17 0 18 0;
#X connect 17 1 23 0;
#X connect 18 0 23 0;
#X connect 19 0 21 1;
#X connect 19 0 23 1;
#X connect 20 0 19 0;
#X connect 21 0 22 0;
#X connect 22 0 32 0;
#X connect 23 0 19 0;
#X connect 24 0 26 0;
#X connect 24 1 25 0;
#X connect 25 0 26 1;
#X connect 26 0 31 0;
#X connect 27 0 30 0;
#X connect 28 0 30 0;
#X connect 29 0 30 0;
#X connect 30 0 40 0;
#X connect 31 0 30 0;
#X connect 31 1 27 0;
#X connect 31 2 28 0;
#X connect 31 3 29 0;
#X connect 32 0 34 0;
#X connect 32 1 33 0;
#X connect 33 0 34 1;
#X connect 34 0 39 0;
#X connect 35 0 38 0;
#X connect 36 0 38 0;
#X connect 37 0 38 0;
#X connect 38 0 41 0;
#X connect 39 0 38 0;
#X connect 39 1 35 0;
#X connect 39 2 36 0;
#X connect 39 3 37 0;
#X connect 40 0 42 0;
#X connect 40 1 47 0;
#X connect 40 2 49 0;
#X connect 41 0 42 1;
#X connect 41 1 47 1;
#X connect 41 2 49 1;
#X connect 42 0 43 0;
#X connect 43 0 44 0;
#X connect 43 1 45 0;
#X connect 44 0 60 0;
#X connect 45 0 48 0;
#X connect 45 1 46 0;
#X connect 46 0 60 0;
#X connect 47 0 48 1;
#X connect 48 0 51 0;
#X connect 49 0 50 1;
#X connect 50 0 55 0;
#X connect 51 0 52 0;
#X connect 51 1 53 0;
#X connect 52 0 60 0;
#X connect 53 0 50 0;
#X connect 53 1 54 0;
#X connect 54 0 60 0;
#X connect 55 0 56 0;
#X connect 55 1 57 0;
#X connect 56 0 60 0;
#X connect 57 0 59 0;
#X connect 57 1 58 0;
#X connect 58 0 60 0;
#X connect 59 0 60 0;
#X connect 60 0 64 0;
#X connect 60 0 61 0;
#X connect 62 0 2 0;
#X connect 63 0 13 0;
#X restore 269 445 pd compare_version;
#X obj 269 297 list fromsymbol;
#X msg 258 207 gets dcterms:format 0 @value;
#X obj 269 319 route 118;
#X text 330 319 remove 'v';
#X obj 269 340 list tosymbol;
#X symbolatom 269 360 10 0 0 0 - - -;
#X text 311 61 updates URL;
#X obj 269 468 sel 1, f 19;
#X obj 374 423 r \$0-currentversion;
#N canvas 1168 322 422 399 uptodate_info 0;
#X obj 117 2 inlet;
#X obj 39 65 pofvisible;
#X obj 39 86 t a a;
#X obj 66 168 poftouch 1e+06 1e+06;
#X obj 81 128 loadbang;
#X msg 81 149 draw 1;
#X obj 39 44 r overHead;
#X msg 117 44 1;
#X msg 163 67 0;
#X obj 39 207 t a a a;
#X floatatom 121 257 5 0 0 0 - - -;
#X floatatom 160 255 5 0 0 0 - - -;
#X obj 78 228 pofcolor 0.3 0.3 0.3 1;
#X obj 117 23 b;
#X obj 39 354 poftexts typo 35;
#X obj 188 305 loadbang;
#X msg 188 327 text Your app is up-to-date : );
#X obj 78 275 cadreVec 440 100;
#X obj 79 10 bng 15 250 50 0 empty empty empty 17 7 0 10 -262144 -1
-1;
#X obj 66 109 pofcolor 0.1 0.1 0.1 0.75;
#X obj 163 42 del 1500;
#X connect 0 0 13 0;
#X connect 1 0 2 0;
#X connect 2 0 9 0;
#X connect 2 1 19 0;
#X connect 4 0 5 0;
#X connect 5 0 3 0;
#X connect 6 0 1 0;
#X connect 7 0 1 0;
#X connect 8 0 1 0;
#X connect 9 0 14 0;
#X connect 9 2 12 0;
#X connect 10 0 17 1;
#X connect 11 0 17 2;
#X connect 12 0 17 0;
#X connect 13 0 7 0;
#X connect 13 0 20 0;
#X connect 15 0 16 0;
#X connect 16 0 14 0;
#X connect 18 0 13 0;
#X connect 19 0 3 0;
#X connect 20 0 8 0;
#X restore 380 490 pd uptodate_info;
#X obj 269 380 t s s;
#X obj 296 401 s \$0-availableversion;
#N canvas 385 199 540 749 download_engine 0;
#X msg 84 114 gets o:original_url;
#X obj 84 134 pofjson \$0-update;
#X obj 84 68 r \$0-download;
#X obj 249 133 pofjson \$0-update;
#X msg 249 113 getf o:size;
#X floatatom 306 157 5 0 0 1 Mb - -;
#X obj 174 67 bng 15 250 50 0 empty empty empty 17 7 0 10 -262144 -1
-1;
#X obj 84 89 t b b, f 28;
#X obj 84 202 pofutil;
#X obj 143 154 r datadir;
#X obj 84 155 pack s s;
#X msg 48 41 abort_download;
#X obj 84 227 route download;
#X obj 249 154 / 1e+06;
#X obj 84 269 /;
#X msg 84 176 download \$1 \$2/update.zip;
#X obj 84 321 s \$0-download_progress;
#X obj 84 295 pack f f;
#X obj 275 276 print download;
#X obj 156 295 s \$0-download_done;
#X obj 205 379 r datadir;
#X obj 160 401 pack s s;
#X msg 160 358 symbol update.zip;
#X obj 160 443 pofutil;
#X msg 160 422 unzip \$2/\$1 \$2/;
#X obj 160 464 route unzip;
#X obj 160 485 route done error;
#X msg 112 271 1;
#X obj 84 248 route Mb done error;
#X obj 311 453 list prepend download error:;
#X obj 296 581 s \$0-text_settext;
#X obj 329 527 list prepend install error:;
#N canvas 4 82 447 300 append_newline 0;
#X obj 82 28 inlet;
#X obj 82 103 list append;
#X obj 145 39 loadbang;
#X msg 145 60 10;
#X obj 145 81 list tosymbol;
#X obj 82 124 outlet;
#X connect 0 0 1 0;
#X connect 1 0 5 0;
#X connect 2 0 3 0;
#X connect 3 0 4 0;
#X connect 4 0 1 1;
#X restore 160 528 pd append_newline;
#X msg 160 506 Installation success!;
#X obj 160 549 list append Please quit and restart the app.;
#X obj 47 707 s \$0-hide_download_progress_bar;
#X obj 96 681 bng 15 250 50 0 empty empty empty 17 7 0 10 -262144 -1
-1;
#X msg 300 477 Installing...;
#X obj 48 20 r \$0-cancel;
#X obj 47 567 t b;
#X msg 100 572 symbol \$2/\$1;
#X obj 67 594 symbol;
#X obj 67 636 pofutil;
#X msg 67 615 rmfile \$1;
#X connect 0 0 1 0;
#X connect 1 0 10 0;
#X connect 2 0 7 0;
#X connect 3 0 13 0;
#X connect 4 0 3 0;
#X connect 6 0 7 0;
#X connect 7 0 0 0;
#X connect 7 1 4 0;
#X connect 8 0 12 0;
#X connect 9 0 10 1;
#X connect 10 0 15 0;
#X connect 11 0 8 0;
#X connect 12 0 28 0;
#X connect 12 1 18 0;
#X connect 13 0 5 0;
#X connect 13 0 14 1;
#X connect 13 0 17 1;
#X connect 14 0 17 0;
#X connect 15 0 8 0;
#X connect 17 0 16 0;
#X connect 20 0 21 1;
#X connect 21 0 24 0;
#X connect 21 0 40 0;
#X connect 22 0 21 0;
#X connect 23 0 25 0;
#X connect 24 0 23 0;
#X connect 25 0 26 0;
#X connect 25 0 39 0;
#X connect 26 0 33 0;
#X connect 26 1 31 0;
#X connect 27 0 17 0;
#X connect 28 0 14 0;
#X connect 28 1 19 0;
#X connect 28 1 22 0;
#X connect 28 1 27 0;
#X connect 28 1 37 0;
#X connect 28 2 29 0;
#X connect 28 3 18 0;
#X connect 29 0 30 0;
#X connect 31 0 30 0;
#X connect 32 0 34 0;
#X connect 33 0 32 0;
#X connect 34 0 30 0;
#X connect 36 0 35 0;
#X connect 37 0 30 0;
#X connect 38 0 11 0;
#X connect 39 0 35 0;
#X connect 39 0 41 0;
#X connect 40 0 41 1;
#X connect 41 0 43 0;
#X connect 43 0 42 0;
#X restore 55 387 pd download_engine;
#N canvas 1231 263 587 674 update_dialog 0;
#X obj 117 23 inlet;
#X obj 39 65 pofvisible;
#X obj 39 86 t a a;
#X obj 66 168 poftouch 1e+06 1e+06;
#X obj 81 128 loadbang;
#X msg 81 149 draw 1;
#X obj 39 44 r overHead;
#X msg 117 44 1;
#X msg 162 44 0;
#X floatatom 133 247 5 0 0 0 - - -;
#X floatatom 172 245 5 0 0 0 - - -;
#X obj 66 109 pofcolor 0.1 0.1 0.1 0.9;
#X obj 90 218 pofcolor 0.3 0.3 0.3 1;
#X obj 73 318 poftranslate -150 140;
#X obj 56 363 poftranslate 150 140;
#X obj 90 265 cadreVec 600 350;
#X obj 56 384 dialog_button 220 40 typo 29 CANCEL;
#X obj 304 290 r \$0-availableversion;
#X obj 73 338 dialog_button 220 40 typo 29 UPDATE;
#X obj 39 197 t a a a a;
#X obj 39 642 poftexts impact 35 0 0 2 2;
#X obj 82 531 loadbang;
#X obj 304 403 list append Do you want to update?;
#X msg 304 338 list text New version \$1 is available!;
#N canvas 4 82 447 300 append_newline 0;
#X obj 82 28 inlet;
#X obj 82 103 list append;
#X obj 145 39 loadbang;
#X msg 145 60 10;
#X obj 145 81 list tosymbol;
#X obj 82 124 outlet;
#X connect 0 0 1 0;
#X connect 1 0 5 0;
#X connect 2 0 3 0;
#X connect 3 0 4 0;
#X connect 4 0 1 1;
#X restore 304 360 pd append_newline;
#X obj 304 424 list trim;
#N canvas 4 82 447 300 append_newline 0;
#X obj 82 28 inlet;
#X obj 82 103 list append;
#X obj 145 39 loadbang;
#X msg 145 60 10;
#X obj 145 81 list tosymbol;
#X obj 82 124 outlet;
#X connect 0 0 1 0;
#X connect 1 0 5 0;
#X connect 2 0 3 0;
#X connect 3 0 4 0;
#X connect 4 0 1 1;
#X restore 304 382 pd append_newline;
#X msg 305 449 text Downloading...;
#X obj 304 315 symbol;
#X obj 351 316 bng 15 250 50 0 empty empty empty 17 7 0 10 -262144
-1 -1;
#X obj 307 488 s \$0-download;
#X obj 39 431 t a a;
#N canvas 273 393 450 406 download_progress_bar 0;
#X obj 37 37 inlet;
#X obj 37 58 pofvisible;
#X msg 100 37 1;
#X obj 76 110 pofcolor 0.4 0.4 0.4 1;
#X obj 76 131 pofrect 200 15;
#X obj 56 168 poftranslate;
#X obj 56 190 pofcolor 0 0.5 0 1;
#X obj 56 211 pofrect 196 9;
#X obj 100 16 r \$0-download;
#X obj 222 149 hsl 128 15 0 1 0 0 empty empty empty -2 -8 0 10 -262144
-1 -1 12700 1;
#X obj 219 52 r \$0-download_progress;
#X obj 219 169 * 196;
#X obj 219 215 * 0.5;
#X obj 219 195 - 196;
#X obj 219 122 unpack f f;
#X obj 37 87 t a a a;
#X obj 282 226 *;
#X obj 282 311 pack f f;
#X msg 282 332 text \$1 MB / \$2 Mb;
#X obj 37 289 pofcolor 1 1 1 1;
#X msg 270 98 0.5 20;
#X obj 37 357 poftexts vera 15;
#X obj 282 247 * 10;
#X obj 282 268 i;
#X obj 282 289 / 10;
#X obj 327 247 * 10;
#X obj 327 268 i;
#X obj 327 289 / 10;
#X msg 165 44 0 0;
#X obj 221 5 r \$0-hide_download_progress_bar;
#X msg 221 25 0;
#X connect 0 0 1 0;
#X connect 1 0 15 0;
#X connect 2 0 1 0;
#X connect 3 0 4 0;
#X connect 5 0 6 0;
#X connect 6 0 7 0;
#X connect 8 0 2 0;
#X connect 8 0 28 0;
#X connect 9 0 11 0;
#X connect 10 0 14 0;
#X connect 11 0 7 1;
#X connect 11 0 13 0;
#X connect 12 0 5 1;
#X connect 13 0 12 0;
#X connect 14 0 9 0;
#X connect 14 0 16 0;
#X connect 14 1 16 1;
#X connect 14 1 25 0;
#X connect 15 0 19 0;
#X connect 15 1 5 0;
#X connect 15 2 3 0;
#X connect 16 0 22 0;
#X connect 17 0 18 0;
#X connect 18 0 21 0;
#X connect 19 0 21 0;
#X connect 20 0 14 0;
#X connect 22 0 23 0;
#X connect 23 0 24 0;
#X connect 24 0 17 0;
#X connect 25 0 26 0;
#X connect 26 0 27 0;
#X connect 27 0 17 1;
#X connect 28 0 14 0;
#X connect 29 0 30 0;
#X connect 30 0 1 0;
#X restore 66 476 pd download_progress_bar;
#X floatatom 135 432 5 0 0 0 - - -;
#X obj 66 454 poftranslate 0 30;
#X msg 185 454 0;
#X obj 305 514 r \$0-download_done;
#X msg 305 535 text Installing...;
#X obj 306 593 list prepend text;
#X obj 306 572 r \$0-text_settext;
#X obj 306 612 list trim;
#X msg 82 552 center 1 \, width 580;
#X obj 73 292 pofvisible;
#X msg 142 292 0;
#X obj 56 405 s \$0-cancel;
#X connect 0 0 7 0;
#X connect 1 0 2 0;
#X connect 2 0 19 0;
#X connect 2 1 11 0;
#X connect 4 0 5 0;
#X connect 5 0 3 0;
#X connect 6 0 1 0;
#X connect 7 0 1 0;
#X connect 7 0 35 0;
#X connect 7 0 42 0;
#X connect 8 0 1 0;
#X connect 9 0 15 1;
#X connect 10 0 15 2;
#X connect 11 0 3 0;
#X connect 12 0 15 0;
#X connect 13 0 18 0;
#X connect 14 0 16 0;
#X connect 16 0 8 0;
#X connect 16 0 44 0;
#X connect 17 0 28 0;
#X connect 18 0 27 0;
#X connect 18 0 30 0;
#X connect 18 0 43 0;
#X connect 19 0 31 0;
#X connect 19 1 14 0;
#X connect 19 2 42 0;
#X connect 19 3 12 0;
#X connect 21 0 41 0;
#X connect 22 0 25 0;
#X connect 23 0 24 0;
#X connect 24 0 26 0;
#X connect 25 0 20 0;
#X connect 26 0 22 0;
#X connect 27 0 20 0;
#X connect 28 0 23 0;
#X connect 29 0 28 0;
#X connect 31 0 20 0;
#X connect 31 1 34 0;
#X connect 33 0 34 2;
#X connect 34 0 32 0;
#X connect 35 0 32 0;
#X connect 36 0 37 0;
#X connect 37 0 20 0;
#X connect 38 0 40 0;
#X connect 39 0 38 0;
#X connect 40 0 20 0;
#X connect 41 0 20 0;
#X connect 42 0 13 0;
#X connect 43 0 42 0;
#X restore 269 490 pd update_dialog;
#X msg 191 92 gets o:media \$1 @id;
#X connect 0 0 2 0;
#X connect 1 0 10 0;
#X connect 2 0 1 0;
#X connect 3 0 4 0;
#X connect 4 0 1 0;
#X connect 5 1 7 0;
#X connect 6 0 5 0;
#X connect 7 0 32 0;
#X connect 10 0 3 0;
#X connect 10 1 6 0;
#X connect 10 2 11 0;
#X connect 11 0 13 0;
#X connect 12 0 15 0;
#X connect 13 0 12 0;
#X connect 14 0 11 0;
#X connect 15 0 19 0;
#X connect 15 1 16 0;
#X connect 16 0 18 0;
#X connect 17 0 25 0;
#X connect 18 0 20 0;
#X connect 19 0 12 0;
#X connect 20 0 22 0;
#X connect 22 0 23 0;
#X connect 23 0 28 0;
#X connect 25 0 31 0;
#X connect 25 1 27 0;
#X connect 26 0 17 1;
#X connect 28 0 17 0;
#X connect 28 1 29 0;
#X connect 32 0 1 0;
#X restore 208 101 pd request_last_version;
#X obj 593 88 text define \$0-versiontext;
#N canvas 1 82 450 300 getversion 0;
#X obj 29 131 text get \$0-versiontext;
#X msg 29 107 0;
#X obj 29 213 outlet;
#X obj 29 157 route bang;
#X msg 29 181 symbol 0.0.0;
#X obj 29 59 inlet;
#X connect 0 0 3 0;
#X connect 1 0 0 0;
#X connect 3 0 4 0;
#X connect 3 1 2 0;
#X connect 4 0 2 0;
#X connect 5 0 1 0;
#X restore 500 65 pd getversion;
#X symbolatom 500 89 10 0 0 3 current - -;
#X msg 593 65 clear \, read -c VERSION;
#X obj 500 42 t b b, f 16;
#X obj 500 18 loadbang;
#X obj 567 16 bng 15 250 50 0 empty empty empty 17 7 0 10 -262144 -1
-1;
#X obj 500 129 s \$0-currentversion;
#X obj 28 147 t a a, f 39;
#X floatatom 329 142 5 0 0 0 - - -;
#X msg 396 195 text current version: \$1;
#X obj 259 226 poftexts vera 15 0 0 -1 -2;
#X obj 28 33 t a a;
#X obj 259 168 poftranslate 0 16;
#X obj 28 169 poftranslate 0 -7;
#X obj 259 197 pofcolor 0.7 1 0 1;
#X connect 0 0 23 0;
#X connect 1 0 7 0;
#X connect 3 0 4 0;
#X connect 4 0 2 0;
#X connect 5 0 7 1;
#X connect 6 0 7 2;
#X connect 8 0 1 0;
#X connect 8 1 9 0;
#X connect 9 0 10 0;
#X connect 12 0 13 0;
#X connect 13 0 18 0;
#X connect 13 0 21 0;
#X connect 14 0 11 0;
#X connect 15 0 12 0;
#X connect 15 1 14 0;
#X connect 16 0 15 0;
#X connect 17 0 15 0;
#X connect 19 0 25 0;
#X connect 19 1 24 0;
#X connect 20 0 24 2;
#X connect 21 0 22 0;
#X connect 23 0 19 0;
#X connect 23 1 8 0;
#X connect 24 0 26 0;
#X connect 25 0 2 0;
#X connect 26 0 22 0;
