#N struct 4295-symarray float x array symbols 4295-sym;
#N struct 4295-sym symbol name float on;
#N struct 4306-symarray float x array symbols 4306-sym;
#N struct 4306-sym symbol name float on;
#N canvas 624 96 576 771 10;
#X declare -path abs -path . -path img;
#X declare -path abs -path . -path img;
#X declare -path abs/extra/iemlib;
#X declare -path ./abs/instruments/AutoPreset;
#X obj 18 178 pofwin;
#X msg 30 145 build;
#N canvas 751 378 307 150 bang_on_first_frame 0;
#X obj 54 49 pofbang 1;
#X obj 54 26 pofhead;
#X msg 105 76 0;
#X obj 143 76 outlet;
#X connect 0 1 2 0;
#X connect 0 1 3 0;
#X connect 1 0 0 0;
#X connect 2 0 0 0;
#X restore 18 98 pd bang_on_first_frame;
#N canvas 684 135 755 680 mainHead 0;
#X obj 100 16 pofhead;
#X obj 156 20 pofwin;
#X obj 156 44 route window;
#X obj 156 66 unpack f f;
#X floatatom 193 167 5 0 0 0 - - -;
#X obj 100 152 pofscale 1 1;
#X text 185 115 auto-scale to screen;
#X obj 127 231 s mainHead;
#X floatatom 139 359 5 0 0 0 - - -;
#X floatatom 179 356 5 0 0 0 - - -;
#X obj 100 180 t a a;
#X obj 379 113 loadbang;
#X obj 305 172 pofbang;
#X msg 379 133 1;
#X msg 379 154 0;
#X msg 280 277 0;
#X msg 241 227 1;
#X obj 100 266 pofvisible 1;
#X obj 368 176 bng 15 250 50 0 empty empty empty 17 7 0 10 -262144
-1 -1;
#X obj 305 150 pofhead;
#X obj 321 81 inlet;
#X msg 306 394 draw 1;
#X obj 306 373 loadbang;
#X obj 293 346 pofcolor 0 0 0 1;
#X obj 293 425 poftouch 5000 5000;
#X obj 156 91 / 800;
#X obj 213 90 / 600;
#X obj 100 424 credit;
#X obj 100 379 poftranslate 300 270;
#X obj 263 20 s ScreenScaleW;
#X obj 278 42 s ScreenScaleH;
#X obj 100 289 t a a a;
#X obj 119 312 fixScale;
#X obj 100 402 fixScale;
#X obj 127 206 pofvisible;
#X obj 344 205 del 100;
#X msg 153 176 1;
#X obj 411 306 s page;
#X msg 411 269 concert;
#X msg 344 240 balance;
#X obj 411 245 del 100;
#X obj 497 246 pofimage;
#X obj 542 268 route monitor;
#X msg 466 223 setmonitor 1;
#X obj 554 157 loadbang;
#X floatatom 542 357 5 0 0 1 images_to_load_from_disk - -;
#X floatatom 576 335 5 0 0 1 images_to_load_from_web - -;
#X obj 497 193 pofhead;
#X obj 542 292 unpack f f f;
#X floatatom 611 314 5 0 0 1 images_loaded - -;
#X obj 542 381 sel 0;
#X obj 446 194 del 100;
#X obj 542 457 s APP-INIT;
#X obj 632 394 bng 15 250 50 0 empty empty empty 17 7 0 10 -262144
-1 -1;
#X obj 542 406 spigot 1;
#X msg 599 406 0;
#X obj 119 335 pofimage img/splash.png 700;
#X obj 50 570 loadbang;
#X obj 41 487 pofvisible;
#X obj 341 558 tgl 15 0 empty empty empty 17 7 0 10 -262144 -1 -1 0
1;
#X obj 41 623 poftexts impact 55;
#X obj 159 116 min;
#X obj 41 458 fixScale;
#X msg 50 591 text CAUTION! "UPDATE" PATCH RUNNING!! DO NOT EDIT \,
width 700, f 39;
#X obj 41 509 t a a, f 29;
#X obj 212 554 pofrect 750 150 20;
#X obj 41 548 pofcolor 1 0 0 0.7;
#X obj 212 533 pofcolor 0 0 0 0.7;
#X obj 341 577 metro 800;
#X obj 341 596 tgl 15 0 empty empty empty 17 7 0 10 -262144 -1 -1 0
1;
#X obj 341 498 r APP_IS_UPDATE;
#X obj 370 518 r APP_EDITON_MODE;
#X obj 341 539 &&;
#X obj 370 539 t b f;
#X obj 542 430 del 1000;
#X connect 0 0 5 0;
#X connect 1 0 2 0;
#X connect 2 0 3 0;
#X connect 3 0 25 0;
#X connect 3 1 26 0;
#X connect 5 0 10 0;
#X connect 8 0 28 1;
#X connect 9 0 28 2;
#X connect 10 0 17 0;
#X connect 10 0 62 0;
#X connect 10 1 34 0;
#X connect 11 0 13 0;
#X connect 12 1 14 0;
#X connect 12 1 18 0;
#X connect 12 1 35 0;
#X connect 13 0 12 0;
#X connect 14 0 12 0;
#X connect 15 0 17 0;
#X connect 16 0 17 0;
#X connect 17 0 31 0;
#X connect 19 0 12 0;
#X connect 20 0 16 0;
#X connect 20 0 13 0;
#X connect 21 0 24 0;
#X connect 22 0 21 0;
#X connect 23 0 24 0;
#X connect 25 0 5 1;
#X connect 25 0 29 0;
#X connect 25 0 61 0;
#X connect 26 0 5 2;
#X connect 26 0 30 0;
#X connect 26 0 61 1;
#X connect 28 0 33 0;
#X connect 31 0 28 0;
#X connect 31 1 32 0;
#X connect 31 2 23 0;
#X connect 32 0 56 0;
#X connect 33 0 27 0;
#X connect 34 0 7 0;
#X connect 35 0 36 0;
#X connect 35 0 39 0;
#X connect 35 0 40 0;
#X connect 36 0 34 0;
#X connect 38 0 37 0;
#X connect 39 0 37 0;
#X connect 40 0 38 0;
#X connect 40 0 51 0;
#X connect 41 1 42 0;
#X connect 42 0 48 0;
#X connect 43 0 41 0;
#X connect 45 0 50 0;
#X connect 47 0 41 0;
#X connect 48 0 45 0;
#X connect 48 1 46 0;
#X connect 48 2 49 0;
#X connect 50 0 54 0;
#X connect 51 0 43 0;
#X connect 54 0 55 0;
#X connect 54 0 74 0;
#X connect 55 0 54 1;
#X connect 57 0 63 0;
#X connect 58 0 64 0;
#X connect 59 0 68 0;
#X connect 61 0 4 0;
#X connect 62 0 58 0;
#X connect 63 0 60 0;
#X connect 64 0 66 0;
#X connect 64 1 67 0;
#X connect 66 0 60 0;
#X connect 67 0 65 0;
#X connect 68 0 69 0;
#X connect 69 0 58 0;
#X connect 70 0 72 0;
#X connect 71 0 73 0;
#X connect 72 0 59 0;
#X connect 73 0 72 0;
#X connect 73 1 72 1;
#X connect 74 0 15 0;
#X connect 74 0 52 0;
#X restore 23 234 pd mainHead;
#X obj 23 213 bng 15 250 50 0 empty empty empty 17 7 0 10 -262144 -1
-1;
#X obj 137 180 r mainHead;
#X obj 18 295 mode/manager;
#X obj 17 317 parole/manager;
#X obj 16 419 rec/rec;
#X msg 80 153 framerate 60;
#X msg 18 120 window 800 600 0 \, framerate 60 \, background 0 0 0
;
#X obj 430 445 mode/edit;
#X obj 161 56 loadbang;
#X obj 161 78 del 10000;
#X msg 161 98 build \, bang;
#X obj 316 398 pageHead balance;
#X obj 382 137 loadbang;
#X obj 316 421 balance/GUI;
#X obj 209 600 concert/GUI;
#X obj 180 441 s overHead;
#X msg 382 191 \; page concert;
#X obj 17 340 set/manager;
#X obj 192 289 s pageHead;
#X obj 16 445 song/player;
#N canvas 152 560 775 416 audioMaster 0;
#X obj 211 163 catch~ Out-1;
#X obj 80 278 *~;
#X obj 96 255 z~ 64;
#X obj 79 223 limiter~;
#X obj 100 162 catch~ Out-0;
#X obj 79 192 *~ 1;
#X obj 192 277 *~;
#X obj 208 254 z~ 64;
#X obj 191 222 limiter~;
#X obj 191 191 *~ 1;
#X obj 77 109 catch~ OutMusic-0;
#X obj 191 110 catch~ OutMusic-1;
#X obj 78 133 *~;
#X obj 190 132 *~;
#X obj 325 147 line~;
#X obj 325 52 r master-music-mute;
#X obj 334 254 s master-music-mute;
#X msg 334 231 0;
#X obj 334 208 loadbang;
#X obj 325 72 == 0;
#X msg 325 124 \$1 100;
#X msg 364 229 1;
#X obj 325 170 *~;
#X obj 325 99 max 0.3;
#X obj 335 304 catch~ OutMusic-rev;
#X obj 335 360 OutMusic~;
#X obj 335 332 rev2~ 90 90 3000 50;
#X obj 115 363 dac~ 1 2 3 4;
#X obj 192 298 mull~ 1 10;
#X obj 79 302 mull~ 1 10;
#X obj 149 239 inlet;
#X obj 151 75 catch~ OUTinstru-2;
#X obj 15 77 catch~ OUTinstru-1;
#X obj 46 387 throw~ REC-l;
#N canvas 48 1097 458 374 getdir 1;
#X obj 136 197 pofutil;
#X msg 136 171 setstring data .;
#X obj 175 16 inlet;
#X obj 109 17 loadbang;
#X obj 136 54 b;
#X obj 136 118 pofutil;
#X msg 136 94 getdir;
#X msg 136 142 symbol \$1/data;
#X obj 186 51 bng 15 250 50 0 empty empty empty 17 7 0 10 -262144 -1
-1;
#X obj 255 179 s datadir;
#X obj 222 210 outlet;
#X symbolatom 219 278 0 0 0 0 - - -;
#X connect 1 0 0 0;
#X connect 2 0 4 0;
#X connect 3 0 4 0;
#X connect 4 0 6 0;
#X connect 5 0 7 0;
#X connect 6 0 5 0;
#X connect 7 0 1 0;
#X connect 7 0 10 0;
#X connect 7 0 11 0;
#X connect 7 0 9 0;
#X connect 8 0 4 0;
#X restore 163 20 pd getdir;
#X obj 210 389 throw~ REC-r;
#X obj 14 359 s~ REC-l;
#X obj 226 349 s~ REC-r;
#X obj 527 142 mull~ 0.5 10;
#X obj 713 67 vsl 15 128 0 1 0 0 empty empty empty 0 -9 0 10 -262144
-1 -1 0 1;
#X obj 602 223 mull~ 0.5 10;
#X obj 537 31 adc~ 3 4;
#X obj 509 308 dac~ 1 2 3 4;
#X floatatom 649 47 5 0 0 0 - - -;
#X obj 491 107 hip~ 112;
#X obj 595 104 hip~ 112;
#X connect 0 0 9 0;
#X connect 1 0 29 0;
#X connect 2 0 1 1;
#X connect 3 0 1 0;
#X connect 4 0 5 0;
#X connect 5 0 3 0;
#X connect 5 0 2 0;
#X connect 6 0 28 0;
#X connect 7 0 6 1;
#X connect 8 0 6 0;
#X connect 9 0 8 0;
#X connect 9 0 7 0;
#X connect 10 0 12 0;
#X connect 11 0 13 0;
#X connect 12 0 5 0;
#X connect 13 0 9 0;
#X connect 14 0 22 0;
#X connect 14 0 22 1;
#X connect 15 0 19 0;
#X connect 17 0 16 0;
#X connect 18 0 17 0;
#X connect 19 0 23 0;
#X connect 20 0 14 0;
#X connect 21 0 16 0;
#X connect 22 0 13 1;
#X connect 22 0 12 1;
#X connect 23 0 20 0;
#X connect 24 0 26 0;
#X connect 26 0 25 0;
#X connect 26 1 25 1;
#X connect 28 0 27 1;
#X connect 28 0 27 3;
#X connect 28 0 35 0;
#X connect 28 0 37 0;
#X connect 29 0 27 0;
#X connect 29 0 27 2;
#X connect 29 0 33 0;
#X connect 29 0 36 0;
#X connect 30 0 29 1;
#X connect 30 0 28 1;
#X connect 31 0 9 0;
#X connect 32 0 5 0;
#X connect 38 0 42 0;
#X connect 38 0 42 2;
#X connect 39 0 38 1;
#X connect 39 0 40 1;
#X connect 40 0 42 1;
#X connect 40 0 42 3;
#X connect 43 0 44 1;
#X connect 43 0 45 1;
#X connect 44 0 38 0;
#X connect 45 0 40 0;
#X restore 464 357 pd audioMaster;
#X obj 16 363 song/manager;
#X obj 196 419 song/listGui;
#X obj 343 51 loadbang;
#X msg 343 73 \; pd dsp 1;
#N canvas 2027 1012 757 435 INIT 0;
#X obj 190 118 s mode;
#X obj 163 15 loadbang;
#X obj 163 65 t b b;
#X obj 155 182 mode/say 1 Allumage;
#X obj 626 69 s set;
#X msg 626 42 symbol Antoine;
#X obj 163 149 del 1;
#X obj 141 42 bng 15 250 50 0 empty empty empty 17 7 0 10 -262144 -1
-1;
#X obj 163 35 del 5000;
#X obj 666 69 s set-load;
#X obj 291 68 del 2000;
#X obj 225 14 r APP-INIT;
#X obj 461 114 t b f;
#X obj 461 136 random;
#X msg 461 65 getnum /;
#X obj 461 89 pofxml sets;
#X floatatom 507 141 5 0 0 0 - - -;
#X msg 461 161 get /set[\$1][@file];
#X obj 461 190 pofxml sets;
#X obj 461 212 route get;
#X obj 461 234 symbol;
#X symbolatom 529 235 0 0 0 0 - - -;
#X obj 461 278 s set;
#X obj 501 278 s set-load;
#X obj 315 169 t b f;
#X obj 315 191 random;
#X msg 315 120 getnum /;
#X floatatom 361 196 5 0 0 0 - - -;
#X obj 315 267 route get;
#X obj 315 289 symbol;
#X symbolatom 383 290 10 0 0 0 - - -;
#X obj 315 144 pofxml modes;
#X msg 315 216 get /mode[\$1][@file];
#X obj 315 245 pofxml modes;
#X obj 315 333 s mode;
#X obj 53 264 s AllumageDecoupeurs;
#X obj 72 227 del 200;
#X msg 190 91 symbol AlainScape;
#X msg 428 129 1;
#X connect 1 0 8 0;
#X connect 2 0 6 0;
#X connect 2 1 37 0;
#X connect 3 0 36 0;
#X connect 5 0 4 0;
#X connect 5 0 9 0;
#X connect 6 0 3 0;
#X connect 7 0 2 0;
#X connect 10 0 38 0;
#X connect 11 0 2 0;
#X connect 11 0 10 0;
#X connect 12 0 13 0;
#X connect 12 1 13 1;
#X connect 13 0 16 0;
#X connect 13 0 17 0;
#X connect 14 0 15 0;
#X connect 15 0 12 0;
#X connect 17 0 18 0;
#X connect 18 0 19 0;
#X connect 19 0 20 0;
#X connect 20 0 21 0;
#X connect 20 0 22 0;
#X connect 20 0 23 0;
#X connect 24 0 25 0;
#X connect 24 1 25 1;
#X connect 25 0 27 0;
#X connect 25 0 32 0;
#X connect 26 0 31 0;
#X connect 28 0 29 0;
#X connect 29 0 30 0;
#X connect 29 0 34 0;
#X connect 31 0 24 0;
#X connect 32 0 33 0;
#X connect 33 0 28 0;
#X connect 36 0 35 0;
#X connect 37 0 0 0;
#X connect 38 0 17 0;
#X restore 274 246 pd INIT;
#X obj 165 308 fixScaleX;
#X obj 430 421 fixScaleX;
#X obj 81 185 tgl 15 0 empty empty empty 17 7 0 10 -262144 -1 -1 0
1;
#X obj 137 203 pofvisible 1;
#X obj 223 177 tgl 15 0 empty empty empty 17 7 0 10 -262144 -1 -1 0
1;
#X obj 209 577 pageHead concert;
#X obj 430 400 pageHead modeEdit;
#X obj 417 97 switch~;
#X obj 417 77 tgl 15 0 empty empty empty 17 7 0 10 -262144 -1 -1 1
1;
#X obj 417 55 loadbang;
#X obj 19 6 declare -path abs -path . -path img;
#X obj 14 29 declare -path abs -path . -path img;
#X obj 463 285 mknob 50 100 0 1 0 0 VolMaster-snd VolMaster-rcv VolMaster
-2 -6 0 8 -258113 -1 -1 0 1;
#X obj 239 7 declare -path abs/extra/iemlib;
#X obj 11 471 instruments/player;
#N canvas 687 449 450 384 cpu 0;
#X obj 29 64 inlet;
#X obj 29 136 poftranslate;
#X obj 29 260 poftexts vera 16;
#X obj 29 208 t a a, f 23;
#X obj 164 234 pofcolor 0 0 0 0.5;
#X obj 164 260 pofrect 80 20 6;
#X obj 51 96 nbx 5 14 -1e+37 1e+37 0 1 empty empty empty 0 -8 0 10
-262144 -1 -1 353 256;
#X obj 112 98 nbx 5 14 -1e+37 1e+37 0 1 empty empty empty 0 -8 0 10
-262144 -1 -1 -287 256;
#X floatatom 306 241 0 0 0 0 - - -;
#X obj 306 153 cputime;
#X obj 306 33 loadbang;
#X obj 306 97 metro 1000;
#X obj 306 125 t b b;
#X obj 306 213 * 0.1;
#X obj 306 182 int;
#X text 329 63 <= on/off;
#X obj 306 64 tgl 15 0 empty empty empty 17 7 0 10 -262144 -1 -1 1
1;
#X msg 142 65 text CPU:\$1%;
#X obj 29 170 fixScaleX;
#X obj 164 281 poftouch 80 20;
#X obj 245 304 route down;
#X obj 245 325 b;
#X obj 245 346 outlet;
#X obj 322 300 loadbang;
#X msg 322 321 1;
#X connect 0 0 1 0;
#X connect 1 0 18 0;
#X connect 3 0 2 0;
#X connect 3 1 4 0;
#X connect 4 0 5 0;
#X connect 5 0 19 0;
#X connect 6 0 1 1;
#X connect 7 0 1 2;
#X connect 9 0 14 0;
#X connect 10 0 16 0;
#X connect 11 0 12 0;
#X connect 12 0 9 0;
#X connect 12 1 9 1;
#X connect 13 0 8 0;
#X connect 13 0 17 0;
#X connect 14 0 13 0;
#X connect 16 0 11 0;
#X connect 17 0 2 0;
#X connect 18 0 3 0;
#X connect 19 1 20 0;
#X connect 20 0 21 0;
#X connect 21 0 22 0;
#X connect 23 0 24 0;
#X connect 24 0 22 0;
#X restore 138 489 pd cpu;
#X msg 164 149 open;
#X obj 332 498 loadbang;
#X msg 332 547 the patch is running!;
#X obj 347 275 mixtape/REC-lr;
#N canvas 1345 939 782 464 instruments_pof 0;
#X obj 42 162 instruments/Baignoire 5;
#X obj 44 187 instruments/Regle 6;
#X obj 44 211 instruments/Aspirateur 7;
#X obj 47 237 instruments/Verres 8;
#X obj 46 266 instruments/Mixeur 9;
#X obj 35 43 instruments/MachineAlaver 0;
#X obj 36 66 instruments/PlateauCouvert 1;
#X obj 38 88 instruments/MicroOnde 2;
#X obj 39 112 instruments/Bidon 3;
#X obj 40 137 instruments/Grille 4;
#X obj 111 14 declare -path ./abs/instruments/AutoPreset;
#X restore 209 644 pd instruments_pof;
#X obj 209 620 concert/instrument_panel;
#X obj 17 386 mixtape/manager;
#X obj 212 395 mixtape/listGui;
#X obj 165 269 t a a;
#X obj 138 223 t a a;
#X obj 165 246 pofvisible 1;
#X obj 189 227 tgl 15 0 empty empty empty 17 7 0 10 -262144 -1 -1 1
1;
#X obj 14 508 confirmToQuit;
#X obj 332 522 del 100;
#X obj 315 452 mixtape/RecGui;
#X obj 11 546 settings/settings_main;
#X obj 332 575 print SCHOOLSCAPE_DEBUG;
#X obj 412 490 r datadir;
#X msg 412 511 datadir: \$1;
#N canvas 740 96 460 523 PopupMulClock 0;
#X obj 44 14 inlet head;
#X obj 167 71 instruments/PopupMulClock 0 Bureau;
#X obj 139 118 instruments/PopupMulClock 2 Casiers;
#N canvas 317 399 753 516 ColorMess 0;
#X obj 49 69 mod 8;
#X obj 49 19 r CLOCK;
#X obj 49 42 unpack;
#X obj 287 63 s ColorMess;
#X obj 51 257 s ColMess-1;
#X obj 80 476 pack f f f f;
#X obj 42 301 vsl 15 100 0 1 0 0 empty empty empty 0 -9 0 10 -262144
-1 -1 0 1;
#X floatatom 42 408 5 0 0 0 - - -;
#X obj 109 301 vsl 15 100 0 1 0 0 empty empty empty 0 -9 0 10 -262144
-1 -1 0 1;
#X floatatom 109 408 5 0 0 0 - - -;
#X obj 181 292 vsl 15 100 0 1 0 0 empty empty empty 0 -9 0 10 -262144
-1 -1 0 1;
#X floatatom 176 407 5 0 0 0 - - -;
#X obj 243 300 vsl 15 100 0 1 0 0 empty empty empty 0 -9 0 10 -262144
-1 -1 0 1;
#X floatatom 243 407 5 0 0 0 - - -;
#X obj 101 441 t b f;
#X obj 174 440 t b f;
#X obj 246 438 t b f;
#X msg 66 214 1 0 0 0.5;
#X msg 49 186 1 1 0 0.5;
#X obj 48 94 sel 0 1 2 3 4 5 6 7, f 101;
#X obj 66 162 del 200;
#X obj 44 127 t b b;
#X msg 154 214 1 0 0 0.5;
#X msg 137 186 1 1 0 0.5;
#X obj 154 162 del 200;
#X obj 132 127 t b b;
#X obj 139 257 s ColMess-2;
#X msg 236 223 1 0 0 0.5;
#X msg 219 195 1 1 0 0.5;
#X obj 236 171 del 200;
#X obj 214 136 t b b;
#X msg 324 223 1 0 0 0.5;
#X msg 307 195 1 1 0 0.5;
#X obj 324 171 del 200;
#X obj 302 136 t b b;
#X obj 221 266 s ColMess-3;
#X obj 310 266 s ColMess-4;
#X msg 406 221 1 0 0 0.5;
#X msg 389 193 1 1 0 0.5;
#X obj 406 169 del 200;
#X obj 384 134 t b b;
#X msg 494 221 1 0 0 0.5;
#X msg 477 193 1 1 0 0.5;
#X obj 494 169 del 200;
#X obj 472 134 t b b;
#X msg 576 230 1 0 0 0.5;
#X msg 559 202 1 1 0 0.5;
#X obj 576 178 del 200;
#X obj 554 143 t b b;
#X msg 664 230 1 0 0 0.5;
#X msg 647 202 1 1 0 0.5;
#X obj 664 178 del 200;
#X obj 642 143 t b b;
#X obj 391 264 s ColMess-5;
#X obj 479 264 s ColMess-6;
#X obj 561 273 s ColMess-7;
#X obj 650 273 s ColMess-8;
#X connect 0 0 19 0;
#X connect 1 0 2 0;
#X connect 2 0 0 0;
#X connect 6 0 7 0;
#X connect 7 0 5 0;
#X connect 8 0 9 0;
#X connect 9 0 14 0;
#X connect 10 0 11 0;
#X connect 12 0 13 0;
#X connect 13 0 16 0;
#X connect 14 0 5 0;
#X connect 14 1 5 1;
#X connect 15 0 5 0;
#X connect 15 1 5 2;
#X connect 16 0 5 0;
#X connect 16 1 5 3;
#X connect 17 0 4 0;
#X connect 18 0 4 0;
#X connect 19 0 21 0;
#X connect 19 1 25 0;
#X connect 19 2 30 0;
#X connect 19 3 34 0;
#X connect 19 4 40 0;
#X connect 19 5 44 0;
#X connect 19 6 48 0;
#X connect 19 7 52 0;
#X connect 20 0 17 0;
#X connect 21 0 18 0;
#X connect 21 1 20 0;
#X connect 22 0 26 0;
#X connect 23 0 26 0;
#X connect 24 0 22 0;
#X connect 25 0 23 0;
#X connect 25 1 24 0;
#X connect 27 0 35 0;
#X connect 28 0 35 0;
#X connect 29 0 27 0;
#X connect 30 0 28 0;
#X connect 30 1 29 0;
#X connect 31 0 36 0;
#X connect 32 0 36 0;
#X connect 33 0 31 0;
#X connect 34 0 32 0;
#X connect 34 1 33 0;
#X connect 37 0 53 0;
#X connect 38 0 53 0;
#X connect 39 0 37 0;
#X connect 40 0 38 0;
#X connect 40 1 39 0;
#X connect 41 0 54 0;
#X connect 42 0 54 0;
#X connect 43 0 41 0;
#X connect 44 0 42 0;
#X connect 44 1 43 0;
#X connect 45 0 55 0;
#X connect 46 0 55 0;
#X connect 47 0 45 0;
#X connect 48 0 46 0;
#X connect 48 1 47 0;
#X connect 49 0 56 0;
#X connect 50 0 56 0;
#X connect 51 0 49 0;
#X connect 52 0 50 0;
#X connect 52 1 51 0;
#X restore 128 369 pd ColorMess;
#X obj 126 142 instruments/PopupMulClock 3 Plat;
#X obj 44 38 t a a a a a a a a a a;
#X obj 85 219 instruments/PopupMulClock 6 Regle;
#X obj 98 193 instruments/PopupMulClock 5 Becher;
#X obj 71 247 instruments/PopupMulClock 7 Sifflet;
#X obj 57 273 instruments/PopupMulClock 8 Verre;
#X obj 112 166 instruments/PopupMulClock 4 Grille;
#X obj 44 301 instruments/PopupMulClock 9 Sonnerie;
#X obj 153 94 instruments/PopupMulClock 1 Couverts;
#X connect 0 0 5 0;
#X connect 5 0 11 0;
#X connect 5 1 9 0;
#X connect 5 2 8 0;
#X connect 5 3 6 0;
#X connect 5 4 7 0;
#X connect 5 5 10 0;
#X connect 5 6 4 0;
#X connect 5 7 2 0;
#X connect 5 8 12 0;
#X connect 5 9 1 0;
#X restore 228 372 pd PopupMulClock;
#X obj 255 160 FONTS;
#X obj 21 603 pofkb/master;
#X obj 165 463 s pofkbHead;
#N canvas 624 851 450 300 DomoseqManager 1;
#X obj 148 73 domoseq/managerBASS;
#X obj 158 161 domoseq/managerGAMME;
#X obj 149 114 domoseq/managerCHORD;
#X obj 147 39 domoseq/manager;
#X restore 17 270 pd DomoseqManager;
#X obj 165 329 t a a a a a a;
#X obj 237 351 domoseq/listGui;
#X obj 303 474 domoseq/RecGui;
#X connect 1 0 0 0;
#X connect 2 0 10 0;
#X connect 4 0 3 0;
#X connect 5 0 33 0;
#X connect 9 0 0 0;
#X connect 12 0 13 0;
#X connect 13 0 14 0;
#X connect 14 0 0 0;
#X connect 15 0 17 0;
#X connect 16 0 20 0;
#X connect 18 0 51 0;
#X connect 27 0 28 0;
#X connect 30 0 70 0;
#X connect 31 0 11 0;
#X connect 32 0 0 0;
#X connect 33 0 55 0;
#X connect 34 0 33 0;
#X connect 35 0 18 0;
#X connect 36 0 31 0;
#X connect 38 0 37 0;
#X connect 39 0 38 0;
#X connect 42 0 24 0;
#X connect 45 0 57 0;
#X connect 46 0 0 0;
#X connect 47 0 59 0;
#X connect 48 0 62 0;
#X connect 54 0 30 0;
#X connect 54 1 22 0;
#X connect 55 0 45 0;
#X connect 55 1 56 0;
#X connect 56 0 54 0;
#X connect 57 0 56 0;
#X connect 59 0 48 0;
#X connect 63 0 64 0;
#X connect 64 0 62 0;
#X connect 70 0 68 0;
#X connect 70 1 19 0;
#X connect 70 2 26 0;
#X connect 70 3 53 0;
#X connect 70 4 65 0;
#X connect 70 5 71 0;
