#N canvas 1217 582 540 771 10;
#X declare -path abs -path . -path img;
#X declare -path abs -path . -path img;
#X declare -path abs/extra/iemlib;
#X obj 18 178 pofwin;
#X msg 30 145 build;
#N canvas 751 378 307 150 bang_on_first_frame 0;
#X obj 54 49 pofbang 1;
#X obj 54 26 pofhead;
#X msg 105 76 0;
#X obj 143 76 outlet;
#X connect 0 1 2 0;
#X connect 0 1 3 0;
#X connect 1 0 0 0;
#X connect 2 0 0 0;
#X restore 18 98 pd bang_on_first_frame;
#N canvas 580 528 755 527 mainHead 0;
#X obj 100 16 pofhead;
#X obj 156 20 pofwin;
#X obj 156 44 route window;
#X obj 156 66 unpack f f;
#X obj 159 116 min;
#X floatatom 193 167 5 0 0 0 - - -;
#X obj 100 152 pofscale 1 1;
#X text 185 115 auto-scale to screen;
#X obj 127 249 s mainHead;
#X floatatom 139 402 5 0 0 0 - - -;
#X floatatom 179 399 5 0 0 0 - - -;
#X obj 100 190 t a a;
#X obj 379 113 loadbang;
#X obj 305 172 pofbang;
#X msg 379 133 1;
#X msg 379 154 0;
#X msg 280 277 0;
#X msg 245 245 1;
#X obj 100 287 pofvisible 1;
#X obj 368 176 bng 15 250 50 0 empty empty empty 17 7 0 10 -262144
-1 -1;
#X obj 305 150 pofhead;
#X obj 321 81 inlet;
#X msg 337 404 draw 1;
#X obj 337 383 loadbang;
#X obj 324 356 pofcolor 0 0 0 1;
#X obj 324 435 poftouch 5000 5000;
#X obj 119 373 pofimage LogoZicos-pital.png 700;
#X obj 156 91 / 800;
#X obj 213 90 / 600;
#X obj 100 477 credit;
#X obj 100 422 poftranslate 300 270;
#X obj 280 244 del 3000;
#X obj 263 20 s ScreenScaleW;
#X obj 278 42 s ScreenScaleH;
#X obj 100 315 t a a a;
#X obj 119 344 fixScale;
#X obj 100 450 fixScale;
#X obj 127 216 pofvisible;
#X obj 344 205 del 100;
#X msg 153 186 1;
#X obj 411 306 s page;
#X msg 411 269 concert;
#X msg 344 240 balance;
#X obj 411 245 del 100;
#X obj 497 246 pofimage;
#X obj 542 268 route monitor;
#X msg 466 223 setmonitor 1;
#X obj 554 157 loadbang;
#X floatatom 542 357 5 0 0 1 images_to_load_from_disk - -;
#X floatatom 576 335 5 0 0 1 images_to_load_from_web - -;
#X obj 497 193 pofhead;
#X obj 542 292 unpack f f f;
#X floatatom 611 314 5 0 0 1 images_loaded - -;
#X obj 542 381 sel 0;
#X obj 446 194 del 100;
#X obj 542 457 s APP-INIT;
#X obj 542 430 del 2000;
#X obj 632 394 bng 15 250 50 0 empty empty empty 17 7 0 10 -262144
-1 -1;
#X obj 542 406 spigot 1;
#X msg 599 406 0;
#X connect 0 0 6 0;
#X connect 1 0 2 0;
#X connect 2 0 3 0;
#X connect 3 0 27 0;
#X connect 3 1 28 0;
#X connect 4 0 5 0;
#X connect 6 0 11 0;
#X connect 9 0 30 1;
#X connect 10 0 30 2;
#X connect 11 0 18 0;
#X connect 11 1 37 0;
#X connect 12 0 14 0;
#X connect 13 1 15 0;
#X connect 13 1 19 0;
#X connect 13 1 31 0;
#X connect 13 1 38 0;
#X connect 14 0 13 0;
#X connect 15 0 13 0;
#X connect 16 0 18 0;
#X connect 17 0 18 0;
#X connect 18 0 34 0;
#X connect 20 0 13 0;
#X connect 21 0 17 0;
#X connect 21 0 14 0;
#X connect 22 0 25 0;
#X connect 23 0 22 0;
#X connect 24 0 25 0;
#X connect 27 0 4 0;
#X connect 27 0 6 1;
#X connect 27 0 32 0;
#X connect 28 0 4 1;
#X connect 28 0 6 2;
#X connect 28 0 33 0;
#X connect 30 0 36 0;
#X connect 34 0 30 0;
#X connect 34 1 35 0;
#X connect 34 2 24 0;
#X connect 35 0 26 0;
#X connect 36 0 29 0;
#X connect 37 0 8 0;
#X connect 38 0 39 0;
#X connect 38 0 42 0;
#X connect 38 0 43 0;
#X connect 39 0 37 0;
#X connect 41 0 40 0;
#X connect 42 0 40 0;
#X connect 43 0 41 0;
#X connect 43 0 54 0;
#X connect 44 1 45 0;
#X connect 45 0 51 0;
#X connect 46 0 44 0;
#X connect 48 0 53 0;
#X connect 50 0 44 0;
#X connect 51 0 48 0;
#X connect 51 1 49 0;
#X connect 51 2 52 0;
#X connect 53 0 58 0;
#X connect 54 0 46 0;
#X connect 56 0 16 0;
#X connect 56 0 55 0;
#X connect 58 0 56 0;
#X connect 58 0 59 0;
#X connect 59 0 58 1;
#X restore 23 234 pd mainHead;
#X obj 23 213 bng 15 250 50 0 empty empty empty 17 7 0 10 -262144 -1
-1;
#X obj 137 180 r mainHead;
#X obj 18 295 mode/manager;
#N canvas 5 130 344 272 fonts 0;
#X obj 42 87 poffonts typo font/Typoster_demo.otf;
#X obj 42 43 poffonts vera font/vera.ttf;
#X obj 42 65 poffonts impact font/Impact.ttf;
#X restore 255 160 pd fonts;
#X obj 17 317 parole/manager;
#X obj 16 419 rec/rec;
#X msg 80 153 framerate 60;
#X msg 18 120 window 800 600 0 \, framerate 60 \, background 0 0 0
;
#X obj 409 444 mode/edit;
#X obj 161 56 loadbang;
#X obj 161 78 del 10000;
#X msg 161 98 build \, bang;
#X obj 301 399 pageHead balance;
#X obj 382 137 loadbang;
#X obj 301 422 balance/GUI;
#X obj 209 600 concert/GUI;
#X obj 165 457 s overHead;
#X msg 382 191 \; page concert;
#X obj 17 340 set/manager;
#X obj 192 289 s pageHead;
#X obj 16 445 song/player;
#N canvas 337 1371 570 416 audioMaster 0;
#X obj 211 163 catch~ Out-1;
#X obj 80 278 *~;
#X obj 96 255 z~ 64;
#X obj 79 223 limiter~;
#X obj 100 162 catch~ Out-0;
#X obj 79 192 *~ 1;
#X obj 192 277 *~;
#X obj 208 254 z~ 64;
#X obj 191 222 limiter~;
#X obj 191 191 *~ 1;
#X obj 77 109 catch~ OutMusic-0;
#X obj 191 110 catch~ OutMusic-1;
#X obj 78 133 *~;
#X obj 190 132 *~;
#X obj 325 147 line~;
#X obj 325 52 r master-music-mute;
#X obj 334 254 s master-music-mute;
#X msg 334 231 0;
#X obj 334 208 loadbang;
#X obj 325 72 == 0;
#X msg 325 124 \$1 100;
#X msg 364 229 1;
#X obj 325 170 *~;
#X obj 325 99 max 0.3;
#X obj 335 304 catch~ OutMusic-rev;
#X obj 335 360 OutMusic~;
#X obj 335 332 rev2~ 90 90 3000 50;
#X obj 115 363 dac~ 1 2 3 4;
#X obj 192 298 mull~ 1 10;
#X obj 79 302 mull~ 1 10;
#X obj 149 239 inlet;
#X obj 151 75 catch~ OUTinstru-2;
#X obj 15 77 catch~ OUTinstru-1;
#X obj 46 387 throw~ REC-l;
#N canvas 0 1172 450 300 getdir 0;
#X obj 136 197 pofutil;
#X msg 136 171 setstring data .;
#X obj 175 16 inlet;
#X obj 109 17 loadbang;
#X obj 136 54 b;
#X obj 136 118 pofutil;
#X msg 136 94 getdir;
#X msg 136 142 symbol \$1/data;
#X obj 186 51 bng 15 250 50 0 empty empty empty 17 7 0 10 -262144 -1
-1;
#X obj 255 179 s datadir;
#X obj 222 210 outlet;
#X connect 1 0 0 0;
#X connect 2 0 4 0;
#X connect 3 0 4 0;
#X connect 4 0 6 0;
#X connect 5 0 7 0;
#X connect 6 0 5 0;
#X connect 7 0 1 0;
#X connect 7 0 10 0;
#X connect 8 0 4 0;
#X restore 163 20 pd getdir;
#X obj 210 389 throw~ REC-r;
#X obj 14 359 s~ REC-l;
#X obj 226 349 s~ REC-r;
#X connect 0 0 9 0;
#X connect 1 0 29 0;
#X connect 2 0 1 1;
#X connect 3 0 1 0;
#X connect 4 0 5 0;
#X connect 5 0 3 0;
#X connect 5 0 2 0;
#X connect 6 0 28 0;
#X connect 7 0 6 1;
#X connect 8 0 6 0;
#X connect 9 0 8 0;
#X connect 9 0 7 0;
#X connect 10 0 12 0;
#X connect 11 0 13 0;
#X connect 12 0 5 0;
#X connect 13 0 9 0;
#X connect 14 0 22 0;
#X connect 14 0 22 1;
#X connect 15 0 19 0;
#X connect 17 0 16 0;
#X connect 18 0 17 0;
#X connect 19 0 23 0;
#X connect 20 0 14 0;
#X connect 21 0 16 0;
#X connect 22 0 13 1;
#X connect 22 0 12 1;
#X connect 23 0 20 0;
#X connect 24 0 26 0;
#X connect 26 0 25 0;
#X connect 26 1 25 1;
#X connect 28 0 27 1;
#X connect 28 0 27 3;
#X connect 28 0 35 0;
#X connect 28 0 37 0;
#X connect 29 0 27 0;
#X connect 29 0 27 2;
#X connect 29 0 33 0;
#X connect 29 0 36 0;
#X connect 30 0 29 1;
#X connect 30 0 28 1;
#X connect 31 0 9 0;
#X connect 32 0 5 0;
#X restore 433 357 pd audioMaster;
#X obj 16 363 song/manager;
#X obj 184 437 song/listGui;
#X obj 343 51 loadbang;
#X msg 343 73 \; pd dsp 1;
#N canvas 248 440 757 435 INIT 0;
#X obj 190 118 s mode;
#X obj 163 15 loadbang;
#X obj 163 65 t b b;
#X obj 155 182 mode/say 1 Allumage;
#X obj 626 69 s set;
#X msg 626 42 symbol Antoine;
#X obj 163 149 del 1;
#X obj 141 42 bng 15 250 50 0 empty empty empty 17 7 0 10 -262144 -1
-1;
#X obj 163 35 del 5000;
#X obj 666 69 s set-load;
#X obj 291 68 del 2000;
#X obj 225 14 r APP-INIT;
#X obj 461 114 t b f;
#X obj 461 136 random;
#X msg 461 65 getnum /;
#X obj 461 89 pofxml sets;
#X floatatom 507 141 5 0 0 0 - - -;
#X msg 461 161 get /set[\$1][@file];
#X obj 461 190 pofxml sets;
#X obj 461 212 route get;
#X obj 461 234 symbol;
#X symbolatom 529 235 0 0 0 0 - - -;
#X obj 461 278 s set;
#X obj 501 278 s set-load;
#X obj 315 169 t b f;
#X obj 315 191 random;
#X msg 315 120 getnum /;
#X floatatom 361 196 5 0 0 0 - - -;
#X obj 315 267 route get;
#X obj 315 289 symbol;
#X symbolatom 383 290 10 0 0 0 - - -;
#X obj 315 144 pofxml modes;
#X msg 315 216 get /mode[\$1][@file];
#X obj 315 245 pofxml modes;
#X obj 315 333 s mode;
#X obj 53 264 s AllumageDecoupeurs;
#X obj 72 227 del 200;
#X msg 190 91 symbol AlainScape;
#X msg 428 129 0;
#X connect 1 0 8 0;
#X connect 2 0 6 0;
#X connect 2 1 37 0;
#X connect 3 0 36 0;
#X connect 5 0 4 0;
#X connect 5 0 9 0;
#X connect 6 0 3 0;
#X connect 7 0 2 0;
#X connect 10 0 38 0;
#X connect 11 0 2 0;
#X connect 11 0 10 0;
#X connect 12 0 13 0;
#X connect 12 1 13 1;
#X connect 13 0 16 0;
#X connect 13 0 17 0;
#X connect 14 0 15 0;
#X connect 15 0 12 0;
#X connect 17 0 18 0;
#X connect 18 0 19 0;
#X connect 19 0 20 0;
#X connect 20 0 21 0;
#X connect 20 0 22 0;
#X connect 20 0 23 0;
#X connect 24 0 25 0;
#X connect 24 1 25 1;
#X connect 25 0 27 0;
#X connect 25 0 32 0;
#X connect 26 0 31 0;
#X connect 28 0 29 0;
#X connect 29 0 30 0;
#X connect 29 0 34 0;
#X connect 31 0 24 0;
#X connect 32 0 33 0;
#X connect 33 0 28 0;
#X connect 36 0 35 0;
#X connect 37 0 0 0;
#X connect 38 0 17 0;
#X restore 274 246 pd INIT;
#X obj 165 308 fixScaleX;
#X obj 409 420 fixScaleX;
#X obj 81 185 tgl 15 0 empty empty empty 17 7 0 10 -262144 -1 -1 0
1;
#X obj 137 203 pofvisible 1;
#X obj 223 177 tgl 15 0 empty empty empty 17 7 0 10 -262144 -1 -1 0
1;
#X obj 209 577 pageHead concert;
#X obj 409 399 pageHead modeEdit;
#X obj 417 97 switch~;
#X obj 417 77 tgl 15 0 empty empty empty 17 7 0 10 -262144 -1 -1 1
1;
#X obj 417 55 loadbang;
#X obj 19 6 declare -path abs -path . -path img;
#X obj 14 29 declare -path abs -path . -path img;
#X obj 432 285 mknob 50 100 0 1 0 0 VolMaster-snd VolMaster-rcv VolMaster
-2 -6 0 8 -258113 -1 -1 0 1;
#X obj 239 7 declare -path abs/extra/iemlib;
#X obj 11 471 instruments/player;
#N canvas 687 449 450 384 cpu 0;
#X obj 29 64 inlet;
#X obj 29 136 poftranslate;
#X obj 29 260 poftexts vera 16;
#X obj 29 208 t a a, f 23;
#X obj 164 234 pofcolor 0 0 0 0.5;
#X obj 164 260 pofrect 80 20 6;
#X obj 51 96 nbx 5 14 -1e+37 1e+37 0 1 empty empty empty 0 -8 0 10
-262144 -1 -1 353 256;
#X obj 112 98 nbx 5 14 -1e+37 1e+37 0 1 empty empty empty 0 -8 0 10
-262144 -1 -1 -287 256;
#X floatatom 306 241 0 0 0 0 - - -;
#X obj 306 153 cputime;
#X obj 306 33 loadbang;
#X obj 306 97 metro 1000;
#X obj 306 125 t b b;
#X obj 306 213 * 0.1;
#X obj 306 182 int;
#X text 329 63 <= on/off;
#X obj 306 64 tgl 15 0 empty empty empty 17 7 0 10 -262144 -1 -1 1
1;
#X msg 142 65 text CPU:\$1%;
#X obj 29 170 fixScaleX;
#X obj 164 281 poftouch 80 20;
#X obj 245 304 route down;
#X obj 245 325 b;
#X obj 245 346 outlet;
#X obj 322 300 loadbang;
#X msg 322 321 1;
#X connect 0 0 1 0;
#X connect 1 0 18 0;
#X connect 3 0 2 0;
#X connect 3 1 4 0;
#X connect 4 0 5 0;
#X connect 5 0 19 0;
#X connect 6 0 1 1;
#X connect 7 0 1 2;
#X connect 9 0 14 0;
#X connect 10 0 16 0;
#X connect 11 0 12 0;
#X connect 12 0 9 0;
#X connect 12 1 9 1;
#X connect 13 0 8 0;
#X connect 13 0 17 0;
#X connect 14 0 13 0;
#X connect 16 0 11 0;
#X connect 17 0 2 0;
#X connect 18 0 3 0;
#X connect 19 1 20 0;
#X connect 20 0 21 0;
#X connect 21 0 22 0;
#X connect 23 0 24 0;
#X connect 24 0 22 0;
#X restore 135 485 pd cpu;
#X msg 164 149 open;
#X obj 332 498 loadbang;
#X msg 332 547 the patch is running!;
#X obj 316 275 mixtape/REC-lr;
#N canvas 1345 612 298 397 instruments_pof 1;
#X obj 42 162 instruments/Baignoire 5;
#X obj 44 187 instruments/Regle 6;
#X obj 44 211 instruments/Aspirateur 7;
#X obj 47 237 instruments/Verres 8;
#X obj 46 266 instruments/Mixeur 9;
#X obj 35 43 instruments/MachineAlaver 0;
#X obj 36 66 instruments/PlateauCouvert 1;
#X obj 38 88 instruments/MicroOnde 2;
#X obj 39 112 instruments/Bidon 3;
#X obj 40 137 instruments/Grille 4;
#X restore 209 644 pd instruments_pof;
#X obj 209 620 concert/instrument_panel;
#X obj 17 386 mixtape/manager;
#X obj 199 393 mixtape/listGui;
#X obj 165 269 t a a;
#X obj 138 223 t a a;
#X obj 165 246 pofvisible 1;
#X obj 189 227 tgl 15 0 empty empty empty 17 7 0 10 -262144 -1 -1 1
1;
#X obj 14 508 confirmToQuit;
#X obj 332 522 del 100;
#X obj 165 329 t a a a a;
#X obj 199 414 mixtape/RecGui;
#X obj 11 546 settings/settings_main;
#X obj 332 575 print SCHOOLSCAPE_DEBUG;
#X obj 412 490 r datadir;
#X msg 412 511 datadir: \$1;
#N canvas 2965 62 751 1010 PopupMulClock 0;
#X obj 44 14 inlet head;
#X obj 42 288 t a a;
#X floatatom 483 533 5 0 0 0 - - -;
#X floatatom 531 540 5 0 0 0 - - -;
#X floatatom 584 778 5 0 0 0 - - -;
#X floatatom 370 359 5 0 0 0 - - -;
#X obj 42 322 t a a;
#X obj 42 615 t a a;
#X obj 41 940 poftexts typo 43;
#X obj 254 919 loadbang;
#X floatatom 229 714 5 0 0 0 - - -;
#X floatatom 158 666 5 0 0 0 - - -;
#X floatatom 139 812 5 0 0 0 - - -;
#X obj 41 895 poftranslate -60 -175;
#X obj 42 183 t a a;
#X obj 69 245 poftouch 6000 6000;
#X obj 174 267 route down;
#X msg 131 196 draw 1;
#X obj 131 174 loadbang;
#X msg 174 291 0;
#X msg 167 87 1;
#X obj 69 219 pofcolor 0 0 0 0.8;
#X floatatom 210 812 5 0 0 0 - - -;
#X obj 167 64 r concert-MessClock-0;
#X msg 254 943 text ClockMess Bureau;
#X obj 135 510 vsl 15 100 0 1 0 0 empty empty empty 0 -9 0 10 -262144
-1 -1 7400 1;
#X floatatom 135 617 5 0 0 0 - - -;
#X obj 202 510 vsl 15 100 0 1 0 0 empty empty empty 0 -9 0 10 -262144
-1 -1 7900 1;
#X floatatom 202 617 5 0 0 0 - - -;
#X obj 269 509 vsl 15 100 0 1 0 0 empty empty empty 0 -9 0 10 -262144
-1 -1 1700 1;
#X floatatom 269 616 5 0 0 0 - - -;
#X obj 336 509 vsl 15 100 0 1 0 0 empty empty empty 0 -9 0 10 -262144
-1 -1 9900 1;
#X floatatom 336 616 5 0 0 0 - - -;
#X obj 69 638 pofcolor 0.75 0.8 0.2 1, f 45;
#X floatatom 158 715 5 0 0 0 - - -;
#X floatatom 123 667 5 0 0 0 - - -;
#X floatatom 143 764 5 0 0 0 - - -;
#X floatatom 106 765 5 0 0 0 - - -;
#X obj 454 602 vsl 15 100 0 1 0 0 empty empty empty 0 -9 0 10 -262144
-1 -1 5700 1;
#X floatatom 454 709 5 0 0 0 - - -;
#X obj 521 602 vsl 15 100 0 1 0 0 empty empty empty 0 -9 0 10 -262144
-1 -1 0 1;
#X floatatom 521 709 5 0 0 0 - - -;
#X obj 588 601 vsl 15 100 0 1 0 0 empty empty empty 0 -9 0 10 -262144
-1 -1 7400 1;
#X floatatom 588 708 5 0 0 0 - - -;
#X obj 655 601 vsl 15 100 0 1 0 0 empty empty empty 0 -9 0 10 -262144
-1 -1 9900 1;
#X floatatom 655 708 5 0 0 0 - - -;
#X floatatom 510 778 5 0 0 0 - - -;
#X obj 437 752 pofcolor 0.6 0 0.7 1, f 37;
#X obj 69 835 pofrect 630 50 10 10 0 0;
#X obj 88 736 pofrect 630 50 0 0 10 10;
#X obj 69 788 poftranslate 0 -234;
#X obj 437 801 pofrect 630 415 10 10 0 0;
#X floatatom 118 865 5 0 0 0 - - -;
#X floatatom 83 866 5 0 0 0 - - -;
#X obj 41 918 pofcolor 0.6 0 0.7 1;
#X obj 88 690 poftranslate 0 226;
#X obj 436 559 poftranslate 0 -6;
#X obj 125 294 bng 15 250 50 0 empty empty empty 17 7 0 10 -262144
-1 -1;
#X obj 290 317 bng 15 250 50 0 empty empty empty 17 7 0 10 -262144
-1 -1;
#X floatatom 309 375 5 0 0 0 - - -;
#X obj 69 368 pofscale 0.25 0.25 1;
#X msg 210 467 slider force 1 \, slider width 150;
#X obj 210 443 loadbang;
#X obj 69 404 scrollList/gui mixtapes 2000 1200 168 mixtape/listItem
;
#X obj 215 96 bng 15 250 50 0 empty empty empty 17 7 0 10 -262144 -1
-1;
#N canvas 486 917 923 603 SliderTime 0;
#X floatatom 150 194 5 0 0 0 - - -;
#X floatatom 196 178 5 0 0 0 - - -;
#X floatatom 244 183 5 0 0 0 - - -;
#X floatatom 289 193 5 0 0 0 - - -;
#X floatatom 80 166 5 0 0 0 - - -;
#X obj 57 124 vsl 15 100 0 1 0 0 empty empty empty 0 -9 0 10 -262144
-1 -1 3400 1;
#X obj 34 38 inlet;
#X obj 34 65 t a a a a a a a a a;
#X obj 2 99 outlet;
#X floatatom 187 294 5 0 0 0 - - -;
#X floatatom 240 296 5 0 0 0 - - -;
#X floatatom 284 294 5 0 0 0 - - -;
#X floatatom 350 294 5 0 0 0 - - -;
#X floatatom 120 290 5 0 0 0 - - -;
#X obj 37 230 instruments/pof_vslider 36 200 -290 -104 200 1 0 0 0.5
;
#X obj 61 320 instruments/pof_vslider 36 200 -250 -104 200 1 0 0 0.5
;
#X floatatom 173 416 5 0 0 0 - - -;
#X floatatom 219 400 5 0 0 0 - - -;
#X floatatom 267 405 5 0 0 0 - - -;
#X floatatom 312 415 5 0 0 0 - - -;
#X floatatom 103 388 5 0 0 0 - - -;
#X obj 80 346 vsl 15 100 0 1 0 0 empty empty empty 0 -9 0 10 -262144
-1 -1 0 1;
#X floatatom 210 516 5 0 0 0 - - -;
#X floatatom 263 518 5 0 0 0 - - -;
#X floatatom 307 516 5 0 0 0 - - -;
#X floatatom 373 516 5 0 0 0 - - -;
#X floatatom 143 512 5 0 0 0 - - -;
#X obj 60 452 instruments/pof_vslider 36 200 -210 -104 200 1 0 0 0.5
;
#X obj 84 542 instruments/pof_vslider 36 200 -170 -104 200 1 0 0 0.5
;
#X floatatom 514 193 5 0 0 0 - - -;
#X floatatom 560 177 5 0 0 0 - - -;
#X floatatom 608 182 5 0 0 0 - - -;
#X floatatom 653 192 5 0 0 0 - - -;
#X floatatom 551 293 5 0 0 0 - - -;
#X floatatom 604 295 5 0 0 0 - - -;
#X floatatom 648 293 5 0 0 0 - - -;
#X floatatom 714 293 5 0 0 0 - - -;
#X floatatom 484 289 5 0 0 0 - - -;
#X floatatom 537 415 5 0 0 0 - - -;
#X floatatom 583 399 5 0 0 0 - - -;
#X floatatom 631 404 5 0 0 0 - - -;
#X floatatom 676 414 5 0 0 0 - - -;
#X floatatom 467 387 5 0 0 0 - - -;
#X floatatom 574 515 5 0 0 0 - - -;
#X floatatom 627 517 5 0 0 0 - - -;
#X floatatom 671 515 5 0 0 0 - - -;
#X floatatom 737 515 5 0 0 0 - - -;
#X floatatom 507 511 5 0 0 0 - - -;
#X obj 401 229 instruments/pof_vslider 36 200 -130 -104 200 1 0 0 0.5
;
#X obj 425 319 instruments/pof_vslider 36 200 -90 -104 200 1 0 0 0.5
;
#X obj 424 451 instruments/pof_vslider 36 200 -50 -104 200 1 0 0 0.5
;
#X obj 448 541 instruments/pof_vslider 36 200 -10 -104 200 1 0 0 0.5
;
#X connect 0 0 14 2;
#X connect 1 0 14 3;
#X connect 2 0 14 4;
#X connect 3 0 14 5;
#X connect 4 0 14 1;
#X connect 5 0 14 1;
#X connect 6 0 7 0;
#X connect 7 0 8 0;
#X connect 7 1 51 0;
#X connect 7 2 50 0;
#X connect 7 3 49 0;
#X connect 7 4 48 0;
#X connect 7 5 28 0;
#X connect 7 6 27 0;
#X connect 7 7 15 0;
#X connect 7 8 14 0;
#X connect 9 0 15 2;
#X connect 10 0 15 3;
#X connect 11 0 15 4;
#X connect 12 0 15 5;
#X connect 13 0 15 1;
#X connect 16 0 27 2;
#X connect 17 0 27 3;
#X connect 18 0 27 4;
#X connect 19 0 27 5;
#X connect 20 0 27 1;
#X connect 21 0 27 1;
#X connect 22 0 28 2;
#X connect 23 0 28 3;
#X connect 24 0 28 4;
#X connect 25 0 28 5;
#X connect 26 0 28 1;
#X connect 29 0 48 2;
#X connect 30 0 48 3;
#X connect 31 0 48 4;
#X connect 32 0 48 5;
#X connect 33 0 49 2;
#X connect 34 0 49 3;
#X connect 35 0 49 4;
#X connect 36 0 49 5;
#X connect 37 0 49 1;
#X connect 38 0 50 2;
#X connect 39 0 50 3;
#X connect 40 0 50 4;
#X connect 41 0 50 5;
#X connect 42 0 50 1;
#X connect 43 0 51 2;
#X connect 44 0 51 3;
#X connect 45 0 51 4;
#X connect 46 0 51 5;
#X connect 47 0 51 1;
#X restore 423 75 pd SliderTime;
#X floatatom 470 20 5 0 0 0 - - -;
#X floatatom 518 27 5 0 0 0 - - -;
#N canvas 486 917 923 603 SliderTime 0;
#X floatatom 150 194 5 0 0 0 - - -;
#X floatatom 196 178 5 0 0 0 - - -;
#X floatatom 244 183 5 0 0 0 - - -;
#X floatatom 289 193 5 0 0 0 - - -;
#X floatatom 80 166 5 0 0 0 - - -;
#X obj 57 124 vsl 15 100 0 1 0 0 empty empty empty 0 -9 0 10 -262144
-1 -1 0 1;
#X obj 34 38 inlet;
#X obj 34 65 t a a a a a a a a a;
#X obj 2 99 outlet;
#X floatatom 187 294 5 0 0 0 - - -;
#X floatatom 240 296 5 0 0 0 - - -;
#X floatatom 284 294 5 0 0 0 - - -;
#X floatatom 350 294 5 0 0 0 - - -;
#X floatatom 120 290 5 0 0 0 - - -;
#X obj 37 230 instruments/pof_vslider 36 200 -290 -104 200 1 0 0 0.5
;
#X obj 61 320 instruments/pof_vslider 36 200 -250 -104 200 1 0 0 0.5
;
#X floatatom 173 416 5 0 0 0 - - -;
#X floatatom 219 400 5 0 0 0 - - -;
#X floatatom 267 405 5 0 0 0 - - -;
#X floatatom 312 415 5 0 0 0 - - -;
#X floatatom 103 388 5 0 0 0 - - -;
#X obj 80 346 vsl 15 100 0 1 0 0 empty empty empty 0 -9 0 10 -262144
-1 -1 0 1;
#X floatatom 210 516 5 0 0 0 - - -;
#X floatatom 263 518 5 0 0 0 - - -;
#X floatatom 307 516 5 0 0 0 - - -;
#X floatatom 373 516 5 0 0 0 - - -;
#X floatatom 143 512 5 0 0 0 - - -;
#X obj 60 452 instruments/pof_vslider 36 200 -210 -104 200 1 0 0 0.5
;
#X obj 84 542 instruments/pof_vslider 36 200 -170 -104 200 1 0 0 0.5
;
#X floatatom 514 193 5 0 0 0 - - -;
#X floatatom 560 177 5 0 0 0 - - -;
#X floatatom 608 182 5 0 0 0 - - -;
#X floatatom 653 192 5 0 0 0 - - -;
#X floatatom 551 293 5 0 0 0 - - -;
#X floatatom 604 295 5 0 0 0 - - -;
#X floatatom 648 293 5 0 0 0 - - -;
#X floatatom 714 293 5 0 0 0 - - -;
#X floatatom 484 289 5 0 0 0 - - -;
#X floatatom 537 415 5 0 0 0 - - -;
#X floatatom 583 399 5 0 0 0 - - -;
#X floatatom 631 404 5 0 0 0 - - -;
#X floatatom 676 414 5 0 0 0 - - -;
#X floatatom 467 387 5 0 0 0 - - -;
#X floatatom 574 515 5 0 0 0 - - -;
#X floatatom 627 517 5 0 0 0 - - -;
#X floatatom 671 515 5 0 0 0 - - -;
#X floatatom 737 515 5 0 0 0 - - -;
#X floatatom 507 511 5 0 0 0 - - -;
#X obj 401 229 instruments/pof_vslider 36 200 -130 -104 200 1 0 0 0.5
;
#X obj 425 319 instruments/pof_vslider 36 200 -90 -104 200 1 0 0 0.5
;
#X obj 424 451 instruments/pof_vslider 36 200 -50 -104 200 1 0 0 0.5
;
#X obj 448 541 instruments/pof_vslider 36 200 -10 -104 200 1 0 0 0.5
;
#X connect 0 0 14 2;
#X connect 1 0 14 3;
#X connect 2 0 14 4;
#X connect 3 0 14 5;
#X connect 4 0 14 1;
#X connect 5 0 14 1;
#X connect 6 0 7 0;
#X connect 7 0 8 0;
#X connect 7 1 51 0;
#X connect 7 2 50 0;
#X connect 7 3 49 0;
#X connect 7 4 48 0;
#X connect 7 5 28 0;
#X connect 7 6 27 0;
#X connect 7 7 15 0;
#X connect 7 8 14 0;
#X connect 9 0 15 2;
#X connect 10 0 15 3;
#X connect 11 0 15 4;
#X connect 12 0 15 5;
#X connect 13 0 15 1;
#X connect 16 0 27 2;
#X connect 17 0 27 3;
#X connect 18 0 27 4;
#X connect 19 0 27 5;
#X connect 20 0 27 1;
#X connect 21 0 27 1;
#X connect 22 0 28 2;
#X connect 23 0 28 3;
#X connect 24 0 28 4;
#X connect 25 0 28 5;
#X connect 26 0 28 1;
#X connect 29 0 48 2;
#X connect 30 0 48 3;
#X connect 31 0 48 4;
#X connect 32 0 48 5;
#X connect 33 0 49 2;
#X connect 34 0 49 3;
#X connect 35 0 49 4;
#X connect 36 0 49 5;
#X connect 37 0 49 1;
#X connect 38 0 50 2;
#X connect 39 0 50 3;
#X connect 40 0 50 4;
#X connect 41 0 50 5;
#X connect 42 0 50 1;
#X connect 43 0 51 2;
#X connect 44 0 51 3;
#X connect 45 0 51 4;
#X connect 46 0 51 5;
#X connect 47 0 51 1;
#X restore 421 155 pd SliderTime;
#X floatatom 468 100 5 0 0 0 - - -;
#X floatatom 516 107 5 0 0 0 - - -;
#N canvas 486 917 923 603 SliderTime 0;
#X floatatom 150 194 5 0 0 0 - - -;
#X floatatom 196 178 5 0 0 0 - - -;
#X floatatom 244 183 5 0 0 0 - - -;
#X floatatom 289 193 5 0 0 0 - - -;
#X floatatom 80 166 5 0 0 0 - - -;
#X obj 57 124 vsl 15 100 0 1 0 0 empty empty empty 0 -9 0 10 -262144
-1 -1 0 1;
#X obj 34 38 inlet;
#X obj 34 65 t a a a a a a a a a;
#X obj 2 99 outlet;
#X floatatom 187 294 5 0 0 0 - - -;
#X floatatom 240 296 5 0 0 0 - - -;
#X floatatom 284 294 5 0 0 0 - - -;
#X floatatom 350 294 5 0 0 0 - - -;
#X floatatom 120 290 5 0 0 0 - - -;
#X obj 37 230 instruments/pof_vslider 36 200 -290 -104 200 1 0 0 0.5
;
#X obj 61 320 instruments/pof_vslider 36 200 -250 -104 200 1 0 0 0.5
;
#X floatatom 173 416 5 0 0 0 - - -;
#X floatatom 219 400 5 0 0 0 - - -;
#X floatatom 267 405 5 0 0 0 - - -;
#X floatatom 312 415 5 0 0 0 - - -;
#X floatatom 103 388 5 0 0 0 - - -;
#X obj 80 346 vsl 15 100 0 1 0 0 empty empty empty 0 -9 0 10 -262144
-1 -1 0 1;
#X floatatom 210 516 5 0 0 0 - - -;
#X floatatom 263 518 5 0 0 0 - - -;
#X floatatom 307 516 5 0 0 0 - - -;
#X floatatom 373 516 5 0 0 0 - - -;
#X floatatom 143 512 5 0 0 0 - - -;
#X obj 60 452 instruments/pof_vslider 36 200 -210 -104 200 1 0 0 0.5
;
#X obj 84 542 instruments/pof_vslider 36 200 -170 -104 200 1 0 0 0.5
;
#X floatatom 514 193 5 0 0 0 - - -;
#X floatatom 560 177 5 0 0 0 - - -;
#X floatatom 608 182 5 0 0 0 - - -;
#X floatatom 653 192 5 0 0 0 - - -;
#X floatatom 551 293 5 0 0 0 - - -;
#X floatatom 604 295 5 0 0 0 - - -;
#X floatatom 648 293 5 0 0 0 - - -;
#X floatatom 714 293 5 0 0 0 - - -;
#X floatatom 484 289 5 0 0 0 - - -;
#X floatatom 537 415 5 0 0 0 - - -;
#X floatatom 583 399 5 0 0 0 - - -;
#X floatatom 631 404 5 0 0 0 - - -;
#X floatatom 676 414 5 0 0 0 - - -;
#X floatatom 467 387 5 0 0 0 - - -;
#X floatatom 574 515 5 0 0 0 - - -;
#X floatatom 627 517 5 0 0 0 - - -;
#X floatatom 671 515 5 0 0 0 - - -;
#X floatatom 737 515 5 0 0 0 - - -;
#X floatatom 507 511 5 0 0 0 - - -;
#X obj 401 229 instruments/pof_vslider 36 200 -130 -104 200 1 0 0 0.5
;
#X obj 425 319 instruments/pof_vslider 36 200 -90 -104 200 1 0 0 0.5
;
#X obj 424 451 instruments/pof_vslider 36 200 -50 -104 200 1 0 0 0.5
;
#X obj 448 541 instruments/pof_vslider 36 200 -10 -104 200 1 0 0 0.5
;
#X connect 0 0 14 2;
#X connect 1 0 14 3;
#X connect 2 0 14 4;
#X connect 3 0 14 5;
#X connect 4 0 14 1;
#X connect 5 0 14 1;
#X connect 6 0 7 0;
#X connect 7 0 8 0;
#X connect 7 1 51 0;
#X connect 7 2 50 0;
#X connect 7 3 49 0;
#X connect 7 4 48 0;
#X connect 7 5 28 0;
#X connect 7 6 27 0;
#X connect 7 7 15 0;
#X connect 7 8 14 0;
#X connect 9 0 15 2;
#X connect 10 0 15 3;
#X connect 11 0 15 4;
#X connect 12 0 15 5;
#X connect 13 0 15 1;
#X connect 16 0 27 2;
#X connect 17 0 27 3;
#X connect 18 0 27 4;
#X connect 19 0 27 5;
#X connect 20 0 27 1;
#X connect 21 0 27 1;
#X connect 22 0 28 2;
#X connect 23 0 28 3;
#X connect 24 0 28 4;
#X connect 25 0 28 5;
#X connect 26 0 28 1;
#X connect 29 0 48 2;
#X connect 30 0 48 3;
#X connect 31 0 48 4;
#X connect 32 0 48 5;
#X connect 33 0 49 2;
#X connect 34 0 49 3;
#X connect 35 0 49 4;
#X connect 36 0 49 5;
#X connect 37 0 49 1;
#X connect 38 0 50 2;
#X connect 39 0 50 3;
#X connect 40 0 50 4;
#X connect 41 0 50 5;
#X connect 42 0 50 1;
#X connect 43 0 51 2;
#X connect 44 0 51 3;
#X connect 45 0 51 4;
#X connect 46 0 51 5;
#X connect 47 0 51 1;
#X restore 419 236 pd SliderTime;
#X floatatom 466 181 5 0 0 0 - - -;
#X floatatom 514 188 5 0 0 0 - - -;
#N canvas 486 917 923 603 SliderTime 0;
#X floatatom 150 194 5 0 0 0 - - -;
#X floatatom 196 178 5 0 0 0 - - -;
#X floatatom 244 183 5 0 0 0 - - -;
#X floatatom 289 193 5 0 0 0 - - -;
#X floatatom 80 166 5 0 0 0 - - -;
#X obj 57 124 vsl 15 100 0 1 0 0 empty empty empty 0 -9 0 10 -262144
-1 -1 0 1;
#X obj 34 38 inlet;
#X obj 34 65 t a a a a a a a a a;
#X obj 2 99 outlet;
#X floatatom 187 294 5 0 0 0 - - -;
#X floatatom 240 296 5 0 0 0 - - -;
#X floatatom 284 294 5 0 0 0 - - -;
#X floatatom 350 294 5 0 0 0 - - -;
#X floatatom 120 290 5 0 0 0 - - -;
#X obj 37 230 instruments/pof_vslider 36 200 -290 -104 200 1 0 0 0.5
;
#X obj 61 320 instruments/pof_vslider 36 200 -250 -104 200 1 0 0 0.5
;
#X floatatom 173 416 5 0 0 0 - - -;
#X floatatom 219 400 5 0 0 0 - - -;
#X floatatom 267 405 5 0 0 0 - - -;
#X floatatom 312 415 5 0 0 0 - - -;
#X floatatom 103 388 5 0 0 0 - - -;
#X obj 80 346 vsl 15 100 0 1 0 0 empty empty empty 0 -9 0 10 -262144
-1 -1 0 1;
#X floatatom 210 516 5 0 0 0 - - -;
#X floatatom 263 518 5 0 0 0 - - -;
#X floatatom 307 516 5 0 0 0 - - -;
#X floatatom 373 516 5 0 0 0 - - -;
#X floatatom 143 512 5 0 0 0 - - -;
#X obj 60 452 instruments/pof_vslider 36 200 -210 -104 200 1 0 0 0.5
;
#X obj 84 542 instruments/pof_vslider 36 200 -170 -104 200 1 0 0 0.5
;
#X floatatom 514 193 5 0 0 0 - - -;
#X floatatom 560 177 5 0 0 0 - - -;
#X floatatom 608 182 5 0 0 0 - - -;
#X floatatom 653 192 5 0 0 0 - - -;
#X floatatom 551 293 5 0 0 0 - - -;
#X floatatom 604 295 5 0 0 0 - - -;
#X floatatom 648 293 5 0 0 0 - - -;
#X floatatom 714 293 5 0 0 0 - - -;
#X floatatom 484 289 5 0 0 0 - - -;
#X floatatom 537 415 5 0 0 0 - - -;
#X floatatom 583 399 5 0 0 0 - - -;
#X floatatom 631 404 5 0 0 0 - - -;
#X floatatom 676 414 5 0 0 0 - - -;
#X floatatom 467 387 5 0 0 0 - - -;
#X floatatom 574 515 5 0 0 0 - - -;
#X floatatom 627 517 5 0 0 0 - - -;
#X floatatom 671 515 5 0 0 0 - - -;
#X floatatom 737 515 5 0 0 0 - - -;
#X floatatom 507 511 5 0 0 0 - - -;
#X obj 401 229 instruments/pof_vslider 36 200 -130 -104 200 1 0 0 0.5
;
#X obj 425 319 instruments/pof_vslider 36 200 -90 -104 200 1 0 0 0.5
;
#X obj 424 451 instruments/pof_vslider 36 200 -50 -104 200 1 0 0 0.5
;
#X obj 448 541 instruments/pof_vslider 36 200 -10 -104 200 1 0 0 0.5
;
#X connect 0 0 14 2;
#X connect 1 0 14 3;
#X connect 2 0 14 4;
#X connect 3 0 14 5;
#X connect 4 0 14 1;
#X connect 5 0 14 1;
#X connect 6 0 7 0;
#X connect 7 0 8 0;
#X connect 7 1 51 0;
#X connect 7 2 50 0;
#X connect 7 3 49 0;
#X connect 7 4 48 0;
#X connect 7 5 28 0;
#X connect 7 6 27 0;
#X connect 7 7 15 0;
#X connect 7 8 14 0;
#X connect 9 0 15 2;
#X connect 10 0 15 3;
#X connect 11 0 15 4;
#X connect 12 0 15 5;
#X connect 13 0 15 1;
#X connect 16 0 27 2;
#X connect 17 0 27 3;
#X connect 18 0 27 4;
#X connect 19 0 27 5;
#X connect 20 0 27 1;
#X connect 21 0 27 1;
#X connect 22 0 28 2;
#X connect 23 0 28 3;
#X connect 24 0 28 4;
#X connect 25 0 28 5;
#X connect 26 0 28 1;
#X connect 29 0 48 2;
#X connect 30 0 48 3;
#X connect 31 0 48 4;
#X connect 32 0 48 5;
#X connect 33 0 49 2;
#X connect 34 0 49 3;
#X connect 35 0 49 4;
#X connect 36 0 49 5;
#X connect 37 0 49 1;
#X connect 38 0 50 2;
#X connect 39 0 50 3;
#X connect 40 0 50 4;
#X connect 41 0 50 5;
#X connect 42 0 50 1;
#X connect 43 0 51 2;
#X connect 44 0 51 3;
#X connect 45 0 51 4;
#X connect 46 0 51 5;
#X connect 47 0 51 1;
#X restore 417 316 pd SliderTime;
#X floatatom 464 261 5 0 0 0 - - -;
#X floatatom 512 268 5 0 0 0 - - -;
#X obj 42 159 pofvisible;
#X obj 423 46 poftranslate -33 -1;
#X obj 421 126 poftranslate 0 203;
#X obj 419 207 poftranslate 366 -204;
#X obj 417 287 poftranslate 0 203;
#X connect 0 0 77 0;
#X connect 1 0 6 0;
#X connect 1 1 56 0;
#X connect 2 0 56 1;
#X connect 3 0 56 2;
#X connect 4 0 51 2;
#X connect 6 0 7 0;
#X connect 6 1 78 0;
#X connect 7 0 13 0;
#X connect 7 1 33 0;
#X connect 9 0 24 0;
#X connect 10 0 49 2;
#X connect 11 0 55 2;
#X connect 12 0 48 1;
#X connect 13 0 54 0;
#X connect 14 0 1 0;
#X connect 14 1 21 0;
#X connect 15 1 16 0;
#X connect 16 0 19 0;
#X connect 16 0 57 0;
#X connect 16 1 58 0;
#X connect 17 0 15 0;
#X connect 18 0 17 0;
#X connect 19 0 77 0;
#X connect 20 0 77 0;
#X connect 21 0 15 0;
#X connect 22 0 48 2;
#X connect 23 0 20 0;
#X connect 23 0 64 0;
#X connect 24 0 8 0;
#X connect 25 0 26 0;
#X connect 26 0 33 1;
#X connect 27 0 28 0;
#X connect 28 0 33 2;
#X connect 29 0 30 0;
#X connect 30 0 33 3;
#X connect 31 0 32 0;
#X connect 32 0 33 4;
#X connect 33 0 50 0;
#X connect 33 0 55 0;
#X connect 34 0 49 1;
#X connect 35 0 55 1;
#X connect 36 0 50 2;
#X connect 37 0 50 1;
#X connect 38 0 39 0;
#X connect 39 0 47 1;
#X connect 40 0 41 0;
#X connect 41 0 47 2;
#X connect 42 0 43 0;
#X connect 43 0 47 3;
#X connect 44 0 45 0;
#X connect 45 0 47 4;
#X connect 46 0 51 1;
#X connect 47 0 51 0;
#X connect 50 0 48 0;
#X connect 52 0 13 2;
#X connect 53 0 13 1;
#X connect 54 0 8 0;
#X connect 55 0 49 0;
#X connect 56 0 47 0;
#X connect 60 0 63 0;
#X connect 61 0 63 1;
#X connect 62 0 61 0;
#X connect 65 0 79 0;
#X connect 66 0 78 1;
#X connect 67 0 78 2;
#X connect 68 0 80 0;
#X connect 69 0 79 1;
#X connect 70 0 79 2;
#X connect 71 0 81 0;
#X connect 72 0 80 1;
#X connect 73 0 80 2;
#X connect 75 0 81 1;
#X connect 76 0 81 2;
#X connect 77 0 14 0;
#X connect 78 0 65 0;
#X connect 79 0 68 0;
#X connect 80 0 71 0;
#X connect 81 0 74 0;
#X restore 213 362 pd PopupMulClock;
#X connect 1 0 0 0;
#X connect 2 0 11 0;
#X connect 4 0 3 0;
#X connect 5 0 34 0;
#X connect 10 0 0 0;
#X connect 13 0 14 0;
#X connect 14 0 15 0;
#X connect 15 0 0 0;
#X connect 16 0 18 0;
#X connect 17 0 21 0;
#X connect 19 0 52 0;
#X connect 28 0 29 0;
#X connect 31 0 61 0;
#X connect 32 0 12 0;
#X connect 33 0 0 0;
#X connect 34 0 56 0;
#X connect 35 0 34 0;
#X connect 36 0 19 0;
#X connect 37 0 32 0;
#X connect 39 0 38 0;
#X connect 40 0 39 0;
#X connect 43 0 25 0;
#X connect 46 0 58 0;
#X connect 47 0 0 0;
#X connect 48 0 60 0;
#X connect 49 0 64 0;
#X connect 55 0 31 0;
#X connect 55 1 23 0;
#X connect 56 0 46 0;
#X connect 56 1 57 0;
#X connect 57 0 55 0;
#X connect 58 0 57 0;
#X connect 60 0 49 0;
#X connect 61 0 20 0;
#X connect 61 1 27 0;
#X connect 61 2 54 0;
#X connect 61 3 67 0;
#X connect 65 0 66 0;
#X connect 66 0 64 0;
