#N canvas 891 167 477 208 10;
#X obj 22 7 cnv 15 300 30 empty empty Schoolscape_Bootloader 10 15
2 26 -233017 -66577 0;
#N canvas 1155 209 704 747 guts 1;
#X obj 29 2 loadbang;
#X obj 177 113 r datadir;
#X obj 138 136 symbol;
#X obj 138 87 t b b;
#X obj 216 80 s getPaths;
#X obj 375 69 text define \$0-versiontext;
#X obj 29 59 t b b, f 16;
#X obj 136 25 bng 15 250 50 0 empty empty empty 17 7 0 10 -262144 -1
-1;
#X obj 375 24 r \$0-loadversiontext;
#X msg 138 159 symbol \$1/pd;
#N canvas 1 82 450 300 getversion 0;
#X obj 29 131 text get \$0-versiontext;
#X msg 29 107 0;
#X obj 61 106 s \$0-loadversiontext;
#X obj 29 83 t b s;
#X obj 29 59 inlet dir;
#X obj 29 213 outlet;
#X obj 29 157 route bang;
#X msg 29 181 symbol 0.0.0;
#X connect 0 0 6 0;
#X connect 1 0 0 0;
#X connect 3 0 1 0;
#X connect 3 1 2 0;
#X connect 4 0 3 0;
#X connect 6 0 7 0;
#X connect 6 1 5 0;
#X connect 7 0 5 0;
#X restore 138 204 pd getversion;
#X symbolatom 138 238 10 0 0 3 local - -;
#N canvas 1 82 450 300 getversion 0;
#X obj 29 131 text get \$0-versiontext;
#X msg 29 107 0;
#X obj 61 106 s \$0-loadversiontext;
#X obj 29 83 t b s;
#X obj 29 59 inlet dir;
#X obj 29 213 outlet;
#X obj 29 157 route bang;
#X msg 29 181 symbol 0.0.0;
#X connect 0 0 6 0;
#X connect 1 0 0 0;
#X connect 3 0 1 0;
#X connect 3 1 2 0;
#X connect 4 0 3 0;
#X connect 6 0 7 0;
#X connect 6 1 5 0;
#X connect 7 0 5 0;
#X restore 29 214 pd getversion;
#X symbolatom 29 238 10 0 0 3 app - -;
#X msg 29 102 getdir;
#X obj 29 126 pofutil;
#X msg 29 150 symbol \$1;
#X msg 375 46 clear \, read -c \$1/VERSION;
#N canvas 1075 127 616 700 compare_version 0;
#X obj 41 27 inlet;
#X obj 289 26 inlet;
#X obj 41 51 list fromsymbol;
#X obj 64 103 list split 1;
#X obj 104 127 t a;
#X obj 41 78 t b a b;
#X obj 64 155 sel 46;
#X obj 64 179 32;
#X obj 64 228 t a;
#X msg 161 103 list;
#X obj 41 256 list;
#X obj 41 281 fudiparse;
#X obj 64 203 list append;
#X obj 289 52 list fromsymbol;
#X obj 312 104 list split 1;
#X obj 352 128 t a;
#X obj 289 79 t b a b;
#X obj 312 156 sel 46;
#X obj 312 180 32;
#X obj 312 229 t a;
#X msg 409 104 list;
#X obj 289 257 list;
#X obj 289 282 fudiparse;
#X obj 312 204 list append;
#X obj 41 306 t a a;
#X obj 73 331 list length;
#X obj 41 361 list prepend;
#X msg 79 415 \$1 0 0;
#X msg 132 415 \$1 \$2 0;
#X msg 193 415 0 0 0;
#X obj 41 449 t a;
#X obj 41 385 route 3 1 2, f 17;
#X obj 289 306 t a a;
#X obj 321 331 list length;
#X obj 289 361 list prepend;
#X msg 327 415 \$1 0 0;
#X msg 380 415 \$1 \$2 0;
#X msg 441 415 0 0 0;
#X obj 289 449 t a;
#X obj 289 385 route 3 1 2, f 17;
#X obj 41 473 unpack f f f;
#X obj 289 472 unpack f f f;
#X obj 41 516 -;
#X obj 41 564 moses 0;
#X msg 41 588 -1;
#X obj 99 564 sel 0;
#X msg 131 588 1;
#X obj 207 518 -;
#X obj 189 541 f;
#X obj 352 514 -;
#X obj 334 537 f;
#X obj 189 563 moses 0;
#X msg 189 587 -1;
#X obj 247 563 sel 0;
#X msg 279 587 1;
#X obj 334 560 moses 0;
#X msg 334 584 -1;
#X obj 392 560 sel 0;
#X msg 424 584 1;
#X msg 390 585 0;
#X obj 189 636 f;
#X floatatom 242 661 5 0 0 0 - - -;
#X msg 95 27 symbol 0.1.1;
#X msg 356 26 symbol 0.1.3;
#X obj 189 660 outlet;
#X connect 0 0 2 0;
#X connect 1 0 13 0;
#X connect 2 0 5 0;
#X connect 3 0 6 0;
#X connect 3 1 4 0;
#X connect 4 0 3 0;
#X connect 5 0 10 0;
#X connect 5 1 3 0;
#X connect 5 2 9 0;
#X connect 6 0 7 0;
#X connect 6 1 12 0;
#X connect 7 0 12 0;
#X connect 8 0 10 1;
#X connect 8 0 12 1;
#X connect 9 0 8 0;
#X connect 10 0 11 0;
#X connect 11 0 24 0;
#X connect 12 0 8 0;
#X connect 13 0 16 0;
#X connect 14 0 17 0;
#X connect 14 1 15 0;
#X connect 15 0 14 0;
#X connect 16 0 21 0;
#X connect 16 1 14 0;
#X connect 16 2 20 0;
#X connect 17 0 18 0;
#X connect 17 1 23 0;
#X connect 18 0 23 0;
#X connect 19 0 21 1;
#X connect 19 0 23 1;
#X connect 20 0 19 0;
#X connect 21 0 22 0;
#X connect 22 0 32 0;
#X connect 23 0 19 0;
#X connect 24 0 26 0;
#X connect 24 1 25 0;
#X connect 25 0 26 1;
#X connect 26 0 31 0;
#X connect 27 0 30 0;
#X connect 28 0 30 0;
#X connect 29 0 30 0;
#X connect 30 0 40 0;
#X connect 31 0 30 0;
#X connect 31 1 27 0;
#X connect 31 2 28 0;
#X connect 31 3 29 0;
#X connect 32 0 34 0;
#X connect 32 1 33 0;
#X connect 33 0 34 1;
#X connect 34 0 39 0;
#X connect 35 0 38 0;
#X connect 36 0 38 0;
#X connect 37 0 38 0;
#X connect 38 0 41 0;
#X connect 39 0 38 0;
#X connect 39 1 35 0;
#X connect 39 2 36 0;
#X connect 39 3 37 0;
#X connect 40 0 42 0;
#X connect 40 1 47 0;
#X connect 40 2 49 0;
#X connect 41 0 42 1;
#X connect 41 1 47 1;
#X connect 41 2 49 1;
#X connect 42 0 43 0;
#X connect 43 0 44 0;
#X connect 43 1 45 0;
#X connect 44 0 60 0;
#X connect 45 0 48 0;
#X connect 45 1 46 0;
#X connect 46 0 60 0;
#X connect 47 0 48 1;
#X connect 48 0 51 0;
#X connect 49 0 50 1;
#X connect 50 0 55 0;
#X connect 51 0 52 0;
#X connect 51 1 53 0;
#X connect 52 0 60 0;
#X connect 53 0 50 0;
#X connect 53 1 54 0;
#X connect 54 0 60 0;
#X connect 55 0 56 0;
#X connect 55 1 57 0;
#X connect 56 0 60 0;
#X connect 57 0 59 0;
#X connect 57 1 58 0;
#X connect 58 0 60 0;
#X connect 59 0 60 0;
#X connect 60 0 64 0;
#X connect 60 0 61 0;
#X connect 62 0 2 0;
#X connect 63 0 13 0;
#X restore 29 303 pd compare_version;
#X floatatom 58 330 5 0 0 0 - - -;
#X obj 29 391 sel -1, f 19;
#X obj 29 440 symbol;
#X obj 140 437 symbol;
#X obj 140 414 b;
#X obj 29 173 t s s;
#X obj 274 414 sel -1, f 26;
#X obj 274 479 outlet;
#X msg 432 440 symbol use_original_patch;
#X msg 274 441 symbol use_updated_patch;
#X obj 313 327 print Schoolscape bootloader;
#X msg 313 301 original_version: \$1;
#X msg 467 301 updated_version: \$1;
#X obj 29 30 del 10;
#X obj 29 699 s datadir;
#X obj 68 652 r datadir;
#X obj 29 675 symbol;
#X obj 29 603 t b s, f 47;
#N canvas 1 82 450 300 getminversion 0;
#X obj 29 131 text get \$0-versiontext;
#X obj 61 106 s \$0-loadversiontext;
#X obj 29 83 t b s;
#X obj 29 59 inlet dir;
#X obj 29 213 outlet;
#X obj 29 157 route bang;
#X msg 29 181 symbol 0.0.0;
#X msg 29 107 1;
#X connect 0 0 5 0;
#X connect 2 0 7 0;
#X connect 2 1 1 0;
#X connect 3 0 2 0;
#X connect 5 0 6 0;
#X connect 5 1 4 0;
#X connect 6 0 4 0;
#X connect 7 0 0 0;
#X restore 291 204 pd getminversion;
#X symbolatom 291 226 10 0 0 3 minimum - -;
#X obj 29 274 t s s s, f 41;
#N canvas 1075 127 616 700 compare_version 0;
#X obj 41 27 inlet;
#X obj 289 26 inlet;
#X obj 41 51 list fromsymbol;
#X obj 64 103 list split 1;
#X obj 104 127 t a;
#X obj 41 78 t b a b;
#X obj 64 155 sel 46;
#X obj 64 179 32;
#X obj 64 228 t a;
#X msg 161 103 list;
#X obj 41 256 list;
#X obj 41 281 fudiparse;
#X obj 64 203 list append;
#X obj 289 52 list fromsymbol;
#X obj 312 104 list split 1;
#X obj 352 128 t a;
#X obj 289 79 t b a b;
#X obj 312 156 sel 46;
#X obj 312 180 32;
#X obj 312 229 t a;
#X msg 409 104 list;
#X obj 289 257 list;
#X obj 289 282 fudiparse;
#X obj 312 204 list append;
#X obj 41 306 t a a;
#X obj 73 331 list length;
#X obj 41 361 list prepend;
#X msg 79 415 \$1 0 0;
#X msg 132 415 \$1 \$2 0;
#X msg 193 415 0 0 0;
#X obj 41 449 t a;
#X obj 41 385 route 3 1 2, f 17;
#X obj 289 306 t a a;
#X obj 321 331 list length;
#X obj 289 361 list prepend;
#X msg 327 415 \$1 0 0;
#X msg 380 415 \$1 \$2 0;
#X msg 441 415 0 0 0;
#X obj 289 449 t a;
#X obj 289 385 route 3 1 2, f 17;
#X obj 41 473 unpack f f f;
#X obj 289 472 unpack f f f;
#X obj 41 516 -;
#X obj 41 564 moses 0;
#X msg 41 588 -1;
#X obj 99 564 sel 0;
#X msg 131 588 1;
#X obj 207 518 -;
#X obj 189 541 f;
#X obj 352 514 -;
#X obj 334 537 f;
#X obj 189 563 moses 0;
#X msg 189 587 -1;
#X obj 247 563 sel 0;
#X msg 279 587 1;
#X obj 334 560 moses 0;
#X msg 334 584 -1;
#X obj 392 560 sel 0;
#X msg 424 584 1;
#X msg 390 585 0;
#X obj 189 636 f;
#X floatatom 242 661 5 0 0 0 - - -;
#X msg 95 27 symbol 0.1.1;
#X msg 356 26 symbol 0.1.3;
#X obj 189 660 outlet;
#X connect 0 0 2 0;
#X connect 1 0 13 0;
#X connect 2 0 5 0;
#X connect 3 0 6 0;
#X connect 3 1 4 0;
#X connect 4 0 3 0;
#X connect 5 0 10 0;
#X connect 5 1 3 0;
#X connect 5 2 9 0;
#X connect 6 0 7 0;
#X connect 6 1 12 0;
#X connect 7 0 12 0;
#X connect 8 0 10 1;
#X connect 8 0 12 1;
#X connect 9 0 8 0;
#X connect 10 0 11 0;
#X connect 11 0 24 0;
#X connect 12 0 8 0;
#X connect 13 0 16 0;
#X connect 14 0 17 0;
#X connect 14 1 15 0;
#X connect 15 0 14 0;
#X connect 16 0 21 0;
#X connect 16 1 14 0;
#X connect 16 2 20 0;
#X connect 17 0 18 0;
#X connect 17 1 23 0;
#X connect 18 0 23 0;
#X connect 19 0 21 1;
#X connect 19 0 23 1;
#X connect 20 0 19 0;
#X connect 21 0 22 0;
#X connect 22 0 32 0;
#X connect 23 0 19 0;
#X connect 24 0 26 0;
#X connect 24 1 25 0;
#X connect 25 0 26 1;
#X connect 26 0 31 0;
#X connect 27 0 30 0;
#X connect 28 0 30 0;
#X connect 29 0 30 0;
#X connect 30 0 40 0;
#X connect 31 0 30 0;
#X connect 31 1 27 0;
#X connect 31 2 28 0;
#X connect 31 3 29 0;
#X connect 32 0 34 0;
#X connect 32 1 33 0;
#X connect 33 0 34 1;
#X connect 34 0 39 0;
#X connect 35 0 38 0;
#X connect 36 0 38 0;
#X connect 37 0 38 0;
#X connect 38 0 41 0;
#X connect 39 0 38 0;
#X connect 39 1 35 0;
#X connect 39 2 36 0;
#X connect 39 3 37 0;
#X connect 40 0 42 0;
#X connect 40 1 47 0;
#X connect 40 2 49 0;
#X connect 41 0 42 1;
#X connect 41 1 47 1;
#X connect 41 2 49 1;
#X connect 42 0 43 0;
#X connect 43 0 44 0;
#X connect 43 1 45 0;
#X connect 44 0 60 0;
#X connect 45 0 48 0;
#X connect 45 1 46 0;
#X connect 46 0 60 0;
#X connect 47 0 48 1;
#X connect 48 0 51 0;
#X connect 49 0 50 1;
#X connect 50 0 55 0;
#X connect 51 0 52 0;
#X connect 51 1 53 0;
#X connect 52 0 60 0;
#X connect 53 0 50 0;
#X connect 53 1 54 0;
#X connect 54 0 60 0;
#X connect 55 0 56 0;
#X connect 55 1 57 0;
#X connect 56 0 60 0;
#X connect 57 0 59 0;
#X connect 57 1 58 0;
#X connect 58 0 60 0;
#X connect 59 0 60 0;
#X connect 60 0 64 0;
#X connect 60 0 61 0;
#X connect 62 0 2 0;
#X connect 63 0 13 0;
#X restore 171 300 pd compare_version;
#X obj 29 364 *, f 20;
#X obj 171 324 >= 0;
#X floatatom 210 328 5 0 0 0 - - -;
#X msg 308 626 \; pd open app_master.pd \$1;
#X obj 480 394 == -1;
#X obj 480 418 s APP_IS_UPDATE;
#X obj 111 698 s APP_IS_UPDATE;
#X obj 111 675 v APP_IS_UPDATE;
#X obj 227 675 v APP_EDITON_MODE;
#X obj 227 698 s APP_EDITON_MODE;
#X obj 29 482 t b s, f 9;
#X obj 29 581 symbol, f 9;
#X text 95 538 wait splash is displayed;
#X obj 103 481 s \$0-patchdir;
#X floatatom 167 733 5 0 0 0 - - -;
#X floatatom 255 736 5 0 0 0 - - -;
#X obj 220 622 bng 15 250 50 0 empty empty empty 17 7 0 10 -262144
-1 -1;
#X obj 29 512 r \$0-splash_loaded;
#X msg 151 521 stop;
#X obj 29 536 del 1000;
#X obj 55 193 s \$0-origdir;
#X obj 171 416 r \$0-origdir;
#X obj 46 413 r \$0-updatdir;
#X obj 155 183 s \$0-updatdir;
#X obj 430 549 symbol;
#X obj 562 540 symbol;
#X obj 595 519 r \$0-origdir;
#X obj 463 528 r \$0-updatdir;
#X obj 430 482 r \$0-runUpdated;
#X obj 562 478 r \$0-runOriginal;
#X obj 509 572 s APP_IS_UPDATE;
#X msg 469 504 1;
#X msg 603 500 0;
#X obj 430 504 t b b;
#X obj 562 498 t b b;
#X obj 275 531 s \$0-settingsShowUpdated;
#X msg 275 510 1;
#X obj 151 501 r \$0-showSettings;
#X obj 460 664 s \$0-splash_hide_settings_gear;
#X obj 29 558 del 200;
#X connect 0 0 32 0;
#X connect 1 0 2 1;
#X connect 2 0 9 0;
#X connect 3 0 2 0;
#X connect 6 0 14 0;
#X connect 6 1 3 0;
#X connect 7 0 6 0;
#X connect 8 0 17 0;
#X connect 9 0 10 0;
#X connect 9 0 37 0;
#X connect 9 0 64 0;
#X connect 10 0 11 0;
#X connect 11 0 18 1;
#X connect 11 0 31 0;
#X connect 12 0 13 0;
#X connect 13 0 39 0;
#X connect 14 0 15 0;
#X connect 15 0 16 0;
#X connect 16 0 24 0;
#X connect 17 0 5 0;
#X connect 18 0 19 0;
#X connect 18 0 41 0;
#X connect 20 0 21 0;
#X connect 20 0 77 0;
#X connect 20 1 23 0;
#X connect 21 0 51 0;
#X connect 22 0 51 0;
#X connect 23 0 22 0;
#X connect 24 0 12 0;
#X connect 24 1 61 0;
#X connect 25 0 28 0;
#X connect 25 1 27 0;
#X connect 27 0 26 0;
#X connect 28 0 26 0;
#X connect 30 0 29 0;
#X connect 31 0 29 0;
#X connect 32 0 6 0;
#X connect 34 0 35 1;
#X connect 35 0 33 0;
#X connect 36 0 35 0;
#X connect 36 0 48 0;
#X connect 36 0 49 0;
#X connect 36 1 44 0;
#X connect 37 0 38 0;
#X connect 38 0 40 1;
#X connect 39 0 18 0;
#X connect 39 1 40 0;
#X connect 39 2 30 0;
#X connect 40 0 42 0;
#X connect 40 0 43 0;
#X connect 41 0 25 0;
#X connect 41 0 45 0;
#X connect 41 0 20 0;
#X connect 42 0 41 1;
#X connect 45 0 46 0;
#X connect 48 0 47 0;
#X connect 48 0 55 0;
#X connect 49 0 50 0;
#X connect 49 0 56 0;
#X connect 51 1 52 1;
#X connect 51 1 54 0;
#X connect 52 0 36 0;
#X connect 57 0 48 0;
#X connect 57 0 49 0;
#X connect 58 0 60 0;
#X connect 59 0 60 0;
#X connect 60 0 80 0;
#X connect 60 0 79 0;
#X connect 62 0 22 1;
#X connect 63 0 21 1;
#X connect 65 0 36 0;
#X connect 66 0 36 0;
#X connect 67 0 66 1;
#X connect 68 0 65 1;
#X connect 69 0 74 0;
#X connect 70 0 75 0;
#X connect 72 0 71 0;
#X connect 73 0 71 0;
#X connect 74 0 65 0;
#X connect 74 1 72 0;
#X connect 75 0 66 0;
#X connect 75 1 73 0;
#X connect 77 0 76 0;
#X connect 78 0 59 0;
#X connect 80 0 52 0;
#X restore 29 97 pd guts;
#X symbolatom 29 122 0 0 0 0 - - -;
#X text 28 46 Run the "updated" patch (the one which has been downloaded
into "data/pd" directory) \, only if its version is strictly greater
than the original "app" version.;
#X obj 29 146 print Schoolscape bootloader;
#N canvas 549 242 591 619 splash 1;
#X obj 8 10 pofhead;
#X obj 40 98 pofvisible 1;
#X obj 72 155 pofimage;
#X obj 266 76 r \$0-patchdir;
#X msg 266 100 set \$1/img/splash.png;
#X msg 53 62 0;
#X obj 212 147 pofwin;
#X obj 212 171 route window;
#X obj 212 193 unpack f f;
#X obj 125 178 route size;
#X obj 125 202 unpack f f;
#X obj 125 255 /;
#X obj 192 256 /;
#X obj 125 279 >, f 10;
#X obj 125 304 sel 1 0, f 8;
#X obj 125 328 f;
#X obj 159 329 f;
#X obj 53 38 r APP-INIT;
#X obj 260 338 moses 1;
#X obj 306 361 b;
#X obj 382 305 b;
#X obj 382 329 del 5000;
#X msg 342 331 stop;
#X obj 40 123 t a a;
#X msg 87 61 1;
#X obj 40 451 poftranslate;
#X obj 40 477 pofimage img/Settings.png 100;
#X msg 125 352 \$1 0;
#X msg 159 352 0 \$1;
#X obj 125 376 unpack f f;
#X obj 279 216 t b f;
#X obj 212 217 t b f;
#X obj 114 426 * 0.35;
#X obj 181 431 * 0.2;
#X obj 67 425 * 0.42;
#X obj 40 500 poftouch, f 33;
#X obj 235 539 b;
#X obj 267 541 bng 15 250 50 0 empty empty empty 17 7 0 10 -262144
-1 -1;
#X msg 418 301 stop;
#X obj 306 427 s \$0-splash_loaded;
#X obj 306 404 spigot 1;
#X msg 417 364 0;
#X obj 8 52 t a a;
#X obj 8 549 outlet;
#X obj 311 242 s \$0-windowheight;
#X obj 235 565 s \$0-showSettings;
#X obj 418 277 r \$0-showSettings;
#X obj 235 519 route down;
#X obj 40 321 pofvisible 1;
#X msg 317 498 0;
#X obj 317 477 r \$0-splash_hide_settings_gear;
#X connect 0 0 42 0;
#X connect 1 0 23 0;
#X connect 2 1 9 0;
#X connect 3 0 4 0;
#X connect 3 0 20 0;
#X connect 4 0 2 0;
#X connect 5 0 1 0;
#X connect 6 0 7 0;
#X connect 7 0 8 0;
#X connect 8 0 31 0;
#X connect 8 1 30 0;
#X connect 9 0 10 0;
#X connect 10 0 11 0;
#X connect 10 0 18 0;
#X connect 10 1 12 0;
#X connect 11 0 13 0;
#X connect 12 0 13 1;
#X connect 13 0 14 0;
#X connect 14 0 15 0;
#X connect 14 1 16 0;
#X connect 15 0 27 0;
#X connect 16 0 28 0;
#X connect 17 0 5 0;
#X connect 18 1 19 0;
#X connect 19 0 22 0;
#X connect 19 0 40 0;
#X connect 20 0 21 0;
#X connect 21 0 40 0;
#X connect 22 0 21 0;
#X connect 23 0 48 0;
#X connect 23 1 2 0;
#X connect 24 0 1 0;
#X connect 25 0 26 0;
#X connect 26 0 35 0;
#X connect 27 0 29 0;
#X connect 28 0 29 0;
#X connect 29 0 2 1;
#X connect 29 1 2 2;
#X connect 30 0 12 0;
#X connect 30 1 12 1;
#X connect 30 1 16 1;
#X connect 30 1 32 0;
#X connect 30 1 33 0;
#X connect 30 1 44 0;
#X connect 31 0 11 0;
#X connect 31 1 15 1;
#X connect 31 1 11 1;
#X connect 31 1 34 0;
#X connect 32 0 25 2;
#X connect 33 0 26 1;
#X connect 33 0 35 1;
#X connect 33 0 35 2;
#X connect 34 0 25 1;
#X connect 35 1 47 0;
#X connect 36 0 37 0;
#X connect 36 0 45 0;
#X connect 38 0 21 0;
#X connect 38 0 41 0;
#X connect 40 0 39 0;
#X connect 41 0 40 1;
#X connect 42 0 43 0;
#X connect 42 1 1 0;
#X connect 46 0 38 0;
#X connect 47 0 36 0;
#X connect 48 0 25 0;
#X connect 49 0 48 0;
#X connect 50 0 49 0;
#X restore 265 122 pd splash;
#N canvas 328 494 863 529 settings 0;
#X obj 18 11 inlet;
#X obj 18 52 pofvisible;
#X msg 73 25 1;
#X obj 64 125 pofrect 1e+06 16e;
#X obj 568 235 poftranslate 0 -200;
#X obj 568 259 pofcolor 0 1 0 1;
#X obj 568 283 t a a;
#X obj 600 308 poffill 0;
#X obj 703 256 r \$0-windowheight;
#X obj 284 26 poffonts \$0-font font/vera.ttf;
#X obj 601 354 loadbang;
#X obj 568 413 poftexts \$0-font 30;
#X obj 703 280 / 500;
#X obj 675 306 * 500;
#X obj 751 306 * 70;
#X obj 600 331 poftouch 500 70, f 22;
#X msg 670 354 draw 1;
#X obj 717 306 * 30;
#X msg 750 355 size \$1;
#X obj 651 281 * -200;
#X obj 64 105 pofcolor 0.15 0 0 0.85;
#X msg 601 378 text RUN ORIGINAL VERSION;
#X obj 298 262 pofcolor 0 1 0 1;
#X obj 298 286 t a a;
#X obj 330 311 poffill 0;
#X obj 433 259 r \$0-windowheight;
#X obj 331 357 loadbang;
#X obj 298 416 poftexts \$0-font 30;
#X obj 433 283 / 500;
#X obj 405 309 * 500;
#X obj 481 309 * 70;
#X obj 330 334 poftouch 500 70, f 22;
#X msg 400 357 draw 1;
#X obj 447 309 * 30;
#X msg 480 358 size \$1;
#X obj 298 238 poftranslate 0 -100;
#X obj 381 284 * -100;
#X msg 331 381 text RUN UPDATED VERSION;
#X obj 37 214 t a a, f 44;
#X obj 37 147 t a a, f 89;
#X obj 728 476 s \$0-runOriginal;
#X obj 459 480 s \$0-runUpdated;
#X obj 37 292 t a a;
#X obj 69 317 poffill 0;
#X obj 172 265 r \$0-windowheight;
#X obj 70 363 loadbang;
#X obj 37 422 poftexts \$0-font 30;
#X obj 172 289 / 500;
#X obj 144 315 * 500;
#X obj 220 315 * 70;
#X obj 69 340 poftouch 500 70, f 22;
#X msg 139 363 draw 1;
#X obj 186 315 * 30;
#X msg 219 364 size \$1;
#X obj 55 170 tgl 15 0 empty empty empty 17 7 0 10 -262144 -1 -1 0
1;
#X msg 70 387 text DELETE UPDATED VERSION;
#X obj 37 268 pofcolor 1 0 0 1;
#X obj 120 290 * 50;
#X obj 37 244 poftranslate 0 50;
#X obj 199 446 s \$0-deleteUpdated;
#X obj 77 168 r \$0-settingsShowUpdated;
#X obj 37 190 pofvisible;
#X obj 73 6 r \$0-showSettings;
#X obj 18 82 t a a a;
#X obj 18 479 outlet;
#X obj 459 431 t b b;
#X obj 728 427 t b b;
#X msg 105 25 0;
#X obj 198 417 route up;
#X obj 459 405 route up;
#X obj 728 398 route up;
#X obj 459 455 del 200;
#X obj 728 451 del 200;
#X obj 563 499 s \$0-splash_hide_settings_gear;
#X connect 0 0 1 0;
#X connect 1 0 63 0;
#X connect 2 0 1 0;
#X connect 4 0 5 0;
#X connect 5 0 6 0;
#X connect 6 0 11 0;
#X connect 6 1 7 0;
#X connect 7 0 15 0;
#X connect 8 0 12 0;
#X connect 10 0 21 0;
#X connect 10 0 16 0;
#X connect 12 0 13 0;
#X connect 12 0 14 0;
#X connect 12 0 17 0;
#X connect 12 0 19 0;
#X connect 13 0 15 1;
#X connect 14 0 15 2;
#X connect 15 1 70 0;
#X connect 16 0 15 0;
#X connect 17 0 18 0;
#X connect 18 0 11 0;
#X connect 19 0 4 2;
#X connect 20 0 3 0;
#X connect 21 0 11 0;
#X connect 22 0 23 0;
#X connect 23 0 27 0;
#X connect 23 1 24 0;
#X connect 24 0 31 0;
#X connect 25 0 28 0;
#X connect 26 0 37 0;
#X connect 26 0 32 0;
#X connect 28 0 29 0;
#X connect 28 0 30 0;
#X connect 28 0 33 0;
#X connect 28 0 36 0;
#X connect 29 0 31 1;
#X connect 30 0 31 2;
#X connect 31 1 69 0;
#X connect 32 0 31 0;
#X connect 33 0 34 0;
#X connect 34 0 27 0;
#X connect 35 0 22 0;
#X connect 36 0 35 2;
#X connect 37 0 27 0;
#X connect 38 0 58 0;
#X connect 38 1 35 0;
#X connect 39 0 61 0;
#X connect 39 1 4 0;
#X connect 42 0 46 0;
#X connect 42 1 43 0;
#X connect 43 0 50 0;
#X connect 44 0 47 0;
#X connect 45 0 55 0;
#X connect 45 0 51 0;
#X connect 47 0 48 0;
#X connect 47 0 49 0;
#X connect 47 0 52 0;
#X connect 47 0 57 0;
#X connect 48 0 50 1;
#X connect 49 0 50 2;
#X connect 50 1 68 0;
#X connect 51 0 50 0;
#X connect 52 0 53 0;
#X connect 53 0 46 0;
#X connect 54 0 61 0;
#X connect 55 0 46 0;
#X connect 56 0 42 0;
#X connect 57 0 58 2;
#X connect 58 0 56 0;
#X connect 60 0 54 0;
#X connect 61 0 38 0;
#X connect 62 0 2 0;
#X connect 63 0 64 0;
#X connect 63 1 39 0;
#X connect 63 2 20 0;
#X connect 65 0 71 0;
#X connect 65 1 67 0;
#X connect 65 1 73 0;
#X connect 66 0 72 0;
#X connect 66 1 67 0;
#X connect 66 1 73 0;
#X connect 67 0 1 0;
#X connect 68 0 59 0;
#X connect 69 0 65 0;
#X connect 70 0 66 0;
#X connect 71 0 41 0;
#X connect 72 0 40 0;
#X restore 265 146 pd settings;
#N canvas 522 208 727 667 deleteUpdate 0;
#X obj 37 37 inlet;
#X obj 37 65 pofvisible;
#X msg 92 38 1;
#X obj 92 19 r \$0-deleteUpdated;
#X obj 87 160 poffill 0;
#X obj 190 108 r \$0-windowheight;
#X obj 88 206 loadbang;
#X obj 70 297 poftexts \$0-font 30;
#X obj 190 132 / 500;
#X obj 162 158 * 500;
#X obj 204 158 * 30;
#X msg 237 207 size \$1;
#X obj 37 110 pofcolor 1 0 0 1;
#X obj 37 86 poftranslate 0 100;
#X obj 238 158 * 140;
#X obj 113 132 * 160;
#X msg 88 230 text SURE TO DELETE UPDATED VERSION?;
#X obj 36 134 t a a a a;
#X obj 70 273 poftranslate;
#X obj 116 252 * -40;
#X obj 53 352 poftranslate;
#X obj 53 378 t a a, f 16;
#X obj 53 423 poftranslate;
#X obj 278 431 poftranslate;
#X obj 223 360 r \$0-windowheight;
#X obj 223 380 / 500;
#X obj 358 449 * 50;
#X floatatom 139 328 5 0 0 0 - - -;
#X obj 99 330 * 20;
#X obj 316 449 * 200;
#X obj 302 412 * 130;
#X obj 76 404 * -130;
#X obj 278 470 poftouch 150 30;
#X obj 278 512 poftexts \$0-font 50;
#X obj 404 409 loadbang;
#X msg 404 430 draw 1;
#X msg 405 452 text CANCEL;
#X obj 278 491 pofcolor 0 0 0 1;
#X msg 393 487 size \$1;
#X obj 133 454 * 50;
#X obj 91 454 * 200;
#X obj 53 475 poftouch 150 30;
#X obj 53 517 poftexts \$0-font 50;
#X obj 179 414 loadbang;
#X msg 179 435 draw 1;
#X obj 53 496 pofcolor 0 0 0 1;
#X msg 168 492 size \$1;
#X msg 180 457 text YES;
#X msg 127 41 0;
#X obj 87 183 pofrect 500 70, f 22;
#X obj 156 588 s \$0-DOdeleteUpdated;
#X obj 529 568 pofutil;
#X obj 529 526 symbol;
#X obj 562 503 r \$0-updatdir;
#X msg 529 547 rmdir \$1;
#X obj 529 485 r \$0-DOdeleteUpdated;
#X obj 156 542 route up;
#X obj 156 565 t b b;
#X obj 365 539 route up;
#X obj 490 591 s \$0-settingsShowUpdated;
#X msg 490 571 0;
#X connect 0 0 1 0;
#X connect 1 0 13 0;
#X connect 2 0 1 0;
#X connect 3 0 2 0;
#X connect 4 0 49 0;
#X connect 5 0 8 0;
#X connect 6 0 16 0;
#X connect 8 0 9 0;
#X connect 8 0 10 0;
#X connect 8 0 14 0;
#X connect 8 0 15 0;
#X connect 8 0 19 0;
#X connect 9 0 49 1;
#X connect 10 0 11 0;
#X connect 11 0 7 0;
#X connect 12 0 17 0;
#X connect 13 0 12 0;
#X connect 14 0 49 2;
#X connect 15 0 13 2;
#X connect 16 0 7 0;
#X connect 17 1 20 0;
#X connect 17 2 18 0;
#X connect 17 3 4 0;
#X connect 18 0 7 0;
#X connect 19 0 18 2;
#X connect 20 0 21 0;
#X connect 21 0 22 0;
#X connect 21 1 23 0;
#X connect 22 0 41 0;
#X connect 23 0 32 0;
#X connect 24 0 25 0;
#X connect 25 0 26 0;
#X connect 25 0 28 0;
#X connect 25 0 29 0;
#X connect 25 0 30 0;
#X connect 25 0 31 0;
#X connect 25 0 40 0;
#X connect 25 0 39 0;
#X connect 26 0 32 2;
#X connect 26 0 38 0;
#X connect 27 0 20 2;
#X connect 28 0 20 2;
#X connect 29 0 32 1;
#X connect 30 0 23 1;
#X connect 31 0 22 1;
#X connect 32 0 37 0;
#X connect 32 1 58 0;
#X connect 34 0 35 0;
#X connect 35 0 32 0;
#X connect 35 0 36 0;
#X connect 36 0 33 0;
#X connect 37 0 33 0;
#X connect 38 0 33 0;
#X connect 39 0 41 2;
#X connect 39 0 46 0;
#X connect 40 0 41 1;
#X connect 41 0 45 0;
#X connect 41 1 56 0;
#X connect 43 0 44 0;
#X connect 44 0 41 0;
#X connect 44 0 47 0;
#X connect 45 0 42 0;
#X connect 46 0 42 0;
#X connect 47 0 42 0;
#X connect 48 0 1 0;
#X connect 52 0 54 0;
#X connect 53 0 52 1;
#X connect 54 0 51 0;
#X connect 55 0 52 0;
#X connect 55 0 60 0;
#X connect 56 0 57 0;
#X connect 57 0 50 0;
#X connect 57 1 48 0;
#X connect 58 0 48 0;
#X connect 60 0 59 0;
#X restore 265 167 pd deleteUpdate;
#X connect 1 0 2 0;
#X connect 2 0 4 0;
#X connect 5 0 6 0;
#X connect 6 0 7 0;
