#N canvas 934 203 477 208 12;
#X obj 22 7 cnv 15 300 30 empty empty Schoolscape_Bootloader 10 15
2 26 -233017 -66577 0;
#N canvas 549 82 626 747 guts 1;
#X obj 29 2 loadbang;
#X obj 177 133 r datadir;
#X obj 138 156 symbol;
#X obj 138 87 t b b;
#X obj 216 80 s getPaths;
#X obj 375 69 text define \$0-versiontext;
#X obj 29 59 t b b, f 16;
#X obj 136 25 bng 15 250 50 0 empty empty empty 17 7 0 10 -262144 -1
-1;
#X obj 375 24 r \$0-loadversiontext;
#X msg 138 179 symbol \$1/pd;
#N canvas 1 82 450 300 getversion 0;
#X obj 29 131 text get \$0-versiontext;
#X msg 29 107 0;
#X obj 61 106 s \$0-loadversiontext;
#X obj 29 83 t b s;
#X obj 29 59 inlet dir;
#X obj 29 213 outlet;
#X obj 29 157 route bang;
#X msg 29 181 symbol 0.0.0;
#X connect 0 0 6 0;
#X connect 1 0 0 0;
#X connect 3 0 1 0;
#X connect 3 1 2 0;
#X connect 4 0 3 0;
#X connect 6 0 7 0;
#X connect 6 1 5 0;
#X connect 7 0 5 0;
#X restore 138 204 pd getversion;
#X symbolatom 138 228 10 0 0 3 local - -;
#N canvas 1 82 450 300 getversion 0;
#X obj 29 131 text get \$0-versiontext;
#X msg 29 107 0;
#X obj 61 106 s \$0-loadversiontext;
#X obj 29 83 t b s;
#X obj 29 59 inlet dir;
#X obj 29 213 outlet;
#X obj 29 157 route bang;
#X msg 29 181 symbol 0.0.0;
#X connect 0 0 6 0;
#X connect 1 0 0 0;
#X connect 3 0 1 0;
#X connect 3 1 2 0;
#X connect 4 0 3 0;
#X connect 6 0 7 0;
#X connect 6 1 5 0;
#X connect 7 0 5 0;
#X restore 29 204 pd getversion;
#X symbolatom 29 228 10 0 0 3 app - -;
#X msg 29 102 getdir;
#X obj 29 126 pofutil;
#X msg 29 150 symbol \$1;
#X msg 375 46 clear \, read -c \$1/VERSION;
#N canvas 1075 127 616 700 compare_version 0;
#X obj 41 27 inlet;
#X obj 289 26 inlet;
#X obj 41 51 list fromsymbol;
#X obj 64 103 list split 1;
#X obj 104 127 t a;
#X obj 41 78 t b a b;
#X obj 64 155 sel 46;
#X obj 64 179 32;
#X obj 64 228 t a;
#X msg 161 103 list;
#X obj 41 256 list;
#X obj 41 281 fudiparse;
#X obj 64 203 list append;
#X obj 289 52 list fromsymbol;
#X obj 312 104 list split 1;
#X obj 352 128 t a;
#X obj 289 79 t b a b;
#X obj 312 156 sel 46;
#X obj 312 180 32;
#X obj 312 229 t a;
#X msg 409 104 list;
#X obj 289 257 list;
#X obj 289 282 fudiparse;
#X obj 312 204 list append;
#X obj 41 306 t a a;
#X obj 73 331 list length;
#X obj 41 361 list prepend;
#X msg 79 415 \$1 0 0;
#X msg 132 415 \$1 \$2 0;
#X msg 193 415 0 0 0;
#X obj 41 449 t a;
#X obj 41 385 route 3 1 2, f 17;
#X obj 289 306 t a a;
#X obj 321 331 list length;
#X obj 289 361 list prepend;
#X msg 327 415 \$1 0 0;
#X msg 380 415 \$1 \$2 0;
#X msg 441 415 0 0 0;
#X obj 289 449 t a;
#X obj 289 385 route 3 1 2, f 17;
#X obj 41 473 unpack f f f;
#X obj 289 472 unpack f f f;
#X obj 41 516 -;
#X obj 41 564 moses 0;
#X msg 41 588 -1;
#X obj 99 564 sel 0;
#X msg 131 588 1;
#X obj 207 518 -;
#X obj 189 541 f;
#X obj 352 514 -;
#X obj 334 537 f;
#X obj 189 563 moses 0;
#X msg 189 587 -1;
#X obj 247 563 sel 0;
#X msg 279 587 1;
#X obj 334 560 moses 0;
#X msg 334 584 -1;
#X obj 392 560 sel 0;
#X msg 424 584 1;
#X msg 390 585 0;
#X obj 189 636 f;
#X floatatom 242 661 5 0 0 0 - - -;
#X msg 95 27 symbol 0.1.1;
#X msg 356 26 symbol 0.1.3;
#X obj 189 660 outlet;
#X connect 0 0 2 0;
#X connect 1 0 13 0;
#X connect 2 0 5 0;
#X connect 3 0 6 0;
#X connect 3 1 4 0;
#X connect 4 0 3 0;
#X connect 5 0 10 0;
#X connect 5 1 3 0;
#X connect 5 2 9 0;
#X connect 6 0 7 0;
#X connect 6 1 12 0;
#X connect 7 0 12 0;
#X connect 8 0 10 1;
#X connect 8 0 12 1;
#X connect 9 0 8 0;
#X connect 10 0 11 0;
#X connect 11 0 24 0;
#X connect 12 0 8 0;
#X connect 13 0 16 0;
#X connect 14 0 17 0;
#X connect 14 1 15 0;
#X connect 15 0 14 0;
#X connect 16 0 21 0;
#X connect 16 1 14 0;
#X connect 16 2 20 0;
#X connect 17 0 18 0;
#X connect 17 1 23 0;
#X connect 18 0 23 0;
#X connect 19 0 21 1;
#X connect 19 0 23 1;
#X connect 20 0 19 0;
#X connect 21 0 22 0;
#X connect 22 0 32 0;
#X connect 23 0 19 0;
#X connect 24 0 26 0;
#X connect 24 1 25 0;
#X connect 25 0 26 1;
#X connect 26 0 31 0;
#X connect 27 0 30 0;
#X connect 28 0 30 0;
#X connect 29 0 30 0;
#X connect 30 0 40 0;
#X connect 31 0 30 0;
#X connect 31 1 27 0;
#X connect 31 2 28 0;
#X connect 31 3 29 0;
#X connect 32 0 34 0;
#X connect 32 1 33 0;
#X connect 33 0 34 1;
#X connect 34 0 39 0;
#X connect 35 0 38 0;
#X connect 36 0 38 0;
#X connect 37 0 38 0;
#X connect 38 0 41 0;
#X connect 39 0 38 0;
#X connect 39 1 35 0;
#X connect 39 2 36 0;
#X connect 39 3 37 0;
#X connect 40 0 42 0;
#X connect 40 1 47 0;
#X connect 40 2 49 0;
#X connect 41 0 42 1;
#X connect 41 1 47 1;
#X connect 41 2 49 1;
#X connect 42 0 43 0;
#X connect 43 0 44 0;
#X connect 43 1 45 0;
#X connect 44 0 60 0;
#X connect 45 0 48 0;
#X connect 45 1 46 0;
#X connect 46 0 60 0;
#X connect 47 0 48 1;
#X connect 48 0 51 0;
#X connect 49 0 50 1;
#X connect 50 0 55 0;
#X connect 51 0 52 0;
#X connect 51 1 53 0;
#X connect 52 0 60 0;
#X connect 53 0 50 0;
#X connect 53 1 54 0;
#X connect 54 0 60 0;
#X connect 55 0 56 0;
#X connect 55 1 57 0;
#X connect 56 0 60 0;
#X connect 57 0 59 0;
#X connect 57 1 58 0;
#X connect 58 0 60 0;
#X connect 59 0 60 0;
#X connect 60 0 64 0;
#X connect 60 0 61 0;
#X connect 62 0 2 0;
#X connect 63 0 13 0;
#X restore 29 303 pd compare_version;
#X floatatom 58 330 5 0 0 0 - - -;
#X obj 29 391 sel -1, f 9;
#X obj 29 420 symbol;
#X obj 89 438 symbol;
#X obj 89 415 b;
#X obj 29 177 t s s;
#X obj 202 415 sel -1, f 26;
#X obj 202 480 outlet;
#X msg 381 442 symbol use_original_patch;
#X msg 202 442 symbol use_updated_patch;
#X obj 313 327 print Schoolscape bootloader;
#X msg 313 301 original_version: \$1;
#X msg 467 301 updated_version: \$1;
#X obj 29 30 del 10;
#X obj 29 699 s datadir;
#X obj 68 652 r datadir;
#X obj 29 675 symbol;
#X obj 29 582 t b s, f 47;
#N canvas 1 82 450 300 getminversion 0;
#X obj 29 131 text get \$0-versiontext;
#X obj 61 106 s \$0-loadversiontext;
#X obj 29 83 t b s;
#X obj 29 59 inlet dir;
#X obj 29 213 outlet;
#X obj 29 157 route bang;
#X msg 29 181 symbol 0.0.0;
#X msg 29 107 1;
#X connect 0 0 5 0;
#X connect 2 0 7 0;
#X connect 2 1 1 0;
#X connect 3 0 2 0;
#X connect 5 0 6 0;
#X connect 5 1 4 0;
#X connect 6 0 4 0;
#X connect 7 0 0 0;
#X restore 291 204 pd getminversion;
#X symbolatom 291 226 10 0 0 3 minimum - -;
#X obj 29 274 t s s s, f 41;
#N canvas 1075 127 616 700 compare_version 0;
#X obj 41 27 inlet;
#X obj 289 26 inlet;
#X obj 41 51 list fromsymbol;
#X obj 64 103 list split 1;
#X obj 104 127 t a;
#X obj 41 78 t b a b;
#X obj 64 155 sel 46;
#X obj 64 179 32;
#X obj 64 228 t a;
#X msg 161 103 list;
#X obj 41 256 list;
#X obj 41 281 fudiparse;
#X obj 64 203 list append;
#X obj 289 52 list fromsymbol;
#X obj 312 104 list split 1;
#X obj 352 128 t a;
#X obj 289 79 t b a b;
#X obj 312 156 sel 46;
#X obj 312 180 32;
#X obj 312 229 t a;
#X msg 409 104 list;
#X obj 289 257 list;
#X obj 289 282 fudiparse;
#X obj 312 204 list append;
#X obj 41 306 t a a;
#X obj 73 331 list length;
#X obj 41 361 list prepend;
#X msg 79 415 \$1 0 0;
#X msg 132 415 \$1 \$2 0;
#X msg 193 415 0 0 0;
#X obj 41 449 t a;
#X obj 41 385 route 3 1 2, f 17;
#X obj 289 306 t a a;
#X obj 321 331 list length;
#X obj 289 361 list prepend;
#X msg 327 415 \$1 0 0;
#X msg 380 415 \$1 \$2 0;
#X msg 441 415 0 0 0;
#X obj 289 449 t a;
#X obj 289 385 route 3 1 2, f 17;
#X obj 41 473 unpack f f f;
#X obj 289 472 unpack f f f;
#X obj 41 516 -;
#X obj 41 564 moses 0;
#X msg 41 588 -1;
#X obj 99 564 sel 0;
#X msg 131 588 1;
#X obj 207 518 -;
#X obj 189 541 f;
#X obj 352 514 -;
#X obj 334 537 f;
#X obj 189 563 moses 0;
#X msg 189 587 -1;
#X obj 247 563 sel 0;
#X msg 279 587 1;
#X obj 334 560 moses 0;
#X msg 334 584 -1;
#X obj 392 560 sel 0;
#X msg 424 584 1;
#X msg 390 585 0;
#X obj 189 636 f;
#X floatatom 242 661 5 0 0 0 - - -;
#X msg 95 27 symbol 0.1.1;
#X msg 356 26 symbol 0.1.3;
#X obj 189 660 outlet;
#X connect 0 0 2 0;
#X connect 1 0 13 0;
#X connect 2 0 5 0;
#X connect 3 0 6 0;
#X connect 3 1 4 0;
#X connect 4 0 3 0;
#X connect 5 0 10 0;
#X connect 5 1 3 0;
#X connect 5 2 9 0;
#X connect 6 0 7 0;
#X connect 6 1 12 0;
#X connect 7 0 12 0;
#X connect 8 0 10 1;
#X connect 8 0 12 1;
#X connect 9 0 8 0;
#X connect 10 0 11 0;
#X connect 11 0 24 0;
#X connect 12 0 8 0;
#X connect 13 0 16 0;
#X connect 14 0 17 0;
#X connect 14 1 15 0;
#X connect 15 0 14 0;
#X connect 16 0 21 0;
#X connect 16 1 14 0;
#X connect 16 2 20 0;
#X connect 17 0 18 0;
#X connect 17 1 23 0;
#X connect 18 0 23 0;
#X connect 19 0 21 1;
#X connect 19 0 23 1;
#X connect 20 0 19 0;
#X connect 21 0 22 0;
#X connect 22 0 32 0;
#X connect 23 0 19 0;
#X connect 24 0 26 0;
#X connect 24 1 25 0;
#X connect 25 0 26 1;
#X connect 26 0 31 0;
#X connect 27 0 30 0;
#X connect 28 0 30 0;
#X connect 29 0 30 0;
#X connect 30 0 40 0;
#X connect 31 0 30 0;
#X connect 31 1 27 0;
#X connect 31 2 28 0;
#X connect 31 3 29 0;
#X connect 32 0 34 0;
#X connect 32 1 33 0;
#X connect 33 0 34 1;
#X connect 34 0 39 0;
#X connect 35 0 38 0;
#X connect 36 0 38 0;
#X connect 37 0 38 0;
#X connect 38 0 41 0;
#X connect 39 0 38 0;
#X connect 39 1 35 0;
#X connect 39 2 36 0;
#X connect 39 3 37 0;
#X connect 40 0 42 0;
#X connect 40 1 47 0;
#X connect 40 2 49 0;
#X connect 41 0 42 1;
#X connect 41 1 47 1;
#X connect 41 2 49 1;
#X connect 42 0 43 0;
#X connect 43 0 44 0;
#X connect 43 1 45 0;
#X connect 44 0 60 0;
#X connect 45 0 48 0;
#X connect 45 1 46 0;
#X connect 46 0 60 0;
#X connect 47 0 48 1;
#X connect 48 0 51 0;
#X connect 49 0 50 1;
#X connect 50 0 55 0;
#X connect 51 0 52 0;
#X connect 51 1 53 0;
#X connect 52 0 60 0;
#X connect 53 0 50 0;
#X connect 53 1 54 0;
#X connect 54 0 60 0;
#X connect 55 0 56 0;
#X connect 55 1 57 0;
#X connect 56 0 60 0;
#X connect 57 0 59 0;
#X connect 57 1 58 0;
#X connect 58 0 60 0;
#X connect 59 0 60 0;
#X connect 60 0 64 0;
#X connect 60 0 61 0;
#X connect 62 0 2 0;
#X connect 63 0 13 0;
#X restore 171 300 pd compare_version;
#X obj 29 364 *, f 20;
#X obj 171 324 >= 0;
#X floatatom 210 328 5 0 0 0 - - -;
#X msg 355 609 \; pd open app_master.pd \$1;
#X obj 408 395 == -1;
#X obj 408 419 s APP_IS_UPDATE;
#X obj 111 698 s APP_IS_UPDATE;
#X obj 111 675 v APP_IS_UPDATE;
#X obj 227 675 v APP_EDITON_MODE;
#X obj 227 698 s APP_EDITON_MODE;
#X obj 29 482 t b s, f 9;
#X obj 29 560 symbol, f 9;
#X text 95 538 wait splash is displayed;
#X obj 103 481 s \$0-patchdir;
#X floatatom 167 733 5 0 0 0 - - -;
#X floatatom 255 736 5 0 0 0 - - -;
#X obj 220 622 bng 15 250 50 0 empty empty empty 17 7 0 10 -262144
-1 -1;
#X obj 29 512 r \$0-splash_loaded;
#X obj 29 536 del 500;
#X connect 0 0 32 0;
#X connect 1 0 2 1;
#X connect 2 0 9 0;
#X connect 3 0 2 0;
#X connect 6 0 14 0;
#X connect 6 1 3 0;
#X connect 7 0 6 0;
#X connect 8 0 17 0;
#X connect 9 0 10 0;
#X connect 9 0 21 1;
#X connect 9 0 37 0;
#X connect 10 0 11 0;
#X connect 11 0 18 1;
#X connect 11 0 31 0;
#X connect 12 0 13 0;
#X connect 13 0 39 0;
#X connect 14 0 15 0;
#X connect 15 0 16 0;
#X connect 16 0 24 0;
#X connect 17 0 5 0;
#X connect 18 0 19 0;
#X connect 18 0 41 0;
#X connect 20 0 21 0;
#X connect 20 1 23 0;
#X connect 21 0 51 0;
#X connect 22 0 51 0;
#X connect 23 0 22 0;
#X connect 24 0 12 0;
#X connect 24 1 22 1;
#X connect 25 0 28 0;
#X connect 25 1 27 0;
#X connect 27 0 26 0;
#X connect 28 0 26 0;
#X connect 30 0 29 0;
#X connect 31 0 29 0;
#X connect 32 0 6 0;
#X connect 34 0 35 1;
#X connect 35 0 33 0;
#X connect 36 0 35 0;
#X connect 36 0 48 0;
#X connect 36 0 49 0;
#X connect 36 1 44 0;
#X connect 37 0 38 0;
#X connect 38 0 40 1;
#X connect 39 0 18 0;
#X connect 39 1 40 0;
#X connect 39 2 30 0;
#X connect 40 0 42 0;
#X connect 40 0 43 0;
#X connect 41 0 20 0;
#X connect 41 0 25 0;
#X connect 41 0 45 0;
#X connect 42 0 41 1;
#X connect 45 0 46 0;
#X connect 48 0 47 0;
#X connect 48 0 55 0;
#X connect 49 0 50 0;
#X connect 49 0 56 0;
#X connect 51 1 52 1;
#X connect 51 1 54 0;
#X connect 52 0 36 0;
#X connect 57 0 48 0;
#X connect 57 0 49 0;
#X connect 58 0 59 0;
#X connect 59 0 52 0;
#X restore 29 97 pd guts;
#X symbolatom 29 122 0 0 0 0 - - -;
#X text 28 46 Run the "updated" patch (the one which has been downloaded
into "data/pd" directory) \, only if its version is strictly greater
than the original "app" version.;
#X obj 29 146 print Schoolscape bootloader;
#N canvas 125 348 402 498 splash 0;
#X obj 40 14 pofhead;
#X obj 40 98 pofvisible 1;
#X obj 40 224 pofimage;
#X obj 56 129 r \$0-patchdir;
#X msg 56 153 set \$1/img/splash.png;
#X msg 53 62 0;
#X obj 180 216 pofwin;
#X obj 180 240 route window;
#X obj 180 262 unpack f f;
#X obj 93 247 route size;
#X obj 93 271 unpack f f;
#X obj 93 295 /;
#X obj 160 296 /;
#X obj 93 319 >, f 10;
#X obj 93 344 sel 1 0, f 8;
#X obj 93 368 f;
#X obj 127 369 f;
#X obj 53 38 r APP-INIT;
#X obj 190 357 moses 1;
#X obj 236 404 s \$0-splash_loaded;
#X obj 236 380 b;
#X obj 312 324 b;
#X obj 312 348 del 5000;
#X msg 272 350 stop;
#X connect 0 0 1 0;
#X connect 1 0 2 0;
#X connect 2 1 9 0;
#X connect 3 0 4 0;
#X connect 3 0 21 0;
#X connect 4 0 2 0;
#X connect 5 0 1 0;
#X connect 6 0 7 0;
#X connect 7 0 8 0;
#X connect 8 0 11 1;
#X connect 8 0 15 1;
#X connect 8 1 12 1;
#X connect 8 1 16 1;
#X connect 9 0 10 0;
#X connect 10 0 11 0;
#X connect 10 0 18 0;
#X connect 10 1 12 0;
#X connect 11 0 13 0;
#X connect 12 0 13 1;
#X connect 13 0 14 0;
#X connect 14 0 15 0;
#X connect 14 1 16 0;
#X connect 15 0 2 1;
#X connect 16 0 2 2;
#X connect 17 0 5 0;
#X connect 18 1 20 0;
#X connect 20 0 19 0;
#X connect 20 0 23 0;
#X connect 21 0 22 0;
#X connect 22 0 19 0;
#X connect 23 0 22 0;
#X restore 265 122 pd splash;
#X connect 1 0 2 0;
#X connect 2 0 4 0;
