#N canvas 609 309 591 509 12;
#X msg 57 297 print;
#X obj 129 67 bng 15 250 50 0 empty empty empty 17 7 0 10 -262144 -1
-1;
#X obj 129 22 loadbang;
#X obj 173 239 b;
#X obj 173 260 del 200;
#X obj 93 376 b;
#X obj 93 397 del 200;
#X msg 93 421 getnum /;
#X obj 129 44 del 1;
#X obj 130 360 pofxml \$1s;
#X obj 93 445 pofxml \$1s;
#X obj 93 468 s \$1sNumber;
#X obj 130 120 symbol .;
#X obj 183 97 r datadir;
#X msg 130 174 load \$1/\$2s.xml;
#X obj 130 144 list append \$1;
#X obj 173 215 r \$1sChanged;
#X obj 173 287 symbol ., f 9;
#X obj 233 261 r datadir;
#X obj 173 311 list append \$1;
#X msg 173 337 save \$1/\$2s.xml;
#X symbolatom 295 174 0 0 0 0 - - -;
#X symbolatom 303 216 0 0 0 0 - - -;
#X connect 0 0 9 0;
#X connect 1 0 5 0;
#X connect 1 0 12 0;
#X connect 2 0 8 0;
#X connect 3 0 4 0;
#X connect 4 0 5 0;
#X connect 4 0 17 0;
#X connect 5 0 6 0;
#X connect 6 0 7 0;
#X connect 7 0 10 0;
#X connect 8 0 1 0;
#X connect 10 0 11 0;
#X connect 12 0 15 0;
#X connect 13 0 12 1;
#X connect 13 0 21 0;
#X connect 14 0 9 0;
#X connect 15 0 14 0;
#X connect 15 0 22 0;
#X connect 16 0 3 0;
#X connect 17 0 19 0;
#X connect 18 0 17 1;
#X connect 19 0 20 0;
#X connect 20 0 9 0;
