#N canvas 843 140 486 452 10;
#X obj 45 20 loadbang;
#X msg 151 139 print;
#X msg 192 139 clear;
#X obj 45 161 route loaded;
#X obj 44 285 del 2000;
#X obj 45 57 del 100;
#X obj 114 64 r datadir;
#X obj 45 86 symbol ., f 12;
#X obj 89 306 r datadir;
#X msg 45 115 clear \, load \$1/settings.xml;
#X msg 44 355 save \$1/settings.xml;
#X obj 44 327 symbol .;
#X obj 286 100 setting latency;
#X obj 45 204 s SETTINGS-loaded;
#X obj 45 182 b;
#X obj 44 240 r SETTINGS-rcv;
#X obj 44 261 t b a, f 22;
#X obj 286 127 setting rec-autorec-thres;
#X obj 45 139 pofxmlp SETTINGS;
#X obj 44 395 pofxmlp SETTINGS;
#X connect 0 0 5 0;
#X connect 1 0 18 0;
#X connect 2 0 18 0;
#X connect 3 0 14 0;
#X connect 4 0 11 0;
#X connect 5 0 7 0;
#X connect 6 0 7 1;
#X connect 7 0 9 0;
#X connect 8 0 11 1;
#X connect 9 0 18 0;
#X connect 10 0 19 0;
#X connect 11 0 10 0;
#X connect 14 0 13 0;
#X connect 15 0 16 0;
#X connect 16 0 4 0;
#X connect 16 1 19 0;
#X connect 18 0 3 0;
