#N canvas 1 81 522 433 10;
#X obj 195 221 change;
#X obj 94 135 route get;
#X obj 94 157 t f f, f 12;
#X msg 163 178 set \$1;
#X obj 94 114 pofxml SETTINGS;
#X obj 195 245 t b f, f 8;
#X obj 195 265 del 200;
#X obj 195 286 f, f 8;
#X obj 94 49 r SETTINGS-loaded;
#X obj 94 70 symbol \$1;
#X msg 94 94 get \$1;
#X obj 94 177 s \$1;
#X obj 195 199 r \$1;
#X obj 195 366 s SETTINGS-rcv;
#X obj 195 314 list prepend \$1;
#X msg 195 343 remove /\$1 \, add / \$1 \$2;
#X connect 0 0 5 0;
#X connect 1 0 2 0;
#X connect 2 0 11 0;
#X connect 2 1 3 0;
#X connect 3 0 0 0;
#X connect 4 0 1 0;
#X connect 5 0 6 0;
#X connect 5 1 7 1;
#X connect 6 0 7 0;
#X connect 7 0 14 0;
#X connect 8 0 9 0;
#X connect 9 0 10 0;
#X connect 10 0 4 0;
#X connect 12 0 0 0;
#X connect 14 0 15 0;
#X connect 15 0 13 0;
