#N struct 3789-symarray float x array symbols 3789-sym;
#N struct 3789-sym symbol name float on;
#N struct 3800-symarray float x array symbols 3800-sym;
#N struct 3800-sym symbol name float on;
#N canvas 209 1109 811 453 10;
#X declare -path absGAMME;
#X declare -path ./gammabs;
#X obj 95 264 credit;
#X floatatom 199 261 5 0 0 0 - - -;
#X obj 408 13 r beat;
#X floatatom 408 33 5 0 0 0 - - -;
#X obj 478 28 loadbang;
#X obj 478 49 del 2000;
#X obj 478 70 0;
#X obj 478 91 s SHOW_RETURN;
#X obj 271 20 tgl 15 0 empty empty empty 17 7 0 10 -262144 -1 -1 0
1;
#X obj 271 46 s LANDSCAPE;
#N canvas 248 602 894 723 abl_link 0;
#X obj 166 296 abl_link~;
#X obj 166 253 tgl 15 0 empty empty empty 17 7 0 10 -262144 -1 -1 1
1;
#X msg 166 273 connect \$1;
#X obj 221 403 s bpm;
#X obj 248 43 r bpm-r;
#X msg 227 233 tempo \$1;
#X floatatom 99 630 5 0 0 0 - - -;
#X obj 153 202 loadbang;
#X obj 19 676 s beat;
#X floatatom 201 78 5 0 0 0 - - -;
#X obj 109 12 l declare -stdpath abl_link/external;
#X obj 153 223 del 1000;
#X msg 113 127 advance 0 \, offset 0;
#X floatatom 344 41 5 0 0 0 - - -;
#X obj 344 19 r #abl_link_num_peers;
#X msg 108 247 1;
#X obj 653 482 r beat;
#X obj 755 598 r bpm;
#X msg 755 619 60000 \$1;
#X obj 755 640 /;
#X floatatom 594 506 5 0 0 0 - - -;
#X obj 653 503 t f f;
#X obj 733 560 mod 64;
#X obj 680 523 sel 0;
#X obj 653 609 +;
#X obj 680 586 * 4;
#X floatatom 615 638 5 0 0 0 - - -;
#X obj 733 538 + 1;
#X obj 680 543 f;
#X floatatom 708 589 5 0 0 0 - - -;
#X msg 728 509 0;
#X obj 728 487 r reset_measure;
#X obj 653 662 s CLOCK;
#X floatatom 755 661 5 0 0 0 - - -;
#X obj 653 641 pack f 500;
#X obj 145 150 r latency;
#X msg 143 174 offset \$1;
#X floatatom 380 444 5 0 0 0 - - -;
#X floatatom 406 286 5 0 0 0 - - -;
#X floatatom 390 237 5 0 0 0 - - -;
#X obj 420 112 r CoefTempo;
#X obj 514 50 r mainSeq-play;
#X floatatom 506 132 5 0 0 0 - - -;
#X obj 551 117 sel 0;
#X msg 552 139 1;
#X obj 444 141 sel 2;
#X floatatom 247 328 5 0 0 0 - - -;
#X msg 445 167 2;
#X floatatom 410 159 5 0 0 0 - - -;
#X obj 480 180 tgl 15 0 empty empty empty 17 7 0 10 -262144 -1 -1 0
1;
#X msg 518 347 0.5;
#X obj 164 376 r CoefTempo;
#X msg 492 347 1;
#X floatatom 178 409 5 0 0 0 - - -;
#X obj 355 210 f;
#X obj 368 174 t b f;
#X obj 355 379 f;
#X obj 368 352 t b f;
#X obj 351 237 mu 1;
#X obj 353 412 di 1;
#X obj 415 197 ddemux;
#X floatatom 515 301 5 0 0 0 - - -;
#X obj 473 320 sel 0.5 1 2;
#X msg 464 343 2;
#X obj 481 384 f;
#X floatatom 491 412 5 0 0 0 - - -;
#X floatatom 356 259 5 0 0 0 - - -;
#N canvas 571 456 329 380 CoefTempoIn 0;
#X obj 16 121 inlet;
#X obj 43 227 outlet;
#X obj 110 161 r PART_RECALL;
#X obj 86 57 r mainSeq-play;
#X obj 53 81 ddemux;
#X obj 95 184 f;
#X obj 53 32 r CoefTempo;
#X obj 95 207 s PART_RECALL;
#X obj 43 186 mu 1;
#X obj 64 141 t f b;
#X obj 128 85 loadbang;
#X msg 128 106 0;
#X connect 0 0 8 0;
#X connect 2 0 5 1;
#X connect 3 0 4 1;
#X connect 4 1 9 0;
#X connect 5 0 7 0;
#X connect 6 0 4 0;
#X connect 8 0 1 0;
#X connect 9 0 8 1;
#X connect 9 1 5 0;
#X connect 10 0 11 0;
#X connect 11 0 4 1;
#X restore 280 131 pd CoefTempoIn;
#N canvas 90 703 442 486 CoefTempoOut 0;
#X obj 65 408 outlet;
#X obj 128 239 r PART_RECALL;
#X obj 291 60 r mainSeq-play;
#X obj 258 83 ddemux;
#X obj 113 264 f;
#X obj 258 38 r CoefTempo;
#X msg 148 143 0.5;
#X msg 117 142 1;
#X obj 44 91 sel 0.5 1 2, f 16;
#X msg 44 114 2;
#X obj 44 155 f;
#X floatatom 57 185 5 0 0 0 - - -;
#X obj 113 287 s PART_RECALL;
#X obj 86 226 t f b;
#X obj 65 385 di 1;
#X obj 320 92 loadbang;
#X msg 320 113 0;
#X obj 286 306 r bpm-r;
#X obj 24 324 inlet;
#X floatatom 151 264 5 0 0 0 - - -;
#X connect 1 0 4 1;
#X connect 1 0 19 0;
#X connect 2 0 3 1;
#X connect 3 0 8 0;
#X connect 3 1 13 0;
#X connect 4 0 12 0;
#X connect 5 0 3 0;
#X connect 6 0 10 0;
#X connect 7 0 10 0;
#X connect 8 0 9 0;
#X connect 8 1 7 0;
#X connect 8 2 6 0;
#X connect 9 0 10 0;
#X connect 10 0 11 0;
#X connect 10 0 14 1;
#X connect 13 0 14 1;
#X connect 13 1 4 0;
#X connect 14 0 0 0;
#X connect 15 0 16 0;
#X connect 16 0 3 1;
#X connect 18 0 14 0;
#X restore 239 360 pd CoefTempoOut;
#X floatatom 280 401 5 0 0 0 - - -;
#X floatatom 47 633 5 0 0 0 - - -;
#X msg 20 585 0 \$1;
#X obj 35 491 r bpm;
#X msg 35 512 60000 \$1;
#X obj 35 533 /;
#X obj 20 561 f;
#X obj 20 608 ndmetro 4 1;
#X obj 102 673 print;
#X obj 316 674 sel 0 2;
#X obj 52 326 sel 0;
#X obj 59 448 spigot 1;
#X obj 86 424 tgl 15 0 empty empty empty 17 7 0 10 -262144 -1 -1 1
1;
#X obj 159 440 sel 2;
#X obj 84 380 spigot 1;
#X msg 162 519 1, f 1;
#X msg 215 487 0, f 1;
#X obj 189 464 t b b;
#X msg 189 486 1, f 1;
#X obj 51 350 t b b;
#X obj 137 485 t b b;
#X msg 137 511 1, f 1;
#X obj 163 674 print;
#X obj 27 645 change;
#X connect 0 0 6 0;
#X connect 0 0 79 0;
#X connect 0 3 46 0;
#X connect 0 3 68 0;
#X connect 1 0 2 0;
#X connect 2 0 0 0;
#X connect 4 0 9 0;
#X connect 4 0 67 0;
#X connect 5 0 0 0;
#X connect 7 0 11 0;
#X connect 11 0 15 0;
#X connect 12 0 0 0;
#X connect 14 0 13 0;
#X connect 15 0 1 0;
#X connect 16 0 20 0;
#X connect 16 0 21 0;
#X connect 17 0 18 0;
#X connect 18 0 19 0;
#X connect 19 0 33 0;
#X connect 19 0 34 1;
#X connect 21 0 24 0;
#X connect 21 1 23 0;
#X connect 22 0 28 1;
#X connect 23 0 28 0;
#X connect 24 0 26 0;
#X connect 24 0 34 0;
#X connect 25 0 24 1;
#X connect 27 0 22 0;
#X connect 28 0 27 0;
#X connect 28 0 25 0;
#X connect 28 0 29 0;
#X connect 30 0 28 1;
#X connect 31 0 30 0;
#X connect 34 0 32 0;
#X connect 35 0 36 0;
#X connect 36 0 0 0;
#X connect 40 0 45 0;
#X connect 40 0 48 0;
#X connect 40 0 60 0;
#X connect 40 0 55 0;
#X connect 41 0 42 0;
#X connect 41 0 43 0;
#X connect 41 0 60 1;
#X connect 43 0 44 0;
#X connect 44 0 57 0;
#X connect 44 0 55 0;
#X connect 45 0 47 0;
#X connect 49 0 60 1;
#X connect 50 0 64 0;
#X connect 51 0 53 0;
#X connect 51 0 82 0;
#X connect 52 0 64 0;
#X connect 54 0 58 0;
#X connect 55 0 54 0;
#X connect 55 1 58 1;
#X connect 56 0 59 0;
#X connect 57 0 56 0;
#X connect 57 1 59 1;
#X connect 58 0 66 0;
#X connect 59 0 37 0;
#X connect 60 0 39 0;
#X connect 60 0 62 0;
#X connect 60 1 61 0;
#X connect 60 1 57 0;
#X connect 60 1 55 0;
#X connect 60 1 38 0;
#X connect 62 0 63 0;
#X connect 62 1 52 0;
#X connect 62 2 50 0;
#X connect 63 0 64 0;
#X connect 64 0 65 0;
#X connect 64 0 57 0;
#X connect 67 0 5 0;
#X connect 68 0 3 0;
#X connect 68 0 69 0;
#X connect 71 0 76 0;
#X connect 72 0 73 0;
#X connect 73 0 74 0;
#X connect 74 0 75 1;
#X connect 75 0 71 0;
#X connect 76 0 70 0;
#X connect 76 0 92 0;
#X connect 79 0 88 0;
#X connect 80 0 75 0;
#X connect 81 0 80 1;
#X connect 82 0 89 0;
#X connect 82 1 86 0;
#X connect 83 0 81 0;
#X connect 84 0 83 1;
#X connect 85 0 83 1;
#X connect 86 0 87 0;
#X connect 86 1 85 0;
#X connect 87 0 81 0;
#X connect 88 0 80 0;
#X connect 88 1 83 0;
#X connect 89 0 90 0;
#X connect 89 1 84 0;
#X connect 90 0 81 0;
#X connect 92 0 8 0;
#X restore 366 59 pd abl_link;
#X obj 122 197 nbx 5 14 -1e+37 1e+37 0 1 empty empty empty 0 -8 0 10
-262144 -1 -1 299 256;
#X obj 181 197 nbx 5 14 -1e+37 1e+37 0 1 empty empty empty 0 -8 0 10
-262144 -1 -1 -302 256;
#X obj 95 216 poftranslate;
#N canvas 159 350 396 384 master-audio 0;
#X obj 243 140 sel 0;
#X msg 243 161 1000;
#X obj 243 182 t b f;
#X msg 243 203 1 \, 0 100;
#X obj 243 224 line~;
#X obj 243 245 *~;
#X obj 244 270 *~;
#X obj 275 244 osc~;
#X obj 245 291 *~ 0.1;
#X msg 280 160 800;
#X obj 245 320 throw~ OUT;
#X obj 100 105 catch~ OUT;
#X obj 94 163 dac~;
#X obj 243 85 r CLOCK;
#X floatatom 201 138 5 0 0 0 - - -;
#X obj 243 106 ndmetro 4 1;
#X obj 100 126 *~;
#X obj 127 126 r audioOn;
#X connect 0 0 1 0;
#X connect 0 1 9 0;
#X connect 1 0 2 0;
#X connect 2 0 3 0;
#X connect 2 1 7 0;
#X connect 3 0 4 0;
#X connect 4 0 5 0;
#X connect 4 0 5 1;
#X connect 5 0 6 0;
#X connect 6 0 8 0;
#X connect 7 0 6 1;
#X connect 8 0 10 0;
#X connect 9 0 2 0;
#X connect 11 0 16 0;
#X connect 13 0 15 0;
#X connect 15 0 14 0;
#X connect 15 0 0 0;
#X connect 16 0 12 0;
#X connect 16 0 12 1;
#X connect 17 0 16 1;
#X restore 366 109 pd master-audio;
#X msg 519 69 1;
#X obj 494 127 declare -path absGAMME;
#X obj 367 150 GAMMEKBV /GAMME;
#X obj 476 151 GAMMEKBV /CHORD;
#N canvas 169 130 1270 599 olds 0;
#X floatatom 397 388 5 0 0 0 - - -;
#X obj 291 168 nbx 5 14 -1e+37 1e+37 0 1 empty empty empty 0 -8 0 10
-262144 -1 -1 0 256;
#X obj 350 168 nbx 5 14 -1e+37 1e+37 0 1 empty empty empty 0 -8 0 10
-262144 -1 -1 131 256;
#X obj 268 188 poftranslate, f 21;
#X obj 269 253 poftexts vera 35 -1;
#X msg 282 229 text chord:\$1;
#X obj 239 283 nbx 5 14 -1e+37 1e+37 0 1 empty empty empty 0 -8 0 10
-262144 -1 -1 275 256;
#X obj 216 303 poftranslate, f 21;
#X obj 216 331 pofscale 1 1;
#X floatatom 285 410 5 0 0 0 - - -;
#X msg 329 405 /GAMME 0;
#N canvas 1 125 370 464 touchGamme 0;
#X obj 72 23 inlet touch;
#X obj 223 21 inlet gamme;
#X obj 72 325 route 0 1;
#X obj 72 394 &;
#X obj 123 393 |;
#X msg 72 180 1 \$1;
#X obj 72 203 <<;
#X obj 72 253 &;
#X obj 72 229 t f f;
#X obj 72 301 pack f f;
#X obj 72 276 == 0;
#X msg 72 348 4095 \$1;
#X obj 72 374 -;
#X msg 178 369 1 \$1;
#X obj 178 392 <<;
#X obj 72 128 list prepend 0;
#X obj 72 149 route 0 1;
#X obj 223 128 f;
#X obj 72 442 outlet gamme;
#X obj 72 44 list split 2;
#X obj 72 86 route down up;
#X obj 179 108 tgl 15 0 empty empty mono 17 7 0 10 -262144 -1 -1 0
1;
#X msg 72 65 \$2 \$1;
#X connect 0 0 19 0;
#X connect 1 0 17 0;
#X connect 2 0 11 0;
#X connect 2 1 4 0;
#X connect 3 0 18 0;
#X connect 4 0 18 0;
#X connect 5 0 6 0;
#X connect 6 0 8 0;
#X connect 7 0 10 0;
#X connect 8 0 7 0;
#X connect 8 1 9 1;
#X connect 9 0 2 0;
#X connect 10 0 9 0;
#X connect 11 0 12 0;
#X connect 12 0 3 0;
#X connect 13 0 14 0;
#X connect 14 0 18 0;
#X connect 15 0 16 0;
#X connect 16 0 5 0;
#X connect 16 1 13 0;
#X connect 17 0 7 1;
#X connect 17 0 3 1;
#X connect 17 0 4 1;
#X connect 19 0 22 0;
#X connect 20 0 15 0;
#X connect 21 0 15 1;
#X connect 22 0 20 0;
#X restore 118 417 pd touchGamme;
#X obj 207 417 r /GAMME;
#X obj 118 439 s /GAMME;
#X obj 569 403 r /GAMME;
#X obj 506 402 r /BASS;
#X obj 441 402 r /CHORD;
#X msg 441 423 /CHORD \$1;
#X msg 506 423 /BASS \$1;
#X msg 569 422 /GAMME \$1;
#X obj 441 444 t a;
#X obj 768 262 poftouch 200 200;
#X obj 791 222 nbx 5 14 -1e+37 1e+37 0 1 empty empty empty 0 -8 0 10
-262144 -1 -1 0 256;
#X obj 850 222 nbx 5 14 -1e+37 1e+37 0 1 empty empty empty 0 -8 0 10
-262144 -1 -1 0 256;
#X obj 768 242 poftranslate, f 21;
#X obj 901 237 loadbang;
#X msg 901 258 draw 1;
#X obj 861 281 route down;
#X obj 730 171 nbx 5 14 -1e+37 1e+37 0 1 empty empty empty 0 -8 0 10
-262144 -1 -1 -283 256;
#X obj 789 171 nbx 5 14 -1e+37 1e+37 0 1 empty empty empty 0 -8 0 10
-262144 -1 -1 104 256;
#X obj 707 191 poftranslate, f 21;
#X obj 723 330 poftouch 200 200;
#X obj 746 290 nbx 5 14 -1e+37 1e+37 0 1 empty empty empty 0 -8 0 10
-262144 -1 -1 225 256;
#X obj 805 290 nbx 5 14 -1e+37 1e+37 0 1 empty empty empty 0 -8 0 10
-262144 -1 -1 0 256;
#X obj 723 310 poftranslate, f 21;
#X obj 854 308 loadbang;
#X msg 854 329 draw 1;
#X obj 816 348 route down;
#X obj 684 407 poftouch 200 200;
#X obj 707 367 nbx 5 14 -1e+37 1e+37 0 1 empty empty empty 0 -8 0 10
-262144 -1 -1 448 256;
#X obj 766 367 nbx 5 14 -1e+37 1e+37 0 1 empty empty empty 0 -8 0 10
-262144 -1 -1 0 256;
#X obj 684 387 poftranslate, f 21;
#X obj 815 385 loadbang;
#X msg 815 406 draw 1;
#X obj 777 425 route down;
#X msg 1002 355 send /CHORD \$1;
#X msg 955 320 145;
#X msg 901 424 2180;
#X msg 893 376 545;
#X obj 216 373 gammegui;
#X connect 1 0 3 1;
#X connect 2 0 3 2;
#X connect 3 0 4 0;
#X connect 3 0 7 0;
#X connect 5 0 4 0;
#X connect 6 0 7 1;
#X connect 7 0 8 0;
#X connect 8 0 49 0;
#X connect 9 0 8 1;
#X connect 9 0 8 2;
#X connect 10 0 49 1;
#X connect 11 0 13 0;
#X connect 12 0 11 1;
#X connect 14 0 19 0;
#X connect 15 0 18 0;
#X connect 16 0 17 0;
#X connect 17 0 20 0;
#X connect 18 0 20 0;
#X connect 19 0 20 0;
#X connect 20 0 49 1;
#X connect 21 1 27 0;
#X connect 22 0 24 1;
#X connect 23 0 24 2;
#X connect 24 0 21 0;
#X connect 25 0 26 0;
#X connect 26 0 21 0;
#X connect 27 0 46 0;
#X connect 28 0 30 1;
#X connect 29 0 30 2;
#X connect 30 0 24 0;
#X connect 30 0 34 0;
#X connect 30 0 41 0;
#X connect 31 1 37 0;
#X connect 32 0 34 1;
#X connect 33 0 34 2;
#X connect 34 0 31 0;
#X connect 35 0 36 0;
#X connect 36 0 31 0;
#X connect 37 0 48 0;
#X connect 38 1 44 0;
#X connect 39 0 41 1;
#X connect 40 0 41 2;
#X connect 41 0 38 0;
#X connect 42 0 43 0;
#X connect 43 0 38 0;
#X connect 44 0 47 0;
#X connect 46 0 45 0;
#X connect 47 0 45 0;
#X connect 48 0 45 0;
#X connect 49 0 11 0;
#X restore 548 26 pd olds;
#N canvas 300 967 834 354 domo-link 0;
#X obj 51 45 loadbang;
#X obj 23 278 tgl 15 0 empty empty empty 17 7 0 10 -262144 -1 -1 1
1;
#X msg 102 280 disconnect;
#X msg 23 111 connect 255.255.255.255 17010;
#X obj 23 255 netsend -u;
#X msg 69 164 send /CHORD 145;
#X msg 88 228 send /BASS \$1;
#X floatatom 88 193 5 0 0 0 - - -;
#X msg 109 207 1;
#X obj 222 114 s /CHORD;
#X obj 222 41 netreceive -u 17010;
#X obj 222 69 route /CHORD /BASS /GAMME, f 31;
#X obj 283 116 s /BASS;
#X obj 344 116 s /GAMME;
#X obj 350 165 r /GAMME;
#X obj 287 164 r /BASS;
#X obj 222 164 r /CHORD;
#X msg 222 207 /CHORD \$1;
#X msg 287 207 /BASS \$1;
#X msg 350 206 /GAMME \$1;
#X obj 222 185 change;
#X obj 287 186 change;
#X obj 350 186 change;
#X obj 287 231 t a;
#X obj 222 90 t f f;
#X obj 283 90 t f f;
#X obj 344 90 t f f;
#X msg 249 139 set \$1;
#X msg 310 139 set \$1;
#X msg 372 137 set \$1;
#X obj 287 252 list prepend send;
#X obj 287 273 list trim;
#X obj 442 185 r mainSeq-load;
#X msg 442 209 /SONG \$1;
#X symbolatom 447 132 10 0 0 0 - - NameSong-snd;
#X obj 430 151 print /SONG;
#X obj 538 107 f;
#X obj 629 109 f;
#X obj 559 178 r Tunes;
#X obj 538 220 list split \$1;
#X obj 575 242 list split 1;
#X obj 538 200 list;
#X obj 538 153 t b f;
#X obj 574 316 s mainSeq-load;
#X obj 674 171 s PART_RECALL;
#X floatatom 573 137 5 0 0 0 - - -;
#X obj 447 108 symbol;
#X floatatom 662 111 5 0 0 0 - - -;
#X obj 629 130 t f f;
#X obj 656 150 moses 0;
#X obj 629 211 s mainSeq-play;
#X obj 629 169 >= 0;
#X obj 629 190 change;
#X obj 439 248 r unloackSnap;
#X msg 439 272 /UNLOCKSNAP \$1;
#X obj 447 87 route /SONG /LOADSONG /RECALLPART /SIG, f 61;
#X obj 719 111 s /SIG;
#X obj 473 62 symbol Basic;
#X obj 446 5 loadbang;
#X obj 521 18 bng 15 250 50 0 empty empty empty 17 7 0 10 -262144 -1
-1;
#X obj 445 25 t b b;
#X obj 402 24 del 50;
#X connect 0 0 3 0;
#X connect 2 0 4 0;
#X connect 3 0 4 0;
#X connect 4 0 1 0;
#X connect 5 0 4 0;
#X connect 6 0 4 0;
#X connect 7 0 6 0;
#X connect 8 0 6 0;
#X connect 10 0 11 0;
#X connect 11 0 24 0;
#X connect 11 1 25 0;
#X connect 11 2 26 0;
#X connect 11 3 55 0;
#X connect 14 0 22 0;
#X connect 15 0 21 0;
#X connect 16 0 20 0;
#X connect 17 0 23 0;
#X connect 18 0 23 0;
#X connect 19 0 23 0;
#X connect 20 0 17 0;
#X connect 21 0 18 0;
#X connect 22 0 19 0;
#X connect 23 0 30 0;
#X connect 24 0 9 0;
#X connect 24 1 27 0;
#X connect 25 0 12 0;
#X connect 25 1 28 0;
#X connect 26 0 13 0;
#X connect 26 1 29 0;
#X connect 27 0 20 0;
#X connect 28 0 21 0;
#X connect 29 0 22 0;
#X connect 30 0 31 0;
#X connect 31 0 4 0;
#X connect 32 0 33 0;
#X connect 33 0 23 0;
#X connect 36 0 42 0;
#X connect 36 0 45 0;
#X connect 37 0 47 0;
#X connect 37 0 48 0;
#X connect 38 0 41 1;
#X connect 39 1 40 0;
#X connect 40 0 43 0;
#X connect 41 0 39 0;
#X connect 42 0 41 0;
#X connect 42 1 39 1;
#X connect 46 0 34 0;
#X connect 46 0 35 0;
#X connect 48 0 51 0;
#X connect 48 1 49 0;
#X connect 49 1 44 0;
#X connect 51 0 52 0;
#X connect 52 0 50 0;
#X connect 53 0 54 0;
#X connect 54 0 23 0;
#X connect 55 0 46 0;
#X connect 55 1 36 0;
#X connect 55 2 37 0;
#X connect 55 3 56 0;
#X connect 57 0 34 0;
#X connect 58 0 60 0;
#X connect 59 0 57 0;
#X connect 60 0 61 0;
#X connect 60 1 57 0;
#X connect 61 0 34 0;
#X restore 366 80 pd domo-link;
#X obj 364 129 clone note 12 /CHORD;
#X obj 510 363 s mainSeq-load;
#X msg 510 343 2;
#X msg 398 341 0;
#X obj 398 361 s mainSeq-recall;
#X obj 361 395 s mainSeq-play;
#X msg 361 375 1;
#X obj 381 296 loadbang;
#X obj 381 317 t b b b;
#N canvas 260 879 814 854 EDIT_SCREEN 0;
#X obj 22 98 pofvisible;
#X obj 112 9 r SCREEN;
#X msg 112 51 1;
#X msg 157 52 0;
#X obj 112 72 change;
#X obj 121 93 tgl 15 0 empty empty empty 17 7 0 10 -262144 -1 -1 1
1;
#X obj 22 9 inlet;
#X obj 45 298 nbx 5 14 -1e+37 1e+37 0 1 empty empty empty 0 -8 0 10
-262144 -1 -1 -196 256;
#X obj 104 298 nbx 5 14 -1e+37 1e+37 0 1 empty empty empty 0 -8 0 10
-262144 -1 -1 -190 256;
#X obj 22 318 poftranslate, f 21;
#X obj 65 416 nbx 5 14 -1e+37 1e+37 0 1 empty empty empty 0 -8 0 10
-262144 -1 -1 -44 256;
#X obj 124 416 nbx 5 14 -1e+37 1e+37 0 1 empty empty empty 0 -8 0 10
-262144 -1 -1 1 256;
#X obj 42 436 poftranslate, f 21;
#X obj 55 456 r beat;
#X msg 55 477 text beat:\$1;
#X obj 42 501 poftexts vera 35 -1;
#N canvas 634 321 693 554 bpm 0;
#X obj 74 33 inlet;
#X obj 97 106 nbx 5 14 -1e+37 1e+37 0 1 empty empty empty 0 -8 0 10
-262144 -1 -1 300 256;
#X obj 156 106 nbx 5 14 -1e+37 1e+37 0 1 empty empty empty 0 -8 0 10
-262144 -1 -1 0 256;
#X obj 74 126 poftranslate, f 21;
#X obj 74 147 t a a;
#X obj 101 170 pofrect 300 50;
#X obj 74 288 pofcolor 0 0 0 1;
#X obj 74 369 pofrect 290 40;
#X obj 184 292 r bpm;
#X obj 184 313 - 20;
#X obj 184 334 / 220;
#X obj 184 355 * 290;
#X obj 101 191 poftouch 300 50;
#X obj 74 333 poftranslate;
#X obj 184 376 * 0.5;
#X obj 184 397 - 145;
#X obj 116 213 route move down;
#X obj 116 234 unpack f;
#X obj 174 234 unpack f;
#X obj 116 255 -;
#X floatatom 160 259 5 0 0 0 - - -;
#X obj 249 250 +;
#X obj 287 210 r bpm;
#X obj 263 230 f;
#X obj 263 208 b;
#X obj 249 271 i;
#X obj 249 292 clip 20 240;
#X obj 249 313 s bpm-r;
#X obj 249 161 / 290;
#X obj 249 182 * 220;
#X obj 378 171 nbx 5 14 -1e+37 1e+37 0 1 empty empty empty 0 -8 0 10
-262144 -1 -1 65 256;
#X obj 437 171 nbx 5 14 -1e+37 1e+37 0 1 empty empty empty 0 -8 0 10
-262144 -1 -1 0 256;
#X obj 355 191 poftranslate, f 21;
#X obj 369 211 r bpm;
#X obj 355 256 poftexts vera 35 -1;
#X obj 506 203 loadbang;
#X msg 369 232 text bpm: \$1;
#X floatatom 570 199 5 0 0 0 - - -;
#X msg 506 225 width 75 \, lineheight 0.75;
#X connect 0 0 3 0;
#X connect 0 0 32 0;
#X connect 1 0 3 1;
#X connect 2 0 3 2;
#X connect 3 0 4 0;
#X connect 4 0 6 0;
#X connect 4 1 5 0;
#X connect 5 0 12 0;
#X connect 6 0 13 0;
#X connect 8 0 9 0;
#X connect 9 0 10 0;
#X connect 10 0 11 0;
#X connect 11 0 7 1;
#X connect 11 0 14 0;
#X connect 12 1 16 0;
#X connect 13 0 7 0;
#X connect 14 0 15 0;
#X connect 15 0 13 1;
#X connect 16 0 17 0;
#X connect 16 1 18 0;
#X connect 16 1 24 0;
#X connect 17 0 19 0;
#X connect 18 0 19 1;
#X connect 19 0 20 0;
#X connect 19 0 28 0;
#X connect 21 0 25 0;
#X connect 22 0 23 1;
#X connect 23 0 21 1;
#X connect 24 0 23 0;
#X connect 25 0 26 0;
#X connect 26 0 27 0;
#X connect 28 0 29 0;
#X connect 29 0 21 0;
#X connect 30 0 32 1;
#X connect 31 0 32 2;
#X connect 32 0 34 0;
#X connect 33 0 36 0;
#X connect 35 0 38 0;
#X connect 36 0 34 0;
#X connect 37 0 38 0;
#X connect 38 0 34 0;
#X restore 22 539 pd bpm;
#N canvas 436 230 764 600 latency 0;
#X obj 134 142 nbx 5 14 -1e+37 1e+37 0 1 empty empty empty 0 -8 0 10
-262144 -1 -1 300 256;
#X obj 193 142 nbx 5 14 -1e+37 1e+37 0 1 empty empty empty 0 -8 0 10
-262144 -1 -1 0 256;
#X obj 111 162 poftranslate, f 21;
#X obj 111 183 t a a;
#X obj 138 206 pofrect 300 50;
#X obj 111 324 pofcolor 0 0 0 1;
#X obj 111 405 pofrect 290 40;
#X obj 221 391 * 290;
#X obj 138 227 poftouch 300 50;
#X obj 111 369 poftranslate;
#X obj 221 412 * 0.5;
#X obj 221 433 - 145;
#X obj 153 249 route move down;
#X obj 153 270 unpack f;
#X obj 211 270 unpack f;
#X obj 153 291 -;
#X floatatom 197 295 5 0 0 0 - - -;
#X obj 286 286 +;
#X obj 300 266 f;
#X obj 300 244 b;
#X obj 286 307 i;
#X obj 286 197 / 290;
#X obj 324 246 r latency;
#X obj 286 349 s latency;
#X obj 438 134 nbx 5 14 -1e+37 1e+37 0 1 empty empty empty 0 -8 0 10
-262144 -1 -1 21 256;
#X obj 497 134 nbx 5 14 -1e+37 1e+37 0 1 empty empty empty 0 -8 0 10
-262144 -1 -1 0 256;
#X obj 415 154 poftranslate, f 21;
#X obj 416 219 poftexts vera 35 -1;
#X obj 429 174 r latency;
#X floatatom 328 297 5 0 0 0 - - -;
#X obj 221 328 r latency;
#X obj 221 349 - 0;
#X obj 221 370 / 350;
#X obj 286 328 clip 0 350;
#X obj 286 218 * 350;
#X obj 111 60 inlet;
#X msg 429 195 text latency: \$1 ms;
#X msg 567 195 width 140 \, lineheight 0.75;
#X obj 567 173 loadbang;
#X connect 0 0 2 1;
#X connect 1 0 2 2;
#X connect 2 0 3 0;
#X connect 3 0 5 0;
#X connect 3 1 4 0;
#X connect 4 0 8 0;
#X connect 5 0 9 0;
#X connect 7 0 6 1;
#X connect 7 0 10 0;
#X connect 8 1 12 0;
#X connect 9 0 6 0;
#X connect 10 0 11 0;
#X connect 11 0 9 1;
#X connect 12 0 13 0;
#X connect 12 1 14 0;
#X connect 12 1 19 0;
#X connect 13 0 15 0;
#X connect 14 0 15 1;
#X connect 15 0 16 0;
#X connect 15 0 21 0;
#X connect 17 0 20 0;
#X connect 18 0 17 1;
#X connect 19 0 18 0;
#X connect 20 0 33 0;
#X connect 21 0 34 0;
#X connect 22 0 18 1;
#X connect 24 0 26 1;
#X connect 25 0 26 2;
#X connect 26 0 27 0;
#X connect 28 0 36 0;
#X connect 29 0 23 0;
#X connect 30 0 31 0;
#X connect 31 0 32 0;
#X connect 32 0 7 0;
#X connect 33 0 23 0;
#X connect 34 0 17 0;
#X connect 35 0 2 0;
#X connect 35 0 26 0;
#X connect 36 0 27 0;
#X connect 37 0 27 0;
#X connect 38 0 37 0;
#X restore 72 393 pd latency;
#X obj 95 352 nbx 5 14 -1e+37 1e+37 0 1 empty empty empty 0 -8 0 10
-262144 -1 -1 0 256;
#X obj 154 352 nbx 5 14 -1e+37 1e+37 0 1 empty empty empty 0 -8 0 10
-262144 -1 -1 -58 256;
#X obj 72 372 poftranslate, f 21;
#X obj 231 118 nbx 5 14 -1e+37 1e+37 0 1 empty empty empty 0 -8 0 10
-262144 -1 -1 -26 256;
#X obj 208 138 poftranslate, f 21;
#X obj 234 215 gammegui;
#X obj 234 173 pofscale 1 1;
#X floatatom 328 191 5 0 0 0 - - -;
#N canvas 1 212 370 464 touchGamme 0;
#X obj 72 23 inlet touch;
#X obj 223 21 inlet gamme;
#X obj 72 325 route 0 1;
#X obj 72 394 &;
#X obj 123 393 |;
#X msg 72 180 1 \$1;
#X obj 72 203 <<;
#X obj 72 253 &;
#X obj 72 229 t f f;
#X obj 72 301 pack f f;
#X obj 72 276 == 0;
#X msg 72 348 4095 \$1;
#X obj 72 374 -;
#X msg 178 369 1 \$1;
#X obj 178 392 <<;
#X obj 72 128 list prepend 0;
#X obj 72 149 route 0 1;
#X obj 223 128 f;
#X obj 72 442 outlet gamme;
#X obj 72 44 list split 2;
#X obj 72 86 route down up;
#X obj 179 108 tgl 15 0 empty empty mono 17 7 0 10 -262144 -1 -1 0
1;
#X msg 72 65 \$2 \$1;
#X connect 0 0 19 0;
#X connect 1 0 17 0;
#X connect 2 0 11 0;
#X connect 2 1 4 0;
#X connect 3 0 18 0;
#X connect 4 0 18 0;
#X connect 5 0 6 0;
#X connect 6 0 8 0;
#X connect 7 0 10 0;
#X connect 8 0 7 0;
#X connect 8 1 9 1;
#X connect 9 0 2 0;
#X connect 10 0 9 0;
#X connect 11 0 12 0;
#X connect 12 0 3 0;
#X connect 13 0 14 0;
#X connect 14 0 18 0;
#X connect 15 0 16 0;
#X connect 16 0 5 0;
#X connect 16 1 13 0;
#X connect 17 0 7 1;
#X connect 17 0 3 1;
#X connect 17 0 4 1;
#X connect 19 0 22 0;
#X connect 20 0 15 0;
#X connect 21 0 15 1;
#X connect 22 0 20 0;
#X restore 234 371 pd touchGamme;
#X obj 510 148 r /GAMME;
#X obj 447 147 r /BASS;
#X obj 382 147 r /CHORD;
#X msg 382 168 /CHORD \$1;
#X msg 447 168 /BASS \$1;
#X msg 510 167 /GAMME \$1;
#X obj 382 194 t a;
#X obj 294 118 nbx 5 14 -1e+37 1e+37 0 1 empty empty empty 0 -8 0 10
-262144 -1 -1 79 256;
#X obj 321 172 nbx 5 14 -1e+37 1e+37 0 1 empty empty empty 0 -8 0 10
-262144 -1 -1 3.52 256;
#X obj 234 236 list prepend 0;
#X obj 234 257 route 1 2 3;
#N canvas 76 954 370 464 touchGamme 0;
#X obj 72 23 inlet touch;
#X obj 223 21 inlet gamme;
#X obj 72 325 route 0 1;
#X obj 72 394 &;
#X obj 123 393 |;
#X msg 72 180 1 \$1;
#X obj 72 203 <<;
#X obj 72 253 &;
#X obj 72 229 t f f;
#X obj 72 301 pack f f;
#X obj 72 276 == 0;
#X msg 72 348 4095 \$1;
#X obj 72 374 -;
#X msg 178 369 1 \$1;
#X obj 178 392 <<;
#X obj 72 128 list prepend 0;
#X obj 72 149 route 0 1;
#X obj 223 128 f;
#X obj 72 442 outlet gamme;
#X obj 72 44 list split 2;
#X obj 72 86 route down up;
#X obj 179 108 tgl 15 0 empty empty mono 17 7 0 10 -262144 -1 -1 0
1;
#X msg 72 65 \$2 \$1;
#X connect 0 0 19 0;
#X connect 1 0 17 0;
#X connect 2 0 11 0;
#X connect 2 1 4 0;
#X connect 3 0 18 0;
#X connect 4 0 18 0;
#X connect 5 0 6 0;
#X connect 6 0 8 0;
#X connect 7 0 10 0;
#X connect 8 0 7 0;
#X connect 8 1 9 1;
#X connect 9 0 2 0;
#X connect 10 0 9 0;
#X connect 11 0 12 0;
#X connect 12 0 3 0;
#X connect 13 0 14 0;
#X connect 14 0 18 0;
#X connect 15 0 16 0;
#X connect 16 0 5 0;
#X connect 16 1 13 0;
#X connect 17 0 7 1;
#X connect 17 0 3 1;
#X connect 17 0 4 1;
#X connect 19 0 22 0;
#X connect 20 0 15 0;
#X connect 21 0 15 1;
#X connect 22 0 20 0;
#X restore 255 326 pd touchGamme;
#N canvas 2750 1231 370 584 touchGamme 0;
#X obj 72 23 inlet touch;
#X obj 223 21 inlet gamme;
#X obj 72 325 route 0 1;
#X obj 72 394 &;
#X obj 123 393 |;
#X msg 72 180 1 \$1;
#X obj 72 203 <<;
#X obj 72 253 &;
#X obj 72 229 t f f;
#X obj 72 301 pack f f;
#X obj 72 276 == 0;
#X msg 72 348 4095 \$1;
#X obj 72 374 -;
#X msg 178 369 1 \$1;
#X obj 178 392 <<;
#X obj 72 149 route 0 1;
#X obj 223 128 f;
#X obj 72 442 outlet gamme;
#X obj 72 44 list split 2;
#X obj 72 86 route down up;
#X obj 179 108 tgl 15 0 empty empty mono 17 7 0 10 -262144 -1 -1 0
1;
#X msg 72 65 \$2 \$1;
#X obj 72 128 list prepend 1;
#X floatatom 273 133 5 0 0 0 - - -;
#X floatatom 173 56 5 0 0 0 - - -;
#N canvas 1774 1185 450 300 NotesSymbol 0;
#X obj 97 19 inlet;
#X msg 41 84 do;
#X msg 74 84 do#;
#X msg 107 84 re;
#X msg 140 84 re#;
#X msg 174 84 mi;
#X msg 207 83 fa;
#X msg 240 84 fa#;
#X msg 273 84 sol;
#X msg 307 84 sol#;
#X msg 340 84 la;
#X msg 406 84 si;
#X obj 156 155 symbol;
#X msg 373 84 sib;
#X obj 124 192 s /BASSsym;
#X obj 41 61 sel 1 2 4 8 16 32 64 128 256 512 1024 2048, f 67;
#X connect 0 0 15 0;
#X connect 1 0 12 0;
#X connect 2 0 12 0;
#X connect 3 0 12 0;
#X connect 4 0 12 0;
#X connect 5 0 12 0;
#X connect 6 0 12 0;
#X connect 7 0 12 0;
#X connect 8 0 12 0;
#X connect 9 0 12 0;
#X connect 10 0 12 0;
#X connect 11 0 12 0;
#X connect 12 0 14 0;
#X connect 13 0 12 0;
#X connect 15 0 1 0;
#X connect 15 1 2 0;
#X connect 15 2 3 0;
#X connect 15 3 4 0;
#X connect 15 4 5 0;
#X connect 15 5 6 0;
#X connect 15 6 7 0;
#X connect 15 7 8 0;
#X connect 15 8 9 0;
#X connect 15 9 10 0;
#X connect 15 10 13 0;
#X connect 15 11 11 0;
#X restore 260 252 pd NotesSymbol;
#X connect 0 0 18 0;
#X connect 1 0 16 0;
#X connect 1 0 24 0;
#X connect 2 0 11 0;
#X connect 2 1 4 0;
#X connect 3 0 17 0;
#X connect 4 0 17 0;
#X connect 5 0 6 0;
#X connect 6 0 8 0;
#X connect 7 0 10 0;
#X connect 8 0 7 0;
#X connect 8 1 9 1;
#X connect 9 0 2 0;
#X connect 10 0 9 0;
#X connect 11 0 12 0;
#X connect 12 0 3 0;
#X connect 13 0 14 0;
#X connect 14 0 17 0;
#X connect 15 0 5 0;
#X connect 15 1 13 0;
#X connect 16 0 7 1;
#X connect 16 0 3 1;
#X connect 16 0 4 1;
#X connect 16 0 23 0;
#X connect 18 0 21 0;
#X connect 19 0 22 0;
#X connect 20 0 22 1;
#X connect 21 0 19 0;
#X connect 22 0 15 0;
#X restore 276 281 pd touchGamme;
#X msg 255 346 /CHORD \$1;
#X msg 276 301 /BASS \$1;
#X msg 234 390 /GAMME \$1;
#X obj 382 254 route /BASS /CHORD /GAMME;
#X obj 234 416 t a;
#X obj 234 437 route /CHORD /BASS /GAMME;
#X obj 328 232 hradio 15 1 0 4 empty empty empty 0 -8 0 10 -262144
-1 -1 3;
#X obj 246 547 nbx 5 14 -1e+37 1e+37 0 1 empty empty empty 0 -8 0 10
-262144 -1 -1 -292 256;
#X obj 309 548 nbx 5 14 -1e+37 1e+37 0 1 empty empty empty 0 -8 0 10
-262144 -1 -1 0 256;
#X obj 464 519 r editKBmode-r;
#X msg 464 540 \$2 \$1;
#X obj 464 561 route 1;
#X msg 503 605 0;
#X obj 464 629 s editKBmode-s;
#X obj 328 213 r editKBmode-s;
#X obj 503 582 spigot 1;
#X msg 544 548 0;
#X msg 573 548 1;
#X obj 112 30 route edit;
#X obj 81 233 nbx 5 14 -1e+37 1e+37 0 1 empty empty empty 0 -8 0 10
-262144 -1 -1 -315 256;
#X obj 40 252 poftranslate, f 21;
#X obj 139 233 nbx 5 14 -1e+37 1e+37 0 1 empty empty empty 0 -8 0 10
-262144 -1 -1 -225 256;
#N canvas 750 325 450 499 audio-on 0;
#X obj 96 21 inlet;
#X obj 96 42 t a a a;
#X obj 135 67 pofcolor 1 1 1 1;
#X msg 253 53 draw 1;
#X obj 253 32 loadbang;
#X obj 115 280 pofcolor 0.2 0.2 0.2 1;
#X obj 19 305 loadbang;
#X obj 128 350 unpack f f f;
#X obj 147 259 unpack f f f;
#X msg 309 259 0.2 0.2 0.2;
#X msg 309 300 0.8 0.8 0.8;
#X msg 252 300 0 0 0 1;
#X obj 252 238 sel 1 0;
#X obj 228 107 route down;
#X obj 228 128 b;
#X obj 349 217 loadbang;
#X msg 252 258 1 0 0 1;
#X obj 260 147 == 0;
#X obj 245 167 f 1;
#X obj 260 126 r audioOn;
#X obj 245 188 s audioOn;
#X obj 252 218 r audioOn;
#X obj 135 88 poftouch 124 74;
#X obj 115 300 pofrect 120 70;
#X obj 96 370 pofcolor 0.8 0.8 0.8 1;
#X obj 96 391 poftexts asimov 30;
#X msg 19 326 text Metro- nome \, width 130 \, center 1;
#X connect 0 0 1 0;
#X connect 1 0 24 0;
#X connect 1 1 5 0;
#X connect 1 2 2 0;
#X connect 2 0 22 0;
#X connect 3 0 22 0;
#X connect 4 0 3 0;
#X connect 5 0 23 0;
#X connect 6 0 26 0;
#X connect 7 0 24 1;
#X connect 7 1 24 2;
#X connect 7 2 24 3;
#X connect 8 0 5 1;
#X connect 8 1 5 2;
#X connect 8 2 5 3;
#X connect 9 0 8 0;
#X connect 9 0 10 0;
#X connect 10 0 7 0;
#X connect 11 0 7 0;
#X connect 12 0 16 0;
#X connect 12 1 9 0;
#X connect 13 0 14 0;
#X connect 14 0 18 0;
#X connect 15 0 9 0;
#X connect 16 0 8 0;
#X connect 16 0 11 0;
#X connect 17 0 18 1;
#X connect 18 0 20 0;
#X connect 19 0 17 0;
#X connect 21 0 12 0;
#X connect 22 1 13 0;
#X connect 24 0 25 0;
#X connect 26 0 25 0;
#X restore 40 273 pd audio-on;
#N canvas 342 1254 700 666 tranpose 0;
#X obj 15 5 inlet;
#X floatatom 80 21 5 0 0 0 - - -;
#X floatatom 119 21 5 0 0 0 - - -;
#X floatatom 165 16 5 0 0 0 - - -;
#X obj 45 110 poftranslate 0 50;
#X obj 45 168 poftranslate 0 50;
#X obj 46 225 poftranslate 0 50;
#X obj 46 283 poftranslate 0 50;
#X obj 46 345 poftranslate 0 50;
#X obj 288 118 poftranslate 0 50;
#X obj 288 176 poftranslate 0 50;
#X obj 289 233 poftranslate 0 50;
#X obj 289 353 poftranslate 0 50;
#X floatatom 317 25 5 0 0 0 - - -;
#X floatatom 356 25 5 0 0 0 - - -;
#X floatatom 402 20 5 0 0 0 - - -;
#X obj 289 57 poftranslate 84 -250;
#X obj 305 511 poftexts vera 35 -1;
#X msg 318 487 text transpose;
#X floatatom 341 437 5 0 0 0 - - -;
#X floatatom 378 435 5 0 0 0 - - -;
#X floatatom 426 432 5 0 0 0 - - -;
#X obj 289 291 poftranslate 0 50;
#X obj 305 464 poftranslate -116 -290;
#X obj 427 485 loadbang;
#X obj 69 78 radioTogglePetit transpose 0 zero;
#X obj 67 139 radioTogglePetit transpose 1 un;
#X obj 67 197 radioTogglePetit transpose 2 deux;
#X obj 68 255 radioTogglePetit transpose 3 trois;
#X obj 69 312 radioTogglePetit transpose 4 quatre;
#X obj 67 375 radioTogglePetit transpose 5 cinq;
#X obj 311 86 radioTogglePetit transpose 6 six;
#X obj 310 147 radioTogglePetit transpose 7 sept;
#X obj 312 203 radioTogglePetit transpose 8 huit;
#X obj 311 262 radioTogglePetit transpose 9 neuf;
#X obj 311 320 radioTogglePetit transpose 10 dix;
#X obj 312 382 radioTogglePetit transpose 11 onze;
#X obj 46 49 poftranslate 618 -196 -35;
#X connect 0 0 37 0;
#X connect 1 0 37 1;
#X connect 2 0 37 2;
#X connect 3 0 37 3;
#X connect 4 0 5 0;
#X connect 4 0 26 0;
#X connect 5 0 6 0;
#X connect 5 0 27 0;
#X connect 6 0 7 0;
#X connect 6 0 28 0;
#X connect 7 0 8 0;
#X connect 7 0 29 0;
#X connect 8 0 16 0;
#X connect 8 0 30 0;
#X connect 9 0 10 0;
#X connect 9 0 32 0;
#X connect 10 0 11 0;
#X connect 10 0 33 0;
#X connect 11 0 22 0;
#X connect 11 0 34 0;
#X connect 12 0 23 0;
#X connect 12 0 36 0;
#X connect 13 0 16 1;
#X connect 14 0 16 2;
#X connect 15 0 16 3;
#X connect 16 0 9 0;
#X connect 16 0 31 0;
#X connect 18 0 17 0;
#X connect 19 0 23 1;
#X connect 20 0 23 2;
#X connect 21 0 23 3;
#X connect 22 0 12 0;
#X connect 22 0 35 0;
#X connect 23 0 17 0;
#X connect 24 0 18 0;
#X connect 37 0 4 0;
#X connect 37 0 25 0;
#X restore 548 333 pd tranpose;
#X obj 206 566 poftranslate, f 21;
#X obj 230 694 poftranslate 0 100;
#X msg 525 392 \$2 \$1;
#X obj 525 413 route 1;
#X msg 564 457 0;
#X obj 564 434 spigot 1;
#X msg 605 400 0;
#X msg 634 400 1;
#X obj 525 371 r transpose-r;
#X obj 525 481 s transpose-s;
#X obj 664 448 loadbang;
#X obj 287 507 s Refresh/BASS;
#X obj 222 484 s Refresh/CHORD;
#X obj 330 486 s Refresh/GAMME;
#X obj 430 41 r Refresh/CHORD;
#X obj 438 78 r Refresh/GAMME;
#X obj 557 52 r Refresh/BASS;
#X floatatom 214 517 5 0 0 0 - - -;
#X floatatom 306 670 5 0 0 0 - - -;
#X obj 69 162 pofcolor 1 1 0 1;
#X obj 69 184 poftexts asimov 40 -1;
#X obj 13 181 loadbang;
#X floatatom 99 105 5 0 0 0 - - -;
#X floatatom 171 107 5 0 0 0 - - -;
#X msg 51 206 text EDIT SONG:;
#X obj 69 142 poftranslate -560 -220;
#X obj 233 618 radioToggle2 editKBmode 3 BASS;
#X obj 231 640 radioToggle2 editKBmode 2 CHORD;
#X obj 230 715 radioToggle2 editKBmode 1 GAMME;
#X obj 233 597 poftranslate 0 -100;
#X obj 234 461 s /CHORDt;
#X obj 295 463 s /BASSt;
#X obj 359 462 s /GAMMEt;
#X connect 0 0 9 0;
#X connect 0 0 22 0;
#X connect 0 0 60 0;
#X connect 0 0 89 0;
#X connect 1 0 58 0;
#X connect 2 0 4 0;
#X connect 3 0 4 0;
#X connect 4 0 5 0;
#X connect 4 0 0 0;
#X connect 6 0 0 0;
#X connect 7 0 9 1;
#X connect 8 0 9 2;
#X connect 9 0 12 0;
#X connect 9 0 16 0;
#X connect 9 0 20 0;
#X connect 10 0 12 1;
#X connect 11 0 12 2;
#X connect 12 0 15 0;
#X connect 13 0 14 0;
#X connect 14 0 15 0;
#X connect 18 0 20 1;
#X connect 19 0 20 2;
#X connect 20 0 17 0;
#X connect 21 0 22 1;
#X connect 22 0 24 0;
#X connect 22 0 64 0;
#X connect 23 0 36 0;
#X connect 24 0 23 0;
#X connect 25 0 24 1;
#X connect 25 0 24 2;
#X connect 26 0 42 0;
#X connect 27 0 32 0;
#X connect 28 0 31 0;
#X connect 29 0 30 0;
#X connect 30 0 33 0;
#X connect 31 0 33 0;
#X connect 32 0 33 0;
#X connect 33 0 23 1;
#X connect 33 0 43 0;
#X connect 34 0 22 2;
#X connect 35 0 25 0;
#X connect 36 0 37 0;
#X connect 37 0 26 0;
#X connect 37 1 38 0;
#X connect 37 2 39 0;
#X connect 38 0 40 0;
#X connect 39 0 41 0;
#X connect 40 0 44 0;
#X connect 41 0 44 0;
#X connect 42 0 44 0;
#X connect 43 0 39 1;
#X connect 43 1 38 1;
#X connect 43 2 26 1;
#X connect 44 0 45 0;
#X connect 45 0 76 0;
#X connect 45 0 81 0;
#X connect 45 0 94 0;
#X connect 45 1 75 0;
#X connect 45 1 95 0;
#X connect 45 2 77 0;
#X connect 45 2 96 0;
#X connect 46 0 36 1;
#X connect 47 0 64 1;
#X connect 48 0 64 2;
#X connect 49 0 50 0;
#X connect 50 0 51 0;
#X connect 51 0 53 0;
#X connect 51 1 55 0;
#X connect 52 0 53 0;
#X connect 54 0 46 0;
#X connect 55 0 52 0;
#X connect 56 0 55 1;
#X connect 57 0 55 1;
#X connect 58 0 2 0;
#X connect 58 1 3 0;
#X connect 59 0 60 1;
#X connect 60 0 62 0;
#X connect 61 0 60 2;
#X connect 64 0 65 0;
#X connect 64 0 93 0;
#X connect 64 0 91 0;
#X connect 65 0 63 0;
#X connect 65 0 92 0;
#X connect 66 0 67 0;
#X connect 67 0 73 0;
#X connect 67 1 69 0;
#X connect 68 0 73 0;
#X connect 69 0 68 0;
#X connect 70 0 69 1;
#X connect 71 0 69 1;
#X connect 72 0 66 0;
#X connect 74 0 68 0;
#X connect 82 0 65 2;
#X connect 83 0 84 0;
#X connect 85 0 88 0;
#X connect 86 0 89 1;
#X connect 87 0 89 2;
#X connect 88 0 84 0;
#X connect 89 0 83 0;
#X connect 93 0 90 0;
#X restore 124 138 pd EDIT_SCREEN;
#X obj 260 134 s SCREEN;
#X msg 260 107 edit;
#X msg 296 106 play;
#N canvas 1558 1358 552 524 PLAY_SCREEN 0;
#X obj 22 98 pofvisible;
#X obj 112 9 r SCREEN;
#X msg 112 51 1;
#X msg 157 52 0;
#X obj 112 72 change;
#X obj 121 93 tgl 15 0 empty empty empty 17 7 0 10 -262144 -1 -1 0
1;
#X obj 22 17 inlet;
#X obj 112 30 route play;
#X obj 87 135 nbx 5 14 -1e+37 1e+37 0 1 empty empty empty 0 -8 0 10
-262144 -1 -1 290 256;
#X obj 46 154 poftranslate, f 21;
#X obj 46 219 gammegui;
#X obj 46 193 pofscale 1 1;
#X floatatom 127 194 5 0 0 0 - - -;
#X obj 145 135 nbx 5 14 -1e+37 1e+37 0 1 empty empty empty 0 -8 0 10
-262144 -1 -1 99 256;
#X obj 127 177 nbx 5 14 -1e+37 1e+37 0 1 empty empty empty 0 -8 0 10
-262144 -1 -1 1.7 256;
#X obj 317 172 r /GAMME;
#X obj 254 171 r /BASS;
#X obj 189 171 r /CHORD;
#X msg 189 192 /CHORD \$1;
#X msg 254 192 /BASS \$1;
#X msg 317 191 /GAMME \$1;
#X obj 189 218 t a;
#X obj 40 334 tuneSelector;
#X obj 81 245 nbx 5 14 -1e+37 1e+37 0 1 empty empty empty 0 -8 0 10
-262144 -1 -1 -302 256;
#X obj 40 264 poftranslate, f 21;
#X obj 139 245 nbx 5 14 -1e+37 1e+37 0 1 empty empty empty 0 -8 0 10
-262144 -1 -1 -223 256;
#X obj 40 303 pofscale 1 1;
#X floatatom 121 304 5 0 0 0 - - -;
#X obj 121 287 nbx 5 14 -1e+37 1e+37 0 1 empty empty empty 0 -8 0 10
-262144 -1 -1 1 256;
#X obj 45 369 nbx 5 14 -1e+37 1e+37 0 1 empty empty empty 0 -8 0 10
-262144 -1 -1 187 256;
#X obj 104 369 nbx 5 14 -1e+37 1e+37 0 1 empty empty empty 0 -8 0 10
-262144 -1 -1 209 256;
#X obj 22 389 poftranslate, f 21;
#X obj 296 441 r beat;
#N canvas 783 163 397 532 bpm 0;
#X obj 23 7 inlet;
#X obj 50 52 t a a;
#X obj 77 103 pofrect 300 50;
#X obj 50 221 pofcolor 0 0 0 1;
#X obj 319 71 r bpm;
#X obj 319 157 - 20;
#X obj 319 186 / 220;
#X obj 77 124 poftouch 300 50;
#X obj 50 266 poftranslate;
#X obj 319 228 * 0.5;
#X obj 92 146 route move down;
#X obj 92 167 unpack f;
#X obj 150 167 unpack f;
#X obj 92 188 -;
#X floatatom 136 192 5 0 0 0 - - -;
#X obj 225 155 +;
#X obj 266 112 r bpm;
#X obj 239 135 f;
#X obj 239 113 b;
#X obj 225 176 i;
#X obj 225 197 clip 20 240;
#X obj 225 218 s bpm-r;
#X obj 225 66 / 290;
#X obj 225 87 * 220;
#X obj 45 333 nbx 5 14 -1e+37 1e+37 0 1 empty empty empty 0 -8 0 10
-262144 -1 -1 -133 256;
#X obj 104 333 nbx 5 14 -1e+37 1e+37 0 1 empty empty empty 0 -8 0 10
-262144 -1 -1 0 256;
#X obj 22 353 poftranslate, f 21;
#X obj 36 405 r bpm;
#X obj 22 482 poftexts vera 35 -1;
#X obj 22 374 pofcolor 0 1 0 1;
#X obj 77 396 r beat;
#X obj 77 417 t b f;
#X obj 36 439 pack f f;
#X obj 77 76 pofcolor 0.5 0.5 0.5 1;
#X obj 50 302 pofrect 295 45;
#X obj 319 207 * 295;
#X obj 73 245 - 147.5;
#X msg 36 458 text BPM:\$1 - beat:\$2;
#X obj 319 92 * 10;
#X obj 319 113 i;
#X obj 319 134 / 10;
#X obj 23 28 t a a;
#X connect 0 0 41 0;
#X connect 1 0 3 0;
#X connect 1 1 33 0;
#X connect 2 0 7 0;
#X connect 3 0 8 0;
#X connect 4 0 38 0;
#X connect 5 0 6 0;
#X connect 6 0 35 0;
#X connect 7 1 10 0;
#X connect 8 0 34 0;
#X connect 9 0 36 0;
#X connect 10 0 11 0;
#X connect 10 1 12 0;
#X connect 10 1 18 0;
#X connect 11 0 13 0;
#X connect 12 0 13 1;
#X connect 13 0 14 0;
#X connect 13 0 22 0;
#X connect 15 0 19 0;
#X connect 16 0 17 1;
#X connect 17 0 15 1;
#X connect 18 0 17 0;
#X connect 19 0 20 0;
#X connect 20 0 21 0;
#X connect 22 0 23 0;
#X connect 23 0 15 0;
#X connect 24 0 26 1;
#X connect 25 0 26 2;
#X connect 26 0 29 0;
#X connect 27 0 32 0;
#X connect 29 0 28 0;
#X connect 30 0 31 0;
#X connect 31 0 32 0;
#X connect 31 1 32 1;
#X connect 32 0 37 0;
#X connect 33 0 2 0;
#X connect 35 0 9 0;
#X connect 35 0 34 1;
#X connect 36 0 8 1;
#X connect 37 0 28 0;
#X connect 38 0 39 0;
#X connect 39 0 40 0;
#X connect 40 0 5 0;
#X connect 41 0 26 0;
#X connect 41 1 1 0;
#X restore 22 441 pd bpm;
#X obj 258 264 nbx 5 14 -1e+37 1e+37 0 1 empty empty empty 0 -8 0 10
-262144 -1 -1 14 256;
#X obj 217 283 poftranslate, f 21;
#X obj 316 264 nbx 5 14 -1e+37 1e+37 0 1 empty empty empty 0 -8 0 10
-262144 -1 -1 -156 256;
#X obj 217 322 pofscale 1 1;
#X floatatom 298 323 5 0 0 0 - - -;
#X obj 298 306 nbx 5 14 -1e+37 1e+37 0 1 empty empty empty 0 -8 0 10
-262144 -1 -1 1 256;
#X obj 217 343 partSelector;
#X obj 409 264 nbx 5 14 -1e+37 1e+37 0 1 empty empty empty 0 -8 0 10
-262144 -1 -1 261 256;
#X obj 368 283 poftranslate, f 21;
#X obj 467 264 nbx 5 14 -1e+37 1e+37 0 1 empty empty empty 0 -8 0 10
-262144 -1 -1 -28 256;
#N canvas 750 333 450 499 play 0;
#X obj 96 21 inlet;
#X obj 96 42 t a a a;
#X obj 135 67 pofcolor 1 1 1 1;
#X msg 276 31 draw 1;
#X obj 276 10 loadbang;
#X obj 115 300 pofrect 150 100;
#X obj 115 280 pofcolor 0.2 0.2 0.2 1;
#X obj 135 88 poftouch 154 104;
#X obj 96 351 pofcolor 0.8 0.8 0.8 1;
#X obj 96 372 poftexts asimov 50;
#X msg 31 348 text PLAY;
#X obj 31 324 loadbang;
#X obj 128 331 unpack f f f;
#X obj 147 259 unpack f f f;
#X msg 309 259 0.2 0.2 0.2;
#X msg 252 258 0 1 0 1;
#X msg 309 300 0.8 0.8 0.8;
#X msg 252 300 0 0 0 1;
#X obj 252 217 r mainSeq-play;
#X obj 252 238 sel 1 0;
#X obj 228 107 route down;
#X obj 255 126 r mainSeq-play;
#X obj 255 146 == 0;
#X obj 228 128 b;
#X obj 228 187 s mainSeq-play;
#X obj 349 217 loadbang;
#X obj 228 166 f 1, f 5;
#X obj 377 46 del 250;
#X obj 358 100 del 260;
#X msg 377 67 1;
#X msg 372 131 0;
#X obj 384 21 bng 15 250 50 0 empty empty empty 17 7 0 10 -262144 -1
-1;
#X connect 0 0 1 0;
#X connect 1 0 8 0;
#X connect 1 1 6 0;
#X connect 1 2 2 0;
#X connect 2 0 7 0;
#X connect 3 0 7 0;
#X connect 4 0 3 0;
#X connect 6 0 5 0;
#X connect 7 1 20 0;
#X connect 8 0 9 0;
#X connect 10 0 9 0;
#X connect 11 0 10 0;
#X connect 12 0 8 1;
#X connect 12 1 8 2;
#X connect 12 2 8 3;
#X connect 13 0 6 1;
#X connect 13 1 6 2;
#X connect 13 2 6 3;
#X connect 14 0 13 0;
#X connect 14 0 16 0;
#X connect 15 0 13 0;
#X connect 15 0 17 0;
#X connect 16 0 12 0;
#X connect 17 0 12 0;
#X connect 18 0 19 0;
#X connect 19 0 15 0;
#X connect 19 1 14 0;
#X connect 20 0 23 0;
#X connect 21 0 22 0;
#X connect 22 0 26 1;
#X connect 23 0 26 0;
#X connect 25 0 14 0;
#X connect 26 0 24 0;
#X connect 27 0 29 0;
#X connect 27 0 28 0;
#X connect 28 0 30 0;
#X connect 29 0 24 0;
#X connect 30 0 24 0;
#X connect 31 0 27 0;
#X restore 368 304 pd play;
#X obj 22 422 pofscale 1 1;
#X floatatom 103 423 5 0 0 0 - - -;
#X obj 103 406 nbx 5 14 -1e+37 1e+37 0 1 empty empty empty 0 -8 0 10
-262144 -1 -1 1.38 256;
#X obj 421 362 nbx 5 14 -1e+37 1e+37 0 1 empty empty empty 0 -8 0 10
-262144 -1 -1 61 256;
#X obj 380 381 poftranslate, f 21;
#X obj 479 362 nbx 5 14 -1e+37 1e+37 0 1 empty empty empty 0 -8 0 10
-262144 -1 -1 133 256;
#N canvas 750 325 450 499 unlock_snap 0;
#X obj 96 21 inlet;
#X obj 96 42 t a a a;
#X obj 135 67 pofcolor 1 1 1 1;
#X msg 253 53 draw 1;
#X obj 253 32 loadbang;
#X obj 115 280 pofcolor 0.2 0.2 0.2 1;
#X obj 96 370 pofcolor 0.8 0.8 0.8 1;
#X obj 19 305 loadbang;
#X obj 128 350 unpack f f f;
#X obj 147 259 unpack f f f;
#X msg 309 259 0.2 0.2 0.2;
#X msg 309 300 0.8 0.8 0.8;
#X msg 252 300 0 0 0 1;
#X obj 252 238 sel 1 0;
#X obj 228 107 route down;
#X obj 228 128 b;
#X obj 349 217 loadbang;
#X obj 96 391 poftexts asimov 40;
#X msg 19 326 text UNLOCK SNAP \, width 130 \, center 1;
#X msg 252 258 1 0 0 1;
#X obj 260 126 r unloackSnap;
#X obj 260 147 == 0;
#X obj 252 218 r unloackSnap;
#X obj 245 188 s unloackSnap;
#X obj 115 300 pofrect 150 70;
#X obj 135 88 poftouch 154 74;
#X obj 245 167 f 1;
#X connect 0 0 1 0;
#X connect 1 0 6 0;
#X connect 1 1 5 0;
#X connect 1 2 2 0;
#X connect 2 0 25 0;
#X connect 3 0 25 0;
#X connect 4 0 3 0;
#X connect 5 0 24 0;
#X connect 6 0 17 0;
#X connect 7 0 18 0;
#X connect 8 0 6 1;
#X connect 8 1 6 2;
#X connect 8 2 6 3;
#X connect 9 0 5 1;
#X connect 9 1 5 2;
#X connect 9 2 5 3;
#X connect 10 0 9 0;
#X connect 10 0 11 0;
#X connect 11 0 8 0;
#X connect 12 0 8 0;
#X connect 13 0 19 0;
#X connect 13 1 10 0;
#X connect 14 0 15 0;
#X connect 15 0 26 0;
#X connect 16 0 10 0;
#X connect 18 0 17 0;
#X connect 19 0 9 0;
#X connect 19 0 12 0;
#X connect 20 0 21 0;
#X connect 21 0 26 1;
#X connect 22 0 13 0;
#X connect 25 1 14 0;
#X connect 26 0 23 0;
#X restore 380 402 pd unlock_snap;
#N canvas 594 353 666 512 whoIsThere 0;
#X obj 27 16 inlet;
#X obj 270 13 inlet;
#X obj 270 34 pofvisible;
#X obj 66 78 poftouch 54 104;
#X obj 88 7 loadbang;
#X msg 88 28 draw 1;
#X obj 46 104 pofcolor 1 1 0 1;
#X obj 46 125 pofrect 50 100;
#X obj 27 37 t a a a;
#X obj 44 165 loadbang;
#X obj 27 147 pofcolor 0 0 0 1;
#X msg 44 185 text ?;
#X obj 27 208 poftexts asimov 70;
#X obj 153 271 tgl 15 0 empty empty empty 17 7 0 10 -262144 -1 -1 0
1;
#X obj 270 55 t a a a;
#X obj 309 99 poftouch 5000 5000;
#X obj 309 78 pofcolor 0 0 0 0.85;
#X obj 270 176 s whoHead;
#X obj 270 154 poftranslate;
#X obj 293 135 nbx 5 14 -1e+37 1e+37 0 1 empty empty empty 0 -8 0 10
-262144 -1 -1 -300 256;
#X obj 351 136 nbx 5 14 -1e+37 1e+37 0 1 empty empty empty 0 -8 0 10
-262144 -1 -1 -205 256;
#X obj 440 223 loadbang;
#X msg 440 243 text Link peers:;
#X obj 423 183 poftranslate;
#X obj 446 164 nbx 5 14 -1e+37 1e+37 0 1 empty empty empty 0 -8 0 10
-262144 -1 -1 336 256;
#X obj 504 165 nbx 5 14 -1e+37 1e+37 0 1 empty empty empty 0 -8 0 10
-262144 -1 -1 -102 256;
#X obj 423 205 pofcolor 0 1 0 1;
#X obj 423 266 poftexts asimov 27;
#X obj 351 291 poftranslate;
#X obj 351 359 pofcolor 0 1 0 1;
#X obj 364 262 nbx 5 14 -1e+37 1e+37 0 1 empty empty empty 0 -8 0 10
-262144 -1 -1 28 256;
#X floatatom 469 313 5 0 0 0 - - -;
#X obj 469 291 r #abl_link_num_peers;
#X msg 368 387 text \$1;
#X obj 351 410 poftexts asimov 37;
#X obj 509 325 t b b;
#X obj 378 336 unpack f f f;
#X msg 509 365 0 1 0;
#X msg 554 367 1 0 0;
#X obj 509 346 del 200;
#X obj 272 197 clone whoItem 40 10;
#X obj 153 99 route down up;
#X msg 153 120 1;
#X msg 190 119 0;
#X obj 165 163 doubleTap;
#X obj 190 243 spigot;
#X obj 165 140 t b b;
#X msg 230 162 1;
#X msg 165 184 0;
#X obj 165 209 tgl 15 0 empty empty empty 17 7 0 10 -262144 -1 -1 0
1;
#N canvas 579 264 531 485 WHOisTHERE 0;
#X obj 31 10 r /SIG;
#X obj 274 286 s whoList;
#X obj 31 31 symbol;
#X obj 31 52 t s s;
#X obj 31 76 text search whoText;
#X obj 31 97 sel -1;
#X obj 31 118 symbol;
#X obj 31 138 text set whoText 1e+15;
#X obj 295 202 text sequence whoText;
#X msg 295 182 line 0 \, bang;
#X obj 274 115 t b b b, f 12;
#X obj 295 223 list append;
#X obj 295 244 list;
#X msg 385 181 list;
#X obj 274 265 list;
#X obj 274 91 bng 15 250 50 0 empty empty empty 17 7 0 10 -262144 -1
-1;
#X obj 247 72 t b b;
#X msg 247 305 clear;
#X obj 247 9 loadbang;
#X obj 247 31 tgl 15 0 empty empty empty 17 7 0 10 -262144 -1 -1 1
1;
#X obj 36 172 r /SIG;
#X obj 36 193 symbol;
#X obj 36 214 t s s;
#X obj 36 259 sel -1;
#X obj 36 280 symbol;
#X obj 36 238 text search whoText2;
#X obj 36 300 text set whoText2 1e+15;
#X obj 247 324 text define whoText2;
#X obj 247 347 text define whoText;
#X obj 247 51 metro 6000;
#X obj 308 135 text size whoText;
#X obj 308 157 sel 0;
#X connect 0 0 2 0;
#X connect 2 0 3 0;
#X connect 3 0 4 0;
#X connect 3 1 6 1;
#X connect 4 0 5 0;
#X connect 5 0 6 0;
#X connect 6 0 7 0;
#X connect 8 0 11 0;
#X connect 9 0 8 0;
#X connect 10 0 14 0;
#X connect 10 1 30 0;
#X connect 10 2 13 0;
#X connect 11 0 12 0;
#X connect 12 0 11 1;
#X connect 12 0 14 1;
#X connect 13 0 12 0;
#X connect 14 0 1 0;
#X connect 15 0 10 0;
#X connect 16 0 17 0;
#X connect 16 1 15 0;
#X connect 17 0 27 0;
#X connect 18 0 19 0;
#X connect 19 0 29 0;
#X connect 20 0 21 0;
#X connect 21 0 22 0;
#X connect 22 0 25 0;
#X connect 22 1 24 1;
#X connect 23 0 24 0;
#X connect 24 0 26 0;
#X connect 25 0 23 0;
#X connect 29 0 16 0;
#X connect 30 0 31 0;
#X connect 31 1 9 0;
#X restore 474 60 pd WHOisTHERE;
#X connect 0 0 8 0;
#X connect 1 0 2 0;
#X connect 2 0 14 0;
#X connect 3 1 41 0;
#X connect 4 0 5 0;
#X connect 5 0 3 0;
#X connect 5 0 15 0;
#X connect 6 0 7 0;
#X connect 8 0 10 0;
#X connect 8 1 6 0;
#X connect 8 2 3 0;
#X connect 9 0 11 0;
#X connect 10 0 12 0;
#X connect 11 0 12 0;
#X connect 13 0 2 0;
#X connect 14 0 18 0;
#X connect 14 1 23 0;
#X connect 14 2 16 0;
#X connect 16 0 15 0;
#X connect 18 0 17 0;
#X connect 19 0 18 1;
#X connect 20 0 18 2;
#X connect 21 0 22 0;
#X connect 22 0 27 0;
#X connect 23 0 26 0;
#X connect 23 0 28 0;
#X connect 24 0 23 1;
#X connect 25 0 23 2;
#X connect 26 0 27 0;
#X connect 28 0 29 0;
#X connect 29 0 34 0;
#X connect 30 0 28 2;
#X connect 31 0 33 0;
#X connect 32 0 31 0;
#X connect 32 0 35 0;
#X connect 33 0 34 0;
#X connect 35 0 39 0;
#X connect 35 1 38 0;
#X connect 36 0 29 1;
#X connect 36 1 29 2;
#X connect 36 2 29 3;
#X connect 37 0 36 0;
#X connect 38 0 36 0;
#X connect 39 0 37 0;
#X connect 41 0 42 0;
#X connect 41 0 46 0;
#X connect 41 1 43 0;
#X connect 42 0 13 0;
#X connect 43 0 45 0;
#X connect 44 0 48 0;
#X connect 45 0 13 0;
#X connect 46 0 44 0;
#X connect 46 1 47 0;
#X connect 47 0 49 0;
#X connect 48 0 49 0;
#X connect 49 0 45 1;
#X restore 390 198 pd whoIsThere;
#X obj 438 152 nbx 5 14 -1e+37 1e+37 0 1 empty empty empty 0 -8 0 10
-262144 -1 -1 370 256;
#X obj 390 170 poftranslate, f 21;
#X obj 496 152 nbx 5 14 -1e+37 1e+37 0 1 empty empty empty 0 -8 0 10
-262144 -1 -1 -28 256;
#X obj 390 146 t a a;
#N canvas 145 331 1015 741 CoefTempo 0;
#X obj 397 9 inlet;
#X obj 402 180 t a a a;
#X obj 441 205 pofcolor 1 1 1 1;
#X msg 559 191 draw 1;
#X obj 559 170 loadbang;
#X obj 421 418 pofcolor 0.2 0.2 0.2 1;
#X obj 402 489 pofcolor 0.8 0.8 0.8 1;
#X obj 402 510 poftexts asimov 50;
#X obj 337 462 loadbang;
#X obj 434 469 unpack f f f;
#X obj 453 397 unpack f f f;
#X msg 615 397 0.2 0.2 0.2;
#X msg 558 396 0 1 0 1;
#X msg 615 438 0.8 0.8 0.8;
#X msg 558 438 0 0 0 1;
#X obj 534 245 route down;
#X obj 534 266 b;
#X obj 655 355 loadbang;
#X obj 496 284 bng 15 250 50 0 empty empty empty 17 7 0 10 -262144
-1 -1;
#X obj 80 119 t a a a;
#X obj 119 144 pofcolor 1 1 1 1;
#X msg 237 130 draw 1;
#X obj 237 109 loadbang;
#X obj 99 357 pofcolor 0.2 0.2 0.2 1;
#X obj 80 428 pofcolor 0.8 0.8 0.8 1;
#X obj 80 449 poftexts asimov 50;
#X obj 15 401 loadbang;
#X obj 112 408 unpack f f f;
#X obj 131 336 unpack f f f;
#X msg 293 336 0.2 0.2 0.2;
#X msg 236 335 0 1 0 1;
#X msg 293 377 0.8 0.8 0.8;
#X msg 236 377 0 0 0 1;
#X obj 212 184 route down;
#X obj 212 205 b;
#X obj 333 294 loadbang;
#X obj 174 223 bng 15 250 50 0 empty empty empty 17 7 0 10 -262144
-1 -1;
#X msg 15 425 text ½;
#X msg 212 226 0.5;
#X obj 703 217 t a a a;
#X obj 742 242 pofcolor 1 1 1 1;
#X msg 860 228 draw 1;
#X obj 860 207 loadbang;
#X obj 722 455 pofcolor 0.2 0.2 0.2 1;
#X obj 703 526 pofcolor 0.8 0.8 0.8 1;
#X obj 703 547 poftexts asimov 50;
#X obj 638 499 loadbang;
#X obj 735 506 unpack f f f;
#X obj 754 434 unpack f f f;
#X msg 916 434 0.2 0.2 0.2;
#X msg 859 433 0 1 0 1;
#X msg 916 475 0.8 0.8 0.8;
#X msg 859 475 0 0 0 1;
#X obj 835 282 route down;
#X obj 835 303 b;
#X obj 956 392 loadbang;
#X obj 797 321 bng 15 250 50 0 empty empty empty 17 7 0 10 -262144
-1 -1;
#X msg 338 486 text 1;
#X msg 638 523 text 2;
#X floatatom 119 64 5 0 0 0 - - -;
#X floatatom 159 62 5 0 0 0 - - -;
#X floatatom 441 126 5 0 0 0 - - -;
#X floatatom 481 124 5 0 0 0 - - -;
#X floatatom 742 163 5 0 0 0 - - -;
#X floatatom 782 161 5 0 0 0 - - -;
#X obj 80 94 poftranslate -45 0, f 21;
#X obj 99 377 pofrect 57 57;
#X obj 119 165 poftouch 60 60;
#X obj 441 226 poftouch 60 60;
#X obj 742 263 poftouch 60 60;
#X obj 421 438 pofrect 57 57;
#X obj 722 475 pofrect 57 57;
#X obj 403 154 poftranslate 20 0, f 21;
#X obj 703 190 poftranslate 85 0, f 21;
#X obj 589 74 loadbang;
#X obj 689 77 pofcolor 1 0.5 0 1;
#X obj 689 99 poftexts asimov 30 -1;
#X obj 397 36 t a a a a;
#X floatatom 714 20 5 0 0 0 - - -;
#X floatatom 754 18 5 0 0 0 - - -;
#X obj 683 56 poftranslate -75 -45;
#X msg 590 95 text X-BPM:;
#X msg 534 287 1;
#X msg 834 325 2;
#X obj 238 295 sel 0.5;
#X obj 214 248 s CoefTempo;
#X obj 238 271 r CoefTempo;
#X obj 536 310 s CoefTempo;
#X obj 560 333 r CoefTempo;
#X obj 833 349 s CoefTempo;
#X obj 857 372 r CoefTempo;
#X obj 560 356 sel 1;
#X obj 861 393 sel 2;
#X obj 611 267 loadbang;
#X connect 0 0 77 0;
#X connect 1 0 6 0;
#X connect 1 1 5 0;
#X connect 1 2 2 0;
#X connect 2 0 68 0;
#X connect 3 0 68 0;
#X connect 4 0 3 0;
#X connect 5 0 70 0;
#X connect 6 0 7 0;
#X connect 8 0 57 0;
#X connect 9 0 6 1;
#X connect 9 1 6 2;
#X connect 9 2 6 3;
#X connect 10 0 5 1;
#X connect 10 1 5 2;
#X connect 10 2 5 3;
#X connect 11 0 10 0;
#X connect 11 0 13 0;
#X connect 12 0 10 0;
#X connect 12 0 14 0;
#X connect 13 0 9 0;
#X connect 14 0 9 0;
#X connect 15 0 16 0;
#X connect 16 0 18 0;
#X connect 16 0 82 0;
#X connect 17 0 12 0;
#X connect 19 0 24 0;
#X connect 19 1 23 0;
#X connect 19 2 20 0;
#X connect 20 0 67 0;
#X connect 21 0 67 0;
#X connect 22 0 21 0;
#X connect 23 0 66 0;
#X connect 24 0 25 0;
#X connect 26 0 37 0;
#X connect 27 0 24 1;
#X connect 27 1 24 2;
#X connect 27 2 24 3;
#X connect 28 0 23 1;
#X connect 28 1 23 2;
#X connect 28 2 23 3;
#X connect 29 0 28 0;
#X connect 29 0 31 0;
#X connect 30 0 28 0;
#X connect 30 0 32 0;
#X connect 31 0 27 0;
#X connect 32 0 27 0;
#X connect 33 0 34 0;
#X connect 34 0 36 0;
#X connect 34 0 38 0;
#X connect 35 0 29 0;
#X connect 37 0 25 0;
#X connect 38 0 85 0;
#X connect 39 0 44 0;
#X connect 39 1 43 0;
#X connect 39 2 40 0;
#X connect 40 0 69 0;
#X connect 41 0 69 0;
#X connect 42 0 41 0;
#X connect 43 0 71 0;
#X connect 44 0 45 0;
#X connect 46 0 58 0;
#X connect 47 0 44 1;
#X connect 47 1 44 2;
#X connect 47 2 44 3;
#X connect 48 0 43 1;
#X connect 48 1 43 2;
#X connect 48 2 43 3;
#X connect 49 0 48 0;
#X connect 49 0 51 0;
#X connect 50 0 48 0;
#X connect 50 0 52 0;
#X connect 51 0 47 0;
#X connect 52 0 47 0;
#X connect 53 0 54 0;
#X connect 54 0 56 0;
#X connect 54 0 83 0;
#X connect 55 0 49 0;
#X connect 57 0 7 0;
#X connect 58 0 45 0;
#X connect 59 0 65 1;
#X connect 60 0 65 2;
#X connect 61 0 72 1;
#X connect 62 0 72 2;
#X connect 63 0 73 1;
#X connect 64 0 73 2;
#X connect 65 0 19 0;
#X connect 67 1 33 0;
#X connect 68 1 15 0;
#X connect 69 1 53 0;
#X connect 72 0 1 0;
#X connect 73 0 39 0;
#X connect 74 0 81 0;
#X connect 75 0 76 0;
#X connect 77 0 65 0;
#X connect 77 1 72 0;
#X connect 77 2 73 0;
#X connect 77 3 80 0;
#X connect 78 0 80 1;
#X connect 79 0 80 2;
#X connect 80 0 75 0;
#X connect 81 0 76 0;
#X connect 82 0 87 0;
#X connect 83 0 89 0;
#X connect 84 0 30 0;
#X connect 84 1 29 0;
#X connect 86 0 84 0;
#X connect 88 0 91 0;
#X connect 90 0 92 0;
#X connect 91 0 12 0;
#X connect 91 1 11 0;
#X connect 92 0 50 0;
#X connect 92 1 49 0;
#X connect 93 0 82 0;
#X restore 288 66 pd CoefTempo;
#X floatatom 334 9 5 0 0 0 - - -;
#X floatatom 374 7 5 0 0 0 - - -;
#X obj 289 45 poftranslate 266 -116;
#X connect 0 0 9 0;
#X connect 0 0 24 0;
#X connect 0 0 31 0;
#X connect 0 0 35 0;
#X connect 0 0 42 0;
#X connect 0 0 49 0;
#X connect 0 0 56 0;
#X connect 0 0 60 0;
#X connect 1 0 7 0;
#X connect 2 0 4 0;
#X connect 3 0 4 0;
#X connect 4 0 5 0;
#X connect 4 0 0 0;
#X connect 6 0 0 0;
#X connect 7 0 2 0;
#X connect 7 1 3 0;
#X connect 8 0 9 1;
#X connect 9 0 11 0;
#X connect 11 0 10 0;
#X connect 12 0 11 1;
#X connect 12 0 11 2;
#X connect 13 0 9 2;
#X connect 14 0 12 0;
#X connect 15 0 20 0;
#X connect 16 0 19 0;
#X connect 17 0 18 0;
#X connect 18 0 21 0;
#X connect 19 0 21 0;
#X connect 20 0 21 0;
#X connect 21 0 10 1;
#X connect 23 0 24 1;
#X connect 24 0 26 0;
#X connect 25 0 24 2;
#X connect 26 0 22 0;
#X connect 27 0 26 1;
#X connect 27 0 26 2;
#X connect 28 0 27 0;
#X connect 29 0 31 1;
#X connect 30 0 31 2;
#X connect 31 0 45 0;
#X connect 34 0 35 1;
#X connect 35 0 37 0;
#X connect 36 0 35 2;
#X connect 37 0 40 0;
#X connect 38 0 37 1;
#X connect 38 0 37 2;
#X connect 39 0 38 0;
#X connect 41 0 42 1;
#X connect 42 0 44 0;
#X connect 43 0 42 2;
#X connect 45 0 33 0;
#X connect 46 0 45 1;
#X connect 46 0 45 2;
#X connect 47 0 46 0;
#X connect 48 0 49 1;
#X connect 49 0 51 0;
#X connect 50 0 49 2;
#X connect 53 0 54 1;
#X connect 54 0 52 0;
#X connect 55 0 54 2;
#X connect 56 0 54 0;
#X connect 56 1 52 1;
#X connect 58 0 60 1;
#X connect 59 0 60 2;
#X connect 60 0 57 0;
#X restore 114 161 pd PLAY_SCREEN;
#X obj 612 31 poffonts asimov Asimov.ttf;
#X obj 67 350 s OVERLAYHEAD;
#X obj 95 87 t a a;
#X obj 67 62 t a a;
#X obj 297 78 loadbang;
#X obj 249 313 s bpm-r;
#X obj 249 293 r /BPM;
#X obj 665 268 r mainSeq-load;
#X obj 644 291 list;
#X obj 644 312 list trim;
#X obj 644 336 s mainSeq-save;
#X obj 644 245 bng 15 250 50 0 empty empty saveSong 17 7 0 10 -258113
-1 -1;
#X obj 672 149 s refreshTunes;
#X obj 672 127 bng 15 250 50 0 empty empty empty 17 7 0 10 -262144
-1 -1;
#X obj 672 104 loadbang;
#X obj 95 237 pofcolor 1 1 1 0.5;
#X obj 126 284 nbx 5 14 -1e+37 1e+37 0 1 empty empty empty 0 -8 0 10
-262144 -1 -1 333 256;
#X obj 85 303 poftranslate, f 21;
#X obj 184 284 nbx 5 14 -1e+37 1e+37 0 1 empty empty empty 0 -8 0 10
-262144 -1 -1 -191 256;
#N canvas 475 685 605 550 page 0;
#X obj 96 21 inlet;
#X obj 96 42 t a a a;
#X obj 135 67 pofcolor 1 1 1 1;
#X msg 253 53 draw 1;
#X obj 253 32 loadbang;
#X obj 115 280 pofcolor 0.2 0.2 0.2 1;
#X obj 96 370 pofcolor 0.8 0.8 0.8 1;
#X obj 19 305 loadbang;
#X obj 128 350 unpack f f f;
#X obj 147 259 unpack f f f;
#X msg 252 300 0 0 0 1;
#X obj 252 238 sel 1 0;
#X obj 312 71 route down;
#X obj 312 92 b;
#X obj 349 217 loadbang;
#X obj 96 427 poftexts asimov 40;
#X obj 252 218 r unloackSnap;
#X obj 135 88 poftouch 104 74;
#X obj 115 300 pofrect 100 70;
#X obj 217 502 s SCREEN;
#X obj 265 331 r SCREEN;
#X obj 265 352 route play edit;
#X msg 19 326 width 130 \, center 1;
#X msg 265 373 text EDIT;
#X msg 252 258 1 0.5 0;
#X msg 309 259 0 0.5 1;
#X msg 309 300 1 1 1;
#X msg 265 394 0;
#X msg 331 395 1;
#X obj 265 415 f;
#X obj 312 116 f;
#X obj 312 137 route 0 1;
#X obj 306 188 s SCREEN;
#X msg 306 161 edit;
#X msg 342 160 play;
#X msg 331 373 text SONG;
#X connect 0 0 1 0;
#X connect 1 0 6 0;
#X connect 1 1 5 0;
#X connect 1 2 2 0;
#X connect 2 0 17 0;
#X connect 3 0 17 0;
#X connect 4 0 3 0;
#X connect 5 0 18 0;
#X connect 6 0 15 0;
#X connect 7 0 22 0;
#X connect 8 0 6 1;
#X connect 8 1 6 2;
#X connect 8 2 6 3;
#X connect 9 0 5 1;
#X connect 9 1 5 2;
#X connect 9 2 5 3;
#X connect 10 0 8 0;
#X connect 11 0 24 0;
#X connect 11 1 25 0;
#X connect 12 0 13 0;
#X connect 13 0 30 0;
#X connect 14 0 25 0;
#X connect 16 0 11 0;
#X connect 17 1 12 0;
#X connect 20 0 21 0;
#X connect 21 0 23 0;
#X connect 21 1 35 0;
#X connect 22 0 15 0;
#X connect 23 0 15 0;
#X connect 23 0 24 0;
#X connect 23 0 27 0;
#X connect 24 0 9 0;
#X connect 24 0 10 0;
#X connect 25 0 9 0;
#X connect 25 0 26 0;
#X connect 26 0 8 0;
#X connect 27 0 29 0;
#X connect 28 0 29 0;
#X connect 29 0 30 1;
#X connect 30 0 31 0;
#X connect 31 0 33 0;
#X connect 31 1 34 0;
#X connect 33 0 32 0;
#X connect 34 0 32 0;
#X connect 35 0 15 0;
#X connect 35 0 25 0;
#X connect 35 0 28 0;
#X restore 85 324 pd page;
#X obj 290 186 s audioOn;
#X msg 290 165 0;
#X obj 180 11 r \$1;
#X obj 67 16 inlet;
#X obj 67 38 pofrotate 0;
#X floatatom 469 237 5 0 0 0 - - -;
#X floatatom 519 237 5 0 0 0 - - -;
#X obj 517 218 r /CHORD;
#X floatatom 573 238 5 0 0 0 - - -;
#X obj 572 219 r /GAMME;
#X obj 574 150 GAMMEKBV /BASS;
#X obj 468 218 r /BASS;
#X obj 613 80 declare -path ./gammabs;
#X obj 278 215 tgl 15 0 empty empty CoefTempo 17 7 0 10 -262144 -1
-1 0 1;
#X obj 313 275 s CoefTempo;
#X floatatom 267 261 5 0 0 0 - - -;
#X msg 318 243 0.5;
#X msg 346 243 1;
#X msg 380 243 2;
#X obj 479 267 cnv 15 100 40 empty empty empty 20 12 0 14 -4032 -66577
0;
#N canvas 1669 1002 851 412 gammeSeq 0;
#X obj 15 12 seqGAMME/seq8 mainSeq;
#X restore 493 278 pd gammeSeq;
#X connect 1 0 13 2;
#X connect 2 0 3 0;
#X connect 4 0 5 0;
#X connect 5 0 6 0;
#X connect 6 0 7 0;
#X connect 8 0 9 0;
#X connect 11 0 13 1;
#X connect 12 0 13 2;
#X connect 13 0 50 0;
#X connect 15 0 7 0;
#X connect 23 0 22 0;
#X connect 24 0 25 0;
#X connect 27 0 26 0;
#X connect 29 0 27 0;
#X connect 29 1 24 0;
#X connect 32 0 31 0;
#X connect 33 0 31 0;
#X connect 37 0 13 0;
#X connect 37 0 52 0;
#X connect 37 1 30 0;
#X connect 37 1 34 0;
#X connect 38 0 36 0;
#X connect 38 1 37 0;
#X connect 39 0 33 0;
#X connect 39 0 56 0;
#X connect 41 0 40 0;
#X connect 42 0 43 1;
#X connect 43 0 44 0;
#X connect 44 0 45 0;
#X connect 46 0 43 0;
#X connect 48 0 47 0;
#X connect 49 0 48 0;
#X connect 50 0 0 0;
#X connect 51 0 52 1;
#X connect 52 0 54 0;
#X connect 53 0 52 2;
#X connect 56 0 55 0;
#X connect 58 0 59 0;
#X connect 59 0 38 0;
#X connect 62 0 61 0;
#X connect 64 0 63 0;
#X connect 66 0 60 0;
#X connect 68 0 69 0;
#X connect 71 0 69 0;
#X connect 72 0 69 0;
#X connect 73 0 69 0;
