#N canvas 1839 947 574 705 10;
#X obj 31 29 inlet head;
#X obj 418 78 hsl 128 15 0 20 0 0 list-BASSs-pos list-BASSs-pos list-pos
-2 -8 0 10 -262144 -1 -1 0 1;
#X obj 339 562 bng 15 250 50 0 empty empty empty 17 7 0 10 -262144
-1 -1;
#N canvas 570 444 602 379 getprop 0;
#X obj 156 56 unpack f f;
#X msg 232 107 getnum /;
#X floatatom 311 172 5 0 0 0 - - -;
#X obj 213 81 t f b f;
#X obj 240 262 list prepend;
#X obj 213 171 t f f;
#X obj 240 191 <;
#X msg 240 236 visible \$1;
#X obj 46 174 hradio 15 1 0 8 empty empty empty 0 -8 0 10 -262144 -1
-1 1;
#X msg 30 220 print;
#X msg 3 142 name \$1;
#X obj 240 214 || 0;
#X obj 156 35 t a a;
#X obj 309 60 unpack f f;
#X msg 83 287 symbol \$1;
#X msg 83 344 selected 1;
#X msg 156 343 selected 0;
#X obj 59 142 list prepend name;
#X obj 59 119 route get;
#X msg 104 263 file \$1;
#X obj 155 14 r list-CHORDs-getprop;
#X obj 240 285 s list-CHORDs-props;
#X obj 143 309 r CHORD;
#X obj 83 235 pofxml CHORDs;
#X msg 83 206 get /CHORD[\$1][@file];
#X obj 59 97 pofxml CHORDs;
#X msg 59 76 get /CHORD[\$1][@name];
#X obj 232 132 pofxml CHORDs;
#X obj 83 310 sel CHORD;
#X connect 0 1 3 0;
#X connect 1 0 27 0;
#X connect 3 0 5 0;
#X connect 3 1 1 0;
#X connect 4 0 21 0;
#X connect 5 0 24 0;
#X connect 5 0 26 0;
#X connect 5 1 6 0;
#X connect 6 0 11 0;
#X connect 7 0 4 0;
#X connect 9 0 23 0;
#X connect 10 0 4 0;
#X connect 11 0 7 0;
#X connect 12 0 0 0;
#X connect 12 1 13 0;
#X connect 13 0 4 1;
#X connect 14 0 28 0;
#X connect 15 0 4 0;
#X connect 16 0 4 0;
#X connect 17 0 4 0;
#X connect 18 0 17 0;
#X connect 19 0 4 0;
#X connect 20 0 12 0;
#X connect 22 0 28 1;
#X connect 23 0 19 0;
#X connect 23 0 14 0;
#X connect 24 0 23 0;
#X connect 25 0 18 0;
#X connect 26 0 25 0;
#X connect 27 0 6 1;
#X connect 27 0 2 0;
#X connect 28 0 15 0;
#X connect 28 1 16 0;
#X restore 261 198 pd getprop;
#X obj 381 517 t b f;
#X msg 322 73 0 _show;
#X obj 316 502 b;
#X obj 316 523 del 0;
#X obj 31 224 t a a;
#X floatatom 488 168 5 0 0 0 - - -;
#X floatatom 475 239 5 0 0 0 - - -;
#X floatatom 486 343 5 0 0 0 - - -;
#X floatatom 57 513 5 0 0 0 - - -;
#X obj 31 246 t a a;
#X obj 23 373 t a a;
#X obj 14 565 pofcolor 1 1 1 1;
#X obj 14 587 poftexts typo 43;
#X obj 121 584 loadbang;
#X floatatom 233 405 5 0 0 0 - - -;
#X floatatom 200 397 5 0 0 0 - - -;
#X floatatom 213 518 5 0 0 0 - - -;
#X obj 23 107 t a a;
#X obj 58 148 poftouch 6000 6000;
#X obj 163 170 route down;
#X msg 120 99 draw 1;
#X obj 120 77 loadbang;
#X msg 163 194 0;
#X msg 123 51 1;
#X obj 246 46 r song;
#X obj 246 68 b;
#X obj 360 18 b;
#N canvas 438 98 762 492 update/close 0;
#X obj 112 37 r ADMIN;
#X obj 56 21 inlet;
#X obj 56 157 t a a;
#X obj 83 252 pofcolor 1 1 1 0.5;
#X obj 56 186 pofcolor 0 0 0 1;
#X floatatom 101 100 5 0 0 0 - - -;
#X floatatom 189 162 5 0 0 0 - - -;
#X floatatom 241 197 5 0 0 0 - - -;
#X msg 143 159 draw 1;
#X obj 83 277 poftouch 35 32;
#X msg 157 368 0;
#X msg 188 368 1;
#X obj 161 395 tgl 15 0 empty empty empty 17 7 0 10 -262144 -1 -1 0
1;
#X obj 185 232 max 0.5;
#X obj 231 325 isInside 50 32;
#X obj 162 303 route up down move;
#X obj 246 390 b;
#X obj 246 369 isInside 35 32;
#X obj 202 118 loadbang;
#X obj 56 209 pofimage mode/64px-Refresh_font_awesome.svg.png 29;
#X obj 77 77 pofvisible;
#X obj 378 154 t a a;
#X obj 405 249 pofcolor 1 1 1 0.5;
#X obj 378 183 pofcolor 0 0 0 1;
#X floatatom 511 159 5 0 0 0 - - -;
#X floatatom 563 194 5 0 0 0 - - -;
#X msg 543 137 draw 1;
#X msg 479 365 0;
#X msg 510 365 1;
#X obj 483 392 tgl 15 0 empty empty empty 17 7 0 10 -262144 -1 -1 0
1;
#X obj 507 229 max 0.5;
#X obj 484 300 route up down move;
#X obj 568 387 b;
#X obj 558 93 loadbang;
#X msg 478 140 text OK;
#X obj 378 206 poftexts typo 29;
#X obj 553 322 isInside 100 32;
#X obj 568 366 isInside 100 32;
#X obj 568 408 outlet;
#X floatatom 409 72 5 0 0 0 - - -;
#X obj 383 120 poftranslate -150;
#X obj 405 274 poftouch 220 32;
#X obj 246 411 s BASSs-update-all;
#X floatatom 198 83 5 0 0 0 - - -;
#X obj 56 134 poftranslate 125 352;
#X connect 0 0 20 0;
#X connect 1 0 44 0;
#X connect 2 0 4 0;
#X connect 2 1 3 0;
#X connect 3 0 9 0;
#X connect 4 0 19 0;
#X connect 5 0 44 1;
#X connect 6 0 9 1;
#X connect 7 0 9 2;
#X connect 8 0 9 0;
#X connect 9 1 15 0;
#X connect 10 0 12 0;
#X connect 11 0 12 0;
#X connect 12 0 13 0;
#X connect 13 0 3 4;
#X connect 14 0 11 0;
#X connect 14 1 10 0;
#X connect 15 0 10 0;
#X connect 15 0 17 0;
#X connect 15 1 11 0;
#X connect 15 2 14 0;
#X connect 16 0 42 0;
#X connect 17 0 16 0;
#X connect 18 0 8 0;
#X connect 20 0 44 0;
#X connect 21 0 23 0;
#X connect 21 1 22 0;
#X connect 22 0 41 0;
#X connect 23 0 35 0;
#X connect 24 0 41 1;
#X connect 25 0 41 2;
#X connect 26 0 41 0;
#X connect 27 0 29 0;
#X connect 28 0 29 0;
#X connect 29 0 30 0;
#X connect 30 0 22 4;
#X connect 31 0 27 0;
#X connect 31 0 37 0;
#X connect 31 1 28 0;
#X connect 31 2 36 0;
#X connect 32 0 38 0;
#X connect 33 0 34 0;
#X connect 33 0 26 0;
#X connect 34 0 35 0;
#X connect 36 0 28 0;
#X connect 36 1 27 0;
#X connect 37 0 32 0;
#X connect 39 0 40 1;
#X connect 40 0 21 0;
#X connect 41 1 31 0;
#X connect 43 0 44 2;
#X connect 44 0 2 0;
#X connect 44 0 40 0;
#X restore 211 568 pd update/close;
#X obj 199 203 b;
#X floatatom 229 437 5 0 0 0 - - -;
#X obj 356 347 loadbang;
#X obj 121 -2 inlet;
#X obj 96 375 print;
#X obj 366 565 s list-CHORDs-update;
#X obj 408 539 s list-CHORDs-number;
#X obj 381 495 r CHORDsNumber;
#X obj 366 473 r CHORDsChanged;
#X msg 122 608 text Chords :;
#X obj 316 482 r CHORD;
#X obj 123 29 r CHORD-choix-open;
#X obj 322 97 s list-CHORDs-props;
#X floatatom 56 173 5 0 0 0 - - -;
#X floatatom 94 170 5 0 0 0 - - -;
#X obj 31 76 pofvisible;
#X obj 58 122 pofcolor 0 0 0 0.7;
#X obj 58 272 pofscale 0.19 0.3 1;
#X obj 69 420 poftranslate 0 343;
#X obj 50 466 poftranslate 0 328;
#X obj 380 258 poftranslate 0 72;
#X obj 31 298 nbx 5 14 -1e+37 1e+37 0 1 empty empty empty 0 -8 0 10
-262144 -1 -1 0 256;
#X obj 94 299 nbx 5 14 -1e+37 1e+37 0 1 empty empty empty 0 -8 0 10
-262144 -1 -1 220 256;
#X obj 59 320 poftranslate;
#X msg 356 371 slider force 1 \, slider width 150;
#X obj 6 345 scrollList/gui CHORDs 600 1400 168 domoseq/listItemCHORD
;
#X obj 380 310 pofrect 314 530 10 10 0 0;
#X obj 69 445 pofrect 314 70 0 0 10 10;
#X obj 50 489 pofrect 314 50 10 10 0 0;
#X obj 31 192 poftranslate -208 -97;
#X floatatom 100 513 5 0 0 0 - - -;
#X obj 14 542 poftranslate 0 -168;
#X obj 380 287 pofcolor 0.6 0 0.7 1;
#X obj 50 396 pofcolor 0.6 0 0.7 1;
#X connect 0 0 47 0;
#X connect 2 0 37 0;
#X connect 4 0 37 0;
#X connect 4 1 38 0;
#X connect 5 0 44 0;
#X connect 6 0 7 0;
#X connect 7 0 37 0;
#X connect 8 0 13 0;
#X connect 8 1 52 0;
#X connect 9 0 58 1;
#X connect 10 0 52 2;
#X connect 11 0 58 2;
#X connect 12 0 63 1;
#X connect 13 0 14 0;
#X connect 13 1 49 0;
#X connect 14 0 31 0;
#X connect 14 0 63 0;
#X connect 14 1 65 0;
#X connect 15 0 16 0;
#X connect 17 0 41 0;
#X connect 18 0 59 2;
#X connect 19 0 50 2;
#X connect 20 0 60 1;
#X connect 21 0 61 0;
#X connect 21 1 48 0;
#X connect 22 1 23 0;
#X connect 23 0 26 0;
#X connect 24 0 22 0;
#X connect 25 0 24 0;
#X connect 26 0 32 0;
#X connect 26 0 47 0;
#X connect 27 0 47 0;
#X connect 28 0 29 0;
#X connect 31 0 26 0;
#X connect 34 0 56 0;
#X connect 35 0 47 0;
#X connect 39 0 4 0;
#X connect 40 0 37 0;
#X connect 41 0 16 0;
#X connect 42 0 6 0;
#X connect 43 0 27 0;
#X connect 45 0 61 1;
#X connect 46 0 61 2;
#X connect 47 0 21 0;
#X connect 48 0 22 0;
#X connect 49 0 55 0;
#X connect 50 0 59 0;
#X connect 51 0 60 0;
#X connect 52 0 64 0;
#X connect 53 0 55 1;
#X connect 54 0 55 2;
#X connect 55 0 57 0;
#X connect 56 0 57 1;
#X connect 61 0 8 0;
#X connect 62 0 63 2;
#X connect 63 0 15 0;
#X connect 64 0 58 0;
#X connect 65 0 50 0;
#X connect 65 0 51 0;
