#N canvas 509 351 645 765 10;
#X obj 338 351 hsl 128 15 0 20 0 0 list-tunes-pos list-tunes-pos list-pos
-2 -8 0 10 -262144 -1 -1 2449 1;
#X obj 472 694 bng 15 250 50 0 empty empty empty 17 7 0 10 -262144
-1 -1;
#N canvas 564 456 602 379 getprop 0;
#X obj 156 56 unpack f f;
#X msg 232 107 getnum /;
#X floatatom 311 172 5 0 0 0 - - -;
#X obj 213 81 t f b f;
#X obj 240 262 list prepend;
#X obj 213 171 t f f;
#X obj 240 191 <;
#X msg 240 236 visible \$1;
#X obj 46 174 hradio 15 1 0 8 empty empty empty 0 -8 0 10 -262144 -1
-1 1;
#X msg 30 220 print;
#X msg 104 263 date \$1;
#X msg 3 142 name \$1;
#X obj 240 214 || 0;
#X obj 156 35 t a a;
#X obj 309 60 unpack f f;
#X msg 83 287 symbol \$1;
#X msg 83 344 selected 1;
#X msg 156 343 selected 0;
#X obj 59 142 list prepend name;
#X obj 13 102 print;
#X obj 404 313 print;
#X obj 381 150 hradio 15 1 0 8 empty empty empty 0 -8 0 10 -262144
-1 -1 5;
#X obj 59 119 route get;
#X obj 83 234 pofxml tunes;
#X obj 143 310 r tune;
#X obj 83 310 sel tune;
#X obj 240 285 s list-tunes-props;
#X obj 390 221 pofxml tunes;
#X msg 60 77 get /tune[\$1][@name];
#X obj 156 14 r list-tunes-getprop;
#X msg 83 206 get /tune[\$1][@file];
#X obj 232 132 pofxml tunes;
#X obj 59 97 pofxml tunes;
#X msg 390 200 gets /tune[\$1][@name];
#X connect 0 1 3 0;
#X connect 1 0 31 0;
#X connect 3 0 5 0;
#X connect 3 1 1 0;
#X connect 4 0 26 0;
#X connect 5 0 30 0;
#X connect 5 0 28 0;
#X connect 5 1 6 0;
#X connect 6 0 12 0;
#X connect 7 0 4 0;
#X connect 9 0 23 0;
#X connect 10 0 4 0;
#X connect 11 0 4 0;
#X connect 12 0 7 0;
#X connect 13 0 0 0;
#X connect 13 1 14 0;
#X connect 14 0 4 1;
#X connect 15 0 25 0;
#X connect 16 0 4 0;
#X connect 17 0 4 0;
#X connect 18 0 4 0;
#X connect 21 0 33 0;
#X connect 22 0 18 0;
#X connect 23 0 10 0;
#X connect 23 0 15 0;
#X connect 24 0 25 1;
#X connect 25 0 16 0;
#X connect 25 1 17 0;
#X connect 28 0 32 0;
#X connect 29 0 13 0;
#X connect 30 0 23 0;
#X connect 31 0 6 1;
#X connect 31 0 2 0;
#X connect 32 0 22 0;
#X connect 33 0 27 0;
#X restore 250 453 pd getprop;
#X obj 499 655 t b f;
#X msg 242 346 0 _show;
#X obj 449 634 b;
#X obj 449 655 del 0;
#X floatatom 526 366 5 0 0 0 - - -;
#X obj 452 488 pofcolor 1 1 1 1;
#X obj 452 510 poftexts typo 43;
#X obj 502 541 loadbang;
#X obj 479 421 pofcolor 0.3 0.2 0.1 1;
#X floatatom 574 373 5 0 0 0 - - -;
#X floatatom 585 477 5 0 0 0 - - -;
#X floatatom 440 404 5 0 0 0 - - -;
#X obj 452 466 poftranslate -60 -168;
#X obj 69 153 pofscale 0.25 0.25 1;
#X obj 29 91 t a a;
#X obj 33 376 t a a;
#X obj 35 635 pofcolor 1 1 1 1;
#X obj 35 657 poftexts typo 43;
#X obj 146 634 loadbang;
#X floatatom 237 494 5 0 0 0 - - -;
#X floatatom 210 400 5 0 0 0 - - -;
#X obj 479 392 poftranslate 0 -16;
#X obj 479 444 pofrect 320 345 10 10 0 0;
#X obj 62 504 poftranslate 0 -177;
#X obj 62 527 pofrect 320 50 10 10 0 0;
#X obj 82 449 pofrect 320 70 0 0 10 10;
#X floatatom 225 556 5 0 0 0 - - -;
#X obj 82 424 poftranslate 0 187;
#N canvas 120 419 1080 560 ADMIN 0;
#X obj 295 79 r ADMIN;
#X obj 383 221 t a a;
#X obj 496 251 pofcolor 1 1 1 0.5;
#X obj 383 250 pofcolor 0 0 0 1;
#X obj 115 150 loadbang;
#X floatatom 457 176 5 0 0 0 - - -;
#X floatatom 516 226 5 0 0 0 - - -;
#X floatatom 559 222 5 0 0 0 - - -;
#X msg 337 216 text +;
#X msg 470 223 draw 1;
#X obj 497 273 poftouch 35 32;
#X obj 28 233 t a a;
#X obj 141 263 pofcolor 1 1 1 0.5;
#X obj 28 262 pofcolor 0 0 0 1;
#X floatatom 161 238 5 0 0 0 - - -;
#X floatatom 204 234 5 0 0 0 - - -;
#X msg 115 235 draw 1;
#X msg 124 185 text edit;
#X floatatom 61 177 5 0 0 0 - - -;
#X obj 142 285 poftouch 50 32;
#X obj 28 284 poftexts typo 23;
#X obj 383 272 poftexts typo 27;
#X msg 198 334 0;
#X msg 229 334 1;
#X obj 202 361 tgl 15 0 empty empty empty 17 7 0 10 -262144 -1 -1 0
1;
#X obj 202 381 max 0.5;
#X obj 293 332 isInside 50 32;
#X obj 223 308 route up down move;
#X obj 282 369 isInside 50 32;
#X msg 553 321 0;
#X msg 584 321 1;
#X obj 557 348 tgl 15 0 empty empty empty 17 7 0 10 -262144 -1 -1 0
1;
#X obj 557 368 max 0.5;
#X obj 648 319 isInside 50 32;
#X obj 578 295 route up down move;
#X obj 476 469 poftextbox;
#X obj 637 356 isInside 35 32;
#X obj 476 489 route out;
#X obj 28 211 poftranslate -100 190;
#X obj 260 44 inlet;
#X obj 667 167 t a a;
#X obj 694 242 pofcolor 1 1 1 0.5;
#X obj 667 196 pofcolor 0 0 0 1;
#X floatatom 741 122 5 0 0 0 - - -;
#X floatatom 800 172 5 0 0 0 - - -;
#X floatatom 852 207 5 0 0 0 - - -;
#X msg 754 169 draw 1;
#X obj 695 266 poftouch 35 32;
#X msg 846 306 0;
#X msg 877 306 1;
#X obj 850 333 tgl 15 0 empty empty empty 17 7 0 10 -262144 -1 -1 0
1;
#X obj 850 353 max 0.5;
#X obj 941 304 isInside 50 32;
#X obj 871 280 route up down move;
#X obj 930 362 b;
#X obj 930 341 isInside 35 32;
#X obj 667 145 poftranslate 100 190;
#X obj 260 119 pofvisible;
#X obj 373 161 loadbang;
#X obj 813 128 loadbang;
#X obj 383 199 poftranslate 0 190;
#X msg 637 377 Nom;
#X msg 282 393 \; page tuneEdit;
#X obj 377 420 s tuneEdit;
#X msg 476 447 question Nom de la nouvelle song \, show;
#X msg 691 472 symbol Testtune2;
#X obj 930 383 s tunes-update-all;
#X obj 637 403 pofkb/gettext Nom de la nouvelle song:;
#X obj 637 505 s tuneCreate;
#X obj 667 219 pofimage mode/64px-Refresh_font_awesome.svg.png 29;
#X connect 0 0 57 0;
#X connect 1 0 3 0;
#X connect 1 1 2 0;
#X connect 2 0 10 0;
#X connect 3 0 21 0;
#X connect 4 0 17 0;
#X connect 4 0 16 0;
#X connect 5 0 60 1;
#X connect 6 0 10 1;
#X connect 7 0 10 2;
#X connect 8 0 21 0;
#X connect 9 0 10 0;
#X connect 10 1 34 0;
#X connect 11 0 13 0;
#X connect 11 1 12 0;
#X connect 12 0 19 0;
#X connect 13 0 20 0;
#X connect 14 0 19 1;
#X connect 15 0 19 2;
#X connect 16 0 19 0;
#X connect 17 0 20 0;
#X connect 18 0 38 1;
#X connect 19 1 27 0;
#X connect 22 0 24 0;
#X connect 23 0 24 0;
#X connect 24 0 25 0;
#X connect 25 0 12 4;
#X connect 26 0 23 0;
#X connect 26 1 22 0;
#X connect 27 0 22 0;
#X connect 27 0 28 0;
#X connect 27 1 23 0;
#X connect 27 2 26 0;
#X connect 28 0 62 0;
#X connect 29 0 31 0;
#X connect 30 0 31 0;
#X connect 31 0 32 0;
#X connect 32 0 2 4;
#X connect 33 0 30 0;
#X connect 33 1 29 0;
#X connect 34 0 29 0;
#X connect 34 0 36 0;
#X connect 34 1 30 0;
#X connect 34 2 33 0;
#X connect 35 0 37 0;
#X connect 36 0 61 0;
#X connect 38 0 11 0;
#X connect 39 0 57 0;
#X connect 40 0 42 0;
#X connect 40 1 41 0;
#X connect 41 0 47 0;
#X connect 42 0 69 0;
#X connect 43 0 56 1;
#X connect 44 0 47 1;
#X connect 45 0 47 2;
#X connect 46 0 47 0;
#X connect 47 1 53 0;
#X connect 48 0 50 0;
#X connect 49 0 50 0;
#X connect 50 0 51 0;
#X connect 51 0 41 4;
#X connect 52 0 49 0;
#X connect 52 1 48 0;
#X connect 53 0 48 0;
#X connect 53 0 55 0;
#X connect 53 1 49 0;
#X connect 53 2 52 0;
#X connect 54 0 66 0;
#X connect 55 0 54 0;
#X connect 56 0 40 0;
#X connect 57 0 38 0;
#X connect 57 0 56 0;
#X connect 57 0 60 0;
#X connect 58 0 8 0;
#X connect 58 0 9 0;
#X connect 59 0 46 0;
#X connect 60 0 1 0;
#X connect 61 0 67 0;
#X connect 64 0 35 0;
#X connect 65 0 68 0;
#X connect 67 0 68 0;
#X restore 248 601 pd ADMIN;
#X floatatom 106 572 5 0 0 0 - - -;
#X msg 146 658 text Songs;
#X obj 499 697 s list-tunes-update;
#X obj 526 677 s list-tunes-number;
#X obj 499 605 r tunesChanged;
#X obj 514 627 r tunesNumber;
#X obj 449 614 r tune;
#X msg 502 565 text tunes;
#X obj 242 370 s list-tunes-props;
#X obj 69 176 scrollList/gui tunes 1240 1200 168 domoseq/listItem;
#X obj 110 111 nbx 5 14 -1e+37 1e+37 0 1 empty empty empty 0 -8 0 10
-262144 -1 -1 84 256;
#X obj 168 111 nbx 5 14 -1e+37 1e+37 0 1 empty empty empty 0 -8 0 10
-262144 -1 -1 224 256;
#X obj 29 34 t a a;
#X obj 69 130 poftranslate, f 21;
#X obj 29 10 inlet head;
#X obj 372 131 loadbang;
#X msg 372 155 slider force 1 \, slider width 150;
#X floatatom 153 574 5 0 0 0 - - -;
#X obj 35 612 poftranslate 0 -182;
#X obj 49 316 nbx 5 14 -1e+37 1e+37 0 1 empty empty empty 0 -8 0 10
-262144 -1 -1 84 256;
#X obj 107 316 nbx 5 14 -1e+37 1e+37 0 1 empty empty empty 0 -8 0 10
-262144 -1 -1 227 256;
#X obj 34 335 poftranslate, f 21;
#X obj 60 399 pofcolor 0.6 0 0.7 1;
#X floatatom 391 30 5 0 0 0 - - -;
#X floatatom 289 4 5 0 0 0 - - -;
#X floatatom 391 52 5 0 0 0 - - -;
#X obj 213 59 pofcolor 0.6 0 0.7 1;
#X floatatom 243 8 5 0 0 0 - - -;
#X obj 213 82 pofrect 320 -330 10 10 0 0;
#X obj 213 30 poftranslate 84 225;
#X obj 382 234 r tune;
#X obj 481 280 change;
#X obj 382 287 print tune;
#X obj 382 260 list trim;
#X connect 1 0 34 0;
#X connect 3 0 34 0;
#X connect 3 1 35 0;
#X connect 4 0 40 0;
#X connect 5 0 6 0;
#X connect 6 0 34 0;
#X connect 7 0 15 2;
#X connect 8 0 9 0;
#X connect 10 0 39 0;
#X connect 11 0 25 0;
#X connect 12 0 24 2;
#X connect 13 0 25 2;
#X connect 14 0 15 1;
#X connect 15 0 8 0;
#X connect 16 0 41 0;
#X connect 17 0 53 0;
#X connect 17 1 45 0;
#X connect 18 0 31 0;
#X connect 18 0 50 0;
#X connect 18 1 54 0;
#X connect 19 0 20 0;
#X connect 21 0 33 0;
#X connect 22 0 28 2;
#X connect 23 0 30 2;
#X connect 24 0 11 0;
#X connect 26 0 27 0;
#X connect 30 0 28 0;
#X connect 32 0 50 1;
#X connect 33 0 20 0;
#X connect 36 0 3 0;
#X connect 37 0 3 0;
#X connect 38 0 5 0;
#X connect 39 0 9 0;
#X connect 42 0 45 1;
#X connect 43 0 45 2;
#X connect 44 0 17 0;
#X connect 44 1 61 0;
#X connect 45 0 16 0;
#X connect 46 0 44 0;
#X connect 47 0 48 0;
#X connect 48 0 41 1;
#X connect 49 0 50 2;
#X connect 50 0 19 0;
#X connect 51 0 53 1;
#X connect 52 0 53 2;
#X connect 53 0 18 0;
#X connect 54 0 26 0;
#X connect 54 0 30 0;
#X connect 55 0 60 1;
#X connect 56 0 61 2;
#X connect 57 0 60 2;
#X connect 58 0 60 0;
#X connect 59 0 61 1;
#X connect 61 0 58 0;
#X connect 62 0 65 0;
