#N canvas 1217 947 613 716 10;
#X obj 31 29 inlet head;
#X obj 399 81 hsl 128 15 0 20 0 0 list-BASSs-pos list-BASSs-pos list-pos
-2 -8 0 10 -262144 -1 -1 0 1;
#X obj 339 562 bng 15 250 50 0 empty empty empty 17 7 0 10 -262144
-1 -1;
#N canvas 570 444 602 379 getprop 0;
#X obj 156 56 unpack f f;
#X msg 232 107 getnum /;
#X floatatom 311 172 5 0 0 0 - - -;
#X obj 213 81 t f b f;
#X obj 240 262 list prepend;
#X obj 213 171 t f f;
#X obj 240 191 <;
#X msg 240 236 visible \$1;
#X obj 46 174 hradio 15 1 0 8 empty empty empty 0 -8 0 10 -262144 -1
-1 1;
#X msg 30 220 print;
#X msg 3 142 name \$1;
#X obj 240 214 || 0;
#X obj 156 35 t a a;
#X obj 309 60 unpack f f;
#X msg 83 287 symbol \$1;
#X msg 83 344 selected 1;
#X msg 156 343 selected 0;
#X obj 59 142 list prepend name;
#X obj 59 119 route get;
#X msg 104 263 file \$1;
#X obj 155 14 r list-BASSs-getprop;
#X obj 240 285 s list-BASSs-props;
#X obj 83 310 sel BASS;
#X obj 143 309 r BASS;
#X obj 83 235 pofxml BASSs;
#X obj 59 97 pofxml BASSs;
#X msg 59 76 get /BASS[\$1][@name];
#X obj 232 132 pofxml BASSs;
#X msg 83 206 get /BASS[\$1][@file];
#X connect 0 1 3 0;
#X connect 1 0 27 0;
#X connect 3 0 5 0;
#X connect 3 1 1 0;
#X connect 4 0 21 0;
#X connect 5 0 28 0;
#X connect 5 0 26 0;
#X connect 5 1 6 0;
#X connect 6 0 11 0;
#X connect 7 0 4 0;
#X connect 9 0 24 0;
#X connect 10 0 4 0;
#X connect 11 0 7 0;
#X connect 12 0 0 0;
#X connect 12 1 13 0;
#X connect 13 0 4 1;
#X connect 14 0 22 0;
#X connect 15 0 4 0;
#X connect 16 0 4 0;
#X connect 17 0 4 0;
#X connect 18 0 17 0;
#X connect 19 0 4 0;
#X connect 20 0 12 0;
#X connect 22 0 15 0;
#X connect 22 1 16 0;
#X connect 23 0 22 1;
#X connect 24 0 19 0;
#X connect 24 0 14 0;
#X connect 25 0 18 0;
#X connect 26 0 25 0;
#X connect 27 0 6 1;
#X connect 27 0 2 0;
#X connect 28 0 24 0;
#X restore 246 464 pd getprop;
#X obj 381 517 t b f;
#X msg 303 76 0 _show;
#X obj 316 502 b;
#X obj 316 523 del 0;
#X obj 31 225 t a a;
#X floatatom 464 115 5 0 0 0 - - -;
#X floatatom 473 131 5 0 0 0 - - -;
#X floatatom 520 250 5 0 0 0 - - -;
#X floatatom 126 245 5 0 0 0 - - -;
#X obj 31 249 t a a;
#X obj 31 422 t a a;
#X obj 19 623 pofcolor 1 1 1 1;
#X obj 19 645 poftexts typo 43;
#X obj 129 633 loadbang;
#X floatatom 251 492 5 0 0 0 - - -;
#X floatatom 208 446 5 0 0 0 - - -;
#X floatatom 221 567 5 0 0 0 - - -;
#X obj 31 100 t a a;
#X obj 58 148 poftouch 6000 6000;
#X obj 163 170 route down;
#X msg 120 99 draw 1;
#X obj 120 77 loadbang;
#X obj 31 76 pofvisible;
#X msg 163 194 0;
#X msg 123 51 1;
#X obj 246 46 r song;
#X obj 246 68 b;
#X obj 341 21 b;
#N canvas 438 98 762 492 update/close 0;
#X obj 112 37 r ADMIN;
#X obj 56 21 inlet;
#X obj 56 157 t a a;
#X obj 83 252 pofcolor 1 1 1 0.5;
#X obj 56 186 pofcolor 0 0 0 1;
#X floatatom 102 108 5 0 0 0 - - -;
#X floatatom 189 162 5 0 0 0 - - -;
#X floatatom 241 197 5 0 0 0 - - -;
#X msg 143 159 draw 1;
#X obj 83 277 poftouch 35 32;
#X msg 157 368 0;
#X msg 188 368 1;
#X obj 161 395 tgl 15 0 empty empty empty 17 7 0 10 -262144 -1 -1 0
1;
#X obj 185 232 max 0.5;
#X obj 231 325 isInside 50 32;
#X obj 162 303 route up down move;
#X obj 246 390 b;
#X obj 246 369 isInside 35 32;
#X obj 202 118 loadbang;
#X obj 56 209 pofimage mode/64px-Refresh_font_awesome.svg.png 29;
#X obj 77 77 pofvisible;
#X obj 378 154 t a a;
#X obj 405 249 pofcolor 1 1 1 0.5;
#X obj 378 183 pofcolor 0 0 0 1;
#X floatatom 511 159 5 0 0 0 - - -;
#X floatatom 563 194 5 0 0 0 - - -;
#X msg 543 137 draw 1;
#X msg 479 365 0;
#X msg 510 365 1;
#X obj 483 392 tgl 15 0 empty empty empty 17 7 0 10 -262144 -1 -1 0
1;
#X obj 507 229 max 0.5;
#X obj 484 300 route up down move;
#X obj 568 387 b;
#X obj 558 93 loadbang;
#X msg 478 140 text OK;
#X obj 378 206 poftexts typo 29;
#X obj 553 322 isInside 100 32;
#X obj 568 366 isInside 100 32;
#X obj 568 408 outlet;
#X floatatom 409 72 5 0 0 0 - - -;
#X obj 383 120 poftranslate -150;
#X obj 405 274 poftouch 220 32;
#X obj 246 411 s BASSs-update-all;
#X floatatom 152 97 5 0 0 0 - - -;
#X obj 56 134 poftranslate 125 332;
#X connect 0 0 20 0;
#X connect 1 0 44 0;
#X connect 2 0 4 0;
#X connect 2 1 3 0;
#X connect 3 0 9 0;
#X connect 4 0 19 0;
#X connect 5 0 44 1;
#X connect 6 0 9 1;
#X connect 7 0 9 2;
#X connect 8 0 9 0;
#X connect 9 1 15 0;
#X connect 10 0 12 0;
#X connect 11 0 12 0;
#X connect 12 0 13 0;
#X connect 13 0 3 4;
#X connect 14 0 11 0;
#X connect 14 1 10 0;
#X connect 15 0 10 0;
#X connect 15 0 17 0;
#X connect 15 1 11 0;
#X connect 15 2 14 0;
#X connect 16 0 42 0;
#X connect 17 0 16 0;
#X connect 18 0 8 0;
#X connect 20 0 44 0;
#X connect 21 0 23 0;
#X connect 21 1 22 0;
#X connect 22 0 41 0;
#X connect 23 0 35 0;
#X connect 24 0 41 1;
#X connect 25 0 41 2;
#X connect 26 0 41 0;
#X connect 27 0 29 0;
#X connect 28 0 29 0;
#X connect 29 0 30 0;
#X connect 30 0 22 4;
#X connect 31 0 27 0;
#X connect 31 0 37 0;
#X connect 31 1 28 0;
#X connect 31 2 36 0;
#X connect 32 0 38 0;
#X connect 33 0 34 0;
#X connect 33 0 26 0;
#X connect 34 0 35 0;
#X connect 36 0 28 0;
#X connect 36 1 27 0;
#X connect 37 0 32 0;
#X connect 39 0 40 1;
#X connect 40 0 21 0;
#X connect 41 1 31 0;
#X connect 43 0 44 2;
#X connect 44 0 2 0;
#X connect 44 0 40 0;
#X restore 219 617 pd update/close;
#X obj 199 203 b;
#X floatatom 229 537 5 0 0 0 - - -;
#X msg 320 384 slider force 1 \, slider width 150;
#X obj 263 390 loadbang;
#X msg 130 657 text Dominante;
#X obj 123 29 r BASS-choix-open;
#X obj 303 100 s list-BASSs-props;
#X obj 366 473 r BASSsChanged;
#X obj 381 495 r BASSsNumber;
#X obj 408 539 s list-BASSs-number;
#X obj 366 565 s list-BASSs-update;
#X obj 316 482 r BASS;
#X obj 121 -2 inlet;
#X obj 104 424 print;
#X floatatom 56 173 5 0 0 0 - - -;
#X floatatom 94 170 5 0 0 0 - - -;
#X obj 58 122 pofcolor 0 0 0 0.7;
#X floatatom 219 516 5 0 0 0 - - -;
#X floatatom 18 488 5 0 0 0 - - -;
#X obj 83 299 nbx 5 14 -1e+37 1e+37 0 1 empty empty empty 0 -8 0 10
-262144 -1 -1 0 256;
#X obj 141 299 nbx 5 14 -1e+37 1e+37 0 1 empty empty empty 0 -8 0 10
-262144 -1 -1 220 256;
#X obj 42 318 poftranslate, f 21;
#X floatatom 105 570 5 0 0 0 - - -;
#X floatatom 535 154 5 0 0 0 - - -;
#X obj 58 515 poftranslate 0 328;
#X obj 77 469 poftranslate 0 343;
#X obj 73 276 pofscale 0.19 0.3 1;
#X obj 378 150 poftranslate 0 72;
#X obj 414 217 pofrect 314 530 10 10 0 0;
#X obj 58 538 pofrect 314 45 10 10 0 0;
#X obj 77 494 pofrect 314 40 0 0 10 10;
#X obj 31 192 poftranslate -208 -97;
#X floatatom 49 574 5 0 0 0 - - -;
#X obj 19 600 poftranslate -4 -168;
#X msg 233 133 0.6 0 0.7 1;
#X obj 58 445 pofcolor 0.6 0 0.7 1;
#X obj 414 194 pofcolor 0.6 0 0.7 1;
#X obj 41 354 scrollList/gui BASSs 600 1400 168 domoseq/listItemBASS
;
#X connect 0 0 26 0;
#X connect 2 0 43 0;
#X connect 4 0 43 0;
#X connect 4 1 42 0;
#X connect 5 0 39 0;
#X connect 6 0 7 0;
#X connect 7 0 43 0;
#X connect 8 0 13 0;
#X connect 8 1 60 0;
#X connect 10 0 60 2;
#X connect 11 0 61 2;
#X connect 12 0 59 2;
#X connect 13 0 14 0;
#X connect 13 1 59 0;
#X connect 14 0 32 0;
#X connect 14 0 66 0;
#X connect 14 1 68 0;
#X connect 15 0 16 0;
#X connect 17 0 37 0;
#X connect 18 0 63 2;
#X connect 19 0 58 2;
#X connect 20 0 62 1;
#X connect 21 0 64 0;
#X connect 21 1 49 0;
#X connect 22 1 23 0;
#X connect 23 0 27 0;
#X connect 24 0 22 0;
#X connect 25 0 24 0;
#X connect 26 0 21 0;
#X connect 27 0 26 0;
#X connect 27 0 33 0;
#X connect 28 0 26 0;
#X connect 29 0 30 0;
#X connect 32 0 27 0;
#X connect 34 0 62 2;
#X connect 35 0 70 1;
#X connect 36 0 35 0;
#X connect 37 0 16 0;
#X connect 38 0 28 0;
#X connect 40 0 43 0;
#X connect 41 0 4 0;
#X connect 44 0 6 0;
#X connect 45 0 26 0;
#X connect 47 0 64 1;
#X connect 48 0 64 2;
#X connect 49 0 22 0;
#X connect 50 0 57 2;
#X connect 51 0 57 1;
#X connect 52 0 54 1;
#X connect 53 0 54 2;
#X connect 54 0 70 0;
#X connect 55 0 66 2;
#X connect 57 0 62 0;
#X connect 58 0 63 0;
#X connect 59 0 54 0;
#X connect 60 0 69 0;
#X connect 64 0 8 0;
#X connect 65 0 66 1;
#X connect 66 0 15 0;
#X connect 68 0 57 0;
#X connect 68 0 58 0;
#X connect 69 0 61 0;
