#N canvas 242 627 645 765 10;
#X obj 31 9 inlet head;
#X obj 362 178 hsl 128 15 0 20 0 0 list-tunes-pos list-tunes-pos list-pos
-2 -8 0 10 -262144 -1 -1 0 1;
#X obj 339 592 bng 15 250 50 0 empty empty empty 17 7 0 10 -262144
-1 -1;
#N canvas 2388 1046 602 869 getprop 0;
#X obj 156 56 unpack f f;
#X msg 358 109 getnum /;
#X floatatom 437 174 5 0 0 0 - - -;
#X obj 339 83 t f b f;
#X obj 366 264 list prepend;
#X obj 339 173 t f f;
#X obj 366 193 <;
#X msg 366 238 visible \$1;
#X obj 46 174 hradio 15 1 0 8 empty empty empty 0 -8 0 10 -262144 -1
-1 1;
#X msg 30 220 print;
#X msg 3 142 name \$1;
#X obj 366 216 || 0;
#X obj 156 35 t a a;
#X obj 435 62 unpack f f;
#X msg 83 287 symbol \$1;
#X msg 83 344 selected 1;
#X msg 156 343 selected 0;
#X obj 59 142 list prepend name;
#X obj 59 119 route get;
#X msg 104 263 file \$1;
#X obj 83 235 pofxml tunes;
#X obj 83 310 sel tune;
#X obj 174 287 r tune;
#X msg 59 76 get /tune[\$1][@name];
#X obj 156 14 r list-tunes-getprop;
#X obj 366 287 s list-tunes-props;
#X obj 358 134 pofxml tunes;
#X msg 301 323 get /tune[\$1][@file];
#X obj 301 346 pofxml tunes;
#X msg 302 372 symbol \$1;
#X obj 294 440 print gp;
#X symbolatom 172 406 0 0 0 0 - - -;
#X obj 362 455 sel tune;
#X obj 405 384 r tune;
#X symbolatom 413 413 0 0 0 0 - - -;
#X msg 83 206 get /tune[\$1][@file];
#X obj 60 97 pofxml tunes;
#X obj 193 595 print;
#X obj 267 494 hradio 15 1 0 8 empty empty empty 0 -8 0 10 -262144
-1 -1 5;
#X msg 305 515 1;
#X msg 348 516 0;
#X msg 276 544 gets /tune[\$1][@name];
#X obj 276 565 pofxml tunes;
#X connect 0 1 3 0;
#X connect 1 0 26 0;
#X connect 3 0 5 0;
#X connect 3 1 1 0;
#X connect 4 0 25 0;
#X connect 5 0 35 0;
#X connect 5 0 23 0;
#X connect 5 0 27 0;
#X connect 5 1 6 0;
#X connect 6 0 11 0;
#X connect 7 0 4 0;
#X connect 9 0 20 0;
#X connect 10 0 4 0;
#X connect 11 0 7 0;
#X connect 12 0 0 0;
#X connect 12 1 13 0;
#X connect 13 0 4 1;
#X connect 14 0 21 0;
#X connect 15 0 4 0;
#X connect 16 0 4 0;
#X connect 17 0 4 0;
#X connect 18 0 17 0;
#X connect 19 0 4 0;
#X connect 20 0 19 0;
#X connect 20 0 14 0;
#X connect 21 0 15 0;
#X connect 21 1 16 0;
#X connect 22 0 21 1;
#X connect 22 0 31 0;
#X connect 23 0 36 0;
#X connect 24 0 12 0;
#X connect 26 0 6 1;
#X connect 26 0 2 0;
#X connect 27 0 28 0;
#X connect 28 0 29 0;
#X connect 33 0 32 1;
#X connect 33 0 34 0;
#X connect 35 0 20 0;
#X connect 36 0 18 0;
#X connect 38 0 41 0;
#X connect 39 0 41 0;
#X connect 40 0 41 0;
#X connect 41 0 42 0;
#X restore 245 467 pd getprop;
#X obj 393 547 t b f;
#X msg 266 173 0 _show;
#X obj 335 519 b;
#X obj 335 540 del 0;
#X obj 42 249 t a a;
#X floatatom 99 583 5 0 0 0 - - -;
#X obj 435 262 pofcolor 0.3 0.2 0.1 1;
#X floatatom 530 214 5 0 0 0 - - -;
#X floatatom 541 318 5 0 0 0 - - -;
#X floatatom 341 250 5 0 0 0 - - -;
#X obj 74 337 pofscale 0.25 0.25 1;
#X obj 42 273 t a a;
#X obj 30 425 t a a;
#X obj 18 638 pofcolor 1 1 1 1;
#X obj 18 660 poftexts typo 43;
#X obj 129 637 loadbang;
#X obj 57 448 pofcolor 0.3 0.2 0.1 1;
#X floatatom 228 494 5 0 0 0 - - -;
#X floatatom 207 449 5 0 0 0 - - -;
#X floatatom 241 539 5 0 0 0 - - -;
#X obj 31 80 t a a;
#X obj 56 132 poftouch 6000 6000;
#X obj 169 159 route down;
#X msg 120 79 draw 1;
#X obj 120 57 loadbang;
#X msg 169 183 0;
#X msg 123 31 1;
#X obj 56 106 pofcolor 0 0 0 0.8;
#X obj 246 48 b;
#X obj 369 60 bng 15 250 50 0 empty empty empty 17 7 0 10 -262144 -1
-1;
#X obj 304 118 b;
#X msg 315 51 stop;
#X obj 390 37 mode/say 1 noting;
#N canvas 33 837 1062 848 update/close 1;
#X obj 112 37 r ADMIN;
#X obj 56 21 inlet;
#X obj 56 157 t a a;
#X obj 83 252 pofcolor 1 1 1 0.5;
#X obj 56 186 pofcolor 0 0 0 1;
#X floatatom 130 112 5 0 0 0 - - -;
#X floatatom 189 162 5 0 0 0 - - -;
#X floatatom 241 197 5 0 0 0 - - -;
#X msg 143 159 draw 1;
#X obj 83 277 poftouch 35 32;
#X msg 157 368 0;
#X msg 188 368 1;
#X obj 161 395 tgl 15 0 empty empty empty 17 7 0 10 -262144 -1 -1 0
1;
#X obj 185 232 max 0.5;
#X obj 231 325 isInside 50 32;
#X obj 162 303 route up down move;
#X obj 246 390 b;
#X obj 246 369 isInside 35 32;
#X obj 202 118 loadbang;
#X obj 56 209 pofimage mode/64px-Refresh_font_awesome.svg.png 29;
#X obj 56 134 poftranslate 125 190;
#X obj 77 77 pofvisible;
#X obj 435 153 t a a;
#X obj 462 248 pofcolor 1 1 1 0.5;
#X obj 435 182 pofcolor 0 0 0 1;
#X floatatom 568 158 5 0 0 0 - - -;
#X floatatom 620 193 5 0 0 0 - - -;
#X msg 600 136 draw 1;
#X msg 536 364 0;
#X msg 567 364 1;
#X obj 540 391 tgl 15 0 empty empty empty 17 7 0 10 -262144 -1 -1 0
1;
#X obj 564 228 max 0.5;
#X obj 541 299 route up down move;
#X obj 626 385 b;
#X obj 558 93 loadbang;
#X msg 535 139 text OK;
#X obj 435 205 poftexts typo 29;
#X obj 610 321 isInside 100 32;
#X obj 625 365 isInside 100 32;
#X obj 625 407 outlet;
#X floatatom 409 72 5 0 0 0 - - -;
#X obj 462 273 poftouch 220 32;
#X obj 234 526 s tunes-update-all;
#X obj 434 461 t a a;
#X obj 547 491 pofcolor 1 1 1 0.5;
#X obj 434 490 pofcolor 0 0 0 1;
#X floatatom 483 402 5 0 0 0 - - -;
#X floatatom 567 466 5 0 0 0 - - -;
#X floatatom 610 462 5 0 0 0 - - -;
#X msg 374 467 text +;
#X msg 521 463 draw 1;
#X obj 548 513 poftouch 35 32;
#X obj 434 512 poftexts typo 27;
#X msg 604 561 0;
#X msg 635 561 1;
#X obj 608 588 tgl 15 0 empty empty empty 17 7 0 10 -262144 -1 -1 0
1;
#X obj 608 608 max 0.5;
#X obj 699 559 isInside 50 32;
#X obj 629 535 route up down move;
#X obj 688 617 b;
#X obj 688 596 isInside 35 32;
#X obj 424 401 loadbang;
#X obj 383 120 poftranslate -150;
#X floatatom 551 417 5 0 0 0 - - -;
#X obj 731 642 bng 15 250 50 0 empty empty empty 17 7 0 10 -262144
-1 -1;
#X obj 572 672 s InterfaceRectune;
#X obj 228 421 t b b;
#X obj 266 480 bng 15 250 50 0 empty empty empty 17 7 0 10 -262144
-1 -1;
#X obj 190 495 del 100;
#X obj 167 441 bng 15 250 50 0 empty empty empty 17 7 0 10 -262144
-1 -1;
#X floatatom 432 614 5 0 0 0 - - -;
#X obj 313 586 nbx 5 14 -1e+37 1e+37 0 1 empty empty empty 0 -8 0 10
-262144 -1 -1 68 256;
#X obj 306 566 nbx 5 14 -1e+37 1e+37 0 1 empty empty empty 0 -8 0 10
-262144 -1 -1 165 256;
#N canvas 88 756 450 499 save-tune 0;
#X obj 96 21 inlet;
#X obj 96 42 t a a a;
#X obj 135 67 pofcolor 1 1 1 1;
#X msg 253 53 draw 1;
#X obj 253 32 loadbang;
#X obj 115 280 pofcolor 0.2 0.2 0.2 1;
#X obj 96 370 pofcolor 0.8 0.8 0.8 1;
#X obj 19 305 loadbang;
#X obj 128 350 unpack f f f;
#X obj 147 259 unpack f f f;
#X msg 309 259 0.2 0.2 0.2;
#X msg 309 300 0.8 0.8 0.8;
#X msg 252 300 0 0 0 1;
#X obj 228 107 route down;
#X obj 228 128 b;
#X obj 377 167 loadbang;
#X floatatom 169 142 5 0 0 0 - - -;
#X floatatom 136 191 5 0 0 0 - - -;
#X obj 135 88 poftouch 250 50;
#X obj 115 300 pofrect 245 45;
#X obj 96 391 poftexts asimov 40;
#X msg 19 326 text SAVE TUNE \, width 200 \, center 1;
#X obj 169 126 bng 15 250 50 0 empty empty empty 17 7 0 10 -262144
-1 -1;
#X msg 252 258 1 0 0 0;
#X obj 286 136 t b b;
#X obj 373 214 del 100;
#X obj 322 163 del 150;
#X obj 182 177 s saveTune-rcv;
#X connect 0 0 1 0;
#X connect 1 0 6 0;
#X connect 1 1 5 0;
#X connect 1 2 2 0;
#X connect 2 0 18 0;
#X connect 3 0 18 0;
#X connect 4 0 3 0;
#X connect 5 0 19 0;
#X connect 6 0 20 0;
#X connect 7 0 21 0;
#X connect 8 0 6 1;
#X connect 8 1 6 2;
#X connect 8 2 6 3;
#X connect 9 0 5 1;
#X connect 9 1 5 2;
#X connect 9 2 5 3;
#X connect 10 0 9 0;
#X connect 10 0 11 0;
#X connect 11 0 8 0;
#X connect 12 0 8 0;
#X connect 13 0 14 0;
#X connect 14 0 22 0;
#X connect 14 0 24 0;
#X connect 14 0 27 0;
#X connect 15 0 10 0;
#X connect 18 1 13 0;
#X connect 21 0 20 0;
#X connect 23 0 9 0;
#X connect 23 0 12 0;
#X connect 24 1 23 0;
#X connect 24 1 26 0;
#X connect 26 0 10 0;
#X restore 277 643 pd save-tune;
#X obj 285 691 nbx 5 14 -1e+37 1e+37 0 1 empty empty empty 0 -8 0 10
-262144 -1 -1 -38 256;
#X obj 224 715 poftranslate;
#X obj 278 671 nbx 5 14 -1e+37 1e+37 0 1 empty empty empty 0 -8 0 10
-262144 -1 -1 -124 256;
#X obj 392 659 loadbang;
#X obj 311 738 pofcolor 1 0.5 0 1;
#X obj 311 761 poftexts asimov 25 -1;
#X obj 252 610 poftranslate;
#X obj 483 648 symbol;
#X obj 477 615 r PofTuneName;
#X obj 434 439 poftranslate -155 0;
#X symbolatom 507 714 10 0 0 0 - - -;
#X msg 414 691 text \$1;
#X connect 0 0 21 0;
#X connect 1 0 20 0;
#X connect 2 0 4 0;
#X connect 2 1 3 0;
#X connect 3 0 9 0;
#X connect 4 0 19 0;
#X connect 5 0 20 1;
#X connect 6 0 9 1;
#X connect 7 0 9 2;
#X connect 8 0 9 0;
#X connect 9 1 15 0;
#X connect 10 0 12 0;
#X connect 11 0 12 0;
#X connect 12 0 13 0;
#X connect 13 0 3 4;
#X connect 14 0 11 0;
#X connect 14 1 10 0;
#X connect 15 0 10 0;
#X connect 15 0 17 0;
#X connect 15 1 11 0;
#X connect 15 2 14 0;
#X connect 16 0 66 0;
#X connect 17 0 16 0;
#X connect 18 0 8 0;
#X connect 20 0 2 0;
#X connect 20 0 62 0;
#X connect 21 0 20 0;
#X connect 22 0 24 0;
#X connect 22 1 23 0;
#X connect 23 0 41 0;
#X connect 24 0 36 0;
#X connect 25 0 41 1;
#X connect 26 0 41 2;
#X connect 27 0 41 0;
#X connect 28 0 30 0;
#X connect 29 0 30 0;
#X connect 30 0 31 0;
#X connect 31 0 23 4;
#X connect 32 0 28 0;
#X connect 32 0 38 0;
#X connect 32 1 29 0;
#X connect 32 2 37 0;
#X connect 33 0 39 0;
#X connect 34 0 35 0;
#X connect 34 0 27 0;
#X connect 35 0 36 0;
#X connect 37 0 29 0;
#X connect 37 1 28 0;
#X connect 38 0 33 0;
#X connect 40 0 62 1;
#X connect 41 1 32 0;
#X connect 43 0 45 0;
#X connect 43 1 44 0;
#X connect 44 0 51 0;
#X connect 45 0 52 0;
#X connect 46 0 83 1;
#X connect 47 0 51 1;
#X connect 48 0 51 2;
#X connect 49 0 52 0;
#X connect 50 0 51 0;
#X connect 51 1 58 0;
#X connect 53 0 55 0;
#X connect 54 0 55 0;
#X connect 55 0 56 0;
#X connect 56 0 44 4;
#X connect 57 0 54 0;
#X connect 57 1 53 0;
#X connect 58 0 53 0;
#X connect 58 0 60 0;
#X connect 58 1 54 0;
#X connect 58 2 57 0;
#X connect 59 0 64 0;
#X connect 59 0 65 0;
#X connect 60 0 59 0;
#X connect 61 0 49 0;
#X connect 61 0 50 0;
#X connect 62 0 22 0;
#X connect 62 0 83 0;
#X connect 66 1 42 0;
#X connect 67 0 42 0;
#X connect 71 0 80 2;
#X connect 72 0 80 1;
#X connect 74 0 75 2;
#X connect 75 0 78 0;
#X connect 76 0 75 1;
#X connect 78 0 79 0;
#X connect 80 0 73 0;
#X connect 80 0 75 0;
#X connect 81 0 85 0;
#X connect 81 0 84 0;
#X connect 82 0 81 0;
#X connect 83 0 43 0;
#X connect 83 0 80 0;
#X connect 85 0 79 0;
#X restore 222 625 pd update/close;
#X obj 205 192 b;
#X floatatom 236 518 5 0 0 0 - - -;
#X obj 57 541 pofrect 510 50 10 10 0 0;
#X obj 76 497 pofrect 510 70 0 0 10 10;
#X msg 411 346 slider force 1 \, slider width 150;
#X obj 411 322 loadbang;
#X obj 123 9 r tune-choix-open;
#X obj 266 197 s list-tunes-props;
#X obj 378 503 r tunesChanged;
#X obj 393 525 r tunesNumber;
#X obj 420 569 s list-tunes-number;
#X obj 378 595 s list-tunes-update;
#X obj 335 499 r tune;
#X obj 341 10 r tune;
#X obj 246 26 r tune;
#X obj 266 707 bng 15 250 50 0 empty empty empty 17 7 0 10 -262144
-1 -1;
#X obj 348 708 s PlaysSeltune;
#X obj 190 86 r tuneStartRec;
#X msg 199 118 0;
#X obj 209 237 print;
#X obj 108 162 bng 15 250 50 0 empty empty empty 17 7 0 10 -262144
-1 -1;
#X obj 75 357 scrollList/gui tunes 2000 1200 168 domoseq/listItem;
#X obj 338 86 mode/say 1 ChoixTune 10000;
#X obj 338 113 mode/say 1 ChoixTuneRappel 10000;
#X msg 129 661 text User Tunes:;
#X obj 196 62 bng 15 250 50 0 empty empty empty 17 7 0 10 -262144 -1
-1;
#X obj 76 472 poftranslate 0 260;
#X obj 57 518 poftranslate 0 -226;
#X obj 435 233 poftranslate 0 14;
#X floatatom 56 584 5 0 0 0 - - -;
#X floatatom 139 291 5 0 0 0 - - -;
#X floatatom 99 290 5 0 0 0 - - -;
#X floatatom 98 185 5 0 0 0 - - -;
#X floatatom 58 184 5 0 0 0 - - -;
#X obj 31 56 pofvisible;
#X floatatom 104 382 5 0 0 0 - - -;
#X floatatom 64 381 5 0 0 0 - - -;
#X obj 26 208 poftranslate 0 -34;
#X obj 435 285 pofrect 510 450 10 10 0 0;
#X obj 67 314 poftranslate 0 -26;
#X floatatom 277 571 5 0 0 0 - - -;
#X floatatom 237 570 5 0 0 0 - - -;
#X obj 32 405 poftranslate 0 6;
#X obj 205 594 poftranslate 0 10;
#X obj 18 615 poftranslate -60 -224;
#X connect 0 0 72 0;
#X connect 2 0 49 0;
#X connect 4 0 49 0;
#X connect 4 1 48 0;
#X connect 5 0 45 0;
#X connect 6 0 7 0;
#X connect 7 0 49 0;
#X connect 8 0 15 0;
#X connect 8 1 66 0;
#X connect 9 0 82 2;
#X connect 10 0 76 0;
#X connect 11 0 66 2;
#X connect 12 0 76 2;
#X connect 14 0 59 0;
#X connect 15 0 80 0;
#X connect 15 1 77 0;
#X connect 16 0 81 0;
#X connect 16 0 82 0;
#X connect 16 1 20 0;
#X connect 17 0 18 0;
#X connect 19 0 62 0;
#X connect 20 0 64 0;
#X connect 20 0 65 0;
#X connect 21 0 41 2;
#X connect 22 0 64 2;
#X connect 23 0 40 1;
#X connect 24 0 75 0;
#X connect 24 1 31 0;
#X connect 25 1 26 0;
#X connect 26 0 29 0;
#X connect 26 0 58 0;
#X connect 27 0 25 0;
#X connect 28 0 27 0;
#X connect 29 0 38 0;
#X connect 29 0 72 0;
#X connect 30 0 72 0;
#X connect 31 0 25 0;
#X connect 33 0 60 0;
#X connect 34 0 61 0;
#X connect 35 0 60 0;
#X connect 35 0 61 0;
#X connect 37 0 29 0;
#X connect 37 0 53 0;
#X connect 37 0 54 0;
#X connect 38 0 36 0;
#X connect 39 0 65 2;
#X connect 42 0 59 1;
#X connect 43 0 42 0;
#X connect 44 0 30 0;
#X connect 44 0 60 0;
#X connect 44 0 63 0;
#X connect 46 0 49 0;
#X connect 47 0 4 0;
#X connect 50 0 6 0;
#X connect 51 0 36 0;
#X connect 52 0 32 0;
#X connect 55 0 56 0;
#X connect 56 0 29 0;
#X connect 60 0 61 0;
#X connect 61 0 34 0;
#X connect 62 0 18 0;
#X connect 64 0 41 0;
#X connect 65 0 40 0;
#X connect 66 0 10 0;
#X connect 67 0 82 1;
#X connect 68 0 77 2;
#X connect 69 0 77 1;
#X connect 70 0 75 2;
#X connect 71 0 75 1;
#X connect 72 0 24 0;
#X connect 73 0 80 2;
#X connect 74 0 80 1;
#X connect 75 0 8 0;
#X connect 77 0 14 0;
#X connect 78 0 81 2;
#X connect 79 0 81 1;
#X connect 80 0 16 0;
#X connect 81 0 37 0;
#X connect 82 0 17 0;
