#N canvas 280 942 821 895 10;
#X symbolatom 338 246 0 0 0 0 - - -;
#X obj 305 277 symbol;
#X obj 309 225 bng 15 250 50 0 empty empty empty 17 7 0 10 -262144
-1 -1;
#X obj 307 257 bng 15 250 50 0 empty empty empty 17 7 0 10 -262144
-1 -1;
#X msg 413 143 print;
#N canvas 171 397 972 583 create 0;
#X obj 89 127 pofutil;
#X msg 89 87 time %Y-%B-%d-%Hh-%Mmn-%Ss;
#X obj 89 263 pofutil;
#X msg 89 149 symbol \$1;
#X obj 89 202 pack s s;
#X obj 157 149 r datadir;
#X obj 89 176 t s s;
#X obj 133 392 symbol;
#X obj 89 309 route done;
#X obj 60 55 bng 15 250 50 0 empty empty empty 17 7 0 10 -258113 -1
-1;
#X obj 49 360 bng 15 250 50 0 empty empty empty 17 7 0 10 -262144 -1
-1;
#X obj 89 331 sel 0;
#X obj 89 287 route mkdir;
#X obj 89 52 t b a;
#X obj 99 429 list;
#X obj 272 370 pack s f;
#X obj 292 346 - 1;
#X floatatom 346 354 5 0 0 0 - - -;
#X msg 292 302 add / tune \, getnum /;
#X obj 292 325 pofxml tunes;
#X obj 272 416 pofxml tunes;
#X obj 253 452 s tune;
#X obj 230 482 s tune-save-as;
#X msg 89 232 mkdir \$2/tune/\$1;
#X msg 272 392 setattr / tune[\$2] file \$1;
#X obj 417 134 r~ REC-l;
#X obj 607 157 r~ REC-r;
#X obj 428 224 tabwrite~ tune-table-0;
#X obj 595 226 tabwrite~ tune-table-1;
#X obj 558 128 line~;
#X obj 428 194 *~;
#X msg 562 97 0 5000;
#X msg 514 77 1 100;
#X obj 595 198 *~;
#X obj 633 98 del 5000;
#X msg 536 179 stop;
#X obj 500 33 t b b b;
#X msg 503 177 bang;
#X obj 590 30 del 7.7795e+06;
#X obj 460 38 bng 15 250 50 0 empty empty empty 17 7 0 10 -262144 -1
-1;
#X obj 469 12 bng 15 250 50 0 empty empty empty 17 7 0 10 -262144 -1
-1;
#X obj 648 120 bng 15 250 50 0 empty empty empty 17 7 0 10 -262144
-1 -1;
#X obj 592 338 timer;
#X floatatom 650 346 0 0 0 0 - - -;
#X obj 583 306 bng 15 250 50 0 empty empty empty 17 7 0 10 -262144
-1 -1;
#X obj 630 294 bng 15 250 50 0 empty empty empty 17 7 0 10 -262144
-1 -1;
#X obj 579 273 t b;
#X obj 630 260 t b;
#X obj 560 500 tabwrite tune-table-length;
#X obj 631 467 f;
#X msg 687 462 0, f 1;
#X obj 660 440 t b b;
#X obj 609 427 t b b;
#X msg 611 456 1, f 1;
#X obj 601 363 * 44.1;
#X obj 500 -1 r tuneStartRec;
#X obj 670 69 bng 15 250 50 0 empty empty empty 17 7 0 10 -262144 -1
-1;
#X obj 79 3 r tuneCreate;
#X obj 608 400 t b b b f;
#X obj 99 455 s settuneName;
#X obj 514 410 bng 15 250 50 0 empty empty empty 17 7 0 10 -262144
-1 -1;
#X obj 500 440 s tuneStopRec;
#X obj 714 5 r tuneStopRecording;
#X obj 281 3 r tuneState;
#X floatatom 278 30 5 0 0 0 - - -;
#X obj 439 108 s tuneState;
#X msg 439 76 2, f 2;
#X text 460 75 Rec;
#X obj 470 493 s tuneState;
#X msg 497 469 2;
#X obj 210 336 s tuneState;
#X obj 249 258 t b s s b;
#X msg 228 304 0;
#X obj 194 25 ddemux 0 1 2;
#X msg 678 139 33;
#X floatatom 671 164 5 0 0 0 - - -;
#X obj 568 57 del 176405;
#X obj 89 355 t b b b;
#X obj 24 487 del 2500;
#X obj 33 532 mode/say 1 SaveTune 3000;
#X symbolatom 260 532 0 0 0 0 - - -;
#X obj 124 31 print;
#X connect 0 0 3 0;
#X connect 1 0 0 0;
#X connect 2 0 12 0;
#X connect 3 0 6 0;
#X connect 4 0 23 0;
#X connect 5 0 4 1;
#X connect 6 0 4 0;
#X connect 6 1 7 1;
#X connect 7 0 71 0;
#X connect 8 0 11 0;
#X connect 11 0 10 0;
#X connect 11 0 77 0;
#X connect 12 0 8 0;
#X connect 13 0 1 0;
#X connect 13 1 14 1;
#X connect 14 0 59 0;
#X connect 15 0 24 0;
#X connect 16 0 15 1;
#X connect 18 0 19 0;
#X connect 19 0 16 0;
#X connect 19 0 17 0;
#X connect 23 0 2 0;
#X connect 24 0 20 0;
#X connect 25 0 30 0;
#X connect 26 0 33 0;
#X connect 29 0 30 1;
#X connect 29 0 33 1;
#X connect 30 0 27 0;
#X connect 31 0 29 0;
#X connect 32 0 29 0;
#X connect 33 0 28 0;
#X connect 34 0 35 0;
#X connect 34 0 41 0;
#X connect 35 0 28 0;
#X connect 35 0 27 0;
#X connect 35 0 47 0;
#X connect 36 0 37 0;
#X connect 36 0 66 0;
#X connect 36 1 32 0;
#X connect 36 2 76 0;
#X connect 37 0 27 0;
#X connect 37 0 28 0;
#X connect 37 0 46 0;
#X connect 40 0 36 0;
#X connect 41 0 74 0;
#X connect 42 0 43 0;
#X connect 42 0 54 0;
#X connect 44 0 42 0;
#X connect 45 0 42 1;
#X connect 46 0 44 0;
#X connect 47 0 45 0;
#X connect 49 0 48 0;
#X connect 50 0 48 1;
#X connect 51 0 49 0;
#X connect 51 1 50 0;
#X connect 52 0 49 0;
#X connect 52 1 53 0;
#X connect 53 0 48 1;
#X connect 54 0 58 0;
#X connect 55 0 39 0;
#X connect 56 0 34 0;
#X connect 56 0 31 0;
#X connect 57 0 9 0;
#X connect 57 0 13 0;
#X connect 58 0 61 0;
#X connect 58 0 69 0;
#X connect 58 1 52 0;
#X connect 58 2 51 0;
#X connect 58 3 49 1;
#X connect 60 0 61 0;
#X connect 63 0 64 0;
#X connect 63 0 73 1;
#X connect 66 0 65 0;
#X connect 69 0 68 0;
#X connect 71 0 72 0;
#X connect 71 1 21 0;
#X connect 71 1 22 0;
#X connect 71 1 80 0;
#X connect 71 2 15 0;
#X connect 71 3 18 0;
#X connect 72 0 70 0;
#X connect 73 2 13 0;
#X connect 74 0 75 0;
#X connect 76 0 31 0;
#X connect 76 0 34 0;
#X connect 77 0 78 0;
#X connect 77 1 14 0;
#X connect 77 2 7 0;
#X connect 78 0 79 0;
#X restore 413 203 pd create;
#N canvas 389 1008 666 631 setName 1;
#X obj 153 15 r datadir;
#X obj 75 71 pack s s;
#X symbolatom 263 85 0 0 0 0 - - -;
#X obj 75 128 symbol;
#X obj 50 101 bng 15 250 50 0 empty empty empty 17 7 0 10 -262144 -1
-1;
#X msg 414 191 nono;
#X msg 24 400 print;
#X msg 451 190 doudou;
#X symbolatom 287 150 20 0 0 0 - - -;
#X obj 106 424 route error_loading;
#X msg 106 444 clear;
#X obj 100 256 symbol;
#X obj 66 337 symbol;
#X obj 130 341 list prepend add / name;
#X obj 130 361 list trim;
#X msg 66 360 save \$1;
#X msg 342 275 fred énervé;
#X obj 49 235 t a b a b;
#X obj 76 513 list prepend;
#X obj 76 534 list trim;
#X obj 49 573 b;
#X obj 49 490 t b a;
#X obj 25 574 bng 15 250 50 0 empty empty empty 17 7 0 10 -262144 -1
-1;
#X msg 75 100 symbol \$2/tune/\$1/props.xml;
#X obj 75 157 s tunePropsFilename;
#X obj 133 233 r tunePropsFilename;
#X obj 99 315 r tunePropsFilename;
#X obj 76 398 pofxml tuneProps;
#X obj 76 557 pofxml tunes;
#X obj 49 596 s tunesChanged;
#X obj 263 65 r tunePropsFilename;
#X obj 75 27 r tune;
#X obj 144 468 r tune;
#X msg 145 490 setattr / tune[@file=\$1] name;
#X obj 409 220 s settuneName;
#X obj 49 201 r settuneName;
#X msg 154 261 clear \, load \$1 \, remove /name;
#X msg 100 279 clear;
#X obj 169 567 symbol;
#X symbolatom 171 593 0 0 0 0 - - -;
#X symbolatom 157 44 0 0 0 0 - - -;
#X symbolatom 21 61 0 0 0 0 - - -;
#X connect 0 0 1 1;
#X connect 0 0 40 0;
#X connect 1 0 23 0;
#X connect 3 0 24 0;
#X connect 4 0 3 0;
#X connect 5 0 34 0;
#X connect 6 0 27 0;
#X connect 7 0 34 0;
#X connect 8 0 34 0;
#X connect 9 0 10 0;
#X connect 10 0 27 0;
#X connect 11 0 37 0;
#X connect 12 0 15 0;
#X connect 13 0 14 0;
#X connect 14 0 27 0;
#X connect 15 0 27 0;
#X connect 16 0 34 0;
#X connect 17 0 21 0;
#X connect 17 1 12 0;
#X connect 17 2 13 0;
#X connect 17 3 11 0;
#X connect 18 0 19 0;
#X connect 19 0 28 0;
#X connect 20 0 29 0;
#X connect 21 0 20 0;
#X connect 21 1 18 0;
#X connect 22 0 29 0;
#X connect 23 0 3 0;
#X connect 25 0 11 1;
#X connect 26 0 12 1;
#X connect 27 0 9 0;
#X connect 28 0 38 0;
#X connect 30 0 2 0;
#X connect 31 0 1 0;
#X connect 31 0 41 0;
#X connect 32 0 33 0;
#X connect 33 0 18 1;
#X connect 35 0 17 0;
#X connect 37 0 27 0;
#X connect 38 0 39 0;
#X restore 413 227 pd setName;
#X obj 415 262 bng 15 250 50 0 empty empty empty 17 7 0 10 -258113
-1 -1;
#X msg 453 340 doudou;
#X text 227 163 nom;
#X obj 413 166 pofxml tunes;
#X msg 417 340 test;
#X obj 415 305 s tunesChanged;
#N canvas 498 389 653 666 tunes-update-all 0;
#X obj 89 175 pofutil;
#X obj 50 35 bng 15 250 50 0 empty empty empty 17 7 0 10 -4034 -1 -1
;
#X obj 122 108 r datadir;
#X obj 89 129 symbol;
#X obj 89 77 t b b;
#X msg 191 100 clear, f 6;
#X obj 123 240 list split 1;
#X obj 157 263 t a;
#X msg 193 68 print;
#X obj 89 217 list split 1;
#X obj 89 196 route listdir;
#X obj 185 390 r datadir;
#X obj 140 412 pack s s;
#X obj 140 486 pofxml \$0-tmp;
#X obj 123 567 symbol;
#X obj 123 373 t b s b s;
#X msg 207 512 symbol ?;
#X obj 140 528 symbol;
#X obj 197 316 i;
#X obj 227 316 + 1;
#X msg 225 277 0;
#X obj 123 590 pack s f;
#X obj 123 288 t s s b;
#X obj 142 343 pack s f;
#X msg 25 266 getnum /;
#X msg 140 460 clear \, load \$1 \, gets /name;
#X obj 140 508 route gets;
#X obj 50 56 t b b b;
#X obj 6 337 outlet;
#X obj 50 10 inlet;
#X obj 25 289 pofxml tunes;
#X obj 25 313 s tunesNumber;
#X obj 343 467 pofxml tunes;
#X msg 140 434 symbol \$2/tune/\$1/props.xml;
#X msg 123 613 setattr / tune[\$2] name \$1;
#X obj 123 636 pofxml tunes;
#X obj 85 32 r tunes-update-all;
#X msg 248 60 save /tmp/tunes.xml;
#X obj 191 127 pofxml tunes;
#X msg 89 155 listdir \$1/tune/;
#X msg 343 443 add / tune \, setattr / tune[\$2] file \$1;
#X floatatom 55 383 5 0 0 0 - - -;
#X connect 0 0 10 0;
#X connect 1 0 27 0;
#X connect 2 0 3 1;
#X connect 3 0 39 0;
#X connect 4 0 3 0;
#X connect 4 1 5 0;
#X connect 4 1 20 0;
#X connect 5 0 38 0;
#X connect 6 0 22 0;
#X connect 6 1 7 0;
#X connect 7 0 6 0;
#X connect 8 0 38 0;
#X connect 9 1 6 0;
#X connect 10 0 9 0;
#X connect 11 0 12 1;
#X connect 12 0 33 0;
#X connect 13 0 26 0;
#X connect 14 0 21 0;
#X connect 15 0 14 0;
#X connect 15 1 12 0;
#X connect 15 2 16 0;
#X connect 16 0 14 1;
#X connect 17 0 14 1;
#X connect 18 0 19 0;
#X connect 18 0 21 1;
#X connect 18 0 23 1;
#X connect 19 0 18 1;
#X connect 20 0 18 1;
#X connect 21 0 34 0;
#X connect 22 0 15 0;
#X connect 22 1 23 0;
#X connect 22 2 18 0;
#X connect 23 0 40 0;
#X connect 24 0 30 0;
#X connect 25 0 13 0;
#X connect 26 0 17 0;
#X connect 27 0 28 0;
#X connect 27 1 24 0;
#X connect 27 2 4 0;
#X connect 29 0 1 0;
#X connect 30 0 31 0;
#X connect 30 0 41 0;
#X connect 33 0 25 0;
#X connect 34 0 35 0;
#X connect 36 0 1 0;
#X connect 37 0 38 0;
#X connect 39 0 0 0;
#X connect 40 0 32 0;
#X restore 415 284 pd tunes-update-all;
#X msg 260 243 test;
#X msg 257 216 test2;
#X obj 46 339 r tune;
#X msg 181 314 read \$1;
#X obj 93 447 r vol-readsf-snd;
#X obj 12 614 throw~ OutMusic-0;
#X obj 133 615 throw~ OutMusic-1;
#X obj 47 368 bng 15 250 50 0 empty empty empty 17 7 0 10 -262144 -1
-1;
#X obj 322 387 r PlaysSeltune;
#X obj 372 501 r vol-readsf-snd;
#X obj 324 418 bng 15 250 50 0 empty empty empty 17 7 0 10 -262144
-1 -1;
#X obj 308 652 throw~ OutMusic-0;
#X obj 429 653 throw~ OutMusic-1;
#X obj 564 534 print;
#X obj 217 700 hradio 15 1 0 11 empty empty empty 0 -8 0 10 -262144
-1 -1 0;
#X floatatom 164 758 8 0 0 0 - - -;
#X msg 282 444 0;
#X floatatom 262 795 0 0 0 0 - - -;
#X obj 194 795 del 1000;
#X obj 171 843 bng 15 250 50 0 empty empty empty 17 7 0 10 -262144
-1 -1;
#X obj 234 760 / 44.1;
#X msg 280 548 stop;
#X obj 417 368 s settuneName;
#X obj 169 501 r tuneStopPlaying;
#N canvas 1213 1307 563 613 savetune-old 0;
#X obj 144 53 symbol;
#X obj 144 317 t f b;
#X obj 144 339 until;
#X obj 144 361 i;
#X obj 169 362 + 1;
#X msg 181 339 0;
#X obj 144 510 soundfiler;
#X obj 144 269 t b s;
#X obj 144 459 list prepend;
#X obj 144 163 pofutil;
#X msg 144 140 mkdir \$1;
#X obj 213 51 r datadir;
#X obj 144 73 list prepend;
#X obj 144 206 route done;
#X obj 144 119 t s s;
#X obj 144 226 sel 0;
#X obj 144 246 symbol;
#X obj 144 184 route mkdir;
#X msg 193 286 \; set-table-length write \$1/length.txt;
#X obj 144 384 t f f;
#X obj 144 430 pack f f;
#X msg 327 337 \; set-table-pitch write \$1/pitch.txt;
#X obj 147 9 r tune-save-as;
#X msg 144 95 symbol \$1/tune/\$2;
#X obj 171 406 tabread tune-table-length;
#X msg 144 484 write -wave -nframes \$3 \$1/\$2.wav tune-table-\$2
;
#X msg 97 31 test;
#X msg 144 295 3;
#X connect 0 0 12 0;
#X connect 1 0 2 0;
#X connect 1 1 5 0;
#X connect 2 0 3 0;
#X connect 3 0 4 0;
#X connect 3 0 19 0;
#X connect 4 0 3 1;
#X connect 5 0 3 1;
#X connect 7 0 27 0;
#X connect 7 1 8 1;
#X connect 7 1 18 0;
#X connect 7 1 21 0;
#X connect 8 0 25 0;
#X connect 9 0 17 0;
#X connect 10 0 9 0;
#X connect 11 0 12 1;
#X connect 12 0 23 0;
#X connect 13 0 15 0;
#X connect 14 0 10 0;
#X connect 14 1 16 1;
#X connect 15 0 16 0;
#X connect 16 0 7 0;
#X connect 17 0 13 0;
#X connect 19 0 20 0;
#X connect 19 1 24 0;
#X connect 20 0 8 0;
#X connect 23 0 14 0;
#X connect 24 0 20 1;
#X connect 25 0 6 0;
#X connect 26 0 0 0;
#X connect 27 0 1 0;
#X restore 314 91 pd savetune-old;
#N canvas 1989 998 1090 678 loadtune-old 0;
#X obj 122 54 symbol;
#X obj 122 167 t f b;
#X obj 122 189 until;
#X obj 122 211 i;
#X obj 147 212 + 1;
#X msg 159 189 0;
#X obj 122 308 soundfiler;
#X obj 122 119 t b s;
#X obj 122 259 list prepend;
#X obj 191 52 r datadir;
#X obj 122 74 list prepend;
#X msg 264 180 \; set-table-pitch read \$1/pitch.txt;
#X obj 164 427 s AllumageDecoupeurs;
#X floatatom 25 358 0 0 0 0 - - -;
#X obj 122 378 t b;
#X obj 232 145 s datadirInstruments;
#X symbolatom 378 133 0 0 0 0 - - -;
#X obj 164 405 del 500;
#X obj 122 235 t f f, f 17;
#X obj 711 43 hradio 15 1 0 11 empty empty empty 0 -8 0 10 -262144
-1 -1 0;
#X floatatom 710 89 8 0 0 0 - - -;
#X obj 127 11 r tune-load;
#X msg 122 96 symbol \$1/tune/\$2;
#X msg 122 284 read \$1/\$2.wav tune-table-\$2;
#X obj 149 349 tabwrite tune-table-length;
#X obj 710 68 tabread tune-table-length;
#X msg 262 222 \; tune-table-length read \$1/length.txt;
#X msg 75 32 test;
#X msg 122 145 3;
#X connect 0 0 10 0;
#X connect 1 0 2 0;
#X connect 1 1 5 0;
#X connect 2 0 3 0;
#X connect 3 0 4 0;
#X connect 3 0 18 0;
#X connect 4 0 3 1;
#X connect 5 0 3 1;
#X connect 6 0 13 0;
#X connect 6 0 24 0;
#X connect 7 0 28 0;
#X connect 7 1 8 1;
#X connect 7 1 26 0;
#X connect 7 1 11 0;
#X connect 8 0 23 0;
#X connect 9 0 10 1;
#X connect 10 0 22 0;
#X connect 14 0 17 0;
#X connect 17 0 12 0;
#X connect 18 0 8 0;
#X connect 18 1 24 1;
#X connect 19 0 25 0;
#X connect 22 0 7 0;
#X connect 22 0 16 0;
#X connect 23 0 6 0;
#X connect 25 0 20 0;
#X connect 27 0 0 0;
#X connect 28 0 1 0;
#X restore 316 113 pd loadtune-old;
#X obj 347 592 mull~ 1 10;
#X obj 424 615 mull~ 1 10;
#X obj 68 538 mull~ 0.5 10;
#X obj 505 95 settings/autosave_xml tune;
#N canvas 80 495 894 698 savetune 0;
#X obj 144 53 symbol;
#X obj 101 590 soundfiler;
#X obj 142 491 list prepend;
#X obj 144 163 pofutil;
#X msg 144 140 mkdir \$1;
#X obj 213 51 r datadir;
#X obj 144 73 list prepend;
#X obj 144 206 route done;
#X obj 144 119 t s s;
#X obj 144 226 sel 0;
#X obj 144 246 symbol;
#X obj 144 184 route mkdir;
#X obj 147 9 r tune-save-as;
#X msg 144 95 symbol \$1/tune/\$2;
#X obj 171 406 tabread tune-table-length;
#X msg 97 31 test;
#X obj 542 577 soundfiler;
#X obj 466 472 list prepend;
#X obj 466 397 t f f;
#X obj 466 443 pack f f;
#X obj 493 419 tabread tune-table-length;
#X obj 145 319 t b b s;
#X obj 144 384 t f f f;
#X obj 142 467 pack f f f;
#X obj 56 499 print;
#X floatatom 301 501 5 0 0 0 - - -;
#X floatatom 352 516 0 0 0 0 - - -;
#X obj 304 444 unpack s f f;
#X symbolatom 253 471 10 0 0 0 - - -;
#X msg 466 364 2;
#X floatatom 602 509 5 0 0 0 - - -;
#X floatatom 653 524 0 0 0 0 - - -;
#X obj 605 452 unpack s f f;
#X symbolatom 554 479 10 0 0 0 - - -;
#X msg 145 345 1;
#X msg 39 553 write -wave -normalize -nframes \$3 \$1/tune.wav tune-table-0
tune-table-1, f 78;
#X msg 542 551 write -wave -nframes \$3 \$1/comment.wav tune-table-\$2
;
#X obj 350 287 print s;
#X msg 562 319 \; tune-table-length write \$1/length.txt;
#X msg 574 372 \; tune-table-pitch write \$1/pitch.txt;
#X symbolatom 295 162 0 0 0 0 - - -;
#X connect 0 0 6 0;
#X connect 2 0 27 0;
#X connect 2 0 35 0;
#X connect 3 0 11 0;
#X connect 4 0 3 0;
#X connect 5 0 6 1;
#X connect 6 0 13 0;
#X connect 7 0 9 0;
#X connect 8 0 4 0;
#X connect 8 1 10 1;
#X connect 9 0 10 0;
#X connect 10 0 40 0;
#X connect 10 0 21 0;
#X connect 11 0 7 0;
#X connect 12 0 0 0;
#X connect 13 0 8 0;
#X connect 14 0 23 1;
#X connect 15 0 0 0;
#X connect 17 0 36 0;
#X connect 17 0 32 0;
#X connect 18 0 19 0;
#X connect 18 1 20 0;
#X connect 19 0 17 0;
#X connect 20 0 19 1;
#X connect 21 0 34 0;
#X connect 21 1 29 0;
#X connect 21 2 38 0;
#X connect 21 2 2 1;
#X connect 21 2 17 1;
#X connect 21 2 37 0;
#X connect 22 0 23 0;
#X connect 22 1 14 0;
#X connect 23 0 2 0;
#X connect 27 0 28 0;
#X connect 27 1 25 0;
#X connect 27 2 26 0;
#X connect 29 0 18 0;
#X connect 32 0 33 0;
#X connect 32 1 30 0;
#X connect 32 2 31 0;
#X connect 34 0 22 0;
#X connect 36 0 16 0;
#X restore 310 152 pd savetune;
#N canvas 1200 1371 931 470 loadtune 1;
#X obj 122 54 symbol;
#X obj 76 357 soundfiler;
#X obj 122 259 list prepend;
#X obj 191 52 r datadir;
#X obj 122 74 list prepend;
#X msg 364 39 \; set-table-pitch read \$1/pitch.txt;
#X obj 164 427 s AllumageDecoupeurs;
#X floatatom 25 358 0 0 0 0 - - -;
#X obj 122 378 t b;
#X obj 332 95 s datadirInstruments;
#X symbolatom 168 127 0 0 0 0 - - -;
#X obj 164 405 del 500;
#X obj 122 235 t f f, f 17;
#X obj 711 43 hradio 15 1 0 11 empty empty empty 0 -8 0 10 -262144
-1 -1 0;
#X floatatom 710 89 8 0 0 0 - - -;
#X obj 121 14 r tune-load;
#X msg 122 96 symbol \$1/tune/\$2;
#X obj 149 349 tabwrite tune-table-length;
#X obj 710 68 tabread tune-table-length;
#X msg 236 225 \; tune-table-length read \$1/length.txt;
#X msg 75 32 test;
#X msg 137 208 1;
#X obj 460 355 soundfiler;
#X obj 460 306 list prepend;
#X obj 460 282 t f f, f 17;
#X obj 487 396 tabwrite tune-table-length;
#X obj 141 192 t b b s;
#X msg 460 192 2;
#X msg 460 331 read \$1/comment.wav tune-table-2;
#X msg 122 284 read \$1/tune.wav tune-table-0 tune-table-1;
#X floatatom 61 149 0 0 0 0 - - -;
#X connect 0 0 4 0;
#X connect 0 0 30 0;
#X connect 1 0 7 0;
#X connect 1 0 17 0;
#X connect 2 0 29 0;
#X connect 3 0 4 1;
#X connect 4 0 16 0;
#X connect 8 0 11 0;
#X connect 11 0 6 0;
#X connect 12 0 2 0;
#X connect 12 1 17 1;
#X connect 13 0 18 0;
#X connect 15 0 0 0;
#X connect 16 0 10 0;
#X connect 16 0 26 0;
#X connect 18 0 14 0;
#X connect 20 0 0 0;
#X connect 21 0 12 0;
#X connect 22 0 25 0;
#X connect 23 0 28 0;
#X connect 24 0 23 0;
#X connect 24 1 25 1;
#X connect 26 0 21 0;
#X connect 26 1 27 0;
#X connect 26 2 2 1;
#X connect 26 2 19 0;
#X connect 26 2 23 1;
#X connect 27 0 24 0;
#X connect 28 0 22 0;
#X restore 308 186 pd loadtune;
#X obj 338 219 r tune;
#X obj 305 297 s tune;
#X obj 54 99 table tune-table-0 8e+06;
#X obj 55 131 table tune-table-1 8e+06;
#X obj 48 163 table tune-table-2 441000;
#X obj 53 227 table tune-table-length 30;
#X obj 47 394 tabplay~ tune-table-2;
#X obj 327 445 tabplay~ tune-table-0;
#X obj 403 471 tabplay~ tune-table-1;
#X obj 216 725 tabread tune-table-length;
#X obj 214 837 s tuneStopPlaying;
#X connect 0 0 1 1;
#X connect 1 0 47 0;
#X connect 2 0 0 0;
#X connect 3 0 1 0;
#X connect 4 0 10 0;
#X connect 7 0 13 0;
#X connect 8 0 36 0;
#X connect 11 0 36 0;
#X connect 13 0 12 0;
#X connect 14 0 1 0;
#X connect 15 0 1 0;
#X connect 16 0 21 0;
#X connect 21 0 52 0;
#X connect 22 0 24 0;
#X connect 23 0 40 1;
#X connect 23 0 41 1;
#X connect 24 0 30 0;
#X connect 24 0 53 0;
#X connect 24 0 54 0;
#X connect 28 0 55 0;
#X connect 30 0 28 0;
#X connect 32 0 33 0;
#X connect 32 0 35 0;
#X connect 32 0 56 0;
#X connect 34 0 31 0;
#X connect 34 0 32 0;
#X connect 35 0 53 0;
#X connect 35 0 54 0;
#X connect 37 0 35 0;
#X connect 42 0 19 0;
#X connect 42 0 20 0;
#X connect 46 0 0 0;
#X connect 52 0 42 0;
#X connect 53 0 40 0;
#X connect 54 0 41 0;
#X connect 55 0 29 0;
#X connect 55 0 34 0;
