#N canvas 148 676 593 379 10;
#X symbolatom 63 45 0 0 0 0 - - -;
#N canvas 580 461 552 504 create 0;
#X obj 89 127 pofutil;
#X msg 89 104 time %Y-%B-%d-%Hh-%Mmn-%Ss;
#X obj 89 263 pofutil;
#X msg 89 149 symbol \$1;
#X obj 89 202 pack s s;
#X obj 157 149 r datadir;
#X obj 89 176 t s s;
#X obj 116 377 symbol;
#X obj 89 309 route done;
#X obj 24 49 bng 15 250 50 0 empty empty empty 17 7 0 10 -258113 -1
-1;
#X obj 49 360 bng 15 250 50 0 empty empty empty 17 7 0 10 -262144 -1
-1;
#X obj 89 331 sel 0;
#X obj 89 287 route mkdir;
#X obj 89 355 t b b;
#X obj 89 83 t b a;
#X obj 89 426 list;
#X obj 211 280 t s s b;
#X obj 230 370 pack s f;
#X obj 250 346 - 1;
#X floatatom 304 354 5 0 0 0 - - -;
#X obj 89 53 sel symbol;
#X obj 159 31 loadbang;
#X obj 159 52 symbol;
#X obj 89 31 symbol;
#X msg 251 302 add / tune \, getnum /;
#X obj 250 325 pofxml tunes;
#X msg 230 392 setattr / tune[\$2] file \$1;
#X obj 211 452 s tune;
#X obj 89 452 s tuneSetName;
#X msg 89 232 mkdir \$2/tune/\$1;
#X obj 89 8 r tuneCreate;
#X obj 230 416 pofxml tunes;
#X connect 0 0 3 0;
#X connect 1 0 0 0;
#X connect 2 0 12 0;
#X connect 3 0 6 0;
#X connect 4 0 29 0;
#X connect 5 0 4 1;
#X connect 6 0 4 0;
#X connect 6 1 7 1;
#X connect 7 0 16 0;
#X connect 8 0 11 0;
#X connect 11 0 10 0;
#X connect 11 0 13 0;
#X connect 12 0 8 0;
#X connect 13 0 15 0;
#X connect 13 1 7 0;
#X connect 14 0 1 0;
#X connect 14 1 15 1;
#X connect 15 0 28 0;
#X connect 16 0 27 0;
#X connect 16 1 17 0;
#X connect 16 2 24 0;
#X connect 17 0 26 0;
#X connect 18 0 17 1;
#X connect 20 1 14 0;
#X connect 21 0 22 0;
#X connect 22 0 20 1;
#X connect 23 0 20 0;
#X connect 24 0 25 0;
#X connect 25 0 18 0;
#X connect 25 0 19 0;
#X connect 26 0 31 0;
#X connect 29 0 2 0;
#X connect 30 0 23 0;
#X restore 28 150 pd create;
#X obj 30 76 symbol;
#X obj 34 24 bng 15 250 50 0 empty empty empty 17 7 0 10 -262144 -1
-1;
#X obj 32 56 bng 15 250 50 0 empty empty empty 17 7 0 10 -262144 -1
-1;
#X obj 63 18 r mode;
#X obj 30 96 s mode;
#N canvas 534 241 666 631 setName 0;
#X obj 120 49 r datadir;
#X obj 75 71 pack s s;
#X symbolatom 263 85 0 0 0 0 - - -;
#X obj 75 128 symbol;
#X obj 50 101 bng 15 250 50 0 empty empty empty 17 7 0 10 -262144 -1
-1;
#X msg 414 191 nono;
#X msg 24 400 print;
#X msg 451 190 doudou;
#X obj 405 556 print;
#X symbolatom 276 191 20 0 0 0 - - -;
#X msg 348 507 clear \, load \$2 \, remove /name \, add / name \$1
\, save \$2;
#X obj 106 424 route error_loading;
#X msg 106 444 clear;
#X obj 100 256 symbol;
#X obj 66 337 symbol;
#X msg 332 376 add / name \$1 \, save \$2;
#X obj 130 341 list prepend add / name;
#X obj 130 361 list trim;
#X msg 66 360 save \$1;
#X obj 241 398 print;
#X msg 342 275 fred énervé;
#X obj 49 235 t a b a b;
#X obj 76 513 list prepend;
#X obj 145 469 r mode;
#X obj 76 534 list trim;
#X obj 49 573 b;
#X obj 49 490 t b a;
#X obj 25 574 bng 15 250 50 0 empty empty empty 17 7 0 10 -262144 -1
-1;
#X msg 146 258 clear \, load \$1 \, remove /name;
#X msg 100 280 clear;
#X obj 75 27 r tune;
#X msg 75 100 symbol \$2/domoseq/\$1/props.xml;
#X obj 75 154 s tunePropsFilename;
#X obj 133 233 r tunePropsFilename;
#X obj 49 201 r tuneSetName;
#X obj 409 220 s tuneSetName;
#X obj 99 315 r tunePropsFilename;
#X obj 76 398 pofxml tuneProps;
#X msg 145 490 setattr / tune[@file=\$1] name;
#X obj 76 557 pofxml tunes;
#X obj 52 598 s tunesChanged;
#X obj 344 534 s tunesUpdate;
#X msg 188 555 setattr / tune[\$2] name \$1;
#X obj 263 65 r tunePropsFilename;
#X connect 0 0 1 1;
#X connect 1 0 31 0;
#X connect 3 0 32 0;
#X connect 4 0 3 0;
#X connect 5 0 35 0;
#X connect 6 0 37 0;
#X connect 7 0 35 0;
#X connect 9 0 35 0;
#X connect 11 0 12 0;
#X connect 12 0 37 0;
#X connect 13 0 29 0;
#X connect 14 0 18 0;
#X connect 16 0 17 0;
#X connect 17 0 37 0;
#X connect 18 0 37 0;
#X connect 20 0 35 0;
#X connect 21 0 26 0;
#X connect 21 1 14 0;
#X connect 21 2 16 0;
#X connect 21 3 13 0;
#X connect 22 0 24 0;
#X connect 23 0 38 0;
#X connect 24 0 39 0;
#X connect 25 0 40 0;
#X connect 26 0 25 0;
#X connect 26 1 22 0;
#X connect 27 0 40 0;
#X connect 29 0 37 0;
#X connect 30 0 1 0;
#X connect 31 0 3 0;
#X connect 33 0 13 1;
#X connect 34 0 21 0;
#X connect 36 0 14 1;
#X connect 37 0 11 0;
#X connect 38 0 22 1;
#X connect 43 0 2 0;
#X restore 28 205 pd setName;
#X msg 157 214 doudou;
#X msg 93 96 print;
#X msg 207 213 coco;
#X msg 243 213 lili;
#N canvas 520 199 450 349 mode-update-paroles 0;
#X obj 158 112 t f b;
#X obj 158 135 until;
#X obj 158 156 i;
#X msg 198 114 0;
#X obj 185 156 + 1;
#X obj 158 88 text size paroles;
#X floatatom 113 116 5 0 0 0 - - -;
#X obj 158 66 t b s;
#X obj 158 181 text get paroles;
#X obj 158 205 list split 1;
#X obj 158 228 pack s s;
#X msg 103 153 0;
#X obj 158 47 r tune-update-paroles;
#X obj 158 251 s tune-update-parole;
#X connect 0 0 1 0;
#X connect 0 1 3 0;
#X connect 1 0 2 0;
#X connect 2 0 4 0;
#X connect 2 0 8 0;
#X connect 3 0 2 1;
#X connect 4 0 2 1;
#X connect 5 0 6 0;
#X connect 5 0 0 0;
#X connect 7 0 5 0;
#X connect 7 1 10 1;
#X connect 8 0 9 0;
#X connect 9 0 10 0;
#X connect 10 0 13 0;
#X connect 11 0 8 0;
#X connect 12 0 7 0;
#X restore 312 184 pd mode-update-paroles;
#N canvas 29 123 485 678 mode-update-parole 1;
#X obj 175 336 pofutil;
#X obj 158 106 list prepend;
#X obj 227 85 r datadir;
#X obj 175 196 t f b;
#X obj 175 218 until;
#X obj 175 241 i;
#X obj 202 242 + 1;
#X msg 215 219 0;
#X obj 175 291 pack f s;
#X msg 175 173 10;
#X msg 175 312 exists \$2\$1.wav;
#X obj 175 265 t f f;
#X obj 158 149 t b b b s;
#X obj 175 425 <<;
#X obj 175 450 +;
#X obj 203 450 f;
#X msg 291 311 0;
#X obj 175 358 route exists;
#X obj 175 380 route file;
#X msg 175 402 1;
#X obj 158 478 f;
#X obj 158 80 t a a;
#X obj 158 500 list prepend;
#X obj 131 57 t b a;
#X text 266 32 parole mode;
#X obj 131 31 r tune-update-parole;
#X msg 158 128 symbol \$1/tune/\$3/\$2;
#X msg 158 524 setattr / tune[@file=\$2] \$1 \$3;
#X obj 158 547 pofxml tunes;
#X obj 131 597 s tunesChanged;
#X connect 0 0 17 0;
#X connect 1 0 26 0;
#X connect 2 0 1 1;
#X connect 3 0 4 0;
#X connect 3 1 7 0;
#X connect 4 0 5 0;
#X connect 5 0 6 0;
#X connect 5 0 11 0;
#X connect 6 0 5 1;
#X connect 7 0 5 1;
#X connect 8 0 10 0;
#X connect 9 0 3 0;
#X connect 10 0 0 0;
#X connect 11 0 8 0;
#X connect 11 1 13 1;
#X connect 12 0 20 0;
#X connect 12 1 9 0;
#X connect 12 2 16 0;
#X connect 12 3 8 1;
#X connect 13 0 14 0;
#X connect 14 0 15 0;
#X connect 15 0 14 1;
#X connect 15 0 20 1;
#X connect 16 0 15 0;
#X connect 17 0 18 0;
#X connect 18 0 19 0;
#X connect 19 0 13 0;
#X connect 20 0 22 0;
#X connect 21 0 1 0;
#X connect 21 1 22 1;
#X connect 22 0 27 0;
#X connect 23 0 29 0;
#X connect 23 1 21 0;
#X connect 25 0 23 0;
#X connect 26 0 12 0;
#X connect 27 0 28 0;
#X restore 312 215 pd mode-update-parole;
#N canvas 750 434 450 300 modes-update-paroles 0;
#X msg 139 81 getnum /;
#X floatatom 89 124 5 0 0 0 - - -;
#X obj 139 126 t f b;
#X obj 139 148 until;
#X obj 139 171 i;
#X obj 166 172 + 1;
#X msg 179 149 0;
#X obj 238 138 hradio 15 1 0 8 empty empty empty 0 -8 0 10 -262144
-1 -1 0;
#X msg 139 239 symbol \$1;
#X obj 305 252 print;
#X msg 105 177 11;
#X obj 139 57 t b b;
#X obj 139 35 bng 15 250 50 0 empty empty empty 17 7 0 10 -262144 -1
-1;
#X obj 139 12 inlet;
#X msg 139 193 get tune[\$1][@file];
#X obj 139 216 pofxml tunes;
#X obj 139 264 s tune-update-paroles;
#X obj 296 228 pofxml tunes;
#X msg 296 205 get tune[\$1][@file];
#X msg 233 78 save tunes.xml;
#X obj 188 31 r tunes-update-paroles;
#X obj 139 104 pofxml tunes;
#X connect 0 0 21 0;
#X connect 2 0 3 0;
#X connect 2 1 6 0;
#X connect 3 0 4 0;
#X connect 4 0 5 0;
#X connect 4 0 14 0;
#X connect 5 0 4 1;
#X connect 6 0 4 1;
#X connect 7 0 14 0;
#X connect 8 0 16 0;
#X connect 10 0 14 0;
#X connect 11 0 0 0;
#X connect 12 0 11 0;
#X connect 13 0 12 0;
#X connect 14 0 15 0;
#X connect 15 0 8 0;
#X connect 18 0 17 0;
#X connect 21 0 1 0;
#X connect 21 0 2 0;
#X restore 312 157 pd modes-update-paroles;
#N canvas 477 233 588 666 modes-update-all 0;
#X obj 89 175 pofutil;
#X obj 50 35 bng 15 250 50 0 empty empty empty 17 7 0 10 -4034 -1 -1
;
#X obj 222 9 r modesUpdate;
#X obj 122 108 r datadir;
#X obj 89 129 symbol;
#X obj 89 77 t b b;
#X msg 191 100 clear, f 6;
#X obj 123 240 list split 1;
#X obj 157 263 t a;
#X msg 193 68 print;
#X obj 89 217 list split 1;
#X obj 89 196 route listdir;
#X obj 185 390 r datadir;
#X obj 140 412 pack s s;
#X obj 140 486 pofxml \$0-tmp;
#X obj 123 567 symbol;
#X obj 123 373 t b s b s;
#X msg 207 512 symbol ?;
#X obj 140 528 symbol;
#X obj 197 316 i;
#X obj 227 316 + 1;
#X msg 225 277 0;
#X obj 123 590 pack s f;
#X obj 123 288 t s s b;
#X obj 142 343 pack s f;
#X msg 41 270 getnum /;
#X msg 140 460 clear \, load \$1 \, gets /name;
#X obj 140 508 route gets;
#X obj 50 56 t b b b;
#X obj 16 364 outlet;
#X obj 50 10 inlet;
#X obj 85 32 r tunes-update-all;
#X msg 209 34 save /tmp/tunes.xml;
#X msg 89 155 listdir \$1/tune/;
#X obj 191 128 pofxml tunes;
#X obj 41 317 s tunesNumber;
#X obj 41 293 pofxml tunes;
#X msg 343 443 add / tune \, setattr / mode[\$2] file \$1;
#X obj 343 467 pofxml tunes;
#X msg 140 434 symbol \$2/tune/\$1/props.xml;
#X msg 123 613 setattr / tune[\$2] name \$1;
#X obj 123 636 pofxml tunes;
#X connect 0 0 11 0;
#X connect 1 0 28 0;
#X connect 3 0 4 1;
#X connect 4 0 33 0;
#X connect 5 0 4 0;
#X connect 5 1 6 0;
#X connect 5 1 21 0;
#X connect 6 0 34 0;
#X connect 7 0 23 0;
#X connect 7 1 8 0;
#X connect 8 0 7 0;
#X connect 9 0 34 0;
#X connect 10 1 7 0;
#X connect 11 0 10 0;
#X connect 12 0 13 1;
#X connect 13 0 39 0;
#X connect 14 0 27 0;
#X connect 15 0 22 0;
#X connect 16 0 15 0;
#X connect 16 1 13 0;
#X connect 16 2 17 0;
#X connect 17 0 15 1;
#X connect 18 0 15 1;
#X connect 19 0 20 0;
#X connect 19 0 22 1;
#X connect 19 0 24 1;
#X connect 20 0 19 1;
#X connect 21 0 19 1;
#X connect 22 0 40 0;
#X connect 23 0 16 0;
#X connect 23 1 24 0;
#X connect 23 2 19 0;
#X connect 24 0 37 0;
#X connect 25 0 36 0;
#X connect 26 0 14 0;
#X connect 27 0 18 0;
#X connect 28 0 29 0;
#X connect 28 1 25 0;
#X connect 28 2 5 0;
#X connect 30 0 1 0;
#X connect 31 0 1 0;
#X connect 32 0 34 0;
#X connect 33 0 0 0;
#X connect 36 0 35 0;
#X connect 37 0 38 0;
#X connect 39 0 26 0;
#X connect 40 0 41 0;
#X restore 312 133 pd modes-update-all;
#X obj 312 111 bng 15 250 50 0 empty empty empty 17 7 0 10 -258113
-1 -1;
#X msg 117 214 Test;
#X obj 117 297 tgl 15 0 empty empty empty 17 7 0 10 -262144 -1 -1 1
1;
#X obj 117 275 loadbang;
#X obj 117 317 switch~;
#X text 271 33 wav : presentations auteur;
#X obj 141 85 bng 15 250 50 0 empty empty empty 17 7 0 10 -262144 -1
-1;
#X obj 93 119 pofxml tunes;
#X obj 117 243 s tuneSetName;
#X obj 387 94 settings/autosave_xml tune;
#X connect 0 0 2 1;
#X connect 2 0 6 0;
#X connect 3 0 0 0;
#X connect 4 0 2 0;
#X connect 5 0 0 0;
#X connect 8 0 24 0;
#X connect 9 0 23 0;
#X connect 10 0 24 0;
#X connect 11 0 24 0;
#X connect 15 0 14 0;
#X connect 16 0 15 0;
#X connect 17 0 24 0;
#X connect 18 0 20 0;
#X connect 19 0 18 0;
