#N canvas 36 620 455 292 10;
#X symbolatom 255 73 0 0 0 0 - - -;
#X obj 222 104 symbol;
#X obj 226 52 bng 15 250 50 0 empty empty empty 17 7 0 10 -262144 -1
-1;
#X obj 224 84 bng 15 250 50 0 empty empty empty 17 7 0 10 -262144 -1
-1;
#X msg 49 27 print;
#X obj 52 130 bng 15 250 50 0 empty empty empty 17 7 0 10 -258113 -1
-1;
#X msg 177 70 Test;
#X obj 222 124 s GAMME;
#X obj 255 46 r GAMME;
#X obj 54 208 settings/autosave_xml GAMME;
#X obj 52 172 s GAMMEChanged;
#N canvas 612 151 588 666 GAMMEs-update-all 0;
#X obj 89 175 pofutil;
#X obj 50 35 bng 15 250 50 0 empty empty empty 17 7 0 10 -4034 -1 -1
;
#X obj 122 108 r datadir;
#X obj 89 129 symbol;
#X obj 89 77 t b b;
#X msg 191 100 clear, f 6;
#X obj 123 270 list split 1;
#X obj 157 293 t a;
#X msg 193 68 print;
#X obj 89 217 list split 1;
#X obj 89 196 route listdir;
#X obj 197 348 i;
#X obj 227 348 + 1;
#X msg 212 323 0;
#X obj 123 320 t s s b;
#X obj 142 375 pack s f;
#X msg 37 263 getnum /;
#X obj 50 56 t b b b;
#X obj 16 364 outlet;
#X obj 50 10 inlet;
#X msg 89 155 listdir \$1/midi/;
#N canvas 5 75 450 300 list-reverse 0;
#X obj 166 45 inlet;
#X obj 166 227 outlet;
#X obj 185 120 list split 1;
#X obj 219 143 t a;
#X obj 185 180 list prepend;
#X obj 267 180 t a;
#X msg 227 87 list;
#X obj 166 66 t b a b;
#X obj 166 205 list;
#X connect 0 0 7 0;
#X connect 2 0 4 0;
#X connect 2 1 3 0;
#X connect 3 0 2 0;
#X connect 4 0 5 0;
#X connect 4 0 8 1;
#X connect 5 0 4 1;
#X connect 6 0 5 0;
#X connect 7 0 8 0;
#X connect 7 1 2 0;
#X connect 7 2 6 0;
#X connect 8 0 1 0;
#X restore 123 241 pd list-reverse;
#X obj 142 424 pofxml GAMMEs;
#X msg 142 400 add / v \, setattr / GAMME[\$2] file \$1;
#X obj 37 286 pofxml GAMMEs;
#X obj 191 127 pofxml GAMMEs;
#X msg 249 59 save /tmp/GAMMEs.xml;
#X obj 92 10 r GAMME-update-all;
#X obj 37 310 s GAMMENumber;
#X connect 0 0 10 0;
#X connect 1 0 17 0;
#X connect 2 0 3 1;
#X connect 3 0 20 0;
#X connect 4 0 3 0;
#X connect 4 1 5 0;
#X connect 4 1 13 0;
#X connect 5 0 25 0;
#X connect 6 0 14 0;
#X connect 6 1 7 0;
#X connect 7 0 6 0;
#X connect 8 0 25 0;
#X connect 9 1 21 0;
#X connect 10 0 9 0;
#X connect 11 0 12 0;
#X connect 11 0 15 1;
#X connect 12 0 11 1;
#X connect 13 0 11 1;
#X connect 14 1 15 0;
#X connect 14 2 11 0;
#X connect 15 0 23 0;
#X connect 16 0 24 0;
#X connect 17 0 18 0;
#X connect 17 1 16 0;
#X connect 17 2 4 0;
#X connect 19 0 1 0;
#X connect 20 0 0 0;
#X connect 21 0 6 0;
#X connect 23 0 22 0;
#X connect 24 0 28 0;
#X connect 26 0 25 0;
#X connect 27 0 1 0;
#X restore 52 152 pd GAMMEs-update-all;
#X obj 49 50 pofxml GAMMEs;
#X connect 0 0 1 1;
#X connect 1 0 7 0;
#X connect 2 0 0 0;
#X connect 3 0 1 0;
#X connect 4 0 12 0;
#X connect 5 0 11 0;
#X connect 6 0 1 0;
#X connect 8 0 0 0;
#X connect 11 0 10 0;
