#N canvas 750 615 450 300 10;
#X obj 31 18 inlet;
#X obj 31 39 t a a;
#X obj 77 116 loadbang;
#X obj 154 113 pofcolor 1 0.5 0 1;
#X floatatom 204 47 5 0 0 0 - - -;
#X floatatom 287 149 5 0 0 0 - - -;
#X msg 267 38 0;
#X obj 265 14 loadbang;
#X obj 31 82 s \$1-stepSelHead;
#X obj 75 14 nbx 5 14 -1e+37 1e+37 0 1 empty empty empty 0 -8 0 10
-262144 -1 -1 -111 256;
#X obj 138 15 nbx 5 14 -1e+37 1e+37 0 1 empty empty empty 0 -8 0 10
-262144 -1 -1 52 256;
#X obj 154 135 poftexts asimov 25 -1;
#X floatatom 242 60 5 0 0 0 - - -;
#X obj 31 59 poftranslate;
#X obj 154 92 poftranslate -42 10;
#N canvas 362 170 431 328 mainNbBeat 1;
#X msg 11 80 5;
#X obj 97 77 - 1;
#X obj 303 53 + 1;
#X obj 96 111 t b f b;
#X obj 277 223 spigot;
#X obj 130 156 tgl 15 0 empty empty empty 17 7 0 10 -262144 -1 -1 1
1;
#X obj 250 245 bng 15 250 50 0 empty empty empty 17 7 0 10 -262144
-1 -1;
#X obj 281 258 s \$1-PofSteps-s;
#X obj 97 42 r \$1-PofSteps-r;
#X obj 301 29 r nbBea-\$1;
#X obj 115 262 s nbBea-\$1;
#X obj 324 88 t b f b;
#X obj 343 153 tgl 15 0 empty empty empty 17 7 0 10 -262144 -1 -1 1
1;
#X obj 104 202 spigot;
#X obj 139 236 bng 15 250 50 0 empty empty empty 17 7 0 10 -262144
-1 -1;
#X msg 134 134 0, f 1;
#X msg 96 132 1, f 1;
#X msg 362 111 0, f 1;
#X msg 324 109 1, f 1;
#X obj 24 208 loadbang;
#X msg 29 246 15;
#X connect 1 0 3 0;
#X connect 2 0 11 0;
#X connect 3 0 16 0;
#X connect 3 1 13 0;
#X connect 3 2 15 0;
#X connect 4 0 6 0;
#X connect 4 0 7 0;
#X connect 5 0 4 1;
#X connect 8 0 1 0;
#X connect 9 0 2 0;
#X connect 11 0 18 0;
#X connect 11 1 4 0;
#X connect 11 2 17 0;
#X connect 12 0 13 1;
#X connect 13 0 10 0;
#X connect 13 0 14 0;
#X connect 15 0 5 0;
#X connect 16 0 5 0;
#X connect 17 0 12 0;
#X connect 18 0 12 0;
#X connect 19 0 20 0;
#X connect 20 0 10 0;
#X restore 334 84 pd mainNbBeat;
#X msg 66 143 text nb.beat:;
#X obj 114 205 clone nbBeaStepSelItem 32 8 \$1;
#X connect 0 0 1 0;
#X connect 1 0 13 0;
#X connect 1 1 14 0;
#X connect 2 0 16 0;
#X connect 3 0 11 0;
#X connect 4 0 14 1;
#X connect 7 0 6 0;
#X connect 9 0 13 1;
#X connect 10 0 13 2;
#X connect 12 0 14 2;
#X connect 13 0 8 0;
#X connect 14 0 3 0;
#X connect 16 0 11 0;
