#N canvas 750 615 450 931 10;
#X obj 31 18 inlet;
#X obj 31 39 t a a;
#X obj 77 116 loadbang;
#X obj 154 113 pofcolor 1 0.5 0 1;
#X floatatom 204 47 5 0 0 0 - - -;
#X floatatom 351 143 5 0 0 0 - - -;
#X msg 267 38 0;
#X obj 265 14 loadbang;
#X obj 31 82 s \$1-stepSelHead;
#X obj 75 14 nbx 5 14 -1e+37 1e+37 0 1 empty empty empty 0 -8 0 10
-262144 -1 -1 -111 256;
#X obj 138 15 nbx 5 14 -1e+37 1e+37 0 1 empty empty empty 0 -8 0 10
-262144 -1 -1 37 256;
#X obj 154 135 poftexts asimov 25 -1;
#X floatatom 242 60 5 0 0 0 - - -;
#N canvas 239 789 431 328 mainNbBeat 0;
#X msg 11 80 5;
#X obj 97 77 - 1;
#X obj 303 53 + 1;
#X obj 96 111 t b f b;
#X obj 277 223 spigot;
#X obj 130 156 tgl 15 0 empty empty empty 17 7 0 10 -262144 -1 -1 1
1;
#X obj 250 245 bng 15 250 50 0 empty empty empty 17 7 0 10 -262144
-1 -1;
#X obj 301 29 r nbBea-\$1;
#X obj 115 262 s nbBea-\$1;
#X obj 324 88 t b f b;
#X obj 343 153 tgl 15 0 empty empty empty 17 7 0 10 -262144 -1 -1 1
1;
#X obj 104 202 spigot;
#X obj 139 236 bng 15 250 50 0 empty empty empty 17 7 0 10 -262144
-1 -1;
#X msg 134 134 0, f 1;
#X msg 96 132 1, f 1;
#X msg 362 111 0, f 1;
#X msg 324 109 1, f 1;
#X obj 24 208 loadbang;
#X msg 29 246 15;
#X floatatom 230 283 5 0 0 0 - - -;
#X obj 281 258 s \$1-PofDenumerator-s;
#X obj 97 42 r \$1-PofDenumerator-r;
#X connect 1 0 3 0;
#X connect 2 0 9 0;
#X connect 3 0 14 0;
#X connect 3 1 11 0;
#X connect 3 2 13 0;
#X connect 4 0 6 0;
#X connect 4 0 19 0;
#X connect 4 0 20 0;
#X connect 5 0 4 1;
#X connect 7 0 2 0;
#X connect 9 0 16 0;
#X connect 9 1 4 0;
#X connect 9 2 15 0;
#X connect 10 0 11 1;
#X connect 11 0 12 0;
#X connect 11 0 8 0;
#X connect 13 0 5 0;
#X connect 14 0 5 0;
#X connect 15 0 10 0;
#X connect 16 0 10 0;
#X connect 17 0 18 0;
#X connect 18 0 8 0;
#X connect 21 0 1 0;
#X restore 334 84 pd mainNbBeat;
#X obj 20 204 clone nbBeaStepSelItem 32 8 \$1;
#X obj 169 262 loadbang;
#X obj 246 259 pofcolor 1 0.5 0 1;
#X floatatom 296 193 5 0 0 0 - - -;
#X floatatom 379 295 5 0 0 0 - - -;
#X obj 246 281 poftexts asimov 25 -1;
#X floatatom 334 206 5 0 0 0 - - -;
#X msg 56 160 text Denumerator (1=very slow 32=very fast);
#X msg 148 306 text multiple of 4 or 3 recommended:;
#X obj 246 238 poftranslate 0 24;
#X obj 193 360 nbx 5 14 -1e+37 1e+37 0 1 empty empty empty 0 -8 0 10
-262144 -1 -1 293 256;
#X obj 132 384 poftranslate;
#X obj 186 340 nbx 5 14 -1e+37 1e+37 0 1 empty empty empty 0 -8 0 10
-262144 -1 -1 -1 256;
#X obj 166 464 nbx 5 14 -1e+37 1e+37 0 1 empty empty empty 0 -8 0 10
-262144 -1 -1 53 256;
#X obj 105 488 poftranslate;
#X obj 159 444 nbx 5 14 -1e+37 1e+37 0 1 empty empty empty 0 -8 0 10
-262144 -1 -1 30 256;
#N canvas 88 756 450 499 bpm_on 0;
#X obj 96 21 inlet;
#X obj 96 42 t a a a;
#X obj 135 67 pofcolor 1 1 1 1;
#X msg 253 53 draw 1;
#X obj 253 32 loadbang;
#X obj 115 280 pofcolor 0.2 0.2 0.2 1;
#X obj 96 370 pofcolor 0.8 0.8 0.8 1;
#X obj 19 305 loadbang;
#X obj 128 350 unpack f f f;
#X obj 147 259 unpack f f f;
#X msg 309 259 0.2 0.2 0.2;
#X msg 309 300 0.8 0.8 0.8;
#X msg 252 300 0 0 0 1;
#X obj 252 238 sel 1 0;
#X obj 228 107 route down;
#X obj 228 128 b;
#X obj 366 235 loadbang;
#X obj 260 147 == 0;
#X obj 96 391 poftexts asimov 30;
#X msg 252 258 1 1 0 0;
#X msg 19 326 text ON \, width 130 \, center 1;
#X obj 135 88 poftouch 50 50;
#X obj 115 300 pofrect 45 45;
#X floatatom 169 142 5 0 0 0 - - -;
#X floatatom 194 209 5 0 0 0 - - -;
#X obj 245 188 s PofBpmPart_on-s;
#X obj 245 167 f 1;
#X obj 260 126 r PofBpmPart_on-r;
#X obj 253 217 r PofBpmPart_on-r;
#X connect 0 0 1 0;
#X connect 1 0 6 0;
#X connect 1 1 5 0;
#X connect 1 2 2 0;
#X connect 2 0 21 0;
#X connect 3 0 21 0;
#X connect 4 0 3 0;
#X connect 5 0 22 0;
#X connect 6 0 18 0;
#X connect 7 0 20 0;
#X connect 8 0 6 1;
#X connect 8 1 6 2;
#X connect 8 2 6 3;
#X connect 9 0 5 1;
#X connect 9 1 5 2;
#X connect 9 2 5 3;
#X connect 10 0 9 0;
#X connect 10 0 11 0;
#X connect 11 0 8 0;
#X connect 12 0 8 0;
#X connect 13 0 19 0;
#X connect 13 1 10 0;
#X connect 14 0 15 0;
#X connect 15 0 26 0;
#X connect 16 0 10 0;
#X connect 17 0 26 1;
#X connect 19 0 9 0;
#X connect 19 0 12 0;
#X connect 20 0 18 0;
#X connect 21 1 14 0;
#X connect 26 0 23 0;
#X connect 26 0 25 0;
#X connect 27 0 17 0;
#X connect 28 0 13 0;
#X connect 28 0 24 0;
#X restore 31 524 pd bpm_on;
#X obj 31 60 poftranslate;
#X obj 158 530 nbx 5 14 -1e+37 1e+37 0 1 empty empty empty 0 -8 0 10
-262144 -1 -1 0 256;
#X obj 97 554 poftranslate;
#X obj 151 510 nbx 5 14 -1e+37 1e+37 0 1 empty empty empty 0 -8 0 10
-262144 -1 -1 28 256;
#X obj 112 599 loadbang;
#X obj 184 577 pofcolor 1 0.5 0 1;
#X floatatom 265 700 5 0 0 0 - - -;
#X obj 184 600 poftexts asimov 25 -1;
#X obj 146 672 nbx 5 14 -1e+37 1e+37 0 1 empty empty empty 0 -8 0 10
-262144 -1 -1 35 256;
#X obj 139 652 nbx 5 14 -1e+37 1e+37 0 1 empty empty empty 0 -8 0 10
-262144 -1 -1 330 256;
#N canvas 88 756 450 499 save-tune 0;
#X obj 96 21 inlet;
#X obj 96 42 t a a a;
#X obj 135 67 pofcolor 1 1 1 1;
#X msg 253 53 draw 1;
#X obj 253 32 loadbang;
#X obj 115 280 pofcolor 0.2 0.2 0.2 1;
#X obj 96 370 pofcolor 0.8 0.8 0.8 1;
#X obj 19 305 loadbang;
#X obj 128 350 unpack f f f;
#X obj 147 259 unpack f f f;
#X msg 309 259 0.2 0.2 0.2;
#X msg 309 300 0.8 0.8 0.8;
#X msg 252 300 0 0 0 1;
#X obj 228 107 route down;
#X obj 228 128 b;
#X obj 377 167 loadbang;
#X floatatom 169 142 5 0 0 0 - - -;
#X floatatom 136 191 5 0 0 0 - - -;
#X obj 135 88 poftouch 250 50;
#X obj 115 300 pofrect 245 45;
#X obj 96 391 poftexts asimov 40;
#X msg 19 326 text SAVE TUNE \, width 200 \, center 1;
#X obj 169 126 bng 15 250 50 0 empty empty empty 17 7 0 10 -262144
-1 -1;
#X msg 252 258 1 0 0 0;
#X obj 286 136 t b b;
#X obj 373 214 del 100;
#X obj 322 163 del 150;
#X obj 182 177 s saveTune-rcv;
#X connect 0 0 1 0;
#X connect 1 0 6 0;
#X connect 1 1 5 0;
#X connect 1 2 2 0;
#X connect 2 0 18 0;
#X connect 3 0 18 0;
#X connect 4 0 3 0;
#X connect 5 0 19 0;
#X connect 6 0 20 0;
#X connect 7 0 21 0;
#X connect 8 0 6 1;
#X connect 8 1 6 2;
#X connect 8 2 6 3;
#X connect 9 0 5 1;
#X connect 9 1 5 2;
#X connect 9 2 5 3;
#X connect 10 0 9 0;
#X connect 10 0 11 0;
#X connect 11 0 8 0;
#X connect 12 0 8 0;
#X connect 13 0 14 0;
#X connect 14 0 22 0;
#X connect 14 0 24 0;
#X connect 14 0 27 0;
#X connect 15 0 10 0;
#X connect 18 1 13 0;
#X connect 21 0 20 0;
#X connect 23 0 9 0;
#X connect 23 0 12 0;
#X connect 24 1 23 0;
#X connect 24 1 26 0;
#X connect 26 0 10 0;
#X restore 110 729 pd save-tune;
#X obj 118 777 nbx 5 14 -1e+37 1e+37 0 1 empty empty empty 0 -8 0 10
-262144 -1 -1 -39 256;
#X obj 57 801 poftranslate;
#X obj 111 757 nbx 5 14 -1e+37 1e+37 0 1 empty empty empty 0 -8 0 10
-262144 -1 -1 -124 256;
#X obj 225 745 loadbang;
#X obj 144 824 pofcolor 1 0.5 0 1;
#X obj 144 847 poftexts asimov 25 -1;
#X obj 85 696 poftranslate;
#X msg 247 777 text \$1;
#X obj 313 752 symbol;
#X obj 307 719 r PofTuneName;
#N canvas 0 126 380 318 LockRecallBPM 0;
#X obj 55 33 inlet;
#X obj 155 110 nbx 5 14 -1e+37 1e+37 0 1 empty empty empty 0 -8 0 10
-262144 -1 -1 0 256;
#X obj 94 134 poftranslate;
#X obj 148 90 nbx 5 14 -1e+37 1e+37 0 1 empty empty empty 0 -8 0 10
-262144 -1 -1 28 256;
#X obj 109 179 loadbang;
#X obj 181 157 pofcolor 1 0.5 0 1;
#X obj 181 180 poftexts asimov 25 -1;
#N canvas 88 756 450 499 Lock-bpm_on 0;
#X obj 96 21 inlet;
#X obj 96 42 t a a a;
#X obj 135 67 pofcolor 1 1 1 1;
#X msg 253 53 draw 1;
#X obj 253 32 loadbang;
#X obj 115 280 pofcolor 0.2 0.2 0.2 1;
#X obj 96 370 pofcolor 0.8 0.8 0.8 1;
#X obj 19 305 loadbang;
#X obj 128 350 unpack f f f;
#X obj 147 259 unpack f f f;
#X msg 309 259 0.2 0.2 0.2;
#X msg 309 300 0.8 0.8 0.8;
#X msg 252 300 0 0 0 1;
#X obj 252 238 sel 1 0;
#X obj 228 107 route down;
#X obj 228 128 b;
#X obj 366 235 loadbang;
#X obj 260 147 == 0;
#X obj 96 391 poftexts asimov 30;
#X msg 19 326 text ON \, width 130 \, center 1;
#X obj 135 88 poftouch 50 50;
#X obj 115 300 pofrect 45 45;
#X floatatom 169 142 5 0 0 0 - - -;
#X floatatom 194 209 5 0 0 0 - - -;
#X obj 245 167 f 1;
#X obj 261 125 r Lock-bpm_on;
#X obj 245 188 s Lock-bpm_on;
#X obj 253 217 r Lock-bpm_on;
#X obj 362 51 loadbang;
#X msg 362 78 0;
#X obj 360 104 s Lock-bpm_on;
#X msg 252 258 0.5 1 0 0;
#X connect 0 0 1 0;
#X connect 1 0 6 0;
#X connect 1 1 5 0;
#X connect 1 2 2 0;
#X connect 2 0 20 0;
#X connect 3 0 20 0;
#X connect 4 0 3 0;
#X connect 5 0 21 0;
#X connect 6 0 18 0;
#X connect 7 0 19 0;
#X connect 8 0 6 1;
#X connect 8 1 6 2;
#X connect 8 2 6 3;
#X connect 9 0 5 1;
#X connect 9 1 5 2;
#X connect 9 2 5 3;
#X connect 10 0 9 0;
#X connect 10 0 11 0;
#X connect 11 0 8 0;
#X connect 12 0 8 0;
#X connect 13 0 31 0;
#X connect 13 1 10 0;
#X connect 14 0 15 0;
#X connect 15 0 24 0;
#X connect 16 0 10 0;
#X connect 17 0 24 1;
#X connect 19 0 18 0;
#X connect 20 1 14 0;
#X connect 24 0 22 0;
#X connect 24 0 26 0;
#X connect 25 0 17 0;
#X connect 27 0 13 0;
#X connect 27 0 23 0;
#X connect 28 0 29 0;
#X connect 29 0 30 0;
#X connect 31 0 9 0;
#X connect 31 0 12 0;
#X restore 28 104 pd Lock-bpm_on;
#X msg 110 201 text : Lock recall bpm;
#X obj 171 16 r Lock-bpm_on;
#X obj 183 49 tgl 15 0 empty empty empty 17 7 0 10 -262144 -1 -1 1
1;
#X connect 0 0 2 0;
#X connect 0 0 7 0;
#X connect 1 0 2 2;
#X connect 2 0 5 0;
#X connect 3 0 2 1;
#X connect 4 0 8 0;
#X connect 5 0 6 0;
#X connect 8 0 6 0;
#X connect 9 0 10 0;
#X restore 314 531 pd LockRecallBPM;
#X obj 375 483 nbx 5 14 -1e+37 1e+37 0 1 empty empty empty 0 -8 0 10
-262144 -1 -1 60 256;
#X obj 314 507 poftranslate;
#X obj 368 463 nbx 5 14 -1e+37 1e+37 0 1 empty empty empty 0 -8 0 10
-262144 -1 -1 0 256;
#X obj 154 92 poftranslate -141 -30;
#X msg 113 621 text : recall bpm (saved);
#N canvas 189 1242 693 554 bpmPart 0;
#X obj 74 33 inlet;
#X obj 97 106 nbx 5 14 -1e+37 1e+37 0 1 empty empty empty 0 -8 0 10
-262144 -1 -1 364 256;
#X obj 156 106 nbx 5 14 -1e+37 1e+37 0 1 empty empty empty 0 -8 0 10
-262144 -1 -1 -9 256;
#X obj 74 126 poftranslate, f 21;
#X obj 74 147 t a a;
#X obj 101 170 pofrect 300 50;
#X obj 74 288 pofcolor 0 0 0 1;
#X obj 74 369 pofrect 290 40;
#X obj 184 313 - 20;
#X obj 184 334 / 220;
#X obj 184 355 * 290;
#X obj 101 191 poftouch 300 50;
#X obj 74 333 poftranslate;
#X obj 184 376 * 0.5;
#X obj 184 397 - 145;
#X obj 116 213 route move down;
#X obj 116 234 unpack f;
#X obj 174 234 unpack f;
#X obj 116 255 -;
#X floatatom 160 259 5 0 0 0 - - -;
#X obj 259 250 +;
#X obj 273 230 f;
#X obj 273 208 b;
#X obj 259 271 i;
#X obj 259 292 clip 20 240;
#X obj 259 161 / 290;
#X obj 259 182 * 220;
#X obj 388 171 nbx 5 14 -1e+37 1e+37 0 1 empty empty empty 0 -8 0 10
-262144 -1 -1 -1 256;
#X obj 447 171 nbx 5 14 -1e+37 1e+37 0 1 empty empty empty 0 -8 0 10
-262144 -1 -1 -10 256;
#X obj 365 191 poftranslate, f 21;
#X obj 516 203 loadbang;
#X floatatom 580 199 5 0 0 0 - - -;
#X msg 516 225 width 300 \, lineheight 0.75;
#X msg 379 232 text bpm's part:\$1;
#X obj 365 256 poftexts vera 30 -1;
#X obj 307 332 s bpmPart-r;
#X obj 297 210 r bpmPart-s;
#X floatatom 321 252 5 0 0 0 - - -;
#X obj 184 292 r bpmPart-s;
#X floatatom 280 386 5 0 0 0 - - -;
#X obj 379 211 r bpmPart-s;
#X connect 0 0 3 0;
#X connect 0 0 29 0;
#X connect 1 0 3 1;
#X connect 2 0 3 2;
#X connect 3 0 4 0;
#X connect 4 0 6 0;
#X connect 4 1 5 0;
#X connect 5 0 11 0;
#X connect 6 0 12 0;
#X connect 8 0 9 0;
#X connect 9 0 10 0;
#X connect 10 0 7 1;
#X connect 10 0 13 0;
#X connect 11 1 15 0;
#X connect 12 0 7 0;
#X connect 13 0 14 0;
#X connect 14 0 12 1;
#X connect 15 0 16 0;
#X connect 15 1 17 0;
#X connect 15 1 22 0;
#X connect 16 0 18 0;
#X connect 17 0 18 1;
#X connect 18 0 19 0;
#X connect 18 0 25 0;
#X connect 20 0 23 0;
#X connect 21 0 20 1;
#X connect 22 0 21 0;
#X connect 23 0 24 0;
#X connect 24 0 35 0;
#X connect 25 0 26 0;
#X connect 26 0 20 0;
#X connect 27 0 29 1;
#X connect 28 0 29 2;
#X connect 29 0 34 0;
#X connect 30 0 32 0;
#X connect 31 0 32 0;
#X connect 32 0 34 0;
#X connect 33 0 34 0;
#X connect 36 0 21 1;
#X connect 36 0 37 0;
#X connect 38 0 8 0;
#X connect 40 0 33 0;
#X restore 157 421 pd bpmPart;
#X connect 0 0 1 0;
#X connect 1 0 31 0;
#X connect 1 1 56 0;
#X connect 2 0 21 0;
#X connect 3 0 11 0;
#X connect 4 0 56 1;
#X connect 7 0 6 0;
#X connect 9 0 31 1;
#X connect 10 0 31 2;
#X connect 12 0 56 2;
#X connect 15 0 22 0;
#X connect 16 0 19 0;
#X connect 17 0 23 1;
#X connect 20 0 23 2;
#X connect 21 0 11 0;
#X connect 22 0 19 0;
#X connect 23 0 16 0;
#X connect 23 0 25 0;
#X connect 24 0 25 2;
#X connect 25 0 58 0;
#X connect 25 0 28 0;
#X connect 26 0 25 1;
#X connect 27 0 28 2;
#X connect 28 0 30 0;
#X connect 28 0 33 0;
#X connect 28 0 54 0;
#X connect 29 0 28 1;
#X connect 31 0 8 0;
#X connect 32 0 33 2;
#X connect 33 0 36 0;
#X connect 33 0 48 0;
#X connect 34 0 33 1;
#X connect 35 0 57 0;
#X connect 36 0 38 0;
#X connect 39 0 48 2;
#X connect 40 0 48 1;
#X connect 42 0 43 2;
#X connect 43 0 46 0;
#X connect 44 0 43 1;
#X connect 46 0 47 0;
#X connect 48 0 41 0;
#X connect 48 0 43 0;
#X connect 49 0 47 0;
#X connect 51 0 50 0;
#X connect 51 0 49 0;
#X connect 53 0 54 2;
#X connect 54 0 52 0;
#X connect 55 0 54 1;
#X connect 56 0 3 0;
#X connect 56 0 23 0;
#X connect 57 0 38 0;
