#N canvas 568 1048 519 522 10;
#X obj 89 172 poftranslate, f 21;
#X obj 89 278 pofcolor 0 1 0 1;
#X obj 210 24 loadbang;
#X obj 210 45 f \$1;
#X obj 89 193 t a a;
#X obj 237 323 pofcolor 0 0 1 1;
#X obj 20 226 loadbang;
#X msg 20 250 width 230 \, cliplines 1 0;
#X obj 245 45 bng 15 250 50 0 empty empty empty 17 7 0 10 -262144 -1
-1;
#X obj 318 388 route down;
#X obj 318 409 b;
#X obj 318 430 f \$1;
#X msg 262 198 text \$1;
#X msg 292 162 12;
#X obj 130 109 t f f;
#X floatatom 291 101 5 0 0 0 - - -;
#X obj 130 132 mod \$2;
#X obj 173 131 div \$2;
#X obj 353 146 == \$1;
#X obj 353 167 sel 0 1;
#X obj 259 300 unpack f f f;
#X obj 245 241 loadbang;
#X obj 237 343 pofrect 60 55;
#X obj 237 366 poftouch 60 55;
#X obj 89 300 poftexts asimov 45;
#X obj 130 153 * 65;
#X obj 173 152 * 60;
#X obj 232 76 + 1;
#X msg 470 55 0;
#X floatatom 445 78 5 0 0 0 - - -;
#X obj 399 28 r nbPart-\$3;
#X obj 318 452 s nbPart-\$3;
#X obj 70 73 r PartStoreSelHead;
#X msg 292 277 0.5 0 0;
#X msg 372 276 1 0 0;
#X obj 395 208 del 100;
#X obj 395 230 del 100;
#N canvas 0 96 450 300 corresLetter 0;
#X obj 61 42 inlet;
#X msg 69 122 a, f 1;
#X obj 69 96 sel 1 2 3 4 5 6 7 8 9 10 11 12, f 52;
#X msg 95 122 b, f 1;
#X msg 121 122 c, f 1;
#X msg 147 122 d, f 1;
#X msg 173 122 e, f 1;
#X msg 199 122 f, f 1;
#X msg 225 122 g, f 1;
#X msg 251 122 h, f 1;
#X msg 277 122 i, f 1;
#X msg 303 122 j, f 1;
#X msg 329 122 k, f 1;
#X msg 355 122 l, f 1;
#X obj 155 258 outlet;
#X obj 155 222 symbol;
#X connect 0 0 2 0;
#X connect 1 0 15 0;
#X connect 2 0 1 0;
#X connect 2 1 3 0;
#X connect 2 2 4 0;
#X connect 2 3 5 0;
#X connect 2 4 6 0;
#X connect 2 5 7 0;
#X connect 2 6 8 0;
#X connect 2 7 9 0;
#X connect 2 8 10 0;
#X connect 2 9 11 0;
#X connect 2 10 12 0;
#X connect 2 11 13 0;
#X connect 3 0 15 0;
#X connect 4 0 15 0;
#X connect 5 0 15 0;
#X connect 6 0 15 0;
#X connect 7 0 15 0;
#X connect 8 0 15 0;
#X connect 9 0 15 0;
#X connect 10 0 15 0;
#X connect 11 0 15 0;
#X connect 12 0 15 0;
#X connect 13 0 15 0;
#X connect 15 0 14 0;
#X restore 238 132 pd corresLetter;
#X connect 0 0 4 0;
#X connect 1 0 24 0;
#X connect 2 0 3 0;
#X connect 3 0 14 0;
#X connect 3 0 27 0;
#X connect 4 0 1 0;
#X connect 4 1 5 0;
#X connect 5 0 22 0;
#X connect 6 0 7 0;
#X connect 7 0 24 0;
#X connect 8 0 3 0;
#X connect 9 0 10 0;
#X connect 10 0 11 0;
#X connect 11 0 31 0;
#X connect 12 0 24 0;
#X connect 13 0 12 0;
#X connect 14 0 16 0;
#X connect 14 1 17 0;
#X connect 15 0 14 0;
#X connect 16 0 25 0;
#X connect 17 0 26 0;
#X connect 18 0 19 0;
#X connect 19 0 33 0;
#X connect 19 1 34 0;
#X connect 19 1 35 0;
#X connect 20 0 5 1;
#X connect 20 1 5 2;
#X connect 20 2 5 3;
#X connect 21 0 33 0;
#X connect 22 0 23 0;
#X connect 23 1 9 0;
#X connect 25 0 0 1;
#X connect 26 0 0 2;
#X connect 27 0 37 0;
#X connect 30 0 18 0;
#X connect 32 0 0 0;
#X connect 33 0 20 0;
#X connect 34 0 20 0;
#X connect 35 0 33 0;
#X connect 35 0 36 0;
#X connect 36 0 34 0;
#X connect 37 0 12 0;
