#N canvas 568 1048 519 501 10;
#X obj 89 172 poftranslate, f 21;
#X obj 89 278 pofcolor 0 1 0 1;
#X obj 210 24 loadbang;
#X obj 210 45 f \$1;
#X obj 89 193 t a a;
#X obj 224 275 pofcolor 0 0 1 1;
#X obj 20 226 loadbang;
#X msg 20 250 width 230 \, cliplines 1 0;
#X obj 245 45 bng 15 250 50 0 empty empty empty 17 7 0 10 -262144 -1
-1;
#X obj 305 340 route down;
#X obj 305 361 b;
#X obj 305 382 f \$1;
#X msg 262 198 text \$1;
#X msg 292 162 12;
#X obj 130 109 t f f;
#X floatatom 291 101 5 0 0 0 - - -;
#X obj 130 132 mod \$2;
#X obj 173 131 div \$2;
#X obj 353 146 == \$1;
#X obj 353 167 sel 0 1;
#X obj 246 252 unpack f f f;
#X obj 385 197 loadbang;
#X obj 224 295 pofrect 60 55;
#X obj 224 318 poftouch 60 55;
#X obj 89 300 poftexts asimov 45;
#X obj 130 153 * 65;
#X obj 173 152 * 60;
#X obj 232 76 + 1;
#X msg 470 55 0;
#X floatatom 445 78 5 0 0 0 - - -;
#X obj 399 28 r nbPart-\$3;
#X obj 305 433 s nbPart-\$3;
#X obj 70 73 r PartStoreSelHead;
#X msg 279 229 0.5 0 0;
#X msg 359 228 1 0 0;
#X connect 0 0 4 0;
#X connect 1 0 24 0;
#X connect 2 0 3 0;
#X connect 3 0 14 0;
#X connect 3 0 27 0;
#X connect 4 0 1 0;
#X connect 4 1 5 0;
#X connect 5 0 22 0;
#X connect 6 0 7 0;
#X connect 7 0 24 0;
#X connect 8 0 3 0;
#X connect 9 0 10 0;
#X connect 10 0 11 0;
#X connect 11 0 31 0;
#X connect 12 0 24 0;
#X connect 13 0 12 0;
#X connect 14 0 16 0;
#X connect 14 1 17 0;
#X connect 15 0 14 0;
#X connect 16 0 25 0;
#X connect 17 0 26 0;
#X connect 18 0 19 0;
#X connect 19 0 33 0;
#X connect 19 1 34 0;
#X connect 20 0 5 1;
#X connect 20 1 5 2;
#X connect 20 2 5 3;
#X connect 21 0 33 0;
#X connect 22 0 23 0;
#X connect 23 1 9 0;
#X connect 25 0 0 1;
#X connect 26 0 0 2;
#X connect 27 0 12 0;
#X connect 30 0 18 0;
#X connect 32 0 0 0;
#X connect 33 0 20 0;
#X connect 34 0 20 0;
