#N canvas 492 883 519 529 10;
#X declare -path ./gammabs;
#X obj 64 16 r \$2;
#X obj 184 77 loadbang;
#X obj 184 98 f \$1;
#X msg 143 121 1 \$1;
#X obj 143 142 <<;
#X obj 128 167 &;
#X obj 128 217 sel 1;
#X obj 128 238 f;
#X obj 128 262 t b f;
#X obj 128 304 line~;
#X obj 128 325 *~;
#X obj 129 350 *~;
#X obj 160 324 phasor~;
#X obj 170 303 mtof;
#X msg 128 283 1 \, 0 500;
#X obj 163 79 bng 15 250 50 0 empty empty empty 17 7 0 10 -262144 -1
-1;
#X obj 128 188 != 0;
#X obj 130 400 throw~ OUT;
#X obj 265 59 declare -path ./gammabs;
#X obj 64 89 transpose 0;
#X obj 124 38 r TransposeAll;
#X obj 64 63 f;
#X obj 102 62 t b f;
#X obj 184 214 + 60;
#X obj 238 219 - 20;
#X obj 238 241 / 2.2;
#X obj 239 264 i;
#X obj 239 291 / 75;
#X obj 238 337 * 0.1;
#X obj 239 315 pow 2;
#X obj 238 194 r VolMetroChord;
#N canvas 0 96 450 330 mull~ 0;
#X obj 22 42 inlet~;
#X obj 35 67 inlet;
#X obj 22 238 outlet~;
#X text 62 42 ~signal_in~;
#X obj 90 112 inlet;
#X text 69 239 ~signal_out~;
#X obj 22 215 *~;
#X obj 35 194 line~;
#X obj 41 146 loadbang;
#X text 72 66 <float> multiplication-coefficient or;
#X text 72 78 <list> multiplication-coefficient + interpol_time [ms]
;
#X text 119 180 1.arg: <float> multiplication-coefficient;
#X text 49 9 signal-multiplication with line~ interpolation;
#X text 125 113 <float> interpolation_time [ms];
#X text 119 191 2.arg: <float> interpolation_time [ms];
#X text 11 9 mull~;
#X text 176 285 IEM KUG;
#X text 160 273 musil;
#X text 190 273 @;
#X text 196 273 iem.at;
#X text 111 262 (c) Thomas Musil 2000 - 2005;
#X text 159 295 Graz \, Austria;
#X obj 35 175 pack 0.1 10;
#X connect 0 0 6 0;
#X connect 1 0 22 0;
#X connect 4 0 22 1;
#X connect 6 0 2 0;
#X connect 7 0 6 1;
#X connect 8 0 22 0;
#X connect 22 0 7 0;
#X restore 131 371 pd mull~ 0.1 10;
#N canvas 1280 1069 450 300 last 1;
#X obj 148 9 inlet;
#X obj 153 194 outlet;
#X obj 155 158 f;
#X floatatom 279 185 5 0 0 0 - - -;
#X obj 312 127 list length;
#X floatatom 356 171 5 0 0 0 - - -;
#X msg 140 86 stop;
#X obj 139 60 t b b f;
#X obj 88 112 del 10;
#X connect 0 0 7 0;
#X connect 2 0 1 0;
#X connect 2 0 3 0;
#X connect 2 0 4 0;
#X connect 4 0 5 0;
#X connect 6 0 8 0;
#X connect 7 0 8 0;
#X connect 7 1 6 0;
#X connect 7 2 2 1;
#X connect 8 0 2 0;
#X restore 53 39 pd last;
#X obj 32 146 print;
#X connect 0 0 32 0;
#X connect 1 0 2 0;
#X connect 2 0 3 0;
#X connect 2 0 23 0;
#X connect 3 0 4 0;
#X connect 4 0 5 1;
#X connect 5 0 16 0;
#X connect 6 0 7 0;
#X connect 7 0 8 0;
#X connect 8 0 14 0;
#X connect 8 1 13 0;
#X connect 9 0 10 0;
#X connect 9 0 10 1;
#X connect 10 0 11 0;
#X connect 11 0 31 0;
#X connect 12 0 11 1;
#X connect 13 0 12 0;
#X connect 14 0 9 0;
#X connect 15 0 2 0;
#X connect 16 0 6 0;
#X connect 19 0 5 0;
#X connect 20 0 22 0;
#X connect 21 0 19 0;
#X connect 22 0 21 0;
#X connect 22 1 19 1;
#X connect 23 0 7 1;
#X connect 24 0 25 0;
#X connect 25 0 26 0;
#X connect 26 0 27 0;
#X connect 27 0 29 0;
#X connect 28 0 31 1;
#X connect 29 0 28 0;
#X connect 30 0 24 0;
#X connect 31 0 17 0;
#X connect 32 0 21 0;
