#N canvas 1506 943 450 879 10;
#X obj 31 18 inlet;
#X obj 87 110 loadbang;
#X obj 154 113 pofcolor 1 0.5 0 1;
#X floatatom 204 47 5 0 0 0 - - -;
#X floatatom 287 149 5 0 0 0 - - -;
#X msg 267 38 0;
#X obj 265 14 loadbang;
#X obj 75 14 nbx 5 14 -1e+37 1e+37 0 1 empty empty empty 0 -8 0 10
-262144 -1 -1 -126 256;
#X obj 138 15 nbx 5 14 -1e+37 1e+37 0 1 empty empty empty 0 -8 0 10
-262144 -1 -1 64 256;
#X obj 154 135 poftexts asimov 25 -1;
#X floatatom 242 60 5 0 0 0 - - -;
#N canvas 21 570 471 729 mainNbPart 0;
#X msg 11 80 5;
#X obj 97 77 - 1;
#X obj 303 53 + 1;
#X obj 96 111 t b f b;
#X obj 130 156 tgl 15 0 empty empty empty 17 7 0 10 -262144 -1 -1 1
1;
#X obj 250 245 bng 15 250 50 0 empty empty empty 17 7 0 10 -262144
-1 -1;
#X obj 324 88 t b f b;
#X obj 343 153 tgl 15 0 empty empty empty 17 7 0 10 -262144 -1 -1 1
1;
#X obj 139 236 bng 15 250 50 0 empty empty empty 17 7 0 10 -262144
-1 -1;
#X msg 134 134 0, f 1;
#X msg 96 132 1, f 1;
#X msg 362 111 0, f 1;
#X msg 324 109 1, f 1;
#X obj 24 208 loadbang;
#X obj 103 14 r PofPartRecall-r;
#X obj 283 288 s PofPartRecall-s;
#X msg 29 246 0;
#X obj 115 262 s nbPart-Recall;
#X obj 272 18 r nbPart-Recall;
#X obj 92 403 - 1;
#X obj 298 379 + 1;
#X obj 91 437 t b f b;
#X obj 125 482 tgl 15 0 empty empty empty 17 7 0 10 -262144 -1 -1 0
1;
#X obj 245 571 bng 15 250 50 0 empty empty empty 17 7 0 10 -262144
-1 -1;
#X obj 319 414 t b f b;
#X obj 338 479 tgl 15 0 empty empty empty 17 7 0 10 -262144 -1 -1 0
1;
#X obj 134 562 bng 15 250 50 0 empty empty empty 17 7 0 10 -262144
-1 -1;
#X msg 129 460 0, f 1;
#X msg 91 458 1, f 1;
#X msg 357 437 0, f 1;
#X msg 319 435 1, f 1;
#X obj 98 340 r PofPartStore-r;
#X obj 110 588 s nbPart-Store;
#X obj 278 614 s PofPartStore-s;
#X obj 267 344 r nbPart-Store;
#X floatatom 231 397 5 0 0 0 - - -;
#X obj 99 528 spigot 1;
#X obj 272 549 spigot 1;
#X obj 104 202 spigot 1;
#X obj 277 223 spigot 1;
#X connect 1 0 3 0;
#X connect 2 0 6 0;
#X connect 3 0 10 0;
#X connect 3 1 38 0;
#X connect 3 2 9 0;
#X connect 4 0 39 1;
#X connect 6 0 12 0;
#X connect 6 1 39 0;
#X connect 6 2 11 0;
#X connect 7 0 38 1;
#X connect 9 0 4 0;
#X connect 10 0 4 0;
#X connect 11 0 7 0;
#X connect 12 0 7 0;
#X connect 13 0 16 0;
#X connect 14 0 1 0;
#X connect 16 0 17 0;
#X connect 18 0 2 0;
#X connect 19 0 21 0;
#X connect 20 0 24 0;
#X connect 21 0 28 0;
#X connect 21 1 36 0;
#X connect 21 2 27 0;
#X connect 22 0 37 1;
#X connect 24 0 30 0;
#X connect 24 1 37 0;
#X connect 24 2 29 0;
#X connect 25 0 36 1;
#X connect 27 0 22 0;
#X connect 28 0 22 0;
#X connect 29 0 25 0;
#X connect 30 0 25 0;
#X connect 31 0 19 0;
#X connect 34 0 20 0;
#X connect 34 0 35 0;
#X connect 36 0 26 0;
#X connect 36 0 32 0;
#X connect 37 0 23 0;
#X connect 37 0 33 0;
#X connect 38 0 8 0;
#X connect 38 0 17 0;
#X connect 39 0 5 0;
#X connect 39 0 15 0;
#X restore 341 19 pd mainNbPart;
#X obj 28 79 poftranslate;
#X obj 114 205 clone nbPartSelItem 12 12 Recall;
#X obj 13 165 s PartSelHead;
#X msg 76 137 text Recall;
#X obj 154 92 poftranslate -216 56;
#X obj 28 49 t a a a;
#X obj 186 431 clone nbPartStoreSelItem 12 12 Store;
#X obj 106 357 loadbang;
#X obj 173 360 pofcolor 1 0.5 0 1;
#X floatatom 223 294 5 0 0 0 - - -;
#X floatatom 306 396 5 0 0 0 - - -;
#X obj 92 267 nbx 5 14 -1e+37 1e+37 0 1 empty empty empty 0 -8 0 10
-262144 -1 -1 0 256;
#X obj 157 262 nbx 5 14 -1e+37 1e+37 0 1 empty empty empty 0 -8 0 10
-262144 -1 -1 97 256;
#X obj 173 382 poftexts asimov 25 -1;
#X floatatom 261 307 5 0 0 0 - - -;
#X obj 47 326 poftranslate;
#X obj 79 407 s PartStoreSelHead;
#X msg 95 384 text Store;
#X obj 52 228 t a a;
#X obj 173 339 poftranslate -88 90;
#X floatatom 246 486 5 0 0 0 - - -;
#X obj 127 458 nbx 5 14 -1e+37 1e+37 0 1 empty empty empty 0 -8 0 10
-262144 -1 -1 104 256;
#X obj 120 438 nbx 5 14 -1e+37 1e+37 0 1 empty empty empty 0 -8 0 10
-262144 -1 -1 300 256;
#N canvas 88 756 450 499 save-tune 0;
#X obj 96 21 inlet;
#X obj 96 42 t a a a;
#X obj 135 67 pofcolor 1 1 1 1;
#X msg 253 53 draw 1;
#X obj 253 32 loadbang;
#X obj 115 280 pofcolor 0.2 0.2 0.2 1;
#X obj 96 370 pofcolor 0.8 0.8 0.8 1;
#X obj 19 305 loadbang;
#X obj 128 350 unpack f f f;
#X obj 147 259 unpack f f f;
#X msg 309 259 0.2 0.2 0.2;
#X msg 309 300 0.8 0.8 0.8;
#X msg 252 300 0 0 0 1;
#X obj 228 107 route down;
#X obj 228 128 b;
#X obj 377 167 loadbang;
#X floatatom 169 142 5 0 0 0 - - -;
#X floatatom 136 191 5 0 0 0 - - -;
#X obj 135 88 poftouch 250 50;
#X obj 115 300 pofrect 245 45;
#X obj 96 391 poftexts asimov 40;
#X msg 19 326 text SAVE TUNE \, width 200 \, center 1;
#X obj 169 126 bng 15 250 50 0 empty empty empty 17 7 0 10 -262144
-1 -1;
#X msg 252 258 1 0 0 0;
#X obj 286 136 t b b;
#X obj 373 214 del 100;
#X obj 322 163 del 150;
#X obj 182 177 s saveTune-rcv;
#X connect 0 0 1 0;
#X connect 1 0 6 0;
#X connect 1 1 5 0;
#X connect 1 2 2 0;
#X connect 2 0 18 0;
#X connect 3 0 18 0;
#X connect 4 0 3 0;
#X connect 5 0 19 0;
#X connect 6 0 20 0;
#X connect 7 0 21 0;
#X connect 8 0 6 1;
#X connect 8 1 6 2;
#X connect 8 2 6 3;
#X connect 9 0 5 1;
#X connect 9 1 5 2;
#X connect 9 2 5 3;
#X connect 10 0 9 0;
#X connect 10 0 11 0;
#X connect 11 0 8 0;
#X connect 12 0 8 0;
#X connect 13 0 14 0;
#X connect 14 0 22 0;
#X connect 14 0 24 0;
#X connect 14 0 27 0;
#X connect 15 0 10 0;
#X connect 18 1 13 0;
#X connect 21 0 20 0;
#X connect 23 0 9 0;
#X connect 23 0 12 0;
#X connect 24 1 23 0;
#X connect 24 1 26 0;
#X connect 26 0 10 0;
#X restore 91 515 pd save-tune;
#X obj 99 563 nbx 5 14 -1e+37 1e+37 0 1 empty empty empty 0 -8 0 10
-262144 -1 -1 -40 256;
#X obj 38 587 poftranslate;
#X obj 92 543 nbx 5 14 -1e+37 1e+37 0 1 empty empty empty 0 -8 0 10
-262144 -1 -1 -126 256;
#X obj 206 531 loadbang;
#X obj 125 610 pofcolor 1 0.5 0 1;
#X obj 125 633 poftexts asimov 25 -1;
#X obj 66 482 poftranslate;
#X msg 228 563 text \$1;
#X obj 294 538 symbol;
#X obj 288 505 r PofTuneName;
#X connect 0 0 17 0;
#X connect 1 0 15 0;
#X connect 2 0 9 0;
#X connect 3 0 16 1;
#X connect 6 0 5 0;
#X connect 7 0 12 1;
#X connect 8 0 12 2;
#X connect 10 0 16 2;
#X connect 12 0 14 0;
#X connect 12 0 30 0;
#X connect 15 0 9 0;
#X connect 16 0 2 0;
#X connect 17 0 12 0;
#X connect 17 1 16 0;
#X connect 19 0 29 0;
#X connect 20 0 25 0;
#X connect 21 0 31 1;
#X connect 23 0 27 1;
#X connect 24 0 27 2;
#X connect 26 0 31 2;
#X connect 27 0 28 0;
#X connect 27 0 42 0;
#X connect 29 0 25 0;
#X connect 30 0 27 0;
#X connect 30 1 31 0;
#X connect 31 0 20 0;
#X connect 33 0 42 2;
#X connect 34 0 42 1;
#X connect 36 0 37 2;
#X connect 37 0 40 0;
#X connect 38 0 37 1;
#X connect 40 0 41 0;
#X connect 42 0 35 0;
#X connect 42 0 37 0;
#X connect 43 0 41 0;
#X connect 44 0 43 0;
#X connect 45 0 44 0;
