#N canvas 643 111 535 760 10;
#X obj 120 135 pofvisible;
#X obj 238 62 inlet;
#X msg 238 103 1;
#X obj 120 156 t a a;
#X obj 147 201 poftouch 5000 5000;
#X obj 199 133 loadbang;
#X msg 199 154 draw 1;
#X obj 147 180 pofcolor 0 0 0 0.7;
#X obj 120 229 t a a a a;
#X obj 171 249 pofcolor 1 1 1 1;
#X obj 171 270 pofrect 405 305 10;
#X obj 154 313 pofrect 400 300 10;
#X obj 238 83 t a a;
#X obj 278 107 list prepend text;
#X obj 278 128 list trim;
#X obj 154 292 pofcolor 0.2 0.2 0.2 1;
#X floatatom 192 330 5 0 0 0 - - -;
#X obj 137 351 poftranslate 0 -130;
#X msg 293 399 text Woudou bi douba fdo oi jhjd bnbsyiu iudo?;
#X obj 137 372 poftexts asimov 40 0 1;
#X msg 294 371 text Woudou bi douba?;
#X msg 307 333 width 380 \, center 1;
#X obj 307 312 loadbang;
#X obj 82 456 t a a a;
#X obj 121 480 pofcolor 1 1 1 1;
#X obj 101 564 pofcolor 0.2 0.2 0.2 1;
#X obj 101 585 pofrect 100 50 10;
#X obj 121 501 pofrect 105 55 10;
#X obj 121 522 poftouch 105 55;
#X obj 82 605 pofcolor 0 1 0 1;
#X obj 60 504 loadbang;
#X msg 60 525 text YES;
#X obj 82 627 poftexts asimov 40;
#X obj 82 414 poftranslate 0 110;
#X obj 82 435 poftranslate -135;
#X obj 208 541 route down;
#X obj 230 588 bng 15 250 50 0 empty empty empty 17 7 0 10 -262144
-1 -1;
#X obj 208 681 outlet;
#X obj 319 474 t a a a;
#X obj 358 498 pofcolor 1 1 1 1;
#X obj 338 582 pofcolor 0.2 0.2 0.2 1;
#X obj 286 518 loadbang;
#X obj 319 645 poftexts asimov 40;
#X obj 319 432 poftranslate 0 110;
#X obj 445 559 route down;
#X obj 467 606 bng 15 250 50 0 empty empty empty 17 7 0 10 -262144
-1 -1;
#X obj 445 699 outlet;
#X msg 286 539 text CANCEL;
#X obj 319 623 pofcolor 1 0 0 1;
#X obj 358 519 pofrect 145 55 10;
#X obj 358 540 poftouch 145 55;
#X obj 338 603 pofrect 140 50 10;
#X obj 319 453 poftranslate 115;
#X obj 208 660 t b b;
#X obj 445 657 t b b;
#X obj 253 681 s \$0-close;
#X obj 455 677 s \$0-close;
#X obj 141 94 r \$0-close;
#X msg 141 113 0;
#X obj 502 721 bng 15 250 50 0 empty empty empty 17 7 0 10 -262144
-1 -1;
#X obj 150 44 nbx 5 14 -1e+37 1e+37 0 1 empty empty empty 0 -8 0 10
-262144 -1 -1 490 256;
#X obj 213 45 nbx 5 14 -1e+37 1e+37 0 1 empty empty empty 0 -8 0 10
-262144 -1 -1 165 256;
#X obj 109 62 poftranslate;
#X obj 198 22 r OVERLAYHEAD;
#X obj 97 17 r tuneSelHead;
#X connect 0 0 3 0;
#X connect 1 0 12 0;
#X connect 2 0 0 0;
#X connect 3 0 8 0;
#X connect 3 1 7 0;
#X connect 5 0 6 0;
#X connect 6 0 4 0;
#X connect 7 0 4 0;
#X connect 8 0 33 0;
#X connect 8 0 43 0;
#X connect 8 1 17 0;
#X connect 8 2 15 0;
#X connect 8 3 9 0;
#X connect 9 0 10 0;
#X connect 12 0 2 0;
#X connect 12 1 13 0;
#X connect 13 0 14 0;
#X connect 14 0 19 0;
#X connect 15 0 11 0;
#X connect 16 0 17 2;
#X connect 17 0 19 0;
#X connect 18 0 19 0;
#X connect 20 0 19 0;
#X connect 21 0 19 0;
#X connect 22 0 21 0;
#X connect 23 0 29 0;
#X connect 23 1 25 0;
#X connect 23 2 24 0;
#X connect 24 0 27 0;
#X connect 25 0 26 0;
#X connect 27 0 28 0;
#X connect 28 1 35 0;
#X connect 29 0 32 0;
#X connect 30 0 31 0;
#X connect 31 0 32 0;
#X connect 33 0 34 0;
#X connect 34 0 23 0;
#X connect 35 0 36 0;
#X connect 35 0 53 0;
#X connect 38 0 48 0;
#X connect 38 1 40 0;
#X connect 38 2 39 0;
#X connect 39 0 49 0;
#X connect 40 0 51 0;
#X connect 41 0 47 0;
#X connect 43 0 52 0;
#X connect 44 0 45 0;
#X connect 44 0 54 0;
#X connect 47 0 42 0;
#X connect 48 0 42 0;
#X connect 49 0 50 0;
#X connect 50 1 44 0;
#X connect 52 0 38 0;
#X connect 53 0 37 0;
#X connect 53 1 55 0;
#X connect 54 0 46 0;
#X connect 54 1 56 0;
#X connect 54 1 59 0;
#X connect 57 0 58 0;
#X connect 58 0 0 0;
#X connect 60 0 62 1;
#X connect 61 0 62 2;
#X connect 62 0 0 0;
#X connect 64 0 62 0;
