#N canvas 134 1004 450 300 10;
#X obj 31 18 inlet;
#X obj 31 39 t a a;
#X obj 77 116 loadbang;
#X obj 316 61 r PART_RECALL;
#X obj 31 82 s partSelHead;
#X msg 77 138 text PARTS:;
#X obj 154 113 pofcolor 1 0.5 0 1;
#X obj 154 135 poftexts asimov 30 -1;
#X obj 316 85 s mainSeq-recall;
#X obj 114 205 clone partSelItem 12 3;
#X floatatom 204 47 5 0 0 0 - - -;
#X obj 154 92 poftranslate -27;
#X floatatom 287 149 5 0 0 0 - - -;
#X msg 267 38 0;
#X obj 265 14 loadbang;
#X obj 31 59 poftranslate 0 40;
#X obj 328 134 r nbPart-Recall;
#X obj 322 242 s PART_RECALL;
#X msg 357 169 2;
#X msg 355 203 set \$1;
#X obj 322 179 change;
#X connect 0 0 1 0;
#X connect 1 0 15 0;
#X connect 1 1 11 0;
#X connect 2 0 5 0;
#X connect 3 0 8 0;
#X connect 3 0 12 0;
#X connect 5 0 7 0;
#X connect 6 0 7 0;
#X connect 10 0 11 1;
#X connect 11 0 6 0;
#X connect 14 0 13 0;
#X connect 15 0 4 0;
#X connect 16 0 20 0;
#X connect 18 0 19 0;
#X connect 19 0 17 0;
#X connect 20 0 17 0;
