#N canvas 2077 62 938 792 12;
#X obj 49 391 i;
#X obj 77 391 + 1;
#X obj 207 106 s reset_measure;
#X floatatom 67 491 5 0 0 0 - - -;
#X msg 72 362 0, f 1;
#X obj 107 34 bng 25 250 50 0 OpenKb-\$1-snd OpenKb-\$1-rcv OpenKb-\$1
-2 -10 0 10 -262130 -1 -1;
#X floatatom 230 317 5 0 0 0 - - -;
#X obj 49 418 mod 8;
#X obj 49 34 tgl 25 0 StartSeqPart-\$1-snd StartSeqPart-\$1-rcv Start
-2 -10 0 10 -260097 -1 -1 0 1;
#X obj 334 570 aptab2 SONGschoolscape \$1-Seq \$1-Seq 32 1;
#X obj 274 313 apf SONGschoolscape \$1-Len \$1-Len 1;
#X obj 49 467 tabread \$1-Seq;
#X obj 335 544 table \$1-Seq 32;
#X obj 202 284 r \$1-Len;
#X obj 274 339 s \$1-Len;
#X obj 192 740 s \$1-Seq;
#X obj 180 664 loadbang;
#X obj 38 696 r PofPartSeqSolo;
#X floatatom 31 438 2 0 0 0 - - -;
#X floatatom 31 411 2 0 0 0 - - -;
#X obj 714 536 bng 15 250 50 0 empty empty empty 17 7 0 10 -262144
-1 -1;
#X obj 530 488 print;
#X obj 341 713 s PofPartSeqSolo;
#X obj 42 307 r PofPartBang;
#X msg 341 688 1;
#X obj 31 376 bng 15 250 50 0 empty empty empty 17 7 0 10 -262144 -1
-1;
#X msg 170 470 0;
#X obj 38 720 sel 0;
#X msg 38 744 0;
#X msg 95 136 0, f 1;
#X obj 116 165 s AllSeqPartsOff;
#X obj 170 513 s AllSeqPartsOff;
#X obj 216 490 s StartSeqPart-\$1-rcv;
#X obj 42 338 spigot 0;
#X msg 150 112 1, f 2;
#X obj 49 63 t b b f;
#X obj 95 86 sel 0 1;
#X obj 95 111 del 1;
#X obj 49 610 s StartSeqPart-intro-rcv;
#X obj 74 586 s StartSeqPart-couplet-rcv;
#X obj 100 562 s StartSeqPart-refrain-rcv;
#X obj 125 538 s StartSeqPart-outro-rcv;
#X obj 170 442 spigot 0;
#X obj 223 392 r LoopPofPartSeqSrtucture;
#X floatatom 267 412 5 0 0 0 - - -;
#X obj 223 418 == 0;
#X obj 170 384 sel 7;
#X obj 335 519 table \$1-SeqOulip 32;
#X obj 334 596 aptab2 SONGschoolscape \$1-SeqOulip \$1-SeqOulip 32
1;
#X obj 180 764 s \$1-SeqOulip;
#X obj 95 170 tgl 15 0 empty empty empty 17 7 0 10 -262144 -1 -1 0
1;
#X obj 187 691 r ResetSeq-\$1;
#X msg 180 716 const 95;
#X floatatom 701 128 5 0 0 0 - - -;
#X obj 591 150 apf SONGschoolscape \$1-LenOulip \$1-LenOulip 1;
#X obj 623 204 s \$1-LenOulip;
#X obj 591 108 r \$1-LenOulip;
#N canvas 2919 130 595 507 Keyboard 0;
#X obj 69 468 s pofkb_open;
#X obj 249 6 r pofkb_return;
#X obj 115 381 s pofkb_control;
#X obj 88 24 bng 15 250 50 0 empty empty empty 17 7 0 10 -262144 -1
-1;
#X obj 105 105 i;
#X obj 137 105 + 1;
#X msg 105 155 0;
#X obj 69 293 list store;
#X msg 69 265 append \$1;
#X msg 214 295 bang;
#X obj 31 61 t b f f;
#X obj 69 217 i;
#X obj 69 318 t b b a;
#X obj 292 156 list split 1;
#N canvas 1995 62 882 696 toTab 0;
#X obj 50 -3 inlet;
#X msg 122 381 1, f 1;
#X msg 145 381 2, f 1;
#X msg 168 381 3, f 1;
#X msg 191 381 4, f 1;
#X floatatom 242 503 5 0 0 0 - - -;
#X obj 79 272 t b f;
#X obj 53 376 i;
#X obj 83 375 + 1;
#X obj 45 503 pack f f;
#X msg 35 309 0;
#X obj 122 478 f;
#X obj 59 437 t f b;
#X obj 144 592 outlet;
#X obj 40 139 sel 32;
#X obj 79 167 f;
#X obj 341 480 f;
#X obj 341 538 i;
#X obj 376 542 + 1;
#X floatatom 312 598 5 0 0 0 - - -;
#X obj 188 246 print;
#X msg 307 501 0, f 1;
#X obj 341 505 t b;
#X obj 341 564 + 1;
#X obj 377 603 s \$1-Len;
#X msg 35 171 0;
#X floatatom 18 453 5 0 0 0 - - -;
#N canvas 0 582 450 300 >0 0;
#X obj 135 41 inlet;
#X obj 139 217 outlet;
#X obj 127 88 t b b;
#X obj 129 138 del 10;
#X msg 178 100 stop;
#X msg 134 171 0;
#X connect 0 0 2 0;
#X connect 2 0 3 0;
#X connect 2 1 4 0;
#X connect 3 0 5 0;
#X connect 4 0 3 0;
#X connect 5 0 1 0;
#X restore 158 281 pd >0;
#X obj 79 191 t f f;
#X obj 591 555 outlet;
#X obj 461 592 print;
#X obj 62 81 t f f f;
#X obj 15 589 print;
#X obj 292 167 key;
#X floatatom 278 258 5 0 0 0 - - -;
#X obj 358 216 mod 13;
#X obj 359 192 - 97;
#X obj 359 243 + 97;
#X floatatom 360 292 5 0 0 0 - - -;
#X obj 498 120 print;
#X obj 166 74 moses 95;
#X obj 236 75 moses 96;
#X obj 166 104 f;
#X obj 137 530 print;
#X obj 620 273 t b f;
#X obj 620 300 i;
#X obj 650 300 + 1;
#X obj 591 525 pack f f;
#X msg 726 252 0;
#X obj 663 457 f;
#X obj 620 414 t f b;
#X obj 522 201 sel 32;
#X obj 620 224 f;
#X obj 749 404 f;
#X obj 749 462 i;
#X obj 784 466 + 1;
#X msg 715 425 0, f 1;
#X obj 749 429 t b;
#X obj 749 485 + 1;
#X floatatom 541 290 5 0 0 0 - - -;
#N canvas 0 582 450 300 >0 0;
#X obj 135 41 inlet;
#X obj 139 217 outlet;
#X obj 127 88 t b b;
#X obj 129 138 del 10;
#X msg 178 100 stop;
#X msg 134 171 0;
#X connect 0 0 2 0;
#X connect 2 0 3 0;
#X connect 2 1 4 0;
#X connect 3 0 5 0;
#X connect 4 0 3 0;
#X connect 5 0 1 0;
#X restore 738 303 pd >0;
#X obj 620 248 t f f;
#X obj 708 365 t f f;
#X obj 670 495 + 13;
#X floatatom 693 539 5 0 0 0 - - -;
#X obj 168 181 t b;
#X obj 171 33 f;
#X obj 171 3 moses 32;
#X obj 241 4 moses 33;
#X obj 70 22 t f f b;
#X msg 750 100 const 0;
#X obj 755 135 s \$1-Seq;
#X obj 208 40 sel 32;
#X obj 203 114 sel 95;
#X obj 653 350 sel 31;
#X obj 542 413 bng 15 250 50 0 empty empty empty 17 7 0 10 -262144
-1 -1;
#X obj 749 512 s \$1-LenOulip;
#X obj 653 376 t b b;
#X obj 620 326 t f f;
#X obj 581 159 t b f, f 9;
#X obj 30 407 sel 31;
#X obj 824 136 s \$1-SeqOulip;
#X obj 371 17 t b b;
#X msg 370 43 1, f 1;
#X msg 420 92 0, f 1;
#X obj 369 72 f;
#X obj 365 96 change;
#X obj 365 120 t b;
#X obj 419 67 del 200;
#X obj 750 12 r ResetSeq-\$1;
#X msg 216 385 0, f 1;
#X msg 156 206 0;
#N canvas 919 735 450 908 isole 0;
#X obj 49 16 inlet;
#X obj 86 653 outlet;
#X obj 60 343 moses 73;
#X obj 97 378 f;
#X obj 129 343 moses 74;
#X obj 79 265 moses 67;
#X obj 148 265 moses 68;
#X obj 123 304 f;
#X obj 96 535 f;
#X obj 106 457 f;
#X obj 53 495 moses 82;
#X obj 122 495 moses 83;
#X obj 62 418 moses 79;
#X obj 131 418 moses 80;
#X obj 310 350 t b;
#X obj 234 367 t b;
#X obj 277 467 t b;
#X obj 341 492 t b;
#X obj 162 585 f;
#X obj 164 612 mod 4;
#X floatatom 205 688 5 0 0 0 - - -;
#X msg 310 380 0;
#X msg 234 397 1;
#X msg 277 497 2;
#X msg 341 522 3;
#X obj 222 651 + 1;
#X floatatom 145 4 5 0 0 0 - - -;
#X obj 136 138 moses 5;
#X floatatom 178 211 5 0 0 0 - - -;
#X obj 143 671 print;
#X msg 204 93 73;
#X msg 292 71 67;
#X msg 208 41 82;
#X msg 249 23 79;
#X obj 242 185 sel 67 73 79 82;
#X connect 0 0 27 0;
#X connect 2 0 3 0;
#X connect 2 1 4 0;
#X connect 3 0 12 0;
#X connect 4 1 3 0;
#X connect 5 0 7 0;
#X connect 5 1 6 0;
#X connect 6 1 7 0;
#X connect 7 0 2 0;
#X connect 8 0 18 0;
#X connect 9 0 10 0;
#X connect 10 0 8 0;
#X connect 10 1 11 0;
#X connect 11 1 8 0;
#X connect 12 0 9 0;
#X connect 12 1 13 0;
#X connect 13 1 9 0;
#X connect 14 0 21 0;
#X connect 15 0 22 0;
#X connect 16 0 23 0;
#X connect 17 0 24 0;
#X connect 18 0 19 0;
#X connect 19 0 25 0;
#X connect 19 0 1 0;
#X connect 21 0 18 0;
#X connect 22 0 18 0;
#X connect 23 0 18 0;
#X connect 24 0 18 0;
#X connect 25 0 20 0;
#X connect 26 0 27 0;
#X connect 27 1 28 0;
#X connect 27 1 5 0;
#X connect 27 1 34 0;
#X connect 30 0 27 0;
#X connect 31 0 27 0;
#X connect 32 0 27 0;
#X connect 33 0 27 0;
#X connect 34 0 15 0;
#X connect 34 1 14 0;
#X connect 34 2 17 0;
#X connect 34 3 16 0;
#X restore 59 232 pd isole;
#X obj 123 352 sel 0 1 2 3;
#X connect 0 0 69 0;
#X connect 1 0 11 1;
#X connect 1 0 16 0;
#X connect 2 0 11 1;
#X connect 2 0 16 0;
#X connect 3 0 11 1;
#X connect 3 0 16 0;
#X connect 4 0 11 1;
#X connect 4 0 16 0;
#X connect 6 0 7 0;
#X connect 6 1 93 0;
#X connect 7 0 8 0;
#X connect 7 0 12 0;
#X connect 7 0 26 0;
#X connect 7 0 80 0;
#X connect 8 0 7 1;
#X connect 9 0 27 0;
#X connect 9 0 13 0;
#X connect 10 0 7 1;
#X connect 11 0 9 1;
#X connect 12 0 9 0;
#X connect 12 1 11 0;
#X connect 14 0 25 0;
#X connect 14 1 15 0;
#X connect 15 0 28 0;
#X connect 16 0 22 0;
#X connect 17 0 18 0;
#X connect 17 0 23 0;
#X connect 18 0 17 1;
#X connect 21 0 17 1;
#X connect 22 0 17 0;
#X connect 23 0 19 0;
#X connect 23 0 24 0;
#X connect 27 0 10 0;
#X connect 27 0 21 0;
#X connect 28 0 92 0;
#X connect 31 0 14 0;
#X connect 31 1 15 1;
#X connect 31 2 79 0;
#X connect 33 0 34 0;
#X connect 33 0 36 0;
#X connect 35 0 37 0;
#X connect 36 0 35 0;
#X connect 37 0 38 0;
#X connect 40 0 42 0;
#X connect 40 1 41 0;
#X connect 40 1 73 0;
#X connect 41 1 42 0;
#X connect 42 0 31 0;
#X connect 44 0 45 0;
#X connect 44 1 62 0;
#X connect 45 0 46 0;
#X connect 45 0 59 0;
#X connect 45 0 78 0;
#X connect 46 0 45 1;
#X connect 47 0 60 0;
#X connect 47 0 29 0;
#X connect 48 0 45 1;
#X connect 49 0 63 0;
#X connect 49 0 47 1;
#X connect 50 0 47 0;
#X connect 50 1 49 0;
#X connect 52 0 61 0;
#X connect 53 0 57 0;
#X connect 54 0 55 0;
#X connect 54 0 58 0;
#X connect 55 0 54 1;
#X connect 56 0 54 1;
#X connect 57 0 54 0;
#X connect 58 0 64 0;
#X connect 58 0 76 0;
#X connect 60 0 48 0;
#X connect 60 0 56 0;
#X connect 61 0 44 0;
#X connect 62 0 49 1;
#X connect 62 1 53 0;
#X connect 65 0 91 0;
#X connect 66 0 40 0;
#X connect 67 0 66 0;
#X connect 67 1 68 0;
#X connect 67 1 72 0;
#X connect 68 1 66 0;
#X connect 69 0 67 0;
#X connect 70 0 71 0;
#X connect 70 0 81 0;
#X connect 72 0 65 0;
#X connect 73 0 65 0;
#X connect 74 0 77 0;
#X connect 77 0 56 0;
#X connect 77 1 48 0;
#X connect 78 0 50 0;
#X connect 78 1 74 0;
#X connect 79 0 52 0;
#X connect 79 1 52 1;
#X connect 80 0 10 0;
#X connect 80 0 21 0;
#X connect 82 0 83 0;
#X connect 82 1 88 0;
#X connect 83 0 85 0;
#X connect 84 0 85 0;
#X connect 85 0 86 0;
#X connect 86 0 87 0;
#X connect 88 0 84 0;
#X connect 92 0 6 0;
#X connect 93 0 1 0;
#X connect 93 1 2 0;
#X connect 93 2 3 0;
#X connect 93 3 4 0;
#X connect 93 4 90 0;
#X restore 380 206 pd toTab;
#X obj 380 230 outlet;
#X text 183 2 open kb;
#X obj 139 1 inlet;
#X msg 115 342 text \$1 \$2 \$3 \$4 \$5 \$6 \$7 \$8 \$9 \$10 \$11 \$12
\$13 \$14 \$15 \$16 \, title Enter part's list: \, charlimit 32;
#X obj 69 408 symbol \$1;
#X symbolatom 86 447 10 0 0 0 - - -;
#X obj 43 393 bng 15 250 50 0 empty empty empty 17 7 0 10 -262144 -1
-1;
#X obj 139 28 t b b, f 11;
#X obj 455 106 print tab;
#X obj 291 56 spigot 0;
#X obj 406 4 inlet;
#X obj 406 28 sel 1;
#X obj 292 108 list fromsymbol;
#X obj 292 81 symbol;
#X obj 251 31 list split 1;
#X obj 292 131 t a a, f 13;
#X obj 380 183 list split 1;
#X obj 433 230 outlet;
#X obj 69 195 tabread \$1-SeqOulip;
#N canvas 2086 437 596 510 ToSymbol 0;
#X obj 11 4 inlet;
#X obj 16 162 outlet;
#X obj 16 126 symbol;
#X obj 16 98 list tosymbol;
#X obj 150 201 print;
#X obj 231 190 i;
#X obj 260 190 + 1;
#X floatatom 231 233 5 0 0 0 - - -;
#X floatatom 423 201 5 0 0 0 - - -;
#X obj 228 76 t b b a;
#X msg 251 157 0, f 1;
#X obj 300 246 sel 2;
#X obj 339 173 - 1;
#X obj 301 367 i;
#X obj 330 367 + 1;
#X msg 349 331 0, f 1;
#X obj 302 272 t b b;
#X obj 349 302 del 200;
#X obj 330 424 t b b;
#X obj 282 400 sel 16;
#X floatatom 415 436 5 0 0 0 - - -;
#X msg 152 314 95;
#X obj 392 163 r \$1-LenOulip;
#X obj 251 131 del 200;
#X connect 0 0 3 0;
#X connect 0 0 9 0;
#X connect 2 0 1 0;
#X connect 3 0 2 0;
#X connect 5 0 6 0;
#X connect 5 0 7 0;
#X connect 5 0 11 0;
#X connect 6 0 5 1;
#X connect 9 0 5 0;
#X connect 9 1 23 0;
#X connect 10 0 5 1;
#X connect 11 0 16 0;
#X connect 12 0 11 1;
#X connect 13 0 14 0;
#X connect 13 0 19 0;
#X connect 13 0 20 0;
#X connect 14 0 13 1;
#X connect 15 0 13 1;
#X connect 16 0 13 0;
#X connect 16 1 17 0;
#X connect 17 0 15 0;
#X connect 18 0 21 0;
#X connect 18 1 13 0;
#X connect 19 0 10 0;
#X connect 19 0 15 0;
#X connect 19 1 18 0;
#X connect 21 0 3 0;
#X connect 22 0 8 0;
#X connect 22 0 13 1;
#X connect 22 0 11 1;
#X connect 23 0 10 0;
#X restore 69 241 pd ToSymbol;
#X msg 16 9 1;
#X obj 16 33 metro 10;
#X obj 105 131 sel 31;
#X connect 1 0 29 0;
#X connect 4 0 5 0;
#X connect 4 0 33 0;
#X connect 4 0 37 0;
#X connect 5 0 4 1;
#X connect 6 0 10 0;
#X connect 7 0 12 0;
#X connect 8 0 7 0;
#X connect 9 0 7 1;
#X connect 10 0 7 0;
#X connect 10 1 4 1;
#X connect 11 0 34 0;
#X connect 12 0 19 0;
#X connect 12 1 9 0;
#X connect 12 2 18 0;
#X connect 13 1 30 0;
#X connect 14 0 15 0;
#X connect 14 1 32 0;
#X connect 17 0 22 0;
#X connect 18 0 2 0;
#X connect 19 0 0 0;
#X connect 19 0 20 0;
#X connect 21 0 19 0;
#X connect 22 0 9 0;
#X connect 22 1 4 0;
#X connect 24 0 28 0;
#X connect 25 0 24 1;
#X connect 25 0 26 0;
#X connect 26 0 9 0;
#X connect 27 0 30 0;
#X connect 28 0 27 0;
#X connect 29 1 24 0;
#X connect 30 0 13 0;
#X connect 30 1 31 0;
#X connect 31 0 14 0;
#X connect 33 0 11 0;
#X connect 34 0 8 0;
#X connect 35 0 36 0;
#X connect 37 0 6 0;
#X connect 37 1 22 0;
#X restore 398 188 pd Keyboard;
#X obj 463 229 s \$1-Seq;
#X obj 398 100 t b b, f 11;
#X msg 472 145 1, f 1;
#X obj 528 208 t b b a;
#X obj 528 258 del 10;
#X msg 551 233 stop;
#X msg 503 149 0, f 1;
#X obj 472 169 tgl 15 0 empty empty empty 17 7 0 10 -262144 -1 -1 0
1;
#X obj 598 228 s \$1-SeqOulip;
#X obj 398 264 del 10;
#X msg 421 235 stop;
#X obj 398 212 t b b a;
#X obj 457 361 inlet;
#N canvas 1944 62 456 991 TabSeq 0;
#X obj 116 54 bng 15 250 50 0 empty empty empty 17 7 0 10 -262144 -1
-1;
#X obj 116 151 i;
#X obj 148 151 + 1;
#X msg 54 58 0;
#X msg 225 95 1;
#X obj 225 119 metro 10;
#X obj 77 409 list store;
#X msg 79 381 append \$1;
#X msg 176 419 bang;
#X obj 42 85 t b f f;
#X obj 79 328 i;
#X obj 77 437 t b b a;
#N canvas 2006 62 493 629 corresLetter 0;
#X obj 69 45 inlet;
#X obj 50 307 outlet;
#X obj 54 248 symbol;
#X obj 52 199 list tosymbol;
#X obj 118 418 print;
#X obj 231 190 i;
#X obj 260 190 + 1;
#X floatatom 231 233 5 0 0 0 - - -;
#X floatatom 423 201 5 0 0 0 - - -;
#X obj 228 76 t b b a;
#X msg 251 157 0, f 1;
#X obj 300 246 sel 2;
#X obj 339 173 - 1;
#X obj 301 367 i;
#X obj 330 367 + 1;
#X msg 349 331 0, f 1;
#X obj 302 272 t b b;
#X obj 349 302 del 200;
#X obj 330 424 t b b;
#X obj 251 131 del 600;
#X obj 282 400 sel 16;
#X floatatom 415 436 5 0 0 0 - - -;
#X msg 152 314 95;
#X obj 392 163 r \$1-LenOulip;
#X connect 0 0 3 0;
#X connect 0 0 9 0;
#X connect 2 0 1 0;
#X connect 3 0 2 0;
#X connect 5 0 6 0;
#X connect 5 0 7 0;
#X connect 5 0 11 0;
#X connect 6 0 5 1;
#X connect 9 0 5 0;
#X connect 9 1 19 0;
#X connect 10 0 5 1;
#X connect 11 0 16 0;
#X connect 12 0 11 1;
#X connect 13 0 14 0;
#X connect 13 0 20 0;
#X connect 13 0 21 0;
#X connect 14 0 13 1;
#X connect 15 0 13 1;
#X connect 16 0 13 0;
#X connect 16 1 17 0;
#X connect 17 0 15 0;
#X connect 18 0 22 0;
#X connect 18 1 13 0;
#X connect 19 0 10 0;
#X connect 20 1 18 0;
#X connect 22 0 3 0;
#X connect 23 0 8 0;
#X connect 23 0 13 1;
#X connect 23 0 11 1;
#X restore 79 356 pd corresLetter;
#X obj 163 5 inlet;
#X obj 116 79 t b b;
#X obj 123 481 outlet;
#X obj 69 33 loadbang;
#X obj 79 302 tabread \$1-SeqOulip;
#X obj 226 807 list store;
#X msg 226 779 append \$1;
#X msg 333 819 bang;
#X obj 226 725 i;
#X obj 226 834 t b b a;
#N canvas 2058 210 450 783 corresLetter 0;
#X obj 58 -1 inlet;
#X obj 152 630 outlet;
#X obj 152 300 symbol;
#X msg 386 232 x, f 1;
#X symbolatom 52 378 10 0 0 0 - - -;
#X obj 13 305 list tosymbol;
#X obj 3 154 print;
#X msg 417 247 _, f 1;
#X obj 29 28 moses 0;
#X obj 20 461 print;
#X obj 177 462 i;
#X obj 206 462 + 1;
#X floatatom 177 505 5 0 0 0 - - -;
#X obj 336 394 r \$1-Len;
#X floatatom 367 432 5 0 0 0 - - -;
#X obj 174 377 t b b a;
#X msg 197 429 0, f 1;
#X msg 158 719 0, f 1;
#X obj 158 690 del 200;
#X msg 94 468 _, f 1;
#X obj 274 655 t b b;
#X floatatom 322 700 5 0 0 0 - - -;
#X obj 96 28 moses 1;
#X obj 66 67 f;
#X obj 198 402 del 200;
#X obj 226 631 sel 15;
#X obj 275 700 bng 15 250 50 0 empty empty empty 17 7 0 10 -262144
-1 -1;
#X obj 218 497 moses 3;
#X floatatom 271 591 5 0 0 0 - - -;
#X floatatom 344 632 5 0 0 0 - - -;
#X obj 66 93 - 1;
#X obj 237 326 t b b;
#X msg 279 362 stop;
#X obj 201 350 del 100;
#X obj 179 335 bng 15 250 50 0 empty empty empty 17 7 0 10 -262144
-1 -1;
#X obj 281 420 - 0;
#X obj 66 146 + 0;
#X obj 220 563 t b b;
#X obj 266 531 moses 31;
#X obj 383 545 -;
#X floatatom 393 642 5 0 0 0 - - -;
#X obj 209 532 t b;
#X floatatom 100 570 5 0 0 0 - - -;
#X msg 379 518 16;
#X obj 380 492 t b f;
#X obj 392 595 + 0;
#X floatatom 132 447 5 0 0 0 - - -;
#X obj 262 467 - 1;
#X obj 324 460 + 1;
#X obj 321 579 moses 16;
#X obj 66 120 mod 4;
#X obj 66 174 sel 0 1 2 3 4, f 25;
#X msg 66 200 I, f 1;
#X msg 92 200 C, f 1;
#X msg 118 200 R, f 1;
#X msg 144 200 O, f 1;
#X msg 182 210 X, f 1;
#X connect 0 0 8 0;
#X connect 2 0 1 0;
#X connect 2 0 4 0;
#X connect 2 0 31 0;
#X connect 3 0 2 0;
#X connect 5 0 2 0;
#X connect 7 0 2 0;
#X connect 8 0 23 0;
#X connect 8 1 22 0;
#X connect 10 0 11 0;
#X connect 10 0 12 0;
#X connect 10 0 27 0;
#X connect 11 0 10 1;
#X connect 13 0 14 0;
#X connect 13 0 35 0;
#X connect 13 0 44 0;
#X connect 13 0 47 0;
#X connect 13 0 48 0;
#X connect 15 0 10 0;
#X connect 15 1 24 0;
#X connect 16 0 10 1;
#X connect 18 0 17 0;
#X connect 19 0 2 0;
#X connect 20 0 26 0;
#X connect 22 1 23 0;
#X connect 23 0 30 0;
#X connect 24 0 16 0;
#X connect 25 0 17 0;
#X connect 25 1 20 0;
#X connect 27 0 41 0;
#X connect 27 0 42 0;
#X connect 27 1 38 0;
#X connect 30 0 50 0;
#X connect 31 0 33 0;
#X connect 31 1 32 0;
#X connect 32 0 33 0;
#X connect 33 0 15 0;
#X connect 34 0 15 0;
#X connect 35 0 10 1;
#X connect 36 0 51 0;
#X connect 37 0 19 0;
#X connect 37 1 10 0;
#X connect 38 0 28 0;
#X connect 38 0 37 0;
#X connect 38 1 49 0;
#X connect 39 0 45 0;
#X connect 41 0 10 0;
#X connect 43 0 39 0;
#X connect 44 0 43 0;
#X connect 44 1 39 1;
#X connect 45 0 40 0;
#X connect 46 0 27 0;
#X connect 47 0 27 1;
#X connect 48 0 38 1;
#X connect 49 0 37 0;
#X connect 49 0 29 0;
#X connect 50 0 36 0;
#X connect 51 0 52 0;
#X connect 51 1 53 0;
#X connect 51 2 54 0;
#X connect 51 3 55 0;
#X connect 52 0 2 0;
#X connect 53 0 2 0;
#X connect 54 0 2 0;
#X connect 55 0 2 0;
#X connect 56 0 2 0;
#X restore 226 753 pd corresLetter;
#X obj 272 861 outlet;
#X obj 226 702 tabread \$1-Seq;
#X obj 59 538 del 500;
#X obj 286 435 inlet;
#X obj 101 191 sel 31;
#X obj 205 914 print;
#X floatatom 263 214 5 0 0 0 - - -;
#X obj 186 160 r \$1-LenOulip;
#X obj 199 201 - 1;
#X obj 324 87 * 2;
#X obj 56 754 i;
#X obj 90 754 + 1;
#X floatatom 59 792 5 0 0 0 - - -;
#X obj 87 713 t b;
#X obj 156 741 bng 15 250 50 0 empty empty empty 17 7 0 10 -262144
-1 -1;
#X msg 17 714 0;
#X floatatom 116 662 5 0 0 0 - - -;
#X obj 255 26 bng 15 250 50 0 empty empty empty 17 7 0 10 -262144 -1
-1;
#X obj 145 39 t b b;
#X msg 181 64 0;
#X obj 233 503 bng 15 250 50 0 empty empty empty 17 7 0 10 -262144
-1 -1;
#X obj 233 600 i;
#X obj 265 600 + 1;
#X msg 171 507 0;
#X msg 369 482 1;
#X obj 369 506 metro 10;
#X obj 159 534 t b f f;
#X obj 233 528 t b b;
#X obj 186 482 loadbang;
#X floatatom 380 663 5 0 0 0 - - -;
#X obj 316 650 - 1;
#X obj 314 610 * 2;
#X obj 245 455 bng 15 250 50 0 empty empty empty 17 7 0 10 -262144
-1 -1;
#X obj 262 488 t b b;
#X msg 298 513 0;
#X obj 321 567 r \$1-Len;
#X obj 93 877 print;
#X obj 264 380 print;
#X obj 218 640 sel 31;
#X connect 0 0 14 0;
#X connect 1 0 2 0;
#X connect 1 0 17 0;
#X connect 1 0 28 0;
#X connect 2 0 1 1;
#X connect 3 0 9 0;
#X connect 4 0 5 0;
#X connect 6 0 11 0;
#X connect 7 0 6 0;
#X connect 8 0 6 1;
#X connect 9 0 6 0;
#X connect 9 1 1 1;
#X connect 10 0 12 0;
#X connect 11 0 26 0;
#X connect 11 1 8 0;
#X connect 11 2 15 0;
#X connect 12 0 7 0;
#X connect 13 0 42 0;
#X connect 14 0 8 0;
#X connect 14 1 1 0;
#X connect 16 0 14 0;
#X connect 17 0 10 0;
#X connect 18 0 22 0;
#X connect 19 0 18 0;
#X connect 20 0 18 1;
#X connect 21 0 23 0;
#X connect 22 1 20 0;
#X connect 22 2 24 0;
#X connect 23 0 19 0;
#X connect 25 0 21 0;
#X connect 26 0 57 0;
#X connect 27 0 57 0;
#X connect 28 0 3 0;
#X connect 28 1 14 0;
#X connect 31 0 32 0;
#X connect 31 0 28 1;
#X connect 31 0 30 0;
#X connect 34 0 35 0;
#X connect 34 0 36 0;
#X connect 35 0 34 1;
#X connect 37 0 34 0;
#X connect 37 0 38 0;
#X connect 39 0 34 1;
#X connect 41 0 42 0;
#X connect 42 0 14 0;
#X connect 42 1 43 0;
#X connect 43 0 1 1;
#X connect 44 0 51 0;
#X connect 45 0 46 0;
#X connect 45 0 25 0;
#X connect 45 0 62 0;
#X connect 46 0 45 1;
#X connect 47 0 50 0;
#X connect 48 0 49 0;
#X connect 50 0 18 0;
#X connect 50 1 45 1;
#X connect 51 0 20 0;
#X connect 51 1 45 0;
#X connect 52 0 51 0;
#X connect 54 0 62 1;
#X connect 55 0 54 0;
#X connect 56 0 57 0;
#X connect 57 0 51 0;
#X connect 57 1 58 0;
#X connect 58 0 45 1;
#X connect 59 0 53 0;
#X connect 59 0 55 0;
#X connect 62 0 47 0;
#X connect 62 1 51 0;
#X restore 542 389 pd TabSeq;
#N canvas 2201 62 848 991 gui 0;
#X obj 125 163 loadbang;
#X msg 125 185 draw 1;
#X obj 75 336 pofcolor 0 0 0 1;
#X obj 81 43 inlet;
#X obj 81 64 t a a;
#X obj 112 143 pofcolor 1 1 1 1;
#X obj 287 92 inlet;
#X msg 254 252 text \$1 \$2 \$3 \$4 \$5 \$6 \$7 \$8 \$9 \$10 \$11 \$12
\$13 \$14 \$15 \$16;
#X obj 90 274 nbx 5 14 -1e+37 1e+37 0 1 empty empty empty 0 -8 0 10
-262144 -1 -1 43 256;
#X obj 148 274 nbx 5 14 -1e+37 1e+37 0 1 empty empty empty 0 -8 0 10
-262144 -1 -1 0 256;
#X obj 69 441 pofcolor 0 0 0 1;
#X obj 265 402 loadbang;
#X obj 263 428 symbol \$1;
#X obj 239 402 bng 15 250 50 0 empty empty empty 17 7 0 10 -262144
-1 -1;
#X obj 91 386 nbx 5 14 -1e+37 1e+37 0 1 empty empty empty 0 -8 0 10
-262144 -1 -1 -324 256;
#X obj 149 386 nbx 5 14 -1e+37 1e+37 0 1 empty empty empty 0 -8 0 10
-262144 -1 -1 0 256;
#X obj 46 406 poftranslate, f 21;
#X obj 75 362 poftexts asimov 45;
#X obj 69 467 poftexts asimov 45;
#X msg 263 452 text \$1 :;
#X obj 88 510 nbx 5 14 -1e+37 1e+37 0 1 empty empty empty 0 -8 0 10
-262144 -1 -1 692 256;
#X obj 146 510 nbx 5 14 -1e+37 1e+37 0 1 empty empty empty 0 -8 0 10
-262144 -1 -1 0 256;
#X obj 43 530 poftranslate, f 21;
#X floatatom 201 605 5 0 0 0 - - -;
#X obj 281 515 tgl 15 0 empty empty empty 17 7 0 10 -262144 -1 -1 0
1;
#X obj 197 681 route down;
#X obj 200 706 b;
#X obj 196 732 f;
#X obj 196 762 == 0;
#X obj 281 537 sel 0 1;
#X floatatom 129 741 5 0 0 0 - - -;
#X floatatom 250 743 5 0 0 0 - - -;
#X obj 45 294 poftranslate, f 21;
#X msg 282 561 set instruments/BoutonMachineOff.png;
#X msg 301 583 set instruments/BoutonMachineOn.png;
#X obj 215 499 nbx 5 14 -1e+37 1e+37 0 1 empty empty empty 0 -8 0 10
-262144 -1 -1 0 256;
#X obj 84 653 poftouch 45 45;
#X obj 235 708 r StartSeqPart-\$1-snd;
#X obj 164 55 sel 0 1;
#X msg 208 86 0.5;
#X msg 160 87 1;
#X obj 373 771 s StartSeqPart-\$1-rcv;
#X obj 307 496 r StartSeqPart-\$1-snd;
#X obj 171 31 r StartSeqPart-\$1-snd;
#X obj 109 225 poftouch 700 45;
#X obj 84 626 pofimage instruments/BoutonMachineOff.png 80 80;
#N canvas 264 582 720 754 loop 0;
#X obj 14 26 inlet;
#X floatatom 391 70 5 0 0 0 - - -;
#X obj 294 176 route down;
#X obj 297 201 b;
#X obj 293 227 f;
#X obj 262 259 == 0;
#X floatatom 226 236 5 0 0 0 - - -;
#X floatatom 347 238 5 0 0 0 - - -;
#X obj 181 148 poftouch 45 45;
#X obj 262 415 r LoopPofPartSeqSrtucture;
#X obj 316 298 s LoopPofPartSeqSrtucture;
#X obj 470 173 r LoopPofPartSeqSrtucture;
#X obj 186 507 pofcolor 0.2 0.2 0.2 1;
#X obj 162 661 pofcolor 0.8 0.8 0.8 1;
#X obj 69 571 loadbang;
#X obj 194 641 unpack f f f;
#X obj 218 486 unpack f f f;
#X msg 380 486 0.2 0.2 0.2;
#X msg 380 527 0.8 0.8 0.8;
#X msg 323 527 0 0 0 1;
#X obj 323 465 sel 1 0;
#X obj 437 462 loadbang;
#X obj 162 682 poftexts asimov 30;
#X msg 323 485 1 1 0 0;
#X msg 85 617 text Loop \, width 130 \, center 1;
#X obj 100 68 t a a;
#X obj 185 535 pofrect 60 60;
#X obj 181 121 pofimage mode/64px-Refresh_font_awesome.svg.png 60 60
80;
#X obj 185 68 pofcolor 0 0 0 0.3;
#X obj 469 205 == 0;
#X obj 535 289 loadbang;
#X msg 535 321 0;
#X connect 0 0 25 0;
#X connect 1 0 27 1;
#X connect 2 0 3 0;
#X connect 3 0 4 0;
#X connect 4 0 5 0;
#X connect 4 0 7 0;
#X connect 5 0 6 0;
#X connect 5 0 10 0;
#X connect 8 1 2 0;
#X connect 9 0 20 0;
#X connect 11 0 29 0;
#X connect 11 0 4 1;
#X connect 12 0 26 0;
#X connect 13 0 22 0;
#X connect 14 0 24 0;
#X connect 15 0 13 1;
#X connect 15 1 13 2;
#X connect 15 2 13 3;
#X connect 16 0 12 1;
#X connect 16 1 12 2;
#X connect 16 2 12 3;
#X connect 17 0 16 0;
#X connect 17 0 18 0;
#X connect 18 0 15 0;
#X connect 19 0 15 0;
#X connect 20 0 23 0;
#X connect 20 1 17 0;
#X connect 21 0 17 0;
#X connect 23 0 16 0;
#X connect 23 0 19 0;
#X connect 24 0 22 0;
#X connect 25 0 28 0;
#X connect 25 1 12 0;
#X connect 25 1 13 0;
#X connect 27 0 8 0;
#X connect 28 0 27 0;
#X connect 30 0 31 0;
#X connect 31 0 10 0;
#X restore 64 880 pd loop;
#X obj 65 817 nbx 5 14 -1e+37 1e+37 0 1 empty empty empty 0 -8 0 10
-262144 -1 -1 0 256;
#X obj 123 817 nbx 5 14 -1e+37 1e+37 0 1 empty empty empty 0 -8 0 10
-262144 -1 -1 86 256;
#X obj 187 822 nbx 5 14 -1e+37 1e+37 0 1 empty empty empty 0 -8 0 10
-262144 -1 -1 0 256;
#X obj 20 836 poftranslate, f 21;
#X floatatom 283 877 5 0 0 0 - - -;
#X obj 280 828 - 1;
#X obj 349 856 / 2;
#X obj 280 803 * 2;
#X msg 439 728 0;
#X msg 379 81 text \$1 \$2 \$3 \$4 \$5 \$6 \$7 \$8 \$9 \$10 \$11 \$12
\$13 \$14 \$15 \$16;
#X obj 366 120 nbx 5 14 -1e+37 1e+37 0 1 empty empty empty 0 -8 0 10
-262144 -1 -1 -47 256;
#X obj 424 120 nbx 5 14 -1e+37 1e+37 0 1 empty empty empty 0 -8 0 10
-262144 -1 -1 32 256;
#X obj 321 140 poftranslate, f 21;
#X obj 380 14 inlet;
#X obj 351 208 poftexts asimov 30;
#X obj 461 34 symbol;
#X obj 351 182 pofcolor 1 1 1 1 1;
#X obj 289 359 s OpenKb-\$1-rcv;
#N canvas 410 582 450 621 TouchLong 0;
#X obj 172 307 bng 15 250 50 0 empty empty empty 17 7 0 10 -262144
-1 -1;
#X obj 85 42 route up down;
#X msg 85 65 0;
#X msg 122 64 1;
#X obj 85 88 tgl 15 0 empty empty empty 17 7 0 10 -262144 -1 -1 0 1
;
#X obj 101 114 sel 0 1, f 29;
#X msg 187 185 1;
#X msg 168 138 stop;
#X msg 135 162 0;
#X obj 135 214 f;
#X obj 135 236 sel 1;
#X obj 56 332 spigot 1;
#X obj 135 260 t b b b;
#X msg 176 283 0;
#X msg 101 309 1;
#X obj 101 139 t b b b b;
#X obj 187 164 del 300;
#X obj 30 377 bng 15 250 50 0 empty empty empty 17 7 0 10 -262144 -1
-1;
#X obj 79 7 inlet;
#X obj 23 509 outlet;
#X obj 177 400 outlet;
#X msg 165 372 1;
#X obj 73 387 r PrefGamme-r;
#X obj 56 483 f;
#X floatatom 98 516 5 0 0 0 - - -;
#X floatatom 103 488 5 0 0 0 - - -;
#X obj 24 484 bng 15 250 50 0 empty empty empty 17 7 0 10 -262144 -1
-1;
#X obj 153 451 print;
#X obj 95 418 unpack f f;
#X connect 1 0 2 0;
#X connect 1 1 3 0;
#X connect 2 0 4 0;
#X connect 3 0 4 0;
#X connect 4 0 5 0;
#X connect 5 0 15 0;
#X connect 5 1 16 0;
#X connect 6 0 9 0;
#X connect 7 0 16 0;
#X connect 8 0 9 0;
#X connect 9 0 10 0;
#X connect 10 0 12 0;
#X connect 11 0 17 0;
#X connect 11 0 23 0;
#X connect 12 1 0 0;
#X connect 12 1 21 0;
#X connect 12 2 13 0;
#X connect 13 0 11 1;
#X connect 14 0 11 1;
#X connect 15 0 14 0;
#X connect 15 1 11 0;
#X connect 15 2 8 0;
#X connect 15 3 7 0;
#X connect 16 0 6 0;
#X connect 18 0 1 0;
#X connect 21 0 20 0;
#X connect 22 0 28 0;
#X connect 23 0 19 0;
#X connect 23 0 24 0;
#X connect 26 0 23 0;
#X connect 28 0 23 1;
#X connect 28 0 25 0;
#X restore 289 312 pd TouchLong;
#X f 18;
#X obj 412 359 s ResetSeq-\$1;
#X connect 0 0 1 0;
#X connect 1 0 44 0;
#X connect 2 0 17 0;
#X connect 3 0 4 0;
#X connect 4 0 32 0;
#X connect 4 1 5 0;
#X connect 5 0 44 0;
#X connect 6 0 7 0;
#X connect 7 0 17 0;
#X connect 8 0 32 1;
#X connect 9 0 32 2;
#X connect 10 0 18 0;
#X connect 11 0 12 0;
#X connect 12 0 19 0;
#X connect 13 0 12 0;
#X connect 14 0 16 1;
#X connect 15 0 16 2;
#X connect 16 0 10 0;
#X connect 16 0 22 0;
#X connect 19 0 18 0;
#X connect 20 0 22 1;
#X connect 21 0 22 2;
#X connect 22 0 45 0;
#X connect 22 0 50 0;
#X connect 23 0 45 1;
#X connect 24 0 29 0;
#X connect 25 0 26 0;
#X connect 26 0 27 0;
#X connect 27 0 28 0;
#X connect 28 0 30 0;
#X connect 28 0 41 0;
#X connect 29 0 33 0;
#X connect 29 1 34 0;
#X connect 32 0 2 0;
#X connect 32 0 16 0;
#X connect 32 0 59 0;
#X connect 33 0 45 0;
#X connect 34 0 45 0;
#X connect 35 0 22 3;
#X connect 36 1 25 0;
#X connect 37 0 27 1;
#X connect 37 0 31 0;
#X connect 38 0 40 0;
#X connect 38 1 39 0;
#X connect 39 0 5 1;
#X connect 40 0 5 1;
#X connect 42 0 24 0;
#X connect 43 0 38 0;
#X connect 44 1 65 0;
#X connect 45 0 36 0;
#X connect 47 0 50 1;
#X connect 48 0 50 2;
#X connect 49 0 50 3;
#X connect 50 0 46 0;
#X connect 52 0 51 0;
#X connect 54 0 52 0;
#X connect 55 0 41 0;
#X connect 56 0 61 0;
#X connect 57 0 59 1;
#X connect 58 0 59 2;
#X connect 59 0 63 0;
#X connect 60 0 62 0;
#X connect 60 0 56 0;
#X connect 63 0 61 0;
#X connect 65 0 64 0;
#X connect 65 1 66 0;
#X restore 491 430 pd gui;
#X f 27;
#X obj 499 348 bng 15 250 50 0 empty empty empty 17 7 0 10 -262144
-1 -1;
#X obj 582 320 loadbang;
#X obj 528 283 t b b;
#X obj 591 174 t b f;
#X floatatom 458 268 5 0 0 0 - - -;
#X floatatom 730 234 5 0 0 0 - - -;
#X msg 607 278 list _ _ _ _ _ _ _ _ _ _ _ _ _ _ _ _ _ _ _ _ _ _ _ _
_ _ _ _ _ _ _ _, f 43;
#X obj 607 253 r ResetSeq-\$1;
#X obj 580 348 del 100;
#X obj 656 361 bng 15 250 50 0 empty empty empty 17 7 0 10 -262144
-1 -1;
#X obj 265 467 bng 15 250 50 0 empty empty empty 17 7 0 10 -262144
-1 -1;
#X floatatom 123 355 5 0 0 0 - - -;
#X obj 171 323 * 1;
#X obj 19 649 s mainSeq-play;
#X obj 19 500 t b;
#X msg 19 592 1, f 1;
#X obj 350 465 s mainSeq-play;
#X obj 19 555 del 2;
#X floatatom 244 444 5 0 0 0 - - -;
#X obj 49 513 sel 1 2 3 4, f 15;
#X obj 60 448 bng 15 250 50 0 empty empty empty 17 7 0 10 -262144 -1
-1;
#X obj 16 476 bng 15 250 50 0 empty empty empty 17 7 0 10 -262144 -1
-1;
#X obj 211 345 + 0;
#X msg 350 442 0;
#X obj 350 419 del 10;
#X obj 268 35 s mainSeq-play;
#X obj 258 9 pipe 15;
#X connect 0 0 1 0;
#X connect 0 0 7 0;
#X connect 0 0 19 0;
#X connect 0 0 46 0;
#X connect 1 0 0 1;
#X connect 4 0 0 1;
#X connect 5 0 59 0;
#X connect 7 0 11 0;
#X connect 7 0 18 0;
#X connect 7 0 93 0;
#X connect 8 0 35 0;
#X connect 10 0 14 0;
#X connect 11 0 3 0;
#X connect 11 0 87 0;
#X connect 11 0 92 0;
#X connect 11 0 94 0;
#X connect 13 0 6 0;
#X connect 13 0 10 0;
#X connect 13 0 85 0;
#X connect 13 0 95 0;
#X connect 16 0 52 0;
#X connect 17 0 27 0;
#X connect 23 0 33 0;
#X connect 24 0 22 0;
#X connect 25 0 0 0;
#X connect 26 0 31 0;
#X connect 26 0 32 0;
#X connect 27 0 28 0;
#X connect 29 0 30 0;
#X connect 29 0 50 0;
#X connect 33 0 0 0;
#X connect 34 0 50 0;
#X connect 35 0 0 0;
#X connect 35 1 4 0;
#X connect 35 2 36 0;
#X connect 35 2 99 0;
#X connect 36 0 37 0;
#X connect 36 1 34 0;
#X connect 36 2 2 0;
#X connect 37 0 29 0;
#X connect 42 0 26 0;
#X connect 42 0 83 0;
#X connect 43 0 44 0;
#X connect 43 0 45 0;
#X connect 45 0 42 1;
#X connect 45 0 91 0;
#X connect 46 0 42 0;
#X connect 50 0 33 1;
#X connect 51 0 52 0;
#X connect 52 0 15 0;
#X connect 52 0 49 0;
#X connect 54 0 76 0;
#X connect 56 0 53 0;
#X connect 56 0 54 0;
#X connect 57 0 69 0;
#X connect 57 1 61 0;
#X connect 59 0 57 0;
#X connect 59 1 60 0;
#X connect 60 0 65 0;
#X connect 61 0 62 0;
#X connect 61 1 63 0;
#X connect 61 2 66 0;
#X connect 62 0 75 0;
#X connect 63 0 62 0;
#X connect 64 0 65 0;
#X connect 65 0 57 1;
#X connect 68 0 67 0;
#X connect 69 0 67 0;
#X connect 69 1 68 0;
#X connect 69 2 58 0;
#X connect 69 2 77 0;
#X connect 70 0 72 0;
#X connect 71 0 72 1;
#X connect 71 1 72 2;
#X connect 73 0 71 0;
#X connect 74 0 81 0;
#X connect 75 0 81 0;
#X connect 75 0 71 0;
#X connect 75 1 64 0;
#X connect 76 0 81 0;
#X connect 76 0 71 0;
#X connect 76 1 55 0;
#X connect 76 1 78 0;
#X connect 79 0 72 1;
#X connect 79 0 72 2;
#X connect 80 0 79 0;
#X connect 81 0 71 1;
#X connect 82 0 71 1;
#X connect 83 0 97 0;
#X connect 85 0 7 1;
#X connect 87 0 90 0;
#X connect 88 0 86 0;
#X connect 90 0 88 0;
#X connect 92 0 38 0;
#X connect 92 1 39 0;
#X connect 92 2 40 0;
#X connect 92 3 41 0;
#X connect 95 0 46 1;
#X connect 96 0 89 0;
#X connect 97 0 96 0;
#X connect 99 0 98 0;
#X coords 0 -1 1 1 150 60 1 46 0;
