#N canvas 1920 62 710 648 12;
#X obj 49 406 i;
#X obj 77 406 + 1;
#X obj 207 106 s reset_measure;
#X floatatom 67 488 5 0 0 0 - - -;
#X msg 72 377 0, f 1;
#N canvas 127 582 761 621 Keyboard 0;
#X obj 86 368 s pofkb_open;
#X obj 459 6 r pofkb_return;
#X obj 82 449 s pofkb_control;
#X obj 298 24 bng 15 250 50 0 empty empty empty 17 7 0 10 -262144 -1
-1;
#X obj 315 105 i;
#X obj 347 110 + 1;
#X msg 253 12 0;
#X obj 289 280 list store;
#X msg 291 252 append \$1;
#X msg 381 293 bang;
#X obj 241 39 t b f f;
#X obj 293 204 i;
#X obj 287 310 t b b a;
#X obj 442 206 list split 1;
#N canvas 2328 310 450 300 corresLetter 0;
#X obj 61 42 inlet;
#X msg 69 122 a, f 1;
#X obj 69 96 sel 1 2 3 4 5 6 7 8 9 10 11 12, f 52;
#X msg 95 122 b, f 1;
#X msg 121 122 c, f 1;
#X msg 147 122 d, f 1;
#X msg 173 122 e, f 1;
#X msg 199 122 f, f 1;
#X msg 225 122 g, f 1;
#X msg 251 122 h, f 1;
#X msg 277 122 i, f 1;
#X msg 303 122 j, f 1;
#X msg 329 122 k, f 1;
#X msg 355 122 l, f 1;
#X obj 155 258 outlet;
#X obj 155 222 symbol;
#X msg 378 123 x, f 1;
#X obj 31 206 list tosymbol;
#X connect 0 0 17 0;
#X connect 1 0 15 0;
#X connect 2 0 1 0;
#X connect 2 1 3 0;
#X connect 2 2 4 0;
#X connect 2 3 5 0;
#X connect 2 4 6 0;
#X connect 2 5 7 0;
#X connect 2 6 8 0;
#X connect 2 7 9 0;
#X connect 2 8 10 0;
#X connect 2 9 11 0;
#X connect 2 10 12 0;
#X connect 2 11 13 0;
#X connect 2 12 16 0;
#X connect 3 0 15 0;
#X connect 4 0 15 0;
#X connect 5 0 15 0;
#X connect 6 0 15 0;
#X connect 7 0 15 0;
#X connect 8 0 15 0;
#X connect 9 0 15 0;
#X connect 10 0 15 0;
#X connect 11 0 15 0;
#X connect 12 0 15 0;
#X connect 13 0 15 0;
#X connect 15 0 14 0;
#X connect 16 0 15 0;
#X connect 17 0 15 0;
#X restore 285 227 pd corresLetter;
#N canvas 540 660 983 858 toTab 0;
#X obj 39 0 inlet;
#X msg 109 409 1, f 1;
#X msg 132 409 2, f 1;
#X msg 155 409 3, f 1;
#X msg 178 409 4, f 1;
#X floatatom 229 531 5 0 0 0 - - -;
#X obj 55 349 t b f;
#X obj 40 404 i;
#X obj 70 403 + 1;
#X obj 39 536 pack f f;
#X msg 22 337 0;
#X obj 109 506 f;
#X obj 49 489 t f b;
#X obj 131 620 outlet;
#X obj 35 172 sel 32;
#X obj 74 200 f;
#X obj 328 508 f;
#X obj 328 566 i;
#X obj 363 570 + 1;
#X floatatom 267 613 5 0 0 0 - - -;
#X obj 207 579 print;
#X msg 294 529 0, f 1;
#X obj 328 533 t b;
#X obj 328 589 + 1;
#X obj 332 645 s \$1-Len;
#X msg 30 204 0;
#X floatatom 5 481 5 0 0 0 - - -;
#N canvas 0 96 450 300 >0 0;
#X obj 135 41 inlet;
#X obj 139 217 outlet;
#X obj 127 88 t b b;
#X obj 129 138 del 10;
#X msg 178 100 stop;
#X msg 134 171 0;
#X connect 0 0 2 0;
#X connect 2 0 3 0;
#X connect 2 1 4 0;
#X connect 3 0 5 0;
#X connect 4 0 3 0;
#X connect 5 0 1 0;
#X restore 145 309 pd >0;
#X obj 291 290 key;
#X floatatom 292 331 5 0 0 0 - - -;
#X msg 202 409 0, f 1;
#X msg 225 409 0, f 1;
#X obj 42 135 t f f f;
#X obj 83 230 - 73;
#X obj 83 280 + 73;
#X obj 17 435 sel 31;
#X obj 30 612 print;
#X obj 273 387 sel 73 67 82 79 120, f 21;
#X obj 109 381 sel 73 74 75 76, f 21;
#X obj 214 169 print;
#X obj 166 74 moses 95;
#X obj 236 75 moses 96;
#X obj 166 104 f;
#X obj 168 181 t b;
#X msg 146 213 23;
#X obj 171 33 f;
#X obj 171 3 moses 32;
#X obj 241 4 moses 33;
#X obj 208 40 sel 32;
#X obj 203 114 sel 95;
#X obj 56 66 t f f;
#X obj 83 255 mod 4;
#X obj 591 555 outlet;
#X obj 620 273 t b f;
#X obj 620 300 i;
#X obj 650 300 + 1;
#X obj 591 525 pack f f;
#X msg 726 252 0;
#X obj 663 457 f;
#X obj 620 414 t f b;
#X obj 620 224 f;
#X obj 749 404 f;
#X obj 749 462 i;
#X obj 784 466 + 1;
#X msg 715 425 0, f 1;
#X obj 749 429 t b;
#X obj 749 485 + 1;
#X floatatom 541 290 5 0 0 0 - - -;
#N canvas 0 582 450 300 >0 0;
#X obj 135 41 inlet;
#X obj 139 217 outlet;
#X obj 127 88 t b b;
#X obj 129 138 del 10;
#X msg 178 100 stop;
#X msg 134 171 0;
#X connect 0 0 2 0;
#X connect 2 0 3 0;
#X connect 2 1 4 0;
#X connect 3 0 5 0;
#X connect 4 0 3 0;
#X connect 5 0 1 0;
#X restore 738 303 pd >0;
#X obj 620 248 t f f;
#X obj 708 365 t f f;
#X obj 670 495 + 13;
#X floatatom 693 539 5 0 0 0 - - -;
#X obj 653 350 sel 31;
#X obj 749 512 s \$1-LenOulip;
#X obj 653 376 t b b;
#X obj 620 326 t f f;
#X obj 581 159 t b f, f 9;
#X connect 0 0 50 0;
#X connect 1 0 11 1;
#X connect 1 0 16 0;
#X connect 2 0 11 1;
#X connect 2 0 16 0;
#X connect 3 0 11 1;
#X connect 3 0 16 0;
#X connect 4 0 11 1;
#X connect 4 0 16 0;
#X connect 6 0 7 0;
#X connect 6 1 38 0;
#X connect 7 0 8 0;
#X connect 7 0 12 0;
#X connect 7 0 26 0;
#X connect 7 0 35 0;
#X connect 8 0 7 1;
#X connect 9 0 13 0;
#X connect 9 0 27 0;
#X connect 10 0 7 1;
#X connect 11 0 9 1;
#X connect 12 0 9 0;
#X connect 12 1 11 0;
#X connect 14 0 25 0;
#X connect 14 1 15 0;
#X connect 15 0 33 0;
#X connect 16 0 22 0;
#X connect 17 0 18 0;
#X connect 17 0 23 0;
#X connect 18 0 17 1;
#X connect 21 0 17 1;
#X connect 22 0 17 0;
#X connect 23 0 19 0;
#X connect 23 0 24 0;
#X connect 27 0 10 0;
#X connect 27 0 21 0;
#X connect 28 0 29 0;
#X connect 30 0 11 1;
#X connect 30 0 16 0;
#X connect 31 0 11 1;
#X connect 31 0 16 0;
#X connect 32 0 14 0;
#X connect 32 1 15 1;
#X connect 32 2 77 0;
#X connect 33 0 51 0;
#X connect 34 0 6 0;
#X connect 35 0 10 0;
#X connect 35 0 21 0;
#X connect 38 0 1 0;
#X connect 38 1 2 0;
#X connect 38 2 3 0;
#X connect 38 3 4 0;
#X connect 38 4 30 0;
#X connect 40 0 42 0;
#X connect 40 1 41 0;
#X connect 40 1 49 0;
#X connect 41 1 42 0;
#X connect 42 0 32 0;
#X connect 43 0 44 0;
#X connect 44 0 34 0;
#X connect 45 0 40 0;
#X connect 46 0 45 0;
#X connect 46 1 47 0;
#X connect 46 1 48 0;
#X connect 47 1 45 0;
#X connect 48 0 43 0;
#X connect 49 0 43 0;
#X connect 50 0 46 0;
#X connect 51 0 34 0;
#X connect 53 0 54 0;
#X connect 53 1 70 0;
#X connect 54 0 55 0;
#X connect 54 0 67 0;
#X connect 54 0 76 0;
#X connect 55 0 54 1;
#X connect 56 0 68 0;
#X connect 56 0 52 0;
#X connect 57 0 54 1;
#X connect 58 0 71 0;
#X connect 58 0 56 1;
#X connect 59 0 56 0;
#X connect 59 1 58 0;
#X connect 60 0 69 0;
#X connect 61 0 65 0;
#X connect 62 0 63 0;
#X connect 62 0 66 0;
#X connect 63 0 62 1;
#X connect 64 0 62 1;
#X connect 65 0 62 0;
#X connect 66 0 72 0;
#X connect 66 0 74 0;
#X connect 68 0 57 0;
#X connect 68 0 64 0;
#X connect 69 0 53 0;
#X connect 70 0 58 1;
#X connect 70 1 61 0;
#X connect 73 0 75 0;
#X connect 75 0 64 0;
#X connect 75 1 57 0;
#X connect 76 0 59 0;
#X connect 76 1 73 0;
#X connect 77 0 60 0;
#X connect 77 1 60 1;
#X restore 542 295 pd toTab;
#X obj 586 408 outlet;
#X text 381 16 open kb;
#X obj 336 1 inlet;
#X msg 82 410 text \$1 \$2 \$3 \$4 \$5 \$6 \$7 \$8 \$9 \$10 \$11 \$12
\$13 \$14 \$15 \$16 \, title Enter part's list: \, charlimit 32;
#X obj 84 308 symbol \$1;
#X symbolatom 103 347 10 0 0 0 - - -;
#X obj 145 257 bng 15 250 50 0 empty empty empty 17 7 0 10 -262144
-1 -1;
#X obj 349 28 t b b;
#X obj 160 221 print totab;
#X obj 168 155 print slice;
#X obj 462 68 spigot 0;
#X obj 564 69 inlet;
#X obj 494 324 sel 1;
#X obj 455 510 t a;
#X obj 463 120 list fromsymbol;
#X obj 463 93 symbol;
#X obj 461 31 list split 1;
#X obj 459 174 t a a, f 13;
#X obj 543 226 list split 1;
#X obj 671 411 outlet;
#X obj 293 182 tabread \$1-SeqOulip;
#X obj 520 393 print;
#X obj 315 131 sel 31;
#X obj 333 348 r ResetSeq-\$1;
#X obj 186 265 print;
#X connect 1 0 32 0;
#X connect 4 0 5 0;
#X connect 4 0 36 0;
#X connect 4 0 38 0;
#X connect 5 0 4 1;
#X connect 6 0 10 0;
#X connect 7 0 12 0;
#X connect 8 0 7 0;
#X connect 9 0 7 1;
#X connect 10 0 7 0;
#X connect 10 1 4 1;
#X connect 11 0 14 0;
#X connect 12 0 20 0;
#X connect 12 1 9 0;
#X connect 12 2 19 0;
#X connect 13 1 33 0;
#X connect 14 0 8 0;
#X connect 15 0 16 0;
#X connect 18 0 23 0;
#X connect 19 0 2 0;
#X connect 20 0 0 0;
#X connect 20 0 21 0;
#X connect 22 0 20 0;
#X connect 23 0 9 0;
#X connect 23 1 4 0;
#X connect 26 0 31 0;
#X connect 27 0 26 1;
#X connect 27 0 28 0;
#X connect 28 0 9 0;
#X connect 30 0 33 0;
#X connect 31 0 30 0;
#X connect 32 1 26 0;
#X connect 33 0 13 0;
#X connect 33 1 34 0;
#X connect 34 0 15 0;
#X connect 36 0 11 0;
#X connect 38 0 6 0;
#X connect 38 1 23 0;
#X restore 321 141 pd Keyboard;
#X obj 107 34 bng 25 250 50 0 OpenKb-\$1-snd OpenKb-\$1-rcv OpenKb-\$1
-2 -10 0 10 -262130 -1 -1;
#X floatatom 230 317 5 0 0 0 - - -;
#X obj 49 433 mod 8;
#X obj 362 426 inlet;
#X obj 49 34 tgl 25 0 StartSeqPart-\$1-snd StartSeqPart-\$1-rcv Start
-2 -10 0 10 -260097 -1 -1 0 1;
#X obj 334 570 aptab2 SONGschoolscape \$1-Seq \$1-Seq 32 1;
#X obj 311 304 apf SONGschoolscape \$1-Len \$1-Len 1;
#X obj 49 464 tabread \$1-Seq;
#X obj 335 544 table \$1-Seq 32;
#X obj 202 284 r \$1-Len;
#X obj 573 324 s \$1-Len;
#X obj 321 59 t b b, f 13;
#X obj 449 58 s \$1-Seq;
#X obj 352 9 loadbang;
#X msg 409 89 1, f 1;
#X obj 424 161 t b b a, f 11;
#X obj 424 211 del 10;
#X msg 461 187 stop;
#X msg 409 230 0, f 1;
#X obj 409 122 tgl 15 0 empty empty empty 17 7 0 10 -262144 -1 -1 0
1;
#X obj 566 87 r PofPartSeqSolo;
#X floatatom 31 453 2 0 0 0 - - -;
#X floatatom 31 426 2 0 0 0 - - -;
#N canvas 2430 62 550 505 TabSeq 0;
#X obj 99 40 bng 15 250 50 0 empty empty empty 17 7 0 10 -262144 -1
-1;
#X obj 116 121 i;
#X obj 148 121 + 1;
#X msg 54 28 0;
#X obj 88 321 list store;
#X msg 90 293 append \$1;
#X msg 182 309 bang;
#X obj 42 55 t b f f;
#X obj 95 224 i;
#X obj 86 351 t b b a;
#N canvas 2652 62 520 677 corresLetter 0;
#X obj 61 42 inlet;
#X obj 155 258 outlet;
#X obj 155 222 symbol;
#X obj 28 175 list tosymbol;
#X obj 108 442 print;
#X obj 221 214 i;
#X obj 250 214 + 1;
#X floatatom 221 257 5 0 0 0 - - -;
#X floatatom 413 225 5 0 0 0 - - -;
#X obj 218 100 t b b a;
#X msg 241 181 0, f 1;
#X obj 290 270 sel 2;
#X obj 329 197 - 1;
#X obj 291 391 i;
#X obj 320 391 + 1;
#X msg 339 355 0, f 1;
#X obj 292 296 t b b;
#X obj 339 326 del 200;
#X obj 320 448 t b b;
#X obj 241 155 del 600;
#X obj 272 424 sel 16;
#X floatatom 405 460 5 0 0 0 - - -;
#X msg 142 338 95;
#X obj 382 187 r \$1-LenOulip;
#X connect 0 0 3 0;
#X connect 0 0 9 0;
#X connect 2 0 1 0;
#X connect 3 0 2 0;
#X connect 5 0 6 0;
#X connect 5 0 7 0;
#X connect 5 0 11 0;
#X connect 6 0 5 1;
#X connect 9 0 5 0;
#X connect 9 1 19 0;
#X connect 10 0 5 1;
#X connect 11 0 16 0;
#X connect 12 0 11 1;
#X connect 13 0 14 0;
#X connect 13 0 20 0;
#X connect 13 0 21 0;
#X connect 14 0 13 1;
#X connect 15 0 13 1;
#X connect 16 0 13 0;
#X connect 16 1 17 0;
#X connect 17 0 15 0;
#X connect 18 0 22 0;
#X connect 18 1 13 0;
#X connect 19 0 10 0;
#X connect 20 1 18 0;
#X connect 22 0 3 0;
#X connect 23 0 8 0;
#X connect 23 0 13 1;
#X connect 23 0 11 1;
#X restore 90 258 pd corresLetter;
#X obj 137 17 inlet;
#X obj 150 44 t b b;
#X obj 171 376 list trim;
#X obj 132 410 outlet;
#X obj 69 3 loadbang;
#X obj 347 51 bng 15 250 50 0 empty empty empty 17 7 0 10 -262144 -1
-1;
#X obj 364 132 i;
#X obj 396 132 + 1;
#X msg 302 39 0;
#X obj 336 332 list store;
#X msg 338 304 append \$1;
#X msg 430 320 bang;
#X obj 290 66 t b f f;
#X obj 343 235 i;
#X obj 334 362 t b b a;
#N canvas 2705 62 628 803 corresLetter 0;
#X obj 69 45 inlet;
#X obj 144 674 outlet;
#X symbolatom 9 349 10 0 0 0 - - -;
#X obj 31 421 print;
#X obj 146 235 symbol;
#X msg 139 175 I, f 1;
#X msg 165 175 C, f 1;
#X msg 191 175 R, f 1;
#X msg 217 175 O, f 1;
#X obj 60 109 sel 1 2 3 4 5, f 52;
#X msg 243 175 X, f 1;
#X obj 28 175 list tosymbol;
#X obj 288 302 print;
#X obj 178 393 i;
#X obj 207 393 + 1;
#X floatatom 178 436 5 0 0 0 - - -;
#X obj 339 366 r \$1-Len;
#X floatatom 370 404 5 0 0 0 - - -;
#X obj 175 308 t b b a;
#X msg 198 360 0, f 1;
#X obj 198 334 del 200;
#X obj 247 449 sel 2;
#X obj 300 405 - 1;
#X obj 248 570 i;
#X obj 277 570 + 1;
#X msg 296 534 0, f 1;
#X obj 249 475 t b b;
#X obj 296 505 del 200;
#X obj 228 603 sel 16;
#X msg 97 440 _, f 1;
#X obj 277 627 t b b;
#X obj 70 82 mod 4;
#X connect 0 0 31 0;
#X connect 4 0 1 0;
#X connect 4 0 18 0;
#X connect 5 0 4 0;
#X connect 6 0 4 0;
#X connect 7 0 4 0;
#X connect 8 0 4 0;
#X connect 9 0 5 0;
#X connect 9 1 6 0;
#X connect 9 2 7 0;
#X connect 9 3 8 0;
#X connect 10 0 4 0;
#X connect 11 0 4 0;
#X connect 13 0 14 0;
#X connect 13 0 15 0;
#X connect 13 0 21 0;
#X connect 14 0 13 1;
#X connect 16 0 17 0;
#X connect 16 0 22 0;
#X connect 16 0 23 1;
#X connect 18 0 13 0;
#X connect 18 1 20 0;
#X connect 19 0 13 1;
#X connect 20 0 19 0;
#X connect 21 0 26 0;
#X connect 22 0 21 1;
#X connect 23 0 24 0;
#X connect 23 0 28 0;
#X connect 24 0 23 1;
#X connect 25 0 23 1;
#X connect 26 0 23 0;
#X connect 26 1 27 0;
#X connect 27 0 25 0;
#X connect 28 1 30 0;
#X connect 29 0 4 0;
#X connect 30 0 29 0;
#X connect 30 1 23 0;
#X connect 31 0 9 0;
#X restore 339 268 pd corresLetter;
#X obj 398 2 inlet;
#X obj 398 55 t b b;
#X obj 419 387 list trim;
#X obj 375 434 outlet;
#X obj 262 -9 loadbang;
#X obj 342 209 tabread \$1-Seq;
#X obj 464 15 del 500;
#X obj 94 198 tabread \$1-SeqOulip;
#X obj 115 148 sel 31;
#X obj 364 158 sel 31;
#X connect 0 0 12 0;
#X connect 1 0 2 0;
#X connect 1 0 34 0;
#X connect 1 0 35 0;
#X connect 2 0 1 1;
#X connect 3 0 7 0;
#X connect 4 0 9 0;
#X connect 5 0 4 0;
#X connect 6 0 4 1;
#X connect 7 0 4 0;
#X connect 7 1 1 1;
#X connect 8 0 10 0;
#X connect 9 0 28 0;
#X connect 9 1 6 0;
#X connect 9 2 13 0;
#X connect 9 2 14 0;
#X connect 10 0 5 0;
#X connect 11 0 12 0;
#X connect 12 0 6 0;
#X connect 12 1 1 0;
#X connect 15 0 12 0;
#X connect 16 0 28 0;
#X connect 17 0 18 0;
#X connect 17 0 32 0;
#X connect 17 0 36 0;
#X connect 18 0 17 1;
#X connect 19 0 23 0;
#X connect 20 0 25 0;
#X connect 21 0 20 0;
#X connect 22 0 20 1;
#X connect 23 0 20 0;
#X connect 23 1 17 1;
#X connect 24 0 26 0;
#X connect 25 1 22 0;
#X connect 25 2 29 0;
#X connect 25 2 30 0;
#X connect 26 0 21 0;
#X connect 27 0 28 0;
#X connect 28 0 22 0;
#X connect 28 1 17 0;
#X connect 32 0 24 0;
#X connect 33 0 28 0;
#X connect 34 0 8 0;
#X connect 35 0 3 0;
#X connect 35 1 12 0;
#X connect 36 0 19 0;
#X connect 36 1 28 0;
#X restore 423 430 pd TabSeq;
#N canvas 29 582 816 933 gui 0;
#X obj 125 163 loadbang;
#X msg 125 185 draw 1;
#X obj 75 336 pofcolor 0 0 0 1;
#X obj 81 43 inlet;
#X obj 81 64 t a a;
#X obj 112 143 pofcolor 1 1 1 1;
#X obj 287 92 inlet;
#X msg 254 252 text \$1 \$2 \$3 \$4 \$5 \$6 \$7 \$8 \$9 \$10 \$11 \$12
\$13 \$14 \$15 \$16;
#X obj 90 274 nbx 5 14 -1e+37 1e+37 0 1 empty empty empty 0 -8 0 10
-262144 -1 -1 43 256;
#X obj 148 274 nbx 5 14 -1e+37 1e+37 0 1 empty empty empty 0 -8 0 10
-262144 -1 -1 0 256;
#X obj 69 441 pofcolor 0 0 0 1;
#X obj 265 402 loadbang;
#X obj 263 428 symbol \$1;
#X obj 239 402 bng 15 250 50 0 empty empty empty 17 7 0 10 -262144
-1 -1;
#X obj 91 386 nbx 5 14 -1e+37 1e+37 0 1 empty empty empty 0 -8 0 10
-262144 -1 -1 -324 256;
#X obj 149 386 nbx 5 14 -1e+37 1e+37 0 1 empty empty empty 0 -8 0 10
-262144 -1 -1 0 256;
#X obj 46 406 poftranslate, f 21;
#X obj 75 362 poftexts asimov 45;
#X obj 69 467 poftexts asimov 45;
#X msg 263 452 text \$1 :;
#X obj 88 510 nbx 5 14 -1e+37 1e+37 0 1 empty empty empty 0 -8 0 10
-262144 -1 -1 692 256;
#X obj 146 510 nbx 5 14 -1e+37 1e+37 0 1 empty empty empty 0 -8 0 10
-262144 -1 -1 0 256;
#X obj 43 530 poftranslate, f 21;
#X floatatom 201 605 5 0 0 0 - - -;
#X obj 281 515 tgl 15 0 empty empty empty 17 7 0 10 -262144 -1 -1 0
1;
#X obj 197 681 route down;
#X obj 200 706 b;
#X obj 196 732 f;
#X obj 196 762 == 0;
#X obj 281 537 sel 0 1;
#X floatatom 129 741 5 0 0 0 - - -;
#X floatatom 250 743 5 0 0 0 - - -;
#X obj 45 294 poftranslate, f 21;
#X msg 282 561 set instruments/BoutonMachineOff.png;
#X msg 301 583 set instruments/BoutonMachineOn.png;
#X obj 215 499 nbx 5 14 -1e+37 1e+37 0 1 empty empty empty 0 -8 0 10
-262144 -1 -1 0 256;
#X obj 84 653 poftouch 45 45;
#X obj 235 708 r StartSeqPart-\$1-snd;
#X obj 164 55 sel 0 1;
#X msg 208 86 0.5;
#X msg 160 87 1;
#X obj 373 771 s StartSeqPart-\$1-rcv;
#X obj 307 496 r StartSeqPart-\$1-snd;
#X obj 171 31 r StartSeqPart-\$1-snd;
#X obj 109 225 poftouch 700 45;
#X obj 84 626 pofimage instruments/BoutonMachineOff.png 80 80;
#N canvas 264 573 720 754 loop 0;
#X obj 14 26 inlet;
#X floatatom 391 70 5 0 0 0 - - -;
#X obj 294 176 route down;
#X obj 297 201 b;
#X obj 293 227 f;
#X obj 262 259 == 0;
#X floatatom 226 236 5 0 0 0 - - -;
#X floatatom 347 238 5 0 0 0 - - -;
#X obj 181 148 poftouch 45 45;
#X obj 262 415 r LoopPofPartSeqSrtucture;
#X obj 316 298 s LoopPofPartSeqSrtucture;
#X obj 470 173 r LoopPofPartSeqSrtucture;
#X obj 186 507 pofcolor 0.2 0.2 0.2 1;
#X obj 162 661 pofcolor 0.8 0.8 0.8 1;
#X obj 69 571 loadbang;
#X obj 194 641 unpack f f f;
#X obj 218 486 unpack f f f;
#X msg 380 486 0.2 0.2 0.2;
#X msg 380 527 0.8 0.8 0.8;
#X msg 323 527 0 0 0 1;
#X obj 323 465 sel 1 0;
#X obj 437 462 loadbang;
#X obj 162 682 poftexts asimov 30;
#X msg 323 485 1 1 0 0;
#X msg 85 617 text Loop \, width 130 \, center 1;
#X obj 100 68 t a a;
#X obj 185 535 pofrect 60 60;
#X obj 181 121 pofimage mode/64px-Refresh_font_awesome.svg.png 60 60
80;
#X obj 185 68 pofcolor 0 0 0 0.3;
#X obj 469 205 == 0;
#X obj 535 289 loadbang;
#X msg 535 321 0;
#X connect 0 0 25 0;
#X connect 1 0 27 1;
#X connect 2 0 3 0;
#X connect 3 0 4 0;
#X connect 4 0 5 0;
#X connect 4 0 7 0;
#X connect 5 0 6 0;
#X connect 5 0 10 0;
#X connect 8 1 2 0;
#X connect 9 0 20 0;
#X connect 11 0 29 0;
#X connect 11 0 4 1;
#X connect 12 0 26 0;
#X connect 13 0 22 0;
#X connect 14 0 24 0;
#X connect 15 0 13 1;
#X connect 15 1 13 2;
#X connect 15 2 13 3;
#X connect 16 0 12 1;
#X connect 16 1 12 2;
#X connect 16 2 12 3;
#X connect 17 0 16 0;
#X connect 17 0 18 0;
#X connect 18 0 15 0;
#X connect 19 0 15 0;
#X connect 20 0 23 0;
#X connect 20 1 17 0;
#X connect 21 0 17 0;
#X connect 23 0 16 0;
#X connect 23 0 19 0;
#X connect 24 0 22 0;
#X connect 25 0 28 0;
#X connect 25 1 12 0;
#X connect 25 1 13 0;
#X connect 27 0 8 0;
#X connect 28 0 27 0;
#X connect 30 0 31 0;
#X connect 31 0 10 0;
#X restore 64 880 pd loop;
#X obj 65 817 nbx 5 14 -1e+37 1e+37 0 1 empty empty empty 0 -8 0 10
-262144 -1 -1 0 256;
#X obj 123 817 nbx 5 14 -1e+37 1e+37 0 1 empty empty empty 0 -8 0 10
-262144 -1 -1 86 256;
#X obj 187 822 nbx 5 14 -1e+37 1e+37 0 1 empty empty empty 0 -8 0 10
-262144 -1 -1 0 256;
#X obj 20 836 poftranslate, f 21;
#X floatatom 283 877 5 0 0 0 - - -;
#X obj 280 828 - 1;
#X obj 349 856 / 2;
#X obj 280 803 * 2;
#X msg 439 728 0;
#X msg 371 81 text \$1 \$2 \$3 \$4 \$5 \$6 \$7 \$8 \$9 \$10 \$11 \$12
\$13 \$14 \$15 \$16;
#X obj 366 120 nbx 5 14 -1e+37 1e+37 0 1 empty empty empty 0 -8 0 10
-262144 -1 -1 -47 256;
#X obj 424 120 nbx 5 14 -1e+37 1e+37 0 1 empty empty empty 0 -8 0 10
-262144 -1 -1 32 256;
#X obj 321 140 poftranslate, f 21;
#X obj 372 14 inlet;
#X obj 351 208 poftexts asimov 30;
#X obj 453 34 symbol;
#X obj 351 182 pofcolor 1 1 1 1 1;
#X obj 238 348 s OpenKb-\$1-rcv;
#N canvas 410 582 450 621 TouchLong 0;
#X obj 172 307 bng 15 250 50 0 empty empty empty 17 7 0 10 -262144
-1 -1;
#X obj 85 42 route up down;
#X msg 85 65 0;
#X msg 122 64 1;
#X obj 85 88 tgl 15 0 empty empty empty 17 7 0 10 -262144 -1 -1 0 1
;
#X obj 101 114 sel 0 1, f 29;
#X msg 187 185 1;
#X msg 168 138 stop;
#X msg 135 162 0;
#X obj 135 214 f;
#X obj 135 236 sel 1;
#X obj 56 332 spigot 1;
#X obj 135 260 t b b b;
#X msg 176 283 0;
#X msg 101 309 1;
#X obj 101 139 t b b b b;
#X obj 187 164 del 300;
#X obj 30 377 bng 15 250 50 0 empty empty empty 17 7 0 10 -262144 -1
-1;
#X obj 79 7 inlet;
#X obj 23 509 outlet;
#X obj 177 400 outlet;
#X msg 165 372 1;
#X obj 73 387 r PrefGamme-r;
#X obj 56 483 f;
#X floatatom 98 516 5 0 0 0 - - -;
#X floatatom 103 488 5 0 0 0 - - -;
#X obj 24 484 bng 15 250 50 0 empty empty empty 17 7 0 10 -262144 -1
-1;
#X obj 153 451 print;
#X obj 95 418 unpack f f;
#X connect 1 0 2 0;
#X connect 1 1 3 0;
#X connect 2 0 4 0;
#X connect 3 0 4 0;
#X connect 4 0 5 0;
#X connect 5 0 15 0;
#X connect 5 1 16 0;
#X connect 6 0 9 0;
#X connect 7 0 16 0;
#X connect 8 0 9 0;
#X connect 9 0 10 0;
#X connect 10 0 12 0;
#X connect 11 0 17 0;
#X connect 11 0 23 0;
#X connect 12 1 0 0;
#X connect 12 1 21 0;
#X connect 12 2 13 0;
#X connect 13 0 11 1;
#X connect 14 0 11 1;
#X connect 15 0 14 0;
#X connect 15 1 11 0;
#X connect 15 2 8 0;
#X connect 15 3 7 0;
#X connect 16 0 6 0;
#X connect 18 0 1 0;
#X connect 21 0 20 0;
#X connect 22 0 28 0;
#X connect 23 0 19 0;
#X connect 23 0 24 0;
#X connect 26 0 23 0;
#X connect 28 0 23 1;
#X connect 28 0 25 0;
#X restore 238 301 pd TouchLong;
#X f 18;
#X obj 361 348 s ResetSeq-\$1;
#X connect 0 0 1 0;
#X connect 1 0 44 0;
#X connect 2 0 17 0;
#X connect 3 0 4 0;
#X connect 4 0 32 0;
#X connect 4 1 5 0;
#X connect 5 0 44 0;
#X connect 6 0 7 0;
#X connect 7 0 17 0;
#X connect 8 0 32 1;
#X connect 9 0 32 2;
#X connect 10 0 18 0;
#X connect 11 0 12 0;
#X connect 12 0 19 0;
#X connect 13 0 12 0;
#X connect 14 0 16 1;
#X connect 15 0 16 2;
#X connect 16 0 10 0;
#X connect 16 0 22 0;
#X connect 19 0 18 0;
#X connect 20 0 22 1;
#X connect 21 0 22 2;
#X connect 22 0 45 0;
#X connect 22 0 50 0;
#X connect 23 0 45 1;
#X connect 24 0 29 0;
#X connect 25 0 26 0;
#X connect 26 0 27 0;
#X connect 27 0 28 0;
#X connect 28 0 30 0;
#X connect 28 0 41 0;
#X connect 29 0 33 0;
#X connect 29 1 34 0;
#X connect 32 0 2 0;
#X connect 32 0 16 0;
#X connect 32 0 59 0;
#X connect 33 0 45 0;
#X connect 34 0 45 0;
#X connect 35 0 22 3;
#X connect 36 1 25 0;
#X connect 37 0 27 1;
#X connect 37 0 31 0;
#X connect 38 0 40 0;
#X connect 38 1 39 0;
#X connect 39 0 5 1;
#X connect 40 0 5 1;
#X connect 42 0 24 0;
#X connect 43 0 38 0;
#X connect 44 1 65 0;
#X connect 45 0 36 0;
#X connect 47 0 50 1;
#X connect 48 0 50 2;
#X connect 49 0 50 3;
#X connect 50 0 46 0;
#X connect 52 0 51 0;
#X connect 54 0 52 0;
#X connect 55 0 41 0;
#X connect 56 0 61 0;
#X connect 57 0 59 1;
#X connect 58 0 59 2;
#X connect 59 0 63 0;
#X connect 60 0 62 0;
#X connect 60 0 56 0;
#X connect 63 0 61 0;
#X connect 65 0 64 0;
#X connect 65 1 66 0;
#X restore 362 460 pd gui;
#X f 18;
#X obj 486 403 bng 15 250 50 0 empty empty empty 17 7 0 10 -262144
-1 -1;
#X obj 530 488 print;
#X obj 438 343 loadbang;
#X obj 311 330 t b;
#X obj 558 34 s PofPartSeqSolo;
#X obj 42 307 r PofPartBang;
#X msg 558 9 1;
#X obj 31 391 bng 15 250 50 0 empty empty empty 17 7 0 10 -262144 -1
-1;
#X msg 170 470 0;
#X obj 566 111 sel 0;
#X msg 566 135 0;
#X msg 95 136 0, f 1;
#X obj 116 165 s AllSeqPartsOff;
#X obj 170 513 s AllSeqPartsOff;
#X obj 216 490 s StartSeqPart-\$1-rcv;
#X obj 42 338 spigot 0;
#X msg 150 112 1, f 2;
#X obj 49 63 t b b f;
#X obj 95 86 sel 0 1;
#X obj 95 111 del 1;
#X obj 49 513 sel 1 2 3 4, f 15;
#X obj 49 610 s StartSeqPart-intro-rcv;
#X obj 74 586 s StartSeqPart-couplet-rcv;
#X obj 100 562 s StartSeqPart-refrain-rcv;
#X obj 125 538 s StartSeqPart-outro-rcv;
#X obj 170 442 spigot 0;
#X obj 223 392 r LoopPofPartSeqSrtucture;
#X floatatom 267 412 5 0 0 0 - - -;
#X obj 223 418 == 0;
#X obj 170 416 sel 7;
#X obj 335 519 table \$1-SeqOulip 32;
#X obj 334 596 aptab2 SONGschoolscape \$1-SeqOulip \$1-SeqOulip 32
1;
#X obj 395 273 s \$1-Seq;
#X obj 321 221 t b b a, f 11;
#X obj 321 273 del 10;
#X msg 358 248 stop;
#X obj 498 212 s \$1-SeqOulip;
#X obj 437 82 s \$1-SeqOulip;
#X obj 202 317 * 2;
#X obj 95 170 tgl 15 0 empty empty empty 17 7 0 10 -262144 -1 -1 0
1;
#X floatatom 539 184 5 0 0 0 - - -;
#X obj 435 3 r ResetSeq-\$1;
#X msg 437 34 const 95;
#X obj 440 377 del 10;
#X connect 0 0 1 0;
#X connect 0 0 8 0;
#X connect 0 0 28 0;
#X connect 1 0 0 1;
#X connect 4 0 0 1;
#X connect 5 0 64 0;
#X connect 5 1 21 0;
#X connect 6 0 17 0;
#X connect 8 0 13 0;
#X connect 8 0 27 0;
#X connect 8 0 60 0;
#X connect 9 0 30 0;
#X connect 10 0 48 0;
#X connect 12 0 16 0;
#X connect 12 0 34 0;
#X connect 13 0 3 0;
#X connect 13 0 51 0;
#X connect 15 0 7 0;
#X connect 15 0 12 0;
#X connect 15 0 69 0;
#X connect 17 0 5 0;
#X connect 17 1 20 0;
#X connect 19 0 73 0;
#X connect 20 0 25 0;
#X connect 21 0 22 0;
#X connect 21 1 23 0;
#X connect 21 2 67 0;
#X connect 21 2 71 0;
#X connect 22 0 24 0;
#X connect 22 0 29 0;
#X connect 23 0 22 0;
#X connect 24 0 25 0;
#X connect 25 0 5 1;
#X connect 26 0 40 0;
#X connect 29 0 30 1;
#X connect 31 0 29 0;
#X connect 33 0 74 0;
#X connect 34 0 74 0;
#X connect 36 0 46 0;
#X connect 37 0 35 0;
#X connect 38 0 0 0;
#X connect 39 0 44 0;
#X connect 39 0 45 0;
#X connect 40 0 41 0;
#X connect 42 0 43 0;
#X connect 42 0 70 0;
#X connect 46 0 0 0;
#X connect 47 0 70 0;
#X connect 48 0 0 0;
#X connect 48 1 4 0;
#X connect 48 2 49 0;
#X connect 49 0 50 0;
#X connect 49 1 47 0;
#X connect 49 2 2 0;
#X connect 50 0 42 0;
#X connect 51 0 52 0;
#X connect 51 1 53 0;
#X connect 51 2 54 0;
#X connect 51 3 55 0;
#X connect 56 0 39 0;
#X connect 57 0 58 0;
#X connect 57 0 59 0;
#X connect 59 0 56 1;
#X connect 60 0 56 0;
#X connect 64 0 65 0;
#X connect 64 1 66 0;
#X connect 64 2 63 0;
#X connect 66 0 65 0;
#X connect 69 0 8 1;
#X connect 69 0 60 1;
#X connect 70 0 46 1;
#X connect 72 0 73 0;
#X connect 73 0 18 0;
#X connect 73 0 68 0;
#X connect 74 0 29 0;
#X coords 0 -1 1 1 150 60 1 46 0;
