#N canvas 368 137 775 734 12;
#X obj 35 198 r PofStepIncr;
#X obj 68 354 r PofStepCumul;
#X obj 168 157 bng 25 250 50 0 StartSeqPart-snd StartSeqPart-rcv StartSeqPart
17 7 0 10 -262130 -1 -1;
#X obj 336 481 i;
#X obj 364 483 + 1;
#X obj 333 634 s nbPart-Recall;
#X obj 267 284 s reset_measure;
#X obj 184 318 spigot 1;
#X obj 192 258 t b b b;
#X msg 211 289 1, f 1;
#X msg 240 290 0, f 1;
#X floatatom 354 563 5 0 0 0 - - -;
#X obj 35 227 t f f;
#X obj 32 392 sel 16;
#X obj 26 329 + 1;
#X obj 311 432 bng 15 250 50 0 empty empty empty 17 7 0 10 -262144
-1 -1;
#X obj 20 300 spigot 1;
#X msg 63 271 1, f 1;
#X msg 39 274 0, f 1;
#X obj 72 460 t b b;
#X obj 184 406 t b b b;
#X obj 192 229 t b b b;
#X msg 350 429 0, f 1;
#X msg 401 248 1, f 1;
#X obj 304 171 bng 25 250 50 0 StopSeqPart-snd StopSeqPart-rcv StopSeqPart
17 7 0 10 -204800 -1 -1;
#X msg 352 196 0, f 1;
#X obj 400 315 tgl 15 0 empty empty empty 17 7 0 10 -262144 -1 -1 0
1;
#X obj 236 440 spigot 0;
#X obj 186 349 sel 0;
#X obj 189 370 del 0.001;
#N canvas 1475 1267 761 621 Keyboard 0;
#X obj 86 368 s pofkb_open;
#X obj 459 6 r pofkb_return;
#X obj 82 449 s pofkb_control;
#X obj 298 24 bng 15 250 50 0 empty empty empty 17 7 0 10 -262144 -1
-1;
#X obj 315 105 i;
#X obj 347 110 + 1;
#X msg 253 12 0;
#X msg 315 57 1;
#X obj 315 81 metro 10;
#X obj 289 280 list store;
#X msg 291 252 append \$1;
#X msg 381 293 bang;
#X obj 241 39 t b f f;
#X obj 293 204 i;
#X obj 315 131 sel 16;
#X obj 287 310 t b b a;
#X obj 442 206 list split 1;
#N canvas 0 96 450 300 corresLetter 0;
#X obj 61 42 inlet;
#X msg 69 122 a, f 1;
#X obj 69 96 sel 1 2 3 4 5 6 7 8 9 10 11 12, f 52;
#X msg 95 122 b, f 1;
#X msg 121 122 c, f 1;
#X msg 147 122 d, f 1;
#X msg 173 122 e, f 1;
#X msg 199 122 f, f 1;
#X msg 225 122 g, f 1;
#X msg 251 122 h, f 1;
#X msg 277 122 i, f 1;
#X msg 303 122 j, f 1;
#X msg 329 122 k, f 1;
#X msg 355 122 l, f 1;
#X obj 155 258 outlet;
#X obj 155 222 symbol;
#X msg 378 123 x, f 1;
#X connect 0 0 2 0;
#X connect 1 0 15 0;
#X connect 2 0 1 0;
#X connect 2 1 3 0;
#X connect 2 2 4 0;
#X connect 2 3 5 0;
#X connect 2 4 6 0;
#X connect 2 5 7 0;
#X connect 2 6 8 0;
#X connect 2 7 9 0;
#X connect 2 8 10 0;
#X connect 2 9 11 0;
#X connect 2 10 12 0;
#X connect 2 11 13 0;
#X connect 2 12 16 0;
#X connect 3 0 15 0;
#X connect 4 0 15 0;
#X connect 5 0 15 0;
#X connect 6 0 15 0;
#X connect 7 0 15 0;
#X connect 8 0 15 0;
#X connect 9 0 15 0;
#X connect 10 0 15 0;
#X connect 11 0 15 0;
#X connect 12 0 15 0;
#X connect 13 0 15 0;
#X connect 15 0 14 0;
#X connect 16 0 15 0;
#X restore 285 227 pd corresLetter;
#N canvas 623 476 513 586 toTab 0;
#X obj 39 0 inlet;
#X msg 109 234 1, f 1;
#X msg 132 234 2, f 1;
#X msg 155 234 3, f 1;
#X msg 178 234 4, f 1;
#X msg 202 234 5, f 1;
#X msg 225 234 6, f 1;
#X msg 248 234 7, f 1;
#X msg 273 234 8, f 1;
#X msg 295 234 9, f 1;
#X msg 318 234 10, f 2;
#X msg 342 234 11, f 2;
#X msg 370 234 12, f 2;
#X msg 393 234 0, f 1;
#X msg 411 233 0, f 1;
#X floatatom 229 356 5 0 0 0 - - -;
#X obj 55 174 t b f;
#X obj 40 229 i;
#X obj 70 228 + 1;
#X obj 39 361 pack f f;
#X msg 22 162 0;
#X obj 109 331 f;
#X obj 49 314 t f b;
#X obj 131 445 outlet;
#X obj 109 206 sel 97 98 99 100 101 102 103 104 105 106 107 108 120
;
#X obj 33 62 sel 32;
#X obj 72 90 f;
#X obj 40 25 t f f;
#X obj 17 260 sel 15;
#X obj 328 333 f;
#X obj 328 391 i;
#X obj 363 395 + 1;
#X floatatom 267 438 5 0 0 0 - - -;
#X obj 207 404 print;
#X msg 294 354 0, f 1;
#X obj 328 358 t b;
#X obj 328 414 + 1;
#X obj 329 440 s \$1-Len;
#X msg 28 94 0;
#X floatatom 5 306 5 0 0 0 - - -;
#N canvas 0 96 450 300 >0 0;
#X obj 135 41 inlet;
#X obj 139 217 outlet;
#X obj 127 88 t b b;
#X obj 129 138 del 10;
#X msg 178 100 stop;
#X msg 134 171 0;
#X connect 0 0 2 0;
#X connect 2 0 3 0;
#X connect 2 1 4 0;
#X connect 3 0 5 0;
#X connect 4 0 3 0;
#X connect 5 0 1 0;
#X restore 145 134 pd >0;
#X connect 0 0 27 0;
#X connect 1 0 21 1;
#X connect 1 0 29 0;
#X connect 2 0 21 1;
#X connect 2 0 29 0;
#X connect 3 0 21 1;
#X connect 3 0 29 0;
#X connect 4 0 21 1;
#X connect 4 0 29 0;
#X connect 5 0 21 1;
#X connect 5 0 29 0;
#X connect 6 0 21 1;
#X connect 6 0 29 0;
#X connect 7 0 21 1;
#X connect 7 0 29 0;
#X connect 8 0 21 1;
#X connect 8 0 29 0;
#X connect 9 0 21 1;
#X connect 9 0 29 0;
#X connect 10 0 21 1;
#X connect 10 0 29 0;
#X connect 11 0 21 1;
#X connect 11 0 29 0;
#X connect 12 0 21 1;
#X connect 12 0 29 0;
#X connect 13 0 21 1;
#X connect 14 0 21 1;
#X connect 16 0 17 0;
#X connect 16 1 24 0;
#X connect 17 0 18 0;
#X connect 17 0 22 0;
#X connect 17 0 28 0;
#X connect 17 0 39 0;
#X connect 18 0 17 1;
#X connect 19 0 23 0;
#X connect 19 0 40 0;
#X connect 20 0 17 1;
#X connect 21 0 19 1;
#X connect 22 0 19 0;
#X connect 22 1 21 0;
#X connect 24 0 1 0;
#X connect 24 1 2 0;
#X connect 24 2 3 0;
#X connect 24 3 4 0;
#X connect 24 4 5 0;
#X connect 24 5 6 0;
#X connect 24 6 7 0;
#X connect 24 7 8 0;
#X connect 24 8 9 0;
#X connect 24 9 10 0;
#X connect 24 10 11 0;
#X connect 24 11 12 0;
#X connect 24 12 13 0;
#X connect 24 13 14 0;
#X connect 25 0 38 0;
#X connect 25 1 26 0;
#X connect 26 0 16 0;
#X connect 27 0 25 0;
#X connect 27 1 26 1;
#X connect 28 0 20 0;
#X connect 28 0 34 0;
#X connect 29 0 35 0;
#X connect 30 0 31 0;
#X connect 30 0 36 0;
#X connect 31 0 30 1;
#X connect 34 0 30 1;
#X connect 35 0 30 0;
#X connect 36 0 32 0;
#X connect 36 0 37 0;
#X connect 40 0 20 0;
#X connect 40 0 34 0;
#X restore 542 295 pd toTab;
#X obj 586 408 outlet;
#X text 381 16 open kb;
#X obj 336 1 inlet;
#X msg 82 410 text \$1 \$2 \$3 \$4 \$5 \$6 \$7 \$8 \$9 \$10 \$11 \$12
\$13 \$14 \$15 \$16 \, title Enter part's list: \, charlimit 32;
#X obj 84 308 symbol \$1;
#X obj 293 182 tabread \$1-Seq;
#X symbolatom 103 347 10 0 0 0 - - -;
#X obj 145 257 bng 15 250 50 0 empty empty empty 17 7 0 10 -262144
-1 -1;
#X obj 349 28 t b b;
#X obj 160 221 print totab;
#X obj 168 155 print slice;
#X obj 398 135 print tab;
#X obj 462 68 spigot 0;
#X obj 564 69 inlet;
#X obj 494 324 sel 1;
#X obj 455 510 t a;
#X msg 363 353 intro a b c d e f g;
#X msg 376 383 intro a\ b\ c\ d\ e\ f\ g;
#X obj 463 120 list fromsymbol;
#X obj 463 93 symbol;
#X obj 461 31 list split 1;
#X obj 459 174 t a a, f 13;
#X obj 543 226 list split 1;
#X obj 633 279 - 97;
#X obj 633 320 moses 0;
#X obj 666 412 print;
#X connect 1 0 39 0;
#X connect 3 0 7 0;
#X connect 4 0 5 0;
#X connect 4 0 14 0;
#X connect 4 0 24 0;
#X connect 5 0 4 1;
#X connect 6 0 12 0;
#X connect 7 0 8 0;
#X connect 8 0 4 0;
#X connect 9 0 15 0;
#X connect 10 0 9 0;
#X connect 11 0 9 1;
#X connect 12 0 9 0;
#X connect 12 1 4 1;
#X connect 12 2 8 0;
#X connect 13 0 17 0;
#X connect 14 0 6 0;
#X connect 15 0 23 0;
#X connect 15 1 11 0;
#X connect 15 2 22 0;
#X connect 16 1 40 0;
#X connect 17 0 10 0;
#X connect 18 0 19 0;
#X connect 21 0 27 0;
#X connect 22 0 2 0;
#X connect 23 0 0 0;
#X connect 23 0 25 0;
#X connect 24 0 13 0;
#X connect 26 0 23 0;
#X connect 27 0 7 0;
#X connect 27 1 11 0;
#X connect 31 0 38 0;
#X connect 32 0 31 1;
#X connect 32 0 33 0;
#X connect 33 0 11 0;
#X connect 37 0 40 0;
#X connect 38 0 37 0;
#X connect 39 1 31 0;
#X connect 40 0 16 0;
#X connect 40 1 41 0;
#X connect 41 0 42 0;
#X connect 41 0 18 0;
#X connect 42 0 43 0;
#X restore 436 201 pd Keyboard;
#X obj 367 34 bng 25 250 50 0 OpenKb-\$1-snd OpenKb-\$1-rcv OpenKb-\$1
-2 -10 0 10 -262130 -1 -1;
#X floatatom 487 464 5 0 0 0 - - -;
#X obj 338 508 mod 8;
#X obj 333 601 - 1;
#X obj 225 66 s mainSeq-play;
#X obj 36 9 inlet;
#X obj 309 33 tgl 25 0 StartSeqPart-\$1-snd StartSeqPart-\$1-rcv Start
-2 -10 0 10 -260097 -1 -1 0 1;
#X obj 246 125 sel 1 0;
#X obj 12 644 aptab2 SONGschoolscape \$1-Seq \$1-Seq 32 1;
#X obj 460 531 apf SONGschoolscape \$1-Len \$1-Len 1;
#X obj 336 539 tabread \$1-Seq;
#X obj 20 611 table \$1-Seq 32;
#X obj 423 418 r \$1-Len;
#X obj 462 560 s \$1-Len;
#X obj 507 332 s \$1-Seq;
#X obj 673 259 print kb;
#X obj 537 141 t b b;
#X msg 597 334 const 0;
#X obj 602 369 s \$1-Seq;
#X obj 578 293 loadbang;
#X msg 535 173 1, f 1;
#X obj 451 233 t b b a;
#X obj 445 288 del 10;
#X msg 468 265 stop;
#X msg 535 219 0, f 1;
#X obj 579 208 tgl 15 0 empty empty empty 17 7 0 10 -262144 -1 -1 0
1;
#X obj 399 101 f \$2;
#X obj 400 124 s PofPartSeqSolo;
#X obj 560 21 r PofPartSeqSolo;
#X obj 560 49 == \$2;
#X floatatom 558 102 5 0 0 0 - - -;
#X obj 553 74 change;
#X obj 246 98 t f f f;
#X obj 346 75 sel 1;
#X floatatom 284 545 5 0 0 0 - - -;
#X floatatom 278 507 5 0 0 0 - - -;
#X obj 232 538 sel 8;
#X obj 196 575 bng 15 250 50 0 empty empty empty 17 7 0 10 -262144
-1 -1;
#N canvas 602 469 305 438 TabSeq 0;
#X obj 99 40 bng 15 250 50 0 empty empty empty 17 7 0 10 -262144 -1
-1;
#X obj 116 121 i;
#X obj 148 126 + 1;
#X msg 54 28 0;
#X msg 116 73 1;
#X obj 116 97 metro 10;
#X obj 88 321 list store;
#X msg 90 293 append \$1;
#X msg 182 309 bang;
#X obj 42 55 t b f f;
#X obj 95 224 i;
#X obj 116 147 sel 16;
#X obj 86 351 t b b a;
#N canvas 0 96 450 300 corresLetter 0;
#X obj 61 42 inlet;
#X msg 69 122 a, f 1;
#X obj 69 96 sel 1 2 3 4 5 6 7 8 9 10 11 12, f 52;
#X msg 95 122 b, f 1;
#X msg 121 122 c, f 1;
#X msg 147 122 d, f 1;
#X msg 173 122 e, f 1;
#X msg 199 122 f, f 1;
#X msg 225 122 g, f 1;
#X msg 251 122 h, f 1;
#X msg 277 122 i, f 1;
#X msg 303 122 j, f 1;
#X msg 329 122 k, f 1;
#X msg 355 122 l, f 1;
#X obj 155 258 outlet;
#X obj 155 222 symbol;
#X msg 378 123 x, f 1;
#X connect 0 0 2 0;
#X connect 1 0 15 0;
#X connect 2 0 1 0;
#X connect 2 1 3 0;
#X connect 2 2 4 0;
#X connect 2 3 5 0;
#X connect 2 4 6 0;
#X connect 2 5 7 0;
#X connect 2 6 8 0;
#X connect 2 7 9 0;
#X connect 2 8 10 0;
#X connect 2 9 11 0;
#X connect 2 10 12 0;
#X connect 2 11 13 0;
#X connect 2 12 16 0;
#X connect 3 0 15 0;
#X connect 4 0 15 0;
#X connect 5 0 15 0;
#X connect 6 0 15 0;
#X connect 7 0 15 0;
#X connect 8 0 15 0;
#X connect 9 0 15 0;
#X connect 10 0 15 0;
#X connect 11 0 15 0;
#X connect 12 0 15 0;
#X connect 13 0 15 0;
#X connect 15 0 14 0;
#X connect 16 0 15 0;
#X restore 90 258 pd corresLetter;
#X obj 137 17 inlet;
#X obj 94 198 tabread \$1-Seq;
#X obj 150 44 t b b;
#X obj 171 376 list trim;
#X obj 132 410 outlet;
#X obj 69 3 loadbang;
#X connect 0 0 16 0;
#X connect 1 0 2 0;
#X connect 1 0 11 0;
#X connect 1 0 15 0;
#X connect 2 0 1 1;
#X connect 3 0 9 0;
#X connect 4 0 5 0;
#X connect 5 0 1 0;
#X connect 6 0 12 0;
#X connect 7 0 6 0;
#X connect 8 0 6 1;
#X connect 9 0 6 0;
#X connect 9 1 1 1;
#X connect 9 2 5 0;
#X connect 10 0 13 0;
#X connect 11 0 3 0;
#X connect 12 1 8 0;
#X connect 12 2 17 0;
#X connect 12 2 18 0;
#X connect 13 0 7 0;
#X connect 14 0 16 0;
#X connect 15 0 10 0;
#X connect 16 0 4 0;
#X connect 16 1 8 0;
#X connect 19 0 16 0;
#X restore 96 33 pd TabSeq;
#N canvas 155 409 731 1232 gui 0;
#X obj 125 163 loadbang;
#X msg 125 185 draw 1;
#X obj 75 336 pofcolor 0 0 0 1;
#X obj 81 43 inlet;
#X obj 81 64 t a a;
#X obj 112 143 pofcolor 1 1 1 1;
#X obj 277 295 route down up;
#X msg 323 320 0;
#X msg 247 311 1;
#X obj 287 92 inlet;
#X msg 254 252 text \$1 \$2 \$3 \$4 \$5 \$6 \$7 \$8 \$9 \$10 \$11 \$12
\$13 \$14 \$15 \$16;
#X obj 90 274 nbx 5 14 -1e+37 1e+37 0 1 empty empty empty 0 -8 0 10
-262144 -1 -1 80 256;
#X obj 148 274 nbx 5 14 -1e+37 1e+37 0 1 empty empty empty 0 -8 0 10
-262144 -1 -1 0 256;
#X obj 69 441 pofcolor 0 0 0 1;
#X obj 265 402 loadbang;
#X obj 263 428 symbol \$1;
#X obj 239 402 bng 15 250 50 0 empty empty empty 17 7 0 10 -262144
-1 -1;
#X obj 91 386 nbx 5 14 -1e+37 1e+37 0 1 empty empty empty 0 -8 0 10
-262144 -1 -1 -324 256;
#X obj 149 386 nbx 5 14 -1e+37 1e+37 0 1 empty empty empty 0 -8 0 10
-262144 -1 -1 0 256;
#X obj 46 406 poftranslate, f 21;
#X obj 75 362 poftexts asimov 45;
#X obj 69 467 poftexts asimov 45;
#X msg 263 452 text \$1 :;
#X obj 88 510 nbx 5 14 -1e+37 1e+37 0 1 empty empty empty 0 -8 0 10
-262144 -1 -1 608 256;
#X obj 146 510 nbx 5 14 -1e+37 1e+37 0 1 empty empty empty 0 -8 0 10
-262144 -1 -1 0 256;
#X obj 43 530 poftranslate, f 21;
#X floatatom 417 603 5 0 0 0 - - -;
#X obj 281 515 tgl 15 0 empty empty empty 17 7 0 10 -262144 -1 -1 0
1;
#X obj 413 679 route down;
#X obj 416 704 b;
#X obj 412 730 f;
#X obj 412 760 == 0;
#X obj 281 537 sel 0 1;
#X floatatom 345 739 5 0 0 0 - - -;
#X floatatom 466 741 5 0 0 0 - - -;
#X msg 282 561 set instruments/BoutonMachineOff.png;
#X msg 301 583 set instruments/BoutonMachineOn.png;
#X obj 215 499 nbx 5 14 -1e+37 1e+37 0 1 empty empty empty 0 -8 0 10
-262144 -1 -1 0 256;
#X obj 300 651 poftouch 45 45;
#X obj 300 624 pofimage instruments/BoutonMachineOff.png 45 45;
#X obj 451 706 r StartSeqPart-\$1-snd;
#X obj 164 55 sel 0 1;
#X msg 208 86 0.5;
#X msg 160 87 1;
#X obj 303 367 s OpenKb-\$1-rcv;
#X obj 109 225 poftouch 650 45;
#X obj 413 788 s StartSeqPart-\$1-rcv;
#X obj 307 496 r StartSeqPart-\$1-snd;
#X obj 171 31 r StartSeqPart-\$1-snd;
#X obj 354 818 r PofPartSeqSolo;
#X obj 368 857 == \$2;
#X floatatom 424 915 5 0 0 0 - - -;
#X obj 361 882 change;
#X obj 176 873 unpack f f f;
#X obj 98 909 pofcolor 1 1 1 1;
#X obj 28 745 bng 15 250 50 0 empty empty empty 17 7 0 10 -262144 -1
-1;
#X obj 98 930 poftexts asimov 40;
#X floatatom 53 704 5 0 0 0 - - -;
#X obj 96 701 r PofPartRecall-r;
#X msg 25 846 text \$1 \, width 120 \, center 1;
#N canvas 0 96 450 300 corresLetter 0;
#X obj 61 42 inlet;
#X msg 69 122 a, f 1;
#X obj 69 96 sel 1 2 3 4 5 6 7 8 9 10 11 12, f 52;
#X msg 95 122 b, f 1;
#X msg 121 122 c, f 1;
#X msg 147 122 d, f 1;
#X msg 173 122 e, f 1;
#X msg 199 122 f, f 1;
#X msg 225 122 g, f 1;
#X msg 251 122 h, f 1;
#X msg 277 122 i, f 1;
#X msg 303 122 j, f 1;
#X msg 329 122 k, f 1;
#X msg 355 122 l, f 1;
#X obj 155 258 outlet;
#X obj 155 222 symbol;
#X connect 0 0 2 0;
#X connect 1 0 15 0;
#X connect 2 0 1 0;
#X connect 2 1 3 0;
#X connect 2 2 4 0;
#X connect 2 3 5 0;
#X connect 2 4 6 0;
#X connect 2 5 7 0;
#X connect 2 6 8 0;
#X connect 2 7 9 0;
#X connect 2 8 10 0;
#X connect 2 9 11 0;
#X connect 2 10 12 0;
#X connect 2 11 13 0;
#X connect 3 0 15 0;
#X connect 4 0 15 0;
#X connect 5 0 15 0;
#X connect 6 0 15 0;
#X connect 7 0 15 0;
#X connect 8 0 15 0;
#X connect 9 0 15 0;
#X connect 10 0 15 0;
#X connect 11 0 15 0;
#X connect 12 0 15 0;
#X connect 13 0 15 0;
#X connect 15 0 14 0;
#X restore 33 809 pd corresLetter;
#X obj 78 646 nbx 5 14 -1e+37 1e+37 0 1 empty empty empty 0 -8 0 10
-262144 -1 -1 44 256;
#X obj 136 646 nbx 5 14 -1e+37 1e+37 0 1 empty empty empty 0 -8 0 10
-262144 -1 -1 -4 256;
#X obj 33 666 poftranslate, f 21;
#X obj 205 635 nbx 5 14 -1e+37 1e+37 0 1 empty empty empty 0 -8 0 10
-262144 -1 -1 0 256;
#X obj 45 294 poftranslate, f 21;
#X obj 93 775 spigot 0;
#X obj 340 918 t f f;
#X obj 372 944 sel 0;
#X msg 372 968 ...;
#X obj 373 993 symbol;
#X msg 194 1067 0.5;
#X msg 203 1096 0;
#X obj 207 996 spigot 0;
#X obj 211 964 r beat;
#X msg 252 1130 0 0.5 0 1;
#X msg 273 1071 1 0.5 0 1;
#X obj 251 1029 t b;
#X msg 290 1039 1 1 1 1;
#X obj 275 1103 del 100;
#X msg 424 1077 stop;
#X obj 508 852 r AllSeqPartsOff;
#X obj 517 898 t b b;
#X msg 549 929 0;
#X obj 556 1034 r StartSeqPart-\$1-snd;
#X obj 440 1012 loadbang;
#X obj 94 729 r nbPart-Recall;
#X floatatom 214 781 5 0 0 0 - - -;
#X obj 84 753 + 1;
#X connect 0 0 1 0;
#X connect 1 0 45 0;
#X connect 2 0 20 0;
#X connect 3 0 4 0;
#X connect 4 0 65 0;
#X connect 4 1 5 0;
#X connect 5 0 45 0;
#X connect 6 0 8 0;
#X connect 6 0 44 0;
#X connect 6 1 7 0;
#X connect 9 0 10 0;
#X connect 10 0 20 0;
#X connect 11 0 65 1;
#X connect 12 0 65 2;
#X connect 13 0 21 0;
#X connect 14 0 15 0;
#X connect 15 0 22 0;
#X connect 16 0 15 0;
#X connect 17 0 19 1;
#X connect 18 0 19 2;
#X connect 19 0 13 0;
#X connect 19 0 25 0;
#X connect 22 0 21 0;
#X connect 23 0 25 1;
#X connect 24 0 25 2;
#X connect 25 0 39 0;
#X connect 25 0 63 0;
#X connect 26 0 39 1;
#X connect 27 0 32 0;
#X connect 28 0 29 0;
#X connect 29 0 30 0;
#X connect 30 0 31 0;
#X connect 31 0 33 0;
#X connect 31 0 46 0;
#X connect 32 0 35 0;
#X connect 32 1 36 0;
#X connect 35 0 39 0;
#X connect 36 0 39 0;
#X connect 37 0 25 3;
#X connect 38 1 28 0;
#X connect 39 0 38 0;
#X connect 40 0 30 1;
#X connect 40 0 34 0;
#X connect 41 0 43 0;
#X connect 41 1 42 0;
#X connect 42 0 5 1;
#X connect 43 0 5 1;
#X connect 45 1 6 0;
#X connect 47 0 27 0;
#X connect 48 0 41 0;
#X connect 49 0 50 0;
#X connect 50 0 52 0;
#X connect 52 0 51 0;
#X connect 53 0 54 1;
#X connect 53 1 54 2;
#X connect 53 2 54 3;
#X connect 54 0 56 0;
#X connect 58 0 57 0;
#X connect 59 0 56 0;
#X connect 60 0 59 0;
#X connect 61 0 63 1;
#X connect 62 0 63 2;
#X connect 63 0 54 0;
#X connect 64 0 63 3;
#X connect 65 0 2 0;
#X connect 65 0 19 0;
#X connect 66 0 60 0;
#X connect 67 0 66 1;
#X connect 67 0 73 1;
#X connect 67 1 68 0;
#X connect 68 0 69 0;
#X connect 68 0 78 0;
#X connect 68 0 80 0;
#X connect 69 0 70 0;
#X connect 70 0 59 0;
#X connect 73 0 77 0;
#X connect 74 0 73 0;
#X connect 75 0 53 0;
#X connect 76 0 53 0;
#X connect 77 0 76 0;
#X connect 77 0 79 0;
#X connect 78 0 53 0;
#X connect 79 0 75 0;
#X connect 80 0 79 0;
#X connect 81 0 82 0;
#X connect 82 0 69 0;
#X connect 82 0 78 0;
#X connect 82 1 83 0;
#X connect 83 0 73 1;
#X connect 84 0 67 0;
#X connect 85 0 69 0;
#X connect 85 0 78 0;
#X connect 86 0 87 0;
#X connect 86 0 88 0;
#X connect 88 0 66 0;
#X restore 55 122 pd gui;
#X obj 104 14 bng 15 250 50 0 empty empty empty 17 7 0 10 -262144 -1
-1;
#X obj 107 74 print;
#X obj 158 3 loadbang;
#X obj 493 634 t b;
#X obj 188 37 del 500;
#X obj 584 639 print;
#X obj 584 604 r nbPart-Recall;
#X obj 228 596 s PofPartBang;
#X obj 441 -3 r AllSeqPartsOff;
#X obj 474 29 r \$1-Len;
#X floatatom 406 37 5 0 0 0 - - -;
#X floatatom 655 70 5 0 0 0 - - -;
#X obj 324 110 symbol \$1;
#X obj 353 151 s PofSeqPartType;
#X floatatom 638 430 5 0 0 0 - - -;
#X floatatom 630 494 5 0 0 0 - - -;
#X obj 630 469 mod 1;
#X obj 420 468 + 1;
#X obj 231 498 - 0;
#X floatatom 485 494 5 0 0 0 - - -;
#X floatatom 128 495 5 0 0 0 - - -;
#X obj 390 597 bng 15 250 50 0 empty empty empty 17 7 0 10 -262144
-1 -1;
#X obj 161 544 bng 15 250 50 0 empty empty empty 17 7 0 10 -262144
-1 -1;
#X connect 0 0 12 0;
#X connect 1 0 13 1;
#X connect 2 0 21 0;
#X connect 3 0 4 0;
#X connect 3 0 33 0;
#X connect 3 0 66 0;
#X connect 3 0 67 0;
#X connect 4 0 3 1;
#X connect 7 0 28 0;
#X connect 8 1 9 0;
#X connect 8 2 6 0;
#X connect 9 0 7 1;
#X connect 10 0 7 1;
#X connect 12 0 16 0;
#X connect 12 1 7 0;
#X connect 13 0 19 0;
#X connect 14 0 13 0;
#X connect 15 0 3 0;
#X connect 16 0 14 0;
#X connect 17 0 16 1;
#X connect 18 0 16 1;
#X connect 19 0 18 0;
#X connect 19 1 8 0;
#X connect 20 0 10 0;
#X connect 20 1 27 0;
#X connect 20 2 17 0;
#X connect 21 0 8 0;
#X connect 21 1 22 0;
#X connect 21 2 23 0;
#X connect 22 0 3 1;
#X connect 23 0 26 0;
#X connect 24 0 25 0;
#X connect 25 0 26 0;
#X connect 26 0 27 1;
#X connect 27 0 3 0;
#X connect 28 0 29 0;
#X connect 29 0 20 0;
#X connect 30 0 52 0;
#X connect 31 0 47 0;
#X connect 33 0 41 0;
#X connect 33 0 65 0;
#X connect 34 0 5 0;
#X connect 36 0 70 0;
#X connect 37 0 63 0;
#X connect 38 0 2 0;
#X connect 38 1 24 0;
#X connect 40 0 44 0;
#X connect 40 0 74 0;
#X connect 41 0 11 0;
#X connect 41 0 34 0;
#X connect 41 0 92 0;
#X connect 43 0 32 0;
#X connect 43 0 40 0;
#X connect 43 0 88 0;
#X connect 43 0 89 0;
#X connect 43 0 67 1;
#X connect 43 0 33 1;
#X connect 47 0 30 0;
#X connect 47 1 51 0;
#X connect 48 0 49 0;
#X connect 50 0 48 0;
#X connect 51 0 30 1;
#X connect 51 0 56 0;
#X connect 52 0 53 0;
#X connect 52 1 54 0;
#X connect 52 2 45 0;
#X connect 53 0 55 0;
#X connect 53 0 69 0;
#X connect 54 0 53 0;
#X connect 55 0 30 1;
#X connect 55 0 56 0;
#X connect 57 0 58 0;
#X connect 59 0 60 0;
#X connect 59 0 82 0;
#X connect 60 0 62 0;
#X connect 62 0 61 0;
#X connect 62 0 37 0;
#X connect 63 0 35 0;
#X connect 63 1 38 0;
#X connect 63 2 64 0;
#X connect 64 0 57 0;
#X connect 64 0 83 0;
#X connect 67 0 68 0;
#X connect 67 0 78 0;
#X connect 69 0 70 1;
#X connect 71 0 69 0;
#X connect 73 0 75 0;
#X connect 74 0 75 0;
#X connect 75 0 69 0;
#X connect 79 0 37 0;
#X connect 80 0 81 0;
#X connect 83 0 84 0;
#X connect 85 0 87 0;
#X connect 87 0 86 0;
#X connect 88 0 90 0;
#X connect 93 0 78 0;
#X coords 0 -1 1 1 150 60 1 300 0;
