#N canvas 267 889 807 887 12;
#X obj 500 113 poftexts vera 35 -1;
#X floatatom 524 33 5 0 0 0 - - -;
#X floatatom 561 31 5 0 0 0 - - -;
#X floatatom 609 28 5 0 0 0 - - -;
#X obj 428 19 loadbang;
#X obj 41 478 t a a;
#X floatatom 165 527 5 0 0 0 - - -;
#X floatatom 213 534 5 0 0 0 - - -;
#X floatatom 266 772 5 0 0 0 - - -;
#X obj 39 257 t a a;
#X msg 215 409 draw 1;
#X obj 213 387 loadbang;
#X msg 147 143 1;
#X obj 151 432 pofcolor 0 0 0 0.8;
#X obj 136 596 vsl 15 100 0 1 0 0 empty empty empty 0 -9 0 10 -262144
-1 -1 0 1;
#X floatatom 136 703 5 0 0 0 - - -;
#X obj 203 596 vsl 15 100 0 1 0 0 empty empty empty 0 -9 0 10 -262144
-1 -1 0 1;
#X floatatom 203 703 5 0 0 0 - - -;
#X obj 270 595 vsl 15 100 0 1 0 0 empty empty empty 0 -9 0 10 -262144
-1 -1 0 1;
#X floatatom 270 702 5 0 0 0 - - -;
#X obj 337 595 vsl 15 100 0 1 0 0 empty empty empty 0 -9 0 10 -262144
-1 -1 0 1;
#X floatatom 337 702 5 0 0 0 - - -;
#X floatatom 192 772 5 0 0 0 - - -;
#X msg 105 143 0;
#X obj 36 38 t a a;
#X msg 236 359 draw 0;
#X obj 136 200 nbx 5 14 -1e+37 1e+37 0 1 empty empty empty 0 -8 0 10
-262144 -1 -1 0 256;
#X obj 202 206 nbx 5 14 -1e+37 1e+37 0 1 empty empty empty 0 -8 0 10
-262144 -1 -1 0 256;
#X floatatom 173 99 5 0 0 0 - - -;
#X obj 25 96 outlet;
#X obj 701 62 f \$1;
#X obj 98 223 poftranslate 0 0;
#X obj 181 71 bng 15 250 50 0 empty empty empty 17 7 0 10 -262144 -1
-1;
#X obj 532 147 nbx 5 14 -1e+37 1e+37 0 1 empty empty empty 0 -8 0 10
-262144 -1 -1 -82 256;
#X obj 590 147 nbx 5 14 -1e+37 1e+37 0 1 empty empty empty 0 -8 0 10
-262144 -1 -1 -9 256;
#X obj 503 209 pofscale 1 1;
#X floatatom 602 215 5 0 0 0 - - -;
#X obj 616 185 nbx 5 14 -1e+37 1e+37 0 1 empty empty empty 0 -8 0 10
-262144 -1 -1 1 256;
#X obj 42 511 t a a;
#X obj 506 241 npPartSelector;
#N canvas 657 418 525 1132 Part 1;
#X obj 102 189 inlet;
#X obj 224 742 tgl 15 0 empty empty empty 17 7 0 10 -262144 -1 -1 0
1;
#X obj 265 779 r overHead;
#X obj 265 804 pofvisible;
#X obj 265 828 t a a;
#X obj 348 864 poftouch 6000 6000;
#X obj 437 891 route down;
#X msg 337 779 0;
#X obj 245 736 sel 1;
#X msg 245 758 1;
#X msg 421 805 draw 1;
#X obj 421 784 loadbang;
#X obj 348 839 pofcolor 0 0 0 0.75;
#X obj 337 754 r page;
#X obj 102 215 t a a;
#X obj 259 859 outlet;
#X obj 102 293 t a a a;
#X msg 319 331 draw 1;
#X obj 319 310 loadbang;
#X obj 85 542 loadbang;
#X obj 201 648 unpack f f f;
#X obj 349 543 loadbang;
#X obj 123 705 poftexts asimov 30;
#X obj 329 403 route down;
#X obj 329 424 b;
#X obj 361 443 == 0;
#X obj 346 463 f 1;
#X floatatom 402 490 5 0 0 0 - - -;
#X obj 346 367 print;
#X obj 233 474 outlet;
#X obj 151 31 vsl 15 100 0 1 0 0 empty empty empty 0 -9 0 10 -262144
-1 -1 0 1;
#X floatatom 151 138 5 0 0 0 - - -;
#X obj 218 31 vsl 15 100 0 1 0 0 empty empty empty 0 -9 0 10 -262144
-1 -1 0 1;
#X floatatom 218 138 5 0 0 0 - - -;
#X obj 285 30 vsl 15 100 0 1 0 0 empty empty empty 0 -9 0 10 -262144
-1 -1 0 1;
#X floatatom 285 137 5 0 0 0 - - -;
#X obj 352 30 vsl 15 100 0 1 0 0 empty empty empty 0 -9 0 10 -262144
-1 -1 0 1;
#X floatatom 352 137 5 0 0 0 - - -;
#X obj 123 684 pofcolor 1 1 1 1;
#N canvas 410 261 450 621 TouchLong 0;
#X obj 172 307 bng 15 250 50 0 empty empty empty 17 7 0 10 -262144
-1 -1;
#X obj 85 42 route up down;
#X msg 85 65 0;
#X msg 122 64 1;
#X obj 85 88 tgl 15 0 empty empty empty 17 7 0 10 -262144 -1 -1 0 1
;
#X obj 101 114 sel 0 1, f 29;
#X msg 187 185 1;
#X msg 168 138 stop;
#X msg 135 162 0;
#X obj 135 214 f;
#X obj 135 236 sel 1;
#X obj 56 332 spigot 1;
#X obj 135 260 t b b b;
#X msg 176 283 0;
#X msg 101 309 1;
#X obj 101 139 t b b b b;
#X obj 187 164 del 300;
#X obj 30 377 bng 15 250 50 0 empty empty empty 17 7 0 10 -262144 -1
-1;
#X obj 79 7 inlet;
#X obj 23 509 outlet;
#X obj 177 400 outlet;
#X msg 165 372 1;
#X obj 73 387 r PrefGamme-r;
#X obj 56 483 f;
#X floatatom 98 516 5 0 0 0 - - -;
#X floatatom 103 488 5 0 0 0 - - -;
#X obj 24 484 bng 15 250 50 0 empty empty empty 17 7 0 10 -262144 -1
-1;
#X obj 153 451 print;
#X obj 95 418 unpack f f;
#X connect 1 0 2 0;
#X connect 1 1 3 0;
#X connect 2 0 4 0;
#X connect 3 0 4 0;
#X connect 4 0 5 0;
#X connect 5 0 15 0;
#X connect 5 1 16 0;
#X connect 6 0 9 0;
#X connect 7 0 16 0;
#X connect 8 0 9 0;
#X connect 9 0 10 0;
#X connect 10 0 12 0;
#X connect 11 0 17 0;
#X connect 11 0 23 0;
#X connect 12 1 0 0;
#X connect 12 1 21 0;
#X connect 12 2 13 0;
#X connect 13 0 11 1;
#X connect 14 0 11 1;
#X connect 15 0 14 0;
#X connect 15 1 11 0;
#X connect 15 2 8 0;
#X connect 15 3 7 0;
#X connect 16 0 6 0;
#X connect 18 0 1 0;
#X connect 21 0 20 0;
#X connect 22 0 28 0;
#X connect 23 0 19 0;
#X connect 23 0 24 0;
#X connect 26 0 23 0;
#X connect 28 0 23 1;
#X connect 28 0 25 0;
#X restore 234 439 pd TouchLong;
#X obj 205 498 bng 15 250 50 0 empty empty empty 17 7 0 10 -262144
-1 -1;
#X obj 27 32 t b;
#X obj 56 122 del 300;
#X msg 23 132 1;
#X msg 58 145 0;
#X obj 322 500 bng 15 250 50 0 empty empty empty 17 7 0 10 -262144
-1 -1;
#X obj 44 407 nbx 5 14 -1e+37 1e+37 0 1 empty empty empty 0 -8 0 10
-262144 -1 -1 0 256;
#X obj 92 412 nbx 5 14 -1e+37 1e+37 0 1 empty empty empty 0 -8 0 10
-262144 -1 -1 -20 256;
#X obj 11 470 t a a a;
#X obj 173 320 nbx 5 14 -1e+37 1e+37 0 1 empty empty empty 0 -8 0 10
-262144 -1 -1 0 256;
#X obj 132 339 poftranslate, f 21;
#X obj 233 321 nbx 5 14 -1e+37 1e+37 0 1 empty empty empty 0 -8 0 10
-262144 -1 -1 0 256;
#X obj 102 269 fixScaleX;
#X obj 76 577 f \$1;
#X obj 55 556 bng 15 250 50 0 empty empty empty 17 7 0 10 -262144 -1
-1;
#X msg 249 359 draw 1;
#X msg 257 385 draw 0;
#X obj 298 167 unpack f f f f;
#X obj 324 262 sel 0 1;
#X msg 335 285 1 0 1 1;
#X msg 263 285 1 0.5 0 1;
#X obj 162 408 poftouch 85 85;
#X obj 144 237 cadreVec 85 85;
#X obj 39 721 nbx 5 14 -1e+37 1e+37 0 1 empty empty empty 0 -8 0 10
-262144 -1 -1 0 256;
#X obj 87 726 nbx 5 14 -1e+37 1e+37 0 1 empty empty empty 0 -8 0 10
-262144 -1 -1 36 256;
#X obj 32 744 poftranslate;
#X obj 168 902 unpack f f f;
#X obj 90 938 pofcolor 1 1 1 1;
#X obj 41 795 f \$1;
#X obj 20 774 bng 15 250 50 0 empty empty empty 17 7 0 10 -262144 -1
-1;
#X obj 37 430 poftranslate;
#X obj 90 959 poftexts asimov 40;
#X floatatom 159 806 5 0 0 0 - - -;
#X obj 67 767 r PofPartRecall-r;
#X msg 17 875 text \$1 \, width 120 \, center 1;
#X obj 144 215 pofcolor 0 0.5 0 1, f 40;
#X msg 358 638 1 1 1;
#X msg 50 621 text Part : \, width 120 \, center 1;
#X obj 261 511 t b;
#X msg 257 557 1;
#X msg 423 108 0.5;
#X msg 432 137 0;
#N canvas 0 96 450 300 corresLetter 0;
#X obj 61 42 inlet;
#X msg 69 122 a, f 1;
#X obj 69 96 sel 1 2 3 4 5 6 7 8 9 10 11 12, f 52;
#X msg 95 122 b, f 1;
#X msg 121 122 c, f 1;
#X msg 147 122 d, f 1;
#X msg 173 122 e, f 1;
#X msg 199 122 f, f 1;
#X msg 225 122 g, f 1;
#X msg 251 122 h, f 1;
#X msg 277 122 i, f 1;
#X msg 303 122 j, f 1;
#X msg 329 122 k, f 1;
#X msg 355 122 l, f 1;
#X obj 155 258 outlet;
#X obj 155 222 symbol;
#X connect 0 0 2 0;
#X connect 1 0 15 0;
#X connect 2 0 1 0;
#X connect 2 1 3 0;
#X connect 2 2 4 0;
#X connect 2 3 5 0;
#X connect 2 4 6 0;
#X connect 2 5 7 0;
#X connect 2 6 8 0;
#X connect 2 7 9 0;
#X connect 2 8 10 0;
#X connect 2 9 11 0;
#X connect 2 10 12 0;
#X connect 2 11 13 0;
#X connect 3 0 15 0;
#X connect 4 0 15 0;
#X connect 5 0 15 0;
#X connect 6 0 15 0;
#X connect 7 0 15 0;
#X connect 8 0 15 0;
#X connect 9 0 15 0;
#X connect 10 0 15 0;
#X connect 11 0 15 0;
#X connect 12 0 15 0;
#X connect 13 0 15 0;
#X connect 15 0 14 0;
#X restore 25 838 pd corresLetter;
#X connect 0 0 14 0;
#X connect 2 0 3 0;
#X connect 3 0 4 0;
#X connect 4 0 15 0;
#X connect 4 1 12 0;
#X connect 5 1 6 0;
#X connect 6 0 7 0;
#X connect 7 0 3 0;
#X connect 8 0 9 0;
#X connect 9 0 3 0;
#X connect 10 0 5 0;
#X connect 11 0 10 0;
#X connect 12 0 5 0;
#X connect 13 0 7 0;
#X connect 14 0 52 0;
#X connect 14 1 75 0;
#X connect 16 0 70 0;
#X connect 16 1 50 0;
#X connect 18 0 17 0;
#X connect 19 0 53 0;
#X connect 20 0 38 1;
#X connect 20 1 38 2;
#X connect 20 2 38 3;
#X connect 21 0 76 0;
#X connect 23 0 24 0;
#X connect 24 0 26 0;
#X connect 25 0 26 1;
#X connect 26 0 27 0;
#X connect 30 0 31 0;
#X connect 31 0 75 1;
#X connect 32 0 33 0;
#X connect 33 0 75 2;
#X connect 34 0 35 0;
#X connect 35 0 75 3;
#X connect 36 0 37 0;
#X connect 37 0 75 4;
#X connect 38 0 22 0;
#X connect 39 0 29 0;
#X connect 39 0 40 0;
#X connect 39 0 41 0;
#X connect 39 1 45 0;
#X connect 39 1 78 0;
#X connect 41 0 42 0;
#X connect 41 0 43 0;
#X connect 42 0 44 0;
#X connect 43 0 75 1;
#X connect 44 0 75 1;
#X connect 46 0 70 1;
#X connect 47 0 70 2;
#X connect 48 1 65 0;
#X connect 48 2 38 0;
#X connect 49 0 50 1;
#X connect 50 0 61 0;
#X connect 51 0 50 2;
#X connect 52 0 16 0;
#X connect 53 0 77 0;
#X connect 54 0 53 1;
#X connect 55 0 61 0;
#X connect 56 0 61 0;
#X connect 57 0 75 1;
#X connect 57 1 75 2;
#X connect 57 2 75 3;
#X connect 57 3 75 4;
#X connect 58 0 60 0;
#X connect 58 1 59 0;
#X connect 59 0 57 0;
#X connect 60 0 57 0;
#X connect 61 1 39 0;
#X connect 63 0 65 1;
#X connect 64 0 65 2;
#X connect 65 0 67 0;
#X connect 66 0 67 1;
#X connect 66 1 67 2;
#X connect 66 2 67 3;
#X connect 67 0 71 0;
#X connect 68 0 82 0;
#X connect 69 0 68 1;
#X connect 70 0 48 0;
#X connect 73 0 68 0;
#X connect 73 0 72 0;
#X connect 74 0 71 0;
#X connect 75 0 62 0;
#X connect 76 0 20 0;
#X connect 77 0 22 0;
#X connect 78 0 79 0;
#X connect 79 0 3 0;
#X connect 82 0 74 0;
#X restore 87 62 pd Part;
#X obj 491 166 poftranslate, f 21;
#X msg 513 89 text Store/Recall Parts;
#X obj 119 746 pofcolor 0.6 0 0.7 1, f 37;
#X obj 163 298 nbx 5 14 -1e+37 1e+37 0 1 empty empty empty 0 -8 0 10
-262144 -1 -1 0 256;
#X obj 229 304 nbx 5 14 -1e+37 1e+37 0 1 empty empty empty 0 -8 0 10
-262144 -1 -1 -82 256;
#X obj 118 553 poftranslate 0 -82;
#X obj 31 13 inlet head;
#X obj 266 103 f;
#X floatatom 316 106 5 0 0 0 - - -;
#X obj 119 795 pofrect 840 310 0 0 0 0;
#X obj 154 455 poftouch 845 315;
#X obj 488 60 poftranslate -120 -215 0;
#X obj 125 321 poftranslate 0 -82;
#X obj 33 190 pofvisible;
#X obj 279 52 r PofPartRecall;
#X obj 258 136 s PofPartRecall;
#X connect 0 0 41 0;
#X connect 1 0 52 1;
#X connect 2 0 52 2;
#X connect 3 0 52 3;
#X connect 4 0 42 0;
#X connect 5 0 38 0;
#X connect 5 1 46 0;
#X connect 6 0 46 1;
#X connect 7 0 46 2;
#X connect 8 0 50 2;
#X connect 9 0 5 0;
#X connect 9 1 53 0;
#X connect 10 0 51 0;
#X connect 11 0 10 0;
#X connect 12 0 54 0;
#X connect 13 0 51 0;
#X connect 14 0 15 0;
#X connect 15 0 43 1;
#X connect 16 0 17 0;
#X connect 17 0 43 2;
#X connect 18 0 19 0;
#X connect 19 0 43 3;
#X connect 20 0 21 0;
#X connect 21 0 43 4;
#X connect 22 0 50 1;
#X connect 23 0 54 0;
#X connect 24 0 29 0;
#X connect 24 1 40 0;
#X connect 25 0 51 0;
#X connect 26 0 31 1;
#X connect 27 0 31 2;
#X connect 30 0 42 0;
#X connect 31 0 9 0;
#X connect 32 0 48 0;
#X connect 33 0 41 1;
#X connect 34 0 41 2;
#X connect 35 0 39 0;
#X connect 36 0 35 1;
#X connect 36 0 35 2;
#X connect 37 0 36 0;
#X connect 38 1 52 0;
#X connect 40 0 28 0;
#X connect 40 0 32 0;
#X connect 40 1 31 0;
#X connect 41 0 35 0;
#X connect 42 0 0 0;
#X connect 43 0 50 0;
#X connect 44 0 53 1;
#X connect 45 0 53 2;
#X connect 46 0 43 0;
#X connect 47 0 24 0;
#X connect 48 0 56 0;
#X connect 52 0 0 0;
#X connect 53 0 13 0;
#X connect 54 0 9 0;
#X connect 55 0 48 1;
#X connect 55 0 49 0;
