#N canvas 1425 977 767 887 12;
#X obj 41 478 t a a;
#X floatatom 165 527 5 0 0 0 - - -;
#X floatatom 213 534 5 0 0 0 - - -;
#X floatatom 266 772 5 0 0 0 - - -;
#X obj 41 512 t a a;
#X obj 39 257 t a a;
#X obj 230 424 route down;
#X msg 175 343 draw 1;
#X obj 173 321 loadbang;
#X msg 254 450 0;
#X msg 147 143 1;
#X obj 111 366 pofcolor 0 0 0 0.8;
#X obj 136 596 vsl 15 100 0 1 0 0 empty empty empty 0 -9 0 10 -262144
-1 -1 0 1;
#X floatatom 136 703 5 0 0 0 - - -;
#X obj 203 596 vsl 15 100 0 1 0 0 empty empty empty 0 -9 0 10 -262144
-1 -1 0 1;
#X floatatom 203 703 5 0 0 0 - - -;
#X obj 270 595 vsl 15 100 0 1 0 0 empty empty empty 0 -9 0 10 -262144
-1 -1 0 1;
#X floatatom 270 702 5 0 0 0 - - -;
#X obj 337 595 vsl 15 100 0 1 0 0 empty empty empty 0 -9 0 10 -262144
-1 -1 0 1;
#X floatatom 337 702 5 0 0 0 - - -;
#X floatatom 192 772 5 0 0 0 - - -;
#X obj 167 441 bng 15 250 50 0 empty empty empty 17 7 0 10 -262144
-1 -1;
#X obj 304 474 bng 15 250 50 0 empty empty empty 17 7 0 10 -262144
-1 -1;
#X obj 33 190 pofvisible;
#N canvas 638 312 344 423 vis 0;
#X obj 22 14 inlet;
#X floatatom 120 111 5 0 0 0 - - -;
#X floatatom 62 130 5 0 0 0 - - -;
#X obj 31 80 unpack f f f;
#X floatatom 10 128 5 0 0 0 - - -;
#X obj 113 326 outlet;
#X obj 28 237 t b;
#X obj 164 236 t b;
#X msg 113 291 0;
#X obj 28 172 moses -365;
#X obj 95 197 moses 365;
#X obj 164 171 moses -230;
#X obj 231 196 moses 260;
#X connect 0 0 3 0;
#X connect 3 0 4 0;
#X connect 3 0 9 0;
#X connect 3 1 2 0;
#X connect 3 1 11 0;
#X connect 3 2 1 0;
#X connect 6 0 8 0;
#X connect 7 0 8 0;
#X connect 8 0 5 0;
#X connect 9 0 6 0;
#X connect 9 1 10 0;
#X connect 10 1 6 0;
#X connect 11 0 7 0;
#X connect 11 1 12 0;
#X connect 12 1 7 0;
#X restore 237 484 pd vis;
#X msg 237 509 0;
#X msg 105 143 0;
#X obj 36 38 t a a;
#X msg 171 281 draw 0;
#X obj 139 205 nbx 5 14 -1e+37 1e+37 0 1 empty empty empty 0 -8 0 10
-262144 -1 -1 9 256;
#X obj 202 206 nbx 5 14 -1e+37 1e+37 0 1 empty empty empty 0 -8 0 10
-262144 -1 -1 -58 256;
#X obj 119 746 pofcolor 0.6 0 0.7 1, f 37;
#X floatatom 285 361 5 0 0 0 - - -;
#X obj 290 304 r PrefGamme-r;
#X obj 31 13 inlet head;
#X floatatom 173 99 5 0 0 0 - - -;
#X obj 328 326 bng 15 250 50 0 empty empty empty 17 7 0 10 -262144
-1 -1;
#X obj 25 96 outlet;
#X obj 98 223 poftranslate 0 0;
#X obj 98 107 bng 15 250 50 0 empty empty empty 17 7 0 10 -262144 -1
-1;
#X obj 400 292 s BangPofStep-\$1;
#X floatatom 524 33 5 0 0 0 - - -;
#X floatatom 561 31 5 0 0 0 - - -;
#X floatatom 609 28 5 0 0 0 - - -;
#X obj 532 147 nbx 5 14 -1e+37 1e+37 0 1 empty empty empty 0 -8 0 10
-262144 -1 -1 -63 256;
#X obj 590 147 nbx 5 14 -1e+37 1e+37 0 1 empty empty empty 0 -8 0 10
-262144 -1 -1 0 256;
#X obj 503 209 pofscale 1 1;
#X floatatom 602 215 5 0 0 0 - - -;
#X obj 584 193 nbx 5 14 -1e+37 1e+37 0 1 empty empty empty 0 -8 0 10
-262144 -1 -1 1 256;
#X obj 491 166 poftranslate, f 21;
#X obj 506 241 nbDenumeratorSelector \$1;
#N canvas 514 415 624 1215 StepSeq 0;
#X obj 102 189 inlet;
#X obj 360 710 tgl 15 0 empty empty empty 17 7 0 10 -262144 -1 -1 0
1;
#X obj 401 747 r overHead;
#X obj 401 772 pofvisible;
#X obj 401 796 t a a;
#X obj 484 832 poftouch 6000 6000;
#X obj 573 859 route down;
#X msg 473 747 0;
#X obj 381 704 sel 1;
#X msg 381 726 1;
#X msg 557 773 draw 1;
#X obj 557 752 loadbang;
#X obj 484 807 pofcolor 0 0 0 0.75;
#X obj 473 722 r page;
#X obj 102 215 t a a;
#X obj 395 827 outlet;
#X obj 102 293 t a a a;
#X msg 319 331 draw 1;
#X obj 319 310 loadbang;
#X obj 201 815 unpack f f f;
#X obj 203 737 loadbang;
#X obj 329 403 route down;
#X obj 329 424 b;
#X obj 361 443 == 0;
#X obj 346 463 f 1;
#X floatatom 402 490 5 0 0 0 - - -;
#X obj 346 367 print;
#X obj 240 505 outlet;
#X obj 151 31 vsl 15 100 0 1 0 0 empty empty empty 0 -9 0 10 -262144
-1 -1 0 1;
#X floatatom 151 138 5 0 0 0 - - -;
#X obj 218 31 vsl 15 100 0 1 0 0 empty empty empty 0 -9 0 10 -262144
-1 -1 0 1;
#X floatatom 218 138 5 0 0 0 - - -;
#X obj 285 30 vsl 15 100 0 1 0 0 empty empty empty 0 -9 0 10 -262144
-1 -1 0 1;
#X floatatom 285 137 5 0 0 0 - - -;
#X obj 352 30 vsl 15 100 0 1 0 0 empty empty empty 0 -9 0 10 -262144
-1 -1 0 1;
#X floatatom 352 137 5 0 0 0 - - -;
#N canvas 410 261 450 621 TouchLong 0;
#X obj 172 307 bng 15 250 50 0 empty empty empty 17 7 0 10 -262144
-1 -1;
#X obj 85 42 route up down;
#X msg 85 65 0;
#X msg 122 64 1;
#X obj 85 88 tgl 15 0 empty empty empty 17 7 0 10 -262144 -1 -1 0 1
;
#X obj 101 114 sel 0 1, f 29;
#X msg 187 185 1;
#X msg 168 138 stop;
#X msg 135 162 0;
#X obj 135 214 f;
#X obj 135 236 sel 1;
#X obj 56 332 spigot 1;
#X obj 135 260 t b b b;
#X msg 176 283 0;
#X msg 101 309 1;
#X obj 101 139 t b b b b;
#X obj 187 164 del 300;
#X obj 30 377 bng 15 250 50 0 empty empty empty 17 7 0 10 -262144 -1
-1;
#X obj 79 7 inlet;
#X obj 23 509 outlet;
#X obj 177 400 outlet;
#X msg 165 372 1;
#X obj 73 387 r PrefGamme-r;
#X obj 56 483 f;
#X floatatom 98 516 5 0 0 0 - - -;
#X floatatom 103 488 5 0 0 0 - - -;
#X obj 24 484 bng 15 250 50 0 empty empty empty 17 7 0 10 -262144 -1
-1;
#X obj 153 451 print;
#X obj 95 418 unpack f f;
#X connect 1 0 2 0;
#X connect 1 1 3 0;
#X connect 2 0 4 0;
#X connect 3 0 4 0;
#X connect 4 0 5 0;
#X connect 5 0 15 0;
#X connect 5 1 16 0;
#X connect 6 0 9 0;
#X connect 7 0 16 0;
#X connect 8 0 9 0;
#X connect 9 0 10 0;
#X connect 10 0 12 0;
#X connect 11 0 17 0;
#X connect 11 0 23 0;
#X connect 12 1 0 0;
#X connect 12 1 21 0;
#X connect 12 2 13 0;
#X connect 13 0 11 1;
#X connect 14 0 11 1;
#X connect 15 0 14 0;
#X connect 15 1 11 0;
#X connect 15 2 8 0;
#X connect 15 3 7 0;
#X connect 16 0 6 0;
#X connect 18 0 1 0;
#X connect 21 0 20 0;
#X connect 22 0 28 0;
#X connect 23 0 19 0;
#X connect 23 0 24 0;
#X connect 26 0 23 0;
#X connect 28 0 23 1;
#X connect 28 0 25 0;
#X restore 234 439 pd TouchLong;
#X obj 205 498 bng 15 250 50 0 empty empty empty 17 7 0 10 -262144
-1 -1;
#X obj 27 32 t b;
#X obj 56 122 del 300;
#X msg 23 132 1;
#X msg 58 145 0;
#X obj 322 500 bng 15 250 50 0 empty empty empty 17 7 0 10 -262144
-1 -1;
#X obj 46 385 nbx 5 14 -1e+37 1e+37 0 1 empty empty empty 0 -8 0 10
-262144 -1 -1 0 256;
#X obj 92 386 nbx 5 14 -1e+37 1e+37 0 1 empty empty empty 0 -8 0 10
-262144 -1 -1 6 256;
#X obj 32 626 t a a a;
#X obj 173 320 nbx 5 14 -1e+37 1e+37 0 1 empty empty empty 0 -8 0 10
-262144 -1 -1 0 256;
#X obj 132 339 poftranslate, f 21;
#X obj 233 321 nbx 5 14 -1e+37 1e+37 0 1 empty empty empty 0 -8 0 10
-262144 -1 -1 0 256;
#X msg 249 359 draw 1;
#X msg 257 385 draw 0;
#X obj 298 167 unpack f f f f;
#X obj 145 242 cadreVec 85 85;
#X obj 162 408 poftouch 85 85;
#X msg 206 762 1 1 1;
#X obj 123 851 pofcolor 1 1 1 1;
#X obj 144 215 pofcolor 0 0.5 0 1, f 40;
#X obj 98 694 r PofStepCumul;
#X obj 76 744 f;
#X obj 50 719 bng 15 250 50 0 empty empty empty 17 7 0 10 -262144 -1
-1;
#X obj 54 891 nbx 5 14 -1e+37 1e+37 0 1 empty empty empty 0 -8 0 10
-262144 -1 -1 0 256;
#X obj 100 918 nbx 5 14 -1e+37 1e+37 0 1 empty empty empty 0 -8 0 10
-262144 -1 -1 21 256;
#X obj 45 936 poftranslate;
#X obj 210 1081 unpack f f f;
#X obj 132 1117 pofcolor 1 1 1 1;
#X obj 107 960 r PofStepCumul;
#X obj 85 1010 f;
#X obj 59 985 bng 15 250 50 0 empty empty empty 17 7 0 10 -262144 -1
-1;
#X obj 132 1138 poftexts asimov 30;
#X msg 59 1054 text \$1 \, width 80 \, center 1;
#X obj 102 269 fixScaleX;
#X msg 57 792 text cumul \, width 80 \, center 1;
#X obj 123 872 poftexts asimov 25;
#X obj 155 552 nbx 5 14 -1e+37 1e+37 0 1 empty empty empty 0 -8 0 10
-262144 -1 -1 0 256;
#X obj 222 545 nbx 5 14 -1e+37 1e+37 0 1 empty empty empty 0 -8 0 10
-262144 -1 -1 -28 256;
#X obj 136 605 poftranslate;
#X obj 242 604 unpack f f f;
#X obj 164 640 pofcolor 1 1 1 1;
#X msg 91 577 text Play \, width 80 \, center 1;
#X obj 37 430 poftranslate;
#X obj 164 661 poftexts asimov 40;
#N canvas 624 1184 375 246 on-off 0;
#X obj 90 21 inlet;
#X obj 101 81 t b;
#X obj 112 111 i;
#X obj 144 111 + 1;
#X obj 192 39 loadbang;
#X msg 191 63 1;
#X obj 112 139 mod 2;
#X obj 113 165 outlet;
#X connect 0 0 1 0;
#X connect 1 0 2 0;
#X connect 2 0 3 0;
#X connect 2 0 6 0;
#X connect 3 0 2 1;
#X connect 4 0 5 0;
#X connect 5 0 2 1;
#X connect 6 0 7 0;
#X restore 233 471 pd on-off;
#X obj 436 37 spigot 0;
#X obj 440 5 r beat;
#X msg 477 192 0 0.5 0 1;
#X msg 502 112 1 0.5 0 1;
#X obj 480 70 t b;
#X obj 143 506 loadbang;
#X obj 512 6 r mainSeq-play;
#X floatatom 534 49 5 0 0 0 - - -;
#X obj 500 165 del 100;
#X connect 0 0 14 0;
#X connect 2 0 3 0;
#X connect 3 0 4 0;
#X connect 4 0 15 0;
#X connect 4 1 12 0;
#X connect 5 1 6 0;
#X connect 6 0 7 0;
#X connect 7 0 3 0;
#X connect 8 0 9 0;
#X connect 9 0 3 0;
#X connect 10 0 5 0;
#X connect 11 0 10 0;
#X connect 12 0 5 0;
#X connect 13 0 7 0;
#X connect 14 0 70 0;
#X connect 14 1 56 0;
#X connect 16 0 79 0;
#X connect 16 1 47 0;
#X connect 18 0 17 0;
#X connect 19 0 55 1;
#X connect 19 1 55 2;
#X connect 19 2 55 3;
#X connect 20 0 54 0;
#X connect 21 0 22 0;
#X connect 22 0 24 0;
#X connect 23 0 24 1;
#X connect 24 0 25 0;
#X connect 28 0 29 0;
#X connect 29 0 56 1;
#X connect 30 0 31 0;
#X connect 31 0 56 2;
#X connect 32 0 33 0;
#X connect 33 0 56 3;
#X connect 34 0 35 0;
#X connect 35 0 56 4;
#X connect 36 0 37 0;
#X connect 36 0 81 0;
#X connect 36 1 3 0;
#X connect 36 1 42 0;
#X connect 38 0 39 0;
#X connect 38 0 40 0;
#X connect 39 0 41 0;
#X connect 40 0 56 1;
#X connect 41 0 56 1;
#X connect 43 0 79 1;
#X connect 44 0 79 2;
#X connect 45 1 62 0;
#X connect 45 2 55 0;
#X connect 46 0 47 1;
#X connect 47 0 53 0;
#X connect 48 0 47 2;
#X connect 49 0 53 0;
#X connect 50 0 53 0;
#X connect 51 0 56 1;
#X connect 51 1 56 2;
#X connect 51 2 56 3;
#X connect 51 3 56 4;
#X connect 53 1 36 0;
#X connect 54 0 19 0;
#X connect 55 0 72 0;
#X connect 56 0 52 0;
#X connect 57 0 58 0;
#X connect 58 0 71 0;
#X connect 59 0 58 0;
#X connect 60 0 62 1;
#X connect 61 0 62 2;
#X connect 62 0 64 0;
#X connect 63 0 64 1;
#X connect 63 1 64 2;
#X connect 63 2 64 3;
#X connect 64 0 68 0;
#X connect 65 0 66 0;
#X connect 66 0 69 0;
#X connect 67 0 66 0;
#X connect 69 0 68 0;
#X connect 70 0 16 0;
#X connect 71 0 72 0;
#X connect 73 0 75 1;
#X connect 74 0 75 2;
#X connect 75 0 77 0;
#X connect 76 0 77 1;
#X connect 76 1 77 2;
#X connect 76 2 77 3;
#X connect 77 0 80 0;
#X connect 78 0 80 0;
#X connect 79 0 45 0;
#X connect 79 0 75 0;
#X connect 81 0 27 0;
#X connect 82 0 86 0;
#X connect 83 0 82 0;
#X connect 84 0 51 0;
#X connect 85 0 51 0;
#X connect 86 0 85 0;
#X connect 86 0 90 0;
#X connect 87 0 78 0;
#X connect 88 0 82 1;
#X connect 88 0 89 0;
#X connect 90 0 84 0;
#X restore 87 62 pd StepSeq;
#X obj 263 75 r mainSeq-play;
#X obj 266 106 == 0;
#X obj 232 94 b;
#X obj 228 187 s mainSeq-play;
#X obj 232 132 f 1, f 5;
#X floatatom 295 151 5 0 0 0 - - -;
#X obj 488 60 poftranslate -54 -168;
#X obj 112 390 poftouch 530 440;
#X obj 119 795 pofrect 525 490 0 0 0 0;
#X obj 118 553 poftranslate 0 25;
#X obj 276 229 s PofPartRecall;
#X connect 0 0 4 0;
#X connect 0 1 61 0;
#X connect 1 0 61 1;
#X connect 2 0 61 2;
#X connect 3 0 60 2;
#X connect 4 1 58 0;
#X connect 5 0 0 0;
#X connect 5 1 11 0;
#X connect 6 0 9 0;
#X connect 6 0 21 0;
#X connect 6 0 24 0;
#X connect 6 1 22 0;
#X connect 7 0 59 0;
#X connect 8 0 7 0;
#X connect 10 0 23 0;
#X connect 11 0 59 0;
#X connect 12 0 13 0;
#X connect 13 0 31 1;
#X connect 14 0 15 0;
#X connect 15 0 31 2;
#X connect 16 0 17 0;
#X connect 17 0 31 3;
#X connect 18 0 19 0;
#X connect 19 0 31 4;
#X connect 20 0 60 1;
#X connect 23 0 5 0;
#X connect 24 0 25 0;
#X connect 25 0 23 0;
#X connect 26 0 23 0;
#X connect 27 0 37 0;
#X connect 27 1 51 0;
#X connect 28 0 59 0;
#X connect 29 0 38 1;
#X connect 30 0 38 2;
#X connect 31 0 60 0;
#X connect 33 0 32 0;
#X connect 33 0 36 0;
#X connect 34 0 27 0;
#X connect 38 0 5 0;
#X connect 41 0 58 1;
#X connect 42 0 58 2;
#X connect 43 0 58 3;
#X connect 44 0 49 1;
#X connect 45 0 49 2;
#X connect 46 0 50 0;
#X connect 47 0 46 1;
#X connect 47 0 46 2;
#X connect 48 0 47 0;
#X connect 49 0 46 0;
#X connect 51 0 35 0;
#X connect 51 0 39 0;
#X connect 51 0 54 0;
#X connect 51 1 38 0;
#X connect 52 0 53 0;
#X connect 53 0 56 1;
#X connect 54 0 56 0;
#X connect 56 0 57 0;
#X connect 56 0 62 0;
#X connect 56 0 55 0;
#X connect 58 0 49 0;
#X connect 61 0 31 0;
