#N canvas 458 554 807 887 12;
#X floatatom 509 294 5 0 0 0 - - -;
#X floatatom 548 294 5 0 0 0 - - -;
#X floatatom 594 289 5 0 0 0 - - -;
#X obj 500 113 poftexts vera 35 -1;
#X floatatom 524 33 5 0 0 0 - - -;
#X floatatom 561 31 5 0 0 0 - - -;
#X floatatom 609 28 5 0 0 0 - - -;
#X obj 669 27 loadbang;
#X obj 41 478 t a a;
#X floatatom 165 527 5 0 0 0 - - -;
#X floatatom 213 534 5 0 0 0 - - -;
#X floatatom 266 772 5 0 0 0 - - -;
#X obj 39 257 t a a;
#X obj 230 424 route down;
#X msg 175 343 draw 1;
#X obj 173 321 loadbang;
#X msg 254 450 0;
#X msg 147 143 1;
#X obj 111 366 pofcolor 0 0 0 0.8;
#X obj 136 596 vsl 15 100 0 1 0 0 empty empty empty 0 -9 0 10 -262144
-1 -1 0 1;
#X floatatom 136 703 5 0 0 0 - - -;
#X obj 203 596 vsl 15 100 0 1 0 0 empty empty empty 0 -9 0 10 -262144
-1 -1 0 1;
#X floatatom 203 703 5 0 0 0 - - -;
#X obj 270 595 vsl 15 100 0 1 0 0 empty empty empty 0 -9 0 10 -262144
-1 -1 0 1;
#X floatatom 270 702 5 0 0 0 - - -;
#X obj 337 595 vsl 15 100 0 1 0 0 empty empty empty 0 -9 0 10 -262144
-1 -1 0 1;
#X floatatom 337 702 5 0 0 0 - - -;
#X floatatom 192 772 5 0 0 0 - - -;
#X obj 167 441 bng 15 250 50 0 empty empty empty 17 7 0 10 -262144
-1 -1;
#X obj 304 474 bng 15 250 50 0 empty empty empty 17 7 0 10 -262144
-1 -1;
#N canvas 618 356 344 423 vis 0;
#X obj 22 14 inlet;
#X floatatom 120 111 5 0 0 0 - - -;
#X floatatom 62 130 5 0 0 0 - - -;
#X obj 31 80 unpack f f f;
#X floatatom 10 128 5 0 0 0 - - -;
#X obj 113 326 outlet;
#X obj 28 237 t b;
#X obj 164 236 t b;
#X msg 113 291 0;
#X obj 28 172 moses -365;
#X obj 95 197 moses 365;
#X obj 164 171 moses -230;
#X obj 231 196 moses 260;
#X connect 0 0 3 0;
#X connect 3 0 4 0;
#X connect 3 0 9 0;
#X connect 3 1 2 0;
#X connect 3 1 11 0;
#X connect 3 2 1 0;
#X connect 6 0 8 0;
#X connect 7 0 8 0;
#X connect 8 0 5 0;
#X connect 9 0 6 0;
#X connect 9 1 10 0;
#X connect 10 1 6 0;
#X connect 11 0 7 0;
#X connect 11 1 12 0;
#X connect 12 1 7 0;
#X restore 237 484 pd vis;
#X msg 237 509 0;
#X msg 105 143 0;
#X obj 36 38 t a a;
#X obj 118 553 poftranslate 0 0;
#X msg 171 281 draw 0;
#X obj 139 205 nbx 5 14 -1e+37 1e+37 0 1 empty empty empty 0 -8 0 10
-262144 -1 -1 0 256;
#X obj 202 206 nbx 5 14 -1e+37 1e+37 0 1 empty empty empty 0 -8 0 10
-262144 -1 -1 0 256;
#X floatatom 347 357 5 0 0 0 - - -;
#X obj 326 293 r PrefGamme-r;
#X obj 643 310 r overHead;
#X floatatom 173 99 5 0 0 0 - - -;
#X obj 390 322 bng 15 250 50 0 empty empty empty 17 7 0 10 -262144
-1 -1;
#X obj 25 96 outlet;
#N canvas 637 402 643 1060 Step 0;
#X obj 102 189 inlet;
#X obj 224 742 tgl 15 0 empty empty empty 17 7 0 10 -262144 -1 -1 0
1;
#X obj 265 779 r overHead;
#X obj 265 804 pofvisible;
#X obj 265 828 t a a;
#X obj 348 864 poftouch 6000 6000;
#X obj 437 891 route down;
#X msg 337 779 0;
#X obj 245 736 sel 1;
#X msg 245 758 1;
#X msg 421 805 draw 1;
#X obj 421 784 loadbang;
#X obj 348 839 pofcolor 0 0 0 0.75;
#X obj 337 754 r page;
#X obj 102 215 t a a;
#X obj 259 859 outlet;
#X obj 102 293 t a a a;
#X msg 319 331 draw 1;
#X obj 319 310 loadbang;
#X obj 105 511 loadbang;
#X obj 201 648 unpack f f f;
#X obj 349 543 loadbang;
#X obj 123 705 poftexts asimov 30;
#X obj 329 403 route down;
#X obj 329 424 b;
#X obj 361 443 == 0;
#X obj 346 463 f 1;
#X floatatom 402 490 5 0 0 0 - - -;
#X obj 346 367 print;
#X obj 233 474 outlet;
#X obj 151 31 vsl 15 100 0 1 0 0 empty empty empty 0 -9 0 10 -262144
-1 -1 0 1;
#X floatatom 151 138 5 0 0 0 - - -;
#X obj 218 31 vsl 15 100 0 1 0 0 empty empty empty 0 -9 0 10 -262144
-1 -1 0 1;
#X floatatom 218 138 5 0 0 0 - - -;
#X obj 285 30 vsl 15 100 0 1 0 0 empty empty empty 0 -9 0 10 -262144
-1 -1 0 1;
#X floatatom 285 137 5 0 0 0 - - -;
#X obj 352 30 vsl 15 100 0 1 0 0 empty empty empty 0 -9 0 10 -262144
-1 -1 0 1;
#X floatatom 352 137 5 0 0 0 - - -;
#X obj 123 684 pofcolor 1 1 1 1;
#X msg 358 638 0 0 0;
#N canvas 410 261 450 621 TouchLong 0;
#X obj 172 307 bng 15 250 50 0 empty empty empty 17 7 0 10 -262144
-1 -1;
#X obj 85 42 route up down;
#X msg 85 65 0;
#X msg 122 64 1;
#X obj 85 88 tgl 15 0 empty empty empty 17 7 0 10 -262144 -1 -1 0 1
;
#X obj 101 114 sel 0 1, f 29;
#X msg 187 185 1;
#X msg 168 138 stop;
#X msg 135 162 0;
#X obj 135 214 f;
#X obj 135 236 sel 1;
#X obj 56 332 spigot 1;
#X obj 135 260 t b b b;
#X msg 176 283 0;
#X msg 101 309 1;
#X obj 101 139 t b b b b;
#X obj 187 164 del 300;
#X obj 30 377 bng 15 250 50 0 empty empty empty 17 7 0 10 -262144 -1
-1;
#X obj 79 7 inlet;
#X obj 23 509 outlet;
#X obj 177 400 outlet;
#X msg 165 372 1;
#X obj 73 387 r PrefGamme-r;
#X obj 56 483 f;
#X floatatom 98 516 5 0 0 0 - - -;
#X floatatom 103 488 5 0 0 0 - - -;
#X obj 24 484 bng 15 250 50 0 empty empty empty 17 7 0 10 -262144 -1
-1;
#X obj 153 451 print;
#X obj 95 418 unpack f f;
#X connect 1 0 2 0;
#X connect 1 1 3 0;
#X connect 2 0 4 0;
#X connect 3 0 4 0;
#X connect 4 0 5 0;
#X connect 5 0 15 0;
#X connect 5 1 16 0;
#X connect 6 0 9 0;
#X connect 7 0 16 0;
#X connect 8 0 9 0;
#X connect 9 0 10 0;
#X connect 10 0 12 0;
#X connect 11 0 17 0;
#X connect 11 0 23 0;
#X connect 12 1 0 0;
#X connect 12 1 21 0;
#X connect 12 2 13 0;
#X connect 13 0 11 1;
#X connect 14 0 11 1;
#X connect 15 0 14 0;
#X connect 15 1 11 0;
#X connect 15 2 8 0;
#X connect 15 3 7 0;
#X connect 16 0 6 0;
#X connect 18 0 1 0;
#X connect 21 0 20 0;
#X connect 22 0 28 0;
#X connect 23 0 19 0;
#X connect 23 0 24 0;
#X connect 26 0 23 0;
#X connect 28 0 23 1;
#X connect 28 0 25 0;
#X restore 234 439 pd TouchLong;
#X obj 205 498 bng 15 250 50 0 empty empty empty 17 7 0 10 -262144
-1 -1;
#X obj 27 32 t b;
#X obj 56 122 del 300;
#X msg 23 132 1;
#X msg 58 145 0;
#X obj 322 500 bng 15 250 50 0 empty empty empty 17 7 0 10 -262144
-1 -1;
#X obj 44 407 nbx 5 14 -1e+37 1e+37 0 1 empty empty empty 0 -8 0 10
-262144 -1 -1 0 256;
#X obj 92 412 nbx 5 14 -1e+37 1e+37 0 1 empty empty empty 0 -8 0 10
-262144 -1 -1 -20 256;
#X obj 11 470 t a a a;
#X obj 173 320 nbx 5 14 -1e+37 1e+37 0 1 empty empty empty 0 -8 0 10
-262144 -1 -1 0 256;
#X obj 132 339 poftranslate, f 21;
#X obj 233 321 nbx 5 14 -1e+37 1e+37 0 1 empty empty empty 0 -8 0 10
-262144 -1 -1 0 256;
#X obj 102 269 fixScaleX;
#X obj 74 555 f \$1;
#X obj 50 519 bng 15 250 50 0 empty empty empty 17 7 0 10 -262144 -1
-1;
#X msg 249 359 draw 1;
#X msg 257 385 draw 0;
#X obj 144 215 pofcolor 1 0.5 0 1, f 40;
#X obj 298 167 unpack f f f f;
#X obj 323 238 r PofStepNb-\$1;
#X obj 324 262 sel 0 1;
#X msg 335 285 1 0 1 1;
#X msg 263 285 1 0.5 0 1;
#X obj 162 408 poftouch 85 85;
#X obj 144 237 cadreVec 85 85;
#X msg 50 621 text Step:\$1 \, width 120 \, center 1;
#X obj 39 721 nbx 5 14 -1e+37 1e+37 0 1 empty empty empty 0 -8 0 10
-262144 -1 -1 0 256;
#X obj 87 726 nbx 5 14 -1e+37 1e+37 0 1 empty empty empty 0 -8 0 10
-262144 -1 -1 36 256;
#X obj 32 744 poftranslate;
#X obj 166 866 unpack f f f;
#X obj 88 902 pofcolor 1 1 1 1;
#X obj 41 795 f \$1;
#X obj 20 774 bng 15 250 50 0 empty empty empty 17 7 0 10 -262144 -1
-1;
#X obj 68 760 r \$1-PofSteps-r;
#X obj 37 430 poftranslate;
#X obj 88 923 poftexts asimov 40;
#X msg 15 839 text x\$1 \, width 120 \, center 1;
#X obj 59 587 + 1;
#X connect 0 0 14 0;
#X connect 2 0 3 0;
#X connect 3 0 4 0;
#X connect 4 0 15 0;
#X connect 4 1 12 0;
#X connect 5 1 6 0;
#X connect 6 0 7 0;
#X connect 7 0 3 0;
#X connect 8 0 9 0;
#X connect 9 0 3 0;
#X connect 10 0 5 0;
#X connect 11 0 10 0;
#X connect 12 0 5 0;
#X connect 13 0 7 0;
#X connect 14 0 53 0;
#X connect 14 1 58 0;
#X connect 16 0 75 0;
#X connect 16 1 51 0;
#X connect 18 0 17 0;
#X connect 19 0 54 0;
#X connect 20 0 38 1;
#X connect 20 1 38 2;
#X connect 20 2 38 3;
#X connect 21 0 39 0;
#X connect 23 0 24 0;
#X connect 24 0 26 0;
#X connect 25 0 26 1;
#X connect 26 0 27 0;
#X connect 30 0 31 0;
#X connect 31 0 58 1;
#X connect 32 0 33 0;
#X connect 33 0 58 2;
#X connect 34 0 35 0;
#X connect 35 0 58 3;
#X connect 36 0 37 0;
#X connect 37 0 58 4;
#X connect 38 0 22 0;
#X connect 39 0 20 0;
#X connect 40 0 29 0;
#X connect 40 0 41 0;
#X connect 40 1 3 0;
#X connect 40 1 46 0;
#X connect 42 0 43 0;
#X connect 42 0 44 0;
#X connect 43 0 45 0;
#X connect 44 0 58 1;
#X connect 45 0 58 1;
#X connect 47 0 75 1;
#X connect 48 0 75 2;
#X connect 49 1 69 0;
#X connect 49 2 38 0;
#X connect 50 0 51 1;
#X connect 51 0 64 0;
#X connect 52 0 51 2;
#X connect 53 0 16 0;
#X connect 54 0 78 0;
#X connect 55 0 54 0;
#X connect 56 0 64 0;
#X connect 57 0 64 0;
#X connect 58 0 65 0;
#X connect 59 0 58 1;
#X connect 59 1 58 2;
#X connect 59 2 58 3;
#X connect 59 3 58 4;
#X connect 60 0 61 0;
#X connect 61 0 63 0;
#X connect 61 1 62 0;
#X connect 62 0 59 0;
#X connect 63 0 59 0;
#X connect 64 1 40 0;
#X connect 66 0 22 0;
#X connect 67 0 69 1;
#X connect 68 0 69 2;
#X connect 69 0 71 0;
#X connect 70 0 71 1;
#X connect 70 1 71 2;
#X connect 70 2 71 3;
#X connect 71 0 76 0;
#X connect 72 0 77 0;
#X connect 73 0 72 1;
#X connect 74 0 72 0;
#X connect 75 0 49 0;
#X connect 77 0 76 0;
#X connect 78 0 66 0;
#X restore 87 62 pd Step;
#X msg 513 89 text Step-\$1;
#X obj 654 65 f \$1;
#X obj 98 223 poftranslate 0 0;
#X obj 181 71 bng 15 250 50 0 empty empty empty 17 7 0 10 -262144 -1
-1;
#X obj 218 92 s BangPofStep-\$1;
#X obj 532 147 nbx 5 14 -1e+37 1e+37 0 1 empty empty empty 0 -8 0 10
-262144 -1 -1 -63 256;
#X obj 590 147 nbx 5 14 -1e+37 1e+37 0 1 empty empty empty 0 -8 0 10
-262144 -1 -1 25 256;
#X obj 503 209 pofscale 1 1;
#X floatatom 602 215 5 0 0 0 - - -;
#X obj 584 193 nbx 5 14 -1e+37 1e+37 0 1 empty empty empty 0 -8 0 10
-262144 -1 -1 1 256;
#X floatatom 511 395 5 0 0 0 - - -;
#X floatatom 551 399 5 0 0 0 - - -;
#X floatatom 597 394 5 0 0 0 - - -;
#X obj 646 415 r overHead;
#X obj 506 241 nbBeaStepSelector \$1;
#X obj 42 511 t a a;
#X obj 31 13 inlet head;
#X obj 488 60 poftranslate -54 -168;
#X obj 491 166 poftranslate, f 21;
#X obj 113 389 poftouch 530 380;
#X obj 119 795 pofrect 525 375 0 0 0 0;
#X obj 605 503 r CopyStep-\$1-r;
#X obj 605 530 route 0 1;
#X obj 553 581 bng 15 250 50 0 empty empty empty 17 7 0 10 -262144
-1 -1;
#X obj 688 562 bng 15 250 50 0 empty empty empty 17 7 0 10 -262144
-1 -1;
#X obj 491 357 radioToggleCopyPaste CopyStep-\$1 0 Copy;
#X obj 500 456 radioToggleCopyPaste CopyStep-\$1 1 Paste;
#X obj 482 320 poftranslate 18 294 0;
#X obj 485 425 poftranslate 194 0 0;
#X obj 605 563 t b;
#X msg 605 588 0;
#X obj 640 560 t b;
#X msg 640 585 1;
#X obj 625 625 s CopyStep-\$1-s;
#X obj 119 746 pofcolor 0.6 0 0.7 1, f 37;
#X obj 655 88 + 1;
#X obj 706 57 bng 15 250 50 0 empty empty empty 17 7 0 10 -262144 -1
-1;
#X obj 33 190 pofvisible;
#X connect 0 0 72 1;
#X connect 1 0 72 2;
#X connect 2 0 72 3;
#X connect 4 0 62 1;
#X connect 5 0 62 2;
#X connect 6 0 62 3;
#X connect 7 0 46 0;
#X connect 8 0 60 0;
#X connect 8 1 34 0;
#X connect 9 0 34 1;
#X connect 10 0 34 2;
#X connect 11 0 65 2;
#X connect 12 0 8 0;
#X connect 12 1 18 0;
#X connect 13 0 16 0;
#X connect 13 0 28 0;
#X connect 13 0 30 0;
#X connect 13 1 29 0;
#X connect 14 0 64 0;
#X connect 15 0 14 0;
#X connect 17 0 82 0;
#X connect 18 0 64 0;
#X connect 19 0 20 0;
#X connect 20 0 79 1;
#X connect 21 0 22 0;
#X connect 22 0 79 2;
#X connect 23 0 24 0;
#X connect 24 0 79 3;
#X connect 25 0 26 0;
#X connect 26 0 79 4;
#X connect 27 0 65 1;
#X connect 30 0 31 0;
#X connect 31 0 82 0;
#X connect 32 0 82 0;
#X connect 33 0 43 0;
#X connect 33 1 44 0;
#X connect 34 0 79 0;
#X connect 35 0 64 0;
#X connect 36 0 47 1;
#X connect 37 0 47 2;
#X connect 39 0 38 0;
#X connect 39 0 42 0;
#X connect 44 0 41 0;
#X connect 44 0 48 0;
#X connect 44 1 47 0;
#X connect 45 0 3 0;
#X connect 46 0 80 0;
#X connect 47 0 12 0;
#X connect 48 0 49 0;
#X connect 50 0 63 1;
#X connect 51 0 63 2;
#X connect 52 0 59 0;
#X connect 53 0 52 1;
#X connect 53 0 52 2;
#X connect 54 0 53 0;
#X connect 55 0 73 1;
#X connect 56 0 73 2;
#X connect 57 0 73 3;
#X connect 60 1 62 0;
#X connect 61 0 33 0;
#X connect 62 0 3 0;
#X connect 62 0 63 0;
#X connect 63 0 52 0;
#X connect 63 0 72 0;
#X connect 66 0 67 0;
#X connect 67 0 68 0;
#X connect 67 0 74 0;
#X connect 67 1 69 0;
#X connect 67 1 76 0;
#X connect 72 0 70 0;
#X connect 72 0 73 0;
#X connect 73 0 71 0;
#X connect 74 0 75 0;
#X connect 75 0 78 0;
#X connect 76 0 77 0;
#X connect 77 0 78 0;
#X connect 79 0 65 0;
#X connect 80 0 45 0;
#X connect 81 0 46 0;
#X connect 82 0 12 0;
