#N canvas 90 921 767 887 12;
#X floatatom 407 93 5 0 0 0 - - -;
#X floatatom 446 93 5 0 0 0 - - -;
#X floatatom 492 88 5 0 0 0 - - -;
#X obj 473 398 poftexts vera 35 -1;
#X floatatom 501 275 5 0 0 0 - - -;
#X floatatom 538 273 5 0 0 0 - - -;
#X floatatom 586 270 5 0 0 0 - - -;
#X obj 642 312 loadbang;
#X obj 41 478 t a a;
#X floatatom 165 527 5 0 0 0 - - -;
#X floatatom 213 534 5 0 0 0 - - -;
#X floatatom 266 772 5 0 0 0 - - -;
#X obj 41 512 t a a;
#X obj 39 257 t a a;
#X obj 230 424 route down;
#X msg 175 343 draw 1;
#X obj 173 321 loadbang;
#X msg 254 450 0;
#X msg 147 143 1;
#X obj 111 366 pofcolor 0 0 0 0.8;
#X obj 136 596 vsl 15 100 0 1 0 0 empty empty empty 0 -9 0 10 -262144
-1 -1 0 1;
#X floatatom 136 703 5 0 0 0 - - -;
#X obj 203 596 vsl 15 100 0 1 0 0 empty empty empty 0 -9 0 10 -262144
-1 -1 0 1;
#X floatatom 203 703 5 0 0 0 - - -;
#X obj 270 595 vsl 15 100 0 1 0 0 empty empty empty 0 -9 0 10 -262144
-1 -1 0 1;
#X floatatom 270 702 5 0 0 0 - - -;
#X obj 337 595 vsl 15 100 0 1 0 0 empty empty empty 0 -9 0 10 -262144
-1 -1 0 1;
#X floatatom 337 702 5 0 0 0 - - -;
#X floatatom 192 772 5 0 0 0 - - -;
#X obj 167 441 bng 15 250 50 0 empty empty empty 17 7 0 10 -262144
-1 -1;
#X obj 304 474 bng 15 250 50 0 empty empty empty 17 7 0 10 -262144
-1 -1;
#X obj 33 190 pofvisible;
#N canvas 638 312 344 423 vis 0;
#X obj 22 14 inlet;
#X floatatom 120 111 5 0 0 0 - - -;
#X floatatom 62 130 5 0 0 0 - - -;
#X obj 31 80 unpack f f f;
#X floatatom 10 128 5 0 0 0 - - -;
#X obj 113 326 outlet;
#X obj 28 237 t b;
#X obj 164 236 t b;
#X msg 113 291 0;
#X obj 28 172 moses -365;
#X obj 95 197 moses 365;
#X obj 164 171 moses -230;
#X obj 231 196 moses 260;
#X connect 0 0 3 0;
#X connect 3 0 4 0;
#X connect 3 0 9 0;
#X connect 3 1 2 0;
#X connect 3 1 11 0;
#X connect 3 2 1 0;
#X connect 6 0 8 0;
#X connect 7 0 8 0;
#X connect 8 0 5 0;
#X connect 9 0 6 0;
#X connect 9 1 10 0;
#X connect 10 1 6 0;
#X connect 11 0 7 0;
#X connect 11 1 12 0;
#X connect 12 1 7 0;
#X restore 237 484 pd vis;
#X msg 237 509 0;
#X msg 105 143 0;
#X obj 36 38 t a a;
#X obj 118 553 poftranslate 0 0;
#X msg 171 281 draw 0;
#N canvas 149 564 450 668 Sus-tonic-old 0;
#X obj 98 8 inlet;
#X obj 98 74 t a a a;
#X obj 137 99 pofcolor 1 1 1 1;
#X msg 255 85 draw 1;
#X obj 255 64 loadbang;
#X obj 117 312 pofcolor 0.2 0.2 0.2 1;
#X obj 21 337 loadbang;
#X obj 130 382 unpack f f f;
#X obj 149 291 unpack f f f;
#X msg 311 291 0.2 0.2 0.2;
#X msg 311 332 0.8 0.8 0.8;
#X msg 254 332 0 0 0 1;
#X obj 254 270 sel 1 0;
#X obj 351 249 loadbang;
#X msg 254 290 1 0 0 1;
#X obj 254 250 r audioOn;
#X obj 98 402 pofcolor 0.8 0.8 0.8 1;
#X obj 98 423 poftexts asimov 30;
#X obj 324 200 outlet;
#X obj 226 143 route down;
#X obj 226 164 b;
#X obj 258 183 == 0;
#X obj 243 203 f 1;
#X obj 149 233 s TransposeAll;
#X obj 258 162 r TransposeAll;
#X msg 21 358 text Sus- tonic \, width 130 \, center 1;
#X obj 137 120 poftouch 84 84;
#X obj 120 334 pofrect 80 80;
#X floatatom 299 230 5 0 0 0 - - -;
#X obj 161 168 print;
#X obj 96 40 fixScaleX;
#X obj 171 50 bng 15 250 50 0 empty empty empty 17 7 0 10 -262144 -1
-1;
#X connect 0 0 30 0;
#X connect 1 0 16 0;
#X connect 1 1 5 0;
#X connect 1 2 2 0;
#X connect 2 0 26 0;
#X connect 3 0 26 0;
#X connect 4 0 3 0;
#X connect 5 0 27 0;
#X connect 6 0 25 0;
#X connect 7 0 16 1;
#X connect 7 1 16 2;
#X connect 7 2 16 3;
#X connect 8 0 5 1;
#X connect 8 1 5 2;
#X connect 8 2 5 3;
#X connect 9 0 8 0;
#X connect 9 0 10 0;
#X connect 10 0 7 0;
#X connect 11 0 7 0;
#X connect 12 0 14 0;
#X connect 12 1 9 0;
#X connect 13 0 9 0;
#X connect 14 0 8 0;
#X connect 14 0 11 0;
#X connect 15 0 12 0;
#X connect 16 0 17 0;
#X connect 19 0 20 0;
#X connect 20 0 22 0;
#X connect 21 0 22 1;
#X connect 22 0 23 0;
#X connect 22 0 18 0;
#X connect 22 0 28 0;
#X connect 24 0 21 0;
#X connect 25 0 17 0;
#X connect 26 0 29 0;
#X connect 26 1 19 0;
#X connect 30 0 1 0;
#X connect 30 1 31 0;
#X restore 240 31 pd Sus-tonic-old;
#X obj 139 205 nbx 5 14 -1e+37 1e+37 0 1 empty empty empty 0 -8 0 10
-262144 -1 -1 0 256;
#X obj 202 206 nbx 5 14 -1e+37 1e+37 0 1 empty empty empty 0 -8 0 10
-262144 -1 -1 0 256;
#X obj 112 390 poftouch 185 350;
#X obj 119 795 pofrect 180 345 0 0 0 0;
#X obj 119 746 pofcolor 0.6 0 0.7 1, f 37;
#X obj 396 150 radioToggleLong PrefGamme 0 majeur;
#X floatatom 285 361 5 0 0 0 - - -;
#X obj 264 297 r PrefGamme-r;
#X msg 417 658 \$2 \$1;
#X obj 417 679 route 1;
#X msg 456 723 0;
#X obj 456 700 spigot 1;
#X msg 497 666 0;
#X msg 526 666 1;
#X obj 556 714 loadbang;
#X obj 417 637 r PrefGamme-r;
#X obj 417 747 s PrefGamme-s;
#X obj 541 109 r overHead;
#X obj 31 13 inlet head;
#X floatatom 173 99 5 0 0 0 - - -;
#X obj 328 326 bng 15 250 50 0 empty empty empty 17 7 0 10 -262144
-1 -1;
#X obj 25 96 outlet;
#N canvas 519 886 624 1028 Step 1;
#X obj 102 189 inlet;
#X obj 360 710 tgl 15 0 empty empty empty 17 7 0 10 -262144 -1 -1 0
1;
#X obj 401 747 r overHead;
#X obj 401 772 pofvisible;
#X obj 401 796 t a a;
#X obj 484 832 poftouch 6000 6000;
#X obj 573 859 route down;
#X msg 473 747 0;
#X obj 381 704 sel 1;
#X msg 381 726 1;
#X msg 557 773 draw 1;
#X obj 557 752 loadbang;
#X obj 484 807 pofcolor 0 0 0 0.75;
#X obj 473 722 r page;
#X obj 102 215 t a a;
#X obj 395 827 outlet;
#X obj 102 293 t a a a;
#X msg 319 331 draw 1;
#X obj 319 310 loadbang;
#X obj 201 648 unpack f f f;
#X obj 349 543 loadbang;
#X obj 329 403 route down;
#X obj 329 424 b;
#X obj 361 443 == 0;
#X obj 346 463 f 1;
#X floatatom 402 490 5 0 0 0 - - -;
#X obj 346 367 print;
#X obj 233 474 outlet;
#X obj 151 31 vsl 15 100 0 1 0 0 empty empty empty 0 -9 0 10 -262144
-1 -1 0 1;
#X floatatom 151 138 5 0 0 0 - - -;
#X obj 218 31 vsl 15 100 0 1 0 0 empty empty empty 0 -9 0 10 -262144
-1 -1 0 1;
#X floatatom 218 138 5 0 0 0 - - -;
#X obj 285 30 vsl 15 100 0 1 0 0 empty empty empty 0 -9 0 10 -262144
-1 -1 0 1;
#X floatatom 285 137 5 0 0 0 - - -;
#X obj 352 30 vsl 15 100 0 1 0 0 empty empty empty 0 -9 0 10 -262144
-1 -1 0 1;
#X floatatom 352 137 5 0 0 0 - - -;
#N canvas 410 261 450 621 TouchLong 0;
#X obj 172 307 bng 15 250 50 0 empty empty empty 17 7 0 10 -262144
-1 -1;
#X obj 85 42 route up down;
#X msg 85 65 0;
#X msg 122 64 1;
#X obj 85 88 tgl 15 0 empty empty empty 17 7 0 10 -262144 -1 -1 0 1
;
#X obj 101 114 sel 0 1, f 29;
#X msg 187 185 1;
#X msg 168 138 stop;
#X msg 135 162 0;
#X obj 135 214 f;
#X obj 135 236 sel 1;
#X obj 56 332 spigot 1;
#X obj 135 260 t b b b;
#X msg 176 283 0;
#X msg 101 309 1;
#X obj 101 139 t b b b b;
#X obj 187 164 del 300;
#X obj 30 377 bng 15 250 50 0 empty empty empty 17 7 0 10 -262144 -1
-1;
#X obj 79 7 inlet;
#X obj 23 509 outlet;
#X obj 177 400 outlet;
#X msg 165 372 1;
#X obj 73 387 r PrefGamme-r;
#X obj 56 483 f;
#X floatatom 98 516 5 0 0 0 - - -;
#X floatatom 103 488 5 0 0 0 - - -;
#X obj 24 484 bng 15 250 50 0 empty empty empty 17 7 0 10 -262144 -1
-1;
#X obj 153 451 print;
#X obj 95 418 unpack f f;
#X connect 1 0 2 0;
#X connect 1 1 3 0;
#X connect 2 0 4 0;
#X connect 3 0 4 0;
#X connect 4 0 5 0;
#X connect 5 0 15 0;
#X connect 5 1 16 0;
#X connect 6 0 9 0;
#X connect 7 0 16 0;
#X connect 8 0 9 0;
#X connect 9 0 10 0;
#X connect 10 0 12 0;
#X connect 11 0 17 0;
#X connect 11 0 23 0;
#X connect 12 1 0 0;
#X connect 12 1 21 0;
#X connect 12 2 13 0;
#X connect 13 0 11 1;
#X connect 14 0 11 1;
#X connect 15 0 14 0;
#X connect 15 1 11 0;
#X connect 15 2 8 0;
#X connect 15 3 7 0;
#X connect 16 0 6 0;
#X connect 18 0 1 0;
#X connect 21 0 20 0;
#X connect 22 0 28 0;
#X connect 23 0 19 0;
#X connect 23 0 24 0;
#X connect 26 0 23 0;
#X connect 28 0 23 1;
#X connect 28 0 25 0;
#X restore 234 439 pd TouchLong;
#X obj 205 498 bng 15 250 50 0 empty empty empty 17 7 0 10 -262144
-1 -1;
#X obj 27 32 t b;
#X obj 56 122 del 300;
#X msg 23 132 1;
#X msg 58 145 0;
#X obj 322 500 bng 15 250 50 0 empty empty empty 17 7 0 10 -262144
-1 -1;
#X obj 46 385 nbx 5 14 -1e+37 1e+37 0 1 empty empty empty 0 -8 0 10
-262144 -1 -1 0 256;
#X obj 92 412 nbx 5 14 -1e+37 1e+37 0 1 empty empty empty 0 -8 0 10
-262144 -1 -1 -12 256;
#X obj 37 430 poftranslate;
#X obj 11 470 t a a a;
#X obj 173 320 nbx 5 14 -1e+37 1e+37 0 1 empty empty empty 0 -8 0 10
-262144 -1 -1 0 256;
#X obj 132 339 poftranslate, f 21;
#X obj 233 321 nbx 5 14 -1e+37 1e+37 0 1 empty empty empty 0 -8 0 10
-262144 -1 -1 0 256;
#X msg 249 359 draw 1;
#X msg 257 385 draw 0;
#X obj 298 167 unpack f f f f;
#X msg 357 269 1 0 1 1;
#X msg 263 285 1 0.5 0 1;
#X obj 145 242 cadreVec 85 85;
#X obj 162 408 poftouch 85 85;
#X msg 358 638 1 1 1;
#X obj 123 684 pofcolor 1 1 1 1;
#X obj 144 215 pofcolor 0 0.5 0 1, f 40;
#X obj 98 527 r PofStepCumul;
#X obj 76 577 f;
#X obj 50 552 bng 15 250 50 0 empty empty empty 17 7 0 10 -262144 -1
-1;
#X obj 123 705 poftexts asimov 30;
#X msg 50 621 text cumul beats \, width 80 \, center 1;
#X obj 52 733 nbx 5 14 -1e+37 1e+37 0 1 empty empty empty 0 -8 0 10
-262144 -1 -1 0 256;
#X obj 98 760 nbx 5 14 -1e+37 1e+37 0 1 empty empty empty 0 -8 0 10
-262144 -1 -1 39 256;
#X obj 43 778 poftranslate;
#X obj 208 923 unpack f f f;
#X obj 130 959 pofcolor 1 1 1 1;
#X obj 105 802 r PofStepCumul;
#X obj 83 852 f;
#X obj 57 827 bng 15 250 50 0 empty empty empty 17 7 0 10 -262144 -1
-1;
#X obj 130 980 poftexts asimov 30;
#X msg 57 896 text \$1 \, width 80 \, center 1;
#X obj 102 269 fixScaleX;
#X connect 0 0 14 0;
#X connect 2 0 3 0;
#X connect 3 0 4 0;
#X connect 4 0 15 0;
#X connect 4 1 12 0;
#X connect 5 1 6 0;
#X connect 6 0 7 0;
#X connect 7 0 3 0;
#X connect 8 0 9 0;
#X connect 9 0 3 0;
#X connect 10 0 5 0;
#X connect 11 0 10 0;
#X connect 12 0 5 0;
#X connect 13 0 7 0;
#X connect 14 0 75 0;
#X connect 14 1 59 0;
#X connect 16 0 45 0;
#X connect 16 1 48 0;
#X connect 18 0 17 0;
#X connect 19 0 58 1;
#X connect 19 1 58 2;
#X connect 19 2 58 3;
#X connect 20 0 57 0;
#X connect 21 0 22 0;
#X connect 22 0 24 0;
#X connect 23 0 24 1;
#X connect 24 0 25 0;
#X connect 28 0 29 0;
#X connect 29 0 59 1;
#X connect 30 0 31 0;
#X connect 31 0 59 2;
#X connect 32 0 33 0;
#X connect 33 0 59 3;
#X connect 34 0 35 0;
#X connect 35 0 59 4;
#X connect 36 0 27 0;
#X connect 36 0 37 0;
#X connect 36 1 3 0;
#X connect 36 1 42 0;
#X connect 38 0 39 0;
#X connect 38 0 40 0;
#X connect 39 0 41 0;
#X connect 40 0 59 1;
#X connect 41 0 59 1;
#X connect 43 0 45 1;
#X connect 44 0 45 2;
#X connect 45 0 46 0;
#X connect 46 1 67 0;
#X connect 46 2 58 0;
#X connect 47 0 48 1;
#X connect 48 0 56 0;
#X connect 49 0 48 2;
#X connect 50 0 56 0;
#X connect 51 0 56 0;
#X connect 52 0 59 1;
#X connect 52 1 59 2;
#X connect 52 2 59 3;
#X connect 52 3 59 4;
#X connect 53 0 52 0;
#X connect 54 0 52 0;
#X connect 56 1 36 0;
#X connect 57 0 19 0;
#X connect 58 0 63 0;
#X connect 59 0 55 0;
#X connect 60 0 61 0;
#X connect 61 0 64 0;
#X connect 62 0 61 0;
#X connect 64 0 63 0;
#X connect 65 0 67 1;
#X connect 66 0 67 2;
#X connect 67 0 69 0;
#X connect 68 0 69 1;
#X connect 68 1 69 2;
#X connect 68 2 69 3;
#X connect 69 0 73 0;
#X connect 70 0 71 0;
#X connect 71 0 74 0;
#X connect 72 0 71 0;
#X connect 74 0 73 0;
#X connect 75 0 16 0;
#X restore 87 62 pd Step;
#X msg 486 374 text Step-\$1;
#X obj 627 350 f \$1;
#X obj 380 119 poftranslate 0 0 0;
#X obj 465 302 poftranslate -50 -150;
#X obj 98 223 poftranslate 0 0;
#X obj 181 71 bng 15 250 50 0 empty empty empty 17 7 0 10 -262144 -1
-1;
#X obj 218 92 s BangPofStep-\$1;
#X connect 0 0 64 1;
#X connect 1 0 64 2;
#X connect 2 0 64 3;
#X connect 4 0 65 1;
#X connect 5 0 65 2;
#X connect 6 0 65 3;
#X connect 7 0 63 0;
#X connect 8 0 12 0;
#X connect 8 1 36 0;
#X connect 9 0 36 1;
#X connect 10 0 36 2;
#X connect 11 0 42 2;
#X connect 12 1 64 0;
#X connect 13 0 8 0;
#X connect 13 1 19 0;
#X connect 14 0 17 0;
#X connect 14 0 29 0;
#X connect 14 0 32 0;
#X connect 14 1 30 0;
#X connect 15 0 41 0;
#X connect 16 0 15 0;
#X connect 18 0 31 0;
#X connect 19 0 41 0;
#X connect 20 0 21 0;
#X connect 21 0 43 1;
#X connect 22 0 23 0;
#X connect 23 0 43 2;
#X connect 24 0 25 0;
#X connect 25 0 43 3;
#X connect 26 0 27 0;
#X connect 27 0 43 4;
#X connect 28 0 42 1;
#X connect 31 0 13 0;
#X connect 32 0 33 0;
#X connect 33 0 31 0;
#X connect 34 0 31 0;
#X connect 35 0 60 0;
#X connect 35 1 61 0;
#X connect 36 0 43 0;
#X connect 37 0 41 0;
#X connect 39 0 66 1;
#X connect 40 0 66 2;
#X connect 43 0 42 0;
#X connect 46 0 45 0;
#X connect 46 0 59 0;
#X connect 47 0 48 0;
#X connect 48 0 55 0;
#X connect 48 1 50 0;
#X connect 49 0 55 0;
#X connect 50 0 49 0;
#X connect 51 0 50 1;
#X connect 52 0 50 1;
#X connect 53 0 49 0;
#X connect 54 0 47 0;
#X connect 57 0 35 0;
#X connect 61 0 58 0;
#X connect 61 0 67 0;
#X connect 61 1 66 0;
#X connect 62 0 3 0;
#X connect 63 0 62 0;
#X connect 64 0 44 0;
#X connect 64 0 65 0;
#X connect 65 0 3 0;
#X connect 66 0 13 0;
#X connect 67 0 68 0;
