#N canvas 180 884 450 389 10;
#X obj 125 163 loadbang;
#X msg 125 185 draw 1;
#X obj 85 255 pofcolor 0 0 0 1;
#X text 168 11 radioToggle channel num text;
#X obj 85 102 inlet;
#X obj 85 123 t a a;
#X obj 112 143 pofcolor 1 1 1 1;
#X obj 234 192 symbol \$3;
#X msg 239 242 text \$1;
#X obj 226 54 r \$1-s;
#X obj 208 288 route down up;
#X msg 245 309 0;
#X msg 208 309 1;
#X obj 209 334 list prepend \$2;
#X obj 226 75 != \$2;
#X obj 250 174 bng 15 250 50 0 empty empty empty 17 7 0 10 -262144
-1 -1;
#X obj 212 363 s \$1-r;
#X obj 85 281 poftexts asimov 25;
#X obj 109 225 poftouch 70 48;
#X connect 0 0 1 0;
#X connect 0 0 7 0;
#X connect 1 0 18 0;
#X connect 2 0 17 0;
#X connect 4 0 5 0;
#X connect 5 0 2 0;
#X connect 5 1 6 0;
#X connect 6 0 18 0;
#X connect 7 0 8 0;
#X connect 8 0 17 0;
#X connect 9 0 14 0;
#X connect 10 0 12 0;
#X connect 10 1 11 0;
#X connect 12 0 13 0;
#X connect 13 0 16 0;
#X connect 14 0 6 3;
#X connect 15 0 7 0;
#X connect 18 1 10 0;
