#N canvas 247 1065 450 389 10;
#X obj 125 163 loadbang;
#X msg 125 185 draw 1;
#X obj 85 255 pofcolor 0 0 0 1;
#X text 168 11 radioToggle channel num text;
#X obj 85 102 inlet;
#X obj 85 123 t a a;
#X obj 112 143 pofcolor 1 1 1 1;
#X obj 234 192 symbol \$3;
#X msg 239 242 text \$1;
#X obj 226 54 r \$1-s;
#X obj 199 73 tgl 15 0 empty empty empty 17 7 0 10 -262144 -1 -1 0
1;
#X obj 208 288 route down up;
#X msg 245 309 0;
#X msg 208 309 1;
#X obj 212 342 list prepend \$2;
#X obj 226 75 != \$2;
#X obj 250 174 bng 15 250 50 0 empty empty empty 17 7 0 10 -262144
-1 -1;
#X obj 85 281 poftexts asimov 33;
#X obj 306 150 makesymbol \$3;
#X obj 318 105 bng 15 250 50 0 empty empty empty 17 7 0 10 -262144
-1 -1;
#X symbolatom 317 191 10 0 0 0 - - -;
#X obj 112 222 poftouch 50 40;
#X obj 212 363 s \$1-r;
#X connect 0 0 1 0;
#X connect 0 0 7 0;
#X connect 0 0 18 0;
#X connect 1 0 21 0;
#X connect 2 0 17 0;
#X connect 4 0 5 0;
#X connect 5 0 2 0;
#X connect 5 1 6 0;
#X connect 6 0 21 0;
#X connect 8 0 17 0;
#X connect 9 0 15 0;
#X connect 11 0 13 0;
#X connect 11 1 12 0;
#X connect 13 0 14 0;
#X connect 14 0 22 0;
#X connect 15 0 6 3;
#X connect 16 0 7 0;
#X connect 18 0 20 0;
#X connect 18 0 8 0;
#X connect 19 0 18 0;
#X connect 21 1 11 0;
