#N canvas 523 490 450 389 10;
#X obj 125 163 loadbang;
#X msg 125 185 draw 1;
#X obj 85 255 pofcolor 0 0 0 1;
#X text 168 11 radioToggle channel num text;
#X obj 85 102 inlet;
#X obj 85 123 t a a;
#X obj 112 143 pofcolor 1 1 1 1;
#X obj 234 192 symbol \$3;
#X msg 239 242 text \$1;
#X obj 174 34 r \$1-s;
#X obj 208 288 route down up;
#X msg 245 309 0;
#X msg 208 309 1;
#X obj 209 334 list prepend \$2;
#X obj 174 55 != \$2;
#X obj 250 174 bng 15 250 50 0 empty empty empty 17 7 0 10 -262144
-1 -1;
#X obj 212 363 s \$1-r;
#X obj 85 281 poftexts asimov 25;
#X obj 111 222 poftouch 58 58;
#X obj 320 216 sel Copy Paste;
#X msg 321 241 0 1 0 1;
#X msg 336 273 1 0 0 1;
#X obj 135 116 unpack f f f f;
#X floatatom 184 82 5 0 0 0 - - -;
#X msg 258 60 0 0.5 0 1;
#X obj 87 41 del 200;
#X obj 87 14 sel 1 0;
#X msg 90 67 1;
#X msg 126 68 0;
#X obj 339 107 makefilename \$3;
#X obj 382 143 print;
#X obj 359 79 bng 15 250 50 0 empty empty empty 17 7 0 10 -262144 -1
-1;
#X symbolatom 336 173 10 0 0 0 - - -;
#X connect 0 0 1 0;
#X connect 0 0 7 0;
#X connect 0 0 29 0;
#X connect 1 0 18 0;
#X connect 2 0 17 0;
#X connect 4 0 5 0;
#X connect 5 0 2 0;
#X connect 5 1 6 0;
#X connect 6 0 18 0;
#X connect 7 0 8 0;
#X connect 8 0 17 0;
#X connect 9 0 14 0;
#X connect 10 0 12 0;
#X connect 10 1 11 0;
#X connect 12 0 13 0;
#X connect 13 0 16 0;
#X connect 14 0 23 0;
#X connect 14 0 24 0;
#X connect 14 0 26 0;
#X connect 15 0 7 0;
#X connect 18 1 10 0;
#X connect 19 0 20 0;
#X connect 19 1 21 0;
#X connect 20 0 22 0;
#X connect 21 0 22 0;
#X connect 22 0 6 1;
#X connect 22 1 6 2;
#X connect 22 2 6 3;
#X connect 22 3 6 4;
#X connect 25 0 27 0;
#X connect 26 1 28 0;
#X connect 26 1 25 0;
#X connect 27 0 6 4;
#X connect 28 0 6 4;
#X connect 29 0 32 0;
#X connect 29 0 19 0;
#X connect 31 0 29 0;
