#N canvas 1512 1003 780 899 10;
#X obj 127 609 loadbang;
#X obj 87 701 pofcolor 0 0 0 1;
#X text 242 27 radioToggle channel num text;
#X obj 93 36 inlet;
#X obj 87 569 t a a;
#X obj 114 589 pofcolor 1 1 1 1;
#X obj 241 667 symbol \$3;
#X msg 241 688 text \$1;
#X obj 274 511 r \$1-s;
#X obj 239 571 tgl 15 0 empty empty empty 17 7 0 10 -262144 -1 -1 0
1;
#X obj 210 734 route down up;
#X msg 247 755 0;
#X msg 210 755 1;
#X obj 210 776 list prepend \$2;
#X obj 210 797 s \$1-r;
#X obj 274 532 != \$2;
#X obj 252 620 bng 15 250 50 0 empty empty empty 17 7 0 10 -262144
-1 -1;
#X obj 87 727 poftexts asimov 33;
#X obj 92 125 t a a;
#X obj 163 135 nbx 5 14 -1e+37 1e+37 0 1 empty empty empty 0 -8 0 10
-262144 -1 -1 0 256;
#X obj 221 135 nbx 5 14 -1e+37 1e+37 0 1 empty empty empty 0 -8 0 10
-262144 -1 -1 21 256;
#X obj 233 386 loadbang;
#X obj 125 472 pofcolor 0 0 0 1;
#X obj 123 181 t a a;
#X obj 290 391 bng 15 250 50 0 empty empty empty 17 7 0 10 -262144
-1 -1;
#X obj 330 370 r /\$3sym;
#X symbolatom 382 429 10 0 0 0 - - -;
#X obj 276 425 symbol;
#X msg 279 459 text \$1;
#X obj 129 525 nbx 5 14 -1e+37 1e+37 0 1 empty empty empty 0 -8 0 10
-262144 -1 -1 0 256;
#X obj 88 544 poftranslate, f 21;
#X obj 187 525 nbx 5 14 -1e+37 1e+37 0 1 empty empty empty 0 -8 0 10
-262144 -1 -1 -11 256;
#X obj 125 498 poftexts asimov 20;
#X obj 100 70 t a a;
#X obj 143 70 pofcolor 0 0.9 0.5 1, f 40;
#X msg 199 617 draw 0;
#X obj 110 668 poftouch 100 80;
#X obj 142 92 cadreVec 115 80;
#X obj 564 436 bng 15 250 50 0 empty empty empty 17 7 0 10 -262144
-1 -1;
#X obj 621 455 s concert-MessClock-\$1;
#X obj 477 171 route up down;
#X msg 477 194 0;
#X msg 514 193 1;
#X obj 477 217 tgl 15 0 empty empty empty 17 7 0 10 -262144 -1 -1 0
1;
#X obj 493 243 sel 0 1, f 29;
#X msg 579 314 1;
#X msg 560 267 stop;
#X msg 527 291 0;
#X obj 527 343 f;
#X obj 355 539 s \$1-Set-OnOff;
#X obj 527 365 sel 1;
#X obj 448 461 spigot 1;
#X obj 527 389 t b b b;
#X msg 568 412 0;
#X msg 493 438 1;
#X obj 493 268 t b b b b;
#X obj 579 293 del 300;
#X obj 455 500 bng 15 250 50 0 empty empty empty 17 7 0 10 -262144
-1 -1;
#N canvas 96 884 433 405 choice 0;
#X obj 58 20 inlet;
#X obj 57 84 tgl 15 0 empty empty empty 17 7 0 10 -262144 -1 -1 0 1
;
#X obj 108 134 pofvisible;
#X obj 108 158 t a a;
#X obj 264 177 poftouch 6000 6000;
#X obj 353 204 route down;
#X msg 180 109 0;
#X obj 78 78 sel 1;
#X msg 78 100 1;
#X msg 337 118 draw 1;
#X obj 337 97 loadbang;
#X obj 264 152 pofcolor 0 0 0 0.75;
#X obj 180 84 r page;
#X obj 80 263 outlet;
#X obj 151 248 outlet;
#X obj 152 301 nbx 5 14 -1e+37 1e+37 0 1 empty empty empty 0 -8 0 10
-262144 -1 -1 -102 256;
#X obj 215 302 nbx 5 14 -1e+37 1e+37 0 1 empty empty empty 0 -8 0 10
-262144 -1 -1 29 256;
#X obj 111 319 poftranslate 444 128;
#X msg 306 61 draw 0;
#X obj 108 109 r overHead;
#X connect 0 0 7 0;
#X connect 0 0 1 0;
#X connect 2 0 3 0;
#X connect 3 0 13 0;
#X connect 4 1 5 0;
#X connect 5 0 6 0;
#X connect 6 0 2 0;
#X connect 6 0 14 0;
#X connect 7 0 8 0;
#X connect 8 0 2 0;
#X connect 9 0 4 0;
#X connect 10 0 9 0;
#X connect 11 0 4 0;
#X connect 12 0 6 0;
#X connect 15 0 17 1;
#X connect 16 0 17 2;
#X connect 18 0 4 0;
#X connect 19 0 2 0;
#X restore 546 542 pd choice;
#X msg 548 513 1;
#X msg 532 581 1;
#X obj 505 629 listGui\$3;
#X obj 443 562 r overHead;
#X obj 122 154 poftranslate, f 21;
#X obj 382 609 r \$3;
#X floatatom 429 736 5 0 0 0 - - -;
#X obj 378 689 r /\$3;
#X obj 475 683 r \$3sNumber;
#X obj 487 728 print BASS;
#X obj 573 691 r list-\$3s-number;
#X obj 384 640 print Harmonie;
#X connect 0 0 6 0;
#X connect 1 0 17 0;
#X connect 3 0 33 0;
#X connect 4 0 1 0;
#X connect 4 1 5 0;
#X connect 5 0 36 0;
#X connect 6 0 7 0;
#X connect 7 0 17 0;
#X connect 8 0 15 0;
#X connect 10 0 12 0;
#X connect 10 1 11 0;
#X connect 11 0 13 0;
#X connect 12 0 13 0;
#X connect 13 0 14 0;
#X connect 15 0 5 3;
#X connect 16 0 6 0;
#X connect 18 0 30 0;
#X connect 18 1 63 0;
#X connect 19 0 63 1;
#X connect 20 0 63 2;
#X connect 21 0 27 0;
#X connect 22 0 32 0;
#X connect 23 0 22 0;
#X connect 24 0 27 0;
#X connect 25 0 26 0;
#X connect 25 0 28 0;
#X connect 27 0 28 0;
#X connect 28 0 32 0;
#X connect 29 0 30 1;
#X connect 30 0 4 0;
#X connect 31 0 30 2;
#X connect 33 0 18 0;
#X connect 33 1 34 0;
#X connect 34 0 37 0;
#X connect 35 0 36 0;
#X connect 36 1 10 0;
#X connect 36 1 40 0;
#X connect 40 0 41 0;
#X connect 40 1 42 0;
#X connect 41 0 43 0;
#X connect 42 0 43 0;
#X connect 43 0 44 0;
#X connect 44 0 55 0;
#X connect 44 1 56 0;
#X connect 45 0 48 0;
#X connect 46 0 56 0;
#X connect 47 0 48 0;
#X connect 48 0 50 0;
#X connect 50 0 52 0;
#X connect 51 0 57 0;
#X connect 52 1 38 0;
#X connect 52 2 53 0;
#X connect 53 0 51 1;
#X connect 54 0 51 1;
#X connect 55 0 54 0;
#X connect 55 1 51 0;
#X connect 55 2 47 0;
#X connect 55 3 46 0;
#X connect 56 0 45 0;
#X connect 57 0 60 0;
#X connect 59 0 58 0;
#X connect 60 0 61 0;
#X connect 62 0 61 0;
#X connect 63 0 23 0;
