#N canvas 295 251 522 639 10;
#X obj 113 383 loadbang;
#X msg 113 405 draw 1;
#X obj 73 475 pofcolor 0 0 0 1;
#X text 168 11 radioToggle channel num text;
#X obj 79 41 inlet;
#X obj 73 343 t a a;
#X obj 100 363 pofcolor 1 1 1 1;
#X obj 227 441 symbol \$3;
#X msg 227 462 text \$1;
#X obj 252 326 r \$1-s;
#X obj 225 345 tgl 15 0 empty empty empty 17 7 0 10 -262144 -1 -1 0
1;
#X obj 196 508 route down up;
#X msg 233 529 0;
#X msg 196 529 1;
#X obj 196 550 list prepend \$2;
#X obj 196 571 s \$1-r;
#X obj 252 347 != \$2;
#X obj 238 394 bng 15 250 50 0 empty empty empty 17 7 0 10 -262144
-1 -1;
#X obj 73 501 poftexts asimov 33;
#X obj 79 63 t a a;
#X obj 151 68 nbx 5 14 -1e+37 1e+37 0 1 empty empty empty 0 -8 0 10
-262144 -1 -1 0 256;
#X obj 110 87 poftranslate, f 21;
#X obj 209 68 nbx 5 14 -1e+37 1e+37 0 1 empty empty empty 0 -8 0 10
-262144 -1 -1 29 256;
#X obj 151 154 loadbang;
#X msg 151 176 draw 1;
#X obj 111 246 pofcolor 0 0 0 1;
#X obj 111 114 t a a;
#X obj 138 134 pofcolor 1 1 1 1;
#X obj 276 165 bng 15 250 50 0 empty empty empty 17 7 0 10 -262144
-1 -1;
#X obj 316 144 r /\$3sym;
#X symbolatom 368 203 10 0 0 0 - - -;
#X obj 262 199 symbol;
#X msg 265 233 text \$1;
#X obj 115 299 nbx 5 14 -1e+37 1e+37 0 1 empty empty empty 0 -8 0 10
-262144 -1 -1 0 256;
#X obj 74 318 poftranslate, f 21;
#X obj 173 299 nbx 5 14 -1e+37 1e+37 0 1 empty empty empty 0 -8 0 10
-262144 -1 -1 -11 256;
#X obj 139 213 poftouch 120 30;
#X obj 100 442 poftouch 120 50;
#X obj 111 272 poftexts asimov 20;
#X connect 0 0 1 0;
#X connect 0 0 7 0;
#X connect 1 0 37 0;
#X connect 2 0 18 0;
#X connect 4 0 19 0;
#X connect 5 0 2 0;
#X connect 5 1 6 0;
#X connect 6 0 37 0;
#X connect 7 0 8 0;
#X connect 8 0 18 0;
#X connect 9 0 16 0;
#X connect 11 0 13 0;
#X connect 11 1 12 0;
#X connect 12 0 14 0;
#X connect 13 0 14 0;
#X connect 14 0 15 0;
#X connect 16 0 6 3;
#X connect 17 0 7 0;
#X connect 19 0 34 0;
#X connect 19 1 21 0;
#X connect 20 0 21 1;
#X connect 21 0 26 0;
#X connect 22 0 21 2;
#X connect 23 0 24 0;
#X connect 23 0 31 0;
#X connect 24 0 36 0;
#X connect 25 0 38 0;
#X connect 26 0 25 0;
#X connect 26 1 27 0;
#X connect 27 0 36 0;
#X connect 28 0 31 0;
#X connect 29 0 30 0;
#X connect 29 0 32 0;
#X connect 31 0 32 0;
#X connect 32 0 38 0;
#X connect 33 0 34 1;
#X connect 34 0 5 0;
#X connect 35 0 34 2;
#X connect 37 1 11 0;
