#N canvas 2303 1121 450 543 10;
#X obj 31 18 inlet;
#X obj 31 82 s tuneSelHead;
#X obj 292 45 s refreshTunes;
#X obj 292 23 bng 15 250 50 0 empty empty empty 17 7 0 10 -262144 -1
-1;
#N canvas 1 126 407 517 listTunes 0;
#X obj 33 70 pofutil;
#X msg 33 47 getdir;
#X obj 33 112 pofutil;
#X msg 33 91 listdir \$1/seqGAMME/ wav;
#X obj 33 133 list split 2;
#X obj 67 157 t b a b;
#X obj 86 181 list split 1;
#X obj 120 202 t a;
#X obj 120 406 t a a;
#X msg 173 180 list;
#X obj 67 441 list;
#X obj 120 384 list append;
#X obj 86 223 list fromsymbol;
#X obj 86 244 list split 3;
#X obj 120 268 t a a;
#X obj 120 339 list split;
#X obj 147 289 list length;
#X obj 147 310 - 4;
#X obj 120 360 list tosymbol;
#X text 168 245 remove "seq";
#X text 175 309 remove ".wav";
#X obj 67 462 s Tunes;
#X obj 33 21 r refreshTunes;
#X connect 0 0 3 0;
#X connect 1 0 0 0;
#X connect 2 0 4 0;
#X connect 3 0 2 0;
#X connect 4 1 5 0;
#X connect 5 0 10 0;
#X connect 5 1 6 0;
#X connect 5 2 9 0;
#X connect 6 0 12 0;
#X connect 6 1 7 0;
#X connect 7 0 6 0;
#X connect 8 0 10 1;
#X connect 8 1 11 1;
#X connect 9 0 8 0;
#X connect 10 0 21 0;
#X connect 11 0 8 0;
#X connect 12 0 13 0;
#X connect 13 1 14 0;
#X connect 14 0 15 0;
#X connect 14 1 16 0;
#X connect 15 0 18 0;
#X connect 16 0 17 0;
#X connect 17 0 15 1;
#X connect 18 0 11 0;
#X connect 22 0 1 0;
#X restore 331 23 pd listTunes;
#X obj 292 66 r Tunes;
#X obj 292 87 print Tunes;
#X obj 31 39 t a a;
#X obj 154 113 pofcolor 1 1 0 1;
#X obj 154 135 poftexts asimov 40 -1;
#X obj 78 113 loadbang;
#X obj 284 207 r ASK_LOAD;
#X symbolatom 284 262 10 0 0 0 - - -;
#X obj 284 417 s mainSeq-load;
#X msg 111 382 0;
#X obj 45 470 s mainSeq-play;
#X msg 45 450 1;
#X obj 284 338 overlay_confirm;
#X msg 284 313 Woudiou layktou lod "\$1"?;
#X obj 284 282 t s s;
#X obj 284 359 symbol;
#X msg 78 135 text SONGS:;
#X obj 284 228 sel _;
#X obj 356 179 loadbang;
#X msg 356 200 symbol;
#X obj 116 178 clone tuneSelItem 16 8;
#X obj 31 59 poftranslate 0 48;
#X obj 169 468 print;
#X obj 161 300 symbol Basic;
#X obj 98 237 loadbang;
#X obj 138 360 s mainSeq-recall;
#X obj 77 205 bng 15 250 50 0 empty empty empty 17 7 0 10 -262144 -1
-1;
#X msg 143 332 0;
#X floatatom 175 56 5 0 0 0 - - -;
#X floatatom 247 58 5 0 0 0 - - -;
#X obj 154 93 poftranslate -230 40;
#X obj 111 402 s PART_RECALL;
#X obj 41 422 s mainSeq-play;
#X msg 74 297 1, f 1;
#X obj 80 338 del 15;
#X msg 80 362 0, f 1;
#X obj 98 269 t b b b b b;
#X msg 34 172 1, f 1;
#X obj 15 244 s /BASSt;
#X msg 81 450 0;
#X connect 0 0 7 0;
#X connect 3 0 2 0;
#X connect 5 0 6 0;
#X connect 7 0 26 0;
#X connect 7 1 35 0;
#X connect 8 0 9 0;
#X connect 10 0 21 0;
#X connect 11 0 22 0;
#X connect 12 0 19 0;
#X connect 14 0 36 0;
#X connect 16 0 15 0;
#X connect 17 0 20 0;
#X connect 18 0 17 0;
#X connect 19 0 18 0;
#X connect 19 1 20 1;
#X connect 20 0 13 0;
#X connect 21 0 9 0;
#X connect 22 1 12 0;
#X connect 23 0 24 0;
#X connect 24 0 22 1;
#X connect 26 0 1 0;
#X connect 28 0 13 0;
#X connect 29 0 41 0;
#X connect 31 0 41 0;
#X connect 32 0 30 0;
#X connect 33 0 35 1;
#X connect 34 0 35 2;
#X connect 35 0 8 0;
#X connect 38 0 37 0;
#X connect 39 0 40 0;
#X connect 40 0 37 0;
#X connect 41 0 42 0;
#X connect 41 1 38 0;
#X connect 41 1 39 0;
#X connect 41 2 14 0;
#X connect 41 3 32 0;
#X connect 41 4 28 0;
#X connect 42 0 43 0;
#X connect 44 0 15 0;
