#N canvas 676 982 450 543 10;
#X obj 31 18 inlet;
#X obj 31 82 s tuneSelHead;
#X obj 292 45 s refreshTunes;
#X obj 292 23 bng 15 250 50 0 empty empty empty 17 7 0 10 -262144 -1
-1;
#N canvas 1 156 407 517 listTunes 0;
#X obj 33 70 pofutil;
#X msg 33 47 getdir;
#X obj 33 112 pofutil;
#X msg 33 91 listdir \$1/seqGAMME/ wav;
#X obj 33 133 list split 2;
#X obj 67 157 t b a b;
#X obj 86 181 list split 1;
#X obj 120 202 t a;
#X obj 120 406 t a a;
#X msg 173 180 list;
#X obj 67 441 list;
#X obj 120 384 list append;
#X obj 86 223 list fromsymbol;
#X obj 86 244 list split 3;
#X obj 120 268 t a a;
#X obj 120 339 list split;
#X obj 147 289 list length;
#X obj 147 310 - 4;
#X obj 120 360 list tosymbol;
#X text 168 245 remove "seq";
#X text 175 309 remove ".wav";
#X obj 67 462 s Tunes;
#X obj 33 21 r refreshTunes;
#X connect 0 0 3 0;
#X connect 1 0 0 0;
#X connect 2 0 4 0;
#X connect 3 0 2 0;
#X connect 4 1 5 0;
#X connect 5 0 10 0;
#X connect 5 1 6 0;
#X connect 5 2 9 0;
#X connect 6 0 12 0;
#X connect 6 1 7 0;
#X connect 7 0 6 0;
#X connect 8 0 10 1;
#X connect 8 1 11 1;
#X connect 9 0 8 0;
#X connect 10 0 21 0;
#X connect 11 0 8 0;
#X connect 12 0 13 0;
#X connect 13 1 14 0;
#X connect 14 0 15 0;
#X connect 14 1 16 0;
#X connect 15 0 18 0;
#X connect 16 0 17 0;
#X connect 17 0 15 1;
#X connect 18 0 11 0;
#X connect 22 0 1 0;
#X restore 331 23 pd listTunes;
#X obj 292 66 r Tunes;
#X obj 292 87 print Tunes;
#X obj 31 39 t a a;
#X obj 154 116 pofcolor 1 1 0 1;
#X obj 100 260 poftexts asimov 40 -1;
#X obj 18 231 loadbang;
#X obj 284 207 r ASK_LOAD;
#X symbolatom 284 262 10 0 0 0 - - -;
#X obj 284 338 overlay_confirm;
#X msg 284 313 Woudiou layktou lod "\$1"?;
#X obj 284 282 t s s;
#X obj 284 359 symbol;
#X obj 284 228 sel _;
#X obj 356 179 loadbang;
#X msg 356 200 symbol;
#X obj 64 397 clone tuneSelItem 16 8;
#X floatatom 175 56 5 0 0 0 - - -;
#X floatatom 247 58 5 0 0 0 - - -;
#X symbolatom 285 402 10 0 0 0 - - -;
#X obj 183 456 s mainSeq-load;
#X obj 109 297 poftranslate 0 25;
#X obj 144 341 poftexts asimov 20 -1;
#X msg 35 364 text templates;
#X msg 18 253 text Tunes:;
#X msg 298 129 RedouxRelou;
#X obj 300 177 symbol;
#X obj 154 93 poftranslate 36 -20;
#X obj 49 195 s OVERLAYHEAD;
#X obj 90 153 nbx 5 14 -1e+37 1e+37 0 1 empty empty empty 0 -8 0 10
-262144 -1 -1 505 256;
#X obj 153 154 nbx 5 14 -1e+37 1e+37 0 1 empty empty empty 0 -8 0 10
-262144 -1 -1 135 256;
#X obj 49 171 poftranslate;
#X obj 31 59 poftranslate 0 48;
#X obj 256 227 bng 15 250 50 0 empty empty empty 17 7 0 10 -262144
-1 -1;
#X connect 0 0 7 0;
#X connect 3 0 2 0;
#X connect 5 0 6 0;
#X connect 7 0 36 0;
#X connect 7 1 31 0;
#X connect 8 0 9 0;
#X connect 8 0 25 0;
#X connect 10 0 28 0;
#X connect 10 0 27 0;
#X connect 11 0 17 0;
#X connect 11 0 37 0;
#X connect 12 0 15 0;
#X connect 13 0 16 0;
#X connect 14 0 13 0;
#X connect 15 0 14 0;
#X connect 15 1 16 1;
#X connect 16 0 23 0;
#X connect 16 0 24 0;
#X connect 17 1 12 0;
#X connect 18 0 19 0;
#X connect 19 0 17 1;
#X connect 21 0 31 1;
#X connect 22 0 31 2;
#X connect 25 0 26 0;
#X connect 27 0 26 0;
#X connect 28 0 9 0;
#X connect 29 0 30 0;
#X connect 30 0 17 0;
#X connect 31 0 8 0;
#X connect 33 0 35 1;
#X connect 34 0 35 2;
#X connect 35 0 32 0;
#X connect 36 0 1 0;
