#N struct 4341-symarray float x array symbols 4341-sym;
#N struct 4341-sym symbol name float on;
#N struct 4352-symarray float x array symbols 4352-sym;
#N struct 4352-sym symbol name float on;
#N canvas 1276 942 1142 852 10;
#X obj 9 605 r CLOCK;
#X obj 64 702 ndmetro 4 4;
#X floatatom 134 803 5 0 0 0 - - -;
#X obj 64 417 r \$0-stepscumul;
#X obj 64 442 route 7;
#X floatatom 23 519 5 0 0 0 - - -;
#X msg 64 676 nd \$1 \$2;
#X obj 64 783 s \$0-step;
#X obj 1 54 seqstep \$0 0;
#X obj 1 38 nbx 5 14 1 32 0 0 \$0-denum \$0-denum denum 0 -8 0 10 -262144
-1 -1 24 256;
#X obj 122 443 r \$0-denum;
#X obj 154 508 t b f;
#X msg 36 12 1;
#X obj 154 486 / 4;
#X obj 64 567 pack f 1;
#X obj 274 412 r \$0-stepdata;
#X obj 274 434 spigot 1;
#X obj 274 456 unpack f f f;
#X obj 257 621 s /GAMME;
#X obj 274 596 s /CHORD;
#X obj 349 585 s /BASS;
#X obj 205 54 seqstep \$0 2;
#X obj 103 54 seqstep \$0 1;
#X obj 307 54 seqstep \$0 3;
#X obj 409 54 seqstep \$0 4;
#X obj 511 54 seqstep \$0 5;
#X obj 613 54 seqstep \$0 6;
#X obj 715 54 seqstep \$0 7;
#X obj 613 506 s \$0-getdata;
#X obj 730 522 r \$0-getdata-rcv;
#X obj 730 544 list prepend;
#X msg 833 502 list;
#X obj 836 544 t a;
#X msg 613 483 0 \, 1 \, 2 \, 3 \, 4 \, 5 \, 6 \, 7;
#X obj 613 459 t b b;
#X obj 672 543 bng 15 250 50 0 empty empty empty 17 7 0 10 -262144
-1 -1;
#X obj 590 583 list append;
#X obj 590 436 t f b f;
#X obj 655 725 s \$0-table;
#X msg 658 434 0;
#X msg 696 435 1;
#X msg 221 677 0;
#X msg 256 677 1;
#X obj 259 791 s \$0-setdata;
#X obj 590 527 + 1;
#X msg 288 678 2;
#X msg 320 679 3;
#X floatatom 259 706 5 0 0 0 - - -;
#X obj 259 727 + 1;
#X obj 590 553 * 40;
#X obj 259 749 * 40;
#X obj 769 605 r \$0-denum;
#X obj 122 38 nbx 5 14 1 300 0 0 \$0-bpm \$0-bpm bpm 0 -8 0 10 -262144
-1 -1 116 256;
#X obj 181 37 tgl 15 0 \$0-bpm_on \$0-bpm_on bpm_on 0 -8 0 10 -262144
-1 -1 1 1;
#X obj 784 625 r \$0-bpm;
#X obj 849 624 r \$0-bpm_on;
#X obj 710 575 + 32;
#X obj 751 627 f;
#X obj 710 680 list append;
#X obj 710 597 t f b;
#X obj 422 413 r \$0-setdata;
#X obj 422 435 list split 32;
#X obj 259 769 array get \$0-table 0 40;
#X obj 487 513 s \$0-bpm_on;
#X obj 455 534 s \$0-bpm;
#X obj 424 556 s \$0-denum;
#X obj 122 465 sel 0;
#X msg 731 434 2;
#X obj 434 595 r \$0-bpm;
#X obj 309 37 tgl 15 0 \$1-play \$1-play \$1-play 0 -8 0 10 -262144
-1 -1 1 1;
#X obj 117 724 r \$1-play;
#X obj 64 724 spigot;
#X obj 436 777 s /BPM;
#X obj 224 38 nbx 5 14 1 300 0 0 /BPM /BPM /BPM(current) 0 -8 0 10
-262144 -1 -1 240 256;
#X obj 467 617 r \$0-bpm_on;
#X msg 773 433 31;
#N canvas 1 96 450 300 table 0;
#N canvas 0 50 450 250 (subpatch) 0;
#X array \$0-table 1320 float 2;
#X coords 0 1 1320 -1 200 140 1 0 0;
#X restore 36 102 graph;
#X restore 831 77 pd table;
#X obj 444 25 hradio 15 1 0 12 \$1-recall \$1-recall \$1-recall 0 -8
0 10 -4034 -1 -1 2;
#X obj 634 25 hradio 15 1 0 12 \$1-store \$1-store \$1-store 0 -8 0
10 -258113 -1 -1 8;
#X obj 313 702 r \$1-recall;
#X obj 590 414 r \$1-store;
#X msg 578 4 set \$1;
#N canvas 44 735 1156 899 \$0-file 0;
#X obj 81 270 soundfiler;
#X obj 190 183 list prepend \$0-table;
#X obj 52 135 list prepend \$0-table;
#X msg 57 207 read seq\$2.wav \$1;
#X msg 190 204 write -bytes 4 -wave seq\$2.wav \$1;
#X obj 52 66 hradio 15 1 0 12 \$1-load-snd \$1-load-rcv \$1-load 0
-8 0 10 -4034 -1 -1 0;
#X obj 299 68 hradio 15 1 0 12 \$1-save \$1-save \$1-save 0 -8 0 10
-258113 -1 -1 0;
#X obj 219 111 r \$1-save;
#X obj 36 105 r \$1-load;
#X msg 196 21 set \$1;
#X text 316 84 1;
#X text 333 84 2;
#X text 347 84 3;
#X text 362 84 4;
#X text 378 84 5;
#X text 393 84 6;
#X text 410 84 7;
#X text 424 84 8;
#X text 439 84 9;
#X text 452 84 10;
#X text 468 84 11;
#X text 66 83 1;
#X text 83 83 2;
#X text 97 83 3;
#X text 112 83 4;
#X text 128 83 5;
#X text 143 83 6;
#X text 160 83 7;
#X text 174 83 8;
#X text 189 83 9;
#X text 202 83 10;
#X text 218 83 11;
#X obj 291 25 bng 15 250 50 0 empty empty empty 17 7 0 10 -262144 -1
-1;
#X obj 446 147 r mainSeq-load;
#X obj 425 170 list;
#X obj 425 191 list trim;
#X obj 425 215 s mainSeq-save;
#X obj 425 130 bng 15 250 50 0 empty empty saveSong 17 7 0 10 -258113
-1 -1;
#X obj 299 109 bng 15 250 50 0 empty empty empty 17 7 0 10 -262144
-1 -1;
#X obj 316 648 r \$1-load;
#X obj 327 421 print ms;
#X obj 231 610 s \$1-load;
#X msg 230 543 Basic;
#X obj 239 579 symbol;
#X msg 285 540 Siberien;
#X obj 744 108 symbol;
#X obj 744 218 pofutil;
#X msg 744 195 mkdir \$1;
#X obj 813 106 r datadir;
#X obj 744 128 list prepend;
#X obj 744 261 route done;
#X obj 744 174 t s s;
#X obj 744 281 sel 0;
#X obj 744 301 symbol;
#X obj 744 239 route mkdir;
#X obj 270 447 r tune-save-as;
#X msg 744 150 symbol \$1/tune/\$2;
#X msg 697 86 test;
#X symbolatom 838 286 0 0 0 0 - - -;
#X obj 11 602 r tuneCreate;
#X obj 230 701 r tune-save-as;
#X obj 11 658 symbol;
#X symbolatom 13 684 0 0 0 0 - - -;
#X obj 217 753 symbol;
#X symbolatom 219 779 0 0 0 0 - - -;
#X symbolatom 514 182 0 0 0 0 - - -;
#X obj 731 36 symbol;
#X symbolatom 698 57 0 0 0 0 - - -;
#X obj 747 67 r tune;
#X obj 9 181 symbol;
#X symbolatom 11 234 0 0 0 0 - - -;
#X msg 131 109 LeMur;
#X obj 172 269 s tune-saving;
#X obj 109 569 r tunesNumber;
#X floatatom 108 593 5 0 0 0 - - -;
#X obj 15 397 r tune-choix-open;
#X symbolatom 165 604 0 0 0 0 - - -;
#X obj 15 420 symbol;
#X symbolatom 17 446 0 0 0 0 - - -;
#X obj 69 169 print;
#X obj 517 374 r settuneName;
#X obj 517 408 symbol;
#X symbolatom 519 434 0 0 0 0 - - -;
#X obj 65 764 r PlaysSeltune;
#X obj 76 795 symbol;
#X symbolatom 78 821 0 0 0 0 - - -;
#X obj 873 337 r tune-play-name;
#X obj 804 456 symbol;
#X symbolatom 806 482 0 0 0 0 - - -;
#X obj 14 726 r tune-saving-replace;
#X obj 5 509 r tune-saving-name-recorded;
#X obj 11 539 symbol;
#X symbolatom 13 565 0 0 0 0 - - -;
#X obj 10 756 symbol;
#X symbolatom 12 782 0 0 0 0 - - -;
#X obj 28 266 print;
#X msg 755 335 list \$1/;
#X obj 786 362 list;
#X obj 843 543 list;
#X msg 803 620 list \$1\$2;
#X obj 803 599 pack s s;
#X obj 803 641 list;
#X obj 659 790 soundfiler;
#X obj 820 693 list prepend \$0-table;
#X obj 939 724 print;
#X obj 803 667 symbol;
#X symbolatom 786 773 0 0 0 0 - - -;
#X msg 822 725 read \$2 \$1;
#X obj 422 715 symbol;
#X obj 757 567 symbol;
#X obj 847 569 t b a;
#X obj 760 533 del 10;
#X obj 151 369 r tune-saving-name;
#X obj 8 360 r list-tunes-number;
#X obj 548 674 list prepend \$0-table;
#X obj 591 525 list;
#X msg 551 602 list \$1\$2;
#X obj 551 581 pack s s;
#X obj 551 623 list;
#X obj 551 649 symbol;
#X obj 505 549 symbol;
#X obj 595 551 t b a;
#X obj 508 515 del 10;
#X symbolatom 519 832 0 0 0 0 - - -;
#X obj 935 403 r tune;
#X obj 938 430 symbol;
#X symbolatom 940 456 0 0 0 0 - - -;
#X obj 798 423 r PofTuneName;
#X msg 417 420 symbol \$1;
#X msg 438 396 file \$1;
#X obj 417 368 pofxml tunes;
#X msg 417 339 get /tune[\$1][@name];
#X symbolatom 872 367 0 0 0 0 - - -;
#X obj 151 394 symbol;
#X symbolatom 153 420 0 0 0 0 - - -;
#X obj 265 475 symbol;
#X symbolatom 267 501 0 0 0 0 - - -;
#N canvas 501 327 543 729 BuildPofTuneDir 0;
#X obj 94 8 r tunePropsFilename;
#X symbolatom 170 123 0 0 0 0 - - -;
#X msg 61 247 load \$1;
#X obj 112 383 list split 1;
#X obj 135 427 symbol;
#X symbolatom 68 505 0 0 0 0 - - -;
#X obj 115 173 t b b a;
#X msg 67 597 /media/T1/Schoolscape/pd/data/tune/TrucSong/seqTrucSong.wav
;
#X obj 242 467 s PofTuneName;
#X obj 105 350 pofxml tunes;
#X msg 170 262 get /name;
#X connect 0 0 1 0;
#X connect 0 0 6 0;
#X connect 2 0 9 0;
#X connect 3 1 4 1;
#X connect 4 0 5 0;
#X connect 4 0 8 0;
#X connect 6 0 4 0;
#X connect 6 1 10 0;
#X connect 6 2 2 0;
#X connect 9 0 3 0;
#X connect 10 0 9 0;
#X restore 1003 85 pd BuildPofTuneDir;
#X obj 595 146 r PofTuneName;
#X obj 594 199 s mainSeq-load;
#X msg 548 695 write -bytes 4 -nextstep \$2 \$1;
#X msg 590 504 list seq\$1.snd;
#X msg 842 522 list seq\$1.snd;
#X obj 653 291 r \$1-load;
#X obj 624 424 symbol;
#X symbolatom 658 461 0 0 0 0 - - -;
#X obj 625 352 bng 15 250 50 0 saveTune-snd saveTune-rcv saveTune 17
7 0 10 -258113 -1 -1;
#X obj 653 386 r PofTuneName;
#X connect 1 0 4 0;
#X connect 2 0 3 0;
#X connect 3 0 0 0;
#X connect 4 0 0 0;
#X connect 6 0 9 0;
#X connect 7 0 1 0;
#X connect 8 0 69 0;
#X connect 8 0 2 0;
#X connect 9 0 5 0;
#X connect 33 0 34 1;
#X connect 33 0 65 0;
#X connect 34 0 35 0;
#X connect 35 0 36 0;
#X connect 37 0 34 0;
#X connect 38 0 1 0;
#X connect 42 0 43 0;
#X connect 43 0 41 0;
#X connect 44 0 43 0;
#X connect 45 0 49 0;
#X connect 46 0 54 0;
#X connect 47 0 46 0;
#X connect 48 0 49 1;
#X connect 49 0 56 0;
#X connect 50 0 52 0;
#X connect 51 0 47 0;
#X connect 51 1 53 1;
#X connect 52 0 53 0;
#X connect 53 0 58 0;
#X connect 53 0 96 0;
#X connect 54 0 50 0;
#X connect 55 0 135 0;
#X connect 56 0 51 0;
#X connect 57 0 45 0;
#X connect 59 0 61 0;
#X connect 60 0 63 0;
#X connect 61 0 62 0;
#X connect 63 0 64 0;
#X connect 66 0 67 0;
#X connect 68 0 66 0;
#X connect 68 0 45 0;
#X connect 69 0 70 0;
#X connect 71 0 2 0;
#X connect 73 0 74 0;
#X connect 75 0 77 0;
#X connect 77 0 78 0;
#X connect 80 0 81 0;
#X connect 81 0 82 0;
#X connect 81 0 141 0;
#X connect 83 0 84 0;
#X connect 84 0 85 0;
#X connect 86 0 132 0;
#X connect 87 0 88 0;
#X connect 87 0 142 0;
#X connect 89 0 93 0;
#X connect 90 0 91 0;
#X connect 91 0 92 0;
#X connect 93 0 94 0;
#X connect 96 0 97 0;
#X connect 97 0 109 1;
#X connect 97 0 120 1;
#X connect 98 0 110 0;
#X connect 99 0 101 0;
#X connect 100 0 99 0;
#X connect 101 0 105 0;
#X connect 103 0 107 0;
#X connect 105 0 106 0;
#X connect 105 0 103 0;
#X connect 107 0 102 0;
#X connect 109 0 100 0;
#X connect 110 0 111 0;
#X connect 110 1 100 1;
#X connect 111 0 109 0;
#X connect 112 0 133 0;
#X connect 114 0 140 0;
#X connect 115 0 121 0;
#X connect 116 0 118 0;
#X connect 117 0 116 0;
#X connect 118 0 119 0;
#X connect 119 0 114 0;
#X connect 119 0 123 0;
#X connect 120 0 117 0;
#X connect 121 0 122 0;
#X connect 121 1 117 1;
#X connect 122 0 120 0;
#X connect 124 0 125 0;
#X connect 125 0 126 0;
#X connect 127 0 87 0;
#X connect 130 0 129 0;
#X connect 130 0 128 0;
#X connect 131 0 130 0;
#X connect 133 0 134 0;
#X connect 135 0 136 0;
#X connect 138 0 139 0;
#X connect 140 0 102 0;
#X connect 141 0 115 0;
#X connect 142 0 98 0;
#X connect 144 0 145 0;
#X connect 144 0 141 0;
#X connect 146 0 144 0;
#X connect 147 0 144 1;
#X restore 872 7 pd \$0-file;
#X obj 776 10 bng 15 250 50 0 empty empty file 17 7 0 10 -257985 -1
-1;
#X msg 896 63 vis 0 \, vis 1;
#X obj 896 85 s pd-\$0-file;
#X obj 61 38 nbx 5 14 0 1e+06 0 0 \$0-loop \$0-loop loop 0 -8 0 10
-262144 -1 -1 24 256;
#X obj 64 748 mod 4;
#X obj 64 464 t f f;
#X obj 64 605 list prepend 0;
#X obj 201 488 r \$0-loop;
#X obj 201 508 t b f;
#X obj 64 627 route 0;
#X msg 133 676 nd \$1 \$3;
#X obj 751 650 pack f f f f, f 21;
#X obj 933 623 r \$0-loop;
#X obj 424 466 unpack f f f f;
#X obj 505 489 s \$0-loop;
#X text 443 40 1;
#X text 460 40 2;
#X text 474 40 3;
#X text 489 40 4;
#X text 505 40 5;
#X text 520 40 6;
#X text 537 40 7;
#X text 551 40 8;
#X text 566 40 9;
#X text 579 40 10;
#X text 595 40 11;
#X text 610 40 12;
#X text 634 41 1;
#X text 651 41 2;
#X text 665 41 3;
#X text 680 41 4;
#X text 696 41 5;
#X text 711 41 6;
#X text 728 41 7;
#X text 742 41 8;
#X text 757 41 9;
#X text 770 41 10;
#X text 786 41 11;
#X text 801 41 12;
#N canvas 0 96 450 300 Transpose/GAMME 0;
#X obj 101 27 inlet;
#X obj 113 211 outlet;
#X obj 107 114 f;
#X obj 107 161 transpose 0;
#X obj 155 34 r TransposeGammes;
#X obj 153 64 t b f;
#X obj 279 24 loadbang;
#X obj 279 48 del 200;
#X msg 279 71 2741;
#X obj 62 5 r Refresh/GAMME;
#N canvas 1280 1069 450 300 last 0;
#X obj 148 9 inlet;
#X obj 153 194 outlet;
#X obj 155 158 f;
#X obj 139 60 t b b f;
#X msg 137 94 stop;
#X obj 88 128 del 0;
#X connect 0 0 3 0;
#X connect 2 0 1 0;
#X connect 3 0 5 0;
#X connect 3 1 4 0;
#X connect 3 2 2 1;
#X connect 4 0 5 0;
#X connect 5 0 2 0;
#X restore 98 52 pd last;
#X connect 0 0 10 0;
#X connect 2 0 3 0;
#X connect 3 0 1 0;
#X connect 4 0 5 0;
#X connect 5 0 2 0;
#X connect 5 1 3 1;
#X connect 6 0 7 0;
#X connect 7 0 8 0;
#X connect 8 0 2 0;
#X connect 9 0 2 0;
#X connect 10 0 2 0;
#X restore 271 502 pd Transpose/GAMME;
#N canvas 0 96 450 300 Transpose/BASS 0;
#X obj 101 27 inlet;
#X obj 113 211 outlet;
#X obj 107 114 f;
#X obj 107 161 transpose 0;
#X obj 155 34 r TransposeGammes;
#X obj 153 64 t b f;
#X msg 279 69 1;
#X obj 279 24 loadbang;
#X obj 279 48 del 200;
#X obj 62 5 r Refresh/BASS;
#N canvas 1280 1069 450 300 last 0;
#X obj 148 9 inlet;
#X obj 153 194 outlet;
#X obj 155 158 f;
#X obj 139 60 t b b f;
#X msg 137 94 stop;
#X obj 88 128 del 0;
#X connect 0 0 3 0;
#X connect 2 0 1 0;
#X connect 3 0 5 0;
#X connect 3 1 4 0;
#X connect 3 2 2 1;
#X connect 4 0 5 0;
#X connect 5 0 2 0;
#X restore 96 62 pd last;
#X connect 0 0 10 0;
#X connect 2 0 3 0;
#X connect 3 0 1 0;
#X connect 4 0 5 0;
#X connect 5 0 2 0;
#X connect 5 1 3 1;
#X connect 6 0 2 0;
#X connect 7 0 8 0;
#X connect 8 0 6 0;
#X connect 9 0 2 0;
#X connect 10 0 2 0;
#X restore 306 548 pd Transpose/BASS;
#N canvas 0 96 450 300 Transpose/CHORD 0;
#X obj 101 27 inlet;
#X obj 119 238 outlet;
#X obj 107 114 f;
#X obj 107 161 transpose 0;
#X obj 155 34 r TransposeGammes;
#X obj 153 64 t b f;
#X obj 279 24 loadbang;
#X obj 279 48 del 200;
#X msg 279 71 145;
#X obj 62 5 r Refresh/CHORD;
#N canvas 1280 1069 450 300 last 0;
#X obj 148 9 inlet;
#X obj 153 194 outlet;
#X obj 155 158 f;
#X floatatom 279 185 5 0 0 0 - - -;
#X obj 312 127 list length;
#X floatatom 356 171 5 0 0 0 - - -;
#X msg 140 86 stop;
#X obj 139 60 t b b f;
#X obj 93 120 del 0.001;
#X connect 0 0 7 0;
#X connect 2 0 1 0;
#X connect 2 0 3 0;
#X connect 2 0 4 0;
#X connect 4 0 5 0;
#X connect 6 0 8 0;
#X connect 7 0 8 0;
#X connect 7 1 6 0;
#X connect 7 2 2 1;
#X connect 8 0 2 0;
#X restore 119 205 pd last;
#X connect 0 0 2 0;
#X connect 2 0 3 0;
#X connect 3 0 10 0;
#X connect 4 0 5 0;
#X connect 5 0 2 0;
#X connect 5 1 3 1;
#X connect 6 0 7 0;
#X connect 7 0 8 0;
#X connect 8 0 2 0;
#X connect 9 0 2 0;
#X connect 10 0 1 0;
#X restore 294 526 pd Transpose/CHORD;
#X obj 333 2 r mainSeq-load;
#X symbolatom 333 34 0 0 0 0 - - -;
#X text 582 773 http://www.lalecondepiano.com/astuces/liste-acc-test76.htm
;
#X obj 825 105 GAMMEKBchord Type-Chord;
#X obj 827 187 GAMMEKBmode Type-Mode;
#N canvas 110 676 845 506 enumChord 0;
#X obj 81 415 r enumChord;
#X obj 448 197 tabread enumChord;
#X floatatom 448 242 5 0 0 0 - - -;
#X floatatom 669 64 5 0 0 0 - - -;
#X floatatom 390 318 5 0 0 0 - - -;
#X obj 386 274 mod 76;
#X msg 664 126 0;
#X obj 87 9 loadbang;
#X obj 76 356 table enumChord 6000;
#X obj 453 161 t f f;
#X obj 744 132 metro 20;
#X obj 746 158 i;
#X obj 773 156 + 1;
#X obj 718 6 tgl 15 0 empty empty empty 17 7 0 10 -262144 -1 -1 0 1
;
#X obj 719 29 sel 0 1, f 20;
#X msg 804 77 0, f 1;
#X obj 777 55 t b b;
#X msg 778 77 1, f 1;
#X msg 746 76 0, f 1;
#X obj 719 54 t b b;
#X msg 720 76 1, f 1;
#X floatatom 741 201 5 0 0 0 - - -;
#X obj 76 236 bng 15 250 50 0 empty empty empty 17 7 0 10 -262144 -1
-1;
#X obj 76 332 print reset table;
#X text 96 234 reset table to 0s;
#X msg 89 293 \; enumChord const 0;
#X msg 621 47 265;
#X msg 622 70 530;
#X msg 623 90 1060;
#X msg 623 111 2120;
#X obj 97 456 print TabChord;
#X obj 437 319 + 76;
#X floatatom 437 382 5 0 0 0 - - -;
#N canvas 0 96 450 300 maj 0;
#X msg 89 33 145;
#X msg 90 56 290;
#X msg 91 76 580;
#X msg 92 100 1160;
#X msg 93 123 2320;
#X msg 94 143 545;
#X msg 229 31 1090;
#X msg 230 54 2180;
#X msg 230 78 265;
#X msg 231 101 530;
#X msg 232 121 1060;
#X msg 232 142 2120;
#X obj 186 187 f;
#X connect 0 0 12 0;
#X connect 1 0 12 0;
#X connect 2 0 12 0;
#X connect 3 0 12 0;
#X connect 4 0 12 0;
#X connect 5 0 12 0;
#X connect 6 0 12 0;
#X connect 7 0 12 0;
#X connect 8 0 12 0;
#X connect 9 0 12 0;
#X connect 10 0 12 0;
#X connect 11 0 12 0;
#X restore 505 33 pd maj;
#X msg 375 66 289;
#X msg 346 31 2192;
#X msg 396 27 578;
#X msg 327 63 1156;
#X msg 320 109 2312;
#X msg 377 104 529;
#X msg 581 35 1058;
#X msg 461 31 1314;
#X obj 34 31 bng 15 250 50 0 empty empty empty 17 7 0 10 -262144 -1
-1;
#X obj 28 83 enumChord 1;
#X connect 1 0 2 0;
#X connect 1 0 5 0;
#X connect 2 0 31 0;
#X connect 3 0 1 0;
#X connect 5 0 4 0;
#X connect 7 0 43 0;
#X connect 9 0 1 0;
#X connect 10 0 11 0;
#X connect 11 0 12 0;
#X connect 11 0 9 0;
#X connect 11 0 21 0;
#X connect 12 0 11 1;
#X connect 13 0 14 0;
#X connect 14 0 19 0;
#X connect 14 1 16 0;
#X connect 15 0 11 1;
#X connect 16 0 17 0;
#X connect 16 1 15 0;
#X connect 17 0 10 0;
#X connect 18 0 10 0;
#X connect 19 0 20 0;
#X connect 19 1 18 0;
#X connect 22 0 25 0;
#X connect 22 0 23 0;
#X connect 26 0 9 0;
#X connect 27 0 9 0;
#X connect 28 0 9 0;
#X connect 29 0 9 0;
#X connect 31 0 32 0;
#X connect 34 0 9 0;
#X connect 35 0 9 0;
#X connect 36 0 9 0;
#X connect 37 0 9 0;
#X connect 38 0 9 0;
#X connect 39 0 9 0;
#X connect 40 0 9 0;
#X connect 41 0 9 0;
#X connect 42 0 43 0;
#X restore 930 303 pd enumChord;
#N canvas 1200 973 845 506 enumMode 0;
#X floatatom 448 242 5 0 0 0 - - -;
#X floatatom 505 167 5 0 0 0 - - -;
#X floatatom 390 318 5 0 0 0 - - -;
#X msg 664 126 0;
#X obj 87 9 loadbang;
#X obj 453 161 t f f;
#X obj 744 132 metro 20;
#X obj 746 158 i;
#X obj 773 156 + 1;
#X obj 718 6 tgl 15 0 empty empty empty 17 7 0 10 -262144 -1 -1 0 1
;
#X obj 719 29 sel 0 1, f 20;
#X msg 804 77 0, f 1;
#X obj 777 55 t b b;
#X msg 778 77 1, f 1;
#X msg 746 76 0, f 1;
#X obj 719 54 t b b;
#X msg 720 76 1, f 1;
#X floatatom 741 201 5 0 0 0 - - -;
#X obj 76 236 bng 15 250 50 0 empty empty empty 17 7 0 10 -262144 -1
-1;
#X text 96 234 reset table to 0s;
#X msg 621 47 265;
#X msg 622 70 530;
#X msg 623 90 1060;
#X msg 623 111 2120;
#X obj 97 456 print TabChord;
#X floatatom 437 382 5 0 0 0 - - -;
#N canvas 0 96 450 300 maj 0;
#X msg 89 33 145;
#X msg 90 56 290;
#X msg 91 76 580;
#X msg 92 100 1160;
#X msg 93 123 2320;
#X msg 94 143 545;
#X msg 229 31 1090;
#X msg 230 54 2180;
#X msg 230 78 265;
#X msg 231 101 530;
#X msg 232 121 1060;
#X msg 232 142 2120;
#X obj 186 187 f;
#X connect 0 0 12 0;
#X connect 1 0 12 0;
#X connect 2 0 12 0;
#X connect 3 0 12 0;
#X connect 4 0 12 0;
#X connect 5 0 12 0;
#X connect 6 0 12 0;
#X connect 7 0 12 0;
#X connect 8 0 12 0;
#X connect 9 0 12 0;
#X connect 10 0 12 0;
#X connect 11 0 12 0;
#X restore 505 33 pd maj;
#X msg 375 66 289;
#X msg 346 31 2192;
#X msg 396 27 578;
#X msg 327 63 1156;
#X msg 320 109 2312;
#X msg 377 104 529;
#X obj 34 31 bng 15 250 50 0 empty empty empty 17 7 0 10 -262144 -1
-1;
#X obj 28 83 enumMode 1;
#X obj 81 415 r enumMode;
#X msg 89 293 \; enumMode const 0;
#X obj 448 197 tabread enumMode;
#X obj 76 332 print reset Mode;
#X obj 70 44 del 2000;
#X obj 76 356 table enumMode 5000;
#X obj 386 274 mod 25;
#X obj 437 319 + 25;
#X msg 496 69 2741;
#X msg 538 68 1387;
#X msg 435 65 173;
#X msg 461 31 2741;
#X connect 0 0 42 0;
#X connect 1 0 37 0;
#X connect 4 0 39 0;
#X connect 5 0 37 0;
#X connect 6 0 7 0;
#X connect 7 0 8 0;
#X connect 7 0 5 0;
#X connect 7 0 17 0;
#X connect 8 0 7 1;
#X connect 9 0 10 0;
#X connect 10 0 15 0;
#X connect 10 1 12 0;
#X connect 11 0 7 1;
#X connect 12 0 13 0;
#X connect 12 1 11 0;
#X connect 13 0 6 0;
#X connect 14 0 6 0;
#X connect 15 0 16 0;
#X connect 15 1 14 0;
#X connect 18 0 36 0;
#X connect 18 0 38 0;
#X connect 20 0 5 0;
#X connect 21 0 5 0;
#X connect 22 0 5 0;
#X connect 23 0 5 0;
#X connect 27 0 5 0;
#X connect 28 0 5 0;
#X connect 29 0 5 0;
#X connect 30 0 5 0;
#X connect 31 0 5 0;
#X connect 32 0 5 0;
#X connect 33 0 34 0;
#X connect 37 0 0 0;
#X connect 37 0 41 0;
#X connect 39 0 34 0;
#X connect 41 0 2 0;
#X connect 42 0 25 0;
#X connect 43 0 5 0;
#X connect 44 0 5 0;
#X connect 45 0 5 0;
#X connect 46 0 5 0;
#X restore 946 349 pd enumMode;
#N canvas 0 96 725 256 transpose 0;
#X msg 385 57 1;
#X msg 385 78 0;
#X msg 385 37 2;
#X msg 385 99 -1;
#X msg 385 122 -2;
#X msg 384 12 3;
#X msg 387 148 -3;
#X obj 12 111 mknob 25 100 -11 11 0 0 empty empty empty -2 -6 0 8 -262144
-1 -1 0 1;
#X floatatom 13 168 5 0 0 0 - - -;
#X obj 156 185 bng 15 250 50 0 empty empty empty 17 7 0 10 -262144
-1 -1;
#X obj 145 141 r transpose-r;
#X floatatom 99 191 5 0 0 0 - - -;
#X obj 479 91 s TransposeAll;
#X msg 639 71 1;
#X msg 639 92 0;
#X msg 639 51 2;
#X msg 639 113 -1;
#X msg 639 136 -2;
#X msg 638 26 3;
#X msg 641 162 -3;
#X obj 225 77 s TransposeGammes;
#X connect 0 0 20 0;
#X connect 1 0 20 0;
#X connect 2 0 20 0;
#X connect 3 0 20 0;
#X connect 4 0 20 0;
#X connect 5 0 20 0;
#X connect 6 0 20 0;
#X connect 7 0 8 0;
#X connect 7 0 20 0;
#X connect 10 0 9 0;
#X connect 10 0 11 0;
#X connect 10 0 20 0;
#X connect 13 0 12 0;
#X connect 14 0 12 0;
#X connect 15 0 12 0;
#X connect 16 0 12 0;
#X connect 17 0 12 0;
#X connect 18 0 12 0;
#X connect 19 0 12 0;
#X restore 879 423 pd transpose;
#X obj 972 450 spigot 1;
#X obj 972 472 unpack s s s;
#X obj 1044 499 s /BASSsym;
#X obj 1003 519 s /CHORDsym;
#X obj 963 541 s /GAMMEsym;
#X obj 972 428 r \$0-stepdataSym;
#X obj 13 494 s PofStepCumul;
#N canvas 2060 1535 956 269 remotePof 0;
#X obj 45 93 s \$0-denum;
#X obj 48 128 r \$0-denum;
#X obj 45 68 r seq-PofDenumerator-s;
#X obj 48 154 s seq-PofDenumerator-r;
#X floatatom 141 111 5 0 0 0 - - -;
#X floatatom 342 94 5 0 0 0 - - -;
#X obj 246 76 s \$0-bpm;
#X obj 249 111 r \$0-bpm;
#X obj 246 51 r bpmPart-r;
#X obj 250 172 s bpmPart-s;
#X floatatom 337 159 5 0 0 0 - - -;
#X floatatom 539 91 5 0 0 0 - - -;
#X obj 443 73 s \$0-bpm_on;
#X obj 446 108 r \$0-bpm_on;
#X obj 429 30 r PofBpmPart_on-s;
#X obj 440 186 s PofBpmPart_on-r;
#X floatatom 477 145 5 0 0 0 - - -;
#X obj 593 139 r \$1-recall;
#X floatatom 631 164 5 0 0 0 - - -;
#X obj 608 204 s PofPartRecall-r;
#X obj 597 168 + 1;
#X obj 594 96 s \$1-recall;
#X obj 585 48 r PofPartRecall-s;
#X obj 593 73 - 1;
#X floatatom 784 157 5 0 0 0 - - -;
#X obj 750 161 + 1;
#X obj 746 66 - 1;
#X obj 738 41 r PofPartStore-s;
#X obj 761 197 s PofPartStore-r;
#X obj 747 89 s \$1-store;
#X obj 746 132 r \$1-store;
#X floatatom 827 75 5 0 0 0 - - -;
#X floatatom 698 78 5 0 0 0 - - -;
#X connect 1 0 3 0;
#X connect 2 0 0 0;
#X connect 2 0 4 0;
#X connect 7 0 9 0;
#X connect 7 0 10 0;
#X connect 8 0 5 0;
#X connect 8 0 6 0;
#X connect 13 0 16 0;
#X connect 13 0 15 0;
#X connect 14 0 11 0;
#X connect 14 0 12 0;
#X connect 17 0 18 0;
#X connect 17 0 20 0;
#X connect 20 0 19 0;
#X connect 22 0 23 0;
#X connect 22 0 32 0;
#X connect 23 0 21 0;
#X connect 25 0 28 0;
#X connect 26 0 29 0;
#X connect 27 0 26 0;
#X connect 27 0 31 0;
#X connect 30 0 24 0;
#X connect 30 0 25 0;
#X restore 992 104 pd remotePof;
#X obj 538 625 r Lock-bpm_on;
#X obj 537 692 tgl 15 0 empty empty empty 17 7 0 10 -262144 -1 -1 0
1;
#X obj 538 654 != 1;
#X obj 480 704 tgl 15 0 empty empty empty 17 7 0 10 -262144 -1 -1 0
1;
#X obj 434 727 spigot 0;
#X obj 476 674 spigot 0;
#X obj 144 778 s PofStepIncr;
#X obj 360 663 print last;
#X obj 344 630 print;
#X connect 0 0 1 0;
#X connect 1 0 71 0;
#X connect 3 0 4 0;
#X connect 4 0 5 0;
#X connect 4 0 88 0;
#X connect 4 0 139 0;
#X connect 6 0 1 0;
#X connect 10 0 66 0;
#X connect 11 0 14 0;
#X connect 11 1 14 1;
#X connect 12 0 9 0;
#X connect 13 0 11 0;
#X connect 14 0 89 0;
#X connect 15 0 16 0;
#X connect 16 0 17 0;
#X connect 17 0 122 0;
#X connect 17 1 124 0;
#X connect 17 2 123 0;
#X connect 29 0 30 0;
#X connect 30 0 32 0;
#X connect 30 0 36 1;
#X connect 31 0 32 0;
#X connect 32 0 30 1;
#X connect 33 0 28 0;
#X connect 34 0 33 0;
#X connect 34 1 31 0;
#X connect 35 0 36 0;
#X connect 36 0 38 0;
#X connect 37 0 44 0;
#X connect 37 1 34 0;
#X connect 39 0 37 0;
#X connect 40 0 37 0;
#X connect 41 0 47 0;
#X connect 42 0 47 0;
#X connect 44 0 49 0;
#X connect 45 0 47 0;
#X connect 46 0 47 0;
#X connect 47 0 48 0;
#X connect 48 0 50 0;
#X connect 49 0 36 0;
#X connect 49 0 56 0;
#X connect 50 0 62 0;
#X connect 51 0 57 1;
#X connect 54 0 94 1;
#X connect 55 0 94 2;
#X connect 56 0 59 0;
#X connect 57 0 94 0;
#X connect 58 0 38 0;
#X connect 59 0 58 0;
#X connect 59 1 57 0;
#X connect 60 0 61 0;
#X connect 61 1 96 0;
#X connect 62 0 43 0;
#X connect 66 1 13 0;
#X connect 67 0 37 0;
#X connect 68 0 145 0;
#X connect 70 0 71 1;
#X connect 71 0 87 0;
#X connect 74 0 146 0;
#X connect 75 0 37 0;
#X connect 78 0 81 0;
#X connect 79 0 47 0;
#X connect 80 0 37 0;
#X connect 81 0 77 0;
#X connect 83 0 84 0;
#X connect 84 0 85 0;
#X connect 87 0 7 0;
#X connect 87 0 147 0;
#X connect 87 0 2 0;
#X connect 88 0 14 0;
#X connect 88 1 87 1;
#X connect 89 0 92 0;
#X connect 90 0 91 0;
#X connect 91 0 14 0;
#X connect 91 1 89 1;
#X connect 92 0 6 0;
#X connect 92 1 93 0;
#X connect 93 0 1 0;
#X connect 94 0 58 1;
#X connect 95 0 94 3;
#X connect 96 0 65 0;
#X connect 96 1 64 0;
#X connect 96 2 63 0;
#X connect 96 3 97 0;
#X connect 122 0 18 0;
#X connect 123 0 20 0;
#X connect 124 0 19 0;
#X connect 125 0 126 0;
#X connect 133 0 134 0;
#X connect 134 0 137 0;
#X connect 134 1 136 0;
#X connect 134 2 135 0;
#X connect 138 0 133 0;
#X connect 141 0 143 0;
#X connect 143 0 142 0;
#X connect 143 0 146 1;
#X connect 143 0 144 0;
#X connect 144 0 145 1;
#X connect 145 0 72 0;
#X connect 146 0 144 0;
#X coords 0 -1 1 1 818 397 1 0 10;
