#N struct 3811-symarray float x array symbols 3811-sym;
#N struct 3811-sym symbol name float on;
#N struct 3822-symarray float x array symbols 3822-sym;
#N struct 3822-sym symbol name float on;
#N canvas 33 1071 1142 843 10;
#X obj 9 585 r CLOCK;
#X obj 64 682 ndmetro 4 4;
#X floatatom 19 710 5 0 0 0 - - -;
#X obj 64 397 r \$0-stepscumul;
#X obj 64 422 route 7;
#X floatatom 23 499 5 0 0 0 - - -;
#X msg 64 656 nd \$1 \$2;
#X obj 64 763 s \$0-step;
#X obj 1 55 seqstep \$0 0;
#X obj 1 38 nbx 5 14 1 32 0 0 \$0-denum \$0-denum denum 0 -8 0 10 -262144
-1 -1 32 256;
#X obj 122 423 r \$0-denum;
#X obj 154 488 t b f;
#X msg 36 12 1;
#X obj 154 466 / 4;
#X obj 64 547 pack f 1;
#X obj 274 392 r \$0-stepdata;
#X obj 274 414 spigot 1;
#X obj 274 436 unpack f f f;
#X obj 257 601 s /GAMME;
#X obj 297 579 s /CHORD;
#X obj 338 559 s /BASS;
#X obj 205 55 seqstep \$0 2;
#X obj 103 55 seqstep \$0 1;
#X obj 307 55 seqstep \$0 3;
#X obj 409 55 seqstep \$0 4;
#X obj 511 55 seqstep \$0 5;
#X obj 613 55 seqstep \$0 6;
#X obj 715 55 seqstep \$0 7;
#X obj 613 486 s \$0-getdata;
#X obj 730 502 r \$0-getdata-rcv;
#X obj 730 524 list prepend;
#X msg 833 482 list;
#X obj 836 524 t a;
#X msg 613 463 0 \, 1 \, 2 \, 3 \, 4 \, 5 \, 6 \, 7;
#X obj 613 439 t b b;
#X obj 672 523 bng 15 250 50 0 empty empty empty 17 7 0 10 -262144
-1 -1;
#X obj 590 563 list append;
#X obj 590 416 t f b f;
#X obj 590 691 s \$0-table;
#X msg 658 414 0;
#X msg 696 415 1;
#X msg 221 627 0;
#X msg 256 627 1;
#X obj 259 741 s \$0-setdata;
#X obj 590 507 + 1;
#X msg 288 628 2;
#X msg 320 629 3;
#X floatatom 259 656 5 0 0 0 - - -;
#X obj 259 677 + 1;
#X obj 590 533 * 40;
#X obj 259 699 * 40;
#X obj 769 585 r \$0-denum;
#X obj 122 38 nbx 5 14 1 300 0 0 \$0-bpm \$0-bpm bpm 0 -8 0 10 -262144
-1 -1 116 256;
#X obj 181 37 tgl 15 0 \$0-bpm_on \$0-bpm_on bpm_on 0 -8 0 10 -262144
-1 -1 1 1;
#X obj 784 605 r \$0-bpm;
#X obj 849 604 r \$0-bpm_on;
#X obj 710 555 + 32;
#X obj 751 607 f;
#X obj 710 660 list append;
#X obj 710 577 t f b;
#X obj 422 393 r \$0-setdata;
#X obj 422 415 list split 32;
#X obj 259 719 array get \$0-table 0 40;
#X obj 487 493 s \$0-bpm_on;
#X obj 455 514 s \$0-bpm;
#X obj 424 536 s \$0-denum;
#X obj 122 445 sel 0;
#X msg 731 414 2;
#X obj 457 617 spigot;
#X obj 457 575 r \$0-bpm;
#X obj 309 37 tgl 15 0 \$1-play \$1-play \$1-play 0 -8 0 10 -262144
-1 -1 1 1;
#X obj 117 704 r \$1-play;
#X obj 64 704 spigot;
#X obj 457 639 s /BPM;
#X obj 224 38 nbx 5 14 1 300 0 0 /BPM /BPM /BPM(current) 0 -8 0 10
-262144 -1 -1 116 256;
#X obj 496 595 r \$0-bpm_on;
#X msg 773 413 31;
#N canvas 1 96 450 300 table 0;
#N canvas 0 50 450 250 (subpatch) 0;
#X array \$0-table 1320 float 2;
#X coords 0 1 1320 -1 200 140 1 0 0;
#X restore 36 102 graph;
#X restore 831 77 pd table;
#X obj 444 25 hradio 15 1 0 12 \$1-recall \$1-recall \$1-recall 0 -8
0 10 -4034 -1 -1 0;
#X obj 634 25 hradio 15 1 0 12 \$1-store \$1-store \$1-store 0 -8 0
10 -258113 -1 -1 10;
#X obj 313 652 r \$1-recall;
#X obj 590 394 r \$1-store;
#X msg 578 4 set \$1;
#N canvas 2251 1244 689 321 \$0-file 0;
#X obj 52 193 soundfiler;
#X obj 219 134 list prepend \$0-table;
#X obj 52 135 list prepend \$0-table;
#X msg 52 158 read seq\$2.wav \$1;
#X msg 219 155 write -bytes 4 -wave seq\$2.wav \$1;
#X obj 52 66 hradio 15 1 0 12 \$1-load-snd \$1-load-rcv \$1-load 0
-8 0 10 -4034 -1 -1 0;
#X obj 299 68 hradio 15 1 0 12 \$1-save \$1-save \$1-save 0 -8 0 10
-258113 -1 -1 0;
#X obj 219 111 r \$1-save;
#X obj 52 113 r \$1-load;
#X msg 196 21 set \$1;
#X text 316 84 1;
#X text 333 84 2;
#X text 347 84 3;
#X text 362 84 4;
#X text 378 84 5;
#X text 393 84 6;
#X text 410 84 7;
#X text 424 84 8;
#X text 439 84 9;
#X text 452 84 10;
#X text 468 84 11;
#X text 66 83 1;
#X text 83 83 2;
#X text 97 83 3;
#X text 112 83 4;
#X text 128 83 5;
#X text 143 83 6;
#X text 160 83 7;
#X text 174 83 8;
#X text 189 83 9;
#X text 202 83 10;
#X text 218 83 11;
#X obj 291 25 bng 15 250 50 0 empty empty empty 17 7 0 10 -262144 -1
-1;
#X obj 427 198 r mainSeq-load;
#X obj 406 221 list;
#X obj 406 242 list trim;
#X obj 406 266 s mainSeq-save;
#X obj 406 181 bng 15 250 50 0 empty empty saveSong 17 7 0 10 -258113
-1 -1;
#X obj 299 109 bng 15 250 50 0 empty empty empty 17 7 0 10 -262144
-1 -1;
#X connect 1 0 4 0;
#X connect 2 0 3 0;
#X connect 3 0 0 0;
#X connect 4 0 0 0;
#X connect 6 0 9 0;
#X connect 7 0 1 0;
#X connect 8 0 2 0;
#X connect 9 0 5 0;
#X connect 33 0 34 1;
#X connect 34 0 35 0;
#X connect 35 0 36 0;
#X connect 37 0 34 0;
#X connect 38 0 1 0;
#X restore 872 7 pd \$0-file;
#X obj 776 10 bng 15 250 50 0 empty empty file 17 7 0 10 -257985 -1
-1;
#X msg 896 63 vis 0 \, vis 1;
#X obj 896 85 s pd-\$0-file;
#X obj 61 38 nbx 5 14 0 1e+06 0 0 \$0-loop \$0-loop loop 0 -8 0 10
-262144 -1 -1 0 256;
#X obj 64 728 mod 4;
#X obj 64 444 t f f;
#X obj 64 585 list prepend 0;
#X obj 201 468 r \$0-loop;
#X obj 201 488 t b f;
#X obj 64 607 route 0;
#X msg 133 656 nd \$1 \$3;
#X obj 751 630 pack f f f f, f 21;
#X obj 933 603 r \$0-loop;
#X obj 424 446 unpack f f f f;
#X obj 505 469 s \$0-loop;
#X text 443 40 1;
#X text 460 40 2;
#X text 474 40 3;
#X text 489 40 4;
#X text 505 40 5;
#X text 520 40 6;
#X text 537 40 7;
#X text 551 40 8;
#X text 566 40 9;
#X text 579 40 10;
#X text 595 40 11;
#X text 610 40 12;
#X text 634 41 1;
#X text 651 41 2;
#X text 665 41 3;
#X text 680 41 4;
#X text 696 41 5;
#X text 711 41 6;
#X text 728 41 7;
#X text 742 41 8;
#X text 757 41 9;
#X text 770 41 10;
#X text 786 41 11;
#X text 801 41 12;
#N canvas 0 96 450 300 Transpose/GAMME 0;
#X obj 101 27 inlet;
#X obj 113 211 outlet;
#X obj 107 114 f;
#X obj 107 161 transpose 0;
#X obj 155 34 r TransposeGammes;
#X obj 153 64 t b f;
#X obj 279 24 loadbang;
#X obj 279 48 del 200;
#X msg 279 71 2741;
#X obj 62 5 r Refresh/GAMME;
#X connect 0 0 2 0;
#X connect 2 0 3 0;
#X connect 3 0 1 0;
#X connect 4 0 5 0;
#X connect 5 0 2 0;
#X connect 5 1 3 1;
#X connect 6 0 7 0;
#X connect 7 0 8 0;
#X connect 8 0 2 0;
#X connect 9 0 2 0;
#X restore 279 471 pd Transpose/GAMME;
#N canvas 0 96 450 300 Transpose/BASS 0;
#X obj 101 27 inlet;
#X obj 113 211 outlet;
#X obj 107 114 f;
#X obj 107 161 transpose 0;
#X obj 155 34 r TransposeGammes;
#X obj 153 64 t b f;
#X msg 279 69 1;
#X obj 279 24 loadbang;
#X obj 279 48 del 200;
#X obj 62 5 r Refresh/BASS;
#X connect 0 0 2 0;
#X connect 2 0 3 0;
#X connect 3 0 1 0;
#X connect 4 0 5 0;
#X connect 5 0 2 0;
#X connect 5 1 3 1;
#X connect 6 0 2 0;
#X connect 7 0 8 0;
#X connect 8 0 6 0;
#X connect 9 0 2 0;
#X restore 306 528 pd Transpose/BASS;
#N canvas 0 96 450 300 Transpose/CHORD 0;
#X obj 101 27 inlet;
#X obj 113 211 outlet;
#X obj 107 114 f;
#X obj 107 161 transpose 0;
#X obj 155 34 r TransposeGammes;
#X obj 153 64 t b f;
#X obj 279 24 loadbang;
#X obj 279 48 del 200;
#X msg 279 71 145;
#X obj 62 5 r Refresh/CHORD;
#X connect 0 0 2 0;
#X connect 2 0 3 0;
#X connect 3 0 1 0;
#X connect 4 0 5 0;
#X connect 5 0 2 0;
#X connect 5 1 3 1;
#X connect 6 0 7 0;
#X connect 7 0 8 0;
#X connect 8 0 2 0;
#X connect 9 0 2 0;
#X restore 295 501 pd Transpose/CHORD;
#X obj 333 2 r mainSeq-load;
#X symbolatom 333 34 0 0 0 0 - - -;
#X text 582 753 http://www.lalecondepiano.com/astuces/liste-acc-test76.htm
;
#X obj 825 105 GAMMEKBchord Type-Chord;
#X obj 827 187 GAMMEKBmode Type-Mode;
#X connect 0 0 1 0;
#X connect 1 0 72 0;
#X connect 1 0 2 0;
#X connect 3 0 4 0;
#X connect 4 0 5 0;
#X connect 4 0 89 0;
#X connect 6 0 1 0;
#X connect 10 0 66 0;
#X connect 11 0 14 0;
#X connect 11 1 14 1;
#X connect 12 0 9 0;
#X connect 13 0 11 0;
#X connect 14 0 90 0;
#X connect 15 0 16 0;
#X connect 16 0 17 0;
#X connect 17 0 123 0;
#X connect 17 1 125 0;
#X connect 17 2 124 0;
#X connect 29 0 30 0;
#X connect 30 0 32 0;
#X connect 30 0 36 1;
#X connect 31 0 32 0;
#X connect 32 0 30 1;
#X connect 33 0 28 0;
#X connect 34 0 33 0;
#X connect 34 1 31 0;
#X connect 35 0 36 0;
#X connect 36 0 38 0;
#X connect 37 0 44 0;
#X connect 37 1 34 0;
#X connect 39 0 37 0;
#X connect 40 0 37 0;
#X connect 41 0 47 0;
#X connect 42 0 47 0;
#X connect 44 0 49 0;
#X connect 45 0 47 0;
#X connect 46 0 47 0;
#X connect 47 0 48 0;
#X connect 48 0 50 0;
#X connect 49 0 36 0;
#X connect 49 0 56 0;
#X connect 50 0 62 0;
#X connect 51 0 57 1;
#X connect 54 0 95 1;
#X connect 55 0 95 2;
#X connect 56 0 59 0;
#X connect 57 0 95 0;
#X connect 58 0 38 0;
#X connect 59 0 58 0;
#X connect 59 1 57 0;
#X connect 60 0 61 0;
#X connect 61 1 97 0;
#X connect 62 0 43 0;
#X connect 66 1 13 0;
#X connect 67 0 37 0;
#X connect 68 0 73 0;
#X connect 69 0 68 0;
#X connect 71 0 72 1;
#X connect 72 0 88 0;
#X connect 75 0 68 1;
#X connect 76 0 37 0;
#X connect 79 0 82 0;
#X connect 80 0 47 0;
#X connect 81 0 37 0;
#X connect 82 0 78 0;
#X connect 84 0 85 0;
#X connect 85 0 86 0;
#X connect 88 0 7 0;
#X connect 89 0 14 0;
#X connect 89 1 88 1;
#X connect 90 0 93 0;
#X connect 91 0 92 0;
#X connect 92 0 14 0;
#X connect 92 1 90 1;
#X connect 93 0 6 0;
#X connect 93 1 94 0;
#X connect 94 0 1 0;
#X connect 95 0 58 1;
#X connect 96 0 95 3;
#X connect 97 0 65 0;
#X connect 97 1 64 0;
#X connect 97 2 63 0;
#X connect 97 3 98 0;
#X connect 123 0 18 0;
#X connect 124 0 20 0;
#X connect 125 0 19 0;
#X connect 126 0 127 0;
#X coords 0 -1 1 1 818 380 1 0 10;
