#N canvas 1214 1403 888 517 10;
#X obj 51 67 cnv 15 100 200 empty \$0-canvas empty 20 12 0 14 -166441
-166441 0;
#X obj 55 197 GAMMEKB \$0B 1;
#X obj 55 244 bng 15 250 50 0 \$0-copy \$0-copy copy 17 7 0 10 -4034
-1 -1;
#X obj 103 244 bng 15 250 50 0 \$0-paste \$0-paste paste 17 7 0 10
-258113 -1 -1;
#X obj 56 83 nbx 5 14 0 32 0 0 \$0-steps \$0-steps steps 0 -8 0 10
-262144 -1 -1 4 256;
#X obj 122 81 bng 15 250 50 0 \$0-bang \$0-bang empty 17 7 0 10 -262144
-1 -1;
#X obj 229 75 r \$0G;
#X obj 211 100 f;
#X obj 273 75 r \$0C;
#X obj 316 75 r \$0B;
#X obj 211 47 r \$0-copy;
#X obj 211 144 s \$1-clipboard;
#X obj 211 171 r \$0-paste;
#X obj 229 192 r \$1-clipboard;
#X obj 211 217 l;
#X obj 362 75 r \$0-steps;
#X obj 211 122 pack f f f f;
#X obj 55 102 GAMMEKB \$0G;
#X obj 55 149 GAMMEKB \$0C;
#X obj 386 123 r \$0-steps;
#X obj 386 145 +;
#X obj 416 146 t b f;
#X obj 463 11 r \$1-stepscumul;
#X obj 463 97 route -1;
#X obj 516 31 loadbang;
#X obj 516 53 f \$2;
#X obj 516 75 - 1;
#X obj 386 168 list prepend \$2;
#X obj 386 190 s \$1-stepscumul;
#X floatatom 343 193 5 0 0 0 - - -;
#X obj 211 293 r \$1-step;
#X obj 514 157 s \$0-startstep;
#X obj 514 229 s \$0-stopstep;
#X obj 211 315 -;
#X obj 241 315 r \$0-startstep;
#X obj 257 363 <;
#X obj 289 362 r \$0-steps;
#X obj 219 391 tgl 15 0 empty empty empty 17 7 0 10 -262144 -1 -1 0
1;
#X obj 257 412 sel 0 1;
#X obj 257 470 s \$0-canvas;
#X obj 257 390 change -1;
#X msg 257 434 color 1 1 1;
#X msg 353 432 color 15 15 15;
#X obj 211 337 moses 0;
#X msg 211 359 0;
#X obj 501 330 r \$0G;
#X obj 488 423 f;
#X obj 545 330 r \$0C;
#X obj 588 330 r \$0B;
#X obj 488 445 pack f f f f;
#X obj 488 467 s \$1-stepdata;
#X obj 639 35 r \$1-getdata;
#X obj 639 57 sel \$2;
#X obj 657 86 r \$0G;
#X obj 639 111 f;
#X obj 701 86 r \$0C;
#X obj 744 86 r \$0B;
#X obj 790 86 r \$0-steps;
#X obj 639 133 pack f f f f;
#X obj 639 155 s \$1-getdata-rcv;
#X obj 639 186 r \$1-setdata;
#X obj 639 209 list split;
#X obj 774 137 loadbang;
#X obj 774 159 f \$2;
#X obj 774 181 * 4;
#X obj 672 232 list split 4;
#X obj 670 393 s \$0G;
#X obj 714 393 s \$0C;
#X obj 757 393 s \$0B;
#X obj 802 393 s \$0-steps;
#X obj 670 369 unpack f f f f;
#X obj 672 255 s \$0-setdata;
#X obj 211 238 s \$0-setdata;
#X obj 670 348 r \$0-setdata;
#X obj 174 410 loadbang;
#X obj 381 247 r \$0-bang;
#X obj 431 266 r \$0-startstep;
#X obj 413 291 f;
#X obj 381 269 t b b;
#X obj 413 335 s \$1-step;
#X msg 413 313 -1 \, \$1;
#X msg 358 336 1;
#X obj 501 351 t b f;
#X obj 545 352 t b f;
#X obj 588 352 t b f;
#X obj 488 391 spigot;
#X obj 51 268 hradio 20 1 0 5 \$0-GammeType empty empty 0 -8 0 10 -262144
-1 -1 1;
#X text 141 288 0;
#X text 61 288 M;
#X text 81 288 m;
#X text 101 288 7;
#X text 115 288 m7;
#X obj 45 440 ddemux;
#N canvas 660 191 505 778 GammeType 0;
#X obj 40 4 r \$0B;
#X msg 34 476 2741;
#X obj 77 549 s \$0G;
#X obj 304 558 s \$0C;
#X msg 214 483 145;
#N canvas 63 453 450 300 Transpose/GAMME 0;
#X obj 101 27 inlet;
#X obj 113 211 outlet;
#X obj 107 114 f;
#X obj 107 161 transpose 0;
#X obj 153 64 t b f;
#X obj 279 24 loadbang;
#X obj 279 48 del 200;
#X msg 279 71 2741;
#X obj 165 20 inlet;
#X connect 0 0 2 0;
#X connect 2 0 3 0;
#X connect 3 0 1 0;
#X connect 4 0 2 0;
#X connect 4 1 3 1;
#X connect 5 0 6 0;
#X connect 6 0 7 0;
#X connect 7 0 2 0;
#X connect 8 0 4 0;
#X restore 77 520 pd Transpose/GAMME;
#X msg 41 84 0;
#N canvas 63 453 450 300 Transpose/Chord 0;
#X obj 101 27 inlet;
#X obj 113 211 outlet;
#X obj 107 114 f;
#X obj 107 161 transpose 0;
#X obj 153 64 t b f;
#X obj 279 24 loadbang;
#X obj 279 48 del 200;
#X obj 165 20 inlet;
#X msg 279 71 154;
#X connect 0 0 2 0;
#X connect 2 0 3 0;
#X connect 3 0 1 0;
#X connect 4 0 2 0;
#X connect 4 1 3 1;
#X connect 5 0 6 0;
#X connect 6 0 8 0;
#X connect 7 0 4 0;
#X connect 8 0 2 0;
#X restore 297 524 pd Transpose/Chord;
#X msg 74 84 1;
#X obj 41 61 sel 1 2 4 8 16 32 64 128 256 512 1024 2048, f 67;
#X msg 107 84 2;
#X msg 140 84 3;
#X msg 174 84 4;
#X msg 207 84 5;
#X msg 240 84 6;
#X msg 273 84 7;
#X msg 307 84 8;
#X msg 340 84 9;
#X msg 373 84 10;
#X msg 406 84 11;
#X obj 261 165 r \$0-GammeType;
#X msg 249 479 137;
#X msg 70 475 2733;
#X obj 261 188 t f f;
#X msg 113 471 1717;
#X msg 280 478 1169;
#X msg 149 470 1709;
#X msg 315 474 1161;
#X obj 82 339 ddemux5 0 1 2 3 4;
#X obj 256 324 sel 0 1 2 3 4;
#X obj 189 236 spigot;
#X obj 288 213 t f f;
#X obj 314 269 == 4;
#X obj 314 292 != 1;
#X obj 162 183 t b f;
#X obj 41 29 f;
#X obj 314 239 t b f;
#X connect 0 0 35 0;
#X connect 1 0 5 0;
#X connect 4 0 7 0;
#X connect 5 0 2 0;
#X connect 6 0 34 0;
#X connect 7 0 3 0;
#X connect 8 0 34 0;
#X connect 9 0 6 0;
#X connect 9 1 8 0;
#X connect 9 2 10 0;
#X connect 9 3 11 0;
#X connect 9 4 12 0;
#X connect 9 5 13 0;
#X connect 9 6 14 0;
#X connect 9 7 15 0;
#X connect 9 8 16 0;
#X connect 9 9 17 0;
#X connect 9 10 18 0;
#X connect 9 11 19 0;
#X connect 10 0 34 0;
#X connect 11 0 34 0;
#X connect 12 0 34 0;
#X connect 13 0 34 0;
#X connect 14 0 34 0;
#X connect 15 0 34 0;
#X connect 16 0 34 0;
#X connect 17 0 34 0;
#X connect 18 0 34 0;
#X connect 19 0 34 0;
#X connect 20 0 23 0;
#X connect 21 0 7 0;
#X connect 22 0 5 0;
#X connect 23 0 29 0;
#X connect 23 1 31 0;
#X connect 24 0 5 0;
#X connect 25 0 7 0;
#X connect 26 0 5 0;
#X connect 27 0 7 0;
#X connect 28 0 1 0;
#X connect 28 0 4 0;
#X connect 28 1 21 0;
#X connect 28 1 22 0;
#X connect 28 2 24 0;
#X connect 28 2 25 0;
#X connect 28 3 26 0;
#X connect 28 3 27 0;
#X connect 29 0 1 0;
#X connect 29 0 4 0;
#X connect 29 1 22 0;
#X connect 29 1 21 0;
#X connect 29 2 24 0;
#X connect 29 2 25 0;
#X connect 29 3 26 0;
#X connect 29 3 27 0;
#X connect 30 0 5 1;
#X connect 30 0 7 1;
#X connect 31 0 28 1;
#X connect 31 1 36 0;
#X connect 32 0 33 0;
#X connect 33 0 30 1;
#X connect 34 0 28 0;
#X connect 34 1 30 0;
#X connect 35 0 9 0;
#X connect 36 0 35 0;
#X connect 36 1 32 0;
#X restore 58 336 pd GammeType;
#X connect 6 0 7 1;
#X connect 7 0 16 0;
#X connect 8 0 16 1;
#X connect 9 0 16 2;
#X connect 10 0 7 0;
#X connect 12 0 14 0;
#X connect 13 0 14 1;
#X connect 14 0 72 0;
#X connect 15 0 16 3;
#X connect 16 0 11 0;
#X connect 19 0 20 0;
#X connect 20 0 27 0;
#X connect 20 0 29 0;
#X connect 21 0 20 0;
#X connect 21 1 20 1;
#X connect 22 0 23 0;
#X connect 23 0 21 0;
#X connect 23 0 31 0;
#X connect 24 0 25 0;
#X connect 25 0 26 0;
#X connect 26 0 23 1;
#X connect 27 0 28 0;
#X connect 27 0 32 0;
#X connect 30 0 33 0;
#X connect 33 0 43 0;
#X connect 34 0 33 1;
#X connect 35 0 40 0;
#X connect 36 0 35 1;
#X connect 38 0 41 0;
#X connect 38 1 42 0;
#X connect 38 1 46 0;
#X connect 40 0 38 0;
#X connect 40 0 37 0;
#X connect 40 0 85 1;
#X connect 41 0 39 0;
#X connect 42 0 39 0;
#X connect 43 0 44 0;
#X connect 43 1 35 0;
#X connect 44 0 40 0;
#X connect 45 0 82 0;
#X connect 46 0 49 0;
#X connect 47 0 83 0;
#X connect 48 0 84 0;
#X connect 49 0 50 0;
#X connect 51 0 52 0;
#X connect 52 0 54 0;
#X connect 53 0 54 1;
#X connect 54 0 58 0;
#X connect 55 0 58 1;
#X connect 56 0 58 2;
#X connect 57 0 58 3;
#X connect 58 0 59 0;
#X connect 60 0 61 0;
#X connect 61 1 65 0;
#X connect 62 0 63 0;
#X connect 63 0 64 0;
#X connect 64 0 61 1;
#X connect 65 0 71 0;
#X connect 70 0 66 0;
#X connect 70 1 67 0;
#X connect 70 2 68 0;
#X connect 70 3 69 0;
#X connect 73 0 70 0;
#X connect 74 0 41 0;
#X connect 75 0 78 0;
#X connect 76 0 77 1;
#X connect 77 0 80 0;
#X connect 78 0 46 0;
#X connect 78 0 81 0;
#X connect 78 1 77 0;
#X connect 80 0 79 0;
#X connect 81 0 40 0;
#X connect 82 0 85 0;
#X connect 82 1 46 1;
#X connect 83 0 85 0;
#X connect 83 1 49 1;
#X connect 84 0 85 0;
#X connect 84 1 49 2;
#X connect 85 0 46 0;
#X coords 0 -1 1 1 102 258 1 50 50;
