#N canvas 2037 1150 1083 596 10;
#X obj 51 67 cnv 15 100 290 empty \$0-canvas empty 20 12 0 14 -166441
-166441 0;
#X obj 55 291 GAMMEKB \$0B 1;
#X obj 55 338 bng 15 250 50 0 \$0-copy \$0-copy copy 17 7 0 10 -4034
-1 -1;
#X obj 103 338 bng 15 250 50 0 \$0-paste \$0-paste paste 17 7 0 10
-258113 -1 -1;
#X obj 56 81 nbx 3 14 0 32 0 0 \$0-steps \$0-steps steps 0 -8 0 10
-262144 -1 -1 6 256;
#X obj 97 81 bng 15 250 50 0 \$0-bang \$0-bang empty 17 7 0 10 -262144
-1 -1;
#X obj 229 75 r \$0G;
#X obj 211 100 f;
#X obj 273 75 r \$0C;
#X obj 316 75 r \$0B;
#X obj 211 47 r \$0-copy;
#X obj 211 144 s \$1-clipboard;
#X obj 211 171 r \$0-paste;
#X obj 229 192 r \$1-clipboard;
#X obj 211 217 l;
#X obj 362 75 r \$0-steps;
#X obj 211 122 pack f f f f;
#X obj 55 159 GAMMEKB \$0G;
#X obj 55 225 GAMMEKB \$0C;
#X obj 386 123 r \$0-steps;
#X obj 386 145 +;
#X obj 416 146 t b f;
#X obj 463 11 r \$1-stepscumul;
#X obj 463 97 route -1;
#X obj 516 31 loadbang;
#X obj 516 53 f \$2;
#X obj 516 75 - 1;
#X obj 386 168 list prepend \$2;
#X obj 386 190 s \$1-stepscumul;
#X floatatom 343 193 5 0 0 0 - - -;
#X obj 211 293 r \$1-step;
#X obj 514 157 s \$0-startstep;
#X obj 514 229 s \$0-stopstep;
#X obj 211 315 -;
#X obj 241 315 r \$0-startstep;
#X obj 257 363 <;
#X obj 289 362 r \$0-steps;
#X obj 219 391 tgl 15 0 empty empty empty 17 7 0 10 -262144 -1 -1 0
1;
#X obj 257 410 sel 0 1;
#X obj 257 470 s \$0-canvas;
#X obj 257 390 change -1;
#X msg 257 434 color 1 1 1;
#X msg 353 432 color 15 15 15;
#X obj 211 337 moses 0;
#X msg 211 359 0;
#X obj 501 330 r \$0G;
#X obj 488 423 f;
#X obj 545 330 r \$0C;
#X obj 588 330 r \$0B;
#X obj 488 445 pack f f f f;
#X obj 488 467 s \$1-stepdata;
#X obj 639 35 r \$1-getdata;
#X obj 639 57 sel \$2;
#X obj 657 86 r \$0G;
#X obj 639 111 f;
#X obj 701 86 r \$0C;
#X obj 744 86 r \$0B;
#X obj 790 86 r \$0-steps;
#X obj 639 133 pack f f f f;
#X obj 639 155 s \$1-getdata-rcv;
#X obj 639 186 r \$1-setdata;
#X obj 639 209 list split;
#X obj 774 137 loadbang;
#X obj 774 159 f \$2;
#X obj 774 181 * 4;
#X obj 672 232 list split 4;
#X obj 578 303 s \$0G;
#X obj 622 303 s \$0C;
#X obj 665 303 s \$0B;
#X obj 710 303 s \$0-steps;
#X obj 578 279 unpack f f f f;
#X obj 672 255 s \$0-setdata;
#X obj 211 238 s \$0-setdata;
#X obj 578 258 r \$0-setdata;
#X obj 174 410 loadbang;
#X obj 381 247 r \$0-bang;
#X obj 431 266 r \$0-startstep;
#X obj 413 291 f;
#X obj 381 269 t b b;
#X obj 413 335 s \$1-step;
#X msg 413 313 -1 \, \$1;
#X msg 358 336 1;
#X obj 501 351 t b f;
#X obj 545 352 t b f;
#X obj 588 352 t b f;
#X obj 488 391 spigot;
#N canvas 440 770 436 829 GammeType 1;
#X obj 26 18 r \$0B;
#X obj 62 746 s \$0G;
#X obj 285 756 s \$0C;
#N canvas 63 453 450 300 Transpose/GAMME 0;
#X obj 101 27 inlet;
#X obj 113 211 outlet;
#X obj 107 114 f;
#X obj 107 161 transpose 0;
#X obj 153 64 t b f;
#X obj 279 24 loadbang;
#X obj 279 48 del 200;
#X msg 279 71 2741;
#X obj 165 20 inlet;
#X connect 0 0 2 0;
#X connect 2 0 3 0;
#X connect 3 0 1 0;
#X connect 4 0 2 0;
#X connect 4 1 3 1;
#X connect 5 0 6 0;
#X connect 6 0 7 0;
#X connect 7 0 2 0;
#X connect 8 0 4 0;
#X restore 62 684 pd Transpose/GAMME;
#X msg 26 108 0;
#N canvas 63 453 450 300 Transpose/Chord 0;
#X obj 101 27 inlet;
#X obj 113 211 outlet;
#X obj 107 114 f;
#X obj 107 161 transpose 0;
#X obj 153 64 t b f;
#X obj 279 24 loadbang;
#X obj 279 48 del 200;
#X obj 165 20 inlet;
#X msg 279 71 154;
#X connect 0 0 2 0;
#X connect 2 0 3 0;
#X connect 3 0 1 0;
#X connect 4 0 2 0;
#X connect 4 1 3 1;
#X connect 5 0 6 0;
#X connect 6 0 8 0;
#X connect 7 0 4 0;
#X connect 8 0 2 0;
#X restore 285 693 pd Transpose/Chord;
#X msg 59 108 1;
#X obj 26 85 sel 1 2 4 8 16 32 64 128 256 512 1024 2048, f 67;
#X msg 92 108 2;
#X msg 125 108 3;
#X msg 159 108 4;
#X msg 192 108 5;
#X msg 225 108 6;
#X msg 258 108 7;
#X msg 292 108 8;
#X msg 325 108 9;
#X msg 358 108 10;
#X msg 391 108 11;
#X obj 180 254 r \$0-GammeType;
#X obj 26 39 f;
#X obj 127 595 r \$0G;
#X obj 112 617 f;
#X obj 305 600 f;
#X obj 320 578 r \$0C;
#X obj 73 222 t b f;
#X obj 46 252 -;
#X obj 103 298 moses 0.1;
#X obj 46 274 moses -0.1;
#X obj 46 296 * -1;
#X obj 154 319 * -1;
#X obj 61 350 f;
#X obj 115 529 t b b;
#N canvas 466 489 450 300 NotesSymbol 0;
#X obj 97 19 inlet;
#X msg 41 84 do;
#X msg 74 84 do#;
#X msg 107 84 re;
#X msg 140 84 re#;
#X msg 174 84 mi;
#X msg 207 83 fa;
#X msg 240 84 fa#;
#X msg 273 84 sol;
#X msg 307 84 sol#;
#X msg 340 84 la;
#X msg 406 84 si;
#X obj 124 192 s \$0-Note-Type-rcv;
#X obj 41 61 sel 0 1 2 3 4 5 6 7 8 9 10 11, f 67;
#X obj 156 155 symbol;
#X msg 373 84 sib;
#X connect 0 0 13 0;
#X connect 1 0 14 0;
#X connect 2 0 14 0;
#X connect 3 0 14 0;
#X connect 4 0 14 0;
#X connect 5 0 14 0;
#X connect 6 0 14 0;
#X connect 7 0 14 0;
#X connect 8 0 14 0;
#X connect 9 0 14 0;
#X connect 10 0 14 0;
#X connect 11 0 14 0;
#X connect 13 0 1 0;
#X connect 13 1 2 0;
#X connect 13 2 3 0;
#X connect 13 3 4 0;
#X connect 13 4 5 0;
#X connect 13 5 6 0;
#X connect 13 6 7 0;
#X connect 13 7 8 0;
#X connect 13 8 9 0;
#X connect 13 9 10 0;
#X connect 13 10 15 0;
#X connect 13 11 11 0;
#X connect 14 0 12 0;
#X connect 15 0 14 0;
#X restore 273 238 pd NotesSymbol;
#N canvas 49 552 490 974 Chords 0;
#X obj 231 245 outlet;
#X obj 53 523 s \$0-Chord-Type-rcv;
#X obj 53 666 s \$0-nChord-Type-rcv;
#X obj 215 19 r \$0--Chord-snd;
#X obj 329 10 r \$0-+Chord-snd;
#X obj 234 114 s -Chord;
#X obj 345 116 s +Chord;
#X obj 53 455 r Chord-Type;
#X obj 53 562 r nChord-Type;
#X obj 231 167 r Chord-C;
#X obj 53 499 spigot 0;
#X obj 53 608 spigot 0;
#X obj 231 212 spigot 0;
#X obj 98 478 r \$0-LocalChord;
#X obj 98 585 r \$0-LocalChord;
#X obj 276 190 r \$0-LocalChord;
#X obj 215 43 t b b b;
#X obj 242 91 s \$0-LocalChord;
#X msg 254 64 1, f 1;
#X msg 215 64 0, f 1;
#X obj 329 32 t b b b;
#X msg 367 55 1, f 1;
#X msg 329 53 0, f 1;
#X obj 187 107 print;
#X obj 51 22 inlet;
#X obj 77 101 s \$0-LocalChord;
#X msg 90 68 1, f 1;
#X msg 51 68 0, f 1;
#X obj 51 47 t b f b;
#X obj 362 82 s \$0-LocalChord;
#X obj 63 380 s Chord-TypeLoad;
#X obj 227 393 s nChord-TypeLoad;
#X floatatom 304 316 5 0 0 0 - - -;
#X msg 150 308 set \$1;
#X obj 213 272 r \$0-nChord-Type-snd;
#X obj 240 357 s \$0-LocalChord;
#X msg 253 324 1, f 1;
#X msg 213 324 0, f 1;
#X obj 214 303 t b f b;
#X floatatom 40 587 5 0 0 0 - - -;
#X floatatom 32 636 5 0 0 0 - - -;
#X msg 23 256 28;
#X msg 21 201 11;
#X text 46 199 majeur;
#X text 51 256 7;
#X msg 23 230 14;
#X text 49 227 mineur;
#X msg 35 309 32;
#X text 64 306 mineur7;
#X obj 104 142 sel 0 1 2 3 4 5;
#X text 54 276 majeur7;
#X msg 25 279 24;
#X obj 6 344 s nChord-TypeLoad;
#X obj 267 469 tabread enumChord;
#X msg 294 543 set \$1;
#X obj 267 422 r \$0C;
#X obj 294 572 s \$0-nChord-Type-rcv;
#X symbolatom 41 807 10 0 0 0 - - -;
#X obj 304 744 s \$0-Chord-Type-rcv;
#X obj 302 596 sel 0;
#X obj 267 446 change;
#X floatatom 228 507 5 0 0 0 - - -;
#X obj 294 514 mod 76;
#X obj 267 492 t f f f, f 14;
#X obj 307 642 s \$0-Note-Chord-Type-rcv;
#X obj 302 617 symbol ???;
#N canvas 535 852 450 300 NotesChordSymbol 0;
#X obj 37 7 inlet;
#X msg 31 149 do;
#X msg 64 149 do#;
#X msg 97 149 re;
#X msg 130 149 re#;
#X msg 164 149 mi;
#X msg 197 148 fa;
#X msg 230 149 fa#;
#X msg 263 149 sol;
#X msg 297 149 sol#;
#X msg 330 149 la;
#X msg 396 149 si;
#X obj 31 126 sel 0 1 2 3 4 5 6 7 8 9 10 11, f 67;
#X obj 146 220 symbol;
#X msg 363 149 sib;
#X obj 34 30 t b f;
#X obj 26 96 f;
#X floatatom 122 87 5 0 0 0 - - -;
#X obj 114 257 s \$0-Note-Chord-Type-rcv;
#X obj 64 60 div 76;
#X obj 66 94 - 0;
#X connect 0 0 15 0;
#X connect 1 0 13 0;
#X connect 2 0 13 0;
#X connect 3 0 13 0;
#X connect 4 0 13 0;
#X connect 5 0 13 0;
#X connect 6 0 13 0;
#X connect 7 0 13 0;
#X connect 8 0 13 0;
#X connect 9 0 13 0;
#X connect 10 0 13 0;
#X connect 11 0 13 0;
#X connect 12 0 1 0;
#X connect 12 1 2 0;
#X connect 12 2 3 0;
#X connect 12 3 4 0;
#X connect 12 4 5 0;
#X connect 12 5 6 0;
#X connect 12 6 7 0;
#X connect 12 7 8 0;
#X connect 12 8 9 0;
#X connect 12 9 10 0;
#X connect 12 10 14 0;
#X connect 12 11 11 0;
#X connect 13 0 18 0;
#X connect 14 0 13 0;
#X connect 15 0 16 0;
#X connect 15 1 19 0;
#X connect 16 0 12 0;
#X connect 19 0 17 0;
#X connect 19 0 20 0;
#X connect 20 0 16 1;
#X restore 351 544 pd NotesChordSymbol;
#X obj 370 517 - 1;
#X obj 157 742 list trim;
#X obj 159 768 symbol;
#X symbolatom 180 821 10 0 0 0 - - -;
#X msg 189 688 1;
#X obj 201 624 loadbang;
#X obj 202 649 t b b;
#X obj 158 718 text get enumChordSym;
#X msg 215 695 symbol enumChordSym;
#X floatatom 404 485 5 0 0 0 - - -;
#X connect 3 0 16 0;
#X connect 4 0 20 0;
#X connect 7 0 10 0;
#X connect 8 0 11 0;
#X connect 8 0 39 0;
#X connect 9 0 12 0;
#X connect 10 0 1 0;
#X connect 11 0 2 0;
#X connect 11 0 40 0;
#X connect 12 0 0 0;
#X connect 13 0 10 1;
#X connect 14 0 11 1;
#X connect 15 0 12 1;
#X connect 16 0 19 0;
#X connect 16 1 5 0;
#X connect 16 2 18 0;
#X connect 18 0 17 0;
#X connect 19 0 17 0;
#X connect 20 0 22 0;
#X connect 20 1 6 0;
#X connect 20 2 21 0;
#X connect 21 0 29 0;
#X connect 22 0 29 0;
#X connect 24 0 28 0;
#X connect 26 0 25 0;
#X connect 27 0 25 0;
#X connect 28 0 27 0;
#X connect 28 1 49 0;
#X connect 28 2 26 0;
#X connect 33 0 2 0;
#X connect 34 0 32 0;
#X connect 34 0 38 0;
#X connect 36 0 35 0;
#X connect 37 0 35 0;
#X connect 38 0 37 0;
#X connect 38 1 31 0;
#X connect 38 2 36 0;
#X connect 41 0 52 0;
#X connect 41 0 33 0;
#X connect 42 0 52 0;
#X connect 42 0 33 0;
#X connect 45 0 52 0;
#X connect 45 0 33 0;
#X connect 47 0 52 0;
#X connect 47 0 33 0;
#X connect 49 0 42 0;
#X connect 49 1 45 0;
#X connect 49 2 41 0;
#X connect 49 3 51 0;
#X connect 49 4 47 0;
#X connect 51 0 52 0;
#X connect 51 0 33 0;
#X connect 53 0 61 0;
#X connect 53 0 63 0;
#X connect 54 0 56 0;
#X connect 55 0 60 0;
#X connect 59 0 65 0;
#X connect 60 0 53 0;
#X connect 62 0 54 0;
#X connect 62 0 74 0;
#X connect 63 0 59 0;
#X connect 63 1 62 0;
#X connect 63 2 67 0;
#X connect 63 2 66 0;
#X connect 63 2 76 0;
#X connect 65 0 58 0;
#X connect 65 0 64 0;
#X connect 68 0 69 0;
#X connect 69 0 70 0;
#X connect 69 0 58 0;
#X connect 71 0 74 1;
#X connect 72 0 73 0;
#X connect 73 0 71 0;
#X connect 73 1 75 0;
#X connect 74 0 68 0;
#X connect 75 0 74 3;
#X restore 288 317 pd Chords;
#X obj 61 373 t b f;
#X obj 88 396 f;
#X obj 103 331 t b b;
#X msg 103 354 0, f 1;
#X obj 167 659 spigot 0;
#X obj 167 607 f;
#X obj 142 553 t b b;
#X obj 288 409 f;
#X obj 318 409 f;
#X text 260 25 0=M 1=m 2=7 3=M7 4=m7 5=0;
#X obj 212 632 r \$0-NoTransGamme-snd;
#X obj 185 409 f;
#X obj 215 409 f;
#N canvas 539 572 607 991 Modes 1;
#X obj 231 245 outlet;
#X obj 53 499 spigot 0;
#X obj 53 608 spigot 0;
#X obj 231 212 spigot 0;
#X obj 215 43 t b b b;
#X msg 254 64 1, f 1;
#X msg 215 64 0, f 1;
#X obj 329 32 t b b b;
#X msg 367 55 1, f 1;
#X msg 329 53 0, f 1;
#X obj 187 107 print;
#X obj 51 22 inlet;
#X msg 90 68 1, f 1;
#X msg 26 103 0, f 1;
#X obj 51 47 t b f b;
#X floatatom 340 319 5 0 0 0 - - -;
#X msg 150 308 set \$1;
#X msg 253 324 1, f 1;
#X msg 213 324 0, f 1;
#X obj 214 303 t b f b;
#X floatatom 40 587 5 0 0 0 - - -;
#X floatatom 32 636 5 0 0 0 - - -;
#X text 46 199 majeur;
#X text 51 256 7;
#X text 49 227 mineur;
#X text 64 306 mineur7;
#X obj 104 142 sel 0 1 2 3 4 5;
#X text 54 276 majeur7;
#X obj 77 101 s \$0-LocalMode;
#X obj 242 91 s \$0-LocalMode;
#X obj 362 82 s \$0-LocalMode;
#X obj 234 114 s -Mode;
#X obj 345 116 s +Mode;
#X obj 231 167 r Mode-C;
#X obj 276 190 r \$0-LocalMode;
#X obj 213 272 r \$0-nMode-Type-snd;
#X obj 240 357 s \$0-LocalMode;
#X obj 213 384 s nMode-TypeLoad;
#X msg 21 200 0;
#X msg 25 279 7;
#X obj 53 455 r Mode-Type;
#X obj 129 431 r \$0-LocalMode;
#X obj 74 534 s \$0-Mode-Type-rcv;
#X obj 98 585 r \$0-LocalMode;
#X obj 53 562 r nMode-Type;
#X obj 53 666 s \$0-nMode-Type-rcv;
#X obj 215 19 r \$0--Mode-snd;
#X obj 329 10 r \$0-+Mode-snd;
#X msg 23 256 5;
#X msg 23 230 1;
#X msg 35 309 8;
#X msg 296 599 set \$1;
#X obj 10 806 bng 15 250 50 0 empty empty empty 0 -6 0 8 -262144 -1
-1;
#X obj 304 673 symbol ??????;
#X obj 304 652 sel 0;
#X obj 268 432 change;
#X floatatom 205 498 5 0 0 0 - - -;
#X obj 313 755 s \$0-Mode-Type-rcv;
#X obj 296 628 s \$0-nMode-Type-rcv;
#X obj 269 456 tabread enumMode;
#X obj 268 408 r \$0G;
#X obj 267 512 t f f f, f 12;
#X symbolatom 1 478 10 0 0 0 - - -;
#X obj 390 525 bng 15 250 50 0 empty empty empty 17 7 0 10 -262144
-1 -1;
#N canvas 678 1221 450 300 NotesModeSymbol 0;
#X obj 37 7 inlet;
#X msg 31 149 do;
#X msg 64 149 do#;
#X msg 97 149 re;
#X msg 130 149 re#;
#X msg 164 149 mi;
#X msg 197 148 fa;
#X msg 230 149 fa#;
#X msg 263 149 sol;
#X msg 297 149 sol#;
#X msg 330 149 la;
#X msg 396 149 si;
#X obj 31 126 sel 0 1 2 3 4 5 6 7 8 9 10 11, f 67;
#X obj 146 220 symbol;
#X msg 363 149 sib;
#X obj 34 30 t b f;
#X obj 27 104 f;
#X obj 114 257 s \$0-Note-Mode-Type-rcv;
#X floatatom 133 83 5 0 0 0 - - -;
#X obj 64 60 div 25;
#X obj 49 84 - 0;
#X connect 0 0 15 0;
#X connect 1 0 13 0;
#X connect 2 0 13 0;
#X connect 3 0 13 0;
#X connect 4 0 13 0;
#X connect 5 0 13 0;
#X connect 6 0 13 0;
#X connect 7 0 13 0;
#X connect 8 0 13 0;
#X connect 9 0 13 0;
#X connect 10 0 13 0;
#X connect 11 0 13 0;
#X connect 12 0 1 0;
#X connect 12 1 2 0;
#X connect 12 2 3 0;
#X connect 12 3 4 0;
#X connect 12 4 5 0;
#X connect 12 5 6 0;
#X connect 12 6 7 0;
#X connect 12 7 8 0;
#X connect 12 8 9 0;
#X connect 12 9 10 0;
#X connect 12 10 14 0;
#X connect 12 11 11 0;
#X connect 13 0 17 0;
#X connect 14 0 13 0;
#X connect 15 0 16 0;
#X connect 15 1 19 0;
#X connect 16 0 12 0;
#X connect 16 0 18 0;
#X connect 19 0 20 0;
#X connect 20 0 16 1;
#X restore 351 603 pd NotesModeSymbol;
#X floatatom 387 551 5 0 0 0 - - -;
#X obj 420 521 - 1;
#X obj 296 570 mod 25;
#X obj 301 538 i;
#X obj 338 541 i;
#X obj 351 579 spigot 0;
#X obj 463 525 r \$0-NoTransGamme-snd;
#X obj 335 483 r \$0-NoChangeGamme-snd;
#X floatatom 361 507 5 0 0 0 - - -;
#X floatatom 221 527 5 0 0 0 - - -;
#X obj 267 485 spigot 1;
#X obj 158 718 text get enumModeSym;
#X obj 157 742 list trim;
#X obj 161 789 symbol;
#X msg 215 695 symbol enumModeSym;
#X symbolatom 180 821 10 0 0 0 - - -;
#X msg 189 688 1;
#X obj 201 624 loadbang;
#X obj 202 649 t b b;
#X obj 365 161 print;
#X floatatom 524 309 5 0 0 0 - - -;
#X msg 429 264 1, f 1;
#X msg 389 264 0, f 1;
#X obj 416 297 s \$0-LocalMode;
#X obj 406 176 r \$0-Mode-Type-snd;
#X obj 403 335 t b a;
#X obj 393 420 s Mode-TypeLoadSym;
#X symbolatom 494 261 10 0 0 0 - - -;
#X symbolatom 468 383 10 0 0 0 - - -;
#X obj 390 243 t b a b;
#X symbolatom 1 530 10 0 0 0 - - -;
#X floatatom 49 133 5 0 0 0 - - -;
#X obj 4 62 del 5;
#X obj 114 800 bng 15 250 50 0 empty empty empty 17 7 0 10 -262144
-1 -1;
#X obj 127 770 bng 15 250 50 0 empty empty empty 17 7 0 10 -262144
-1 -1;
#X floatatom 225 589 5 0 0 0 - - -;
#X floatatom 476 566 5 0 0 0 - - -;
#X floatatom 341 420 5 0 0 0 - - -;
#X floatatom 356 381 5 0 0 0 - - -;
#X msg 346 352 2741;
#X msg 290 327 173;
#X obj 6 375 s nMode-TypeLoad;
#X obj 11 342 f;
#X floatatom 64 354 5 0 0 0 - - -;
#X connect 1 0 42 0;
#X connect 1 0 95 0;
#X connect 2 0 21 0;
#X connect 2 0 45 0;
#X connect 3 0 0 0;
#X connect 4 0 6 0;
#X connect 4 1 31 0;
#X connect 4 2 5 0;
#X connect 5 0 29 0;
#X connect 6 0 29 0;
#X connect 7 0 9 0;
#X connect 7 1 32 0;
#X connect 7 2 8 0;
#X connect 8 0 30 0;
#X connect 9 0 30 0;
#X connect 11 0 14 0;
#X connect 12 0 28 0;
#X connect 13 0 28 0;
#X connect 14 0 97 0;
#X connect 14 0 13 0;
#X connect 14 1 26 0;
#X connect 14 1 96 0;
#X connect 14 2 12 0;
#X connect 16 0 45 0;
#X connect 17 0 36 0;
#X connect 18 0 36 0;
#X connect 19 0 18 0;
#X connect 19 1 37 0;
#X connect 19 2 17 0;
#X connect 26 0 38 0;
#X connect 26 1 49 0;
#X connect 26 2 48 0;
#X connect 26 3 39 0;
#X connect 26 4 50 0;
#X connect 33 0 3 0;
#X connect 34 0 3 1;
#X connect 35 0 15 0;
#X connect 35 0 19 0;
#X connect 38 0 16 0;
#X connect 38 0 107 0;
#X connect 39 0 16 0;
#X connect 39 0 107 0;
#X connect 40 0 1 0;
#X connect 40 0 62 0;
#X connect 41 0 1 1;
#X connect 43 0 2 1;
#X connect 44 0 2 0;
#X connect 44 0 20 0;
#X connect 46 0 4 0;
#X connect 47 0 7 0;
#X connect 48 0 16 0;
#X connect 48 0 107 0;
#X connect 49 0 16 0;
#X connect 49 0 107 0;
#X connect 50 0 16 0;
#X connect 50 0 107 0;
#X connect 51 0 58 0;
#X connect 53 0 57 0;
#X connect 54 0 53 0;
#X connect 55 0 59 0;
#X connect 59 0 56 0;
#X connect 59 0 75 0;
#X connect 60 0 55 0;
#X connect 60 0 103 0;
#X connect 61 0 54 0;
#X connect 61 1 68 0;
#X connect 61 2 63 0;
#X connect 61 2 65 0;
#X connect 61 2 69 0;
#X connect 67 0 51 0;
#X connect 67 0 76 0;
#X connect 67 0 100 0;
#X connect 68 0 67 0;
#X connect 69 0 70 0;
#X connect 70 0 64 0;
#X connect 71 0 70 1;
#X connect 71 0 101 0;
#X connect 72 0 73 0;
#X connect 75 0 61 0;
#X connect 75 0 74 0;
#X connect 76 0 77 0;
#X connect 77 0 78 0;
#X connect 77 0 99 0;
#X connect 78 0 57 0;
#X connect 78 0 80 0;
#X connect 79 0 76 3;
#X connect 81 0 76 1;
#X connect 82 0 83 0;
#X connect 83 0 81 0;
#X connect 83 1 79 0;
#X connect 86 0 88 0;
#X connect 87 0 88 0;
#X connect 89 0 92 0;
#X connect 90 0 91 0;
#X connect 90 1 91 0;
#X connect 90 1 93 0;
#X connect 94 0 87 0;
#X connect 94 1 90 0;
#X connect 94 2 86 0;
#X connect 98 0 78 0;
#X connect 102 0 59 0;
#X connect 104 0 55 0;
#X connect 105 0 55 0;
#X connect 107 0 106 0;
#X connect 107 0 108 0;
#X restore 185 344 pd Modes;
#X obj 279 286 r \$0-NoChangeGamme-snd;
#X obj 140 30 sel 5;
#X obj 140 9 r \$0-GammeType;
#X msg 140 51 0, f 1;
#X msg 167 51 1, f 1;
#X obj 26 62 spigot 1;
#X text 246 53 max 4095;
#X obj 62 704 change;
#X obj 115 508 t b f f;
#X obj 62 725 mod 4096;
#X obj 115 486 change;
#X msg 67 462 set 12;
#X obj 285 714 change;
#X obj 285 735 mod 4096;
#X obj 186 323 spigot 1;
#X obj 175 167 t f;
#X obj 46 201 t f f;
#X obj 67 440 del 1;
#X obj 88 417 t b f;
#X obj 185 366 t b b f;
#X obj 288 339 t b b f;
#X floatatom 352 623 5 0 0 0 - - -;
#X floatatom 220 479 5 0 0 0 - - -;
#X obj 146 618 bng 15 250 50 0 empty empty empty 17 7 0 10 -262144
-1 -1;
#X floatatom 24 781 5 0 0 0 - - -;
#X obj 190 709 bng 15 250 50 0 empty empty empty 17 7 0 10 -262144
-1 -1;
#X obj 97 656 spigot 0;
#X obj 77 5 r \$0Bload;
#X obj 360 508 r \$0Cload;
#X obj 36 545 r \$0Gload;
#X floatatom 103 39 5 0 0 0 - - -;
#X floatatom 247 187 5 0 0 0 - - -;
#X obj 64 37 s \$0B;
#X obj 368 540 s \$0C;
#X obj 34 578 s \$0G;
#X connect 0 0 19 0;
#X connect 3 0 55 0;
#X connect 4 0 63 0;
#X connect 5 0 60 0;
#X connect 6 0 63 0;
#X connect 7 0 4 0;
#X connect 7 1 6 0;
#X connect 7 2 8 0;
#X connect 7 3 9 0;
#X connect 7 4 10 0;
#X connect 7 5 11 0;
#X connect 7 6 12 0;
#X connect 7 7 13 0;
#X connect 7 8 14 0;
#X connect 7 9 15 0;
#X connect 7 10 16 0;
#X connect 7 11 17 0;
#X connect 8 0 63 0;
#X connect 9 0 63 0;
#X connect 10 0 63 0;
#X connect 11 0 63 0;
#X connect 12 0 63 0;
#X connect 13 0 63 0;
#X connect 14 0 63 0;
#X connect 15 0 63 0;
#X connect 16 0 63 0;
#X connect 17 0 63 0;
#X connect 18 0 33 0;
#X connect 18 0 62 0;
#X connect 19 0 53 0;
#X connect 20 0 21 1;
#X connect 21 0 71 0;
#X connect 21 0 74 0;
#X connect 22 0 5 0;
#X connect 23 0 22 1;
#X connect 23 0 69 0;
#X connect 24 0 25 0;
#X connect 24 1 25 1;
#X connect 25 0 27 0;
#X connect 26 0 36 0;
#X connect 26 1 29 0;
#X connect 27 0 28 0;
#X connect 27 1 26 0;
#X connect 28 0 30 0;
#X connect 29 0 30 0;
#X connect 30 0 34 0;
#X connect 31 0 39 0;
#X connect 31 1 40 0;
#X connect 33 0 68 0;
#X connect 34 1 35 0;
#X connect 35 0 66 0;
#X connect 36 0 37 0;
#X connect 36 1 35 0;
#X connect 37 0 35 1;
#X connect 38 0 3 1;
#X connect 38 0 73 0;
#X connect 39 0 38 0;
#X connect 39 0 5 1;
#X connect 40 0 21 0;
#X connect 40 1 22 0;
#X connect 41 0 5 0;
#X connect 42 0 5 1;
#X connect 44 0 38 1;
#X connect 44 0 74 1;
#X connect 45 0 3 0;
#X connect 46 0 38 0;
#X connect 46 0 70 0;
#X connect 47 0 67 0;
#X connect 48 0 62 1;
#X connect 49 0 51 0;
#X connect 49 1 52 0;
#X connect 50 0 49 0;
#X connect 51 0 53 1;
#X connect 52 0 53 1;
#X connect 53 0 7 0;
#X connect 55 0 57 0;
#X connect 55 0 72 0;
#X connect 56 0 31 0;
#X connect 56 2 39 1;
#X connect 57 0 1 0;
#X connect 58 0 56 0;
#X connect 59 0 58 0;
#X connect 60 0 61 0;
#X connect 61 0 2 0;
#X connect 62 0 47 0;
#X connect 63 0 46 1;
#X connect 63 0 42 1;
#X connect 63 0 32 0;
#X connect 63 0 64 0;
#X connect 63 0 79 0;
#X connect 64 0 25 0;
#X connect 64 1 24 0;
#X connect 65 0 59 0;
#X connect 66 0 65 0;
#X connect 66 1 58 0;
#X connect 67 0 45 0;
#X connect 67 1 46 0;
#X connect 67 2 45 1;
#X connect 68 0 41 0;
#X connect 68 1 42 0;
#X connect 68 2 41 1;
#X connect 74 0 3 0;
#X connect 75 0 78 0;
#X connect 75 0 80 0;
#X connect 76 0 81 0;
#X connect 77 0 82 0;
#X restore 58 412 pd GammeType;
#X obj 51 358 cnv 15 100 43 empty empty Gammes 2 6 0 8 -4032 -260097
0;
#X obj 50 369 hradio 17 1 1 6 \$0-GammeType \$0-GammeType empty 0 -8
0 10 -262144 -1 -1 1;
#X text 57 386 M;
#X text 74 386 m;
#X text 91 386 7;
#X text 142 386 0;
#X obj 50 204 cnv 15 100 20 empty empty empty 20 12 0 14 -204800 -66577
0;
#X symbolatom 949 81 0 0 0 0 - #0-Chord-Type-rcv #0-Chord-Type-snd
;
#X floatatom 106 207 2 0 0 0 - #0-nChord-Type-rcv #0-nChord-Type-snd
;
#X obj 120 209 bng 15 250 50 0 \$0--Chord-snd \$0--Chord-rcv - 4 -4
0 10 -4032 -1 -1;
#X obj 135 209 bng 15 250 50 0 \$0-+Chord-snd \$0-+Chord-rcv + 4 -4
0 10 -4034 -1 -1;
#X obj 52 98 cnv 10 100 60 empty empty empty 0 12 0 14 -204800 -66577
0;
#X symbolatom 50 141 16 0 0 0 - #0-Mode-Type-rcv #0-Mode-Type-snd;
#X floatatom 107 124 2 0 0 0 - #0-nMode-Type-rcv #0-nMode-Type-snd
;
#X obj 121 126 bng 15 250 50 0 \$0--Mode-snd \$0--Mode-rcv - 4 -4 0
10 -4032 -1 -1;
#X obj 136 126 bng 15 250 50 0 \$0-+Mode-snd \$0-+Mode-rcv + 4 -4 0
10 -4034 -1 -1;
#X obj 50 270 cnv 15 100 20 empty empty empty 20 12 0 14 -204800 -66577
0;
#X symbolatom 50 272 0 0 0 0 - #0-Note-Type-rcv #0-Note-Type-snd;
#X text 102 386 M7;
#X obj 105 105 tgl 15 1 \$0-NoTransGamme-snd \$0-NoTransGamme-rcv TrGam
15 8 0 10 -262144 -1 -1 0 1;
#X text 119 386 m7;
#X obj 50 104 tgl 15 1 \$0-NoChangeGamme-snd \$0-NoChangeGamme-rcv
ChGam 15 8 0 10 -262144 -1 -1 0 1;
#X symbolatom 926 81 0 0 0 0 - #0-Note-Chord-Type-rcv #0-NoteChord-Type-snd
;
#X symbolatom 51 123 0 0 0 0 - #0-Note-Mode-Type-rcv #0-Note-Mode-Type-snd
;
#X floatatom 255 15 5 0 0 0 - - -;
#X obj 12 483 loadbang;
#X obj 15 354 bng 15 250 50 0 empty empty empty 17 7 0 10 -262144 -1
-1;
#X obj 12 520 del 5000;
#X obj 922 359 r \$0-Note-Type-snd;
#X obj 654 390 spigot;
#X obj 650 414 symbol;
#X obj 648 360 t b s;
#X symbolatom 51 206 0 0 0 0 - #0-Chord-Note+Type-rcv #0-Chord-Note+Type-snd
;
#X symbolatom 905 143 0 0 0 0 - #0-Mode-Note+Type-rcv #0-Mode-Note+Type-snd
;
#N canvas 0 96 450 300 glue 0;
#X obj 79 68 r \$0-Chord-Type-rcv;
#X obj 79 89 makefilename %%s-%s;
#X msg 79 110 set \$1;
#X obj 106 152 makefilename;
#X obj 56 48 r \$0-NoteChord-Type-snd;
#X obj 79 131 t b a;
#X obj 53 153 symbol;
#X obj 133 183 s \$0-Chord-Note+Type-rcv;
#X connect 0 0 1 0;
#X connect 1 0 2 0;
#X connect 2 0 5 0;
#X connect 3 0 7 0;
#X connect 4 0 6 0;
#X connect 5 0 6 0;
#X connect 5 1 3 0;
#X connect 6 0 3 0;
#X restore 910 55 pd glue chord;
#N canvas 0 96 450 300 glue 0;
#X obj 124 112 makefilename %%s-%s;
#X msg 124 133 set \$1;
#X obj 151 175 makefilename;
#X obj 124 154 t b a;
#X obj 98 176 symbol;
#X obj 124 91 r \$0-Mode-Type-rcv;
#X obj 178 206 s \$0-Mode-Note+Type-rcv;
#X obj 101 70 r \$0-Note-Mode-Type-snd;
#X connect 0 0 1 0;
#X connect 1 0 3 0;
#X connect 2 0 6 0;
#X connect 3 0 4 0;
#X connect 3 1 2 0;
#X connect 4 0 2 0;
#X connect 5 0 0 0;
#X connect 7 0 4 0;
#X restore 905 120 pd glue mode;
#X obj 762 391 t b s;
#X obj 757 364 r \$0-Chord-Note+Type-snd;
#X obj 896 389 t b s;
#X obj 647 335 r \$0-Mode-Note+Type-snd;
#X obj 650 463 s \$1-stepdataSym;
#X obj 651 441 pack s s s, f 51;
#X obj 71 495 spigot;
#X obj 137 489 spigot;
#X obj 196 485 spigot;
#X obj 71 518 s \$0Bload;
#X obj 131 516 s \$0Cload;
#X obj 196 515 s \$0Gload;
#X obj 70 544 change;
#X obj 130 542 change;
#X obj 195 541 change;
#X obj 25 412 f;
#X obj 301 511 t b;
#X obj 300 535 del 10;
#X floatatom 30 453 5 0 0 0 - - -;
#X obj 304 556 bng 15 250 50 0 empty empty empty 17 7 0 10 -262144
-1 -1;
#X obj 7 299 t b f;
#X obj 71 449 r /BASSt;
#X obj 131 447 r /CHORDt;
#X obj 196 446 r /GAMMEt;
#N canvas 152 624 855 469 ctl 0;
#X obj 92 16 inlet;
#X obj 28 139 spigot;
#X obj 28 100 r Gfavoris;
#X obj 29 162 t b f;
#X obj 124 136 spigot;
#X obj 215 134 spigot;
#X obj 207 169 s \$0-NoTransGamme-rcv;
#X obj 32 210 s \$0-GammeType;
#X obj 139 217 s \$0-NoChangeGamme-rcv;
#X obj 345 127 spigot;
#X obj 373 50 r Gsymbol;
#X obj 417 249 s \$0-Mode-Type-rcv;
#X symbolatom 425 126 10 0 0 0 - - -;
#X symbolatom 402 166 10 0 0 0 - - -;
#X msg 401 211 set \$1;
#X obj 314 310 s \$0-nMode-Type-rcv;
#X obj 654 114 spigot;
#X symbolatom 734 113 10 0 0 0 - - -;
#X symbolatom 711 153 10 0 0 0 - - -;
#X msg 710 198 set \$1;
#X obj 682 37 r Csymbol;
#X obj 726 236 s \$0-Chord-Type-rcv;
#X obj 623 297 s \$0-nChord-Type-rcv;
#N canvas 123 804 1031 300 coresG 0;
#X obj 76 43 inlet;
#X msg 119 150 0;
#X obj 261 243 outlet;
#X obj 154 227 bng 15 250 50 0 empty empty empty 17 7 0 10 -262144
-1 -1;
#X obj 120 92 sel Ionian AscendingMelodicMinorAmm HarmonicMinorHmin
HarmonicMajorHmaj WnnWnn HungarianMajor1 NeapolitanMajorNmaj DoubleHarmonic1Dh1
HungarianMinor1Dh2 DoubleHarmonic3Dh3 DoubleHarmonic4Dh4 PersianDh5
DoubleHarmonic6Dh6 E1e1 E2e2 NeapolitanMinorE3 E4e4 E5e5 E6e6 E7e7
E8e8 E9e9 E10e10 E11e11 Pentatonic, f 144;
#X obj 276 209 f;
#X msg 151 149 1;
#X msg 185 150 2;
#X msg 217 149 3;
#X msg 250 150 4;
#X msg 282 149 5;
#X msg 316 150 6;
#X msg 348 149 7;
#X msg 383 148 8;
#X msg 415 147 9;
#X msg 449 148 10;
#X msg 481 147 11;
#X msg 514 148 12;
#X msg 546 147 13;
#X msg 580 148 14;
#X msg 612 147 15;
#X msg 643 148 16;
#X msg 675 147 17;
#X msg 708 148 18;
#X msg 740 147 19;
#X msg 774 148 20;
#X msg 806 147 21;
#X msg 844 148 22;
#X msg 876 147 23;
#X msg 916 148 24;
#X floatatom 312 232 5 0 0 0 - - -;
#X connect 0 0 4 0;
#X connect 1 0 5 0;
#X connect 4 0 1 0;
#X connect 4 1 6 0;
#X connect 4 2 7 0;
#X connect 4 3 8 0;
#X connect 4 4 9 0;
#X connect 4 5 10 0;
#X connect 4 6 11 0;
#X connect 4 7 12 0;
#X connect 4 8 13 0;
#X connect 4 9 14 0;
#X connect 4 10 15 0;
#X connect 4 11 16 0;
#X connect 4 12 17 0;
#X connect 4 13 18 0;
#X connect 4 14 19 0;
#X connect 4 15 20 0;
#X connect 4 16 21 0;
#X connect 4 17 22 0;
#X connect 4 18 23 0;
#X connect 4 19 24 0;
#X connect 4 20 25 0;
#X connect 4 21 26 0;
#X connect 4 22 27 0;
#X connect 4 23 28 0;
#X connect 4 24 29 0;
#X connect 5 0 30 0;
#X connect 5 0 2 0;
#X connect 6 0 5 0;
#X connect 7 0 5 0;
#X connect 8 0 5 0;
#X connect 9 0 5 0;
#X connect 10 0 5 0;
#X connect 11 0 5 0;
#X connect 12 0 5 0;
#X connect 13 0 5 0;
#X connect 14 0 5 0;
#X connect 15 0 5 0;
#X connect 16 0 5 0;
#X connect 17 0 5 0;
#X connect 18 0 5 0;
#X connect 19 0 5 0;
#X connect 20 0 5 0;
#X connect 21 0 5 0;
#X connect 22 0 5 0;
#X connect 23 0 5 0;
#X connect 24 0 5 0;
#X connect 25 0 5 0;
#X connect 26 0 5 0;
#X connect 27 0 5 0;
#X connect 28 0 5 0;
#X connect 29 0 5 0;
#X restore 337 248 pd coresG;
#N canvas 28 381 1031 300 coresC 0;
#X obj 76 43 inlet;
#X msg 119 150 0;
#X obj 241 261 outlet;
#X obj 154 227 bng 15 250 50 0 empty empty empty 17 7 0 10 -262144
-1 -1;
#X obj 744 238 f;
#X msg 151 149 1;
#X msg 185 150 2;
#X msg 217 149 3;
#X msg 250 150 4;
#X msg 282 149 5;
#X msg 316 150 6;
#X msg 348 149 7;
#X msg 383 148 8;
#X msg 415 147 9;
#X msg 449 148 10;
#X msg 481 147 11;
#X msg 514 148 12;
#X msg 546 147 13;
#X msg 580 148 14;
#X msg 612 147 15;
#X msg 643 148 16;
#X msg 675 147 17;
#X msg 708 148 18;
#X msg 740 147 19;
#X msg 774 148 20;
#X msg 806 147 21;
#X msg 844 148 22;
#X msg 876 147 23;
#X msg 916 148 24;
#X floatatom 312 232 5 0 0 0 - - -;
#X obj 121 75 sel m2 M2 m3 M3 P4 T P5 m6 M6 m7 M7 maj majinv1 majinv2
min mininv1 mininv2 o oinv1 oinv2 + sus4 sus2 susinv2 maj7, f 144
;
#N canvas 14 380 1055 300 suite_25-49 0;
#X obj 76 43 inlet;
#X obj 241 261 outlet;
#X obj 154 227 bng 15 250 50 0 empty empty empty 17 7 0 10 -262144
-1 -1;
#X obj 276 209 f;
#X floatatom 312 232 5 0 0 0 - - -;
#X msg 119 150 25;
#X msg 151 149 26;
#X msg 185 150 27;
#X msg 217 149 28;
#X msg 250 150 29;
#X msg 282 149 30;
#X msg 316 150 31;
#X msg 348 149 32;
#X msg 383 148 33;
#X msg 415 147 34;
#X msg 449 148 35;
#X msg 481 147 36;
#X msg 514 148 37;
#X msg 546 147 38;
#X msg 580 148 39;
#X msg 612 147 40;
#X msg 643 148 41;
#X msg 675 147 42;
#X msg 708 148 43;
#X msg 740 147 44;
#X msg 774 148 45;
#X msg 806 147 46;
#X msg 844 148 47;
#X msg 876 147 48;
#X msg 916 148 49;
#X obj 970 251 outlet;
#X obj 12 77 sel maj7inv1 maj7inv2 maj7inv3 7* 7inv1 7inv2 7inv3 min7
min7inv1 min7inv2 min7inv3 7b5 7b5inv1 o7 +7 +7inv1 +7inv2 +7inv3 sus7
sus7inv1 sus7inv2 sus7inv3 6* 6inv1 6inv2, f 170;
#X connect 0 0 31 0;
#X connect 3 0 4 0;
#X connect 3 0 1 0;
#X connect 5 0 3 0;
#X connect 6 0 3 0;
#X connect 7 0 3 0;
#X connect 8 0 3 0;
#X connect 9 0 3 0;
#X connect 10 0 3 0;
#X connect 11 0 3 0;
#X connect 12 0 3 0;
#X connect 13 0 3 0;
#X connect 14 0 3 0;
#X connect 15 0 3 0;
#X connect 16 0 3 0;
#X connect 17 0 3 0;
#X connect 18 0 3 0;
#X connect 19 0 3 0;
#X connect 20 0 3 0;
#X connect 21 0 3 0;
#X connect 22 0 3 0;
#X connect 23 0 3 0;
#X connect 24 0 3 0;
#X connect 25 0 3 0;
#X connect 26 0 3 0;
#X connect 27 0 3 0;
#X connect 28 0 3 0;
#X connect 29 0 3 0;
#X connect 31 0 5 0;
#X connect 31 1 6 0;
#X connect 31 2 7 0;
#X connect 31 3 8 0;
#X connect 31 4 9 0;
#X connect 31 5 10 0;
#X connect 31 6 11 0;
#X connect 31 7 12 0;
#X connect 31 8 13 0;
#X connect 31 9 14 0;
#X connect 31 10 15 0;
#X connect 31 11 16 0;
#X connect 31 12 17 0;
#X connect 31 13 18 0;
#X connect 31 14 19 0;
#X connect 31 15 20 0;
#X connect 31 16 21 0;
#X connect 31 17 22 0;
#X connect 31 18 23 0;
#X connect 31 19 24 0;
#X connect 31 20 25 0;
#X connect 31 21 26 0;
#X connect 31 22 27 0;
#X connect 31 23 28 0;
#X connect 31 24 29 0;
#X connect 31 25 30 0;
#X restore 923 187 pd suite_25-49;
#N canvas 14 380 1102 300 suite_50 0;
#X obj 76 43 inlet;
#X obj 241 261 outlet;
#X obj 154 227 bng 15 250 50 0 empty empty empty 17 7 0 10 -262144
-1 -1;
#X obj 276 209 f;
#X floatatom 312 232 5 0 0 0 - - -;
#X obj 970 251 outlet;
#X msg 119 150 50;
#X msg 151 149 51;
#X msg 185 150 52;
#X msg 217 149 53;
#X msg 250 150 54;
#X msg 282 149 55;
#X msg 316 150 56;
#X msg 348 149 57;
#X msg 383 148 58;
#X msg 415 147 59;
#X msg 449 148 60;
#X msg 481 147 61;
#X msg 514 148 62;
#X msg 546 147 63;
#X msg 580 148 64;
#X msg 612 147 65;
#X msg 643 148 66;
#X msg 675 147 67;
#X msg 708 148 68;
#X msg 740 147 69;
#X msg 773 148 70;
#X msg 806 147 71;
#X msg 844 148 72;
#X msg 876 147 73;
#X msg 916 148 74;
#X msg 951 147 75;
#X obj 12 77 sel 6inv3 -6* maj9 9* min9 9b5 +9 sus9 6/9 min6/9 7b9
7#9 7b5#9 maj9+ minmaj9 11* min11 maj9#11 9#11 13* min13 11/13 maj13
maj13#11 13#11 min13#11, f 174;
#X connect 0 0 32 0;
#X connect 3 0 4 0;
#X connect 3 0 1 0;
#X connect 6 0 3 0;
#X connect 7 0 3 0;
#X connect 8 0 3 0;
#X connect 9 0 3 0;
#X connect 10 0 3 0;
#X connect 11 0 3 0;
#X connect 12 0 3 0;
#X connect 13 0 3 0;
#X connect 14 0 3 0;
#X connect 15 0 3 0;
#X connect 16 0 3 0;
#X connect 17 0 3 0;
#X connect 18 0 3 0;
#X connect 19 0 3 0;
#X connect 20 0 3 0;
#X connect 21 0 3 0;
#X connect 22 0 3 0;
#X connect 23 0 3 0;
#X connect 24 0 3 0;
#X connect 25 0 3 0;
#X connect 26 0 3 0;
#X connect 27 0 3 0;
#X connect 28 0 3 0;
#X connect 29 0 3 0;
#X connect 30 0 3 0;
#X connect 31 0 3 0;
#X connect 32 0 6 0;
#X connect 32 1 7 0;
#X connect 32 2 8 0;
#X connect 32 3 9 0;
#X connect 32 4 10 0;
#X connect 32 5 11 0;
#X connect 32 6 12 0;
#X connect 32 7 13 0;
#X connect 32 8 14 0;
#X connect 32 9 15 0;
#X connect 32 10 16 0;
#X connect 32 11 17 0;
#X connect 32 12 18 0;
#X connect 32 13 19 0;
#X connect 32 14 20 0;
#X connect 32 15 21 0;
#X connect 32 16 22 0;
#X connect 32 17 23 0;
#X connect 32 18 24 0;
#X connect 32 19 25 0;
#X connect 32 20 26 0;
#X connect 32 21 27 0;
#X connect 32 22 28 0;
#X connect 32 23 29 0;
#X connect 32 24 30 0;
#X connect 32 25 31 0;
#X connect 32 26 5 0;
#X restore 913 223 pd suite_50 75;
#X connect 0 0 30 0;
#X connect 1 0 4 0;
#X connect 4 0 29 0;
#X connect 4 0 2 0;
#X connect 5 0 4 0;
#X connect 6 0 4 0;
#X connect 7 0 4 0;
#X connect 8 0 4 0;
#X connect 9 0 4 0;
#X connect 10 0 4 0;
#X connect 11 0 4 0;
#X connect 12 0 4 0;
#X connect 13 0 4 0;
#X connect 14 0 4 0;
#X connect 15 0 4 0;
#X connect 16 0 4 0;
#X connect 17 0 4 0;
#X connect 18 0 4 0;
#X connect 19 0 4 0;
#X connect 20 0 4 0;
#X connect 21 0 4 0;
#X connect 22 0 4 0;
#X connect 23 0 4 0;
#X connect 24 0 4 0;
#X connect 25 0 4 0;
#X connect 26 0 4 0;
#X connect 27 0 4 0;
#X connect 28 0 4 0;
#X connect 30 0 1 0;
#X connect 30 1 5 0;
#X connect 30 2 6 0;
#X connect 30 3 7 0;
#X connect 30 4 8 0;
#X connect 30 5 9 0;
#X connect 30 6 10 0;
#X connect 30 7 11 0;
#X connect 30 8 12 0;
#X connect 30 9 13 0;
#X connect 30 10 14 0;
#X connect 30 11 15 0;
#X connect 30 12 16 0;
#X connect 30 13 17 0;
#X connect 30 14 18 0;
#X connect 30 15 19 0;
#X connect 30 16 20 0;
#X connect 30 17 21 0;
#X connect 30 18 22 0;
#X connect 30 19 23 0;
#X connect 30 20 24 0;
#X connect 30 21 25 0;
#X connect 30 22 26 0;
#X connect 30 23 27 0;
#X connect 30 24 28 0;
#X connect 30 25 31 0;
#X connect 31 0 4 0;
#X connect 31 1 32 0;
#X connect 32 0 4 0;
#X restore 646 235 pd coresC;
#X obj 62 302 spigot;
#X floatatom 151 372 5 0 0 0 - - -;
#X obj 101 384 t b f;
#X floatatom 126 300 5 0 0 0 - - -;
#X obj 62 263 r PrefGamme-r;
#X obj 121 412 s \$0-GammeType;
#X obj 218 94 r NoTransposeGamme;
#X obj 99 98 r NoChangeGamme;
#X connect 0 0 1 1;
#X connect 0 0 4 1;
#X connect 0 0 5 1;
#X connect 0 0 9 1;
#X connect 0 0 16 1;
#X connect 0 0 25 1;
#X connect 1 0 3 0;
#X connect 2 0 1 0;
#X connect 3 0 7 0;
#X connect 3 1 7 0;
#X connect 4 0 8 0;
#X connect 5 0 6 0;
#X connect 9 0 13 0;
#X connect 9 0 14 0;
#X connect 9 0 23 0;
#X connect 10 0 9 0;
#X connect 10 0 12 0;
#X connect 14 0 11 0;
#X connect 16 0 18 0;
#X connect 16 0 19 0;
#X connect 16 0 24 0;
#X connect 19 0 21 0;
#X connect 20 0 16 0;
#X connect 20 0 17 0;
#X connect 23 0 15 0;
#X connect 24 0 22 0;
#X connect 25 0 26 0;
#X connect 25 0 27 0;
#X connect 27 1 30 0;
#X connect 29 0 25 0;
#X connect 29 0 28 0;
#X connect 31 0 5 0;
#X connect 32 0 4 0;
#X restore 165 323 pd ctl;
#X obj 859 231 s \$0-bang;
#X obj 860 201 r BangPofStep-\$2;
#X obj 401 498 s PofStepNb-\$2;
#X obj 809 290 bng 15 250 50 0 empty empty empty 17 7 0 10 -262144
-1 -1;
#X obj 736 495 r \$2-PofSteps-s;
#X obj 835 527 s \$2-PofSteps-r;
#X obj 736 520 s \$0-steps;
#X obj 841 492 r \$0-steps;
#X connect 6 0 7 1;
#X connect 6 0 111 0;
#X connect 7 0 16 0;
#X connect 8 0 16 1;
#X connect 9 0 16 2;
#X connect 10 0 7 0;
#X connect 12 0 14 0;
#X connect 13 0 14 1;
#X connect 14 0 72 0;
#X connect 15 0 16 3;
#X connect 16 0 11 0;
#X connect 19 0 20 0;
#X connect 20 0 27 0;
#X connect 20 0 29 0;
#X connect 21 0 20 0;
#X connect 21 1 20 1;
#X connect 22 0 23 0;
#X connect 23 0 21 0;
#X connect 23 0 31 0;
#X connect 24 0 25 0;
#X connect 25 0 26 0;
#X connect 26 0 23 1;
#X connect 27 0 28 0;
#X connect 27 0 32 0;
#X connect 30 0 33 0;
#X connect 33 0 43 0;
#X connect 34 0 33 1;
#X connect 35 0 40 0;
#X connect 36 0 35 1;
#X connect 38 0 41 0;
#X connect 38 1 42 0;
#X connect 38 1 46 0;
#X connect 38 1 117 0;
#X connect 40 0 38 0;
#X connect 40 0 37 0;
#X connect 40 0 85 1;
#X connect 40 0 116 1;
#X connect 40 0 129 1;
#X connect 40 0 130 1;
#X connect 40 0 131 1;
#X connect 40 0 147 0;
#X connect 40 0 150 0;
#X connect 41 0 39 0;
#X connect 42 0 39 0;
#X connect 43 0 44 0;
#X connect 43 1 35 0;
#X connect 44 0 40 0;
#X connect 45 0 82 0;
#X connect 46 0 49 0;
#X connect 47 0 83 0;
#X connect 48 0 84 0;
#X connect 49 0 50 0;
#X connect 51 0 52 0;
#X connect 52 0 54 0;
#X connect 53 0 54 1;
#X connect 54 0 58 0;
#X connect 55 0 58 1;
#X connect 56 0 58 2;
#X connect 57 0 58 3;
#X connect 58 0 59 0;
#X connect 60 0 61 0;
#X connect 61 1 65 0;
#X connect 62 0 63 0;
#X connect 63 0 64 0;
#X connect 64 0 61 1;
#X connect 65 0 71 0;
#X connect 70 0 66 0;
#X connect 70 1 67 0;
#X connect 70 2 68 0;
#X connect 70 3 69 0;
#X connect 70 3 151 0;
#X connect 73 0 70 0;
#X connect 74 0 41 0;
#X connect 75 0 78 0;
#X connect 76 0 77 1;
#X connect 77 0 80 0;
#X connect 78 0 46 0;
#X connect 78 0 81 0;
#X connect 78 0 117 0;
#X connect 78 1 77 0;
#X connect 80 0 79 0;
#X connect 81 0 40 0;
#X connect 82 0 85 0;
#X connect 82 1 46 1;
#X connect 83 0 85 0;
#X connect 83 1 49 1;
#X connect 84 0 85 0;
#X connect 84 1 49 2;
#X connect 85 0 46 0;
#X connect 88 0 138 1;
#X connect 112 0 114 0;
#X connect 113 0 88 0;
#X connect 114 0 113 0;
#X connect 115 0 125 0;
#X connect 116 0 117 0;
#X connect 117 0 128 0;
#X connect 118 0 116 0;
#X connect 118 1 117 1;
#X connect 123 0 116 0;
#X connect 123 1 128 1;
#X connect 124 0 123 0;
#X connect 125 0 116 0;
#X connect 125 1 128 2;
#X connect 126 0 118 0;
#X connect 128 0 127 0;
#X connect 129 0 132 0;
#X connect 129 0 139 0;
#X connect 130 0 133 0;
#X connect 130 0 139 0;
#X connect 131 0 134 0;
#X connect 131 0 139 0;
#X connect 138 0 141 0;
#X connect 138 0 143 0;
#X connect 139 0 140 0;
#X connect 140 0 138 0;
#X connect 140 0 142 0;
#X connect 144 0 129 0;
#X connect 145 0 130 0;
#X connect 146 0 131 0;
#X connect 149 0 148 0;
#X connect 152 0 154 0;
#X connect 155 0 153 0;
#X coords 0 -1 1 1 102 352 1 50 50;
