#N canvas 137 1321 888 517 10;
#X obj 51 67 cnv 15 100 200 empty \$0-canvas empty 20 12 0 14 -166441
-166441 0;
#X obj 55 197 GAMMEKB \$0B 1;
#X obj 55 244 bng 15 250 50 0 \$0-copy \$0-copy copy 17 7 0 10 -4034
-1 -1;
#X obj 103 244 bng 15 250 50 0 \$0-paste \$0-paste paste 17 7 0 10
-258113 -1 -1;
#X obj 56 83 nbx 5 14 0 32 0 0 \$0-steps \$0-steps steps 0 -8 0 10
-262144 -1 -1 16 256;
#X obj 122 81 bng 15 250 50 0 \$0-bang \$0-bang empty 17 7 0 10 -262144
-1 -1;
#X obj 229 75 r \$0G;
#X obj 211 100 f;
#X obj 273 75 r \$0C;
#X obj 316 75 r \$0B;
#X obj 211 47 r \$0-copy;
#X obj 211 144 s \$1-clipboard;
#X obj 211 171 r \$0-paste;
#X obj 229 192 r \$1-clipboard;
#X obj 211 217 l;
#X obj 362 75 r \$0-steps;
#X obj 211 122 pack f f f f;
#X obj 55 102 GAMMEKB \$0G;
#X obj 55 149 GAMMEKB \$0C;
#X obj 386 123 r \$0-steps;
#X obj 386 145 +;
#X obj 416 146 t b f;
#X obj 463 11 r \$1-stepscumul;
#X obj 463 97 route -1;
#X obj 516 31 loadbang;
#X obj 516 53 f \$2;
#X obj 516 75 - 1;
#X obj 386 168 list prepend \$2;
#X obj 386 190 s \$1-stepscumul;
#X floatatom 343 193 5 0 0 0 - - -;
#X obj 211 293 r \$1-step;
#X obj 514 157 s \$0-startstep;
#X obj 514 229 s \$0-stopstep;
#X obj 211 315 -;
#X obj 241 315 r \$0-startstep;
#X obj 257 363 <;
#X obj 289 362 r \$0-steps;
#X obj 219 391 tgl 15 0 empty empty empty 17 7 0 10 -262144 -1 -1 0
1;
#X obj 257 412 sel 0 1;
#X obj 257 470 s \$0-canvas;
#X obj 257 390 change -1;
#X msg 257 434 color 1 1 1;
#X msg 353 432 color 15 15 15;
#X obj 211 337 moses 0;
#X msg 211 359 0;
#X obj 501 330 r \$0G;
#X obj 488 423 f;
#X obj 545 330 r \$0C;
#X obj 588 330 r \$0B;
#X obj 488 445 pack f f f f;
#X obj 488 467 s \$1-stepdata;
#X obj 639 35 r \$1-getdata;
#X obj 639 57 sel \$2;
#X obj 657 86 r \$0G;
#X obj 639 111 f;
#X obj 701 86 r \$0C;
#X obj 744 86 r \$0B;
#X obj 790 86 r \$0-steps;
#X obj 639 133 pack f f f f;
#X obj 639 155 s \$1-getdata-rcv;
#X obj 639 186 r \$1-setdata;
#X obj 639 209 list split;
#X obj 774 137 loadbang;
#X obj 774 159 f \$2;
#X obj 774 181 * 4;
#X obj 672 232 list split 4;
#X obj 670 393 s \$0G;
#X obj 714 393 s \$0C;
#X obj 757 393 s \$0B;
#X obj 802 393 s \$0-steps;
#X obj 670 369 unpack f f f f;
#X obj 672 255 s \$0-setdata;
#X obj 211 238 s \$0-setdata;
#X obj 670 348 r \$0-setdata;
#X obj 174 410 loadbang;
#X obj 381 247 r \$0-bang;
#X obj 431 266 r \$0-startstep;
#X obj 413 291 f;
#X obj 381 269 t b b;
#X obj 413 335 s \$1-step;
#X msg 413 313 -1 \, \$1;
#X msg 358 336 1;
#X obj 501 351 t b f;
#X obj 545 352 t b f;
#X obj 588 352 t b f;
#X obj 488 391 spigot;
#X obj 45 440 ddemux;
#N canvas 403 234 540 884 GammeType 0;
#X obj 41 1 r \$0B;
#X msg 34 475 2741;
#X obj 100 614 s \$0G;
#X obj 340 593 s \$0C;
#X msg 217 479 145;
#N canvas 63 453 450 300 Transpose/GAMME 0;
#X obj 101 27 inlet;
#X obj 113 211 outlet;
#X obj 107 114 f;
#X obj 107 161 transpose 0;
#X obj 153 64 t b f;
#X obj 279 24 loadbang;
#X obj 279 48 del 200;
#X msg 279 71 2741;
#X obj 165 20 inlet;
#X connect 0 0 2 0;
#X connect 2 0 3 0;
#X connect 3 0 1 0;
#X connect 4 0 2 0;
#X connect 4 1 3 1;
#X connect 5 0 6 0;
#X connect 6 0 7 0;
#X connect 7 0 2 0;
#X connect 8 0 4 0;
#X restore 100 585 pd Transpose/GAMME;
#X msg 41 84 0;
#N canvas 63 453 450 300 Transpose/Chord 0;
#X obj 101 27 inlet;
#X obj 113 211 outlet;
#X obj 107 114 f;
#X obj 107 161 transpose 0;
#X obj 153 64 t b f;
#X obj 279 24 loadbang;
#X obj 279 48 del 200;
#X obj 165 20 inlet;
#X msg 279 71 154;
#X connect 0 0 2 0;
#X connect 2 0 3 0;
#X connect 3 0 1 0;
#X connect 4 0 2 0;
#X connect 4 1 3 1;
#X connect 5 0 6 0;
#X connect 6 0 8 0;
#X connect 7 0 4 0;
#X connect 8 0 2 0;
#X restore 333 559 pd Transpose/Chord;
#X msg 74 84 1;
#X obj 41 61 sel 1 2 4 8 16 32 64 128 256 512 1024 2048, f 67;
#X msg 107 84 2;
#X msg 140 84 3;
#X msg 174 84 4;
#X msg 207 84 5;
#X msg 240 84 6;
#X msg 273 84 7;
#X msg 307 84 8;
#X msg 340 84 9;
#X msg 373 84 10;
#X msg 406 84 11;
#X obj 261 165 r \$0-GammeType;
#X msg 249 479 137;
#X obj 261 188 t f f;
#X msg 105 475 1717;
#X msg 280 479 1169;
#X msg 141 475 1709;
#X msg 315 479 1161;
#X obj 202 235 spigot;
#X obj 288 211 t f f;
#X obj 41 29 f;
#X obj 315 233 t b f;
#X obj 82 339 ddemux6 0 1 2 3 4 5;
#X obj 256 339 sel 0 1 2 3 4 5;
#X obj 69 732 r \$0G;
#X obj 54 756 f;
#X floatatom 66 784 5 0 0 0 - - -;
#X obj 147 752 f;
#X floatatom 159 780 5 0 0 0 - - -;
#X text 354 165 0=M 1=m 2=7 3=m7 4=T 5=0;
#X floatatom 98 757 5 0 0 0 - - -;
#X floatatom 181 751 5 0 0 0 - - -;
#X obj 162 728 r \$0C;
#X msg 343 131 4, f 1;
#X obj 49 734 bng 15 250 50 0 empty empty empty 17 7 0 10 -262144 -1
-1;
#X obj 142 729 bng 15 250 50 0 empty empty empty 17 7 0 10 -262144
-1 -1;
#X floatatom 146 630 5 0 0 0 - - -;
#X floatatom 389 612 5 0 0 0 - - -;
#X obj 350 671 t b f;
#X obj 288 624 t f f f;
#X floatatom 317 849 5 0 0 0 - - -;
#X obj 291 712 -;
#X obj 348 763 moses 0.1;
#X obj 291 738 moses -0.1;
#X obj 288 667 pipe 10;
#X obj 291 764 * -1;
#X obj 399 788 * -1;
#X obj 317 822 f;
#X obj 195 652 t f f f;
#X obj 232 677 t b b;
#X obj 162 183 t b f f;
#X obj 257 566 spigot;
#X floatatom 229 610 5 0 0 0 - - -;
#X obj 376 251 sel 0 1 2 3 4 5, f 24;
#X msg 393 327 0, f 1;
#X msg 412 327 1, f 1;
#X obj 393 353 tgl 15 0 empty empty empty 17 7 0 10 -262144 -1 -1 1
1;
#X msg 439 325 0, f 1;
#X msg 458 325 1, f 1;
#X obj 439 351 tgl 15 0 empty empty empty 17 7 0 10 -262144 -1 -1 0
1;
#X msg 70 475 1453;
#X connect 0 0 29 0;
#X connect 1 0 5 0;
#X connect 4 0 7 0;
#X connect 5 0 2 0;
#X connect 5 0 45 0;
#X connect 6 0 59 0;
#X connect 7 0 3 0;
#X connect 7 0 46 0;
#X connect 8 0 59 0;
#X connect 9 0 6 0;
#X connect 9 1 8 0;
#X connect 9 2 10 0;
#X connect 9 3 11 0;
#X connect 9 4 12 0;
#X connect 9 5 13 0;
#X connect 9 6 14 0;
#X connect 9 7 15 0;
#X connect 9 8 16 0;
#X connect 9 9 17 0;
#X connect 9 10 18 0;
#X connect 9 11 19 0;
#X connect 10 0 59 0;
#X connect 11 0 59 0;
#X connect 12 0 59 0;
#X connect 13 0 59 0;
#X connect 14 0 59 0;
#X connect 15 0 59 0;
#X connect 16 0 59 0;
#X connect 17 0 59 0;
#X connect 18 0 59 0;
#X connect 19 0 59 0;
#X connect 20 0 22 0;
#X connect 21 0 7 0;
#X connect 22 0 32 0;
#X connect 22 1 28 0;
#X connect 23 0 5 0;
#X connect 24 0 7 0;
#X connect 25 0 5 0;
#X connect 26 0 7 0;
#X connect 27 0 5 1;
#X connect 27 0 7 1;
#X connect 28 0 31 1;
#X connect 28 1 30 0;
#X connect 29 0 9 0;
#X connect 30 0 29 0;
#X connect 30 1 62 0;
#X connect 31 0 1 0;
#X connect 31 0 4 0;
#X connect 31 1 21 0;
#X connect 31 1 69 0;
#X connect 31 2 23 0;
#X connect 31 2 24 0;
#X connect 31 3 25 0;
#X connect 31 3 26 0;
#X connect 32 0 1 0;
#X connect 32 0 4 0;
#X connect 32 1 69 0;
#X connect 32 1 21 0;
#X connect 32 2 23 0;
#X connect 32 2 24 0;
#X connect 32 3 25 0;
#X connect 32 3 26 0;
#X connect 33 0 34 1;
#X connect 33 0 39 0;
#X connect 34 0 35 0;
#X connect 34 0 5 0;
#X connect 36 0 37 0;
#X connect 36 0 7 0;
#X connect 41 0 36 1;
#X connect 41 0 40 0;
#X connect 42 0 22 0;
#X connect 43 0 34 0;
#X connect 44 0 36 0;
#X connect 47 0 50 0;
#X connect 47 1 50 1;
#X connect 48 1 53 0;
#X connect 48 2 47 0;
#X connect 50 0 52 0;
#X connect 51 1 55 0;
#X connect 52 0 54 0;
#X connect 52 1 51 0;
#X connect 53 0 50 0;
#X connect 54 0 56 0;
#X connect 55 0 56 0;
#X connect 56 0 57 0;
#X connect 56 0 49 0;
#X connect 57 0 5 1;
#X connect 57 1 7 1;
#X connect 57 2 58 0;
#X connect 58 0 34 0;
#X connect 58 1 36 0;
#X connect 59 0 31 0;
#X connect 59 1 60 0;
#X connect 59 2 27 0;
#X connect 60 0 48 0;
#X connect 60 0 61 0;
#X connect 62 0 66 0;
#X connect 62 0 64 0;
#X connect 62 1 66 0;
#X connect 62 1 64 0;
#X connect 62 2 66 0;
#X connect 62 2 64 0;
#X connect 62 3 66 0;
#X connect 62 3 64 0;
#X connect 62 4 67 0;
#X connect 62 4 63 0;
#X connect 62 5 66 0;
#X connect 62 5 63 0;
#X connect 63 0 65 0;
#X connect 64 0 65 0;
#X connect 65 0 27 1;
#X connect 66 0 68 0;
#X connect 67 0 68 0;
#X connect 68 0 60 1;
#X connect 69 0 5 0;
#X restore 62 366 pd GammeType;
#X obj 51 264 cnv 15 100 43 empty empty Gammes 2 6 0 8 -4032 -260097
0;
#X obj 50 275 hradio 17 1 0 6 \$0-GammeType \$0-GammeType empty 0 -8
0 10 -262144 -1 -1 1;
#X text 57 292 M;
#X text 74 292 m;
#X text 91 292 7;
#X text 102 292 m7;
#X text 125 292 T;
#X text 142 292 0;
#X connect 6 0 7 1;
#X connect 7 0 16 0;
#X connect 8 0 16 1;
#X connect 9 0 16 2;
#X connect 10 0 7 0;
#X connect 12 0 14 0;
#X connect 13 0 14 1;
#X connect 14 0 72 0;
#X connect 15 0 16 3;
#X connect 16 0 11 0;
#X connect 19 0 20 0;
#X connect 20 0 27 0;
#X connect 20 0 29 0;
#X connect 21 0 20 0;
#X connect 21 1 20 1;
#X connect 22 0 23 0;
#X connect 23 0 21 0;
#X connect 23 0 31 0;
#X connect 24 0 25 0;
#X connect 25 0 26 0;
#X connect 26 0 23 1;
#X connect 27 0 28 0;
#X connect 27 0 32 0;
#X connect 30 0 33 0;
#X connect 33 0 43 0;
#X connect 34 0 33 1;
#X connect 35 0 40 0;
#X connect 36 0 35 1;
#X connect 38 0 41 0;
#X connect 38 1 42 0;
#X connect 38 1 46 0;
#X connect 40 0 38 0;
#X connect 40 0 37 0;
#X connect 40 0 85 1;
#X connect 41 0 39 0;
#X connect 42 0 39 0;
#X connect 43 0 44 0;
#X connect 43 1 35 0;
#X connect 44 0 40 0;
#X connect 45 0 82 0;
#X connect 46 0 49 0;
#X connect 47 0 83 0;
#X connect 48 0 84 0;
#X connect 49 0 50 0;
#X connect 51 0 52 0;
#X connect 52 0 54 0;
#X connect 53 0 54 1;
#X connect 54 0 58 0;
#X connect 55 0 58 1;
#X connect 56 0 58 2;
#X connect 57 0 58 3;
#X connect 58 0 59 0;
#X connect 60 0 61 0;
#X connect 61 1 65 0;
#X connect 62 0 63 0;
#X connect 63 0 64 0;
#X connect 64 0 61 1;
#X connect 65 0 71 0;
#X connect 70 0 66 0;
#X connect 70 1 67 0;
#X connect 70 2 68 0;
#X connect 70 3 69 0;
#X connect 73 0 70 0;
#X connect 74 0 41 0;
#X connect 75 0 78 0;
#X connect 76 0 77 1;
#X connect 77 0 80 0;
#X connect 78 0 46 0;
#X connect 78 0 81 0;
#X connect 78 1 77 0;
#X connect 80 0 79 0;
#X connect 81 0 40 0;
#X connect 82 0 85 0;
#X connect 82 1 46 1;
#X connect 83 0 85 0;
#X connect 83 1 49 1;
#X connect 84 0 85 0;
#X connect 84 1 49 2;
#X connect 85 0 46 0;
#X coords 0 -1 1 1 102 258 1 50 50;
