#N canvas 312 96 888 517 10;
#X obj 51 67 cnv 15 100 280 empty \$0-canvas empty 20 12 0 14 -166441
-166441 0;
#X obj 55 274 GAMMEKB \$0B 1;
#X obj 55 321 bng 15 250 50 0 \$0-copy \$0-copy copy 17 7 0 10 -4034
-1 -1;
#X obj 103 321 bng 15 250 50 0 \$0-paste \$0-paste paste 17 7 0 10
-258113 -1 -1;
#X obj 56 81 nbx 3 14 0 32 0 0 \$0-steps \$0-steps steps 0 -8 0 10
-262144 -1 -1 16 256;
#X obj 97 81 bng 15 250 50 0 \$0-bang \$0-bang empty 17 7 0 10 -262144
-1 -1;
#X obj 229 75 r \$0G;
#X obj 211 100 f;
#X obj 273 75 r \$0C;
#X obj 316 75 r \$0B;
#X obj 211 47 r \$0-copy;
#X obj 211 144 s \$1-clipboard;
#X obj 211 171 r \$0-paste;
#X obj 229 192 r \$1-clipboard;
#X obj 211 217 l;
#X obj 362 75 r \$0-steps;
#X obj 211 122 pack f f f f;
#X obj 55 142 GAMMEKB \$0G;
#X obj 55 208 GAMMEKB \$0C;
#X obj 386 123 r \$0-steps;
#X obj 386 145 +;
#X obj 416 146 t b f;
#X obj 463 11 r \$1-stepscumul;
#X obj 463 97 route -1;
#X obj 516 31 loadbang;
#X obj 516 53 f \$2;
#X obj 516 75 - 1;
#X obj 386 168 list prepend \$2;
#X obj 386 190 s \$1-stepscumul;
#X floatatom 343 193 5 0 0 0 - - -;
#X obj 211 293 r \$1-step;
#X obj 514 157 s \$0-startstep;
#X obj 514 229 s \$0-stopstep;
#X obj 211 315 -;
#X obj 241 315 r \$0-startstep;
#X obj 257 363 <;
#X obj 289 362 r \$0-steps;
#X obj 219 391 tgl 15 0 empty empty empty 17 7 0 10 -262144 -1 -1 0
1;
#X obj 257 412 sel 0 1;
#X obj 257 470 s \$0-canvas;
#X obj 257 390 change -1;
#X msg 257 434 color 1 1 1;
#X msg 353 432 color 15 15 15;
#X obj 211 337 moses 0;
#X msg 211 359 0;
#X obj 501 330 r \$0G;
#X obj 488 423 f;
#X obj 545 330 r \$0C;
#X obj 588 330 r \$0B;
#X obj 488 445 pack f f f f;
#X obj 488 467 s \$1-stepdata;
#X obj 639 35 r \$1-getdata;
#X obj 639 57 sel \$2;
#X obj 657 86 r \$0G;
#X obj 639 111 f;
#X obj 701 86 r \$0C;
#X obj 744 86 r \$0B;
#X obj 790 86 r \$0-steps;
#X obj 639 133 pack f f f f;
#X obj 639 155 s \$1-getdata-rcv;
#X obj 639 186 r \$1-setdata;
#X obj 639 209 list split;
#X obj 774 137 loadbang;
#X obj 774 159 f \$2;
#X obj 774 181 * 4;
#X obj 672 232 list split 4;
#X obj 670 393 s \$0G;
#X obj 714 393 s \$0C;
#X obj 757 393 s \$0B;
#X obj 802 393 s \$0-steps;
#X obj 670 369 unpack f f f f;
#X obj 672 255 s \$0-setdata;
#X obj 211 238 s \$0-setdata;
#X obj 670 348 r \$0-setdata;
#X obj 174 410 loadbang;
#X obj 381 247 r \$0-bang;
#X obj 431 266 r \$0-startstep;
#X obj 413 291 f;
#X obj 381 269 t b b;
#X obj 413 335 s \$1-step;
#X msg 413 313 -1 \, \$1;
#X msg 358 336 1;
#X obj 501 351 t b f;
#X obj 545 352 t b f;
#X obj 588 352 t b f;
#X obj 488 391 spigot;
#X obj 45 440 ddemux;
#N canvas 402 641 721 774 GammeType 0;
#X obj 41 14 r \$0B;
#X obj 271 715 s \$0G;
#X obj 547 720 s \$0C;
#N canvas 63 453 450 300 Transpose/GAMME 0;
#X obj 101 27 inlet;
#X obj 113 211 outlet;
#X obj 107 114 f;
#X obj 107 161 transpose 0;
#X obj 153 64 t b f;
#X obj 279 24 loadbang;
#X obj 279 48 del 200;
#X msg 279 71 2741;
#X obj 165 20 inlet;
#X connect 0 0 2 0;
#X connect 2 0 3 0;
#X connect 3 0 1 0;
#X connect 4 0 2 0;
#X connect 4 1 3 1;
#X connect 5 0 6 0;
#X connect 6 0 7 0;
#X connect 7 0 2 0;
#X connect 8 0 4 0;
#X restore 271 653 pd Transpose/GAMME;
#X msg 41 104 0;
#N canvas 63 453 450 300 Transpose/Chord 0;
#X obj 101 27 inlet;
#X obj 113 211 outlet;
#X obj 107 114 f;
#X obj 107 161 transpose 0;
#X obj 153 64 t b f;
#X obj 279 24 loadbang;
#X obj 279 48 del 200;
#X obj 165 20 inlet;
#X msg 279 71 154;
#X connect 0 0 2 0;
#X connect 2 0 3 0;
#X connect 3 0 1 0;
#X connect 4 0 2 0;
#X connect 4 1 3 1;
#X connect 5 0 6 0;
#X connect 6 0 8 0;
#X connect 7 0 4 0;
#X connect 8 0 2 0;
#X restore 547 657 pd Transpose/Chord;
#X msg 74 104 1;
#X obj 41 81 sel 1 2 4 8 16 32 64 128 256 512 1024 2048, f 67;
#X msg 107 104 2;
#X msg 140 104 3;
#X msg 174 104 4;
#X msg 207 104 5;
#X msg 240 104 6;
#X msg 273 104 7;
#X msg 307 104 8;
#X msg 340 104 9;
#X msg 373 104 10;
#X msg 406 104 11;
#X obj 470 301 r \$0-GammeType;
#X obj 41 35 f;
#X obj 325 602 r \$0G;
#X obj 310 624 f;
#X obj 571 600 f;
#X obj 586 578 r \$0C;
#X obj 277 228 t b f;
#X obj 238 207 t f f f;
#X obj 257 258 -;
#X obj 334 280 moses 0.1;
#X obj 257 280 moses -0.1;
#X obj 257 302 * -1;
#X obj 385 304 * -1;
#X obj 292 332 f;
#X obj 319 459 t b b;
#N canvas 466 489 450 300 NotesSymbol 0;
#X obj 97 19 inlet;
#X msg 41 84 do;
#X msg 74 84 do#;
#X msg 107 84 re;
#X msg 140 84 re#;
#X msg 174 84 mi;
#X msg 207 83 fa;
#X msg 240 84 fa#;
#X msg 273 84 sol;
#X msg 307 84 sol#;
#X msg 340 84 la;
#X msg 406 84 si;
#X obj 124 192 s \$0-Note-Type-rcv;
#X obj 41 61 sel 0 1 2 3 4 5 6 7 8 9 10 11, f 67;
#X obj 156 155 symbol;
#X msg 373 84 sib;
#X connect 0 0 13 0;
#X connect 1 0 14 0;
#X connect 2 0 14 0;
#X connect 3 0 14 0;
#X connect 4 0 14 0;
#X connect 5 0 14 0;
#X connect 6 0 14 0;
#X connect 7 0 14 0;
#X connect 8 0 14 0;
#X connect 9 0 14 0;
#X connect 10 0 14 0;
#X connect 11 0 14 0;
#X connect 13 0 1 0;
#X connect 13 1 2 0;
#X connect 13 2 3 0;
#X connect 13 3 4 0;
#X connect 13 4 5 0;
#X connect 13 5 6 0;
#X connect 13 6 7 0;
#X connect 13 7 8 0;
#X connect 13 8 9 0;
#X connect 13 9 10 0;
#X connect 13 10 15 0;
#X connect 13 11 11 0;
#X connect 14 0 12 0;
#X connect 15 0 14 0;
#X restore 80 296 pd NotesSymbol;
#N canvas 644 176 492 773 Chords 0;
#X obj 231 245 outlet;
#X obj 53 523 s \$0-Chord-Type-rcv;
#X obj 53 666 s \$0-nChord-Type-rcv;
#X obj 215 19 r \$0--Chord-snd;
#X obj 329 10 r \$0-+Chord-snd;
#X obj 234 114 s -Chord;
#X obj 345 116 s +Chord;
#X obj 53 455 r Chord-Type;
#X obj 53 562 r nChord-Type;
#X obj 231 167 r Chord-C;
#X obj 53 499 spigot 0;
#X obj 53 608 spigot 0;
#X obj 231 212 spigot 0;
#X obj 98 478 r \$0-LocalChord;
#X obj 98 585 r \$0-LocalChord;
#X obj 276 190 r \$0-LocalChord;
#X obj 215 43 t b b b;
#X obj 242 91 s \$0-LocalChord;
#X msg 254 64 1, f 1;
#X msg 215 64 0, f 1;
#X obj 329 32 t b b b;
#X msg 367 55 1, f 1;
#X msg 329 53 0, f 1;
#X obj 187 107 print;
#X obj 51 22 inlet;
#X obj 77 101 s \$0-LocalChord;
#X msg 90 68 1, f 1;
#X msg 51 68 0, f 1;
#X obj 51 47 t b f b;
#X obj 362 82 s \$0-LocalChord;
#X obj 63 380 s Chord-TypeLoad;
#X obj 213 384 s nChord-TypeLoad;
#X floatatom 340 319 5 0 0 0 - - -;
#X msg 150 308 set \$1;
#X obj 213 272 r \$0-nChord-Type-snd;
#X obj 240 357 s \$0-LocalChord;
#X msg 253 324 1, f 1;
#X msg 213 324 0, f 1;
#X obj 214 303 t b f b;
#X floatatom 40 587 5 0 0 0 - - -;
#X floatatom 32 636 5 0 0 0 - - -;
#X msg 23 256 28;
#X msg 21 201 11;
#X text 46 199 majeur;
#X text 51 256 7;
#X msg 23 230 14;
#X text 49 227 mineur;
#X msg 35 309 32;
#X text 64 306 mineur7;
#X obj 104 142 sel 0 1 2 3 4 5;
#X text 54 276 majeur7;
#X msg 25 279 24;
#X obj 6 344 s nChord-TypeLoad;
#X connect 3 0 16 0;
#X connect 4 0 20 0;
#X connect 7 0 10 0;
#X connect 8 0 11 0;
#X connect 8 0 39 0;
#X connect 9 0 12 0;
#X connect 10 0 1 0;
#X connect 11 0 2 0;
#X connect 11 0 40 0;
#X connect 12 0 0 0;
#X connect 13 0 10 1;
#X connect 14 0 11 1;
#X connect 15 0 12 1;
#X connect 16 0 19 0;
#X connect 16 1 5 0;
#X connect 16 2 18 0;
#X connect 18 0 17 0;
#X connect 19 0 17 0;
#X connect 20 0 22 0;
#X connect 20 1 6 0;
#X connect 20 2 21 0;
#X connect 21 0 29 0;
#X connect 22 0 29 0;
#X connect 24 0 28 0;
#X connect 26 0 25 0;
#X connect 27 0 25 0;
#X connect 28 0 27 0;
#X connect 28 1 49 0;
#X connect 28 2 26 0;
#X connect 33 0 2 0;
#X connect 34 0 32 0;
#X connect 34 0 38 0;
#X connect 36 0 35 0;
#X connect 37 0 35 0;
#X connect 38 0 37 0;
#X connect 38 1 31 0;
#X connect 38 2 36 0;
#X connect 41 0 52 0;
#X connect 41 0 33 0;
#X connect 42 0 52 0;
#X connect 42 0 33 0;
#X connect 45 0 52 0;
#X connect 45 0 33 0;
#X connect 47 0 52 0;
#X connect 47 0 33 0;
#X connect 49 0 42 0;
#X connect 49 1 45 0;
#X connect 49 2 41 0;
#X connect 49 3 51 0;
#X connect 49 4 47 0;
#X connect 51 0 52 0;
#X connect 51 0 33 0;
#X restore 569 336 pd Chords;
#N canvas 0 96 605 923 old 0;
#X obj 41 1 r \$0B;
#X msg 34 475 2741;
#X obj 106 641 s \$0G;
#X obj 352 628 s \$0C;
#X msg 217 479 145;
#N canvas 63 453 450 300 Transpose/GAMME 0;
#X obj 101 27 inlet;
#X obj 113 211 outlet;
#X obj 107 114 f;
#X obj 107 161 transpose 0;
#X obj 153 64 t b f;
#X obj 279 24 loadbang;
#X obj 279 48 del 200;
#X msg 279 71 2741;
#X obj 165 20 inlet;
#X connect 0 0 2 0;
#X connect 2 0 3 0;
#X connect 3 0 1 0;
#X connect 4 0 2 0;
#X connect 4 1 3 1;
#X connect 5 0 6 0;
#X connect 6 0 7 0;
#X connect 7 0 2 0;
#X connect 8 0 4 0;
#X restore 109 601 pd Transpose/GAMME;
#X msg 41 84 0;
#N canvas 63 453 450 300 Transpose/Chord 0;
#X obj 101 27 inlet;
#X obj 113 211 outlet;
#X obj 107 114 f;
#X obj 107 161 transpose 0;
#X obj 153 64 t b f;
#X obj 279 24 loadbang;
#X obj 279 48 del 200;
#X obj 165 20 inlet;
#X msg 279 71 154;
#X connect 0 0 2 0;
#X connect 2 0 3 0;
#X connect 3 0 1 0;
#X connect 4 0 2 0;
#X connect 4 1 3 1;
#X connect 5 0 6 0;
#X connect 6 0 8 0;
#X connect 7 0 4 0;
#X connect 8 0 2 0;
#X restore 333 559 pd Transpose/Chord;
#X msg 74 84 1;
#X obj 41 61 sel 1 2 4 8 16 32 64 128 256 512 1024 2048, f 67;
#X msg 107 84 2;
#X msg 140 84 3;
#X msg 174 84 4;
#X msg 207 84 5;
#X msg 240 84 6;
#X msg 273 84 7;
#X msg 307 84 8;
#X msg 340 84 9;
#X msg 373 84 10;
#X msg 406 84 11;
#X obj 261 165 r \$0-GammeType;
#X msg 249 479 137;
#X obj 261 188 t f f;
#X obj 202 235 spigot;
#X obj 288 211 t f f;
#X obj 41 29 f;
#X obj 315 233 t b f;
#X obj 82 339 ddemux6 0 1 2 3 4 5;
#X obj 256 339 sel 0 1 2 3 4 5;
#X obj 77 679 r \$0G;
#X obj 54 756 f;
#X floatatom 66 784 5 0 0 0 - - -;
#X obj 147 752 f;
#X floatatom 159 780 5 0 0 0 - - -;
#X text 354 165 0=M 1=m 2=7 3=m7 4=T 5=0;
#X floatatom 98 757 5 0 0 0 - - -;
#X floatatom 181 751 5 0 0 0 - - -;
#X obj 160 680 r \$0C;
#X msg 343 131 4, f 1;
#X obj 49 734 bng 15 250 50 0 empty empty empty 17 7 0 10 -262144 -1
-1;
#X obj 142 729 bng 15 250 50 0 empty empty empty 17 7 0 10 -262144
-1 -1;
#X floatatom 155 646 5 0 0 0 - - -;
#X floatatom 389 612 5 0 0 0 - - -;
#X obj 350 671 t b f;
#X obj 288 624 t f f f;
#X floatatom 317 849 5 0 0 0 - - -;
#X obj 291 712 -;
#X obj 348 763 moses 0.1;
#X obj 291 738 moses -0.1;
#X obj 288 667 pipe 10;
#X obj 291 764 * -1;
#X obj 399 788 * -1;
#X obj 317 822 f;
#X obj 195 652 t f f f;
#X obj 232 677 t b b;
#X obj 162 183 t b f f;
#X obj 257 566 spigot;
#X floatatom 229 610 5 0 0 0 - - -;
#X obj 376 251 sel 0 1 2 3 4 5, f 24;
#X msg 393 327 0, f 1;
#X msg 412 327 1, f 1;
#X obj 393 353 tgl 15 0 empty empty empty 17 7 0 10 -262144 -1 -1 1
1;
#X msg 439 325 0, f 1;
#X msg 458 325 1, f 1;
#X obj 439 351 tgl 15 0 empty empty empty 17 7 0 10 -262144 -1 -1 0
1;
#X msg 70 475 2477;
#X msg 315 479 1161;
#X msg 280 479 1169;
#X obj 105 542 r \$0-TransposeGamme-snd;
#X obj 126 571 tgl 15 0 empty empty empty 17 7 0 10 -262144 -1 -1 0
1;
#X obj 61 567 spigot 0;
#X obj 157 570 spigot 0;
#X msg 141 475 1229;
#X msg 105 475 1753;
#N canvas 466 489 450 300 NotesSymbol 0;
#X obj 97 19 inlet;
#X msg 41 84 do;
#X msg 74 84 do#;
#X msg 107 84 re;
#X msg 140 84 re#;
#X msg 174 84 mi;
#X msg 207 83 fa;
#X msg 240 84 fa#;
#X msg 273 84 sol;
#X msg 307 84 sol#;
#X msg 340 84 la;
#X msg 406 84 si;
#X obj 124 192 s \$0-Note-Type-rcv;
#X obj 41 61 sel 0 1 2 3 4 5 6 7 8 9 10 11, f 67;
#X obj 156 155 symbol;
#X msg 373 84 sib;
#X connect 0 0 13 0;
#X connect 1 0 14 0;
#X connect 2 0 14 0;
#X connect 3 0 14 0;
#X connect 4 0 14 0;
#X connect 5 0 14 0;
#X connect 6 0 14 0;
#X connect 7 0 14 0;
#X connect 8 0 14 0;
#X connect 9 0 14 0;
#X connect 10 0 14 0;
#X connect 11 0 14 0;
#X connect 13 0 1 0;
#X connect 13 1 2 0;
#X connect 13 2 3 0;
#X connect 13 3 4 0;
#X connect 13 4 5 0;
#X connect 13 5 6 0;
#X connect 13 6 7 0;
#X connect 13 7 8 0;
#X connect 13 8 9 0;
#X connect 13 9 10 0;
#X connect 13 10 15 0;
#X connect 13 11 11 0;
#X connect 14 0 12 0;
#X connect 15 0 14 0;
#X restore 19 238 pd NotesSymbol;
#X connect 1 0 70 0;
#X connect 4 0 7 0;
#X connect 5 0 41 0;
#X connect 6 0 55 0;
#X connect 7 0 42 0;
#X connect 8 0 55 0;
#X connect 9 0 6 0;
#X connect 9 1 8 0;
#X connect 9 2 10 0;
#X connect 9 3 11 0;
#X connect 9 4 12 0;
#X connect 9 5 13 0;
#X connect 9 6 14 0;
#X connect 9 7 15 0;
#X connect 9 8 16 0;
#X connect 9 9 17 0;
#X connect 9 10 18 0;
#X connect 9 11 19 0;
#X connect 10 0 55 0;
#X connect 11 0 55 0;
#X connect 12 0 55 0;
#X connect 13 0 55 0;
#X connect 14 0 55 0;
#X connect 15 0 55 0;
#X connect 16 0 55 0;
#X connect 17 0 55 0;
#X connect 18 0 55 0;
#X connect 19 0 55 0;
#X connect 20 0 22 0;
#X connect 21 0 7 0;
#X connect 22 0 28 0;
#X connect 22 1 24 0;
#X connect 23 0 7 1;
#X connect 23 0 71 0;
#X connect 24 0 27 1;
#X connect 24 1 26 0;
#X connect 25 0 9 0;
#X connect 26 0 25 0;
#X connect 26 1 58 0;
#X connect 27 0 1 0;
#X connect 27 0 4 0;
#X connect 27 1 21 0;
#X connect 27 1 65 0;
#X connect 27 2 73 0;
#X connect 27 2 67 0;
#X connect 27 3 72 0;
#X connect 27 3 66 0;
#X connect 28 0 1 0;
#X connect 28 0 4 0;
#X connect 28 1 65 0;
#X connect 28 1 21 0;
#X connect 28 2 73 0;
#X connect 28 2 67 0;
#X connect 28 3 72 0;
#X connect 28 3 66 0;
#X connect 29 0 35 0;
#X connect 30 0 31 0;
#X connect 30 0 70 0;
#X connect 32 0 33 0;
#X connect 32 0 7 0;
#X connect 37 0 36 0;
#X connect 38 0 22 0;
#X connect 39 0 30 0;
#X connect 40 0 32 0;
#X connect 43 0 46 0;
#X connect 43 1 46 1;
#X connect 44 1 49 0;
#X connect 44 2 43 0;
#X connect 46 0 48 0;
#X connect 47 1 51 0;
#X connect 48 0 50 0;
#X connect 48 1 47 0;
#X connect 49 0 46 0;
#X connect 50 0 52 0;
#X connect 51 0 52 0;
#X connect 52 0 53 0;
#X connect 52 0 45 0;
#X connect 53 0 71 0;
#X connect 53 1 7 1;
#X connect 53 2 54 0;
#X connect 54 0 30 0;
#X connect 54 1 32 0;
#X connect 55 0 27 0;
#X connect 55 1 56 0;
#X connect 55 2 23 0;
#X connect 56 0 44 0;
#X connect 56 0 57 0;
#X connect 58 0 62 0;
#X connect 58 0 60 0;
#X connect 58 1 62 0;
#X connect 58 1 60 0;
#X connect 58 2 62 0;
#X connect 58 2 60 0;
#X connect 58 3 62 0;
#X connect 58 3 60 0;
#X connect 58 4 63 0;
#X connect 58 4 59 0;
#X connect 58 5 62 0;
#X connect 58 5 59 0;
#X connect 59 0 61 0;
#X connect 60 0 61 0;
#X connect 61 0 23 1;
#X connect 62 0 64 0;
#X connect 63 0 64 0;
#X connect 64 0 56 1;
#X connect 65 0 70 0;
#X connect 66 0 7 0;
#X connect 67 0 7 0;
#X connect 68 0 69 0;
#X connect 68 0 70 1;
#X connect 68 0 71 1;
#X connect 70 0 5 0;
#X connect 71 0 5 1;
#X connect 72 0 70 0;
#X connect 73 0 70 0;
#X restore 121 412 pd old;
#X obj 292 355 t b f;
#X obj 319 378 f;
#X obj 334 332 t b b;
#X msg 334 355 0, f 1;
#X obj 376 628 spigot 0;
#X floatatom 342 396 5 0 0 0 - - -;
#X obj 304 396 bng 15 250 50 0 empty empty empty 17 7 0 10 -262144
-1 -1;
#X obj 376 576 f;
#X obj 346 483 t b b;
#X obj 573 424 f;
#X obj 603 424 f;
#X obj 569 358 t b b b f;
#X text 275 21 0=M 1=m 2=7 3=M7 4=m7 5=0;
#X obj 421 601 r \$0-NoTransGamme-snd;
#X obj 474 445 f;
#X obj 504 445 f;
#X obj 470 381 t b b b f;
#N canvas 690 705 492 773 Modes 0;
#X obj 231 245 outlet;
#X obj 53 499 spigot 0;
#X obj 53 608 spigot 0;
#X obj 231 212 spigot 0;
#X obj 215 43 t b b b;
#X msg 254 64 1, f 1;
#X msg 215 64 0, f 1;
#X obj 329 32 t b b b;
#X msg 367 55 1, f 1;
#X msg 329 53 0, f 1;
#X obj 187 107 print;
#X obj 51 22 inlet;
#X msg 90 68 1, f 1;
#X msg 51 68 0, f 1;
#X obj 51 47 t b f b;
#X floatatom 340 319 5 0 0 0 - - -;
#X msg 150 308 set \$1;
#X msg 253 324 1, f 1;
#X msg 213 324 0, f 1;
#X obj 214 303 t b f b;
#X floatatom 40 587 5 0 0 0 - - -;
#X floatatom 32 636 5 0 0 0 - - -;
#X text 46 199 majeur;
#X text 51 256 7;
#X text 49 227 mineur;
#X text 64 306 mineur7;
#X obj 104 142 sel 0 1 2 3 4 5;
#X text 54 276 majeur7;
#X obj 77 101 s \$0-LocalMode;
#X obj 242 91 s \$0-LocalMode;
#X obj 362 82 s \$0-LocalMode;
#X obj 234 114 s -Mode;
#X obj 345 116 s +Mode;
#X obj 231 167 r Mode-C;
#X obj 276 190 r \$0-LocalMode;
#X obj 213 272 r \$0-nMode-Type-snd;
#X obj 240 357 s \$0-LocalMode;
#X obj 213 384 s nMode-TypeLoad;
#X obj 6 344 s nMode-TypeLoad;
#X msg 21 200 0;
#X msg 25 279 7;
#X obj 53 455 r Mode-Type;
#X obj 98 478 r \$0-LocalMode;
#X obj 53 523 s \$0-Mode-Type-rcv;
#X obj 98 585 r \$0-LocalMode;
#X obj 53 562 r nMode-Type;
#X obj 53 666 s \$0-nMode-Type-rcv;
#X obj 215 19 r \$0--Mode-snd;
#X obj 329 10 r \$0-+Mode-snd;
#X msg 23 256 5;
#X msg 23 230 1;
#X msg 35 309 8;
#X connect 1 0 43 0;
#X connect 2 0 21 0;
#X connect 2 0 46 0;
#X connect 3 0 0 0;
#X connect 4 0 6 0;
#X connect 4 1 31 0;
#X connect 4 2 5 0;
#X connect 5 0 29 0;
#X connect 6 0 29 0;
#X connect 7 0 9 0;
#X connect 7 1 32 0;
#X connect 7 2 8 0;
#X connect 8 0 30 0;
#X connect 9 0 30 0;
#X connect 11 0 14 0;
#X connect 12 0 28 0;
#X connect 13 0 28 0;
#X connect 14 0 13 0;
#X connect 14 1 26 0;
#X connect 14 2 12 0;
#X connect 16 0 46 0;
#X connect 17 0 36 0;
#X connect 18 0 36 0;
#X connect 19 0 18 0;
#X connect 19 1 37 0;
#X connect 19 2 17 0;
#X connect 26 0 39 0;
#X connect 26 1 50 0;
#X connect 26 2 49 0;
#X connect 26 3 40 0;
#X connect 26 4 51 0;
#X connect 33 0 3 0;
#X connect 34 0 3 1;
#X connect 35 0 15 0;
#X connect 35 0 19 0;
#X connect 39 0 16 0;
#X connect 39 0 38 0;
#X connect 40 0 16 0;
#X connect 40 0 38 0;
#X connect 41 0 1 0;
#X connect 42 0 1 1;
#X connect 44 0 2 1;
#X connect 45 0 2 0;
#X connect 45 0 20 0;
#X connect 47 0 4 0;
#X connect 48 0 7 0;
#X connect 49 0 16 0;
#X connect 49 0 38 0;
#X connect 50 0 16 0;
#X connect 50 0 38 0;
#X connect 51 0 16 0;
#X connect 51 0 38 0;
#X restore 470 359 pd Modes;
#X obj 564 301 r \$0-NoChangeGamme-snd;
#X obj 115 32 sel 5;
#X obj 115 11 r \$0-GammeType;
#X msg 115 53 0, f 1;
#X msg 142 53 1, f 1;
#X obj 41 58 spigot 1;
#X obj 207 179 t f f b f f;
#X obj 203 355 print;
#X text 73 374 max 4095;
#X obj 271 673 change;
#X obj 319 438 t b f f;
#X obj 271 694 mod 4096;
#X obj 319 416 change;
#X obj 393 345 t b;
#X msg 393 389 set 12;
#X obj 393 367 del 100;
#X obj 547 678 change;
#X obj 547 699 mod 4096;
#X obj 471 338 spigot 1;
#X connect 0 0 19 0;
#X connect 3 0 63 0;
#X connect 4 0 60 0;
#X connect 5 0 70 0;
#X connect 6 0 60 0;
#X connect 7 0 4 0;
#X connect 7 1 6 0;
#X connect 7 2 8 0;
#X connect 7 3 9 0;
#X connect 7 4 10 0;
#X connect 7 5 11 0;
#X connect 7 6 12 0;
#X connect 7 7 13 0;
#X connect 7 8 14 0;
#X connect 7 9 15 0;
#X connect 7 10 16 0;
#X connect 7 11 17 0;
#X connect 8 0 60 0;
#X connect 9 0 60 0;
#X connect 10 0 60 0;
#X connect 11 0 60 0;
#X connect 12 0 60 0;
#X connect 13 0 60 0;
#X connect 14 0 60 0;
#X connect 15 0 60 0;
#X connect 16 0 60 0;
#X connect 17 0 60 0;
#X connect 18 0 34 0;
#X connect 18 0 72 0;
#X connect 19 0 59 0;
#X connect 20 0 21 1;
#X connect 21 0 3 0;
#X connect 22 0 5 0;
#X connect 23 0 22 1;
#X connect 24 0 26 0;
#X connect 24 1 26 1;
#X connect 25 1 26 0;
#X connect 25 2 24 0;
#X connect 26 0 28 0;
#X connect 27 0 38 0;
#X connect 27 1 30 0;
#X connect 28 0 29 0;
#X connect 28 1 27 0;
#X connect 29 0 31 0;
#X connect 30 0 31 0;
#X connect 31 0 36 0;
#X connect 32 0 43 0;
#X connect 32 1 44 0;
#X connect 34 0 47 0;
#X connect 36 1 37 0;
#X connect 37 0 41 0;
#X connect 37 0 42 0;
#X connect 37 0 66 0;
#X connect 37 0 67 0;
#X connect 38 0 39 0;
#X connect 38 1 37 0;
#X connect 39 0 37 1;
#X connect 40 0 3 1;
#X connect 43 0 40 0;
#X connect 43 0 5 1;
#X connect 44 0 21 0;
#X connect 44 1 22 0;
#X connect 45 0 5 0;
#X connect 46 0 5 1;
#X connect 47 1 45 0;
#X connect 47 2 46 0;
#X connect 47 3 45 1;
#X connect 49 0 40 1;
#X connect 50 0 3 0;
#X connect 51 0 40 0;
#X connect 52 1 50 0;
#X connect 52 2 51 0;
#X connect 52 3 50 1;
#X connect 53 0 52 0;
#X connect 54 0 72 1;
#X connect 55 0 57 0;
#X connect 55 1 58 0;
#X connect 56 0 55 0;
#X connect 57 0 59 1;
#X connect 58 0 59 1;
#X connect 59 0 7 0;
#X connect 60 0 33 0;
#X connect 60 1 25 0;
#X connect 60 3 51 1;
#X connect 60 4 46 1;
#X connect 63 0 65 0;
#X connect 64 0 32 0;
#X connect 64 2 43 1;
#X connect 65 0 1 0;
#X connect 66 0 64 0;
#X connect 67 0 69 0;
#X connect 68 0 66 0;
#X connect 69 0 68 0;
#X connect 70 0 71 0;
#X connect 71 0 2 0;
#X connect 72 0 53 0;
#X restore 58 412 pd GammeType;
#X obj 51 341 cnv 15 100 43 empty empty Gammes 2 6 0 8 -4032 -260097
0;
#X obj 50 352 hradio 17 1 0 6 \$0-GammeType \$0-GammeType empty 0 -8
0 10 -262144 -1 -1 0;
#X text 57 369 M;
#X text 74 369 m;
#X text 91 369 7;
#X text 142 369 0;
#X obj 50 187 cnv 15 100 20 empty empty empty 20 12 0 14 -204800 -66577
0;
#X symbolatom 50 189 0 0 0 0 - #0-Chord-Type-rcv #0-Chord-Type-snd
;
#X floatatom 107 190 2 0 0 0 - #0-nChord-Type-rcv #0-nChord-Type-snd
;
#X obj 121 192 bng 15 250 50 0 \$0--Chord-snd \$0--Chord-rcv - 4 -4
0 10 -4032 -1 -1;
#X obj 136 192 bng 15 250 50 0 \$0-+Chord-snd \$0-+Chord-rcv + 4 -4
0 10 -4034 -1 -1;
#X obj 52 98 cnv 10 100 40 empty empty empty 0 12 0 14 -204800 -66577
0;
#X symbolatom 50 124 16 0 0 0 - #0-Mode-Type-rcv #0-Mode-Type-snd;
#X floatatom 107 105 2 0 0 0 - #0-nMode-Type-rcv #0-nMode-Type-snd
;
#X obj 121 107 bng 15 250 50 0 \$0--Mode-snd \$0--Mode-rcv - 4 -4 0
10 -4032 -1 -1;
#X obj 136 107 bng 15 250 50 0 \$0-+Mode-snd \$0-+Mode-rcv + 4 -4 0
10 -4034 -1 -1;
#X obj 50 253 cnv 15 100 20 empty empty empty 20 12 0 14 -204800 -66577
0;
#X symbolatom 50 255 0 0 0 0 - #0-Note-Type-rcv #0-Note-Type-snd;
#X text 102 369 M7;
#X obj 79 104 tgl 15 0 \$0-NoTransGamme-snd \$0-NoTransGamme-rcv TG
15 8 0 10 -262144 -1 -1 0 1;
#X text 119 369 m7;
#X obj 50 104 tgl 15 1 \$0-NoChangeGamme-snd \$0-NoChangeGamme-rcv
CG 15 8 0 10 -262144 -1 -1 1 1;
#X connect 6 0 7 1;
#X connect 7 0 16 0;
#X connect 8 0 16 1;
#X connect 9 0 16 2;
#X connect 10 0 7 0;
#X connect 12 0 14 0;
#X connect 13 0 14 1;
#X connect 14 0 72 0;
#X connect 15 0 16 3;
#X connect 16 0 11 0;
#X connect 19 0 20 0;
#X connect 20 0 27 0;
#X connect 20 0 29 0;
#X connect 21 0 20 0;
#X connect 21 1 20 1;
#X connect 22 0 23 0;
#X connect 23 0 21 0;
#X connect 23 0 31 0;
#X connect 24 0 25 0;
#X connect 25 0 26 0;
#X connect 26 0 23 1;
#X connect 27 0 28 0;
#X connect 27 0 32 0;
#X connect 30 0 33 0;
#X connect 33 0 43 0;
#X connect 34 0 33 1;
#X connect 35 0 40 0;
#X connect 36 0 35 1;
#X connect 38 0 41 0;
#X connect 38 1 42 0;
#X connect 38 1 46 0;
#X connect 40 0 38 0;
#X connect 40 0 37 0;
#X connect 40 0 85 1;
#X connect 41 0 39 0;
#X connect 42 0 39 0;
#X connect 43 0 44 0;
#X connect 43 1 35 0;
#X connect 44 0 40 0;
#X connect 45 0 82 0;
#X connect 46 0 49 0;
#X connect 47 0 83 0;
#X connect 48 0 84 0;
#X connect 49 0 50 0;
#X connect 51 0 52 0;
#X connect 52 0 54 0;
#X connect 53 0 54 1;
#X connect 54 0 58 0;
#X connect 55 0 58 1;
#X connect 56 0 58 2;
#X connect 57 0 58 3;
#X connect 58 0 59 0;
#X connect 60 0 61 0;
#X connect 61 1 65 0;
#X connect 62 0 63 0;
#X connect 63 0 64 0;
#X connect 64 0 61 1;
#X connect 65 0 71 0;
#X connect 70 0 66 0;
#X connect 70 1 67 0;
#X connect 70 2 68 0;
#X connect 70 3 69 0;
#X connect 73 0 70 0;
#X connect 74 0 41 0;
#X connect 75 0 78 0;
#X connect 76 0 77 1;
#X connect 77 0 80 0;
#X connect 78 0 46 0;
#X connect 78 0 81 0;
#X connect 78 1 77 0;
#X connect 80 0 79 0;
#X connect 81 0 40 0;
#X connect 82 0 85 0;
#X connect 82 1 46 1;
#X connect 83 0 85 0;
#X connect 83 1 49 1;
#X connect 84 0 85 0;
#X connect 84 1 49 2;
#X connect 85 0 46 0;
#X coords 0 -1 1 1 102 335 1 50 50;
