#N canvas 1616 986 1083 596 10;
#X obj 51 67 cnv 15 100 290 empty \$0-canvas empty 20 12 0 14 -166441
-166441 0;
#X obj 55 291 GAMMEKB \$0B 1;
#X obj 55 338 bng 15 250 50 0 \$0-copy \$0-copy copy 17 7 0 10 -4034
-1 -1;
#X obj 103 338 bng 15 250 50 0 \$0-paste \$0-paste paste 17 7 0 10
-258113 -1 -1;
#X obj 56 81 nbx 3 14 0 32 0 0 \$0-steps \$0-steps steps 0 -8 0 10
-262144 -1 -1 16 256;
#X obj 97 81 bng 15 250 50 0 \$0-bang \$0-bang empty 17 7 0 10 -262144
-1 -1;
#X obj 229 75 r \$0G;
#X obj 211 100 f;
#X obj 273 75 r \$0C;
#X obj 316 75 r \$0B;
#X obj 211 47 r \$0-copy;
#X obj 211 144 s \$1-clipboard;
#X obj 211 171 r \$0-paste;
#X obj 229 192 r \$1-clipboard;
#X obj 211 217 l;
#X obj 362 75 r \$0-steps;
#X obj 211 122 pack f f f f;
#X obj 55 159 GAMMEKB \$0G;
#X obj 55 225 GAMMEKB \$0C;
#X obj 386 123 r \$0-steps;
#X obj 386 145 +;
#X obj 416 146 t b f;
#X obj 463 11 r \$1-stepscumul;
#X obj 463 97 route -1;
#X obj 516 31 loadbang;
#X obj 516 53 f \$2;
#X obj 516 75 - 1;
#X obj 386 168 list prepend \$2;
#X obj 386 190 s \$1-stepscumul;
#X floatatom 343 193 5 0 0 0 - - -;
#X obj 211 293 r \$1-step;
#X obj 514 157 s \$0-startstep;
#X obj 514 229 s \$0-stopstep;
#X obj 211 315 -;
#X obj 241 315 r \$0-startstep;
#X obj 257 363 <;
#X obj 289 362 r \$0-steps;
#X obj 219 391 tgl 15 0 empty empty empty 17 7 0 10 -262144 -1 -1 0
1;
#X obj 257 412 sel 0 1;
#X obj 257 470 s \$0-canvas;
#X obj 257 390 change -1;
#X msg 257 434 color 1 1 1;
#X msg 353 432 color 15 15 15;
#X obj 211 337 moses 0;
#X msg 211 359 0;
#X obj 501 330 r \$0G;
#X obj 488 423 f;
#X obj 545 330 r \$0C;
#X obj 588 330 r \$0B;
#X obj 488 445 pack f f f f;
#X obj 488 467 s \$1-stepdata;
#X obj 639 35 r \$1-getdata;
#X obj 639 57 sel \$2;
#X obj 657 86 r \$0G;
#X obj 639 111 f;
#X obj 701 86 r \$0C;
#X obj 744 86 r \$0B;
#X obj 790 86 r \$0-steps;
#X obj 639 133 pack f f f f;
#X obj 639 155 s \$1-getdata-rcv;
#X obj 639 186 r \$1-setdata;
#X obj 639 209 list split;
#X obj 774 137 loadbang;
#X obj 774 159 f \$2;
#X obj 774 181 * 4;
#X obj 672 232 list split 4;
#X obj 578 303 s \$0G;
#X obj 622 303 s \$0C;
#X obj 665 303 s \$0B;
#X obj 710 303 s \$0-steps;
#X obj 578 279 unpack f f f f;
#X obj 672 255 s \$0-setdata;
#X obj 211 238 s \$0-setdata;
#X obj 578 258 r \$0-setdata;
#X obj 174 410 loadbang;
#X obj 381 247 r \$0-bang;
#X obj 431 266 r \$0-startstep;
#X obj 413 291 f;
#X obj 381 269 t b b;
#X obj 413 335 s \$1-step;
#X msg 413 313 -1 \, \$1;
#X msg 358 336 1;
#X obj 501 351 t b f;
#X obj 545 352 t b f;
#X obj 588 352 t b f;
#X obj 488 391 spigot;
#N canvas 179 779 436 829 GammeType 1;
#X obj 26 18 r \$0B;
#X obj 62 746 s \$0G;
#X obj 285 756 s \$0C;
#N canvas 63 453 450 300 Transpose/GAMME 0;
#X obj 101 27 inlet;
#X obj 113 211 outlet;
#X obj 107 114 f;
#X obj 107 161 transpose 0;
#X obj 153 64 t b f;
#X obj 279 24 loadbang;
#X obj 279 48 del 200;
#X msg 279 71 2741;
#X obj 165 20 inlet;
#X connect 0 0 2 0;
#X connect 2 0 3 0;
#X connect 3 0 1 0;
#X connect 4 0 2 0;
#X connect 4 1 3 1;
#X connect 5 0 6 0;
#X connect 6 0 7 0;
#X connect 7 0 2 0;
#X connect 8 0 4 0;
#X restore 62 684 pd Transpose/GAMME;
#X msg 26 108 0;
#N canvas 63 453 450 300 Transpose/Chord 0;
#X obj 101 27 inlet;
#X obj 113 211 outlet;
#X obj 107 114 f;
#X obj 107 161 transpose 0;
#X obj 153 64 t b f;
#X obj 279 24 loadbang;
#X obj 279 48 del 200;
#X obj 165 20 inlet;
#X msg 279 71 154;
#X connect 0 0 2 0;
#X connect 2 0 3 0;
#X connect 3 0 1 0;
#X connect 4 0 2 0;
#X connect 4 1 3 1;
#X connect 5 0 6 0;
#X connect 6 0 8 0;
#X connect 7 0 4 0;
#X connect 8 0 2 0;
#X restore 285 693 pd Transpose/Chord;
#X msg 59 108 1;
#X obj 26 85 sel 1 2 4 8 16 32 64 128 256 512 1024 2048, f 67;
#X msg 92 108 2;
#X msg 125 108 3;
#X msg 159 108 4;
#X msg 192 108 5;
#X msg 225 108 6;
#X msg 258 108 7;
#X msg 292 108 8;
#X msg 325 108 9;
#X msg 358 108 10;
#X msg 391 108 11;
#X obj 180 254 r \$0-GammeType;
#X obj 26 39 f;
#X obj 127 595 r \$0G;
#X obj 112 617 f;
#X obj 305 600 f;
#X obj 320 578 r \$0C;
#X obj 73 222 t b f;
#X obj 46 252 -;
#X obj 103 298 moses 0.1;
#X obj 46 274 moses -0.1;
#X obj 46 296 * -1;
#X obj 154 319 * -1;
#X obj 61 350 f;
#X obj 115 529 t b b;
#N canvas 466 489 450 300 NotesSymbol 0;
#X obj 97 19 inlet;
#X msg 41 84 do;
#X msg 74 84 do#;
#X msg 107 84 re;
#X msg 140 84 re#;
#X msg 174 84 mi;
#X msg 207 83 fa;
#X msg 240 84 fa#;
#X msg 273 84 sol;
#X msg 307 84 sol#;
#X msg 340 84 la;
#X msg 406 84 si;
#X obj 124 192 s \$0-Note-Type-rcv;
#X obj 41 61 sel 0 1 2 3 4 5 6 7 8 9 10 11, f 67;
#X obj 156 155 symbol;
#X msg 373 84 sib;
#X connect 0 0 13 0;
#X connect 1 0 14 0;
#X connect 2 0 14 0;
#X connect 3 0 14 0;
#X connect 4 0 14 0;
#X connect 5 0 14 0;
#X connect 6 0 14 0;
#X connect 7 0 14 0;
#X connect 8 0 14 0;
#X connect 9 0 14 0;
#X connect 10 0 14 0;
#X connect 11 0 14 0;
#X connect 13 0 1 0;
#X connect 13 1 2 0;
#X connect 13 2 3 0;
#X connect 13 3 4 0;
#X connect 13 4 5 0;
#X connect 13 5 6 0;
#X connect 13 6 7 0;
#X connect 13 7 8 0;
#X connect 13 8 9 0;
#X connect 13 9 10 0;
#X connect 13 10 15 0;
#X connect 13 11 11 0;
#X connect 14 0 12 0;
#X connect 15 0 14 0;
#X restore 273 238 pd NotesSymbol;
#N canvas 676 547 490 974 Chords 1;
#X obj 231 245 outlet;
#X obj 53 523 s \$0-Chord-Type-rcv;
#X obj 53 666 s \$0-nChord-Type-rcv;
#X obj 215 19 r \$0--Chord-snd;
#X obj 329 10 r \$0-+Chord-snd;
#X obj 234 114 s -Chord;
#X obj 345 116 s +Chord;
#X obj 53 455 r Chord-Type;
#X obj 53 562 r nChord-Type;
#X obj 231 167 r Chord-C;
#X obj 53 499 spigot 0;
#X obj 53 608 spigot 0;
#X obj 231 212 spigot 0;
#X obj 98 478 r \$0-LocalChord;
#X obj 98 585 r \$0-LocalChord;
#X obj 276 190 r \$0-LocalChord;
#X obj 215 43 t b b b;
#X obj 242 91 s \$0-LocalChord;
#X msg 254 64 1, f 1;
#X msg 215 64 0, f 1;
#X obj 329 32 t b b b;
#X msg 367 55 1, f 1;
#X msg 329 53 0, f 1;
#X obj 187 107 print;
#X obj 51 22 inlet;
#X obj 77 101 s \$0-LocalChord;
#X msg 90 68 1, f 1;
#X msg 51 68 0, f 1;
#X obj 51 47 t b f b;
#X obj 362 82 s \$0-LocalChord;
#X obj 63 380 s Chord-TypeLoad;
#X obj 227 393 s nChord-TypeLoad;
#X floatatom 304 316 5 0 0 0 - - -;
#X msg 150 308 set \$1;
#X obj 213 272 r \$0-nChord-Type-snd;
#X obj 240 357 s \$0-LocalChord;
#X msg 253 324 1, f 1;
#X msg 213 324 0, f 1;
#X obj 214 303 t b f b;
#X floatatom 40 587 5 0 0 0 - - -;
#X floatatom 32 636 5 0 0 0 - - -;
#X msg 23 256 28;
#X msg 21 201 11;
#X text 46 199 majeur;
#X text 51 256 7;
#X msg 23 230 14;
#X text 49 227 mineur;
#X msg 35 309 32;
#X text 64 306 mineur7;
#X obj 104 142 sel 0 1 2 3 4 5;
#X text 54 276 majeur7;
#X msg 25 279 24;
#X obj 6 344 s nChord-TypeLoad;
#X obj 267 469 tabread enumChord;
#X msg 294 543 set \$1;
#X obj 267 422 r \$0C;
#X obj 294 572 s \$0-nChord-Type-rcv;
#X symbolatom 41 807 10 0 0 0 - - -;
#X obj 304 744 s \$0-Chord-Type-rcv;
#X obj 302 596 sel 0;
#X obj 267 446 change;
#X floatatom 228 507 5 0 0 0 - - -;
#X obj 294 514 mod 76;
#X obj 267 492 t f f f, f 14;
#X obj 307 642 s \$0-Note-Chord-Type-rcv;
#X obj 302 617 symbol ???;
#N canvas 535 852 450 300 NotesChordSymbol 0;
#X obj 37 7 inlet;
#X msg 31 149 do;
#X msg 64 149 do#;
#X msg 97 149 re;
#X msg 130 149 re#;
#X msg 164 149 mi;
#X msg 197 148 fa;
#X msg 230 149 fa#;
#X msg 263 149 sol;
#X msg 297 149 sol#;
#X msg 330 149 la;
#X msg 396 149 si;
#X obj 31 126 sel 0 1 2 3 4 5 6 7 8 9 10 11, f 67;
#X obj 146 220 symbol;
#X msg 363 149 sib;
#X obj 34 30 t b f;
#X obj 26 96 f;
#X floatatom 122 87 5 0 0 0 - - -;
#X obj 114 257 s \$0-Note-Chord-Type-rcv;
#X obj 64 60 div 76;
#X obj 66 94 - 0;
#X connect 0 0 15 0;
#X connect 1 0 13 0;
#X connect 2 0 13 0;
#X connect 3 0 13 0;
#X connect 4 0 13 0;
#X connect 5 0 13 0;
#X connect 6 0 13 0;
#X connect 7 0 13 0;
#X connect 8 0 13 0;
#X connect 9 0 13 0;
#X connect 10 0 13 0;
#X connect 11 0 13 0;
#X connect 12 0 1 0;
#X connect 12 1 2 0;
#X connect 12 2 3 0;
#X connect 12 3 4 0;
#X connect 12 4 5 0;
#X connect 12 5 6 0;
#X connect 12 6 7 0;
#X connect 12 7 8 0;
#X connect 12 8 9 0;
#X connect 12 9 10 0;
#X connect 12 10 14 0;
#X connect 12 11 11 0;
#X connect 13 0 18 0;
#X connect 14 0 13 0;
#X connect 15 0 16 0;
#X connect 15 1 19 0;
#X connect 16 0 12 0;
#X connect 19 0 17 0;
#X connect 19 0 20 0;
#X connect 20 0 16 1;
#X restore 351 544 pd NotesChordSymbol;
#X obj 370 517 - 1;
#X obj 157 742 list trim;
#X obj 159 768 symbol;
#X symbolatom 180 821 10 0 0 0 - - -;
#X msg 189 688 1;
#X obj 201 624 loadbang;
#X obj 202 649 t b b;
#X obj 158 718 text get enumChordSym;
#X msg 215 695 symbol enumChordSym;
#X connect 3 0 16 0;
#X connect 4 0 20 0;
#X connect 7 0 10 0;
#X connect 8 0 11 0;
#X connect 8 0 39 0;
#X connect 9 0 12 0;
#X connect 10 0 1 0;
#X connect 11 0 2 0;
#X connect 11 0 40 0;
#X connect 12 0 0 0;
#X connect 13 0 10 1;
#X connect 14 0 11 1;
#X connect 15 0 12 1;
#X connect 16 0 19 0;
#X connect 16 1 5 0;
#X connect 16 2 18 0;
#X connect 18 0 17 0;
#X connect 19 0 17 0;
#X connect 20 0 22 0;
#X connect 20 1 6 0;
#X connect 20 2 21 0;
#X connect 21 0 29 0;
#X connect 22 0 29 0;
#X connect 24 0 28 0;
#X connect 26 0 25 0;
#X connect 27 0 25 0;
#X connect 28 0 27 0;
#X connect 28 1 49 0;
#X connect 28 2 26 0;
#X connect 33 0 2 0;
#X connect 34 0 32 0;
#X connect 34 0 38 0;
#X connect 36 0 35 0;
#X connect 37 0 35 0;
#X connect 38 0 37 0;
#X connect 38 1 31 0;
#X connect 38 2 36 0;
#X connect 41 0 52 0;
#X connect 41 0 33 0;
#X connect 42 0 52 0;
#X connect 42 0 33 0;
#X connect 45 0 52 0;
#X connect 45 0 33 0;
#X connect 47 0 52 0;
#X connect 47 0 33 0;
#X connect 49 0 42 0;
#X connect 49 1 45 0;
#X connect 49 2 41 0;
#X connect 49 3 51 0;
#X connect 49 4 47 0;
#X connect 51 0 52 0;
#X connect 51 0 33 0;
#X connect 53 0 61 0;
#X connect 53 0 63 0;
#X connect 54 0 56 0;
#X connect 55 0 60 0;
#X connect 59 0 65 0;
#X connect 60 0 53 0;
#X connect 62 0 54 0;
#X connect 62 0 74 0;
#X connect 63 0 59 0;
#X connect 63 1 62 0;
#X connect 63 2 67 0;
#X connect 63 2 66 0;
#X connect 65 0 58 0;
#X connect 65 0 64 0;
#X connect 68 0 69 0;
#X connect 69 0 70 0;
#X connect 69 0 58 0;
#X connect 71 0 74 1;
#X connect 72 0 73 0;
#X connect 73 0 71 0;
#X connect 73 1 75 0;
#X connect 74 0 68 0;
#X connect 75 0 74 3;
#X restore 288 317 pd Chords;
#X obj 61 373 t b f;
#X obj 88 396 f;
#X obj 103 331 t b b;
#X msg 103 354 0, f 1;
#X obj 167 659 spigot 0;
#X obj 167 607 f;
#X obj 142 553 t b b;
#X obj 288 409 f;
#X obj 318 409 f;
#X text 260 25 0=M 1=m 2=7 3=M7 4=m7 5=0;
#X obj 212 632 r \$0-NoTransGamme-snd;
#X obj 185 409 f;
#X obj 215 409 f;
#N canvas 44 588 607 991 Modes 1;
#X obj 231 245 outlet;
#X obj 53 499 spigot 0;
#X obj 53 608 spigot 0;
#X obj 231 212 spigot 0;
#X obj 215 43 t b b b;
#X msg 254 64 1, f 1;
#X msg 215 64 0, f 1;
#X obj 329 32 t b b b;
#X msg 367 55 1, f 1;
#X msg 329 53 0, f 1;
#X obj 187 107 print;
#X obj 51 22 inlet;
#X msg 90 68 1, f 1;
#X msg 51 68 0, f 1;
#X obj 51 47 t b f b;
#X floatatom 340 319 5 0 0 0 - - -;
#X msg 150 308 set \$1;
#X msg 253 324 1, f 1;
#X msg 213 324 0, f 1;
#X obj 214 303 t b f b;
#X floatatom 40 587 5 0 0 0 - - -;
#X floatatom 32 636 5 0 0 0 - - -;
#X text 46 199 majeur;
#X text 51 256 7;
#X text 49 227 mineur;
#X text 64 306 mineur7;
#X obj 104 142 sel 0 1 2 3 4 5;
#X text 54 276 majeur7;
#X obj 77 101 s \$0-LocalMode;
#X obj 242 91 s \$0-LocalMode;
#X obj 362 82 s \$0-LocalMode;
#X obj 234 114 s -Mode;
#X obj 345 116 s +Mode;
#X obj 231 167 r Mode-C;
#X obj 276 190 r \$0-LocalMode;
#X obj 213 272 r \$0-nMode-Type-snd;
#X obj 240 357 s \$0-LocalMode;
#X obj 213 384 s nMode-TypeLoad;
#X obj 6 344 s nMode-TypeLoad;
#X msg 21 200 0;
#X msg 25 279 7;
#X obj 53 455 r Mode-Type;
#X obj 98 478 r \$0-LocalMode;
#X obj 53 523 s \$0-Mode-Type-rcv;
#X obj 98 585 r \$0-LocalMode;
#X obj 53 562 r nMode-Type;
#X obj 53 666 s \$0-nMode-Type-rcv;
#X obj 215 19 r \$0--Mode-snd;
#X obj 329 10 r \$0-+Mode-snd;
#X msg 23 256 5;
#X msg 23 230 1;
#X msg 35 309 8;
#X msg 296 599 set \$1;
#X obj 10 806 bng 15 250 50 0 empty empty empty 0 -6 0 8 -262144 -1
-1;
#X obj 304 673 symbol ??????;
#X obj 304 652 sel 0;
#X obj 268 432 change;
#X floatatom 205 498 5 0 0 0 - - -;
#X obj 313 755 s \$0-Mode-Type-rcv;
#X obj 296 628 s \$0-nMode-Type-rcv;
#X obj 269 456 tabread enumMode;
#X obj 268 408 r \$0G;
#X obj 267 512 t f f f, f 12;
#X symbolatom 1 478 10 0 0 0 - - -;
#X obj 390 525 bng 15 250 50 0 empty empty empty 17 7 0 10 -262144
-1 -1;
#N canvas 678 1221 450 300 NotesModeSymbol 0;
#X obj 37 7 inlet;
#X msg 31 149 do;
#X msg 64 149 do#;
#X msg 97 149 re;
#X msg 130 149 re#;
#X msg 164 149 mi;
#X msg 197 148 fa;
#X msg 230 149 fa#;
#X msg 263 149 sol;
#X msg 297 149 sol#;
#X msg 330 149 la;
#X msg 396 149 si;
#X obj 31 126 sel 0 1 2 3 4 5 6 7 8 9 10 11, f 67;
#X obj 146 220 symbol;
#X msg 363 149 sib;
#X obj 34 30 t b f;
#X obj 27 104 f;
#X obj 114 257 s \$0-Note-Mode-Type-rcv;
#X floatatom 133 83 5 0 0 0 - - -;
#X obj 64 60 div 25;
#X obj 49 84 - 0;
#X connect 0 0 15 0;
#X connect 1 0 13 0;
#X connect 2 0 13 0;
#X connect 3 0 13 0;
#X connect 4 0 13 0;
#X connect 5 0 13 0;
#X connect 6 0 13 0;
#X connect 7 0 13 0;
#X connect 8 0 13 0;
#X connect 9 0 13 0;
#X connect 10 0 13 0;
#X connect 11 0 13 0;
#X connect 12 0 1 0;
#X connect 12 1 2 0;
#X connect 12 2 3 0;
#X connect 12 3 4 0;
#X connect 12 4 5 0;
#X connect 12 5 6 0;
#X connect 12 6 7 0;
#X connect 12 7 8 0;
#X connect 12 8 9 0;
#X connect 12 9 10 0;
#X connect 12 10 14 0;
#X connect 12 11 11 0;
#X connect 13 0 17 0;
#X connect 14 0 13 0;
#X connect 15 0 16 0;
#X connect 15 1 19 0;
#X connect 16 0 12 0;
#X connect 16 0 18 0;
#X connect 19 0 20 0;
#X connect 20 0 16 1;
#X restore 351 603 pd NotesModeSymbol;
#X floatatom 387 551 5 0 0 0 - - -;
#X obj 420 521 - 1;
#X obj 296 570 mod 25;
#X obj 301 538 i;
#X obj 338 541 i;
#X obj 351 579 spigot 0;
#X obj 463 525 r \$0-NoTransGamme-snd;
#X obj 335 483 r \$0-NoChangeGamme-snd;
#X floatatom 361 507 5 0 0 0 - - -;
#X floatatom 225 546 5 0 0 0 - - -;
#X obj 267 485 spigot 1;
#X obj 158 718 text get enumModeSym;
#X obj 157 742 list trim;
#X obj 159 768 symbol;
#X msg 215 695 symbol enumModeSym;
#X symbolatom 180 821 10 0 0 0 - - -;
#X msg 189 688 1;
#X obj 201 624 loadbang;
#X obj 202 649 t b b;
#X connect 1 0 43 0;
#X connect 2 0 21 0;
#X connect 2 0 46 0;
#X connect 3 0 0 0;
#X connect 4 0 6 0;
#X connect 4 1 31 0;
#X connect 4 2 5 0;
#X connect 5 0 29 0;
#X connect 6 0 29 0;
#X connect 7 0 9 0;
#X connect 7 1 32 0;
#X connect 7 2 8 0;
#X connect 8 0 30 0;
#X connect 9 0 30 0;
#X connect 11 0 14 0;
#X connect 12 0 28 0;
#X connect 13 0 28 0;
#X connect 14 0 13 0;
#X connect 14 1 26 0;
#X connect 14 2 12 0;
#X connect 16 0 46 0;
#X connect 17 0 36 0;
#X connect 18 0 36 0;
#X connect 19 0 18 0;
#X connect 19 1 37 0;
#X connect 19 2 17 0;
#X connect 26 0 39 0;
#X connect 26 1 50 0;
#X connect 26 2 49 0;
#X connect 26 3 40 0;
#X connect 26 4 51 0;
#X connect 33 0 3 0;
#X connect 34 0 3 1;
#X connect 35 0 15 0;
#X connect 35 0 19 0;
#X connect 39 0 16 0;
#X connect 39 0 38 0;
#X connect 40 0 16 0;
#X connect 40 0 38 0;
#X connect 41 0 1 0;
#X connect 41 0 63 0;
#X connect 42 0 1 1;
#X connect 44 0 2 1;
#X connect 45 0 2 0;
#X connect 45 0 20 0;
#X connect 47 0 4 0;
#X connect 48 0 7 0;
#X connect 49 0 16 0;
#X connect 49 0 38 0;
#X connect 50 0 16 0;
#X connect 50 0 38 0;
#X connect 51 0 16 0;
#X connect 51 0 38 0;
#X connect 52 0 59 0;
#X connect 54 0 58 0;
#X connect 55 0 54 0;
#X connect 56 0 60 0;
#X connect 60 0 57 0;
#X connect 60 0 76 0;
#X connect 61 0 56 0;
#X connect 62 0 55 0;
#X connect 62 1 69 0;
#X connect 62 2 64 0;
#X connect 62 2 66 0;
#X connect 62 2 70 0;
#X connect 68 0 52 0;
#X connect 68 0 77 0;
#X connect 69 0 68 0;
#X connect 70 0 71 0;
#X connect 71 0 65 0;
#X connect 72 0 71 1;
#X connect 73 0 74 0;
#X connect 76 0 62 0;
#X connect 76 0 75 0;
#X connect 77 0 78 0;
#X connect 78 0 79 0;
#X connect 79 0 58 0;
#X connect 79 0 81 0;
#X connect 80 0 77 3;
#X connect 82 0 77 1;
#X connect 83 0 84 0;
#X connect 84 0 82 0;
#X connect 84 1 80 0;
#X restore 185 344 pd Modes;
#X obj 279 286 r \$0-NoChangeGamme-snd;
#X obj 100 36 sel 5;
#X obj 100 15 r \$0-GammeType;
#X msg 100 57 0, f 1;
#X msg 127 57 1, f 1;
#X obj 26 62 spigot 1;
#X text 246 53 max 4095;
#X obj 62 704 change;
#X obj 115 508 t b f f;
#X obj 62 725 mod 4096;
#X obj 115 486 change;
#X msg 67 462 set 12;
#X obj 285 714 change;
#X obj 285 735 mod 4096;
#X obj 186 323 spigot 1;
#X obj 175 167 t f;
#X obj 46 201 t f f;
#X obj 67 440 del 1;
#X obj 88 417 t b f;
#X obj 185 366 t b b f;
#X obj 288 339 t b b f;
#X floatatom 352 623 5 0 0 0 - - -;
#X floatatom 220 479 5 0 0 0 - - -;
#X obj 146 618 bng 15 250 50 0 empty empty empty 17 7 0 10 -262144
-1 -1;
#X floatatom 24 781 5 0 0 0 - - -;
#X obj 190 709 bng 15 250 50 0 empty empty empty 17 7 0 10 -262144
-1 -1;
#X obj 97 656 spigot 0;
#X connect 0 0 19 0;
#X connect 3 0 55 0;
#X connect 4 0 63 0;
#X connect 5 0 60 0;
#X connect 6 0 63 0;
#X connect 7 0 4 0;
#X connect 7 1 6 0;
#X connect 7 2 8 0;
#X connect 7 3 9 0;
#X connect 7 4 10 0;
#X connect 7 5 11 0;
#X connect 7 6 12 0;
#X connect 7 7 13 0;
#X connect 7 8 14 0;
#X connect 7 9 15 0;
#X connect 7 10 16 0;
#X connect 7 11 17 0;
#X connect 8 0 63 0;
#X connect 9 0 63 0;
#X connect 10 0 63 0;
#X connect 11 0 63 0;
#X connect 12 0 63 0;
#X connect 13 0 63 0;
#X connect 14 0 63 0;
#X connect 15 0 63 0;
#X connect 16 0 63 0;
#X connect 17 0 63 0;
#X connect 18 0 33 0;
#X connect 18 0 62 0;
#X connect 19 0 53 0;
#X connect 20 0 21 1;
#X connect 21 0 71 0;
#X connect 21 0 74 0;
#X connect 22 0 5 0;
#X connect 23 0 22 1;
#X connect 23 0 69 0;
#X connect 24 0 25 0;
#X connect 24 1 25 1;
#X connect 25 0 27 0;
#X connect 26 0 36 0;
#X connect 26 1 29 0;
#X connect 27 0 28 0;
#X connect 27 1 26 0;
#X connect 28 0 30 0;
#X connect 29 0 30 0;
#X connect 30 0 34 0;
#X connect 31 0 39 0;
#X connect 31 1 40 0;
#X connect 33 0 68 0;
#X connect 34 1 35 0;
#X connect 35 0 66 0;
#X connect 36 0 37 0;
#X connect 36 1 35 0;
#X connect 37 0 35 1;
#X connect 38 0 3 1;
#X connect 38 0 73 0;
#X connect 39 0 38 0;
#X connect 39 0 5 1;
#X connect 40 0 21 0;
#X connect 40 1 22 0;
#X connect 41 0 5 0;
#X connect 42 0 5 1;
#X connect 44 0 38 1;
#X connect 44 0 74 1;
#X connect 45 0 3 0;
#X connect 46 0 38 0;
#X connect 46 0 70 0;
#X connect 47 0 67 0;
#X connect 48 0 62 1;
#X connect 49 0 51 0;
#X connect 49 1 52 0;
#X connect 50 0 49 0;
#X connect 51 0 53 1;
#X connect 52 0 53 1;
#X connect 53 0 7 0;
#X connect 55 0 57 0;
#X connect 55 0 72 0;
#X connect 56 0 31 0;
#X connect 56 2 39 1;
#X connect 57 0 1 0;
#X connect 58 0 56 0;
#X connect 59 0 58 0;
#X connect 60 0 61 0;
#X connect 61 0 2 0;
#X connect 62 0 47 0;
#X connect 63 0 46 1;
#X connect 63 0 42 1;
#X connect 63 0 32 0;
#X connect 63 0 64 0;
#X connect 64 0 25 0;
#X connect 64 1 24 0;
#X connect 65 0 59 0;
#X connect 66 0 65 0;
#X connect 66 1 58 0;
#X connect 67 0 45 0;
#X connect 67 1 46 0;
#X connect 67 2 45 1;
#X connect 68 0 41 0;
#X connect 68 1 42 0;
#X connect 68 2 41 1;
#X connect 74 0 3 0;
#X restore 58 412 pd GammeType;
#X obj 51 358 cnv 15 100 43 empty empty Gammes 2 6 0 8 -4032 -260097
0;
#X obj 50 369 hradio 17 1 1 6 \$0-GammeType \$0-GammeType empty 0 -8
0 10 -262144 -1 -1 0;
#X text 57 386 M;
#X text 74 386 m;
#X text 91 386 7;
#X text 142 386 0;
#X obj 50 204 cnv 15 100 20 empty empty empty 20 12 0 14 -204800 -66577
0;
#X symbolatom 73 206 0 0 0 0 - #0-Chord-Type-rcv #0-Chord-Type-snd
;
#X floatatom 106 207 2 0 0 0 - #0-nChord-Type-rcv #0-nChord-Type-snd
;
#X obj 120 209 bng 15 250 50 0 \$0--Chord-snd \$0--Chord-rcv - 4 -4
0 10 -4032 -1 -1;
#X obj 135 209 bng 15 250 50 0 \$0-+Chord-snd \$0-+Chord-rcv + 4 -4
0 10 -4034 -1 -1;
#X obj 52 98 cnv 10 100 60 empty empty empty 0 12 0 14 -204800 -66577
0;
#X symbolatom 50 141 16 0 0 0 - #0-Mode-Type-rcv #0-Mode-Type-snd;
#X floatatom 107 124 2 0 0 0 - #0-nMode-Type-rcv #0-nMode-Type-snd
;
#X obj 121 126 bng 15 250 50 0 \$0--Mode-snd \$0--Mode-rcv - 4 -4 0
10 -4032 -1 -1;
#X obj 136 126 bng 15 250 50 0 \$0-+Mode-snd \$0-+Mode-rcv + 4 -4 0
10 -4034 -1 -1;
#X obj 50 270 cnv 15 100 20 empty empty empty 20 12 0 14 -204800 -66577
0;
#X symbolatom 50 272 0 0 0 0 - #0-Note-Type-rcv #0-Note-Type-snd;
#X text 102 386 M7;
#X obj 105 105 tgl 15 0 \$0-NoTransGamme-snd \$0-NoTransGamme-rcv TrGam
15 8 0 10 -262144 -1 -1 0 1;
#X text 119 386 m7;
#X obj 50 104 tgl 15 1 \$0-NoChangeGamme-snd \$0-NoChangeGamme-rcv
ChGam 15 8 0 10 -262144 -1 -1 1 1;
#X symbolatom 51 206 0 0 0 0 - #0-Note-Chord-Type-rcv #0-NoteChord-Type-snd
;
#X symbolatom 51 123 0 0 0 0 - #0-Note-Mode-Type-rcv #0-Note-Mode-Type-snd
;
#X floatatom 255 15 5 0 0 0 - - -;
#X obj 15 440 loadbang;
#X obj 15 354 bng 15 250 50 0 empty empty empty 17 7 0 10 -262144 -1
-1;
#X obj 15 477 del 5000;
#X obj 643 333 r \$0-Note-Type-snd;
#X obj 650 389 spigot;
#X obj 650 414 symbol;
#X obj 648 360 t b s;
#X obj 650 463 s \$1-stepdata;
#X obj 650 441 pack s s s s s;
#X obj 804 273 t b s;
#X obj 799 246 r \$0-NoteChord-Type-snd;
#X obj 955 269 t b s;
#X obj 826 373 makefilename;
#X obj 797 337 symbol;
#X symbolatom 837 419 10 0 0 0 - - -;
#X symbolatom 988 322 10 0 0 0 - - -;
#X obj 950 242 r \$0-Chord-Type-rcv;
#X obj 822 304 bng 15 250 50 0 empty empty empty 17 7 0 10 -262144
-1 -1;
#X msg 857 303 set \$1 %c;
#X connect 6 0 7 1;
#X connect 6 0 111 0;
#X connect 7 0 16 0;
#X connect 8 0 16 1;
#X connect 9 0 16 2;
#X connect 10 0 7 0;
#X connect 12 0 14 0;
#X connect 13 0 14 1;
#X connect 14 0 72 0;
#X connect 15 0 16 3;
#X connect 16 0 11 0;
#X connect 19 0 20 0;
#X connect 20 0 27 0;
#X connect 20 0 29 0;
#X connect 21 0 20 0;
#X connect 21 1 20 1;
#X connect 22 0 23 0;
#X connect 23 0 21 0;
#X connect 23 0 31 0;
#X connect 24 0 25 0;
#X connect 25 0 26 0;
#X connect 26 0 23 1;
#X connect 27 0 28 0;
#X connect 27 0 32 0;
#X connect 30 0 33 0;
#X connect 33 0 43 0;
#X connect 34 0 33 1;
#X connect 35 0 40 0;
#X connect 36 0 35 1;
#X connect 38 0 41 0;
#X connect 38 1 42 0;
#X connect 38 1 46 0;
#X connect 40 0 38 0;
#X connect 40 0 37 0;
#X connect 40 0 85 1;
#X connect 40 0 116 1;
#X connect 41 0 39 0;
#X connect 42 0 39 0;
#X connect 43 0 44 0;
#X connect 43 1 35 0;
#X connect 44 0 40 0;
#X connect 45 0 82 0;
#X connect 46 0 49 0;
#X connect 47 0 83 0;
#X connect 48 0 84 0;
#X connect 49 0 50 0;
#X connect 51 0 52 0;
#X connect 52 0 54 0;
#X connect 53 0 54 1;
#X connect 54 0 58 0;
#X connect 55 0 58 1;
#X connect 56 0 58 2;
#X connect 57 0 58 3;
#X connect 58 0 59 0;
#X connect 60 0 61 0;
#X connect 61 1 65 0;
#X connect 62 0 63 0;
#X connect 63 0 64 0;
#X connect 64 0 61 1;
#X connect 65 0 71 0;
#X connect 70 0 66 0;
#X connect 70 1 67 0;
#X connect 70 2 68 0;
#X connect 70 3 69 0;
#X connect 73 0 70 0;
#X connect 74 0 41 0;
#X connect 75 0 78 0;
#X connect 76 0 77 1;
#X connect 77 0 80 0;
#X connect 78 0 46 0;
#X connect 78 0 81 0;
#X connect 78 1 77 0;
#X connect 80 0 79 0;
#X connect 81 0 40 0;
#X connect 82 0 85 0;
#X connect 82 1 46 1;
#X connect 83 0 85 0;
#X connect 83 1 49 1;
#X connect 84 0 85 0;
#X connect 84 1 49 2;
#X connect 85 0 46 0;
#X connect 112 0 114 0;
#X connect 113 0 88 0;
#X connect 114 0 113 0;
#X connect 115 0 118 0;
#X connect 116 0 117 0;
#X connect 117 0 120 0;
#X connect 118 0 116 0;
#X connect 118 1 117 1;
#X connect 120 0 119 0;
#X connect 121 0 125 0;
#X connect 121 1 130 0;
#X connect 122 0 121 0;
#X connect 123 1 127 0;
#X connect 123 1 125 1;
#X connect 124 0 126 0;
#X connect 125 0 124 0;
#X connect 128 0 123 0;
#X connect 129 0 125 0;
#X connect 130 0 124 0;
#X coords 0 -1 1 1 102 352 1 50 50;
