#N canvas 439 1162 450 300 12;
#X obj 202 30 MasterPrepaSchoolscape;
#X symbolatom 104 179 0 0 0 0 - - -;
#X obj 71 210 symbol;
#X obj 75 158 bng 15 250 50 0 empty empty empty 17 7 0 10 -262144 -1
-1;
#X obj 73 190 bng 15 250 50 0 empty empty empty 17 7 0 10 -262144 -1
-1;
#X msg 26 176 Test;
#X obj 104 152 r Prepa;
#X obj 71 238 s Prepa;
#X obj 24 17 PrepaTabs 1;
#X obj 25 41 PrepaTabs 2;
#X obj 26 66 PrepaTabs 3;
#X connect 1 0 2 1;
#X connect 2 0 7 0;
#X connect 3 0 1 0;
#X connect 4 0 2 0;
#X connect 5 0 2 0;
#X connect 6 0 1 0;
