#N canvas 458 1226 450 300 12;
#X obj 202 30 MasterPrepaSchoolscape;
#X symbolatom 104 179 0 0 0 0 - - -;
#X obj 71 210 symbol;
#X obj 75 158 bng 15 250 50 0 empty empty empty 17 7 0 10 -262144 -1
-1;
#X obj 73 190 bng 15 250 50 0 empty empty empty 17 7 0 10 -262144 -1
-1;
#X msg 26 176 Test;
#X obj 104 152 r Prepa;
#X obj 71 238 s Prepa;
#X obj 24 17 PrepaTabs 1;
#X obj 25 41 PrepaTabs 2;
#X obj 26 66 PrepaTabs 3;
#N canvas 458 1588 929 296 Prepa-0 1;
#N canvas 0 2009 513 661 matos 0;
#X obj 124 514 bng 15 250 50 0 empty empty empty 17 7 0 10 -262144
-1 -1;
#X obj 124 536 s All-LoadSONG;
#X obj 42 171 r \$1-LoadBut;
#X obj 185 214 r NameSong-snd;
#X obj 214 293 r set;
#X symbolatom 232 341 10 0 0 0 - - -;
#X msg 83 331 Alain;
#X obj 163 291 s set;
#X obj 36 413 symbol;
#N canvas 0 2538 510 397 LoadPrepa 0;
#X obj 196 44 inlet;
#X obj 269 113 r set-selected;
#X obj 211 150 symbol;
#X obj 272 217 s set;
#X obj 311 216 s set-load;
#X obj 210 240 s set-play-name;
#X obj 210 263 r set;
#X obj 210 313 print set;
#X obj 79 201 r NomDuSetSelectionné;
#X obj 27 321 s NomDuSetChargé;
#X obj 29 295 list;
#X obj 328 147 print set-selected;
#X obj 211 176 t s s s;
#X symbolatom 87 245 10 0 0 0 - - -;
#X symbolatom 327 185 10 0 0 0 - - -;
#X obj 176 87 t b a;
#X obj 34 63 inlet;
#X connect 0 0 15 0;
#X connect 2 0 12 0;
#X connect 8 0 10 1;
#X connect 8 0 13 0;
#X connect 10 0 9 0;
#X connect 12 1 3 0;
#X connect 12 2 4 0;
#X connect 12 2 14 0;
#X connect 15 0 10 0;
#X connect 15 1 2 0;
#X restore 54 489 pd LoadPrepa;
#X obj 288 48 r NomDuSetSelectionné;
#X symbolatom 339 77 10 0 0 0 - - -;
#X msg 219 61 set \$1;
#X msg 394 218 Schoolscape;
#X msg 36 284 Antoine;
#X obj 256 569 s All-SaveMASTER;
#X obj 310 533 bng 15 250 50 0 empty empty empty 17 7 0 10 -262144
-1 -1;
#X obj 260 462 bng 15 250 50 0 empty empty empty 17 7 0 10 -262144
-1 -1;
#X obj 260 484 s All-LoadMASTER;
#X symbolatom 184 248 10 0 0 0 - - -;
#X obj 323 344 s NomDuSetSelectionné;
#X obj 345 267 symbol;
#X symbolatom 381 310 10 0 0 0 - - -;
#X symbolatom 210 431 10 0 0 0 - - -;
#X obj 285 96 symbol;
#X msg 376 179 homescape;
#X msg 445 512 Alain;
#X msg 398 465 Antoine;
#X obj 396 602 s set-load;
#X obj 404 567 symbol;
#X connect 0 0 1 0;
#X connect 3 0 19 0;
#X connect 4 0 5 0;
#X connect 6 0 9 1;
#X connect 8 0 9 1;
#X connect 10 0 11 0;
#X connect 10 0 12 0;
#X connect 10 0 24 0;
#X connect 13 0 21 0;
#X connect 14 0 9 1;
#X connect 16 0 15 0;
#X connect 17 0 18 0;
#X connect 21 0 22 0;
#X connect 25 0 21 0;
#X connect 26 0 29 0;
#X connect 27 0 29 0;
#X connect 29 0 28 0;
#X restore 334 80 pd matos;
#N canvas 612 917 722 793 RecallPrepa 0;
#X obj 97 38 inlet;
#X obj 166 148 f \$1;
#X obj 165 176 s NbRecallPrepa;
#X symbolatom 79 277 10 0 0 0 - - -;
#X obj 29 189 bng 15 250 50 0 empty empty empty 17 7 0 10 -262144 -1
-1;
#X obj 342 269 s PREPAschoolscape-apmaster-snd-name;
#X obj 6 297 s Prepa;
#X obj 493 236 s NomDuPrepaSelectionné;
#X obj 206 275 r datadirPrepas;
#X obj 337 314 r datadir;
#X symbolatom 212 355 0 0 0 0 - - -;
#X obj 149 390 symbol;
#X symbolatom 218 424 0 0 0 0 - - -;
#X obj 99 473 pack s s;
#X obj 118 423 t b s;
#X msg 99 503 symbol \$2\$1;
#X msg 306 593 loadin;
#X obj 306 622 s PREPAschoolscape-apmaster-rcv;
#X obj 65 614 s PREPAschoolscape-apmaster-rcv;
#X msg 65 586 loadfile \$1;
#X obj 157 563 symbol;
#X symbolatom 216 502 0 0 0 0 - - -;
#X obj 26 637 t b;
#X obj 278 671 del 50;
#X msg 278 704 const 0;
#X obj 280 734 s \$1-datadirInstruments;
#X obj 17 159 s All-LoadMASTER;
#X obj 16 131 bng 15 250 50 0 empty empty empty 17 7 0 10 -262144 -1
-1;
#X obj 94 70 t b b b b;
#X obj 11 72 bng 15 250 50 0 empty empty empty 17 7 0 10 -262144 -1
-1;
#X obj 12 100 s All-LoadSONG;
#X obj 26 687 s PrepaNomDuSetChargé;
#X obj 26 661 del 10;
#X obj 105 662 bng 15 250 50 0 empty empty empty 17 7 0 10 -262144
-1 -1;
#X obj 41 241 symbol Prepa0;
#X connect 0 0 28 0;
#X connect 1 0 2 0;
#X connect 4 0 34 0;
#X connect 8 0 10 0;
#X connect 8 0 11 0;
#X connect 11 0 12 0;
#X connect 11 0 14 0;
#X connect 13 0 15 0;
#X connect 14 0 13 0;
#X connect 14 1 13 1;
#X connect 15 0 19 0;
#X connect 15 0 21 0;
#X connect 16 0 17 0;
#X connect 19 0 18 0;
#X connect 19 0 22 0;
#X connect 22 0 32 0;
#X connect 23 0 24 0;
#X connect 24 0 25 0;
#X connect 27 0 26 0;
#X connect 28 2 34 0;
#X connect 28 3 1 0;
#X connect 29 0 30 0;
#X connect 32 0 31 0;
#X connect 32 0 33 0;
#X connect 34 0 3 0;
#X connect 34 0 13 0;
#X restore 32 239 pd RecallPrepa;
#N canvas 433 1010 754 777 StorePrepa 0;
#X obj 97 38 inlet;
#X obj 116 170 s All-SaveSONG;
#X obj 68 708 s All-SavePREPA;
#X obj 190 211 s All-SaveMASTER;
#X obj 94 70 t b b b;
#X symbolatom 319 93 10 0 0 0 - - -;
#X obj 264 276 r datadirPrepas;
#X symbolatom 270 356 0 0 0 0 - - -;
#X obj 207 391 symbol;
#X symbolatom 276 425 0 0 0 0 - - -;
#X obj 157 474 pack s s;
#X obj 176 424 t b s;
#X msg 157 504 symbol \$2\$1;
#X obj 123 615 s PREPAschoolscape-apmaster-rcv;
#X obj 125 556 symbol;
#X symbolatom 274 503 0 0 0 0 - - -;
#X msg 123 587 savefile \$1;
#X obj 218 120 bng 15 250 50 0 empty empty empty 17 7 0 10 -262144
-1 -1;
#X obj 281 57 symbol Prepa0;
#X obj 34 344 s set-save;
#X obj 70 205 r NbRecallPrepa;
#X obj 70 258 tgl 15 0 empty empty empty 17 7 0 10 -262144 -1 -1 1
1;
#X obj 70 232 == 0;
#X obj 37 282 spigot;
#X connect 0 0 4 0;
#X connect 4 0 23 0;
#X connect 4 1 3 0;
#X connect 4 2 18 0;
#X connect 6 0 7 0;
#X connect 6 0 8 0;
#X connect 8 0 9 0;
#X connect 8 0 11 0;
#X connect 10 0 12 0;
#X connect 11 0 10 0;
#X connect 11 1 10 1;
#X connect 12 0 14 0;
#X connect 14 0 16 0;
#X connect 14 0 15 0;
#X connect 16 0 13 0;
#X connect 17 0 3 0;
#X connect 18 0 5 0;
#X connect 18 0 10 0;
#X connect 20 0 22 0;
#X connect 21 0 23 1;
#X connect 22 0 21 0;
#X connect 23 0 19 0;
#X restore 188 207 pd StorePrepa;
#X obj 0 136 bng 15 250 50 0 empty empty empty 17 7 0 10 -262144 -1
-1;
#X obj 159 128 bng 15 250 50 0 empty empty empty 17 7 0 10 -262144
-1 -1;
#X obj 669 37 r NomDuSetSelectionné;
#X symbolatom 681 80 0 0 0 0 - - -;
#N canvas 159 2156 1219 534 datadirInstrument+set-selected 0;
#X obj 257 271 r datadirInstruments;
#X symbolatom 257 296 0 0 0 0 - - -;
#N canvas 0 2009 450 300 list2tab 0;
#X obj 88 11 inlet;
#X obj 139 109 list fromsymbol;
#X obj 146 260 print;
#X obj 140 163 list split 1;
#N canvas 651 2243 578 696 toTab 0;
#X obj 50 -3 inlet;
#X obj 112 440 outlet;
#X obj 141 158 t b f;
#X obj 141 185 i;
#X obj 171 185 + 1;
#X obj 112 410 pack f f;
#X msg 247 137 0;
#X obj 184 342 f;
#X obj 141 299 t f b;
#X obj 43 86 sel 32;
#X obj 141 109 f;
#X obj 270 289 f;
#X obj 270 347 i;
#X obj 305 351 + 1;
#X msg 236 310 0, f 1;
#X obj 270 314 t b;
#X obj 270 370 + 1;
#X floatatom 62 175 5 0 0 0 - - -;
#N canvas 0 582 450 300 >0 0;
#X obj 135 41 inlet;
#X obj 139 217 outlet;
#X obj 127 88 t b b;
#X obj 129 138 del 10;
#X msg 178 100 stop;
#X msg 134 171 0;
#X connect 0 0 2 0;
#X connect 2 0 3 0;
#X connect 2 1 4 0;
#X connect 3 0 5 0;
#X connect 4 0 3 0;
#X connect 5 0 1 0;
#X restore 259 188 pd >0;
#X obj 141 133 t f f;
#X obj 229 250 t f f;
#X obj 191 380 + 13;
#X floatatom 214 424 5 0 0 0 - - -;
#X obj 63 298 bng 15 250 50 0 empty empty empty 17 7 0 10 -262144 -1
-1;
#X obj 174 261 t b b;
#X obj 141 211 t f f;
#X obj 102 44 t b f, f 9;
#X obj 174 235 sel 199;
#X obj 270 397 s 0-LenDataDirInstruments;
#X connect 0 0 26 0;
#X connect 2 0 3 0;
#X connect 2 1 20 0;
#X connect 3 0 4 0;
#X connect 3 0 17 0;
#X connect 3 0 25 0;
#X connect 4 0 3 1;
#X connect 5 0 18 0;
#X connect 5 0 1 0;
#X connect 6 0 3 1;
#X connect 7 0 21 0;
#X connect 7 0 5 1;
#X connect 8 0 5 0;
#X connect 8 1 7 0;
#X connect 10 0 19 0;
#X connect 11 0 15 0;
#X connect 12 0 13 0;
#X connect 12 0 16 0;
#X connect 13 0 12 1;
#X connect 14 0 12 1;
#X connect 15 0 12 0;
#X connect 16 0 22 0;
#X connect 16 0 28 0;
#X connect 18 0 6 0;
#X connect 18 0 14 0;
#X connect 19 0 2 0;
#X connect 20 0 7 1;
#X connect 20 1 11 0;
#X connect 24 0 14 0;
#X connect 24 1 6 0;
#X connect 25 0 8 0;
#X connect 25 1 27 0;
#X connect 26 0 10 0;
#X connect 26 1 10 1;
#X connect 27 0 24 0;
#X restore 228 213 pd toTab;
#X obj 140 138 t a a, f 13;
#X obj 228 190 list split 1;
#X obj 227 242 outlet;
#X connect 0 0 1 0;
#X connect 1 0 5 0;
#X connect 3 1 5 0;
#X connect 4 0 7 0;
#X connect 5 0 3 0;
#X connect 5 1 6 0;
#X connect 6 0 4 0;
#X restore 86 445 pd list2tab;
#N canvas 0 2009 541 697 tab2list 0;
#X obj 71 439 list store;
#X msg 71 411 append \$1;
#X msg 178 451 bang;
#X obj 71 466 t b b a;
#X obj 59 619 outlet;
#X obj 141 9 inlet;
#X obj 88 77 bng 15 250 50 0 empty empty empty 17 7 0 10 -262144 -1
-1;
#X obj 88 174 i;
#X msg 26 81 0;
#X obj 14 108 t b f f;
#X obj 88 102 t b b;
#X floatatom 235 237 5 0 0 0 - - -;
#X obj 171 224 - 1;
#X obj 169 184 * 2;
#X obj 100 29 bng 15 250 50 0 empty empty empty 17 7 0 10 -262144 -1
-1;
#X obj 117 62 t b b;
#X obj 176 141 r \$1-Len;
#X obj 73 379 list tosymbol;
#X msg 153 87 0;
#X obj 120 174 + 1;
#X obj 118 525 list split 1;
#N canvas 0 2009 730 444 text 0;
#X obj 106 69 inlet;
#X obj 133 379 outlet;
#X msg 87 135 text \$1\$2\$3\$4\$5\$6\$7\$8\$9\$10\$11\$12\$13\$14\$15\$16\$17\$18\$19\$20\$21\$22\$23\$24\$25\$26\$27\$28\$29\$30\$31\$32\$33\$34\$35\$36\$37\$38\$39\$40\$41\$42\$43\$44\$45\$46\$47\$48\$49\$50\$51\$52\$53\$54\$55\$56\$57\$58\$59\$60\$61\$62\$63\$64\$65\$66\$67\$68\$69\$70\$71\$72\$73\$74\$75\$76\$77\$78\$79\$80\$81\$82\$83\$84\$85\$86\$87\$88\$89\$90\$91\$92\$93\$94\$95\$96\$97\$98\$99\$100\$101\$102\$103\$104\$105\$106\$107\$108\$109\$110\$111\$112\$113\$114\$115\$116\$117\$118\$119\$120\$121\$122\$123\$124\$125\$126\$127\$128\$129\$130\$131\$132\$133\$134\$135\$136\$137\$138\$139\$140\$141\$142\$143\$144\$145\$146\$147\$148\$149\$150\$151\$152\$153\$154\$155\$156\$157\$158\$159\$160\$161\$162\$163\$164\$165\$166\$167\$168\$169\$170\$171\$172\$173\$174\$175\$176\$177\$178\$179\$180\$181\$182\$183\$184\$185\$186\$187\$188\$189\$190\$191\$192\$193\$194\$195\$196\$197\$198\$199\$200
, f 81;
#X connect 0 0 2 0;
#X connect 2 0 1 0;
#X restore 117 494 pd text;
#X obj 15 245 sel 199;
#X obj 287 425 print;
#X obj 75 214 t f f;
#X obj 81 276 tabread 0-datadirInstruments;
#X connect 0 0 3 0;
#X connect 1 0 0 0;
#X connect 2 0 0 1;
#X connect 3 1 2 0;
#X connect 3 2 21 0;
#X connect 5 0 15 0;
#X connect 6 0 10 0;
#X connect 7 0 19 0;
#X connect 7 0 24 0;
#X connect 8 0 9 0;
#X connect 9 0 0 0;
#X connect 9 1 7 1;
#X connect 10 0 2 0;
#X connect 10 1 7 0;
#X connect 13 0 12 0;
#X connect 14 0 15 0;
#X connect 15 0 10 0;
#X connect 15 1 18 0;
#X connect 16 0 11 0;
#X connect 16 0 13 0;
#X connect 17 0 1 0;
#X connect 18 0 7 1;
#X connect 19 0 7 1;
#X connect 20 1 4 0;
#X connect 21 0 20 0;
#X connect 22 0 8 0;
#X connect 22 1 10 0;
#X connect 24 0 22 0;
#X connect 24 1 25 0;
#X connect 25 0 17 0;
#X restore 689 244 pd tab2list;
#X obj 197 429 print;
#X symbolatom 626 431 0 0 0 0 - - -;
#X obj 399 80 r NomDuSetSelectionné;
#X symbolatom 383 115 0 0 0 0 - - -;
#X obj 122 226 symbol;
#X msg 122 276 symbol \$1/\$2;
#X obj 122 251 pack s s;
#X symbolatom 116 381 0 0 0 0 - - -;
#X obj 962 188 s MASTERschoolscape-apmaster-rcv;
#X obj 689 45 r NbRecallPrepa;
#X obj 689 98 tgl 15 0 empty empty empty 17 7 0 10 -262144 -1 -1 1
1;
#X obj 689 147 sel 1;
#X obj 689 177 t b b;
#X msg 168 122 const 0;
#X obj 86 47 r OK-set;
#X obj 175 226 symbol;
#X obj 122 94 t b b b;
#X obj 689 119 pipe 20;
#X obj 1224 207 s \$1-set-selected;
#X msg 1222 169 const 0;
#X msg 962 55 /dur1/Schoolscape/pd/data/set/Antoine/homescape;
#X msg 962 164 loadfile \$1;
#X obj 962 127 symbol;
#X msg 1004 83 /dur1/Schoolscape/pd/data/set/Alain/Schoolscape;
#X obj 86 409 symbol;
#X symbolatom 46 498 0 0 0 0 - - -;
#X obj 689 278 s SetPrepa;
#X msg 1046 112 /dur1/Schoolscape/pd/data/set/2020-December-15-00h-59mn-12s/Velo
;
#N canvas 0 2009 450 300 list2tab 0;
#X obj 88 11 inlet;
#X obj 139 109 list fromsymbol;
#X obj 146 260 print;
#X obj 140 163 list split 1;
#N canvas 244 2086 578 696 toTab 0;
#X obj 50 -3 inlet;
#X obj 112 440 outlet;
#X obj 141 158 t b f;
#X obj 141 185 i;
#X obj 171 185 + 1;
#X obj 112 410 pack f f;
#X msg 247 137 0;
#X obj 184 342 f;
#X obj 141 299 t f b;
#X obj 43 86 sel 32;
#X obj 141 109 f;
#X obj 270 289 f;
#X obj 270 347 i;
#X obj 305 351 + 1;
#X msg 236 310 0, f 1;
#X obj 270 314 t b;
#X obj 270 370 + 1;
#X floatatom 62 175 5 0 0 0 - - -;
#N canvas 0 582 450 300 >0 0;
#X obj 135 41 inlet;
#X obj 139 217 outlet;
#X obj 127 88 t b b;
#X obj 129 138 del 10;
#X msg 178 100 stop;
#X msg 134 171 0;
#X connect 0 0 2 0;
#X connect 2 0 3 0;
#X connect 2 1 4 0;
#X connect 3 0 5 0;
#X connect 4 0 3 0;
#X connect 5 0 1 0;
#X restore 259 188 pd >0;
#X obj 141 133 t f f;
#X obj 229 250 t f f;
#X obj 191 380 + 13;
#X floatatom 214 424 5 0 0 0 - - -;
#X obj 63 298 bng 15 250 50 0 empty empty empty 17 7 0 10 -262144 -1
-1;
#X obj 174 261 t b b;
#X obj 141 211 t f f;
#X obj 102 44 t b f, f 9;
#X obj 174 235 sel 199;
#X obj 270 397 s 0-Len-set-selected;
#X connect 0 0 26 0;
#X connect 2 0 3 0;
#X connect 2 1 20 0;
#X connect 3 0 4 0;
#X connect 3 0 17 0;
#X connect 3 0 25 0;
#X connect 4 0 3 1;
#X connect 5 0 18 0;
#X connect 5 0 1 0;
#X connect 6 0 3 1;
#X connect 7 0 21 0;
#X connect 7 0 5 1;
#X connect 8 0 5 0;
#X connect 8 1 7 0;
#X connect 10 0 19 0;
#X connect 11 0 15 0;
#X connect 12 0 13 0;
#X connect 12 0 16 0;
#X connect 13 0 12 1;
#X connect 14 0 12 1;
#X connect 15 0 12 0;
#X connect 16 0 22 0;
#X connect 16 0 28 0;
#X connect 18 0 6 0;
#X connect 18 0 14 0;
#X connect 19 0 2 0;
#X connect 20 0 7 1;
#X connect 20 1 11 0;
#X connect 24 0 14 0;
#X connect 24 1 6 0;
#X connect 25 0 8 0;
#X connect 25 1 27 0;
#X connect 26 0 10 0;
#X connect 26 1 10 1;
#X connect 27 0 24 0;
#X restore 228 213 pd toTab;
#X obj 140 138 t a a, f 13;
#X obj 228 190 list split 1;
#X obj 227 242 outlet;
#X connect 0 0 1 0;
#X connect 1 0 5 0;
#X connect 3 1 5 0;
#X connect 4 0 7 0;
#X connect 5 0 3 0;
#X connect 5 1 6 0;
#X connect 6 0 4 0;
#X restore 137 306 pd list2tab;
#N canvas 503 802 541 697 tab2list 0;
#X obj 71 439 list store;
#X msg 71 411 append \$1;
#X msg 178 451 bang;
#X obj 67 466 t b b a;
#X obj 59 619 outlet;
#X obj 141 9 inlet;
#X obj 88 77 bng 15 250 50 0 empty empty empty 17 7 0 10 -262144 -1
-1;
#X obj 88 174 i;
#X msg 26 81 0;
#X obj 14 108 t b f f;
#X obj 88 102 t b b;
#X floatatom 235 237 5 0 0 0 - - -;
#X obj 171 224 - 1;
#X obj 169 184 * 2;
#X obj 100 29 bng 15 250 50 0 empty empty empty 17 7 0 10 -262144 -1
-1;
#X obj 176 141 r \$1-Len;
#X obj 73 379 list tosymbol;
#X msg 153 87 0;
#X obj 120 174 + 1;
#X obj 118 525 list split 1;
#N canvas 0 2009 730 444 text 0;
#X obj 106 69 inlet;
#X obj 133 379 outlet;
#X msg 87 135 text \$1\$2\$3\$4\$5\$6\$7\$8\$9\$10\$11\$12\$13\$14\$15\$16\$17\$18\$19\$20\$21\$22\$23\$24\$25\$26\$27\$28\$29\$30\$31\$32\$33\$34\$35\$36\$37\$38\$39\$40\$41\$42\$43\$44\$45\$46\$47\$48\$49\$50\$51\$52\$53\$54\$55\$56\$57\$58\$59\$60\$61\$62\$63\$64\$65\$66\$67\$68\$69\$70\$71\$72\$73\$74\$75\$76\$77\$78\$79\$80\$81\$82\$83\$84\$85\$86\$87\$88\$89\$90\$91\$92\$93\$94\$95\$96\$97\$98\$99\$100\$101\$102\$103\$104\$105\$106\$107\$108\$109\$110\$111\$112\$113\$114\$115\$116\$117\$118\$119\$120\$121\$122\$123\$124\$125\$126\$127\$128\$129\$130\$131\$132\$133\$134\$135\$136\$137\$138\$139\$140\$141\$142\$143\$144\$145\$146\$147\$148\$149\$150\$151\$152\$153\$154\$155\$156\$157\$158\$159\$160\$161\$162\$163\$164\$165\$166\$167\$168\$169\$170\$171\$172\$173\$174\$175\$176\$177\$178\$179\$180\$181\$182\$183\$184\$185\$186\$187\$188\$189\$190\$191\$192\$193\$194\$195\$196\$197\$198\$199\$200
, f 81;
#X connect 0 0 2 0;
#X connect 2 0 1 0;
#X restore 117 494 pd text;
#X obj 13 257 sel 199;
#X obj 239 617 print;
#X obj 548 210 - 199;
#X obj 547 236 abs;
#X obj 74 213 t f f;
#X obj 86 322 tabread 0-set-selected;
#X obj 117 62 t b b b;
#X msg 238 78 const 0;
#X obj 238 101 s 0-set-selected;
#X connect 0 0 3 0;
#X connect 1 0 0 0;
#X connect 2 0 0 1;
#X connect 3 1 2 0;
#X connect 3 2 20 0;
#X connect 5 0 27 0;
#X connect 6 0 10 0;
#X connect 7 0 18 0;
#X connect 7 0 25 0;
#X connect 8 0 9 0;
#X connect 9 0 0 0;
#X connect 9 1 7 1;
#X connect 10 0 2 0;
#X connect 10 1 7 0;
#X connect 13 0 12 0;
#X connect 14 0 27 0;
#X connect 15 0 11 0;
#X connect 15 0 13 0;
#X connect 16 0 1 0;
#X connect 17 0 7 1;
#X connect 18 0 7 1;
#X connect 19 1 4 0;
#X connect 20 0 19 0;
#X connect 21 0 8 0;
#X connect 21 1 10 0;
#X connect 23 0 24 0;
#X connect 25 0 21 0;
#X connect 25 1 26 0;
#X connect 26 0 16 0;
#X connect 27 0 10 0;
#X connect 27 1 17 0;
#X connect 28 0 29 0;
#X restore 721 208 pd tab2list;
#X obj 793 390 s MASTERschoolscape-apmaster-rcv;
#X msg 793 366 loadfile \$1;
#X msg 857 258 set \$1;
#X msg 924 20 /dur1/Schoolscape/pd/data/set/2021-February-14-18h-21mn-47s/Charlotte
, f 71;
#X obj 793 239 t b a;
#X msg 793 301 /dur1/Schoolscape/pd/data/set/SetBuffer/SetBufferName
, f 49;
#X obj 793 266 del 10;
#X obj 793 338 symbol;
#X obj 138 335 s 0-set-selected;
#X obj 86 475 s 0-datadirInstruments;
#X obj 168 145 s 0-datadirInstruments;
#X obj 689 72 == 0;
#X msg 225 204 SetBufferName;
#X obj 266 170 loadbang;
#X obj 202 182 bng 15 250 50 0 empty empty empty 17 7 0 10 -262144
-1 -1;
#X obj 618 477 s MASTERschoolscape-apmaster-rcv;
#X obj 657 223 bng 15 250 50 0 empty empty empty 17 7 0 10 -262144
-1 -1;
#X obj 30 74 bng 15 250 50 0 empty empty empty 17 7 0 10 -262144 -1
-1;
#X connect 0 0 1 0;
#X connect 0 0 8 1;
#X connect 0 0 28 1;
#X connect 2 0 43 0;
#X connect 3 0 5 0;
#X connect 3 0 30 0;
#X connect 6 0 7 0;
#X connect 8 0 10 0;
#X connect 9 0 11 0;
#X connect 9 0 32 0;
#X connect 10 0 9 0;
#X connect 13 0 45 0;
#X connect 14 0 21 0;
#X connect 15 0 16 0;
#X connect 16 0 3 0;
#X connect 16 0 50 0;
#X connect 16 1 33 0;
#X connect 17 0 44 0;
#X connect 18 0 20 0;
#X connect 18 0 28 0;
#X connect 19 0 10 1;
#X connect 20 0 8 0;
#X connect 20 1 19 0;
#X connect 20 2 17 0;
#X connect 21 0 15 0;
#X connect 23 0 22 0;
#X connect 24 0 26 0;
#X connect 25 0 12 0;
#X connect 26 0 25 0;
#X connect 27 0 26 0;
#X connect 28 0 2 0;
#X connect 28 0 29 0;
#X connect 31 0 26 0;
#X connect 32 0 42 0;
#X connect 33 0 38 0;
#X connect 35 0 34 0;
#X connect 36 0 39 0;
#X connect 37 0 26 0;
#X connect 38 0 40 0;
#X connect 38 1 36 0;
#X connect 39 0 41 0;
#X connect 40 0 39 0;
#X connect 41 0 35 0;
#X connect 45 0 14 0;
#X connect 46 0 19 1;
#X connect 47 0 46 0;
#X connect 48 0 46 0;
#X connect 51 0 20 0;
#X connect 51 0 28 0;
#X restore 407 83 pd datadirInstrument+set-selected;
#X obj 15 19 aptab2 PREPAschoolscape 0-datadirInstruments 0-datadirInstruments
200 1, f 75;
#X obj 267 50 table 0-set-selected 200;
#X obj 23 49 table 0-datadirInstruments 200;
#X obj 31 94 r 0-PrepaRecall;
#X obj 188 93 r 0-PrepaStore;
#X obj 331 124 aptab2 PREPAschoolscape 0-set-selected 0-set-selected
200 1, f 62;
#X obj 68 130 loadbang;
#X obj 14 200 bng 15 250 50 0 empty empty empty 17 7 0 10 -262144 -1
-1;
#X obj 213 169 bng 15 250 50 0 empty empty empty 17 7 0 10 -262144
-1 -1;
#X obj 90 169 del 5000;
#X obj 383 204 metro 10000;
#X obj 385 176 tgl 15 1 empty empty empty 17 7 0 10 -262144 -1 -1 1
1;
#X obj 286 168 del 5000;
#X connect 5 0 6 0;
#X connect 11 0 3 0;
#X connect 11 0 1 0;
#X connect 12 0 4 0;
#X connect 12 0 2 0;
#X connect 14 0 17 0;
#X connect 15 0 1 0;
#X connect 16 0 2 0;
#X connect 17 0 1 0;
#X connect 18 0 20 0;
#X connect 19 0 18 0;
#X connect 20 0 2 0;
#X restore 24 117 pd Prepa-0;
#X connect 1 0 2 1;
#X connect 2 0 7 0;
#X connect 3 0 1 0;
#X connect 4 0 2 0;
#X connect 5 0 2 0;
#X connect 6 0 1 0;
