#N canvas 2062 1197 1041 723 12;
#X floatatom 150 234 5 0 0 0 - - -;
#X floatatom 196 218 5 0 0 0 - - -;
#X floatatom 244 223 5 0 0 0 - - -;
#X floatatom 289 233 5 0 0 0 - - -;
#X floatatom 80 206 5 0 0 0 - - -;
#X obj 34 78 inlet;
#X obj 2 139 outlet;
#X floatatom 187 334 5 0 0 0 - - -;
#X floatatom 240 336 5 0 0 0 - - -;
#X floatatom 284 334 5 0 0 0 - - -;
#X floatatom 350 334 5 0 0 0 - - -;
#X floatatom 120 330 5 0 0 0 - - -;
#X floatatom 173 456 5 0 0 0 - - -;
#X floatatom 219 440 5 0 0 0 - - -;
#X floatatom 267 445 5 0 0 0 - - -;
#X floatatom 312 455 5 0 0 0 - - -;
#X floatatom 103 428 5 0 0 0 - - -;
#X obj 80 386 vsl 15 100 0 1 0 0 empty empty empty 0 -9 0 10 -262144
-1 -1 0 1;
#X floatatom 210 556 5 0 0 0 - - -;
#X floatatom 263 558 5 0 0 0 - - -;
#X floatatom 307 556 5 0 0 0 - - -;
#X floatatom 373 556 5 0 0 0 - - -;
#X floatatom 143 552 5 0 0 0 - - -;
#X floatatom 594 194 5 0 0 0 - - -;
#X floatatom 630 217 5 0 0 0 - - -;
#X floatatom 678 222 5 0 0 0 - - -;
#X floatatom 723 232 5 0 0 0 - - -;
#X floatatom 659 308 5 0 0 0 - - -;
#X floatatom 694 335 5 0 0 0 - - -;
#X floatatom 738 333 5 0 0 0 - - -;
#X floatatom 804 333 5 0 0 0 - - -;
#X floatatom 737 296 5 0 0 0 - - -;
#X floatatom 627 455 5 0 0 0 - - -;
#X floatatom 673 439 5 0 0 0 - - -;
#X floatatom 721 444 5 0 0 0 - - -;
#X floatatom 766 454 5 0 0 0 - - -;
#X floatatom 557 427 5 0 0 0 - - -;
#X floatatom 664 555 5 0 0 0 - - -;
#X floatatom 717 557 5 0 0 0 - - -;
#X floatatom 761 555 5 0 0 0 - - -;
#X floatatom 827 555 5 0 0 0 - - -;
#X floatatom 597 551 5 0 0 0 - - -;
#X obj 287 134 loadbang;
#X floatatom 590 293 5 0 0 0 - - -;
#X obj 34 105 t a a a a a a a a a a a;
#X obj 37 309 s \$1-1-rcv;
#X obj 26 439 s \$1-2-rcv;
#X obj 51 531 s \$1-3-rcv;
#X obj 35 624 s \$1-4-rcv;
#X obj 490 306 s \$1-5-rcv;
#X obj 503 400 s \$1-6-rcv;
#X obj 522 528 s \$1-7-rcv;
#X obj 537 613 s \$1-8-rcv;
#X floatatom 546 102 5 0 0 0 - - -;
#X floatatom 438 59 5 0 0 0 - - -;
#X floatatom 482 52 5 0 0 0 - - -;
#X floatatom 532 76 5 0 0 0 - - -;
#X obj 497 195 bng 15 250 50 0 empty empty empty 17 7 0 10 -262144
-1 -1;
#X obj 497 151 route down;
#X obj 497 170 b;
#X obj 376 63 fixScale;
#X obj 393 147 poftouch 50 50;
#X obj 394 123 pofimage instruments/PdBang.png 30 30;
#X obj 394 90 poftranslate -6 -224;
#X obj 677 10 loadbang;
#X floatatom 768 104 5 0 0 0 - - -;
#X floatatom 733 105 5 0 0 0 - - -;
#X obj 615 55 bng 15 250 50 0 empty empty empty 17 7 0 10 -262144 -1
-1;
#X msg 675 104 text \$1;
#X obj 691 157 pofcolor 1 1 1 1;
#X obj 675 78 makesymbol \$2;
#X obj 687 132 poftranslate -220 -225;
#X obj 469 212 s \$1-bang-rcv;
#X obj 25 178 r \$1-1-snd;
#X obj 119 302 r \$1-2-snd;
#X obj 112 394 r \$1-3-snd;
#X obj 139 520 r \$1-4-snd;
#X obj 549 231 r \$1-5-snd;
#X obj 582 318 r \$1-6-snd;
#X obj 597 407 r \$1-7-snd;
#X obj 636 519 r \$1-8-snd;
#X obj 373 243 ColMess 1 \$3;
#X obj 389 315 ColMess 2 \$3;
#X obj 381 450 ColMess 3 \$3;
#X obj 401 529 ColMess 4 \$3;
#X obj 829 238 ColMess 5 \$3;
#X obj 870 317 ColMess 6 \$3;
#X obj 861 452 ColMess 7 \$3;
#X obj 882 531 ColMess 8 \$3;
#X obj 287 157 \$4;
#X obj 37 270 instruments/pof_vslider 36 200 -290 -104 200 1 0 0 0.5
\$1-1 \$3, f 62;
#X obj 491 269 instruments/pof_vslider 36 200 -130 -104 200 1 0 0 0.5
\$1-5 \$3, f 63;
#X obj 515 359 instruments/pof_vslider 36 200 -90 -104 200 1 0 0 0.5
\$1-6 \$3, f 61;
#X obj 514 490 instruments/pof_vslider 36 200 -50 -104 200 1 0 0 0.5
\$1-7 \$3, f 61;
#X obj 539 582 instruments/pof_vslider 36 200 -10 -104 200 1 0 0 0.5
\$1-8 \$3, f 62;
#X obj 84 582 instruments/pof_vslider 36 200 -170 -104 200 1 0 0 0.5
\$1-4 \$3, f 62;
#X obj 60 492 instruments/pof_vslider 36 200 -210 -104 200 1 0 0 0.5
\$1-3 \$3, f 62;
#X obj 61 360 instruments/pof_vslider 36 200 -250 -104 200 1 0 0 0.5
\$1-2 \$3, f 62;
#X obj 691 179 poftexts typo 30;
#X msg 899 75 draw \$1;
#X obj 902 53 tgl 15 0 empty empty empty 17 7 0 10 -262144 -1 -1 0
1;
#X obj 618 82 del 40;
#X obj 695 42 del 200;
#X symbolatom 828 29 10 0 0 0 - - -;
#X connect 0 0 90 2;
#X connect 1 0 90 3;
#X connect 2 0 90 4;
#X connect 3 0 90 5;
#X connect 4 0 90 1;
#X connect 5 0 44 0;
#X connect 7 0 97 2;
#X connect 8 0 97 3;
#X connect 9 0 97 4;
#X connect 10 0 97 5;
#X connect 11 0 97 1;
#X connect 12 0 96 2;
#X connect 13 0 96 3;
#X connect 14 0 96 4;
#X connect 15 0 96 5;
#X connect 16 0 96 1;
#X connect 17 0 96 1;
#X connect 18 0 95 2;
#X connect 19 0 95 3;
#X connect 20 0 95 4;
#X connect 21 0 95 5;
#X connect 22 0 95 1;
#X connect 23 0 91 2;
#X connect 24 0 91 3;
#X connect 25 0 91 4;
#X connect 26 0 91 5;
#X connect 27 0 92 2;
#X connect 28 0 92 3;
#X connect 29 0 92 4;
#X connect 30 0 92 5;
#X connect 31 0 92 1;
#X connect 32 0 93 2;
#X connect 33 0 93 3;
#X connect 34 0 93 4;
#X connect 35 0 93 5;
#X connect 36 0 93 1;
#X connect 37 0 94 2;
#X connect 38 0 94 3;
#X connect 39 0 94 4;
#X connect 40 0 94 5;
#X connect 41 0 94 1;
#X connect 42 0 89 0;
#X connect 44 0 6 0;
#X connect 44 1 94 0;
#X connect 44 2 93 0;
#X connect 44 3 92 0;
#X connect 44 4 91 0;
#X connect 44 5 95 0;
#X connect 44 6 96 0;
#X connect 44 7 97 0;
#X connect 44 8 90 0;
#X connect 44 9 63 0;
#X connect 53 0 62 1;
#X connect 54 0 63 1;
#X connect 55 0 63 2;
#X connect 56 0 63 3;
#X connect 58 0 59 0;
#X connect 59 0 57 0;
#X connect 59 0 72 0;
#X connect 59 0 89 0;
#X connect 60 0 63 0;
#X connect 61 1 58 0;
#X connect 62 0 61 0;
#X connect 63 0 62 0;
#X connect 64 0 101 0;
#X connect 64 0 102 0;
#X connect 65 0 71 2;
#X connect 66 0 71 1;
#X connect 67 0 70 0;
#X connect 68 0 98 0;
#X connect 69 0 98 0;
#X connect 70 0 68 0;
#X connect 70 0 103 0;
#X connect 71 0 69 0;
#X connect 81 0 90 6;
#X connect 82 0 97 6;
#X connect 83 0 96 6;
#X connect 84 0 95 6;
#X connect 85 0 91 6;
#X connect 86 0 92 6;
#X connect 87 0 93 6;
#X connect 88 0 94 6;
#X connect 89 0 90 1;
#X connect 89 0 91 1;
#X connect 89 0 92 1;
#X connect 89 0 93 1;
#X connect 89 0 94 1;
#X connect 89 0 95 1;
#X connect 89 0 96 1;
#X connect 89 0 97 1;
#X connect 90 0 45 0;
#X connect 91 0 43 0;
#X connect 91 0 49 0;
#X connect 92 0 50 0;
#X connect 93 0 51 0;
#X connect 94 0 52 0;
#X connect 95 0 48 0;
#X connect 96 0 47 0;
#X connect 97 0 46 0;
#X connect 99 0 69 0;
#X connect 100 0 99 0;
#X connect 102 0 70 0;
