#N canvas 2210 331 785 516 10;
#X obj 297 278 mknob 25 100 0 127 0 1 ASP-0-Note_adjust-snd ASP-0-Note_adjust-rcv
ASP-0-Note_adjust -2 -6 0 8 -257985 -1 -1 9900 1;
#X obj 38 105 s all-note-off;
#X obj 38 81 bng 15 250 50 0 empty empty empty 17 7 0 10 -262144 -1
-1;
#X floatatom 178 41 5 0 0 0 - - -;
#X obj 173 78 s ASP-0-Note_adjust-rcv;
#X obj 23 166 melo 7;
#X obj 255 24 instrSwitch \$1;
#X obj 255 45 switch~;
#X obj 22 374 OutDec2~ \$1;
#X obj 23 187 *~ 0.25;
#X obj 25 53 s ASP-0-note1-on-rcv;
#X obj 25 31 change;
#X obj 25 10 r concert-instrument-isplaying-\$1;
#X obj 295 224 f;
#X obj 265 188 del 100;
#X obj 276 138 t b b f;
#X msg 285 164 stop;
#X obj 276 113 r ASP-0-Note_adjust;
#X obj 425 274 mknob 25 100 0 127 0 1 ASP-0-Pitch-snd ASP-0-Pitch-rcv
ASP-0-Pitch -2 -6 0 8 -257985 -1 -1 4989 1;
#X obj 423 220 f;
#X obj 393 184 del 100;
#X obj 404 134 t b b f;
#X msg 413 160 stop;
#X obj 404 109 r ASP-0-Pitch;
#X obj 513 31 MulClock ASP-0 \$1;
#X obj 22 262 mull~ 1 10;
#X obj 50 221 r \$1-MessVeloce;
#X obj 23 138 melotouch ASP-0 200 /CHORD 48 \$1;
#X connect 2 0 1 0;
#X connect 3 0 4 0;
#X connect 5 0 9 0;
#X connect 6 0 7 0;
#X connect 9 0 25 0;
#X connect 11 0 10 0;
#X connect 12 0 11 0;
#X connect 13 0 0 0;
#X connect 14 0 13 0;
#X connect 15 0 14 0;
#X connect 15 1 16 0;
#X connect 15 2 13 1;
#X connect 16 0 14 0;
#X connect 17 0 15 0;
#X connect 19 0 18 0;
#X connect 20 0 19 0;
#X connect 21 0 20 0;
#X connect 21 1 22 0;
#X connect 21 2 19 1;
#X connect 22 0 20 0;
#X connect 23 0 21 0;
#X connect 25 0 8 0;
#X connect 25 0 8 1;
#X connect 26 0 25 1;
#X connect 27 0 5 0;
