#N canvas 2306 909 783 391 10;
#X obj 258 278 mknob 25 100 0 127 0 1 BAI-0-Note_adjust-snd BAI-0-Note_adjust-rcv
BAI-0-Note_adjust -2 -6 0 8 -257985 -1 -1 9900 1;
#X obj 232 34 s all-note-off;
#X obj 232 10 bng 15 250 50 0 empty empty empty 17 7 0 10 -262144 -1
-1;
#X floatatom 230 62 5 0 0 0 - - -;
#X obj 230 86 s BAI-Note_adjust-rcv;
#X obj 20 138 melo 5;
#X obj 94 145 instrSwitch \$1;
#X obj 94 166 switch~;
#X obj 20 308 OutDec2~ \$1;
#X obj 20 159 *~ 0.3;
#X obj 20 58 s BAI-0-note1-on-rcv;
#X obj 20 36 change;
#X obj 20 15 r concert-instrument-isplaying-\$1;
#X obj 253 241 f;
#X obj 223 205 del 100;
#X obj 234 155 t b b f;
#X msg 243 181 stop;
#X obj 234 130 r BAI-0-Note_adjust;
#X obj 414 273 mknob 25 100 0 127 0 1 BAI-0-Pitch-snd BAI-0-Pitch-rcv
BAI-0-Pitch -2 -6 0 8 -257985 -1 -1 4989 1;
#X obj 409 236 f;
#X obj 379 200 del 100;
#X obj 390 150 t b b f;
#X msg 399 176 stop;
#X obj 390 125 r BAI-0-Pitch;
#X obj 486 47 MulClock BAI-0 \$1;
#X obj 19 239 mull~ 1 10;
#X obj 47 198 r \$1-MessVeloce;
#X obj 20 81 melotouch BAI-0 200 /BASS 36 \$1;
#X connect 2 0 1 0;
#X connect 3 0 4 0;
#X connect 5 0 9 0;
#X connect 6 0 7 0;
#X connect 9 0 25 0;
#X connect 11 0 10 0;
#X connect 12 0 11 0;
#X connect 13 0 0 0;
#X connect 14 0 13 0;
#X connect 15 0 14 0;
#X connect 15 1 16 0;
#X connect 15 2 13 1;
#X connect 16 0 14 0;
#X connect 17 0 15 0;
#X connect 19 0 18 0;
#X connect 20 0 19 0;
#X connect 21 0 20 0;
#X connect 21 1 22 0;
#X connect 21 2 19 1;
#X connect 22 0 20 0;
#X connect 23 0 21 0;
#X connect 25 0 8 0;
#X connect 25 0 8 1;
#X connect 26 0 25 1;
#X connect 27 0 5 0;
