#N canvas 2321 1085 431 238 12;
#X obj 17 14 r ColMess-\$1;
#X obj 17 140 spigot 0;
#X obj 46 191 outlet;
#X obj 113 13 r \$2-OnOff;
#X obj 113 41 t f f;
#X obj 121 105 sel 0;
#X msg 121 131 1 0 0 0.5;
#X connect 0 0 1 0;
#X connect 1 0 2 0;
#X connect 3 0 4 0;
#X connect 4 0 5 0;
#X connect 4 1 1 1;
#X connect 5 0 6 0;
#X connect 6 0 2 0;
