#N canvas 1113 2009 797 854 10;
#X obj 199 571 outlet;
#X floatatom 260 130 5 0 0 0 - - -;
#X obj 264 42 unpack f f;
#X floatatom 332 46 5 0 0 0 - - -;
#X obj 247 72 maxlib/scale -260 260 0 1;
#X floatatom 189 45 5 0 0 0 - - -;
#X obj 126 104 spigot;
#X obj 380 344 t b;
#X obj 267 578 print;
#X obj 379 302 spigot;
#X obj 186 122 tgl 15 0 empty empty empty 17 7 0 10 -262144 -1 -1 0
1;
#X floatatom 377 427 5 0 0 0 - - -;
#X obj 620 103 line;
#X obj 620 126 pow 4;
#X obj 620 51 sel 1 0;
#X msg 620 76 1;
#X msg 656 75 0 1500;
#X obj 599 158 mull~ 1 10;
#X floatatom 390 384 5 0 0 0 - - -;
#X floatatom 588 409 5 0 0 0 - - -;
#X floatatom 352 616 5 0 0 0 - - -;
#X obj 138 145 r \$1-rel;
#X obj 422 257 r \$1-on;
#X obj 395 647 s \$1-DefileSeq;
#X obj 585 442 s \$1-rel;
#X obj 620 29 r \$1-on;
#X obj 255 19 r \$1-move;
#X obj 14 129 tabwrite seqx-\$1 32;
#X obj 129 74 r \$1-DefileSeq;
#X obj 185 98 r \$1-on;
#X obj 496 199 spigot;
#X obj 556 217 tgl 15 0 empty empty empty 17 7 0 10 -262144 -1 -1 0
1;
#X obj 499 169 r \$1-DefileSeq;
#X obj 555 193 r \$1-on;
#X obj 95 632 r \$1-DefileSeq;
#X obj 100 679 spigot;
#X obj 157 684 tgl 15 0 empty empty empty 17 7 0 10 -262144 -1 -1 1
1;
#X obj 218 670 r \$1-on;
#X obj 177 688 != 1;
#X floatatom 97 754 5 0 0 0 - - -;
#X obj 293 642 r \$1-DefileSeq;
#X obj 292 682 spigot;
#X obj 349 687 tgl 15 0 empty empty empty 17 7 0 10 -262144 -1 -1 1
1;
#X obj 410 673 r \$1-on;
#X obj 369 691 != 1;
#X floatatom 289 757 5 0 0 0 - - -;
#X obj 415 6 r seqy-\$1 32;
#X floatatom 482 698 5 0 0 0 - - -;
#X obj 337 743 s seqy-\$1 32;
#X obj 123 742 s seqx-\$1 32;
#X obj 442 325 tgl 15 0 empty empty empty 17 7 0 10 -262144 -1 -1 0
1;
#X obj 520 313 r \$1-on;
#X obj 520 357 del 100;
#X obj 520 335 sel 0;
#X msg 522 378 1, f 1;
#X obj 100 711 tabread seqx-\$1 128;
#X obj 292 714 tabread seqy-\$1 128;
#X obj 541 543 table seqy-\$1 128;
#X obj 538 521 table seqx-\$1 128;
#X obj 594 253 tgl 15 0 \$1-note1-on-snd \$1-note1-on-rcv \$1-note1-on
17 7 0 10 -262144 -1 -1 0 1;
#X obj 521 400 spigot;
#X obj 666 500 r GRIreset;
#X floatatom 525 59 5 0 0 0 - - -;
#X obj 539 569 table seqon-\$1 128;
#X obj 165 303 s DECSET-GRI-fragseq4-pos-rcv;
#X obj 209 271 s DECSET-GRI-fragseq4-DivSpeed;
#X obj 314 138 abs;
#X obj 113 -6 r seqx-\$1;
#X obj 403 225 tabwrite seqy-\$1;
#X floatatom 361 146 5 0 0 0 - - -;
#X obj 311 94 maxlib/scale 140 -140 0 1;
#X floatatom 356 123 5 0 0 0 - - -;
#X obj 313 118 - 1;
#X obj 447 292 tgl 15 0 empty empty empty 17 7 0 10 -262144 -1 -1 0
1;
#X obj 22 88 f;
#X obj 17 15 r \$1-DefileSeq;
#X obj 29 59 spigot;
#X obj 89 77 tgl 15 0 empty empty empty 17 7 0 10 -262144 -1 -1 0 1
;
#X obj 88 53 r \$1-on;
#X obj 21 38 t b;
#X obj 442 171 f;
#X obj 487 91 r \$1-DefileSeq;
#X obj 487 135 spigot;
#X obj 533 151 tgl 15 0 empty empty empty 17 7 0 10 -262144 -1 -1 0
1;
#X obj 532 127 r \$1-on;
#X obj 486 113 t b;
#X obj 356 575 ndmetro 128 8;
#X obj 353 468 r CLOCK;
#X obj 339 507 r \$1-mulCLOCK;
#N canvas 2067 564 392 401 SoloPlay 0;
#X obj 99 18 inlet;
#X obj 99 308 outlet;
#X obj 192 79 inlet;
#X obj 132 65 != 1;
#X obj 132 88 tgl 15 0 empty empty empty 17 7 0 10 -262144 -1 -1 1
1;
#X obj 191 105 sel 0 1;
#X msg 191 130 0, f 1;
#X msg 210 136 1, f 1;
#X obj 132 216 spigot;
#X obj 99 281 spigot 1;
#X obj 132 44 r instrument_touched-\$2;
#X connect 0 0 9 0;
#X connect 2 0 5 0;
#X connect 3 0 4 0;
#X connect 4 0 8 0;
#X connect 5 0 6 0;
#X connect 5 1 7 0;
#X connect 6 0 8 1;
#X connect 7 0 8 1;
#X connect 8 0 9 1;
#X connect 9 0 1 0;
#X connect 10 0 3 0;
#X restore 422 619 pd SoloPlay;
#X obj 505 582 tgl 15 1 \$1-SoloPlay-snd \$1-SoloPlay-rcv SoloPlay
17 7 0 10 -262144 -1 -1 0 1;
#X obj 431 520 r SoloOnOff-\$2;
#X obj 456 34 route const;
#X obj 131 16 route const;
#X msg 586 652 const -261;
#X msg 664 647 const -141;
#X obj 703 528 bng 15 250 50 0 empty empty empty 17 7 0 10 -262144
-1 -1;
#X obj 570 677 s seqx-\$1;
#X obj 597 727 s seqy-\$1;
#X obj 684 593 bng 15 250 50 0 empty empty empty 17 7 0 10 -262144
-1 -1;
#N canvas 2055 62 450 586 init 0;
#X obj 222 450 outlet;
#X obj 159 100 loadbang;
#X obj 235 267 tgl 15 0 empty empty empty 17 7 0 10 -262144 -1 -1 0
1;
#X obj 235 295 s \$1-on;
#X msg 196 219 1, f 1;
#X msg 137 222 0;
#X obj 236 138 bng 15 250 50 0 empty empty empty 17 7 0 10 -262144
-1 -1;
#X obj 146 184 t b b b;
#X obj 54 145 inlet;
#X connect 1 0 7 0;
#X connect 2 0 3 0;
#X connect 4 0 2 0;
#X connect 5 0 2 0;
#X connect 6 0 7 0;
#X connect 7 0 5 0;
#X connect 7 1 0 0;
#X connect 7 2 4 0;
#X connect 8 0 7 0;
#X restore 670 544 pd init;
#X obj 24 188 sel -261;
#X obj 23 216 t b;
#X msg 23 239 0;
#X obj 69 211 t b;
#X msg 69 234 1;
#X obj 55 289 tgl 15 0 empty empty empty 17 7 0 10 -262144 -1 -1 0
1;
#X obj 55 310 change;
#X obj 113 255 tgl 15 0 empty empty empty 17 7 0 10 -262144 -1 -1 0
1;
#X obj 112 231 r \$1-on;
#X obj 37 334 s DECSET-GRI-fragseq\$2-on-rcv;
#X obj 123 357 s DECSET-GRI-fragseq\$2-reset-rcv;
#X obj 196 504 s concert-mute-\$2;
#X obj 201 482 tgl 15 0 empty empty empty 17 7 0 10 -262144 -1 -1 0
1;
#X obj 124 462 tgl 15 0 empty empty empty 17 7 0 10 -262144 -1 -1 1
1;
#X obj 124 438 r concert-mute-\$2;
#X obj 76 461 sel 0;
#X obj 65 581 s \$1-on;
#X obj 488 750 aptab2 MASTERschoolscape seqx-\$1 seqx-\$1 128 1;
#X obj 487 774 aptab2 MASTERschoolscape seqy-\$1 seqy-\$1 128 1;
#X obj 485 796 aptab2 MASTERschoolscape seqon-\$1 seqon-\$1 128 1;
#X connect 2 0 1 0;
#X connect 2 0 4 0;
#X connect 2 0 74 1;
#X connect 2 1 3 0;
#X connect 2 1 70 0;
#X connect 2 1 80 1;
#X connect 4 0 64 0;
#X connect 6 0 27 1;
#X connect 9 0 7 0;
#X connect 10 0 6 1;
#X connect 12 0 13 0;
#X connect 13 0 17 1;
#X connect 14 0 15 0;
#X connect 14 1 16 0;
#X connect 15 0 12 0;
#X connect 16 0 12 0;
#X connect 19 0 24 0;
#X connect 22 0 9 1;
#X connect 22 0 73 0;
#X connect 25 0 14 0;
#X connect 26 0 2 0;
#X connect 28 0 6 0;
#X connect 29 0 10 0;
#X connect 30 0 68 1;
#X connect 31 0 30 1;
#X connect 32 0 30 0;
#X connect 33 0 31 0;
#X connect 34 0 35 0;
#X connect 35 0 55 0;
#X connect 36 0 35 1;
#X connect 37 0 38 0;
#X connect 38 0 36 0;
#X connect 40 0 41 0;
#X connect 41 0 56 0;
#X connect 42 0 41 1;
#X connect 43 0 44 0;
#X connect 44 0 42 0;
#X connect 46 0 92 0;
#X connect 50 0 9 1;
#X connect 51 0 53 0;
#X connect 52 0 54 0;
#X connect 53 0 52 0;
#X connect 54 0 60 0;
#X connect 55 0 39 0;
#X connect 55 0 49 0;
#X connect 56 0 45 0;
#X connect 56 0 48 0;
#X connect 59 0 60 1;
#X connect 59 0 50 0;
#X connect 60 0 50 0;
#X connect 61 0 100 0;
#X connect 66 0 65 0;
#X connect 66 0 69 0;
#X connect 67 0 93 0;
#X connect 70 0 71 0;
#X connect 70 0 72 0;
#X connect 72 0 66 0;
#X connect 74 0 27 0;
#X connect 75 0 79 0;
#X connect 76 0 74 0;
#X connect 77 0 76 1;
#X connect 78 0 77 0;
#X connect 79 0 76 0;
#X connect 80 0 68 0;
#X connect 81 0 85 0;
#X connect 82 0 80 0;
#X connect 83 0 82 1;
#X connect 84 0 83 0;
#X connect 85 0 82 0;
#X connect 86 0 20 0;
#X connect 86 0 89 0;
#X connect 88 0 86 0;
#X connect 89 0 23 0;
#X connect 90 0 89 1;
#X connect 91 0 90 0;
#X connect 92 1 70 0;
#X connect 92 1 62 0;
#X connect 93 1 5 0;
#X connect 93 1 4 0;
#X connect 93 1 101 0;
#X connect 94 0 97 0;
#X connect 95 0 98 0;
#X connect 96 0 100 0;
#X connect 99 0 94 0;
#X connect 99 0 95 0;
#X connect 100 0 99 0;
#X connect 101 0 102 0;
#X connect 101 1 104 0;
#X connect 102 0 103 0;
#X connect 103 0 106 0;
#X connect 104 0 105 0;
#X connect 105 0 106 0;
#X connect 106 0 107 0;
#X connect 107 0 110 0;
#X connect 108 0 106 0;
#X connect 109 0 108 0;
#X connect 113 0 112 0;
#X connect 115 0 114 0;
#X connect 115 0 116 0;
#X connect 116 0 106 0;
