#N canvas 551 288 736 787 10;
#X obj 199 571 outlet;
#X floatatom 217 50 5 0 0 0 - - -;
#X obj 253 42 unpack f f;
#X floatatom 332 46 5 0 0 0 - - -;
#X obj 247 72 maxlib/scale -260 260 0 1;
#X floatatom 154 40 5 0 0 0 - - -;
#X obj 255 136 i;
#X obj 278 144 * 24;
#X obj 274 167 + 52;
#X obj 126 104 spigot;
#X obj 247 107 * 6.9;
#X obj 380 344 t b;
#X obj 267 578 print;
#X obj 379 302 spigot;
#X obj 186 122 tgl 15 0 empty empty empty 17 7 0 10 -262144 -1 -1 0
1;
#X floatatom 377 427 5 0 0 0 - - -;
#X obj 620 103 line;
#X obj 620 126 pow 4;
#X obj 620 51 sel 1 0;
#X msg 620 76 1;
#X msg 656 75 0 1500;
#X obj 599 158 mull~ 1 10;
#X floatatom 390 384 5 0 0 0 - - -;
#X floatatom 588 409 5 0 0 0 - - -;
#X floatatom 352 616 5 0 0 0 - - -;
#X obj 138 145 r \$1-rel;
#X obj 422 257 r \$1-on;
#X obj 395 647 s \$1-DefileSeq;
#X obj 585 442 s \$1-rel;
#X obj 620 29 r \$1-on;
#X obj 255 19 r \$1-move;
#X obj 14 129 tabwrite seqx-\$1 32;
#X obj 129 74 r \$1-DefileSeq;
#X obj 185 98 r \$1-on;
#X obj 496 199 spigot;
#X obj 556 217 tgl 15 0 empty empty empty 17 7 0 10 -262144 -1 -1 0
1;
#X obj 499 169 r \$1-DefileSeq;
#X obj 555 193 r \$1-on;
#X obj 100 655 r \$1-DefileSeq;
#X obj 100 679 spigot;
#X obj 157 684 tgl 15 0 empty empty empty 17 7 0 10 -262144 -1 -1 0
1;
#X obj 218 670 r \$1-on;
#X obj 177 688 != 1;
#X floatatom 97 754 5 0 0 0 - - -;
#X obj 292 658 r \$1-DefileSeq;
#X obj 292 682 spigot;
#X obj 349 687 tgl 15 0 empty empty empty 17 7 0 10 -262144 -1 -1 0
1;
#X obj 410 673 r \$1-on;
#X obj 369 691 != 1;
#X floatatom 289 757 5 0 0 0 - - -;
#X obj 415 6 r seqy-\$1 32;
#X floatatom 480 754 5 0 0 0 - - -;
#X obj 337 743 s seqy-\$1 32;
#X obj 123 742 s seqx-\$1 32;
#X obj 442 325 tgl 15 0 empty empty empty 17 7 0 10 -262144 -1 -1 0
1;
#X obj 520 313 r \$1-on;
#X obj 520 357 del 100;
#X obj 520 335 sel 0;
#X msg 522 378 1, f 1;
#X obj 100 711 tabread seqx-\$1 128;
#X obj 292 714 tabread seqy-\$1 128;
#X obj 541 543 table seqy-\$1 128;
#X obj 538 521 table seqx-\$1 128;
#X obj 594 253 tgl 15 0 \$1-note1-on-snd \$1-note1-on-rcv \$1-note1-on
17 7 0 10 -262144 -1 -1 0 1;
#X obj 521 400 spigot;
#X obj 570 677 s seqx-\$1 128;
#X obj 596 727 s seqy-\$1 128;
#X obj 586 616 r GRIreset;
#X floatatom 414 35 5 0 0 0 - - -;
#X obj 539 569 table seqon-\$1 128;
#X obj 77 402 s DECSET-GRI-fragseq4-pos-rcv;
#X obj 138 364 s DECSET-GRI-fragseq4-DivSpeed;
#X obj 314 138 abs;
#X obj 143 9 r seqx-\$1;
#X obj 402 236 tabwrite seqy-\$1;
#X floatatom 361 146 5 0 0 0 - - -;
#X obj 311 94 maxlib/scale 140 -140 0 1;
#X floatatom 356 123 5 0 0 0 - - -;
#X obj 313 118 - 1;
#X msg 586 652 const 268;
#X msg 664 647 const 107;
#X obj 447 292 tgl 15 0 empty empty empty 17 7 0 10 -262144 -1 -1 0
1;
#X obj 22 88 f;
#X obj 17 15 r \$1-DefileSeq;
#X obj 29 59 spigot;
#X obj 89 77 tgl 15 0 empty empty empty 17 7 0 10 -262144 -1 -1 0 1
;
#X obj 88 53 r \$1-on;
#X obj 21 38 t b;
#X obj 442 171 f;
#X obj 487 91 r \$1-DefileSeq;
#X obj 487 135 spigot;
#X obj 533 151 tgl 15 0 empty empty empty 17 7 0 10 -262144 -1 -1 0
1;
#X obj 532 127 r \$1-on;
#X obj 486 113 t b;
#X obj 356 575 ndmetro 128 8;
#X obj 353 468 r CLOCK;
#X obj 339 507 r \$1-mulCLOCK;
#N canvas 2067 564 392 401 SoloPlay 0;
#X obj 99 18 inlet;
#X obj 99 308 outlet;
#X obj 192 79 inlet;
#X obj 132 65 != 1;
#X obj 132 88 tgl 15 0 empty empty empty 17 7 0 10 -262144 -1 -1 0
1;
#X obj 191 105 sel 0 1;
#X msg 191 130 0, f 1;
#X msg 210 136 1, f 1;
#X obj 132 216 spigot;
#X obj 99 281 spigot 1;
#X obj 132 44 r instrument_touched-\$2;
#X connect 0 0 9 0;
#X connect 2 0 5 0;
#X connect 3 0 4 0;
#X connect 4 0 8 0;
#X connect 5 0 6 0;
#X connect 5 1 7 0;
#X connect 6 0 8 1;
#X connect 7 0 8 1;
#X connect 8 0 9 1;
#X connect 9 0 1 0;
#X connect 10 0 3 0;
#X restore 422 619 pd SoloPlay;
#X obj 505 582 tgl 15 1 \$1-SoloPlay-snd \$1-SoloPlay-rcv SoloPlay
17 7 0 10 -262144 -1 -1 0 1;
#X obj 431 520 r SoloOnOff-\$2;
#X connect 2 0 1 0;
#X connect 2 0 4 0;
#X connect 2 0 82 1;
#X connect 2 1 3 0;
#X connect 2 1 76 0;
#X connect 2 1 88 1;
#X connect 4 0 70 0;
#X connect 7 0 8 0;
#X connect 9 0 31 1;
#X connect 10 0 6 0;
#X connect 13 0 11 0;
#X connect 14 0 9 1;
#X connect 16 0 17 0;
#X connect 17 0 21 1;
#X connect 18 0 19 0;
#X connect 18 1 20 0;
#X connect 19 0 16 0;
#X connect 20 0 16 0;
#X connect 23 0 28 0;
#X connect 26 0 13 1;
#X connect 26 0 81 0;
#X connect 29 0 18 0;
#X connect 30 0 2 0;
#X connect 32 0 9 0;
#X connect 33 0 14 0;
#X connect 34 0 74 1;
#X connect 35 0 34 1;
#X connect 36 0 34 0;
#X connect 37 0 35 0;
#X connect 38 0 39 0;
#X connect 39 0 59 0;
#X connect 40 0 39 1;
#X connect 41 0 42 0;
#X connect 42 0 40 0;
#X connect 44 0 45 0;
#X connect 45 0 60 0;
#X connect 46 0 45 1;
#X connect 47 0 48 0;
#X connect 48 0 46 0;
#X connect 50 0 68 0;
#X connect 50 0 76 0;
#X connect 54 0 13 1;
#X connect 55 0 57 0;
#X connect 56 0 58 0;
#X connect 57 0 56 0;
#X connect 58 0 64 0;
#X connect 59 0 43 0;
#X connect 59 0 53 0;
#X connect 60 0 49 0;
#X connect 60 0 52 0;
#X connect 63 0 64 1;
#X connect 63 0 54 0;
#X connect 64 0 54 0;
#X connect 67 0 79 0;
#X connect 67 0 80 0;
#X connect 72 0 71 0;
#X connect 72 0 75 0;
#X connect 73 0 5 0;
#X connect 73 0 4 0;
#X connect 76 0 77 0;
#X connect 76 0 78 0;
#X connect 78 0 72 0;
#X connect 79 0 65 0;
#X connect 80 0 66 0;
#X connect 82 0 31 0;
#X connect 83 0 87 0;
#X connect 84 0 82 0;
#X connect 85 0 84 1;
#X connect 86 0 85 0;
#X connect 87 0 84 0;
#X connect 88 0 74 0;
#X connect 89 0 93 0;
#X connect 90 0 88 0;
#X connect 91 0 90 1;
#X connect 92 0 91 0;
#X connect 93 0 90 0;
#X connect 94 0 24 0;
#X connect 94 0 97 0;
#X connect 96 0 94 0;
#X connect 97 0 27 0;
#X connect 98 0 97 1;
#X connect 99 0 98 0;
