#N canvas 2144 467 681 744 10;
#X obj 24 40 hsl 128 15 0 1 0 0 empty empty empty -2 -8 0 10 -262144
-1 -1 8165 1;
#N canvas 2125 808 450 299 GRIprog 0;
#X obj 67 173 outlet;
#X obj 35 29 r GRIwatt;
#X connect 1 0 0 0;
#X restore 28 19 pd GRIprog;
#X obj 16 233 decsample2 set-table 4 stretch-setting1;
#X obj 16 265 *~ 0.2;
#X obj 16 294 OutDec~;
#X obj 21 66 MORPHgroup DECSET GRI;
#X obj 128 421 apssb DECSET-GRI ssb1;
#X obj 129 518 apecho DECSET-GRI ech1;
#X obj 29 136 decoupeur_ctl stretch-setting4 DECSET;
#X obj 333 169 instrSwitch \$1;
#X obj 333 190 switch~;
#X obj 30 665 OutDec2~ \$1, f 49;
#X obj 333 70 s DECSET-GRI-fragseq4-on-rcv;
#X obj 333 46 change;
#X obj 333 25 r concert-instrument-isplaying-\$1;
#X obj 478 230 MulClock GRI-0 \$1;
#X obj 319 637 mull~ 1 10;
#X obj 102 600 r \$1-MessVeloce;
#X obj 30 638 mull~ 1 10;
#X obj 334 131 grilletouch GRI-0 \$1;
#X obj 17 321 stretcher DECSET-GRI fragseq4 set-table-4 \$1;
#X connect 0 0 5 0;
#X connect 1 0 0 0;
#X connect 2 0 3 0;
#X connect 3 0 4 0;
#X connect 3 0 4 1;
#X connect 6 0 7 0;
#X connect 7 0 18 0;
#X connect 7 0 16 0;
#X connect 9 0 10 0;
#X connect 13 0 12 0;
#X connect 14 0 13 0;
#X connect 16 0 11 1;
#X connect 17 0 16 1;
#X connect 17 0 18 1;
#X connect 18 0 11 0;
#X connect 20 0 6 0;
#X connect 20 0 18 0;
#X connect 20 1 6 0;
#X connect 20 1 16 0;
