#N canvas 820 582 603 785 10;
#X obj 27 41 hsl 128 15 0 1 0 0 empty empty empty -2 -8 0 10 -262144
-1 -1 3790 1;
#X obj 21 151 decoupeur_ctl decoupeur-setting1 DECSET;
#X obj 21 268 *~ 0.2;
#N canvas 1469 756 450 299 MALprog 0;
#X obj 35 29 r MALProg;
#X obj 94 269 outlet;
#X floatatom 158 64 5 0 0 0 - - -;
#X obj 15 72 moses 0.326;
#X floatatom 4 232 5 0 0 0 - - -;
#X obj 14 94 maxlib/scale 0 0.3 0 5;
#X obj 80 116 moses 0.5;
#X floatatom 24 267 5 0 0 0 - - -;
#X obj 80 139 maxlib/scale 0.3 0.5 5 7;
#X obj 133 163 moses 0.8;
#X obj 134 186 maxlib/scale 0.5 0.8 7 12;
#X floatatom 133 231 5 0 0 0 - - -;
#X obj 73 204 f;
#X obj 184 213 maxlib/scale 0.8 1 12 15;
#X obj 82 236 / 15;
#X floatatom 161 265 5 0 0 0 - - -;
#X connect 0 0 2 0;
#X connect 0 0 3 0;
#X connect 3 0 5 0;
#X connect 3 1 6 0;
#X connect 5 0 12 0;
#X connect 6 0 8 0;
#X connect 6 1 9 0;
#X connect 8 0 12 0;
#X connect 9 0 10 0;
#X connect 9 1 13 0;
#X connect 10 0 12 0;
#X connect 12 0 7 0;
#X connect 12 0 14 0;
#X connect 13 0 12 0;
#X connect 14 0 1 0;
#X connect 14 0 15 0;
#X restore 31 20 pd MALprog;
#X text 20 130 1>6:coton 7>8:synthetique 9>13:main 14>16:vidange;
#X obj 24 67 MORPHgroup DECSET SEQ1;
#X obj 21 326 fragseq DECSET-SEQ1 fragseq1;
#X obj 166 439 apflang DECSET-SEQ1 fl1;
#X obj 244 516 apvdel DECSET-SEQ1 vdl1;
#X obj 93 514 apvdel DECSET-SEQ1 vdl1;
#X obj 149 624 fdnrev DECSET-SEQ1 fd1;
#X obj 21 297 OutDec~;
#X obj 21 232 decsample2 set-table 0 decoupeur-setting1;
#X floatatom 176 37 5 0 0 0 - - -;
#X obj 383 185 instrSwitch \$1;
#X obj 383 240 switch~;
#X obj 44 740 OutDec2~ \$1, f 54;
#X obj 355 112 tgl 15 0 empty empty empty 17 7 0 10 -262144 -1 -1 1
1;
#X obj 355 136 s DECSET-SEQ1-fragseq1-on-rcv;
#X obj 355 87 change;
#X obj 355 42 r concert-instrument-isplaying-\$1;
#X obj 46 697 *~ 1.5;
#X obj 366 696 *~ 1.5;
#X obj 383 210 tgl 15 0 empty empty empty 17 7 0 10 -262144 -1 -1 1
1;
#N canvas 2379 62 706 715 mulClock 1;
#X obj 94 266 unpack f f f f f f f f, f 36;
#X obj 268 355 r CLOCK;
#X obj 268 378 unpack;
#X obj 268 410 mu;
#X obj 301 411 mu;
#X obj 283 468 pack f f;
#X obj 301 438 t b f;
#X obj 79 299 f;
#X obj 109 299 f;
#X obj 139 299 f;
#X obj 170 299 f;
#X obj 200 299 f;
#X obj 231 299 f;
#X obj 261 299 f;
#X obj 292 299 f;
#X obj 79 206 mod 8;
#X obj 79 230 sel 0 1 2 3 4 5 6 7, f 41;
#X obj 79 156 r CLOCK;
#X obj 79 179 unpack;
#X obj 406 272 unpack f f f f f f f f, f 36;
#X obj 391 305 f;
#X obj 421 305 f;
#X obj 451 305 f;
#X obj 482 305 f;
#X obj 512 305 f;
#X obj 543 305 f;
#X obj 573 305 f;
#X obj 604 305 f;
#X obj 391 212 mod 8;
#X obj 391 236 sel 0 1 2 3 4 5 6 7, f 41;
#X obj 391 166 r CLOCK;
#X obj 391 189 unpack;
#X obj 273 660 s DECSET-SEQ1-fragseq1-mulCLOCK;
#X floatatom 38 281 5 0 0 0 - - -;
#X floatatom 184 456 5 0 0 0 - - -;
#X floatatom 424 451 5 0 0 0 - - -;
#X obj 468 45 8faders 0.125 1;
#X floatatom 350 271 5 0 0 0 - - -;
#X obj 370 487 tgl 30 0 TempoMess-DECSET-SEQ1-fragseq1-snd TempoMess-DECSET-SEQ1-fragseq1-rcv
TempoMess-1 17 7 0 10 -262144 -1 -1 1 1;
#X obj 362 594 r CLOCK;
#X obj 409 556 != 1;
#X floatatom 355 557 5 0 0 0 - - -;
#X floatatom 477 570 5 0 0 0 - - -;
#X obj 246 567 spigot 0;
#X obj 376 624 spigot 1;
#X obj 143 36 8faders 0 2;
#X obj 481 640 s DECSET-SEQ2-fragseq2-mulCLOCK;
#X obj 475 607 r CLOCK;
#X connect 0 0 7 1;
#X connect 0 1 8 1;
#X connect 0 2 9 1;
#X connect 0 3 10 1;
#X connect 0 4 11 1;
#X connect 0 5 12 1;
#X connect 0 6 13 1;
#X connect 0 7 14 1;
#X connect 1 0 2 0;
#X connect 2 0 3 0;
#X connect 2 1 4 0;
#X connect 3 0 5 0;
#X connect 3 0 34 0;
#X connect 4 0 6 0;
#X connect 4 0 35 0;
#X connect 5 0 43 0;
#X connect 6 0 5 0;
#X connect 6 1 5 1;
#X connect 7 0 3 1;
#X connect 8 0 3 1;
#X connect 9 0 3 1;
#X connect 10 0 3 1;
#X connect 11 0 3 1;
#X connect 12 0 3 1;
#X connect 13 0 3 1;
#X connect 14 0 3 1;
#X connect 15 0 16 0;
#X connect 15 0 33 0;
#X connect 16 0 7 0;
#X connect 16 1 8 0;
#X connect 16 2 9 0;
#X connect 16 3 10 0;
#X connect 16 4 11 0;
#X connect 16 5 12 0;
#X connect 16 6 13 0;
#X connect 16 7 14 0;
#X connect 17 0 18 0;
#X connect 18 0 15 0;
#X connect 19 0 20 1;
#X connect 19 1 21 1;
#X connect 19 2 22 1;
#X connect 19 3 23 1;
#X connect 19 4 24 1;
#X connect 19 5 25 1;
#X connect 19 6 26 1;
#X connect 19 7 27 1;
#X connect 20 0 4 1;
#X connect 21 0 4 1;
#X connect 22 0 4 1;
#X connect 23 0 4 1;
#X connect 24 0 4 1;
#X connect 25 0 4 1;
#X connect 26 0 4 1;
#X connect 27 0 4 1;
#X connect 28 0 29 0;
#X connect 28 0 37 0;
#X connect 29 0 20 0;
#X connect 29 1 21 0;
#X connect 29 2 22 0;
#X connect 29 3 23 0;
#X connect 29 4 24 0;
#X connect 29 5 25 0;
#X connect 29 6 26 0;
#X connect 29 7 27 0;
#X connect 30 0 31 0;
#X connect 31 0 28 0;
#X connect 36 0 19 0;
#X connect 38 0 40 0;
#X connect 38 0 41 0;
#X connect 38 0 43 1;
#X connect 39 0 44 0;
#X connect 40 0 42 0;
#X connect 40 0 44 1;
#X connect 43 0 32 0;
#X connect 44 0 32 0;
#X connect 45 0 0 0;
#X connect 47 0 46 0;
#X restore 492 321 pd mulClock;
#X connect 0 0 5 0;
#X connect 2 0 11 0;
#X connect 2 0 11 1;
#X connect 3 0 0 0;
#X connect 6 0 7 0;
#X connect 6 0 9 0;
#X connect 6 0 10 0;
#X connect 6 0 21 0;
#X connect 6 1 8 0;
#X connect 6 1 10 0;
#X connect 6 1 22 0;
#X connect 6 1 7 0;
#X connect 7 0 21 0;
#X connect 7 0 22 0;
#X connect 8 0 22 0;
#X connect 9 0 21 0;
#X connect 10 0 21 0;
#X connect 10 1 22 0;
#X connect 12 0 2 0;
#X connect 14 0 23 0;
#X connect 17 0 18 0;
#X connect 19 0 17 0;
#X connect 20 0 19 0;
#X connect 21 0 16 0;
#X connect 22 0 16 1;
#X connect 23 0 15 0;
