#N canvas 820 582 603 785 10;
#X obj 27 41 hsl 128 15 0 1 0 0 empty empty empty -2 -8 0 10 -262144
-1 -1 0 1;
#X obj 21 151 decoupeur_ctl decoupeur-setting1 DECSET;
#X obj 21 268 *~ 0.2;
#N canvas 1469 756 450 299 MALprog 0;
#X obj 35 29 r MALProg;
#X obj 94 269 outlet;
#X floatatom 158 64 5 0 0 0 - - -;
#X obj 15 72 moses 0.326;
#X floatatom 4 232 5 0 0 0 - - -;
#X obj 14 94 maxlib/scale 0 0.3 0 5;
#X obj 80 116 moses 0.5;
#X floatatom 24 267 5 0 0 0 - - -;
#X obj 80 139 maxlib/scale 0.3 0.5 5 7;
#X obj 133 163 moses 0.8;
#X obj 134 186 maxlib/scale 0.5 0.8 7 12;
#X floatatom 133 231 5 0 0 0 - - -;
#X obj 73 204 f;
#X obj 184 213 maxlib/scale 0.8 1 12 15;
#X obj 82 236 / 15;
#X floatatom 161 265 5 0 0 0 - - -;
#X connect 0 0 2 0;
#X connect 0 0 3 0;
#X connect 3 0 5 0;
#X connect 3 1 6 0;
#X connect 5 0 12 0;
#X connect 6 0 8 0;
#X connect 6 1 9 0;
#X connect 8 0 12 0;
#X connect 9 0 10 0;
#X connect 9 1 13 0;
#X connect 10 0 12 0;
#X connect 12 0 7 0;
#X connect 12 0 14 0;
#X connect 13 0 12 0;
#X connect 14 0 1 0;
#X connect 14 0 15 0;
#X restore 31 20 pd MALprog;
#X text 20 130 1>6:coton 7>8:synthetique 9>13:main 14>16:vidange;
#X obj 24 67 MORPHgroup DECSET SEQ1;
#X obj 21 326 fragseq DECSET-SEQ1 fragseq1;
#X obj 166 439 apflang DECSET-SEQ1 fl1;
#X obj 244 516 apvdel DECSET-SEQ1 vdl1;
#X obj 93 514 apvdel DECSET-SEQ1 vdl1;
#X obj 149 624 fdnrev DECSET-SEQ1 fd1;
#X obj 21 297 OutDec~;
#X obj 21 232 decsample2 set-table 0 decoupeur-setting1;
#X floatatom 176 37 5 0 0 0 - - -;
#X obj 383 185 instrSwitch \$1;
#X obj 383 240 switch~;
#X obj 44 740 OutDec2~ \$1, f 54;
#X obj 355 112 tgl 15 0 empty empty empty 17 7 0 10 -262144 -1 -1 1
1;
#X obj 355 136 s DECSET-SEQ1-fragseq1-on-rcv;
#X obj 355 87 change;
#X obj 355 42 r concert-instrument-isplaying-\$1;
#X obj 46 697 *~ 1.5;
#X obj 366 696 *~ 1.5;
#X obj 383 210 tgl 15 0 empty empty empty 17 7 0 10 -262144 -1 -1 1
1;
#N canvas 2379 62 450 550 mulClock 1;
#X floatatom 260 264 5 0 0 0 - - -;
#X obj 241 305 s DECSET-SEQ1-fragseq1-mulCLOCK;
#X obj 132 23 r CLOCK;
#X floatatom 220 66 5 0 0 0 - - -;
#X obj 220 21 r /BPM;
#X floatatom 68 142 5 0 0 0 - - -;
#X obj 43 116 mod 8;
#X obj 85 71 unpack;
#X floatatom 125 137 5 0 0 0 - - -;
#X obj 34 377 bng 15 250 50 0 empty empty empty 17 7 0 10 -262144 -1
-1;
#X obj 62 377 bng 15 250 50 0 empty empty empty 17 7 0 10 -262144 -1
-1;
#X obj 40 410 timer;
#X floatatom 40 436 5 0 0 0 - - -;
#X obj 40 461 / 4;
#X floatatom 40 486 5 0 0 0 - - -;
#X msg 321 448 0.125;
#X msg 25 204 0.25;
#X msg 153 375 0.375;
#X msg 52 229 0.5;
#X msg 80 253 0.75;
#X msg 108 280 1;
#X msg 135 259 1.25;
#X msg 163 238 1.5;
#X msg 191 217 1.75;
#X obj 25 173 sel 0 1 2 3 4 5 6 7, f 37;
#X msg 214 197 2;
#X obj 102 327 f;
#X floatatom 111 359 5 0 0 0 - - -;
#X obj 309 42 vsl 15 128 1 2 0 0 empty empty empty 0 -9 0 10 -262144
-1 -1 0 1;
#X obj 309 210 /;
#X obj 309 180 t b f;
#X connect 0 0 1 0;
#X connect 2 0 7 0;
#X connect 4 0 3 0;
#X connect 6 0 5 0;
#X connect 6 0 24 0;
#X connect 7 0 6 0;
#X connect 7 1 8 0;
#X connect 9 0 11 0;
#X connect 10 0 11 1;
#X connect 11 0 12 0;
#X connect 12 0 13 0;
#X connect 13 0 14 0;
#X connect 16 0 26 0;
#X connect 18 0 26 0;
#X connect 19 0 26 0;
#X connect 20 0 26 0;
#X connect 21 0 26 0;
#X connect 22 0 26 0;
#X connect 23 0 26 0;
#X connect 24 0 16 0;
#X connect 24 1 18 0;
#X connect 24 2 19 0;
#X connect 24 3 20 0;
#X connect 24 4 21 0;
#X connect 24 5 22 0;
#X connect 24 6 23 0;
#X connect 24 7 25 0;
#X connect 25 0 26 0;
#X connect 26 0 27 0;
#X connect 26 0 29 0;
#X connect 28 0 30 0;
#X connect 29 0 0 0;
#X connect 30 0 29 0;
#X connect 30 1 29 1;
#X restore 492 321 pd mulClock;
#X connect 0 0 5 0;
#X connect 2 0 11 0;
#X connect 2 0 11 1;
#X connect 3 0 0 0;
#X connect 6 0 7 0;
#X connect 6 0 9 0;
#X connect 6 0 10 0;
#X connect 6 0 21 0;
#X connect 6 1 8 0;
#X connect 6 1 10 0;
#X connect 6 1 22 0;
#X connect 6 1 7 0;
#X connect 7 0 21 0;
#X connect 7 0 22 0;
#X connect 8 0 22 0;
#X connect 9 0 21 0;
#X connect 10 0 21 0;
#X connect 10 1 22 0;
#X connect 12 0 2 0;
#X connect 14 0 23 0;
#X connect 17 0 18 0;
#X connect 19 0 17 0;
#X connect 20 0 19 0;
#X connect 21 0 16 0;
#X connect 22 0 16 1;
#X connect 23 0 15 0;
