#N canvas 1104 2009 816 892 10;
#X obj 140 651 outlet;
#X obj 253 92 unpack f f;
#X obj 247 122 maxlib/scale -260 260 0 1;
#X obj 311 144 maxlib/scale 106 -106 0 1;
#X obj 376 346 ndmetro 4 4;
#X obj 283 303 r CLOCK;
#X msg 384 315 nd \$1 \$2;
#X obj 255 186 i;
#X obj 185 351 bng 15 250 50 0 empty empty empty 17 7 0 10 -262144
-1 -1;
#X obj 311 168 * 24;
#N canvas 1609 1332 380 378 GR 0;
#X obj 47 18 inlet;
#X obj 47 51 unpack f f;
#X obj 41 289 pack f f;
#X obj 77 249 t b f;
#X obj 41 318 outlet;
#X obj 186 64 r \$1-Note_adjust-snd;
#X obj 40 215 gammeRound \$3;
#X obj 133 11 r \$1-Pitch-snd;
#X floatatom 133 133 5 0 0 0 - - -;
#X floatatom 186 170 8 0 0 0 - - -;
#X obj 133 35 / 127, f 6;
#X obj 133 58 * 24;
#X obj 133 81 - 12;
#X obj 47 138 ++ 0;
#X obj 133 104 i;
#X floatatom 69 92 5 0 0 0 - - -;
#X obj 153 202 r TransposeAll;
#X floatatom 147 260 5 0 0 0 - - -;
#X floatatom 253 144 5 0 0 0 - - -;
#X obj 186 88 / 128;
#X obj 186 112 pow 3;
#X obj 186 138 * 10000;
#X obj 40 247 f;
#X connect 0 0 1 0;
#X connect 1 0 13 0;
#X connect 1 1 3 0;
#X connect 2 0 4 0;
#X connect 3 0 2 0;
#X connect 3 1 2 1;
#X connect 5 0 19 0;
#X connect 6 0 22 0;
#X connect 7 0 10 0;
#X connect 10 0 11 0;
#X connect 11 0 12 0;
#X connect 12 0 14 0;
#X connect 13 0 6 0;
#X connect 14 0 8 0;
#X connect 14 0 13 1;
#X connect 16 0 6 2;
#X connect 16 0 17 0;
#X connect 19 0 20 0;
#X connect 20 0 21 0;
#X connect 21 0 6 1;
#X connect 21 0 9 0;
#X connect 22 0 2 0;
#X restore 239 567 pd GR;
#X obj 224 357 f;
#X obj 229 399 t f f;
#X obj 126 154 spigot;
#X obj 294 421 t b f;
#X obj 319 480 f;
#X obj 288 388 t b;
#X obj 299 450 del 50;
#X obj 359 451 bng 15 250 50 0 empty empty empty 17 7 0 10 -262144
-1 -1;
#X obj 281 18 print;
#X obj 303 365 spigot;
#X obj 45 341 tgl 15 0 empty empty empty 17 7 0 10 -262144 -1 -1 0
1;
#X obj 96 434 i;
#X obj 127 433 + 1;
#X floatatom 140 562 5 0 0 0 - - -;
#X obj 85 529 f;
#X obj 90 501 t b f;
#X msg 143 525 0;
#X obj 108 249 sel 0;
#X msg 91 299 1, f 1;
#X obj 108 272 del 1000;
#X msg 114 317 1, f 1;
#X obj 112 297 del 500;
#X obj 343 564 r CLOCK;
#X obj 351 411 r \$1-rel;
#X obj 123 212 r \$1-on;
#X obj 352 654 s \$1-DefileSeq;
#X obj 597 458 s \$1-rel;
#X obj 253 58 r \$1-move;
#X obj 14 179 tabwrite seqx-\$1 32;
#X obj 129 124 r \$1-DefileSeq;
#X obj 185 148 r \$1-on;
#X obj 618 45 spigot;
#X obj 614 6 r \$1-DefileSeq;
#X obj 671 28 r \$1-on;
#X obj 453 109 tabwrite seqy-\$1 32;
#X obj 100 705 r \$1-DefileSeq;
#X obj 100 729 spigot;
#X obj 218 720 r \$1-on;
#X obj 177 738 != 1;
#X obj 292 708 r \$1-DefileSeq;
#X obj 292 732 spigot;
#X obj 410 723 r \$1-on;
#X obj 369 741 != 1;
#X obj 330 21 r seqy-\$1 32;
#X obj 292 789 s seqy-\$1 32;
#X obj 100 786 s seqx-\$1 32;
#X obj 167 26 r seqx-\$1 32;
#X obj 442 375 tgl 15 0 empty empty empty 17 7 0 10 -262144 -1 -1 0
1;
#X obj 520 363 r \$1-on;
#X obj 520 407 del 100;
#X obj 520 385 sel 0;
#X msg 522 428 1, f 1;
#X obj 100 761 tabread seqx-\$1 128;
#X obj 292 764 tabread seqy-\$1 128;
#X obj 486 544 table seqy-\$1 128;
#X obj 483 522 table seqx-\$1 128;
#X obj 594 303 tgl 15 0 \$1-note1-on-snd \$1-note1-on-rcv \$1-note1-on
17 7 0 10 -262144 -1 -1 0 1;
#X obj 521 450 spigot;
#X msg 98 356 1, f 1;
#X obj 118 343 del 500;
#X obj 525 721 s seqx-\$1 128;
#X obj 617 721 s seqy-\$1 128;
#X msg 118 387 1, f 1;
#X obj 118 365 del 500;
#X obj 187 562 print;
#X obj 26 119 f;
#X obj 21 46 r \$1-DefileSeq;
#X obj 246 329 change;
#X obj 451 83 f;
#X obj 496 3 r \$1-DefileSeq;
#X obj 33 90 spigot;
#X obj 92 84 r \$1-on;
#X obj 496 47 spigot;
#X obj 547 25 r \$1-on;
#X obj 25 69 t b;
#X obj 495 25 t b;
#X msg 223 485 \$1 80;
#X msg 320 503 \$1 0;
#X msg 75 556 \$1 0;
#X obj 95 587 pack f f;
#X obj 314 529 pack f f;
#X obj 210 514 pack f f;
#X obj 97 457 + 0;
#X obj 166 468 sel 128;
#X obj 246 610 unpack f f;
#X obj 596 403 loadbang;
#X obj 99 409 metro 5;
#X obj 6 214 tgl 15 0 \$1-note1-on-snd \$1-note1-on-rcv \$1-note1-on
17 7 0 10 -262144 -1 -1 0 1;
#X obj 597 429 \$2;
#X obj 247 157 * 6.9;
#X obj 338 224 sel 0 1 2 3 4 5 6, f 29;
#X msg 663 266 0 0;
#X obj 307 191 + \$4;
#X obj 341 67 route const;
#X obj 169 64 route const;
#X floatatom 295 657 5 0 0 0 - - -;
#X floatatom 332 680 5 0 0 0 - - -;
#X obj 343 587 ndmetro 128 8;
#X msg 290 262 2 0.5;
#X msg 336 261 2 0.75;
#X msg 401 259 2 1;
#X msg 444 262 2 2;
#X msg 499 260 2 3;
#X msg 534 262 2 4;
#X msg 592 268 2 8;
#X obj 208 232 r \$1-mulCLOCK;
#X obj 498 593 r \$1-mulCLOCK;
#X obj 149 191 print;
#N canvas 2067 939 392 401 SoloPlay 0;
#X obj 99 18 inlet;
#X obj 99 308 outlet;
#X obj 192 79 inlet;
#X obj 132 65 != 1;
#X obj 132 44 r instrument_touched-\$5;
#X obj 132 88 tgl 15 0 empty empty empty 17 7 0 10 -262144 -1 -1 1
1;
#X obj 191 105 sel 0 1;
#X msg 191 130 0, f 1;
#X msg 210 136 1, f 1;
#X obj 132 216 spigot;
#X obj 99 281 spigot 1;
#X connect 0 0 10 0;
#X connect 2 0 6 0;
#X connect 3 0 5 0;
#X connect 4 0 3 0;
#X connect 5 0 9 0;
#X connect 6 0 7 0;
#X connect 6 1 8 0;
#X connect 7 0 9 1;
#X connect 8 0 9 1;
#X connect 9 0 10 1;
#X connect 10 0 1 0;
#X restore 381 619 pd SoloPlay;
#X obj 358 388 print;
#X obj 464 582 tgl 15 1 \$1-SoloPlay-snd \$1-SoloPlay-rcv SoloPlay
17 7 0 10 -262144 -1 -1 0 1;
#X obj 435 412 sel 0;
#X msg 417 442 1;
#X obj 447 442 del 10;
#X msg 447 467 0;
#X obj 413 493 tgl 15 0 empty empty empty 17 7 0 10 -262144 -1 -1 0
1;
#X obj 390 520 r SoloOnOff-\$5;
#X msg 541 696 const -261;
#X msg 616 695 const -141;
#N canvas 2055 62 450 586 init 0;
#X obj 222 450 outlet;
#X obj 159 100 loadbang;
#X obj 235 267 tgl 15 0 empty empty empty 17 7 0 10 -262144 -1 -1 0
1;
#X obj 235 295 s \$1-on;
#X msg 196 219 1, f 1;
#X msg 137 222 0;
#X obj 236 138 bng 15 250 50 0 empty empty empty 17 7 0 10 -262144
-1 -1;
#X obj 146 184 t b b b;
#X obj 54 145 inlet;
#X connect 1 0 7 0;
#X connect 2 0 3 0;
#X connect 4 0 2 0;
#X connect 5 0 2 0;
#X connect 6 0 7 0;
#X connect 7 0 5 0;
#X connect 7 1 0 0;
#X connect 7 2 4 0;
#X connect 8 0 7 0;
#X restore 623 590 pd init;
#X obj 619 546 r \$1-reset;
#X obj 686 583 bng 15 250 50 0 empty empty empty 17 7 0 10 -262144
-1 -1;
#X obj 613 100 sel -261;
#X obj 612 128 t b;
#X msg 612 151 0;
#X obj 658 123 t b;
#X msg 658 146 1;
#X obj 650 180 tgl 15 0 empty empty empty 17 7 0 10 -262144 -1 -1 0
1;
#X obj 726 333 change;
#X obj 702 167 tgl 15 0 empty empty empty 17 7 0 10 -262144 -1 -1 0
1;
#X obj 701 143 r \$1-on;
#X obj 736 219 tgl 15 0 empty empty empty 17 7 0 10 -262144 -1 -1 0
1;
#X obj 701 192 r concert-mute-\$2;
#X obj 692 224 sel 0;
#X obj 721 376 s VolVox-\$5;
#X obj 204 656 print;
#X msg 675 421 1000;
#X obj 445 813 aptab2 SONGschoolscape seqx-\$1 seqx-\$1 128 1;
#X obj 445 834 aptab2 SONGschoolscape seqy-\$1 seqy-\$1 128 1;
#X connect 1 0 2 0;
#X connect 1 0 76 1;
#X connect 1 1 3 0;
#X connect 1 1 79 1;
#X connect 2 0 100 0;
#X connect 3 0 9 0;
#X connect 4 0 20 0;
#X connect 6 0 4 0;
#X connect 7 0 101 0;
#X connect 8 0 11 0;
#X connect 9 0 103 0;
#X connect 10 0 0 0;
#X connect 10 0 95 0;
#X connect 11 0 12 0;
#X connect 12 0 87 0;
#X connect 13 0 39 1;
#X connect 14 0 17 0;
#X connect 14 1 15 1;
#X connect 15 0 88 0;
#X connect 16 0 11 0;
#X connect 17 0 15 0;
#X connect 18 0 15 0;
#X connect 20 0 16 0;
#X connect 21 0 97 0;
#X connect 22 0 23 0;
#X connect 22 0 93 0;
#X connect 23 0 22 1;
#X connect 25 0 89 0;
#X connect 26 0 25 0;
#X connect 26 1 25 1;
#X connect 27 0 21 0;
#X connect 27 0 22 0;
#X connect 28 0 30 0;
#X connect 29 0 21 0;
#X connect 30 0 29 0;
#X connect 30 0 32 0;
#X connect 31 0 21 0;
#X connect 32 0 31 0;
#X connect 32 0 70 0;
#X connect 33 0 108 0;
#X connect 34 0 17 1;
#X connect 35 0 20 1;
#X connect 35 0 28 0;
#X connect 38 0 1 0;
#X connect 40 0 13 0;
#X connect 41 0 13 1;
#X connect 42 0 45 1;
#X connect 43 0 42 0;
#X connect 44 0 42 1;
#X connect 46 0 47 0;
#X connect 47 0 63 0;
#X connect 48 0 49 0;
#X connect 49 0 47 1;
#X connect 50 0 51 0;
#X connect 51 0 64 0;
#X connect 52 0 53 0;
#X connect 53 0 51 1;
#X connect 54 0 104 0;
#X connect 57 0 105 0;
#X connect 58 0 20 1;
#X connect 58 0 122 0;
#X connect 59 0 61 0;
#X connect 60 0 62 0;
#X connect 61 0 60 0;
#X connect 62 0 68 0;
#X connect 63 0 56 0;
#X connect 64 0 55 0;
#X connect 67 0 68 1;
#X connect 67 0 58 0;
#X connect 68 0 58 0;
#X connect 69 0 21 0;
#X connect 70 0 69 0;
#X connect 70 0 74 0;
#X connect 73 0 21 0;
#X connect 74 0 73 0;
#X connect 76 0 39 0;
#X connect 77 0 85 0;
#X connect 78 0 11 1;
#X connect 79 0 45 0;
#X connect 80 0 86 0;
#X connect 81 0 76 0;
#X connect 82 0 81 1;
#X connect 83 0 79 0;
#X connect 84 0 83 1;
#X connect 85 0 81 0;
#X connect 86 0 83 0;
#X connect 87 0 92 0;
#X connect 88 0 91 0;
#X connect 89 0 90 0;
#X connect 90 0 0 0;
#X connect 91 0 10 0;
#X connect 92 0 10 0;
#X connect 93 0 26 0;
#X connect 93 0 94 0;
#X connect 94 0 27 0;
#X connect 95 0 14 0;
#X connect 96 0 99 0;
#X connect 97 0 22 0;
#X connect 98 0 28 0;
#X connect 99 0 37 0;
#X connect 100 0 7 0;
#X connect 101 0 109 0;
#X connect 101 1 110 0;
#X connect 101 2 111 0;
#X connect 101 3 112 0;
#X connect 101 4 113 0;
#X connect 101 5 114 0;
#X connect 101 6 115 0;
#X connect 101 7 102 0;
#X connect 102 0 6 0;
#X connect 103 0 78 0;
#X connect 104 1 3 0;
#X connect 105 1 2 0;
#X connect 105 1 133 0;
#X connect 108 0 119 0;
#X connect 109 0 6 0;
#X connect 110 0 6 0;
#X connect 111 0 6 0;
#X connect 112 0 6 0;
#X connect 113 0 6 0;
#X connect 114 0 6 0;
#X connect 115 0 6 0;
#X connect 116 0 4 0;
#X connect 119 0 36 0;
#X connect 121 0 119 1;
#X connect 122 0 123 0;
#X connect 122 0 124 0;
#X connect 123 0 126 0;
#X connect 124 0 125 0;
#X connect 125 0 126 0;
#X connect 127 0 121 0;
#X connect 128 0 71 0;
#X connect 129 0 72 0;
#X connect 130 0 128 0;
#X connect 130 0 129 0;
#X connect 131 0 130 0;
#X connect 131 0 132 0;
#X connect 133 0 134 0;
#X connect 133 1 136 0;
#X connect 134 0 135 0;
#X connect 135 0 138 0;
#X connect 136 0 137 0;
#X connect 137 0 138 0;
#X connect 138 0 139 0;
#X connect 139 0 145 0;
#X connect 140 0 138 0;
#X connect 141 0 140 0;
#X connect 143 0 142 0;
#X connect 143 0 144 0;
#X connect 144 0 138 0;
#X connect 147 0 37 0;
