#N canvas 383 582 650 943 10;
#X floatatom 74 49 5 0 0 0 - - -;
#X floatatom 122 56 5 0 0 0 - - -;
#X floatatom 240 99 5 0 0 0 - - -;
#X floatatom 213 182 5 0 0 0 - - -;
#X obj 78 125 pofrect 650 345 10 10 0 0;
#X obj 78 102 pofcolor 0.1 0.8 0.1 1;
#X floatatom 363 183 5 0 0 0 - - -;
#X obj 69 333 nbx 6 14 -1e+37 1e+37 0 1 empty empty empty 0 -8 0 10
-262144 -1 -1 213 256;
#X obj 146 330 nbx 6 14 -1e+37 1e+37 0 1 empty empty empty 0 -8 0 10
-262144 -1 -1 -8 256;
#X obj 110 312 bng 15 250 50 0 empty empty empty 17 7 0 10 -262144
-1 -1;
#X floatatom 159 362 5 0 0 0 - - -;
#X floatatom 205 364 5 0 0 0 - - -;
#X floatatom 65 421 5 0 0 0 - - -;
#X obj 88 587 nbx 6 14 -1e+37 1e+37 0 1 empty empty empty 0 -8 0 10
-262144 -1 -1 0 256;
#X obj 166 556 nbx 6 14 -1e+37 1e+37 0 1 empty empty empty 0 -8 0 10
-262144 -1 -1 96 256;
#X obj 109 514 bng 15 250 50 0 empty empty empty 17 7 0 10 -262144
-1 -1;
#X floatatom 187 579 5 0 0 0 - - -;
#X floatatom 235 591 5 0 0 0 - - -;
#X floatatom 73 661 5 0 0 0 - - -;
#X obj 58 156 nbx 6 14 -1e+37 1e+37 0 1 empty empty empty 0 -8 0 10
-262144 -1 -1 0 256;
#X floatatom 124 154 5 0 0 0 - - -;
#X obj 68 226 poftouch 658 307;
#X obj 161 294 bng 15 250 50 0 empty empty empty 17 7 0 10 -262144
-1 -1;
#X obj 161 250 route down;
#X obj 161 269 b;
#X obj 68 203 pofimage instruments/PanneauMicro-onde.png 556 298;
#X obj 291 661 route up down;
#X obj 291 682 t b;
#X obj 328 682 t b;
#X msg 328 705 1, f 1;
#X msg 291 704 0, f 1;
#X obj 291 727 change;
#X floatatom 291 748 5 0 0 0 - - -;
#X obj 260 786 s MOminTouch;
#N canvas 725 1172 450 358 MOmin 0;
#X obj 126 57 inlet;
#X obj 166 192 s MOfiltreDisto-rcv;
#X connect 0 0 1 0;
#X restore 57 686 pd MOmin;
#X obj 277 419 route up down;
#X obj 277 440 t b;
#X obj 314 440 t b;
#X msg 314 463 1, f 1;
#X msg 277 462 0, f 1;
#X obj 277 485 change;
#X floatatom 277 506 5 0 0 0 - - -;
#X obj 249 532 s MOwattTouch;
#N canvas 725 1172 450 358 MOwatt 0;
#X obj 126 57 inlet;
#X obj 148 114 * 20;
#X obj 126 81 t f f;
#X obj 148 139 i;
#X floatatom 134 172 5 0 0 0 - - -;
#X msg 23 229 0, f 1;
#X obj 216 153 moses 16;
#X obj 207 187 t b;
#X msg 206 214 0, f 1;
#X obj 244 193 moses 19;
#X obj 244 216 t b;
#X obj 289 218 t b;
#X msg 243 243 1, f 1;
#X msg 288 245 2, f 1;
#X obj 233 277 change;
#X floatatom 247 325 5 0 0 0 - - -;
#X obj 44 132 s MOwatt;
#X obj 136 301 s nbDivMOwatt;
#X connect 0 0 2 0;
#X connect 1 0 3 0;
#X connect 2 0 16 0;
#X connect 2 1 1 0;
#X connect 3 0 4 0;
#X connect 3 0 6 0;
#X connect 6 0 7 0;
#X connect 6 1 9 0;
#X connect 7 0 8 0;
#X connect 8 0 14 0;
#X connect 9 0 10 0;
#X connect 9 1 11 0;
#X connect 10 0 12 0;
#X connect 11 0 13 0;
#X connect 12 0 14 0;
#X connect 13 0 14 0;
#X connect 14 0 15 0;
#X connect 14 0 17 0;
#X restore 82 467 pd MOwatt;
#X obj 50 384 imageKnob380 instruments/Watt.png 0.48;
#X obj 57 635 imageKnob380 instruments/Watt.png 0.47;
#N canvas 671 234 529 606 potars-gauche 0;
#X obj 20 19 inlet;
#X obj 66 64 nbx 6 14 -1e+37 1e+37 0 1 empty empty empty 0 -8 0 10
-262144 -1 -1 -428 256;
#X obj 144 43 nbx 6 14 -1e+37 1e+37 0 1 empty empty empty 0 -8 0 10
-262144 -1 -1 -96 256;
#X obj 107 43 bng 15 250 50 0 empty empty empty 17 7 0 10 -262144 -1
-1;
#X floatatom 139 64 5 0 0 0 - - -;
#X floatatom 187 76 5 0 0 0 - - -;
#X floatatom 72 152 5 0 0 0 - - -;
#X obj 162 348 nbx 6 14 -1e+37 1e+37 0 1 empty empty empty 0 -8 0 10
-262144 -1 -1 -1 256;
#X obj 240 317 nbx 6 14 -1e+37 1e+37 0 1 empty empty empty 0 -8 0 10
-262144 -1 -1 96 256;
#X obj 183 275 bng 15 250 50 0 empty empty empty 17 7 0 10 -262144
-1 -1;
#X floatatom 261 340 5 0 0 0 - - -;
#X floatatom 309 352 5 0 0 0 - - -;
#X floatatom 138 413 5 0 0 0 - - -;
#X obj 365 422 route up down;
#X obj 365 443 t b;
#X obj 402 443 t b;
#X msg 402 466 1, f 1;
#X msg 365 465 0, f 1;
#X obj 365 488 change;
#X floatatom 365 509 5 0 0 0 - - -;
#X obj 284 150 route up down;
#X obj 284 171 t b;
#X obj 321 171 t b;
#X msg 321 194 1, f 1;
#X msg 284 193 0, f 1;
#X obj 284 216 change;
#X floatatom 284 237 5 0 0 0 - - -;
#X obj 57 115 imageKnob380 instruments/Watt.png 0.48;
#X obj 131 396 imageKnob380 instruments/Watt.png 0.47;
#X obj 21 545 outlet;
#N canvas 725 1172 450 358 MOttaw 0;
#X obj 126 57 inlet;
#X obj 127 93 * 24;
#X obj 144 150 - 12;
#X obj 93 215 s fragseq2-AddPitch;
#X connect 0 0 1 0;
#X connect 1 0 2 0;
#X connect 2 0 3 0;
#X restore 89 198 pd MOttaw;
#N canvas 708 701 450 480 MOnim 0;
#X obj 126 57 inlet;
#X obj 170 230 s fragseq2-DivOption;
#X floatatom 106 202 5 0 0 0 - - -;
#X obj 130 99 * 40;
#X obj 275 64 t b f;
#X obj 253 107 * 0;
#X floatatom 296 182 5 0 0 0 - - -;
#X obj 283 26 r \$1-MessDecay;
#X floatatom 381 83 5 0 0 0 - - -;
#X connect 0 0 3 0;
#X connect 3 0 2 0;
#X connect 3 0 5 0;
#X connect 4 0 5 0;
#X connect 4 1 5 1;
#X connect 5 0 6 0;
#X connect 5 0 1 0;
#X connect 7 0 4 0;
#X connect 7 0 8 0;
#X restore 156 452 pd MOnim;
#X obj 334 547 s MOnimTouch;
#X obj 256 263 s MOttawTouch;
#X floatatom 417 41 5 0 0 0 - - -;
#X floatatom 463 39 5 0 0 0 - - -;
#X floatatom 257 7 5 0 0 0 - - -;
#X floatatom 305 14 5 0 0 0 - - -;
#X obj 265 62 pofimage instruments/Tourne.png -80 50;
#X obj 34 86 poftranslate -428 -96;
#X obj 101 369 poftranslate 0 96;
#N canvas 0 780 450 300 text 0;
#X obj 71 171 poftexts typo 18;
#X obj 176 39 loadbang;
#X obj 80 66 inlet;
#X floatatom 94 98 5 0 0 0 - - -;
#X floatatom 134 94 5 0 0 0 - - -;
#X msg 176 61 text Pitch;
#X obj 60 125 poftranslate 43 -32;
#X connect 1 0 5 0;
#X connect 2 0 6 0;
#X connect 3 0 6 1;
#X connect 4 0 6 2;
#X connect 5 0 0 0;
#X connect 6 0 0 0;
#X restore 18 176 pd text Pitch;
#N canvas 0 780 450 300 text 0;
#X obj 71 171 poftexts typo 18;
#X obj 176 39 loadbang;
#X obj 80 66 inlet;
#X floatatom 94 98 5 0 0 0 - - -;
#X floatatom 134 94 5 0 0 0 - - -;
#X msg 176 61 text Soft;
#X obj 60 125 poftranslate 43 -32;
#X connect 1 0 5 0;
#X connect 2 0 6 0;
#X connect 3 0 6 1;
#X connect 4 0 6 2;
#X connect 5 0 0 0;
#X connect 6 0 0 0;
#X restore 23 468 pd text Soft;
#X obj 211 33 poftranslate 150 -12;
#X floatatom 322 127 5 0 0 0 - - -;
#X obj 281 89 apf Inst-\$1 Pitch-\$1;
#X obj 357 368 apf Inst-\$1 Soft-\$1;
#X connect 0 0 39 0;
#X connect 1 0 39 1;
#X connect 2 0 39 2;
#X connect 3 0 1 0;
#X connect 3 0 2 0;
#X connect 4 0 27 1;
#X connect 5 0 27 2;
#X connect 7 0 40 1;
#X connect 8 0 40 2;
#X connect 9 0 7 0;
#X connect 9 0 8 0;
#X connect 10 0 28 1;
#X connect 11 0 28 2;
#X connect 13 0 14 0;
#X connect 13 1 15 0;
#X connect 14 0 17 0;
#X connect 15 0 16 0;
#X connect 16 0 18 0;
#X connect 17 0 18 0;
#X connect 18 0 19 0;
#X connect 18 0 32 0;
#X connect 20 0 21 0;
#X connect 20 1 22 0;
#X connect 21 0 24 0;
#X connect 22 0 23 0;
#X connect 23 0 25 0;
#X connect 24 0 25 0;
#X connect 25 0 26 0;
#X connect 25 0 33 0;
#X connect 27 0 6 0;
#X connect 27 0 30 0;
#X connect 27 0 45 0;
#X connect 27 1 20 0;
#X connect 28 0 12 0;
#X connect 28 0 31 0;
#X connect 28 0 46 0;
#X connect 28 1 13 0;
#X connect 34 0 38 1;
#X connect 35 0 38 2;
#X connect 36 0 43 1;
#X connect 37 0 43 2;
#X connect 39 0 27 0;
#X connect 39 0 40 0;
#X connect 39 0 41 0;
#X connect 39 0 43 0;
#X connect 40 0 29 0;
#X connect 40 0 28 0;
#X connect 40 0 42 0;
#X connect 43 0 38 0;
#X connect 45 0 27 3;
#X connect 45 0 44 0;
#X connect 45 0 30 0;
#X connect 46 0 28 3;
#X connect 46 0 31 0;
#X restore 27 734 pd potars-gauche;
#N canvas 644 126 556 712 boutons 0;
#X obj 38 28 inlet head;
#X floatatom 190 279 5 0 0 0 - - -;
#X floatatom 79 159 5 0 0 0 - - -;
#X floatatom 122 157 5 0 0 0 - - -;
#X floatatom 77 388 5 0 0 0 - - -;
#X floatatom 130 384 5 0 0 0 - - -;
#X obj 190 181 tgl 15 0 empty empty empty 17 7 0 10 -262144 -1 -1 0
1;
#X obj 152 83 t b b;
#X obj 152 52 loadbang;
#X obj 105 468 tgl 15 0 empty empty empty 17 7 0 10 -262144 -1 -1 0
1;
#X obj 186 594 route down;
#X obj 186 613 b;
#X obj 190 353 route down;
#X obj 190 372 b;
#X obj 106 487 sel 1 0;
#X msg 179 130 reserve BoutonMachineTouch.png \, reserve BoutonMachineUp.png
;
#X msg 125 512 set BoutonMachineUp.png;
#X msg 106 535 set BoutonMachineTouch.png;
#X msg 190 226 set BoutonMachineOff.png;
#X msg 209 248 set BoutonMachineOn.png;
#X floatatom 248 273 5 0 0 0 - - -;
#X msg 152 106 reserve BoutonMachineOn.png \, reserve BoutonMachineOff.png
;
#X obj 190 398 bng 15 250 50 0 empty empty empty 17 7 0 10 -262144
-1 -1;
#X obj 154 627 bng 15 250 50 0 empty empty empty 17 7 0 10 -262144
-1 -1;
#N canvas 1220 1371 700 300 DivEssorage 0;
#X obj 85 35 inlet;
#X obj 85 122 hradio 15 1 0 5 nbDivMOessorage-snd nbDivMOessorage-rcv
nbDivMOessorage 0 -8 0 10 -262144 -1 -1 0;
#X obj 77 65 i;
#X obj 108 65 + 1;
#X floatatom 257 213 5 0 0 0 - - -;
#X obj 140 60 loadbang;
#X obj 85 147 sel 0 1 2 3 4;
#X obj 77 87 mod 5;
#X msg 85 171 0.125;
#X msg 100 193 0.25;
#X msg 117 172 0.5;
#X msg 132 194 1, f 1;
#X msg 145 171 2, f 1;
#X obj 293 48 del 250;
#X obj 266 27 t b b;
#X msg 249 61 1;
#X msg 294 70 0;
#X obj 108 242 s fragseq2-DivEssorage;
#X obj 292 88 s MOessorage-light;
#X msg 141 82 1;
#X obj 223 122 api Inst-\$1 Speed-\$1;
#X connect 0 0 2 0;
#X connect 0 0 14 0;
#X connect 1 0 6 0;
#X connect 1 0 20 0;
#X connect 2 0 3 0;
#X connect 2 0 7 0;
#X connect 3 0 2 1;
#X connect 5 0 19 0;
#X connect 6 0 8 0;
#X connect 6 1 9 0;
#X connect 6 2 10 0;
#X connect 6 3 11 0;
#X connect 6 4 12 0;
#X connect 7 0 1 0;
#X connect 8 0 17 0;
#X connect 9 0 17 0;
#X connect 10 0 17 0;
#X connect 11 0 17 0;
#X connect 12 0 17 0;
#X connect 13 0 16 0;
#X connect 14 0 15 0;
#X connect 14 1 13 0;
#X connect 15 0 18 0;
#X connect 16 0 18 0;
#X connect 19 0 1 0;
#X connect 20 0 1 0;
#X restore 186 637 pd DivEssorage;
#X obj 106 306 pofimage BoutonMachineOff.png 35 35;
#X obj 88 571 pofimage BoutonMachineUp.png 36 36;
#X obj 38 639 outlet;
#X obj 106 330 poftouch 36 36;
#X obj 87 591 poftouch 36 36;
#X obj 105 446 r MOessorage-light;
#X obj 245 378 r concert-mute-\$1;
#X obj 230 401 f;
#X obj 230 422 == 0;
#X obj 230 443 s concert-mute-\$1;
#X obj 190 161 r concert-instrument-isplaying-\$1;
#X obj 190 202 sel 0 1;
#N canvas 0 1371 450 300 text 0;
#X msg 176 62 text on/off;
#X obj 71 171 poftexts typo 18;
#X obj 176 39 loadbang;
#X obj 80 66 inlet;
#X floatatom 94 98 5 0 0 0 - - -;
#X floatatom 134 94 5 0 0 0 - - -;
#X obj 59 125 poftranslate 4 28;
#X connect 0 0 1 0;
#X connect 2 0 0 0;
#X connect 3 0 6 0;
#X connect 4 0 6 1;
#X connect 5 0 6 2;
#X connect 6 0 1 0;
#X restore 52 265 pd text on/off;
#X obj 38 182 poftranslate 286 -195;
#X obj 38 419 poftranslate -144 0;
#N canvas 0 780 450 300 text 0;
#X obj 71 171 poftexts typo 18;
#X obj 176 39 loadbang;
#X obj 80 66 inlet;
#X floatatom 94 98 5 0 0 0 - - -;
#X floatatom 134 94 5 0 0 0 - - -;
#X msg 176 62 text Speed;
#X obj 59 125 poftranslate 4 28;
#X connect 1 0 5 0;
#X connect 2 0 6 0;
#X connect 3 0 6 1;
#X connect 4 0 6 2;
#X connect 5 0 0 0;
#X connect 6 0 0 0;
#X restore 13 473 pd text Speed;
#X connect 0 0 38 0;
#X connect 1 0 25 1;
#X connect 2 0 38 1;
#X connect 3 0 38 2;
#X connect 4 0 39 1;
#X connect 5 0 39 2;
#X connect 6 0 36 0;
#X connect 7 0 21 0;
#X connect 7 1 15 0;
#X connect 8 0 7 0;
#X connect 9 0 14 0;
#X connect 10 0 11 0;
#X connect 11 0 23 0;
#X connect 11 0 24 0;
#X connect 12 0 13 0;
#X connect 13 0 22 0;
#X connect 13 0 32 0;
#X connect 14 0 17 0;
#X connect 14 1 16 0;
#X connect 15 0 25 0;
#X connect 16 0 26 0;
#X connect 17 0 26 0;
#X connect 18 0 25 0;
#X connect 19 0 25 0;
#X connect 20 0 25 2;
#X connect 21 0 25 0;
#X connect 25 0 28 0;
#X connect 26 0 29 0;
#X connect 28 1 12 0;
#X connect 29 1 10 0;
#X connect 30 0 9 0;
#X connect 31 0 32 1;
#X connect 32 0 33 0;
#X connect 33 0 34 0;
#X connect 35 0 6 0;
#X connect 36 0 18 0;
#X connect 36 1 19 0;
#X connect 38 0 25 0;
#X connect 38 0 37 0;
#X connect 38 0 39 0;
#X connect 39 0 26 0;
#X connect 39 0 27 0;
#X connect 39 0 40 0;
#X restore 27 759 pd boutons;
#N canvas 1398 96 522 984 LedsEssorage 0;
#X obj 84 97 inlet head;
#X floatatom 129 334 5 0 0 0 - - -;
#X floatatom 69 282 5 0 0 0 - - -;
#X floatatom 132 282 5 0 0 0 - - -;
#X floatatom 168 154 5 0 0 0 - - -;
#X floatatom 221 150 5 0 0 0 - - -;
#X obj 229 320 tgl 15 0 empty empty empty 17 7 0 10 -262144 -1 -1 0
1;
#X obj 225 342 sel 0 1;
#X obj 33 220 t b b;
#X obj 33 189 loadbang;
#X obj 287 108 tgl 15 0 empty empty empty 17 7 0 10 -262144 -1 -1 0
1;
#X obj 287 129 sel 1 0;
#X obj 11 161 bng 15 250 50 0 empty empty empty 17 7 0 10 -262144 -1
-1;
#X floatatom 179 334 5 0 0 0 - - -;
#X floatatom 245 202 5 0 0 0 - - -;
#X floatatom 344 202 5 0 0 0 - - -;
#X floatatom 145 491 5 0 0 0 - - -;
#X floatatom 38 438 5 0 0 0 - - -;
#X floatatom 83 435 5 0 0 0 - - -;
#X obj 245 477 tgl 15 0 empty empty empty 17 7 0 10 -262144 -1 -1 0
1;
#X obj 241 499 sel 0 1;
#X floatatom 195 491 5 0 0 0 - - -;
#X msg 5 254 reserve LedOn.png \, reserve LedOff.png;
#X msg 306 154 set LedOff.png;
#X msg 287 177 set LedOn.png;
#X msg 224 366 set LedOff.png;
#X msg 228 389 set LedOn.png;
#X msg 240 523 set LedOff.png;
#X msg 244 546 set LedOn.png;
#X floatatom 136 660 5 0 0 0 - - -;
#X floatatom 38 609 5 0 0 0 - - -;
#X floatatom 83 606 5 0 0 0 - - -;
#X obj 236 646 tgl 15 0 empty empty empty 17 7 0 10 -262144 -1 -1 0
1;
#X obj 232 668 sel 0 1;
#X floatatom 186 660 5 0 0 0 - - -;
#X msg 231 692 set LedOff.png;
#X msg 235 715 set LedOn.png;
#X floatatom 136 836 5 0 0 0 - - -;
#X floatatom 46 792 5 0 0 0 - - -;
#X floatatom 91 789 5 0 0 0 - - -;
#X obj 236 822 tgl 15 0 empty empty empty 17 7 0 10 -262144 -1 -1 1
1;
#X obj 232 844 sel 0 1;
#X floatatom 186 836 5 0 0 0 - - -;
#X msg 231 868 set LedOff.png;
#X msg 235 891 set LedOn.png;
#X msg 325 813 1, f 1;
#X msg 349 813 0, f 1;
#X obj 325 837 change;
#X obj 322 791 sel 0;
#X msg 320 615 1, f 1;
#X msg 347 614 0, f 1;
#X obj 323 638 change;
#X obj 320 592 sel 1;
#X msg 349 449 0, f 1;
#X obj 325 473 change;
#X obj 322 427 sel 2;
#X msg 323 450 1, f 1;
#X msg 360 320 0, f 1;
#X obj 336 344 change;
#X msg 334 321 1, f 1;
#X obj 333 298 sel 3;
#X msg 245 89 0, f 1;
#X obj 221 113 change;
#X msg 219 90 1, f 1;
#X obj 218 67 sel 4;
#X obj 148 226 pofimage LedOff.png 8 8;
#X obj 71 379 pofimage LedOff.png 8 8;
#X obj 44 574 pofimage LedOff.png 8 8;
#X obj 41 749 pofimage LedOff.png 8 8;
#X obj 41 925 pofimage LedOff.png 8 8;
#X obj 20 815 poftranslate 0 13;
#X obj 23 964 outlet;
#X obj 49 308 poftranslate 0 14;
#X obj 12 461 poftranslate 0 13;
#X obj 12 632 poftranslate 0 14;
#X obj 105 188 poftranslate -32 -23;
#X obj 335 277 r nbDivMOessorage-snd;
#X obj 324 406 r nbDivMOessorage-snd;
#X obj 321 571 r nbDivMOessorage-snd;
#X obj 323 770 r nbDivMOessorage-snd;
#X obj 219 46 r nbDivMOessorage-snd;
#X connect 0 0 75 0;
#X connect 1 0 66 1;
#X connect 2 0 72 1;
#X connect 3 0 72 2;
#X connect 4 0 75 1;
#X connect 5 0 75 2;
#X connect 6 0 7 0;
#X connect 7 0 25 0;
#X connect 7 1 26 0;
#X connect 8 1 22 0;
#X connect 9 0 8 0;
#X connect 10 0 11 0;
#X connect 11 0 24 0;
#X connect 11 1 23 0;
#X connect 12 0 8 0;
#X connect 13 0 66 2;
#X connect 14 0 65 1;
#X connect 15 0 65 2;
#X connect 16 0 67 1;
#X connect 17 0 73 1;
#X connect 18 0 73 2;
#X connect 19 0 20 0;
#X connect 20 0 27 0;
#X connect 20 1 28 0;
#X connect 21 0 67 2;
#X connect 22 0 66 0;
#X connect 23 0 65 0;
#X connect 24 0 65 0;
#X connect 25 0 66 0;
#X connect 26 0 66 0;
#X connect 27 0 67 0;
#X connect 28 0 67 0;
#X connect 29 0 68 1;
#X connect 30 0 74 1;
#X connect 31 0 74 2;
#X connect 32 0 33 0;
#X connect 33 0 35 0;
#X connect 33 1 36 0;
#X connect 34 0 68 2;
#X connect 35 0 68 0;
#X connect 36 0 68 0;
#X connect 37 0 69 1;
#X connect 38 0 70 1;
#X connect 39 0 70 2;
#X connect 40 0 41 0;
#X connect 41 0 43 0;
#X connect 41 1 44 0;
#X connect 42 0 69 2;
#X connect 43 0 69 0;
#X connect 44 0 69 0;
#X connect 45 0 47 0;
#X connect 46 0 47 0;
#X connect 47 0 40 0;
#X connect 48 0 45 0;
#X connect 48 1 46 0;
#X connect 49 0 51 0;
#X connect 50 0 51 0;
#X connect 51 0 32 0;
#X connect 52 0 49 0;
#X connect 52 1 50 0;
#X connect 53 0 54 0;
#X connect 54 0 19 0;
#X connect 55 0 56 0;
#X connect 55 1 53 0;
#X connect 56 0 54 0;
#X connect 57 0 58 0;
#X connect 58 0 6 0;
#X connect 59 0 58 0;
#X connect 60 0 59 0;
#X connect 60 1 57 0;
#X connect 61 0 62 0;
#X connect 62 0 10 0;
#X connect 63 0 62 0;
#X connect 64 0 63 0;
#X connect 64 1 61 0;
#X connect 70 0 69 0;
#X connect 70 0 71 0;
#X connect 72 0 66 0;
#X connect 72 0 73 0;
#X connect 73 0 67 0;
#X connect 73 0 74 0;
#X connect 74 0 68 0;
#X connect 74 0 70 0;
#X connect 75 0 65 0;
#X connect 75 0 72 0;
#X connect 76 0 60 0;
#X connect 77 0 55 0;
#X connect 78 0 52 0;
#X connect 79 0 48 0;
#X connect 80 0 64 0;
#X restore 27 783 pd LedsEssorage;
#X obj 523 226 r MOttawTouch;
#X obj 536 248 r MOnimTouch;
#X obj 509 201 r MOminTouch;
#X obj 496 177 r MOwattTouch;
#X obj 496 277 multiOR, f 14;
#X obj 496 301 s instrument_touched-\$1;
#X floatatom 546 477 5 0 0 0 - - -;
#X floatatom 592 475 5 0 0 0 - - -;
#X floatatom 386 443 5 0 0 0 - - -;
#X floatatom 434 450 5 0 0 0 - - -;
#X obj 27 175 poftranslate 0 13;
#X obj 394 498 pofimage instruments/Tourne.png 80 50;
#X obj 27 17 instrument_pof_common \$1 Casiers;
#X obj 27 355 poftranslate 213 -8;
#N canvas 0 780 450 300 text 0;
#X obj 71 171 poftexts typo 18;
#X obj 176 39 loadbang;
#X obj 80 66 inlet;
#X floatatom 94 98 5 0 0 0 - - -;
#X floatatom 134 94 5 0 0 0 - - -;
#X msg 176 62 text Prog;
#X obj 59 125 poftranslate -45 -32;
#X connect 1 0 5 0;
#X connect 2 0 6 0;
#X connect 3 0 6 1;
#X connect 4 0 6 2;
#X connect 5 0 0 0;
#X connect 6 0 0 0;
#X restore 8 443 pd text Prog;
#N canvas 0 780 450 300 text 0;
#X obj 71 171 poftexts typo 18;
#X obj 176 39 loadbang;
#X obj 80 66 inlet;
#X floatatom 94 98 5 0 0 0 - - -;
#X floatatom 134 94 5 0 0 0 - - -;
#X msg 176 61 text Disto;
#X obj 59 125 poftranslate -42 -32;
#X connect 1 0 5 0;
#X connect 2 0 6 0;
#X connect 3 0 6 1;
#X connect 4 0 6 2;
#X connect 5 0 0 0;
#X connect 6 0 0 0;
#X restore 7 708 pd text Disto;
#X obj 340 469 poftranslate -146 3;
#X obj 274 355 apf Inst-\$1 Prog-\$1;
#X obj 283 607 apf Inst-\$1 Disto-\$1;
#N canvas 1307 681 613 521 BoutonSolo 0;
#X floatatom 173 225 5 0 0 0 - - -;
#X obj 193 129 tgl 15 0 empty empty empty 17 7 0 10 -262144 -1 -1 0
1;
#X obj 146 9 loadbang;
#X obj 142 310 route down;
#X obj 206 9 bng 15 250 50 0 empty empty empty 17 7 0 10 -262144 -1
-1;
#X floatatom 270 227 5 0 0 0 - - -;
#X obj 56 273 poftouch 36 36;
#X obj 193 151 sel 0 1;
#X obj 18 18 inlet head;
#X floatatom 51 53 5 0 0 0 - - -;
#X floatatom 90 52 5 0 0 0 - - -;
#X obj 24 449 outlet;
#N canvas 0 582 450 300 text 0;
#X obj 86 232 poftexts typo 18;
#X obj 176 39 loadbang;
#X obj 80 66 inlet;
#X floatatom 94 98 5 0 0 0 - - -;
#X floatatom 134 94 5 0 0 0 - - -;
#X obj 288 35 sel 0 1;
#X obj 289 14 r SoloOnOff-\$1;
#X msg 234 135 text Soloist-on;
#X msg 177 68 text Soloist-off;
#X obj 54 170 pofcolor 0 0 0 1;
#X obj 60 125 poftranslate 14 28;
#X connect 1 0 8 0;
#X connect 2 0 10 0;
#X connect 3 0 10 1;
#X connect 4 0 10 2;
#X connect 5 0 8 0;
#X connect 5 1 7 0;
#X connect 6 0 5 0;
#X connect 7 0 0 0;
#X connect 8 0 0 0;
#X connect 9 0 0 0;
#X connect 10 0 9 0;
#X restore 38 109 pd text Solo-on/off;
#X msg 146 57 reserve BoutonGris.png \, reserve BoutonRouge.png;
#X msg 193 175 set BoutonGris.png;
#X msg 212 197 set BoutonRouge.png;
#X obj 57 246 pofimage BoutonGris.png 40 40;
#X obj 142 367 i;
#X obj 170 368 + 1;
#X obj 140 396 == 0;
#X obj 142 335 t b;
#X floatatom 86 446 5 0 0 0 - - -;
#X obj 140 444 s SoloOnOff-\$1;
#X obj 193 107 r SoloOnOff-\$1;
#X obj 366 212 == \$1;
#X obj 366 191 r concert_instrument;
#X obj 364 238 sel 0;
#X msg 360 265 1;
#X obj 18 73 poftranslate -224 220;
#X connect 0 0 16 1;
#X connect 1 0 7 0;
#X connect 2 0 13 0;
#X connect 3 0 20 0;
#X connect 4 0 13 0;
#X connect 5 0 16 2;
#X connect 6 1 3 0;
#X connect 7 0 14 0;
#X connect 7 1 15 0;
#X connect 8 0 28 0;
#X connect 9 0 28 1;
#X connect 10 0 28 2;
#X connect 13 0 16 0;
#X connect 14 0 16 0;
#X connect 15 0 16 0;
#X connect 16 0 6 0;
#X connect 17 0 18 0;
#X connect 17 0 19 0;
#X connect 18 0 17 1;
#X connect 19 0 21 0;
#X connect 19 0 17 1;
#X connect 19 0 22 0;
#X connect 20 0 17 0;
#X connect 23 0 1 0;
#X connect 24 0 26 0;
#X connect 25 0 24 0;
#X connect 26 0 27 0;
#X connect 27 0 17 0;
#X connect 28 0 12 0;
#X connect 28 0 11 0;
#X connect 28 0 16 0;
#X restore 16 842 pd BoutonSolo;
#N canvas 429 904 450 300 tirage 0;
#X obj 65 23 inlet;
#X floatatom 151 122 5 0 0 0 - - -;
#X floatatom 101 69 5 0 0 0 - - -;
#X floatatom 142 70 5 0 0 0 - - -;
#X obj 284 36 tgl 15 0 empty empty empty 17 7 0 10 -262144 -1 -1 0
1;
#X obj 287 63 sel 0 1;
#X obj 154 209 route down;
#X obj 154 228 b;
#X obj 84 295 bng 15 250 50 0 empty empty empty 17 7 0 10 -262144 -1
-1;
#X floatatom 201 122 5 0 0 0 - - -;
#X obj 157 261 bng 15 250 50 0 empty empty empty 17 7 0 10 -262144
-1 -1;
#X msg 286 87 set BoutonMachineUp.png;
#X msg 290 110 set BoutonMachineTouch.png;
#X obj 63 221 outlet;
#X obj 91 153 pofimage BoutonMachineUp.png 36 36;
#X obj 92 179 poftouch 36 36;
#N canvas 2401 1522 431 300 DivRinçage 0;
#X obj 85 35 inlet;
#X obj 85 122 hradio 15 1 0 2 nbDivRinçage-snd nbDivRinçage-rcv nbDivRinçage
0 -8 0 10 -262144 -1 -1 0;
#X obj 77 65 i;
#X obj 108 65 + 1;
#X obj 140 60 loadbang;
#X obj 293 48 del 250;
#X obj 266 27 t b b;
#X msg 249 61 1;
#X msg 294 70 0;
#X msg 141 82 0;
#X obj 85 147 sel 0 1;
#X msg 85 171 0;
#X msg 100 194 1, f 6;
#X obj 235 122 s rinçageplus-light;
#X obj 77 87 mod 2;
#X obj 107 242 s fragseq2-DivRinçageplus;
#X connect 0 0 2 0;
#X connect 0 0 6 0;
#X connect 1 0 10 0;
#X connect 2 0 3 0;
#X connect 2 0 14 0;
#X connect 3 0 2 1;
#X connect 4 0 9 0;
#X connect 5 0 8 0;
#X connect 6 0 7 0;
#X connect 6 1 5 0;
#X connect 7 0 13 0;
#X connect 8 0 13 0;
#X connect 9 0 1 0;
#X connect 10 0 11 0;
#X connect 10 1 12 0;
#X connect 11 0 15 0;
#X connect 12 0 15 0;
#X connect 14 0 1 0;
#X restore 241 247 pd DivRinçage;
#X obj 284 15 r rinçageplus-light;
#N canvas 0 780 450 300 Tirage 0;
#X obj 71 171 poftexts typo 18;
#X obj 176 39 loadbang;
#X obj 80 66 inlet;
#X floatatom 94 98 5 0 0 0 - - -;
#X floatatom 134 94 5 0 0 0 - - -;
#X msg 177 61 text Tirage;
#X obj 59 125 poftranslate 9 28;
#X connect 1 0 5 0;
#X connect 2 0 6 0;
#X connect 3 0 6 1;
#X connect 4 0 6 2;
#X connect 5 0 0 0;
#X connect 6 0 0 0;
#X restore 3 139 pd Tirage;
#X obj 71 96 poftranslate 174 165;
#X connect 0 0 19 0;
#X connect 1 0 14 1;
#X connect 2 0 19 1;
#X connect 3 0 19 2;
#X connect 4 0 5 0;
#X connect 5 0 11 0;
#X connect 5 1 12 0;
#X connect 6 0 7 0;
#X connect 7 0 10 0;
#X connect 7 0 16 0;
#X connect 9 0 14 2;
#X connect 11 0 14 0;
#X connect 12 0 14 0;
#X connect 14 0 15 0;
#X connect 15 1 6 0;
#X connect 17 0 4 0;
#X connect 19 0 13 0;
#X connect 19 0 14 0;
#X connect 19 0 18 0;
#X restore 62 807 pd tirage;
#X obj 27 608 poftranslate 0 96;
#N canvas 2951 62 613 765 BoutonMess 0;
#X obj 18 18 inlet head;
#X floatatom 180 260 5 0 0 0 - - -;
#X floatatom 72 77 5 0 0 0 - - -;
#X floatatom 116 70 5 0 0 0 - - -;
#X floatatom 166 94 5 0 0 0 - - -;
#X obj 147 594 bng 15 250 50 0 empty empty empty 17 7 0 10 -262144
-1 -1;
#X obj 147 616 s concert-MessClock-\$1;
#X obj 26 236 pofcolor 1 1 1 1;
#X obj 134 211 max 0.5;
#X obj 90 178 f;
#X obj 172 194 tgl 15 0 empty empty empty 17 7 0 10 -262144 -1 -1 1
1;
#X obj 85 157 tgl 15 0 empty empty empty 17 7 0 10 -262144 -1 -1 1
1;
#X obj 147 129 r TempoMess-isplaying-\$1;
#X obj 131 309 route up down;
#X msg 131 332 0;
#X msg 168 331 1;
#X obj 131 355 tgl 15 0 empty empty empty 17 7 0 10 -262144 -1 -1 0
1;
#X obj 131 380 s \$0-TempoMessTouched;
#X obj 67 133 r \$1-OnOff;
#X obj 76 401 sel 0 1, f 29;
#X msg 162 472 1;
#X msg 143 425 stop;
#X msg 110 449 0;
#X obj 110 501 f;
#X obj 31 644 s \$1-Set-OnOff;
#X obj 110 523 sel 1;
#X obj 31 619 spigot 1;
#X obj 110 547 t b b b;
#X msg 151 570 0;
#X msg 76 596 1;
#X obj 76 426 t b b b b;
#X obj 162 451 del 300;
#X obj 28 281 pofimage instruments/Chronometre.png 45 45;
#X obj 27 305 poftouch 45 45 1;
#X obj 221 153 outlet;
#X obj 218 175 inlet;
#X obj 219 200 ddemux 0 1;
#X obj 208 224 sel 0 1;
#X obj 232 250 sel 0 1;
#N canvas 1470 582 450 300 text 1;
#X obj 176 39 loadbang;
#X obj 80 66 inlet;
#X floatatom 94 98 5 0 0 0 - - -;
#X floatatom 134 94 5 0 0 0 - - -;
#X obj 103 236 poftexts typo 18;
#X obj 53 180 pofcolor 0 0 0 1;
#X msg 178 68 text Mess;
#X obj 61 125 poftranslate 0 -51;
#X connect 0 0 6 0;
#X connect 1 0 7 0;
#X connect 2 0 7 1;
#X connect 3 0 7 2;
#X connect 5 0 4 0;
#X connect 6 0 4 0;
#X connect 7 0 5 0;
#X restore 36 46 pd text Mess;
#X obj 28 108 poftranslate 0 -81;
#X connect 0 0 39 0;
#X connect 0 0 40 0;
#X connect 1 0 32 1;
#X connect 2 0 40 1;
#X connect 3 0 40 2;
#X connect 4 0 40 3;
#X connect 5 0 6 0;
#X connect 7 0 32 0;
#X connect 8 0 7 4;
#X connect 9 0 7 2;
#X connect 9 0 7 3;
#X connect 9 0 8 0;
#X connect 9 0 10 0;
#X connect 9 0 34 0;
#X connect 9 0 36 1;
#X connect 11 0 9 0;
#X connect 12 0 9 0;
#X connect 13 0 14 0;
#X connect 13 1 15 0;
#X connect 14 0 16 0;
#X connect 15 0 16 0;
#X connect 16 0 17 0;
#X connect 16 0 19 0;
#X connect 18 0 11 0;
#X connect 19 0 30 0;
#X connect 19 1 31 0;
#X connect 20 0 23 0;
#X connect 21 0 31 0;
#X connect 22 0 23 0;
#X connect 23 0 25 0;
#X connect 25 0 27 0;
#X connect 26 0 24 0;
#X connect 27 1 5 0;
#X connect 27 2 28 0;
#X connect 28 0 26 1;
#X connect 29 0 26 1;
#X connect 30 0 29 0;
#X connect 30 1 26 0;
#X connect 30 2 22 0;
#X connect 30 3 21 0;
#X connect 31 0 20 0;
#X connect 32 0 33 0;
#X connect 33 1 13 0;
#X connect 35 0 36 0;
#X connect 36 0 37 0;
#X connect 36 1 38 0;
#X connect 37 1 14 0;
#X connect 38 0 14 0;
#X connect 40 0 7 0;
#X restore 12 873 pd BoutonMess;
#X obj 28 74 poftranslate 0 -16;
#X connect 1 0 72 2;
#X connect 2 0 4 2;
#X connect 3 0 25 1;
#X connect 5 0 4 0;
#X connect 6 0 25 2;
#X connect 7 0 62 1;
#X connect 8 0 62 2;
#X connect 9 0 7 0;
#X connect 9 0 8 0;
#X connect 10 0 44 1;
#X connect 11 0 44 2;
#X connect 13 0 70 1;
#X connect 14 0 70 2;
#X connect 15 0 13 0;
#X connect 15 0 14 0;
#X connect 16 0 45 1;
#X connect 17 0 45 2;
#X connect 19 0 59 1;
#X connect 20 0 59 2;
#X connect 21 1 23 0;
#X connect 23 0 24 0;
#X connect 24 0 22 0;
#X connect 25 0 21 0;
#X connect 26 0 27 0;
#X connect 26 1 28 0;
#X connect 27 0 30 0;
#X connect 28 0 29 0;
#X connect 29 0 31 0;
#X connect 30 0 31 0;
#X connect 31 0 32 0;
#X connect 31 0 33 0;
#X connect 35 0 36 0;
#X connect 35 1 37 0;
#X connect 36 0 39 0;
#X connect 37 0 38 0;
#X connect 38 0 40 0;
#X connect 39 0 40 0;
#X connect 40 0 41 0;
#X connect 40 0 42 0;
#X connect 44 0 12 0;
#X connect 44 0 43 0;
#X connect 44 0 66 0;
#X connect 44 1 35 0;
#X connect 45 0 18 0;
#X connect 45 0 34 0;
#X connect 45 0 67 0;
#X connect 45 1 26 0;
#X connect 46 0 47 0;
#X connect 47 0 48 0;
#X connect 48 0 68 0;
#X connect 48 0 69 0;
#X connect 49 0 53 2;
#X connect 50 0 53 3;
#X connect 51 0 53 1;
#X connect 52 0 53 0;
#X connect 53 0 54 0;
#X connect 55 0 60 1;
#X connect 56 0 60 2;
#X connect 57 0 65 1;
#X connect 58 0 65 2;
#X connect 59 0 25 0;
#X connect 59 0 62 0;
#X connect 61 0 72 0;
#X connect 62 0 44 0;
#X connect 62 0 63 0;
#X connect 62 0 65 0;
#X connect 62 0 70 0;
#X connect 65 0 60 0;
#X connect 66 0 44 3;
#X connect 66 0 43 0;
#X connect 67 0 45 3;
#X connect 67 0 34 0;
#X connect 68 0 71 0;
#X connect 70 0 46 0;
#X connect 70 0 45 0;
#X connect 70 0 64 0;
#X connect 72 0 59 0;
