#N canvas 1456 1008 589 946 10;
#X floatatom 95 29 5 0 0 0 - - -;
#X floatatom 144 31 5 0 0 0 - - -;
#X floatatom 259 74 5 0 0 0 - - -;
#X floatatom 231 153 5 0 0 0 - - -;
#X obj 108 99 pofrect 650 345 10 10 0 0;
#X floatatom 353 154 5 0 0 0 - - -;
#X obj 72 126 nbx 6 14 -1e+37 1e+37 0 1 empty empty empty 0 -8 0 10
-262144 -1 -1 -44 256;
#X floatatom 136 126 5 0 0 0 - - -;
#X obj 258 239 bng 15 250 50 0 empty empty empty 17 7 0 10 -262144
-1 -1;
#X obj 259 200 route down;
#X obj 259 219 b;
#X floatatom 463 368 5 0 0 0 - - -;
#X floatatom 96 319 5 0 0 0 - - -;
#X floatatom 138 319 5 0 0 0 - - -;
#X obj 391 280 tgl 15 0 empty empty empty 17 7 0 10 -262144 -1 -1 0
1;
#X obj 442 431 route down;
#X obj 442 450 b;
#X floatatom 570 369 5 0 0 0 - - -;
#X obj 361 409 poftouch 36 36;
#X msg 394 347 set BoutonMachineOn.png;
#X msg 390 324 set BoutonMachineOff.png;
#X obj 110 193 poftouch 621 294;
#X obj 92 465 nbx 6 14 -1e+37 1e+37 0 1 empty empty empty 0 -8 0 10
-262144 -1 -1 2 256;
#X obj 159 465 nbx 6 14 -1e+37 1e+37 0 1 empty empty empty 0 -8 0 10
-262144 -1 -1 200 256;
#X obj 136 440 bng 15 250 50 0 empty empty empty 17 7 0 10 -262144
-1 -1;
#X floatatom 178 494 5 0 0 0 - - -;
#X floatatom 226 491 5 0 0 0 - - -;
#X obj 321 538 route up down;
#X obj 321 559 t b;
#X obj 361 562 t b;
#X msg 361 585 1, f 1;
#X msg 321 581 0, f 1;
#X obj 321 604 change;
#X floatatom 321 625 5 0 0 0 - - -;
#X obj 57 485 poftranslate 2 200;
#X obj 87 512 imageKnob380 instruments/Watt.png 0.53;
#X obj 108 76 pofcolor 0.1 0.8 0.1 1;
#X obj 361 387 pofimage BoutonMachineOff.png 35 35;
#X floatatom 94 563 5 0 0 0 - - -;
#X floatatom 136 564 5 0 0 0 - - -;
#X obj 215 680 tgl 15 0 empty empty empty 17 7 0 10 -262144 -1 -1 0
1;
#X obj 155 834 route down;
#X obj 155 853 b;
#X obj 211 702 sel 1 0;
#X msg 230 727 set BoutonMachineUp.png;
#X msg 195 767 set BoutonMachineTouch.png;
#X obj 123 867 bng 15 250 50 0 empty empty empty 17 7 0 10 -262144
-1 -1;
#X obj 57 811 pofimage BoutonMachineUp.png 36 36;
#X obj 56 831 poftouch 36 36;
#X obj 348 655 t b b;
#X obj 375 676 del 250;
#X msg 375 696 0, f 2;
#X msg 332 690 1, f 2;
#X floatatom 87 223 5 0 0 0 - - -;
#X floatatom 123 222 5 0 0 0 - - -;
#X obj 57 338 poftranslate 320 -85;
#X obj 155 875 s MIXreset;
#X obj 365 626 s MIXwattTouch;
#X obj 86 535 s MIXwatt;
#X obj 110 173 pofimage instruments/BolCreme.png 529 294;
#X obj 57 245 poftranslate 0 0;
#X obj 486 451 r concert-mute-\$1;
#X obj 471 474 f;
#X obj 471 495 == 0;
#X obj 471 516 s concert-mute-\$1;
#X obj 425 173 r MIXwattTouch;
#X obj 391 259 r concert-instrument-isplaying-\$1;
#X obj 391 300 sel 0 1;
#X obj 403 197 multiOR, f 23;
#X obj 403 221 s instrument_touched-\$1;
#X obj 403 149 r MIX-0-on;
#N canvas 0 1371 450 300 text 0;
#X obj 71 171 poftexts typo 18;
#X obj 176 39 loadbang;
#X obj 80 66 inlet;
#X floatatom 94 98 5 0 0 0 - - -;
#X floatatom 134 94 5 0 0 0 - - -;
#X obj 59 125 poftranslate 4 28;
#X msg 176 62 text reset;
#X connect 1 0 6 0;
#X connect 2 0 5 0;
#X connect 3 0 5 1;
#X connect 4 0 5 2;
#X connect 5 0 0 0;
#X connect 6 0 0 0;
#X restore 78 674 pd text reset;
#N canvas 0 1371 450 300 text 0;
#X msg 176 62 text on/off;
#X obj 71 171 poftexts typo 18;
#X obj 176 39 loadbang;
#X obj 80 66 inlet;
#X floatatom 94 98 5 0 0 0 - - -;
#X floatatom 134 94 5 0 0 0 - - -;
#X obj 59 125 poftranslate 4 28;
#X connect 0 0 1 0;
#X connect 2 0 0 0;
#X connect 3 0 6 0;
#X connect 4 0 6 1;
#X connect 5 0 6 2;
#X connect 6 0 1 0;
#X restore 86 391 pd text on/off;
#N canvas 0 1371 450 300 text 0;
#X obj 71 171 poftexts typo 18;
#X obj 176 39 loadbang;
#X obj 80 66 inlet;
#X floatatom 94 98 5 0 0 0 - - -;
#X floatatom 134 94 5 0 0 0 - - -;
#X msg 176 62 text FX;
#X obj 59 125 poftranslate 0 50;
#X connect 1 0 5 0;
#X connect 2 0 6 0;
#X connect 3 0 6 1;
#X connect 4 0 6 2;
#X connect 5 0 0 0;
#X connect 6 0 0 0;
#X restore 23 557 pd text FX;
#X obj 57 49 poftranslate 0 -16;
#X floatatom 480 44 5 0 0 0 - - -;
#X floatatom 526 42 5 0 0 0 - - -;
#X floatatom 320 10 5 0 0 0 - - -;
#X floatatom 368 17 5 0 0 0 - - -;
#X obj 57 146 poftranslate -44 15;
#X obj 328 65 pofimage instruments/Glisse.png 80 50;
#X obj 273 36 poftranslate 19 -170;
#X obj 57 11 instrument_pof_common \$1 Sonnerie;
#X obj 80 283 touch/pof_Instru \$1 MIX 100;
#N canvas 2277 96 613 521 BoutonSolo 0;
#X floatatom 173 225 5 0 0 0 - - -;
#X obj 193 129 tgl 15 0 empty empty empty 17 7 0 10 -262144 -1 -1 0
1;
#X obj 146 9 loadbang;
#X obj 142 310 route down;
#X obj 206 9 bng 15 250 50 0 empty empty empty 17 7 0 10 -262144 -1
-1;
#X floatatom 270 227 5 0 0 0 - - -;
#X obj 56 273 poftouch 36 36;
#X obj 193 151 sel 0 1;
#X obj 18 18 inlet head;
#X floatatom 51 53 5 0 0 0 - - -;
#X floatatom 90 52 5 0 0 0 - - -;
#X obj 24 449 outlet;
#N canvas 0 715 450 300 text 0;
#X obj 71 171 poftexts typo 18;
#X obj 176 39 loadbang;
#X obj 80 66 inlet;
#X floatatom 94 98 5 0 0 0 - - -;
#X floatatom 134 94 5 0 0 0 - - -;
#X obj 59 125 poftranslate 4 28;
#X obj 288 35 sel 0 1;
#X obj 289 14 r SoloOnOff-\$1;
#X msg 234 135 text Soloist-on;
#X msg 177 68 text Soloist-off;
#X connect 1 0 9 0;
#X connect 2 0 5 0;
#X connect 3 0 5 1;
#X connect 4 0 5 2;
#X connect 5 0 0 0;
#X connect 6 0 9 0;
#X connect 6 1 8 0;
#X connect 7 0 6 0;
#X connect 8 0 0 0;
#X connect 9 0 0 0;
#X restore 38 109 pd text Solo-on/off;
#X msg 146 57 reserve BoutonGris.png \, reserve BoutonRouge.png;
#X msg 193 175 set BoutonGris.png;
#X msg 212 197 set BoutonRouge.png;
#X obj 57 246 pofimage BoutonGris.png 40 40;
#X obj 142 367 i;
#X obj 170 368 + 1;
#X obj 140 396 == 0;
#X obj 142 335 t b;
#X floatatom 86 446 5 0 0 0 - - -;
#X obj 140 444 s SoloOnOff-\$1;
#X obj 193 107 r SoloOnOff-\$1;
#X obj 366 212 == \$1;
#X obj 366 191 r concert_instrument;
#X obj 364 238 sel 0;
#X msg 360 265 1;
#X obj 18 73 poftranslate -608 143;
#X connect 0 0 16 1;
#X connect 1 0 7 0;
#X connect 2 0 13 0;
#X connect 3 0 20 0;
#X connect 4 0 13 0;
#X connect 5 0 16 2;
#X connect 6 1 3 0;
#X connect 7 0 14 0;
#X connect 7 1 15 0;
#X connect 8 0 28 0;
#X connect 9 0 28 1;
#X connect 10 0 28 2;
#X connect 13 0 16 0;
#X connect 14 0 16 0;
#X connect 15 0 16 0;
#X connect 16 0 6 0;
#X connect 17 0 18 0;
#X connect 17 0 19 0;
#X connect 18 0 17 1;
#X connect 19 0 21 0;
#X connect 19 0 17 1;
#X connect 19 0 22 0;
#X connect 20 0 17 0;
#X connect 23 0 1 0;
#X connect 24 0 26 0;
#X connect 25 0 24 0;
#X connect 26 0 27 0;
#X connect 27 0 17 0;
#X connect 28 0 12 0;
#X connect 28 0 16 0;
#X connect 28 0 11 0;
#X restore 78 731 pd BoutonSolo;
#X obj 56 601 poftranslate 0 -116;
#X obj 286 467 apf SONGschoolscape FX-\$1;
#X connect 1 0 74 2;
#X connect 2 0 4 2;
#X connect 3 0 59 1;
#X connect 5 0 59 2;
#X connect 6 0 79 1;
#X connect 7 0 79 2;
#X connect 9 0 10 0;
#X connect 10 0 8 0;
#X connect 11 0 37 1;
#X connect 12 0 55 1;
#X connect 13 0 55 2;
#X connect 14 0 67 0;
#X connect 15 0 16 0;
#X connect 16 0 62 0;
#X connect 17 0 37 2;
#X connect 18 1 15 0;
#X connect 19 0 37 0;
#X connect 20 0 37 0;
#X connect 21 1 9 0;
#X connect 22 0 34 1;
#X connect 23 0 34 2;
#X connect 24 0 22 0;
#X connect 24 0 23 0;
#X connect 25 0 35 1;
#X connect 26 0 35 2;
#X connect 27 0 28 0;
#X connect 27 1 29 0;
#X connect 28 0 31 0;
#X connect 29 0 30 0;
#X connect 30 0 32 0;
#X connect 31 0 32 0;
#X connect 32 0 33 0;
#X connect 32 0 57 0;
#X connect 34 0 35 0;
#X connect 34 0 73 0;
#X connect 34 0 85 0;
#X connect 35 0 58 0;
#X connect 35 0 86 0;
#X connect 35 1 27 0;
#X connect 36 0 4 0;
#X connect 37 0 18 0;
#X connect 38 0 85 1;
#X connect 39 0 85 2;
#X connect 40 0 43 0;
#X connect 41 0 42 0;
#X connect 42 0 46 0;
#X connect 42 0 49 0;
#X connect 42 0 56 0;
#X connect 43 0 45 0;
#X connect 43 1 44 0;
#X connect 44 0 47 0;
#X connect 45 0 47 0;
#X connect 47 0 48 0;
#X connect 48 1 41 0;
#X connect 49 0 52 0;
#X connect 49 1 50 0;
#X connect 50 0 51 0;
#X connect 51 0 40 0;
#X connect 52 0 40 0;
#X connect 53 0 60 1;
#X connect 54 0 60 2;
#X connect 55 0 34 0;
#X connect 55 0 37 0;
#X connect 55 0 72 0;
#X connect 59 0 21 0;
#X connect 60 0 55 0;
#X connect 60 0 81 0;
#X connect 60 0 83 0;
#X connect 61 0 62 1;
#X connect 62 0 63 0;
#X connect 63 0 64 0;
#X connect 65 0 68 1;
#X connect 66 0 14 0;
#X connect 67 0 20 0;
#X connect 67 1 19 0;
#X connect 68 0 69 0;
#X connect 70 0 68 0;
#X connect 74 0 79 0;
#X connect 75 0 80 1;
#X connect 76 0 80 2;
#X connect 77 0 81 1;
#X connect 78 0 81 2;
#X connect 79 0 59 0;
#X connect 79 0 60 0;
#X connect 81 0 80 0;
#X connect 82 0 74 0;
#X connect 85 0 47 0;
#X connect 85 0 71 0;
#X connect 85 0 84 0;
#X connect 86 0 35 3;
#X connect 86 0 58 0;
