#N canvas 2895 62 713 713 12;
#X obj 94 266 unpack f f f f f f f f, f 36;
#X obj 268 355 r CLOCK;
#X obj 268 378 unpack;
#X obj 268 410 mu;
#X obj 301 411 mu;
#X obj 283 468 pack f f;
#X obj 301 438 t b f;
#X obj 79 299 f;
#X obj 109 299 f;
#X obj 139 299 f;
#X obj 170 299 f;
#X obj 200 299 f;
#X obj 231 299 f;
#X obj 261 299 f;
#X obj 292 299 f;
#X obj 79 206 mod 8;
#X obj 79 230 sel 0 1 2 3 4 5 6 7, f 41;
#X obj 79 156 r CLOCK;
#X obj 79 179 unpack;
#X obj 406 272 unpack f f f f f f f f, f 36;
#X obj 391 305 f;
#X obj 421 305 f;
#X obj 451 305 f;
#X obj 482 305 f;
#X obj 512 305 f;
#X obj 543 305 f;
#X obj 573 305 f;
#X obj 604 305 f;
#X obj 391 212 mod 8;
#X obj 391 236 sel 0 1 2 3 4 5 6 7, f 41;
#X obj 391 166 r CLOCK;
#X obj 391 189 unpack;
#X floatatom 38 281 5 0 0 0 - - -;
#X floatatom 184 456 5 0 0 0 - - -;
#X floatatom 379 426 5 0 0 0 - - -;
#X obj 401 484 tgl 30 0 TempoMess-\$2-snd TempoMess-\$2-rcv TempoMess
17 7 0 10 -262144 -1 -1 0 1;
#X obj 326 594 r CLOCK;
#X obj 401 556 != 1;
#X floatatom 355 557 5 0 0 0 - - -;
#X floatatom 477 570 5 0 0 0 - - -;
#X obj 283 527 spigot 0;
#X obj 326 621 spigot 1;
#X obj 247 657 s \$1-mulCLOCK;
#X obj 144 32 8faders 0.25 2 Tic-\$2;
#X obj 468 45 8faders 0.125 1 Time-\$2;
#X obj 473 424 r \$1-OnOff;
#X connect 0 0 7 1;
#X connect 0 1 8 1;
#X connect 0 2 9 1;
#X connect 0 3 10 1;
#X connect 0 4 11 1;
#X connect 0 5 12 1;
#X connect 0 6 13 1;
#X connect 0 7 14 1;
#X connect 1 0 2 0;
#X connect 2 0 3 0;
#X connect 2 1 4 0;
#X connect 3 0 5 0;
#X connect 3 0 33 0;
#X connect 4 0 6 0;
#X connect 4 0 34 0;
#X connect 5 0 40 0;
#X connect 6 0 5 0;
#X connect 6 1 5 1;
#X connect 7 0 3 1;
#X connect 8 0 3 1;
#X connect 9 0 3 1;
#X connect 10 0 3 1;
#X connect 11 0 3 1;
#X connect 12 0 3 1;
#X connect 13 0 3 1;
#X connect 14 0 3 1;
#X connect 15 0 16 0;
#X connect 15 0 32 0;
#X connect 16 0 7 0;
#X connect 16 1 8 0;
#X connect 16 2 9 0;
#X connect 16 3 10 0;
#X connect 16 4 11 0;
#X connect 16 5 12 0;
#X connect 16 6 13 0;
#X connect 16 7 14 0;
#X connect 17 0 18 0;
#X connect 18 0 15 0;
#X connect 19 0 20 1;
#X connect 19 1 21 1;
#X connect 19 2 22 1;
#X connect 19 3 23 1;
#X connect 19 4 24 1;
#X connect 19 5 25 1;
#X connect 19 6 26 1;
#X connect 19 7 27 1;
#X connect 20 0 4 1;
#X connect 21 0 4 1;
#X connect 22 0 4 1;
#X connect 23 0 4 1;
#X connect 24 0 4 1;
#X connect 25 0 4 1;
#X connect 26 0 4 1;
#X connect 27 0 4 1;
#X connect 28 0 29 0;
#X connect 29 0 20 0;
#X connect 29 1 21 0;
#X connect 29 2 22 0;
#X connect 29 3 23 0;
#X connect 29 4 24 0;
#X connect 29 5 25 0;
#X connect 29 6 26 0;
#X connect 29 7 27 0;
#X connect 30 0 31 0;
#X connect 31 0 28 0;
#X connect 35 0 37 0;
#X connect 35 0 38 0;
#X connect 35 0 40 1;
#X connect 36 0 41 0;
#X connect 37 0 39 0;
#X connect 37 0 41 1;
#X connect 40 0 42 0;
#X connect 41 0 42 0;
#X connect 43 0 0 0;
#X connect 44 0 19 0;
#X connect 45 0 35 0;
#X coords 0 -1 1 1 85 65 1 400 450;
