#N canvas 478 582 644 413 12;
#X floatatom 155 300 5 0 0 0 - - -;
#X obj 220 243 pofcolor 0 0 0 1;
#X msg 23 218 draw \$1;
#X obj 23 199 tgl 15 1 empty empty empty 17 7 0 10 -262144 -1 -1 1
1;
#X obj 155 366 outlet;
#X obj 74 49 inlet;
#X obj 227 30 inlet;
#X obj 282 31 inlet;
#X obj 74 176 t a a;
#X obj 227 67 t f b;
#X obj 282 67 t f b;
#X obj 293 135 t b b;
#X msg 357 146 1;
#X obj 295 168 del 2000;
#X msg 295 191 0;
#X obj 74 149 poftranslate \$3 \$4;
#X obj 74 254 poftouch \$1 \$2;
#X text 16 3 pof_number width height x y;
#X obj 343 29 inlet;
#X obj 414 29 inlet;
#X obj 343 66 t f b;
#X obj 414 65 t f b;
#X obj 323 219 f;
#N canvas 750 582 450 300 vslider 0;
#X obj 54 4 inlet;
#X obj 52 36 route down move up;
#X obj 51 67 unpack f f;
#X obj 126 68 unpack f f;
#X obj 135 122 -;
#X obj 135 182 +;
#X obj 161 208 outlet;
#X obj 150 90 t f f;
#X msg 212 135 0;
#X obj 161 183 clip 0 1;
#X obj 135 148 * -0.01;
#X obj 209 16 inlet;
#X connect 0 0 1 0;
#X connect 1 0 2 0;
#X connect 1 1 3 0;
#X connect 2 1 4 1;
#X connect 3 1 7 0;
#X connect 4 0 10 0;
#X connect 5 0 9 0;
#X connect 7 0 4 1;
#X connect 7 1 4 0;
#X connect 8 0 9 0;
#X connect 9 0 5 1;
#X connect 9 0 6 0;
#X connect 10 0 5 0;
#X connect 11 0 9 0;
#X restore 155 276 pd vslider;
#X obj 220 365 pofrect \$1 4;
#X obj 220 309 poftranslate 0 0;
#X obj 337 297 - 0.5;
#X obj 337 354 * \$2;
#X obj 337 329 * -1;
#X obj 74 79 route float;
#X obj 152 47 inlet;
#X obj 74 232 pofcolor \$6 \$7 \$8 \$9;
#X obj 179 191 unpack f f f f;
#X obj 476 30 inlet;
#X floatatom 180 79 5 0 0 0 - - -;
#X floatatom 408 368 5 0 0 0 - - -;
#X obj 408 272 apf Inst-\$11 \$10;
#X obj 430 310 + \$12;
#X obj 411 240 - \$12;
#X floatatom 446 343 5 0 0 0 - - -;
#X connect 0 0 4 0;
#X connect 0 0 26 0;
#X connect 1 0 25 0;
#X connect 2 0 16 0;
#X connect 3 0 2 0;
#X connect 5 0 29 0;
#X connect 6 0 9 0;
#X connect 7 0 10 0;
#X connect 8 0 31 0;
#X connect 8 1 1 0;
#X connect 9 0 16 1;
#X connect 9 0 24 1;
#X connect 9 1 11 0;
#X connect 10 0 16 2;
#X connect 10 1 11 0;
#X connect 11 0 13 0;
#X connect 11 1 12 0;
#X connect 12 0 22 0;
#X connect 13 0 14 0;
#X connect 14 0 22 0;
#X connect 15 0 8 0;
#X connect 16 1 23 0;
#X connect 18 0 20 0;
#X connect 19 0 21 0;
#X connect 20 0 15 1;
#X connect 20 1 11 0;
#X connect 21 0 15 2;
#X connect 21 1 11 0;
#X connect 23 0 0 0;
#X connect 23 0 38 0;
#X connect 25 0 24 0;
#X connect 26 0 28 0;
#X connect 27 0 25 2;
#X connect 28 0 27 0;
#X connect 29 0 23 1;
#X connect 29 1 15 0;
#X connect 30 0 34 0;
#X connect 30 0 23 1;
#X connect 31 0 16 0;
#X connect 32 0 31 1;
#X connect 32 1 31 2;
#X connect 32 2 31 3;
#X connect 32 3 31 4;
#X connect 33 0 32 0;
#X connect 36 0 35 0;
#X connect 36 0 37 0;
#X connect 37 0 23 1;
#X connect 37 0 39 0;
#X connect 38 0 36 0;
