#N canvas 2119 62 763 979 12;
#X obj 44 14 inlet head;
#X obj 42 288 t a a;
#X floatatom 483 533 5 0 0 0 - - -;
#X floatatom 531 540 5 0 0 0 - - -;
#X floatatom 584 778 5 0 0 0 - - -;
#X floatatom 370 359 5 0 0 0 - - -;
#X obj 42 322 t a a;
#X obj 42 615 t a a;
#X obj 41 940 poftexts typo 43;
#X obj 254 891 loadbang;
#X floatatom 229 714 5 0 0 0 - - -;
#X floatatom 158 666 5 0 0 0 - - -;
#X floatatom 139 812 5 0 0 0 - - -;
#X obj 42 183 t a a;
#X obj 69 245 poftouch 6000 6000;
#X obj 174 267 route down;
#X msg 131 196 draw 1;
#X obj 131 174 loadbang;
#X msg 174 291 0;
#X msg 167 87 1;
#X obj 69 219 pofcolor 0 0 0 0.8;
#X floatatom 210 812 5 0 0 0 - - -;
#X obj 135 510 vsl 15 100 0 1 0 0 empty empty empty 0 -9 0 10 -262144
-1 -1 0 1;
#X floatatom 135 617 5 0 0 0 - - -;
#X obj 202 510 vsl 15 100 0 1 0 0 empty empty empty 0 -9 0 10 -262144
-1 -1 0 1;
#X floatatom 202 617 5 0 0 0 - - -;
#X obj 269 509 vsl 15 100 0 1 0 0 empty empty empty 0 -9 0 10 -262144
-1 -1 0 1;
#X floatatom 269 616 5 0 0 0 - - -;
#X obj 336 509 vsl 15 100 0 1 0 0 empty empty empty 0 -9 0 10 -262144
-1 -1 0 1;
#X floatatom 336 616 5 0 0 0 - - -;
#X obj 69 638 pofcolor 0.75 0.8 0.2 1, f 45;
#X floatatom 158 715 5 0 0 0 - - -;
#X floatatom 123 667 5 0 0 0 - - -;
#X floatatom 143 764 5 0 0 0 - - -;
#X floatatom 106 765 5 0 0 0 - - -;
#X obj 454 602 vsl 15 100 0 1 0 0 empty empty empty 0 -9 0 10 -262144
-1 -1 0 1;
#X floatatom 454 709 5 0 0 0 - - -;
#X obj 521 602 vsl 15 100 0 1 0 0 empty empty empty 0 -9 0 10 -262144
-1 -1 0 1;
#X floatatom 521 709 5 0 0 0 - - -;
#X obj 588 601 vsl 15 100 0 1 0 0 empty empty empty 0 -9 0 10 -262144
-1 -1 0 1;
#X floatatom 588 708 5 0 0 0 - - -;
#X obj 655 601 vsl 15 100 0 1 0 0 empty empty empty 0 -9 0 10 -262144
-1 -1 0 1;
#X floatatom 655 708 5 0 0 0 - - -;
#X floatatom 510 778 5 0 0 0 - - -;
#X obj 437 752 pofcolor 0.6 0 0.7 1, f 37;
#X floatatom 118 865 5 0 0 0 - - -;
#X floatatom 83 866 5 0 0 0 - - -;
#X obj 41 918 pofcolor 0.6 0 0.7 1;
#X obj 125 294 bng 15 250 50 0 empty empty empty 17 7 0 10 -262144
-1 -1;
#X obj 290 317 bng 15 250 50 0 empty empty empty 17 7 0 10 -262144
-1 -1;
#X floatatom 309 375 5 0 0 0 - - -;
#X obj 69 368 pofscale 0.25 0.25 1;
#X msg 210 467 slider force 1 \, slider width 150;
#X obj 210 443 loadbang;
#X obj 69 404 scrollList/gui mixtapes 2000 1200 168 mixtape/listItem
;
#X obj 215 96 bng 15 250 50 0 empty empty empty 17 7 0 10 -262144 -1
-1;
#X floatatom 470 20 5 0 0 0 - - -;
#X floatatom 518 27 5 0 0 0 - - -;
#X floatatom 468 100 5 0 0 0 - - -;
#X floatatom 516 107 5 0 0 0 - - -;
#X floatatom 466 181 5 0 0 0 - - -;
#X floatatom 514 188 5 0 0 0 - - -;
#X floatatom 464 261 5 0 0 0 - - -;
#X floatatom 512 268 5 0 0 0 - - -;
#X obj 69 788 poftranslate 0 -250;
#X obj 41 895 poftranslate -20 -250;
#X obj 69 835 pofrect 730 40 10 10 0 0;
#X obj 88 736 pofrect 730 20 0 0 10 10;
#X obj 437 801 pofrect 730 500 10 10 0 0;
#X obj 436 559 poftranslate 0 13;
#X obj 88 690 poftranslate 0 268;
#X obj 423 46 poftranslate -50 14;
#X obj 421 126 poftranslate 0 242;
#X obj 417 287 poftranslate 0 242;
#X obj 419 207 poftranslate 400 -242;
#X obj 298 863 bng 15 250 50 0 empty empty empty 17 7 0 10 -262144
-1 -1;
#X obj 254 917 makesymbol ClockMess_\$2;
#X msg 254 943 text \$1;
#X obj 167 64 r concert-MessClock-\$1;
#X obj 423 73 instruments/8Sliders Tic-\$1 Tic;
#X obj 420 157 instruments/8Sliders Time-\$1 Time;
#X obj 419 232 instruments/8Sliders Decay-\$1 Decay;
#X obj 416 315 instruments/8Sliders Veloce-\$1 Veloce;
#N canvas 1148 582 688 479 on-off 1;
#X floatatom 51 53 5 0 0 0 - - -;
#X floatatom 90 52 5 0 0 0 - - -;
#X obj 225 29 t b b;
#X obj 225 4 loadbang;
#X obj 149 300 route down;
#X obj 152 327 b;
#X msg 238 84 reserve BoutonMachineTouch.png \, reserve BoutonMachineUp.png
;
#X obj 285 4 bng 15 250 50 0 empty empty empty 17 7 0 10 -262144 -1
-1;
#X msg 211 60 reserve BoutonMachineOn.png \, reserve BoutonMachineOff.png
;
#X obj 177 327 r concert-mute-\$1;
#X obj 154 354 f;
#X obj 154 381 == 0;
#N canvas 0 582 450 300 text 0;
#X msg 176 62 text on/off;
#X obj 71 171 poftexts typo 18;
#X obj 176 39 loadbang;
#X obj 80 66 inlet;
#X floatatom 94 98 5 0 0 0 - - -;
#X floatatom 134 94 5 0 0 0 - - -;
#X obj 59 125 poftranslate 4 40;
#X connect 0 0 1 0;
#X connect 2 0 0 0;
#X connect 3 0 6 0;
#X connect 4 0 6 1;
#X connect 5 0 6 2;
#X connect 6 0 1 0;
#X restore 37 109 pd text on/off;
#X obj 12 13 inlet;
#X obj 146 417 tgl 15 0 empty empty empty 17 7 0 10 -262144 -1 -1 1
1;
#X obj 56 246 pofimage BoutonMachineOff.png 50 50;
#X obj 18 73 poftranslate -352 -350;
#X obj 229 433 s \$1-OnOff;
#X obj 56 273 poftouch 50 50;
#X connect 0 0 16 1;
#X connect 1 0 16 2;
#X connect 2 0 8 0;
#X connect 2 1 6 0;
#X connect 3 0 2 0;
#X connect 4 0 5 0;
#X connect 5 0 10 0;
#X connect 6 0 15 0;
#X connect 7 0 2 0;
#X connect 8 0 15 0;
#X connect 9 0 10 1;
#X connect 10 0 11 0;
#X connect 11 0 14 0;
#X connect 11 0 17 0;
#X connect 13 0 16 0;
#X connect 15 0 18 0;
#X connect 16 0 12 0;
#X connect 16 0 15 0;
#X connect 18 1 4 0;
#X restore 466 359 pd on-off;
#X obj 42 159 pofvisible;
#X connect 0 0 84 0;
#X connect 1 0 6 0;
#X connect 1 1 69 0;
#X connect 2 0 69 1;
#X connect 3 0 69 2;
#X connect 4 0 68 2;
#X connect 6 0 7 0;
#X connect 6 1 71 0;
#X connect 7 0 65 0;
#X connect 7 1 30 0;
#X connect 9 0 76 0;
#X connect 10 0 67 2;
#X connect 11 0 70 2;
#X connect 12 0 66 1;
#X connect 13 0 1 0;
#X connect 13 1 20 0;
#X connect 14 1 15 0;
#X connect 15 0 18 0;
#X connect 15 0 48 0;
#X connect 15 1 49 0;
#X connect 16 0 14 0;
#X connect 17 0 16 0;
#X connect 18 0 84 0;
#X connect 19 0 84 0;
#X connect 20 0 14 0;
#X connect 21 0 66 2;
#X connect 22 0 23 0;
#X connect 23 0 30 1;
#X connect 24 0 25 0;
#X connect 25 0 30 2;
#X connect 26 0 27 0;
#X connect 27 0 30 3;
#X connect 28 0 29 0;
#X connect 29 0 30 4;
#X connect 30 0 64 0;
#X connect 30 0 70 0;
#X connect 31 0 67 1;
#X connect 32 0 70 1;
#X connect 33 0 64 2;
#X connect 34 0 64 1;
#X connect 35 0 36 0;
#X connect 36 0 44 1;
#X connect 37 0 38 0;
#X connect 38 0 44 2;
#X connect 39 0 40 0;
#X connect 40 0 44 3;
#X connect 41 0 42 0;
#X connect 42 0 44 4;
#X connect 43 0 68 1;
#X connect 44 0 68 0;
#X connect 45 0 65 2;
#X connect 46 0 65 1;
#X connect 47 0 8 0;
#X connect 51 0 54 0;
#X connect 52 0 54 1;
#X connect 53 0 52 0;
#X connect 56 0 71 1;
#X connect 57 0 71 2;
#X connect 58 0 72 1;
#X connect 59 0 72 2;
#X connect 60 0 74 1;
#X connect 61 0 74 2;
#X connect 62 0 73 1;
#X connect 63 0 73 2;
#X connect 64 0 66 0;
#X connect 65 0 47 0;
#X connect 69 0 44 0;
#X connect 70 0 67 0;
#X connect 71 0 79 0;
#X connect 72 0 80 0;
#X connect 73 0 82 0;
#X connect 74 0 81 0;
#X connect 75 0 76 0;
#X connect 76 0 77 0;
#X connect 77 0 8 0;
#X connect 78 0 19 0;
#X connect 78 0 55 0;
#X connect 79 0 72 0;
#X connect 80 0 74 0;
#X connect 81 0 73 0;
#X connect 82 0 83 0;
#X connect 84 0 13 0;
