#N canvas 1312 913 763 979 12;
#X declare -path AutoPreset;
#X obj 44 14 inlet head;
#X obj 42 288 t a a;
#X floatatom 483 533 5 0 0 0 - - -;
#X floatatom 531 540 5 0 0 0 - - -;
#X floatatom 584 778 5 0 0 0 - - -;
#X obj 42 322 t a a;
#X obj 42 615 t a a;
#X obj 41 940 poftexts typo 43;
#X obj 254 891 loadbang;
#X floatatom 229 714 5 0 0 0 - - -;
#X floatatom 158 666 5 0 0 0 - - -;
#X floatatom 139 812 5 0 0 0 - - -;
#X obj 42 183 t a a;
#X obj 188 277 route down;
#X msg 131 196 draw 1;
#X obj 131 174 loadbang;
#X msg 188 301 0;
#X msg 167 87 1;
#X obj 69 219 pofcolor 0 0 0 0.8;
#X floatatom 210 812 5 0 0 0 - - -;
#X obj 135 510 vsl 15 100 0 1 0 0 empty empty empty 0 -9 0 10 -262144
-1 -1 0 1;
#X floatatom 135 617 5 0 0 0 - - -;
#X obj 202 510 vsl 15 100 0 1 0 0 empty empty empty 0 -9 0 10 -262144
-1 -1 0 1;
#X floatatom 202 617 5 0 0 0 - - -;
#X obj 269 509 vsl 15 100 0 1 0 0 empty empty empty 0 -9 0 10 -262144
-1 -1 0 1;
#X floatatom 269 616 5 0 0 0 - - -;
#X obj 336 509 vsl 15 100 0 1 0 0 empty empty empty 0 -9 0 10 -262144
-1 -1 0 1;
#X floatatom 336 616 5 0 0 0 - - -;
#X obj 69 638 pofcolor 0.75 0.8 0.2 1, f 45;
#X floatatom 158 715 5 0 0 0 - - -;
#X floatatom 123 667 5 0 0 0 - - -;
#X floatatom 143 764 5 0 0 0 - - -;
#X floatatom 106 765 5 0 0 0 - - -;
#X obj 454 602 vsl 15 100 0 1 0 0 empty empty empty 0 -9 0 10 -262144
-1 -1 0 1;
#X floatatom 454 709 5 0 0 0 - - -;
#X obj 521 602 vsl 15 100 0 1 0 0 empty empty empty 0 -9 0 10 -262144
-1 -1 0 1;
#X floatatom 521 709 5 0 0 0 - - -;
#X obj 588 601 vsl 15 100 0 1 0 0 empty empty empty 0 -9 0 10 -262144
-1 -1 0 1;
#X floatatom 588 708 5 0 0 0 - - -;
#X obj 655 601 vsl 15 100 0 1 0 0 empty empty empty 0 -9 0 10 -262144
-1 -1 0 1;
#X floatatom 655 708 5 0 0 0 - - -;
#X floatatom 510 778 5 0 0 0 - - -;
#X obj 437 752 pofcolor 0.6 0 0.7 1, f 37;
#X floatatom 118 865 5 0 0 0 - - -;
#X floatatom 83 866 5 0 0 0 - - -;
#X obj 41 918 pofcolor 0.6 0 0.7 1;
#X obj 125 294 bng 15 250 50 0 empty empty empty 17 7 0 10 -262144
-1 -1;
#X obj 290 317 bng 15 250 50 0 empty empty empty 17 7 0 10 -262144
-1 -1;
#X obj 215 96 bng 15 250 50 0 empty empty empty 17 7 0 10 -262144 -1
-1;
#X floatatom 470 20 5 0 0 0 - - -;
#X floatatom 518 27 5 0 0 0 - - -;
#X floatatom 468 100 5 0 0 0 - - -;
#X floatatom 516 107 5 0 0 0 - - -;
#X floatatom 466 181 5 0 0 0 - - -;
#X floatatom 514 188 5 0 0 0 - - -;
#X floatatom 464 261 5 0 0 0 - - -;
#X floatatom 512 268 5 0 0 0 - - -;
#X obj 69 788 poftranslate 0 -250;
#X obj 41 895 poftranslate -20 -250;
#X obj 69 835 pofrect 730 40 10 10 0 0;
#X obj 88 736 pofrect 730 20 0 0 10 10;
#X obj 437 801 pofrect 730 500 10 10 0 0;
#X obj 436 559 poftranslate 0 13;
#X obj 88 690 poftranslate 0 268;
#X obj 423 46 poftranslate -50 14;
#X obj 421 126 poftranslate 0 242;
#X obj 417 287 poftranslate 0 242;
#X obj 419 207 poftranslate 400 -242;
#X obj 298 863 bng 15 250 50 0 empty empty empty 17 7 0 10 -262144
-1 -1;
#X obj 254 917 makesymbol ClockMess_\$2;
#X msg 254 943 text \$1;
#X obj 167 64 r concert-MessClock-\$1;
#X obj 42 159 pofvisible;
#N canvas 2281 986 837 924 on-off 1;
#X floatatom 56 44 5 0 0 0 - - -;
#X floatatom 95 43 5 0 0 0 - - -;
#X obj 225 29 t b b;
#X obj 225 4 loadbang;
#X obj 217 304 route down;
#X obj 220 331 b;
#X obj 285 4 bng 15 250 50 0 empty empty empty 17 7 0 10 -262144 -1
-1;
#X obj 222 358 f;
#X obj 222 385 == 0;
#N canvas 0 582 450 300 text 0;
#X msg 176 62 text on/off;
#X obj 71 171 poftexts typo 18;
#X obj 176 39 loadbang;
#X obj 80 66 inlet;
#X floatatom 94 98 5 0 0 0 - - -;
#X floatatom 134 94 5 0 0 0 - - -;
#X obj 59 125 poftranslate 4 40;
#X connect 0 0 1 0;
#X connect 2 0 0 0;
#X connect 3 0 6 0;
#X connect 4 0 6 1;
#X connect 5 0 6 2;
#X connect 6 0 1 0;
#X restore 76 133 pd text on/off;
#X obj 12 13 inlet;
#X obj 214 421 tgl 15 0 empty empty empty 17 7 0 10 -262144 -1 -1 0
1;
#X obj 234 417 s \$1-OnOff;
#X obj 193 129 tgl 15 0 empty empty empty 17 7 0 10 -262144 -1 -1 0
1;
#X msg 193 175 set BoutonMachineOff.png;
#X msg 212 197 set BoutonMachineOn.png;
#X obj 193 151 sel 0 1;
#X msg 211 60 reserve BoutonMachineOn.png \, reserve BoutonMachineOff.png
;
#X msg 249 104 reserve BoutonMachineTouch.png \, reserve BoutonMachineUp.png
;
#X obj 108 343 tgl 15 0 empty empty empty 17 7 0 10 -262144 -1 -1 0
1;
#X msg 98 358 draw \$1;
#X obj 57 246 pofimage BoutonMachineOff.png 60 60;
#X obj 186 358 bng 15 250 50 0 empty empty empty 17 7 0 10 -262144
-1 -1;
#X floatatom 90 276 5 0 0 0 - - -;
#X floatatom 142 286 5 0 0 0 - - -;
#X obj 61 312 pofscale 1 1;
#X obj 63 393 poftouch 60 60;
#X obj 10 534 outlet;
#X msg 427 316 1;
#X obj 158 87 r \$1-OnOff;
#X obj 245 331 r \$1-OnOff;
#X obj 327 268 r \$1-Set-OnOff;
#X obj 17 102 t a a a;
#X obj 347 397 t b b;
#X obj 347 372 loadbang;
#X obj 253 792 route down;
#X obj 315 497 tgl 15 0 empty empty empty 17 7 0 10 -262144 -1 -1 0
1;
#X obj 315 519 sel 0 1;
#X msg 333 428 reserve BoutonMachineOn.png \, reserve BoutonMachineOff.png
;
#X msg 371 472 reserve BoutonMachineTouch.png \, reserve BoutonMachineUp.png
;
#X msg 220 726 draw \$1;
#X obj 308 726 bng 15 250 50 0 empty empty empty 17 7 0 10 -262144
-1 -1;
#X floatatom 212 644 5 0 0 0 - - -;
#X floatatom 264 654 5 0 0 0 - - -;
#X obj 183 680 pofscale 1 1;
#X obj 185 761 poftouch 60 60;
#X msg 549 684 1;
#X obj 449 636 r \$1-Set-OnOff;
#X obj 179 614 pofimage BoutonMachineUp.png 60 60;
#X msg 315 543 set BoutonMachineUp.png;
#X msg 334 565 set BoutonMachineTouch.png;
#N canvas 0 582 450 404 text 0;
#X obj 75 312 poftexts typo 18;
#X obj 175 247 loadbang;
#X obj 80 66 inlet;
#X floatatom 94 98 5 0 0 0 - - -;
#X floatatom 134 94 5 0 0 0 - - -;
#X obj 59 125 poftranslate 4 40;
#X msg 175 270 text save;
#X obj 76 180 pofcolor 1 1 0 1;
#X connect 1 0 6 0;
#X connect 2 0 5 0;
#X connect 3 0 5 1;
#X connect 4 0 5 2;
#X connect 5 0 7 0;
#X connect 6 0 0 0;
#X connect 7 0 0 0;
#X restore 198 501 pd text Save;
#X obj 253 816 b;
#N canvas 0 96 450 300 Save 0;
#X obj 97 38 inlet;
#X obj 231 115 del 250;
#X obj 204 94 t b b;
#X msg 187 128 1;
#X msg 232 137 0;
#X obj 94 70 t b b;
#X obj 222 194 s \$1-SaveBut;
#X obj 55 178 s All-SaveBut;
#X connect 0 0 5 0;
#X connect 1 0 4 0;
#X connect 2 0 3 0;
#X connect 2 1 1 0;
#X connect 3 0 6 0;
#X connect 4 0 6 0;
#X connect 5 0 7 0;
#X connect 5 1 2 0;
#X restore 247 858 pd Save;
#X floatatom 82 434 5 0 0 0 - - -;
#X floatatom 121 433 5 0 0 0 - - -;
#X obj 43 464 poftranslate 0 -120;
#X obj 89 552 pofcolor 1 1 0 1;
#X obj 162 858 bng 15 250 50 0 empty empty empty 17 7 0 10 -262144
-1 -1;
#X obj 276 462 r \$1-SaveBut;
#X obj 18 73 poftranslate 0 0;
#N canvas 498 391 450 404 text 1;
#X obj 75 312 poftexts typo 18;
#X obj 164 222 loadbang;
#X obj 80 66 inlet;
#X floatatom 94 98 5 0 0 0 - - -;
#X floatatom 134 94 5 0 0 0 - - -;
#X obj 76 180 pofcolor 1 1 0 1;
#X obj 59 125 poftranslate 4 60;
#X obj 268 251 route symbol;
#X obj 291 227 print songg;
#X obj 276 128 r NameSong-snd;
#X msg 175 270 text "\$1";
#X connect 1 0 10 0;
#X connect 2 0 6 0;
#X connect 3 0 6 1;
#X connect 4 0 6 2;
#X connect 5 0 0 0;
#X connect 6 0 5 0;
#X connect 9 0 10 0;
#X connect 10 0 0 0;
#X restore 91 517 pd text Song;
#X connect 0 0 60 1;
#X connect 1 0 60 2;
#X connect 2 0 17 0;
#X connect 2 1 18 0;
#X connect 3 0 2 0;
#X connect 4 0 5 0;
#X connect 5 0 7 0;
#X connect 5 0 22 0;
#X connect 6 0 2 0;
#X connect 7 0 8 0;
#X connect 8 0 11 0;
#X connect 8 0 12 0;
#X connect 10 0 60 0;
#X connect 13 0 16 0;
#X connect 14 0 21 0;
#X connect 15 0 21 0;
#X connect 16 0 14 0;
#X connect 16 1 15 0;
#X connect 17 0 21 0;
#X connect 18 0 21 0;
#X connect 19 0 20 0;
#X connect 20 0 26 0;
#X connect 21 0 25 0;
#X connect 23 0 25 1;
#X connect 24 0 25 2;
#X connect 25 0 26 0;
#X connect 26 1 4 0;
#X connect 28 0 7 1;
#X connect 29 0 13 0;
#X connect 30 0 7 1;
#X connect 31 0 7 0;
#X connect 32 0 27 0;
#X connect 32 1 56 0;
#X connect 32 2 9 0;
#X connect 32 2 21 0;
#X connect 33 0 38 0;
#X connect 33 1 39 0;
#X connect 34 0 33 0;
#X connect 35 0 52 0;
#X connect 36 0 37 0;
#X connect 37 0 49 0;
#X connect 37 1 50 0;
#X connect 38 0 48 0;
#X connect 39 0 48 0;
#X connect 40 0 45 0;
#X connect 42 0 44 1;
#X connect 43 0 44 2;
#X connect 44 0 45 0;
#X connect 45 1 35 0;
#X connect 48 0 44 0;
#X connect 49 0 48 0;
#X connect 50 0 48 0;
#X connect 52 0 53 0;
#X connect 52 0 58 0;
#X connect 54 0 56 1;
#X connect 55 0 56 2;
#X connect 56 0 51 0;
#X connect 56 0 57 0;
#X connect 56 0 61 0;
#X connect 57 0 48 0;
#X connect 59 0 36 0;
#X connect 60 0 32 0;
#X restore 385 15 pd on-off;
#X obj 69 245 poftouch 6000 6000;
#X obj 309 359 print;
#N canvas 638 282 344 423 vis 0;
#X obj 22 14 inlet;
#X floatatom 120 111 5 0 0 0 - - -;
#X floatatom 62 130 5 0 0 0 - - -;
#X obj 31 80 unpack f f f;
#X floatatom 10 128 5 0 0 0 - - -;
#X obj 113 326 outlet;
#X obj 28 237 t b;
#X obj 164 236 t b;
#X msg 113 291 0;
#X obj 28 172 moses -365;
#X obj 95 197 moses 365;
#X obj 164 171 moses -230;
#X obj 231 196 moses 260;
#X connect 0 0 3 0;
#X connect 3 0 4 0;
#X connect 3 0 9 0;
#X connect 3 1 2 0;
#X connect 3 1 11 0;
#X connect 3 2 1 0;
#X connect 6 0 8 0;
#X connect 7 0 8 0;
#X connect 8 0 5 0;
#X connect 9 0 6 0;
#X connect 9 1 10 0;
#X connect 10 1 6 0;
#X connect 11 0 7 0;
#X connect 11 1 12 0;
#X connect 12 1 7 0;
#X restore 195 337 pd vis;
#X msg 195 362 0;
#X obj 420 157 instruments/8Sliders Time-\$1 Time \$1 1;
#X obj 423 73 instruments/8Sliders Tic-\$1 Tic \$1 1;
#X obj 419 232 instruments/8Sliders Decay-\$1 Attack \$1 1;
#X obj 416 315 instruments/8Sliders Veloce-\$1 Volume \$1 0.66666;
#X obj 475 359 declare -path AutoPreset;
#X obj 434 474 apsubmaster Inst-\$1 SONGschoolscape Inst-\$1;
#X connect 0 0 72 0;
#X connect 1 0 5 0;
#X connect 1 1 62 0;
#X connect 2 0 62 1;
#X connect 3 0 62 2;
#X connect 4 0 61 2;
#X connect 5 0 6 0;
#X connect 5 1 73 0;
#X connect 6 0 58 0;
#X connect 6 1 28 0;
#X connect 8 0 69 0;
#X connect 9 0 60 2;
#X connect 10 0 63 2;
#X connect 11 0 59 1;
#X connect 12 0 1 0;
#X connect 12 1 18 0;
#X connect 13 0 16 0;
#X connect 13 0 46 0;
#X connect 13 0 76 0;
#X connect 13 1 47 0;
#X connect 14 0 74 0;
#X connect 15 0 14 0;
#X connect 17 0 72 0;
#X connect 18 0 74 0;
#X connect 19 0 59 2;
#X connect 20 0 21 0;
#X connect 21 0 28 1;
#X connect 22 0 23 0;
#X connect 23 0 28 2;
#X connect 24 0 25 0;
#X connect 25 0 28 3;
#X connect 26 0 27 0;
#X connect 27 0 28 4;
#X connect 28 0 57 0;
#X connect 28 0 63 0;
#X connect 29 0 60 1;
#X connect 30 0 63 1;
#X connect 31 0 57 2;
#X connect 32 0 57 1;
#X connect 33 0 34 0;
#X connect 34 0 42 1;
#X connect 35 0 36 0;
#X connect 36 0 42 2;
#X connect 37 0 38 0;
#X connect 38 0 42 3;
#X connect 39 0 40 0;
#X connect 40 0 42 4;
#X connect 41 0 61 1;
#X connect 42 0 61 0;
#X connect 43 0 58 2;
#X connect 44 0 58 1;
#X connect 45 0 7 0;
#X connect 49 0 64 1;
#X connect 50 0 64 2;
#X connect 51 0 65 1;
#X connect 52 0 65 2;
#X connect 53 0 67 1;
#X connect 54 0 67 2;
#X connect 55 0 66 1;
#X connect 56 0 66 2;
#X connect 57 0 59 0;
#X connect 58 0 45 0;
#X connect 62 0 42 0;
#X connect 63 0 60 0;
#X connect 64 0 79 0;
#X connect 65 0 78 0;
#X connect 66 0 81 0;
#X connect 67 0 80 0;
#X connect 68 0 69 0;
#X connect 69 0 70 0;
#X connect 70 0 7 0;
#X connect 71 0 17 0;
#X connect 71 0 48 0;
#X connect 72 0 12 0;
#X connect 73 0 64 0;
#X connect 74 1 13 0;
#X connect 76 0 77 0;
#X connect 77 0 72 0;
#X connect 78 0 67 0;
#X connect 79 0 65 0;
#X connect 80 0 66 0;
