#N canvas 377 582 565 991 10;
#X floatatom 64 32 5 0 0 0 - - -;
#X floatatom 100 31 5 0 0 0 - - -;
#X floatatom 234 75 5 0 0 0 - - -;
#X floatatom 216 135 5 0 0 0 - - -;
#X obj 72 101 pofrect 650 345 10 10 0 0;
#X floatatom 283 136 5 0 0 0 - - -;
#X obj 55 139 nbx 6 14 -1e+37 1e+37 0 1 empty empty empty 0 -8 0 10
-262144 -1 -1 -25 256;
#X floatatom 139 131 5 0 0 0 - - -;
#X obj 209 266 bng 15 250 50 0 empty empty empty 17 7 0 10 -262144
-1 -1;
#X obj 210 227 route down;
#X obj 210 246 b;
#X floatatom 156 371 5 0 0 0 - - -;
#X floatatom 63 317 5 0 0 0 - - -;
#X floatatom 106 315 5 0 0 0 - - -;
#X obj 277 245 tgl 15 0 empty empty empty 17 7 0 10 -262144 -1 -1 0
1;
#X obj 243 452 route down;
#X obj 243 471 b;
#X floatatom 214 365 5 0 0 0 - - -;
#X obj 159 429 poftouch 36 36;
#X msg 279 312 set BoutonMachineOn.png;
#X msg 275 289 set BoutonMachineOff.png;
#X obj 76 220 poftouch 621 294;
#X obj 56 527 nbx 6 14 -1e+37 1e+37 0 1 empty empty empty 0 -8 0 10
-262144 -1 -1 2 256;
#X obj 125 526 nbx 6 14 -1e+37 1e+37 0 1 empty empty empty 0 -8 0 10
-262144 -1 -1 180 256;
#X obj 100 502 bng 15 250 50 0 empty empty empty 17 7 0 10 -262144
-1 -1;
#X floatatom 83 600 5 0 0 0 - - -;
#X floatatom 237 602 5 0 0 0 - - -;
#X floatatom 45 657 5 0 0 0 - - -;
#X obj 321 602 route up down;
#X obj 321 623 t b;
#X obj 361 626 t b;
#X msg 361 649 1, f 1;
#X msg 322 644 0, f 1;
#X obj 321 668 change;
#X floatatom 321 689 5 0 0 0 - - -;
#X obj 81 678 * 128;
#X obj 72 78 pofcolor 0.1 0.8 0.1 1;
#X obj 72 398 pofimage BoutonMachineOff.png 35 35;
#X floatatom 60 786 5 0 0 0 - - -;
#X floatatom 113 782 5 0 0 0 - - -;
#X obj 210 756 tgl 15 0 empty empty empty 17 7 0 10 -262144 -1 -1 0
1;
#X obj 166 893 route down;
#X obj 166 912 b;
#X obj 206 778 sel 1 0;
#X msg 225 803 set BoutonMachineUp.png;
#X msg 206 826 set BoutonMachineTouch.png;
#X obj 134 926 bng 15 250 50 0 empty empty empty 17 7 0 10 -262144
-1 -1;
#X obj 68 870 pofimage BoutonMachineUp.png 36 36;
#X obj 67 890 poftouch 36 36;
#X obj 343 731 t b b;
#X obj 370 752 del 250;
#X msg 370 772 0, f 2;
#X msg 327 766 1, f 2;
#X obj 76 192 pofimage instruments/Pupitre.png 596 294;
#X obj 248 912 s REG-0-reset;
#X obj 296 711 s REG-0-adjTouch;
#X obj 271 471 r concert-mute-\$1;
#X obj 256 494 f;
#X obj 256 515 == 0;
#X obj 256 536 s concert-mute-\$1;
#X obj 21 9 instrument_pof_common \$1 Regle;
#X obj 277 224 r concert-instrument-isplaying-\$1;
#X obj 276 265 sel 0 1;
#X obj 386 157 multiOR, f 23;
#X obj 386 181 s instrument_touched-\$1;
#X obj 462 134 r REG-0-adjTouch;
#X obj 386 132 r REG-0-on;
#X obj 38 290 touch/pof_Instru \$1 REG 70;
#X obj 78 702 s REG-0-Note_adjust;
#X obj 61 626 imageKnob380 instruments/Watt.png 0.53;
#X msg 178 503 out \$1;
#X obj 177 460 loadbang;
#X msg 179 482 1;
#N canvas 0 1371 450 300 text 0;
#X msg 176 62 text on/off;
#X obj 71 171 poftexts typo 18;
#X obj 176 39 loadbang;
#X obj 80 66 inlet;
#X floatatom 94 98 5 0 0 0 - - -;
#X floatatom 134 94 5 0 0 0 - - -;
#X obj 59 125 poftranslate 4 28;
#X connect 0 0 1 0;
#X connect 2 0 0 0;
#X connect 3 0 6 0;
#X connect 4 0 6 1;
#X connect 5 0 6 2;
#X connect 6 0 1 0;
#X restore 41 469 pd text on/off;
#N canvas 0 1371 450 300 text 0;
#X obj 71 171 poftexts typo 18;
#X obj 176 39 loadbang;
#X obj 80 66 inlet;
#X floatatom 94 98 5 0 0 0 - - -;
#X floatatom 134 94 5 0 0 0 - - -;
#X obj 59 125 poftranslate 4 28;
#X msg 176 62 text reset;
#X connect 1 0 6 0;
#X connect 2 0 5 0;
#X connect 3 0 5 1;
#X connect 4 0 5 2;
#X connect 5 0 0 0;
#X connect 6 0 0 0;
#X restore 26 918 pd text reset;
#N canvas 0 1371 450 300 text 0;
#X obj 71 171 poftexts typo 18;
#X obj 176 39 loadbang;
#X obj 80 66 inlet;
#X floatatom 94 98 5 0 0 0 - - -;
#X floatatom 134 94 5 0 0 0 - - -;
#X msg 177 62 text justesse;
#X obj 59 125 poftranslate 0 50;
#X connect 1 0 5 0;
#X connect 2 0 6 0;
#X connect 3 0 6 1;
#X connect 4 0 6 2;
#X connect 5 0 0 0;
#X connect 6 0 0 0;
#X restore 129 593 pd text justesse;
#X floatatom 152 549 5 0 0 0 - - -;
#X floatatom 189 548 5 0 0 0 - - -;
#X obj 21 256 poftranslate 0 0;
#X floatatom 450 43 5 0 0 0 - - -;
#X floatatom 496 41 5 0 0 0 - - -;
#X floatatom 290 9 5 0 0 0 - - -;
#X floatatom 338 16 5 0 0 0 - - -;
#X obj 21 165 poftranslate -25 15;
#X obj 298 64 pofimage instruments/Glisse.png 80 50;
#X obj 243 35 poftranslate 0 -170;
#N canvas 582 582 618 405 Pitch 0;
#X obj 30 11 inlet;
#X floatatom 264 120 5 0 0 0 - - -;
#X floatatom 331 121 5 0 0 0 - - -;
#X floatatom 158 168 5 0 0 0 - - -;
#X obj 399 159 route up down;
#X obj 399 180 t b;
#X obj 439 183 t b;
#X msg 439 206 1, f 1;
#X msg 399 202 0, f 1;
#X obj 399 225 change;
#X floatatom 399 246 5 0 0 0 - - -;
#X obj 200 158 * 128;
#X obj 174 137 imageKnob380 instruments/Watt.png 0.53;
#X floatatom 253 237 5 0 0 0 - - -;
#X floatatom 362 45 5 0 0 0 - - -;
#X msg 409 85 out \$1;
#X msg 338 72 incr \$1;
#X obj 408 42 loadbang;
#X floatatom 99 69 5 0 0 0 - - -;
#X floatatom 136 68 5 0 0 0 - - -;
#N canvas 0 582 450 300 text 0;
#X obj 71 171 poftexts typo 18;
#X obj 176 39 loadbang;
#X obj 80 66 inlet;
#X floatatom 94 98 5 0 0 0 - - -;
#X floatatom 134 94 5 0 0 0 - - -;
#X obj 59 125 poftranslate 0 50;
#X msg 177 62 text +pitch-;
#X connect 1 0 6 0;
#X connect 2 0 5 0;
#X connect 3 0 5 1;
#X connect 4 0 5 2;
#X connect 5 0 0 0;
#X connect 6 0 0 0;
#X restore 76 113 pd text pitch;
#X obj 374 268 s REG-0-pitchTouch;
#X obj 200 179 s REG-0-Pitch;
#N canvas 1104 709 450 300 double 0;
#X obj 88 23 inlet;
#X obj 93 60 sel 1;
#X obj 222 68 timer;
#X obj 78 189 i;
#X obj 110 189 + 1;
#X obj 91 93 t b b;
#X msg 120 152 0;
#X obj 121 129 del 200;
#X obj 77 222 sel 2;
#X obj 77 249 outlet;
#X connect 0 0 1 0;
#X connect 1 0 5 0;
#X connect 3 0 4 0;
#X connect 3 0 8 0;
#X connect 4 0 3 1;
#X connect 5 0 3 0;
#X connect 5 1 7 0;
#X connect 6 0 3 0;
#X connect 7 0 6 0;
#X connect 8 0 9 0;
#X restore 516 229 pd double;
#X msg 410 64 0.5;
#X obj 76 92 poftranslate 0 85;
#X obj 426 111 apf Inst-\$1 Pitch-\$1;
#X connect 0 0 25 0;
#X connect 1 0 12 1;
#X connect 2 0 12 2;
#X connect 4 0 5 0;
#X connect 4 1 6 0;
#X connect 5 0 8 0;
#X connect 6 0 7 0;
#X connect 7 0 9 0;
#X connect 8 0 9 0;
#X connect 9 0 10 0;
#X connect 9 0 21 0;
#X connect 9 0 23 0;
#X connect 11 0 22 0;
#X connect 12 0 3 0;
#X connect 12 0 11 0;
#X connect 12 0 26 0;
#X connect 12 1 4 0;
#X connect 13 0 21 0;
#X connect 14 0 16 0;
#X connect 15 0 12 3;
#X connect 16 0 12 3;
#X connect 17 0 24 0;
#X connect 18 0 25 1;
#X connect 19 0 25 2;
#X connect 23 0 24 0;
#X connect 24 0 15 0;
#X connect 25 0 20 0;
#X connect 25 0 12 0;
#X connect 26 0 12 3;
#X connect 26 0 11 0;
#X restore 50 576 pd Pitch;
#X obj 21 51 poftranslate 0 -16;
#X obj 21 547 poftranslate 2 180;
#X obj 129 572 poftranslate 0 -27;
#X obj 21 337 poftranslate 345 -160;
#N canvas 957 582 613 521 BoutonSolo 1;
#X floatatom 173 225 5 0 0 0 - - -;
#X obj 193 129 tgl 15 0 empty empty empty 17 7 0 10 -262144 -1 -1 0
1;
#X obj 146 9 loadbang;
#X obj 142 310 route down;
#X obj 206 9 bng 15 250 50 0 empty empty empty 17 7 0 10 -262144 -1
-1;
#X floatatom 270 227 5 0 0 0 - - -;
#X obj 56 273 poftouch 36 36;
#X obj 193 151 sel 0 1;
#X obj 18 18 inlet head;
#X floatatom 51 53 5 0 0 0 - - -;
#X floatatom 90 52 5 0 0 0 - - -;
#X obj 24 449 outlet;
#N canvas 0 582 450 300 text 0;
#X obj 116 233 poftexts typo 18;
#X obj 176 39 loadbang;
#X obj 80 66 inlet;
#X floatatom 94 98 5 0 0 0 - - -;
#X floatatom 134 94 5 0 0 0 - - -;
#X obj 288 35 sel 0 1;
#X obj 290 13 r SoloOnOff-\$1;
#X msg 234 135 text Soloist-on;
#X msg 177 68 text Soloist-off;
#X obj 69 174 pofcolor 0 0 0 1;
#X obj 59 125 poftranslate 4 28;
#X connect 1 0 8 0;
#X connect 2 0 10 0;
#X connect 3 0 10 1;
#X connect 4 0 10 2;
#X connect 5 0 8 0;
#X connect 5 1 7 0;
#X connect 6 0 5 0;
#X connect 7 0 0 0;
#X connect 8 0 0 0;
#X connect 9 0 0 0;
#X connect 10 0 9 0;
#X restore 38 109 pd text Solo-on/off;
#X msg 146 57 reserve BoutonGris.png \, reserve BoutonRouge.png;
#X msg 193 175 set BoutonGris.png;
#X msg 212 197 set BoutonRouge.png;
#X obj 57 246 pofimage BoutonGris.png 40 40;
#X obj 142 367 i;
#X obj 170 368 + 1;
#X obj 140 396 == 0;
#X obj 142 335 t b;
#X floatatom 86 446 5 0 0 0 - - -;
#X obj 140 444 s SoloOnOff-\$1;
#X obj 193 107 r SoloOnOff-\$1;
#X obj 366 212 == \$1;
#X obj 366 191 r concert_instrument;
#X obj 364 238 sel 0;
#X msg 360 265 1;
#X obj 18 73 poftranslate -652 238;
#X connect 0 0 16 1;
#X connect 1 0 7 0;
#X connect 2 0 13 0;
#X connect 3 0 20 0;
#X connect 4 0 13 0;
#X connect 5 0 16 2;
#X connect 6 1 3 0;
#X connect 7 0 14 0;
#X connect 7 1 15 0;
#X connect 8 0 28 0;
#X connect 9 0 28 1;
#X connect 10 0 28 2;
#X connect 13 0 16 0;
#X connect 14 0 16 0;
#X connect 15 0 16 0;
#X connect 16 0 6 0;
#X connect 17 0 18 0;
#X connect 17 0 19 0;
#X connect 18 0 17 1;
#X connect 19 0 21 0;
#X connect 19 0 17 1;
#X connect 19 0 22 0;
#X connect 20 0 17 0;
#X connect 23 0 1 0;
#X connect 24 0 26 0;
#X connect 25 0 24 0;
#X connect 26 0 27 0;
#X connect 27 0 17 0;
#X connect 28 0 12 0;
#X connect 28 0 16 0;
#X connect 28 0 11 0;
#X restore 77 947 pd BoutonSolo;
#X obj 283 575 apf Inst-\$1 Just-\$1;
#N canvas 2951 62 613 765 BoutonMess 0;
#X obj 18 18 inlet head;
#X floatatom 180 260 5 0 0 0 - - -;
#X floatatom 72 77 5 0 0 0 - - -;
#X floatatom 116 70 5 0 0 0 - - -;
#X floatatom 166 94 5 0 0 0 - - -;
#X obj 147 594 bng 15 250 50 0 empty empty empty 17 7 0 10 -262144
-1 -1;
#X obj 147 616 s concert-MessClock-\$1;
#X obj 26 236 pofcolor 1 1 1 1;
#X obj 134 211 max 0.5;
#X obj 90 178 f;
#X obj 172 194 tgl 15 0 empty empty empty 17 7 0 10 -262144 -1 -1 0
1;
#X obj 85 157 tgl 15 0 empty empty empty 17 7 0 10 -262144 -1 -1 0
1;
#X obj 147 129 r TempoMess-isplaying-\$1;
#X obj 131 309 route up down;
#X msg 131 332 0;
#X msg 168 331 1;
#X obj 131 355 tgl 15 0 empty empty empty 17 7 0 10 -262144 -1 -1 0
1;
#X obj 131 380 s \$0-TempoMessTouched;
#X obj 67 133 r \$1-OnOff;
#X obj 76 401 sel 0 1, f 29;
#X msg 162 472 1;
#X msg 143 425 stop;
#X msg 110 449 0;
#X obj 110 501 f;
#X obj 31 644 s \$1-Set-OnOff;
#X obj 110 523 sel 1;
#X obj 31 619 spigot 1;
#X obj 110 547 t b b b;
#X msg 151 570 0;
#X msg 76 596 1;
#X obj 76 426 t b b b b;
#X obj 162 451 del 300;
#X obj 28 281 pofimage instruments/Chronometre.png 45 45;
#X obj 27 305 poftouch 45 45 1;
#X obj 221 153 outlet;
#X obj 218 175 inlet;
#X obj 219 200 ddemux 0 1;
#X obj 208 224 sel 0 1;
#X obj 232 250 sel 0 1;
#N canvas 1470 582 450 300 text 0;
#X obj 176 39 loadbang;
#X obj 80 66 inlet;
#X floatatom 94 98 5 0 0 0 - - -;
#X floatatom 134 94 5 0 0 0 - - -;
#X obj 103 236 poftexts typo 18;
#X obj 53 180 pofcolor 0 0 0 1;
#X msg 178 68 text Mess;
#X obj 61 125 poftranslate 0 -51;
#X connect 0 0 6 0;
#X connect 1 0 7 0;
#X connect 2 0 7 1;
#X connect 3 0 7 2;
#X connect 5 0 4 0;
#X connect 6 0 4 0;
#X connect 7 0 5 0;
#X restore 36 46 pd text Mess;
#X obj 28 108 poftranslate 0 -81;
#X connect 0 0 39 0;
#X connect 0 0 40 0;
#X connect 1 0 32 1;
#X connect 2 0 40 1;
#X connect 3 0 40 2;
#X connect 4 0 40 3;
#X connect 5 0 6 0;
#X connect 7 0 32 0;
#X connect 8 0 7 4;
#X connect 9 0 7 2;
#X connect 9 0 7 3;
#X connect 9 0 8 0;
#X connect 9 0 10 0;
#X connect 9 0 34 0;
#X connect 9 0 36 1;
#X connect 11 0 9 0;
#X connect 12 0 9 0;
#X connect 13 0 14 0;
#X connect 13 1 15 0;
#X connect 14 0 16 0;
#X connect 15 0 16 0;
#X connect 16 0 17 0;
#X connect 16 0 19 0;
#X connect 18 0 11 0;
#X connect 19 0 30 0;
#X connect 19 1 31 0;
#X connect 20 0 23 0;
#X connect 21 0 31 0;
#X connect 22 0 23 0;
#X connect 23 0 25 0;
#X connect 25 0 27 0;
#X connect 26 0 24 0;
#X connect 27 1 5 0;
#X connect 27 2 28 0;
#X connect 28 0 26 1;
#X connect 29 0 26 1;
#X connect 30 0 29 0;
#X connect 30 1 26 0;
#X connect 30 2 22 0;
#X connect 30 3 21 0;
#X connect 31 0 20 0;
#X connect 32 0 33 0;
#X connect 33 1 13 0;
#X connect 35 0 36 0;
#X connect 36 0 37 0;
#X connect 36 1 38 0;
#X connect 37 1 14 0;
#X connect 38 0 14 0;
#X connect 40 0 7 0;
#X restore 76 971 pd BoutonMess;
#X obj 21 817 poftranslate 0 -116;
#X connect 1 0 87 2;
#X connect 2 0 4 2;
#X connect 3 0 53 1;
#X connect 5 0 53 2;
#X connect 6 0 83 1;
#X connect 7 0 83 2;
#X connect 9 0 10 0;
#X connect 10 0 8 0;
#X connect 11 0 37 1;
#X connect 12 0 90 1;
#X connect 13 0 90 2;
#X connect 14 0 62 0;
#X connect 15 0 16 0;
#X connect 16 0 57 0;
#X connect 17 0 37 2;
#X connect 18 1 15 0;
#X connect 19 0 37 0;
#X connect 20 0 37 0;
#X connect 21 1 9 0;
#X connect 22 0 88 1;
#X connect 23 0 88 2;
#X connect 24 0 22 0;
#X connect 24 0 23 0;
#X connect 25 0 69 1;
#X connect 26 0 69 2;
#X connect 28 0 29 0;
#X connect 28 1 30 0;
#X connect 29 0 32 0;
#X connect 30 0 31 0;
#X connect 31 0 33 0;
#X connect 32 0 33 0;
#X connect 33 0 34 0;
#X connect 33 0 55 0;
#X connect 35 0 68 0;
#X connect 36 0 4 0;
#X connect 37 0 18 0;
#X connect 38 0 94 1;
#X connect 39 0 94 2;
#X connect 40 0 43 0;
#X connect 41 0 42 0;
#X connect 42 0 46 0;
#X connect 42 0 49 0;
#X connect 42 0 54 0;
#X connect 43 0 45 0;
#X connect 43 1 44 0;
#X connect 44 0 47 0;
#X connect 45 0 47 0;
#X connect 47 0 48 0;
#X connect 48 1 41 0;
#X connect 49 0 52 0;
#X connect 49 1 50 0;
#X connect 50 0 51 0;
#X connect 51 0 40 0;
#X connect 52 0 40 0;
#X connect 53 0 21 0;
#X connect 56 0 57 1;
#X connect 57 0 58 0;
#X connect 58 0 59 0;
#X connect 60 0 87 0;
#X connect 61 0 14 0;
#X connect 62 0 20 0;
#X connect 62 1 19 0;
#X connect 63 0 64 0;
#X connect 66 0 63 0;
#X connect 69 0 27 0;
#X connect 69 0 35 0;
#X connect 69 0 92 0;
#X connect 69 1 28 0;
#X connect 70 0 69 3;
#X connect 71 0 72 0;
#X connect 72 0 70 0;
#X connect 76 0 89 1;
#X connect 77 0 89 2;
#X connect 78 0 67 0;
#X connect 78 0 85 0;
#X connect 78 0 90 0;
#X connect 79 0 84 1;
#X connect 80 0 84 2;
#X connect 81 0 85 1;
#X connect 82 0 85 2;
#X connect 83 0 53 0;
#X connect 83 0 78 0;
#X connect 85 0 84 0;
#X connect 87 0 83 0;
#X connect 88 0 86 0;
#X connect 88 0 89 0;
#X connect 88 0 94 0;
#X connect 89 0 75 0;
#X connect 89 0 69 0;
#X connect 90 0 37 0;
#X connect 90 0 73 0;
#X connect 90 0 88 0;
#X connect 91 0 93 0;
#X connect 92 0 69 3;
#X connect 92 0 35 0;
#X connect 94 0 47 0;
#X connect 94 0 74 0;
#X connect 94 0 91 0;
