#N canvas 2150 698 664 462 10;
#X obj 212 360 mknob 25 100 0 127 0 1 REG-0-Note_adjust-snd REG-0-Note_adjust-rcv
REG-0-Note_adjust -2 -6 0 8 -257985 -1 -1 9900 1;
#X obj 236 38 s all-note-off;
#X obj 236 14 bng 15 250 50 0 empty empty empty 17 7 0 10 -262144 -1
-1;
#X floatatom 176 162 5 0 0 0 - - -;
#X obj 178 191 s REG-Note_adjust-rcv;
#X obj 22 290 melo 6;
#X obj 22 168 unpack f f;
#X obj 22 259 pack f f;
#X obj 53 219 t b f;
#X obj 22 192 + 24;
#X obj 43 94 instrSwitch \$1;
#X obj 43 115 switch~;
#X obj 22 446 OutDec2~ \$1;
#X obj 22 64 s REG-0-note1-on-rcv;
#X obj 22 43 change;
#X obj 22 311 *~ 0.3;
#X obj 22 22 r concert-instrument-isplaying-\$1;
#X obj 237 328 f;
#X obj 207 292 del 100;
#X obj 218 242 t b b f;
#X msg 227 268 stop;
#X obj 218 217 r REG-0-Note_adjust;
#X obj 355 358 mknob 25 100 0 127 0 1 REG-0-Pitch-snd REG-0-Pitch-rcv
REG-0-Pitch -2 -6 0 8 -257985 -1 -1 4989 1;
#X obj 380 326 f;
#X obj 350 290 del 100;
#X obj 361 240 t b b f;
#X msg 370 266 stop;
#X obj 361 215 r REG-0-Pitch;
#X obj 21 393 mull~ 1 10;
#X obj 49 352 r \$1-MessVeloce;
#X obj 486 47 MulClock REG-0 \$1;
#X obj 22 142 melotouch REG-0 200 /GAMME 48 \$1;
#X connect 2 0 1 0;
#X connect 3 0 4 0;
#X connect 5 0 15 0;
#X connect 6 0 9 0;
#X connect 6 1 8 0;
#X connect 7 0 5 0;
#X connect 8 0 7 0;
#X connect 8 1 7 1;
#X connect 9 0 7 0;
#X connect 10 0 11 0;
#X connect 14 0 13 0;
#X connect 15 0 28 0;
#X connect 16 0 14 0;
#X connect 17 0 0 0;
#X connect 18 0 17 0;
#X connect 19 0 18 0;
#X connect 19 1 20 0;
#X connect 19 2 17 1;
#X connect 20 0 18 0;
#X connect 21 0 19 0;
#X connect 23 0 22 0;
#X connect 24 0 23 0;
#X connect 25 0 24 0;
#X connect 25 1 26 0;
#X connect 25 2 23 1;
#X connect 26 0 24 0;
#X connect 27 0 25 0;
#X connect 28 0 12 1;
#X connect 28 0 12 0;
#X connect 29 0 28 1;
#X connect 31 0 6 0;
