#N canvas 120 1178 1080 710 10;
#X obj 588 54 vsl 10 50 0 1 0 0 \$1-\$2-vol-snd \$1-\$2-vol-rcv empty
0 -9 0 10 -258113 -1 -1 0 1;
#X obj 626 92 nbx 4 14 -24 72 0 0 \$1-\$2-pitch-snd \$1-\$2-pitch-rcv
pitch 0 -8 0 10 -261682 -1 -1 0 256;
#X obj 744 67 bng 15 250 50 0 empty empty empty 17 7 0 10 -262144 -1
-1;
#X msg 697 29 0;
#X msg 578 149 sample sample\$1;
#X obj 510 163 hradio 15 1 0 4 empty empty sample 0 -8 0 10 -4034 -1
-1 0;
#X obj 578 126 + 1;
#X obj 582 499 v \$0-n;
#X msg 582 476 0;
#X obj 835 573 mull~ 1 50;
#X obj 940 572 mull~ 1 50;
#X obj 538 62 tgl 15 0 \$1-\$2-on-snd \$1-\$2-on-rcv on 0 -7 0 10 -4034
-1 -1 1 1;
#X obj 256 76 hsl 80 10 0 1 0 0 \$1-\$2-speed-snd \$1-\$2-speed-rcv
speed -2 -6 0 10 -257985 -1 -1 7900 1;
#X obj 256 96 hsl 80 10 0 1 0 0 \$1-\$2-speedrnd-snd \$1-\$2-speedrnd-rcv
speedrnd -2 -6 0 10 -260097 -1 -1 7463 1;
#X obj 345 76 hsl 80 10 0 1 0 0 \$1-\$2-pos-snd \$1-\$2-pos-rcv pos
-2 -6 0 10 -261234 -1 -1 7429 1;
#X obj 778 129 s \$1-pos-rcv;
#X obj 748 285 s \$0-peakstab;
#X obj 749 215 s \$0-sample;
#X obj 743 156 loadbang;
#X obj 812 166 bng 15 250 50 0 empty empty empty 17 7 0 10 -262144
-1 -1;
#X obj 748 238 r \$0-sample;
#X msg 748 261 symbol \$1-peaks;
#X obj 438 76 hsl 80 10 0 1 0 0 \$1-\$2-len-snd \$1-\$2-len-rcv len
-2 -6 0 10 -204800 -1 -1 7696 1;
#X obj 345 96 hsl 80 10 0 1 0 0 \$1-\$2-posrnd-snd \$1-\$2-posrnd-rcv
posrnd -2 -6 0 10 -261234 -1 -1 4832 1;
#X obj 438 96 hsl 80 10 0 1 0 0 \$1-\$2-lenrnd-snd \$1-\$2-lenrnd-rcv
lenrnd -2 -6 0 10 -204800 -1 -1 7417 1;
#X obj 59 492 stretchvox \$0;
#X obj 836 551 catch~ \$0-out1;
#X obj 940 550 catch~ \$0-out2;
#X obj 836 603 outlet~;
#X obj 939 607 outlet~;
#X obj 901 455 pow 2;
#X obj 579 647 s \$0-sample;
#X obj 478 1 r \$1-Len;
#X obj 799 12 loadbang;
#X msg 799 34 1;
#X obj 59 509 stretchvox \$0;
#X obj 59 526 stretchvox \$0;
#X obj 59 543 stretchvox \$0;
#X obj 59 560 stretchvox \$0;
#X obj 59 577 stretchvox \$0;
#X obj 59 594 stretchvox \$0;
#X obj 59 611 stretchvox \$0;
#X obj 158 492 stretchvox \$0;
#X obj 158 509 stretchvox \$0;
#X obj 158 526 stretchvox \$0;
#X obj 158 543 stretchvox \$0;
#X obj 158 560 stretchvox \$0;
#X obj 158 577 stretchvox \$0;
#X obj 158 594 stretchvox \$0;
#X obj 158 611 stretchvox \$0;
#X obj 258 492 stretchvox \$0;
#X obj 258 509 stretchvox \$0;
#X obj 258 526 stretchvox \$0;
#X obj 258 543 stretchvox \$0;
#X obj 258 560 stretchvox \$0;
#X obj 258 577 stretchvox \$0;
#X obj 258 594 stretchvox \$0;
#X obj 258 611 stretchvox \$0;
#X obj 356 492 stretchvox \$0;
#X obj 356 509 stretchvox \$0;
#X obj 356 526 stretchvox \$0;
#X obj 356 543 stretchvox \$0;
#X obj 356 560 stretchvox \$0;
#X obj 356 577 stretchvox \$0;
#X obj 356 594 stretchvox \$0;
#X obj 356 611 stretchvox \$0;
#N canvas 275 1172 450 369 Sa 0;
#X obj 256 299 outlet;
#X obj 256 182 f;
#X obj 71 19 r \$1-Sa1;
#X obj 172 296 outlet;
#X msg 160 98 1;
#X msg 71 93 0;
#X msg 245 94 2;
#X msg 328 98 3;
#X obj 104 154 ++;
#X obj 144 178 ++;
#X obj 178 205 ++;
#X obj 157 238 sel 0;
#X msg 157 260 0, f 2;
#X msg 189 261 1, f 2;
#X obj 71 70 sel 1;
#X obj 160 75 sel 1;
#X obj 245 70 sel 1;
#X obj 328 74 sel 1;
#X obj 68 234 r \$1-Trig;
#X floatatom 300 234 5 0 0 0 - - -;
#X obj 25 13 loadbang;
#X obj 71 44 change;
#X floatatom 123 277 5 0 0 0 - - -;
#X msg 137 211 1;
#X floatatom 130 316 5 0 0 0 - - -;
#X obj 163 30 r \$1-Sa2;
#X obj 249 25 r \$1-Sa3;
#X obj 333 26 r \$1-Sa4;
#X obj 160 52 change;
#X obj 246 47 change;
#X obj 330 48 change;
#X connect 1 0 0 0;
#X connect 1 0 19 0;
#X connect 2 0 21 0;
#X connect 4 0 1 0;
#X connect 5 0 1 0;
#X connect 6 0 1 0;
#X connect 7 0 1 0;
#X connect 8 0 9 0;
#X connect 9 0 10 0;
#X connect 10 0 11 0;
#X connect 10 0 22 0;
#X connect 11 0 12 0;
#X connect 11 1 13 0;
#X connect 12 0 3 0;
#X connect 12 0 24 0;
#X connect 13 0 3 0;
#X connect 13 0 24 0;
#X connect 14 0 5 0;
#X connect 15 0 4 0;
#X connect 16 0 6 0;
#X connect 17 0 7 0;
#X connect 20 0 5 0;
#X connect 21 0 8 0;
#X connect 21 0 14 0;
#X connect 23 0 11 0;
#X connect 25 0 28 0;
#X connect 26 0 29 0;
#X connect 27 0 30 0;
#X connect 28 0 8 1;
#X connect 28 0 15 0;
#X connect 29 0 9 1;
#X connect 29 0 16 0;
#X connect 30 0 10 1;
#X connect 30 0 17 0;
#X restore 605 -2 pd Sa;
#N canvas 463 1172 450 369 SaT 0;
#X obj 256 299 outlet;
#X obj 256 182 f;
#X obj 172 296 outlet;
#X msg 160 98 1;
#X msg 71 93 0;
#X msg 245 94 2;
#X msg 328 98 3;
#X obj 104 154 ++;
#X obj 144 178 ++;
#X obj 178 205 ++;
#X obj 157 238 sel 0;
#X msg 157 260 0, f 2;
#X msg 189 261 1, f 2;
#X obj 71 70 sel 1;
#X obj 160 75 sel 1;
#X obj 245 70 sel 1;
#X obj 328 74 sel 1;
#X obj 68 234 r \$1-Trig;
#X floatatom 300 234 5 0 0 0 - - -;
#X obj 8 31 loadbang;
#X floatatom 133 297 5 0 0 0 - - -;
#X floatatom 44 152 5 0 0 0 - - -;
#X floatatom 121 101 5 0 0 0 - - -;
#X obj 72 16 r \$1-SaT1;
#X obj 161 28 r \$1-SaT2;
#X obj 247 23 r \$1-SaT3;
#X obj 331 24 r \$1-SaT4;
#X obj 71 40 change;
#X obj 160 52 change;
#X obj 246 47 change;
#X obj 329 48 change;
#X connect 1 0 0 0;
#X connect 1 0 18 0;
#X connect 3 0 1 0;
#X connect 4 0 1 0;
#X connect 5 0 1 0;
#X connect 6 0 1 0;
#X connect 7 0 8 0;
#X connect 8 0 9 0;
#X connect 9 0 10 0;
#X connect 10 0 11 0;
#X connect 10 1 12 0;
#X connect 11 0 2 0;
#X connect 11 0 20 0;
#X connect 12 0 2 0;
#X connect 12 0 20 0;
#X connect 13 0 4 0;
#X connect 14 0 3 0;
#X connect 15 0 5 0;
#X connect 16 0 6 0;
#X connect 19 0 4 0;
#X connect 23 0 27 0;
#X connect 24 0 28 0;
#X connect 25 0 29 0;
#X connect 26 0 30 0;
#X connect 27 0 7 0;
#X connect 27 0 13 0;
#X connect 27 0 21 0;
#X connect 28 0 7 1;
#X connect 28 0 14 0;
#X connect 29 0 8 1;
#X connect 29 0 15 0;
#X connect 30 0 9 1;
#X connect 30 0 16 0;
#X restore 654 1 pd SaT;
#X obj 339 376 s \$0-tfade;
#X obj 136 365 *;
#X obj 242 273 * 44.1;
#N canvas 133 655 600 400 count 0;
#X obj 167 192 i;
#X obj 193 192 + 1;
#X obj 219 192 mod 2;
#X obj 249 168 v \$0-n;
#X obj 152 151 metro 200;
#X obj 150 97 tgl 15 0 empty empty empty 20 8 0 8 -262144 -1 -1 1 1
;
#X obj 227 135 sel 0 1;
#X obj 167 262 outlet;
#X obj 150 58 inlet;
#X obj 210 58 inlet;
#X obj 357 172 f;
#X obj 379 217 *;
#X obj 357 194 t f f b;
#X obj 415 240 / 10000;
#X obj 415 219 random 10000;
#X obj 399 262 *;
#X obj 391 59 inlet;
#X obj 383 284 +;
#X obj 111 151 bng 15 250 50 0 empty empty empty 17 7 0 10 -262144
-1 -1;
#X floatatom 129 245 5 0 0 0 - - -;
#X floatatom 259 248 5 0 0 0 - - -;
#X obj 228 339 print;
#X connect 0 0 1 0;
#X connect 0 0 7 0;
#X connect 1 0 2 0;
#X connect 2 0 0 1;
#X connect 3 0 2 1;
#X connect 4 0 0 0;
#X connect 4 0 10 0;
#X connect 5 0 4 0;
#X connect 5 0 6 0;
#X connect 6 1 3 0;
#X connect 8 0 5 0;
#X connect 9 0 10 1;
#X connect 9 0 4 1;
#X connect 10 0 12 0;
#X connect 11 0 15 0;
#X connect 12 0 17 0;
#X connect 12 1 11 0;
#X connect 12 2 14 0;
#X connect 13 0 15 1;
#X connect 14 0 13 0;
#X connect 15 0 17 1;
#X connect 16 0 11 1;
#X connect 17 0 4 1;
#X restore 53 298 pd count;
#X obj 104 389 pack f f f;
#X obj 338 332 / 3;
#N canvas 104 655 600 400 play 0;
#X obj 218 255 s \$0-command;
#X msg 218 234 play \$1 \$2 \$3 1;
#X obj 213 65 inlet;
#X obj 213 93 unpack f f f;
#X obj 262 65 inlet;
#X obj 319 65 inlet;
#X obj 218 214 pack f f f;
#N canvas 197 1172 600 400 lenrand 0;
#X obj 53 143 *;
#X obj 30 49 t f f b;
#X obj 69 93 / 10000;
#X obj 69 72 random 10000;
#X obj 53 115 *;
#X obj 30 199 +;
#X obj 30 22 inlet;
#X obj 93 22 inlet;
#X obj 30 222 outlet;
#X msg 93 139 1 \$1;
#X obj 30 171 * 1;
#X obj 93 163 -;
#X connect 0 0 5 1;
#X connect 1 0 10 0;
#X connect 1 1 4 0;
#X connect 1 2 3 0;
#X connect 2 0 4 1;
#X connect 3 0 2 0;
#X connect 4 0 0 0;
#X connect 5 0 8 0;
#X connect 6 0 1 0;
#X connect 7 0 0 1;
#X connect 7 0 9 0;
#X connect 9 0 11 0;
#X connect 10 0 5 0;
#X connect 11 0 10 1;
#X restore 309 139 pd lenrand;
#N canvas 92 655 600 400 begrand 0;
#X obj 30 49 t f f b;
#X obj 88 95 / 10000;
#X obj 88 74 random 10000;
#X obj 88 117 *;
#X obj 56 139 +;
#X obj 30 22 inlet;
#X obj 183 52 inlet;
#X obj 56 162 outlet;
#X obj 188 90 * 44.1;
#X connect 0 0 4 0;
#X connect 0 2 2 0;
#X connect 1 0 3 0;
#X connect 2 0 1 0;
#X connect 3 0 4 1;
#X connect 4 0 7 0;
#X connect 5 0 0 0;
#X connect 6 0 3 1;
#X connect 8 0 3 1;
#X restore 231 139 pd begrand;
#X floatatom 401 225 5 0 0 0 - - -;
#X obj 360 189 print;
#X connect 1 0 0 0;
#X connect 2 0 3 0;
#X connect 3 0 6 0;
#X connect 3 1 8 0;
#X connect 3 2 7 0;
#X connect 4 0 8 1;
#X connect 5 0 7 1;
#X connect 6 0 1 0;
#X connect 7 0 6 2;
#X connect 8 0 6 1;
#X restore 194 464 pd play;
#X obj 75 271 + 1;
#X obj 124 230 r \$1-speedrnd-snd;
#X obj 124 252 pow 2;
#X obj 305 254 r \$0-samplelen;
#X obj 242 182 pow 2;
#X obj 441 256 * 2;
#X obj 441 278 - 1;
#X obj 441 300 moses 0;
#X obj 441 323 * -1;
#X obj 441 366 * -1;
#X obj 441 388 f;
#X obj 441 409 * 300;
#X floatatom 446 432 8 0 0 0 - - -;
#X obj 441 345 pow 3;
#X obj 480 344 pow 3;
#X floatatom 20 357 5 0 0 0 - - -;
#X obj 305 206 v \$0-n;
#X obj 309 187 bng 15 250 50 0 empty empty empty 17 7 0 10 -262144
-1 -1;
#X floatatom 45 462 5 0 0 0 - - -;
#X obj 268 227 t b f;
#X obj 74 228 pow 3;
#X obj 473 383 r \$0-samplelen;
#X obj 363 301 t b f;
#X obj 338 353 max 2;
#X obj 365 189 pow 2;
#X obj 362 230 + 2;
#X obj 362 211 * 50;
#X obj 148 341 t b f;
#X obj 484 408 t b f;
#X obj 404 192 hsl 128 15 0 1 0 0 empty empty empty -2 -8 0 10 -262144
-1 -1 0 1;
#X floatatom 185 407 8 0 0 0 - - -;
#X floatatom 915 159 5 0 0 0 - - -;
#X floatatom 222 121 5 0 0 0 - - -;
#X obj 892 72 l apf \$1-MODE pos \$1-pos;
#X obj 892 29 apf \$1 \$2-speed \$1-\$2-speed;
#X obj 893 49 apf \$1 \$2-speedrnd \$1-\$2-speedrnd;
#X obj 892 92 apf \$1 \$2-posrnd \$1-\$2-posrnd;
#X obj 893 118 apf \$1 \$2-len \$1-\$2-len;
#X obj 893 138 apf \$1 \$2-lenrnd \$1-\$2-lenrnd;
#X obj 578 574 r \$1-\$2-sample;
#X msg 578 622 sample \$1;
#X obj 578 599 symbol;
#X msg 677 604 label sample:\$1;
#X obj 677 625 s \$0-samplename_label;
#X obj 252 110 cnv 15 200 14 empty \$0-samplename_label sample:set-table-4
5 8 0 12 -204786 -66577 0;
#X obj 520 634 print;
#X obj 703 227 print;
#X obj 897 429 r \$1-\$2-vol-snd;
#X obj 748 188 symbol \$3;
#X obj 246 132 r \$1-\$2-len-snd;
#X obj 73 117 r \$1-\$2-speed-snd;
#X obj 52 90 r \$1-\$2-on-snd;
#X obj 366 166 r \$1-\$2-dur-snd;
#X obj 441 234 r \$1-\$2-posrnd-snd;
#X obj 499 432 r \$1-\$2-lenrnd-snd;
#X obj 136 286 r \$1-\$2-pos-snd;
#X obj 610 46 r \$1-\$2-Volume;
#X obj 168 13 r \$1-\$2-Speed;
#X obj 304 2 r \$1-\$2-Pos;
#X obj 379 1 r \$1-\$2-PosT;
#X obj 261 27 r \$1-\$2-SpeedRnd;
#X obj 369 27 r \$1-\$2-PosRnd;
#X obj 481 24 r \$1-\$2-LenRnd;
#X obj 542 95 tgl 15 0 \$1-\$2-onvol-snd \$1-\$2-onvol-rcv onvol 0
-7 0 10 -4034 -1 -1 0 1;
#X obj 951 474 r \$1-\$2-onvol-snd;
#X obj 902 492 mu 1;
#X obj 73 198 mu 1;
#X obj 102 147 r \$1-\$2-DivSpeed;
#X floatatom 143 181 5 0 0 0 - - -;
#X floatatom 22 232 5 0 0 0 - - -;
#X floatatom 197 169 5 0 0 0 - - -;
#X floatatom 154 316 5 0 0 0 - - -;
#X obj 268 206 * 32;
#X obj 242 251 * 1000;
#X obj 338 279 / 44.1;
#X obj 242 294 min, f 7;
#X obj 242 315 t f f;
#X obj 242 336 * -1;
#X obj 242 357 +;
#X floatatom 305 399 7 0 0 0 - - -;
#N canvas 0 234 627 300 MessDecay 0;
#X obj 97 55 - 1;
#X obj 97 78 / 19;
#X obj 73 141 t b f;
#X obj 21 62 inlet;
#X obj 44 225 * 1;
#X obj 40 262 outlet;
#X obj 100 20 r \$4-MessDecay;
#X floatatom 165 95 5 0 0 0 - - -;
#X obj 128 111 - 1;
#X obj 128 134 abs;
#X connect 0 0 1 0;
#X connect 1 0 7 0;
#X connect 1 0 8 0;
#X connect 2 0 4 0;
#X connect 2 1 4 1;
#X connect 3 0 4 0;
#X connect 4 0 5 0;
#X connect 6 0 0 0;
#X connect 8 0 9 0;
#X connect 9 0 2 0;
#X restore 246 158 pd MessDecay;
#X obj 693 350 s \$0-samplelen;
#X obj 839 360 s \$0-nbfrag;
#X obj 693 328 iemlib/iem_receive;
#X obj 631 304 tabread;
#X floatatom 694 396 8 0 0 0 - - -;
#X obj 878 283 iemlib/iem_receive;
#X obj 839 336 tabread;
#X floatatom 838 402 8 0 0 0 - - -;
#X obj 694 374 r \$0-samplelen;
#X obj 838 382 r \$0-nbfrag;
#X msg 839 314 set \$1-nbfragtab \, 0;
#X msg 693 308 set \$1-setlen;
#X msg 631 282 set \$1-len \, 0;
#X msg 878 263 set \$1-nbfrag;
#X floatatom 252 5 5 0 0 0 - - -;
#X obj 17 258 * 39;
#X obj 75 249 * 56;
#X connect 2 0 3 0;
#X connect 3 0 1 0;
#X connect 6 0 4 0;
#X connect 8 0 7 0;
#X connect 9 0 28 0;
#X connect 10 0 29 0;
#X connect 12 0 107 0;
#X connect 18 0 123 0;
#X connect 19 0 123 0;
#X connect 20 0 21 0;
#X connect 20 0 168 0;
#X connect 20 0 167 0;
#X connect 20 0 169 0;
#X connect 21 0 16 0;
#X connect 26 0 9 0;
#X connect 27 0 10 0;
#X connect 30 0 140 0;
#X connect 32 0 22 0;
#X connect 33 0 34 0;
#X connect 69 0 72 1;
#X connect 70 0 150 0;
#X connect 71 0 72 0;
#X connect 72 0 74 0;
#X connect 73 0 98 0;
#X connect 75 0 71 1;
#X connect 75 0 147 0;
#X connect 76 0 77 0;
#X connect 77 0 71 2;
#X connect 78 0 150 1;
#X connect 78 0 153 1;
#X connect 78 0 154 0;
#X connect 79 0 148 0;
#X connect 80 0 81 0;
#X connect 81 0 82 0;
#X connect 82 0 83 0;
#X connect 82 1 89 0;
#X connect 83 0 88 0;
#X connect 84 0 85 0;
#X connect 85 0 86 0;
#X connect 86 0 74 1;
#X connect 86 0 87 0;
#X connect 88 0 84 0;
#X connect 89 0 85 0;
#X connect 91 0 147 1;
#X connect 92 0 91 0;
#X connect 94 0 148 0;
#X connect 94 1 148 1;
#X connect 95 0 172 0;
#X connect 96 0 103 0;
#X connect 97 0 73 0;
#X connect 97 1 73 1;
#X connect 98 0 68 0;
#X connect 99 0 101 0;
#X connect 100 0 97 0;
#X connect 101 0 100 0;
#X connect 102 0 69 0;
#X connect 102 1 69 1;
#X connect 103 0 86 0;
#X connect 103 1 86 1;
#X connect 104 0 99 0;
#X connect 114 0 116 0;
#X connect 115 0 31 0;
#X connect 116 0 115 0;
#X connect 116 0 117 0;
#X connect 117 0 118 0;
#X connect 122 0 30 0;
#X connect 123 0 17 0;
#X connect 124 0 145 0;
#X connect 124 0 155 0;
#X connect 125 0 141 0;
#X connect 126 0 71 0;
#X connect 127 0 99 0;
#X connect 128 0 80 0;
#X connect 129 0 74 2;
#X connect 130 0 69 0;
#X connect 130 0 146 0;
#X connect 131 0 0 0;
#X connect 132 0 12 0;
#X connect 133 0 14 0;
#X connect 134 0 14 0;
#X connect 135 0 13 0;
#X connect 136 0 23 0;
#X connect 137 0 24 0;
#X connect 139 0 140 1;
#X connect 140 0 10 1;
#X connect 140 0 9 1;
#X connect 141 0 95 0;
#X connect 142 0 141 1;
#X connect 143 0 172 1;
#X connect 147 0 94 0;
#X connect 148 0 70 0;
#X connect 149 0 73 0;
#X connect 150 0 151 0;
#X connect 151 0 72 2;
#X connect 151 0 152 0;
#X connect 151 1 149 0;
#X connect 152 0 153 0;
#X connect 153 0 102 0;
#X connect 155 0 79 0;
#X connect 158 0 156 0;
#X connect 159 0 156 0;
#X connect 161 0 157 0;
#X connect 162 0 157 0;
#X connect 164 0 160 0;
#X connect 165 0 163 0;
#X connect 166 0 162 0;
#X connect 167 0 158 0;
#X connect 168 0 159 0;
#X connect 169 0 161 0;
#X connect 172 0 75 0;
#X coords 0 -1 1 1 350 76 1 250 50;
