#N canvas 1267 1006 706 541 10;
#X msg 203 435 text Hello;
#X obj 58 89 t a a;
#X obj 85 114 pofcolor 0 0 0 0.9;
#X obj 328 120 list prepend text;
#X obj 328 141 list trim;
#X msg 32 466 text Hello;
#X obj 354 210 list prepend text;
#X obj 354 231 list trim;
#X floatatom 90 390 5 0 0 0 - - -;
#X obj 83 230 r \$1-width;
#X obj 83 252 * -0.5;
#X obj 97 277 + 20;
#X obj 204 116 r \$1-spacing;
#X obj 246 211 r \$1-spacing;
#X obj 147 259 * -0.166;
#X msg 197 294 size \$1;
#X obj 197 272 * 0.5;
#X msg 247 376 size \$1;
#X obj 280 337 * 0.3;
#X obj 99 134 r \$1-width;
#X obj 58 13 inlet head;
#X obj 265 12 inlet props;
#X obj 204 139 - 10;
#X obj 265 34 route _show;
#X obj 351 14 namecanvas \$0-canvas;
#X obj 265 77 s \$0-canvas;
#X msg 265 56 vis 0 \, vis 1;
#X msg 19 155 draw \$1;
#X obj 21 136 tgl 15 0 empty empty empty 17 7 0 10 -262144 -1 -1 0
1;
#X obj 85 190 poftouch 300 40 1;
#X obj 399 258 r \$1-touchCancel;
#X obj 359 310 route up down;
#X msg 396 332 1;
#X obj 359 332 b;
#X obj 359 358 f;
#X msg 399 282 0;
#X obj 359 400 symbol;
#X obj 359 380 sel 1;
#X obj 115 90 unpack f f f;
#X msg 115 64 0 0 0;
#X obj 18 368 pofcolor 0.5 1 1 1;
#X obj 58 210 pofcolor 1 1 1 1;
#X msg 162 62 0.4 0.4 0;
#X obj 143 38 sel 0 1;
#X obj 396 378 symbol;
#X obj 18 491 poftexts vera 19 -1;
#X obj 134 147 - 10;
#X obj 85 169 pofrect 300 40 20;
#X obj 328 98 route name file selected;
#N canvas 535 1371 465 488 makeName 0;
#X obj 133 19 inlet;
#X obj 133 66 list;
#X obj 133 43 t b a;
#X obj 111 58 bng 15 250 50 0 empty empty empty 17 7 0 10 -262144 -1
-1;
#X obj 160 184 list fromsymbol;
#X msg 160 259 32;
#X obj 160 208 list split 1;
#X obj 235 237 t a;
#X obj 247 268 t a;
#X obj 133 317 list;
#X obj 133 341 list tosymbol;
#X obj 178 291 list append;
#X msg 267 237 list;
#X obj 133 154 t b a b;
#X obj 133 111 pofutil;
#X msg 133 88 dirbaseext \$1;
#X msg 133 132 symbol \$2;
#X obj 133 376 outlet;
#X obj 160 237 sel 95 46;
#X connect 0 0 2 0;
#X connect 1 0 15 0;
#X connect 2 0 1 0;
#X connect 2 1 1 1;
#X connect 3 0 1 0;
#X connect 4 0 6 0;
#X connect 5 0 11 0;
#X connect 6 0 18 0;
#X connect 6 1 7 0;
#X connect 7 0 6 0;
#X connect 8 0 11 1;
#X connect 9 0 10 0;
#X connect 10 0 17 0;
#X connect 11 0 8 0;
#X connect 11 0 9 1;
#X connect 12 0 8 0;
#X connect 13 0 9 0;
#X connect 13 1 4 0;
#X connect 13 2 12 0;
#X connect 14 0 16 0;
#X connect 15 0 14 0;
#X connect 16 0 13 0;
#X connect 18 0 5 0;
#X connect 18 1 5 0;
#X connect 18 2 11 0;
#X restore 402 182 pd makeName;
#X obj 57 327 poftexts typo 21 -1;
#X msg 236 189 width \$1;
#X obj 236 140 r \$1-width;
#X msg 204 457 text dcjdkjdf kl lkj lkj kl kl kl hjsvbkjdvbkdjsvbksdv
;
#X obj 236 164 * 0.95;
#X obj 359 423 s mixtape;
#X obj 425 424 s mixtape-load;
#X obj 518 424 s mixtape-play-name;
#X obj 533 299 del 10;
#X obj 533 341 s mixtapes-update-all;
#X symbolatom 272 501 0 0 0 0 - - -;
#X obj 508 149 print name?;
#X floatatom 8 259 5 0 0 0 - - -;
#X obj 57 418 + 1000;
#X obj 58 297 poftranslate -140 0;
#X obj 18 442 poftranslate -130 65;
#X obj 224 348 * 0.4;
#X connect 0 0 50 0;
#X connect 1 0 41 0;
#X connect 1 1 2 0;
#X connect 2 0 47 0;
#X connect 3 0 4 0;
#X connect 4 0 50 0;
#X connect 5 0 45 0;
#X connect 6 0 7 0;
#X connect 7 0 45 0;
#X connect 8 0 65 2;
#X connect 9 0 10 0;
#X connect 10 0 11 0;
#X connect 10 0 62 0;
#X connect 10 0 63 0;
#X connect 11 0 64 1;
#X connect 12 0 22 0;
#X connect 13 0 14 0;
#X connect 13 0 16 0;
#X connect 13 0 18 0;
#X connect 13 0 66 0;
#X connect 14 0 64 2;
#X connect 15 0 50 0;
#X connect 16 0 15 0;
#X connect 17 0 45 0;
#X connect 18 0 17 0;
#X connect 19 0 46 0;
#X connect 19 0 29 1;
#X connect 20 0 1 0;
#X connect 21 0 23 0;
#X connect 22 0 29 2;
#X connect 22 0 47 2;
#X connect 23 0 26 0;
#X connect 23 1 48 0;
#X connect 26 0 25 0;
#X connect 27 0 29 0;
#X connect 28 0 27 0;
#X connect 29 1 31 0;
#X connect 30 0 35 0;
#X connect 31 0 33 0;
#X connect 31 1 32 0;
#X connect 32 0 34 1;
#X connect 33 0 34 0;
#X connect 34 0 37 0;
#X connect 35 0 34 1;
#X connect 36 0 55 0;
#X connect 36 0 56 0;
#X connect 36 0 57 0;
#X connect 36 0 60 0;
#X connect 37 0 36 0;
#X connect 37 0 58 0;
#X connect 38 0 2 1;
#X connect 38 1 2 2;
#X connect 38 2 2 3;
#X connect 39 0 38 0;
#X connect 40 0 65 0;
#X connect 41 0 64 0;
#X connect 42 0 38 0;
#X connect 43 0 39 0;
#X connect 43 1 42 0;
#X connect 44 0 36 1;
#X connect 46 0 47 1;
#X connect 47 0 29 0;
#X connect 48 0 3 0;
#X connect 48 1 44 0;
#X connect 48 1 49 0;
#X connect 48 2 43 0;
#X connect 49 0 6 0;
#X connect 51 0 50 0;
#X connect 52 0 54 0;
#X connect 53 0 50 0;
#X connect 54 0 51 0;
#X connect 58 0 59 0;
#X connect 63 0 65 1;
#X connect 64 0 50 0;
#X connect 64 0 40 0;
#X connect 65 0 45 0;
#X connect 66 0 65 2;
