#N canvas 354 675 956 368 10;
#X declare -path ../;
#X obj 6 6 cnv 15 96 105 empty empty REC-lr 2 10 0 14 -260097 -1 0
;
#X obj 25 86 bng 20 250 50 0 load-REC16-snd load-REC16-rcv load 3 10
0 10 -1 -203904 -257985;
#X obj 24 25 tgl 30 0 REC16-snd REC16-rcv REC 6 15 0 10 -250685 -250685
-241291 0 1;
#N canvas 1920 92 338 278 color_rec 0;
#X obj 23 100 sel 0 1;
#X obj 23 174 s REC16-rcv;
#X msg 46 125 color 13 13 15;
#X msg 23 150 color 19 19 15;
#X obj 122 28 metro 400;
#X obj 23 44 t f f;
#X obj 122 51 i;
#X obj 151 51 + 1;
#X obj 122 72 mod 2;
#X obj 157 118 sel 0 1;
#X obj 157 192 s REC16-rcv;
#X msg 157 168 color 9 9 13;
#X msg 180 143 color 13 13 15;
#X obj 23 17 inlet;
#X connect 0 0 3 0;
#X connect 0 1 2 0;
#X connect 2 0 1 0;
#X connect 3 0 1 0;
#X connect 4 0 6 0;
#X connect 5 0 0 0;
#X connect 5 1 4 0;
#X connect 6 0 7 0;
#X connect 6 0 8 0;
#X connect 7 0 6 1;
#X connect 8 0 9 0;
#X connect 9 0 11 0;
#X connect 9 1 12 0;
#X connect 11 0 10 0;
#X connect 12 0 10 0;
#X connect 13 0 5 0;
#X restore 493 280 pd color_rec;
#X msg 470 207 open \$1;
#X msg 447 229 start;
#X msg 397 132 stop;
#X obj 447 117 savepanel;
#X obj 424 35 sel 0 1;
#N canvas 1588 1401 332 271 writesf~ 0;
#X obj 19 18 inlet;
#X obj 62 190 writesf~ 2, f 18;
#X obj 91 93 catch~ REC-l;
#X obj 118 120 catch~ REC-r;
#X connect 0 0 1 0;
#X connect 2 0 1 0;
#X connect 3 0 1 1;
#X restore 447 251 pd writesf~;
#N canvas 1426 679 493 376 readsf~ 0;
#X obj 21 17 inlet;
#X obj 35 271 mull~ 0 10;
#X obj 121 271 mull~ 0 10;
#X obj 20 61 /~ 1.41421;
#X obj 83 97 /~ 1.41421;
#X obj 298 70 outlet;
#X obj 60 180 r vol-readsf-snd;
#X obj 17 329 throw~ OutMusic-0;
#X obj 134 328 throw~ OutMusic-1;
#X obj 21 38 readsf~ 2, f 40;
#X connect 0 0 9 0;
#X connect 1 0 7 0;
#X connect 2 0 8 0;
#X connect 3 0 1 0;
#X connect 4 0 2 0;
#X connect 6 0 2 1;
#X connect 6 0 1 1;
#X connect 9 0 3 0;
#X connect 9 1 4 0;
#X connect 9 2 5 0;
#X restore 42 275 pd readsf~;
#X msg 51 248 open \$1;
#X msg 10 182 0;
#X msg 42 204 1;
#X obj 137 140 openpanel;
#X obj 8 41 vsl 8 60 0 1 0 1 vol-readsf-snd vol-readsf-rcv empty 0
-9 0 10 -4032 -1 -1 5900 1;
#X symbolatom 135 231 0 0 0 0 - - -;
#X symbolatom 18 62 0 0 0 0 - - -;
#N canvas 1582 1202 338 278 color_play 0;
#X obj 23 100 sel 0 1;
#X obj 122 35 metro 400;
#X obj 23 44 t f f;
#X obj 122 58 i;
#X obj 151 58 + 1;
#X obj 122 79 mod 2;
#X obj 157 118 sel 0 1;
#X msg 157 168 color 9 9 13;
#X obj 24 174 s playREC16-rcv;
#X obj 157 192 s playREC16-rcv;
#X msg 46 125 color 16 16 15;
#X msg 180 143 color 16 16 15;
#X msg 23 150 color 22 229 15;
#X obj 23 11 r playREC16-snd;
#X connect 0 0 12 0;
#X connect 0 1 10 0;
#X connect 1 0 3 0;
#X connect 2 0 0 0;
#X connect 2 1 1 0;
#X connect 3 0 4 0;
#X connect 3 0 5 0;
#X connect 4 0 3 1;
#X connect 5 0 6 0;
#X connect 6 0 7 0;
#X connect 6 1 11 0;
#X connect 7 0 9 0;
#X connect 10 0 8 0;
#X connect 11 0 9 0;
#X connect 12 0 8 0;
#X connect 13 0 2 0;
#X restore 440 2 pd color_play;
#X obj 67 86 tgl 20 0 playREC16-snd playREC16-rcv play 3 10 0 10 -1
-250685 -241291 0 1;
#X obj 19 133 sel 0 1;
#X obj 42 182 t b b;
#X msg 10 263 0;
#X obj 524 164 print;
#X obj 447 165 t b s b;
#X msg 493 186 1;
#X obj 397 79 t b b;
#X msg 411 107 0;
#X obj 137 162 t b s;
#X msg 108 143 1, f 2;
#X msg 395 1 1;
#N canvas 593 556 501 499 getdir 0;
#X obj 172 401 pofutil;
#X obj 175 16 inlet;
#X obj 109 17 loadbang;
#X obj 136 54 b;
#X obj 134 110 pofutil;
#X msg 134 86 getdir;
#X obj 186 51 bng 15 250 50 0 empty empty empty 17 7 0 10 -262144 -1
-1;
#X obj 282 266 s datadir;
#X obj 113 402 outlet;
#X obj 24 357 print;
#X msg 275 61 symbol;
#X msg 136 231 symbol \$1/data/mixtape;
#X msg 129 144 symbol \$1;
#X msg 172 375 setstring data/mixtape .;
#X obj 128 171 splitpath;
#X obj 136 202 splitpath;
#X connect 1 0 3 0;
#X connect 3 0 5 0;
#X connect 4 0 12 0;
#X connect 5 0 4 0;
#X connect 6 0 3 0;
#X connect 11 0 8 0;
#X connect 11 0 13 0;
#X connect 12 0 14 0;
#X connect 13 0 0 0;
#X connect 14 0 15 0;
#X connect 15 0 11 0;
#X restore 138 111 pd getdir;
#X obj 199 15 declare -path ../;
#N canvas 1286 556 450 499 getdir 0;
#X obj 172 401 pofutil;
#X obj 175 16 inlet;
#X obj 109 17 loadbang;
#X obj 136 54 b;
#X obj 134 110 pofutil;
#X msg 134 86 getdir;
#X obj 186 51 bng 15 250 50 0 empty empty empty 17 7 0 10 -262144 -1
-1;
#X obj 329 218 s datadir;
#X obj 113 402 outlet;
#X obj 24 357 print;
#X msg 275 61 symbol;
#X msg 137 268 symbol \$1/data/mixtape;
#X msg 134 145 symbol \$1;
#X msg 172 375 setstring data/mixtape .;
#X obj 133 172 splitpath;
#X obj 141 203 splitpath;
#X connect 1 0 3 0;
#X connect 3 0 5 0;
#X connect 4 0 12 0;
#X connect 5 0 4 0;
#X connect 6 0 3 0;
#X connect 11 0 8 0;
#X connect 11 0 13 0;
#X connect 12 0 14 0;
#X connect 13 0 0 0;
#X connect 14 0 15 0;
#X connect 15 0 11 0;
#X restore 454 79 pd getdir;
#X obj 135 251 splitpath;
#X connect 1 0 31 0;
#X connect 2 0 8 0;
#X connect 4 0 9 0;
#X connect 5 0 9 0;
#X connect 6 0 9 0;
#X connect 7 0 24 0;
#X connect 8 0 26 0;
#X connect 8 1 33 0;
#X connect 10 0 22 0;
#X connect 11 0 10 0;
#X connect 12 0 10 0;
#X connect 13 0 10 0;
#X connect 14 0 28 0;
#X connect 16 0 11 0;
#X connect 16 0 34 0;
#X connect 19 0 20 0;
#X connect 20 0 12 0;
#X connect 20 1 21 0;
#X connect 21 0 13 0;
#X connect 21 1 16 0;
#X connect 22 0 19 0;
#X connect 24 0 5 0;
#X connect 24 1 4 0;
#X connect 24 1 16 0;
#X connect 24 2 25 0;
#X connect 25 0 3 0;
#X connect 26 0 6 0;
#X connect 26 1 27 0;
#X connect 27 0 3 0;
#X connect 28 0 29 0;
#X connect 28 1 16 0;
#X connect 29 0 19 0;
#X connect 30 0 8 0;
#X connect 31 0 14 0;
#X connect 33 0 7 0;
#X connect 34 1 17 0;
#X coords 0 -1 1 1 98 107 2 5 5;
