#N canvas 709 218 723 837 10;
#X obj 37 6 inlet;
#X obj 37 586 outlet;
#X msg 101 370 draw \$1;
#X obj 101 348 tgl 15 0 empty empty empty 17 7 0 10 -262144 -1 -1 0
1;
#X floatatom 228 176 5 0 0 0 - - -;
#X obj 37 565 poftranslate 72;
#X obj 114 173 pofcolor 1 1 1 1;
#X floatatom 120 107 5 0 0 0 - - -;
#X obj 160 120 * -290;
#X obj 72 290 poftranslate 0 -145;
#X floatatom 222 365 5 0 0 0 - - -;
#X obj 226 478 unpack f f;
#X obj 295 481 unpack f f;
#X obj 310 531 -;
#X obj 310 581 +;
#X obj 310 640 clip 0 1;
#X obj 310 555 / -290;
#X obj 352 531 f;
#X obj 352 508 b;
#X obj 451 112 loadbang;
#X floatatom 492 132 5 0 0 0 - - -;
#X msg 451 134 0.665;
#X obj 160 96 r concert-fader-\$1;
#X obj 472 164 s concert-fader-\$1;
#X obj 380 505 r concert-fader-\$1;
#X obj 310 661 s concert-fader-\$1;
#X obj 16 625 r concert-fader-\$1;
#X obj 16 779 s concert-vol-\$1;
#X obj 215 526 t b;
#X obj 159 502 t b;
#X obj 242 521 abs;
#X obj 242 546 > 14;
#X obj 175 551 timer;
#X obj 242 569 sel 1;
#X msg 242 590 0;
#X msg 271 589 1;
#X obj 175 598 sel 1;
#X obj 175 620 spigot;
#X obj 175 574 < 150;
#X obj 175 707 s concert-mute-\$1;
#X obj 190 643 r concert-mute-\$1;
#X obj 175 665 f;
#X obj 175 686 == 0;
#X obj 26 737 t b f;
#X obj 44 647 r concert-mute-\$1;
#X obj 435 204 s concert-mute-\$1;
#X obj 64 93 t a a a a;
#X obj 269 197 poftranslate 0 -145;
#X obj 269 242 pofimage FenteSlider.png 0 317;
#X obj 288 351 poftranslate;
#X obj 269 218 t a a a;
#X obj 517 395 vsl 15 128 0 1 0 0 empty empty empty 0 -9 0 10 -262144
-1 -1 0 1;
#X obj 417 372 + 313;
#X obj 417 320 * 313;
#X obj 417 343 * -1;
#X obj 331 301 * -0.5;
#X obj 334 326 - 0;
#X obj 288 393 pofrect 4 313;
#X obj 464 319 clip 0 0.95;
#X obj 464 298 r concert-inst-level-\$1;
#X obj 464 366 line;
#X msg 464 343 \$1 50;
#X obj 288 373 pofcolor 0 0 0 0.6;
#X obj 222 148 max 0.5;
#X floatatom 153 345 5 0 0 0 - - -;
#X obj 53 467 loadbang;
#X obj 53 488 f \$2;
#X obj 53 509 sel 1;
#X msg 53 529 0;
#X obj 37 29 t a a;
#X obj 64 51 pofvisible 1;
#X obj 589 29 loadbang;
#X obj 589 51 f \$2;
#X obj 624 54 r balance-instr;
#X obj 624 75 == \$1;
#X obj 589 71 == 0;
#X obj 589 121 ||;
#X obj 600 101 t b f;
#X obj 81 328 pofcolor 0 0 0 0.5;
#X obj 180 242 route up down;
#X msg 180 262 0;
#X msg 217 261 1;
#X obj 220 288 tgl 15 0 empty empty empty 17 7 0 10 -262144 -1 -1 0
1;
#X obj 216 308 s \$0-faderTouched;
#X obj 201 498 r \$0-faderTouched;
#X obj 130 526 ddemux;
#X obj 99 674 t b f;
#X obj 44 690 ||;
#X msg 129 579 1;
#X msg 131 610 0;
#X floatatom 58 757 5 0 0 0 - - -;
#X obj 222 125 f;
#X obj 70 442 poftouch 55 310;
#X obj 191 452 route up move down;
#X obj 181 418 route enter leave;
#X obj 360 581 r \$0-faderTouched;
#X obj 135 730 r concert-instruments-touched;
#X obj 77 717 t b f;
#X obj 44 716 ||;
#X obj 135 751 route \$1;
#X obj 64 72 fixScaleX;
#X floatatom 515 239 5 0 0 0 - - -;
#X obj 315 267 pofimage BarGraph1px.png 4 313;
#X obj 81 393 poftouch 55 310;
#X obj 310 607 spigot 1;
#X obj 136 698 tgl 15 0 empty empty empty 17 7 0 10 -262144 -1 -1 0
1;
#X obj 160 782 tgl 15 0 empty empty empty 17 7 0 10 -262144 -1 -1 0
1;
#X msg 289 135 draw \$1;
#X obj 289 113 tgl 15 0 empty empty empty 17 7 0 10 -262144 -1 -1 0
1;
#X obj 114 219 poftouch 60 80 1;
#X obj 16 757 * 1;
#X msg 435 183 1;
#X obj 260 131 tgl 15 0 empty empty empty 17 7 0 10 -262144 -1 -1 0
1;
#X obj 44 668 == 0;
#X obj 21 691 tgl 15 0 empty empty empty 17 7 0 10 -262144 -1 -1 1
1;
#X obj 159 7 r concert-instrument-show;
#X obj 159 28 sel -1 \$1;
#X msg 159 49 1;
#X msg 210 48 0;
#X obj 159 70 f;
#X obj 514 562 r concert-instrument-show;
#X obj 514 583 == -1;
#X obj 514 604 * 72;
#X obj 320 56 r concert-instrument-isplaying-\$1;
#X obj 114 198 pofimage Fader.png 40;
#X floatatom 65 166 5 0 0 0 - - -;
#X obj 114 145 poftranslate 12;
#X connect 0 0 69 0;
#X connect 2 0 103 0;
#X connect 3 0 2 0;
#X connect 4 0 124 1;
#X connect 5 0 1 0;
#X connect 6 0 124 0;
#X connect 7 0 126 2;
#X connect 8 0 126 2;
#X connect 10 0 103 2;
#X connect 11 1 13 0;
#X connect 12 1 13 1;
#X connect 12 1 18 0;
#X connect 13 0 16 0;
#X connect 13 0 30 0;
#X connect 14 0 104 0;
#X connect 15 0 25 0;
#X connect 16 0 14 0;
#X connect 17 0 14 1;
#X connect 18 0 17 0;
#X connect 18 0 35 0;
#X connect 19 0 21 0;
#X connect 19 0 111 0;
#X connect 20 0 23 0;
#X connect 21 0 23 0;
#X connect 22 0 8 0;
#X connect 24 0 17 1;
#X connect 26 0 110 0;
#X connect 28 0 32 1;
#X connect 28 0 89 0;
#X connect 29 0 85 0;
#X connect 29 0 32 0;
#X connect 30 0 31 0;
#X connect 31 0 33 0;
#X connect 32 0 38 0;
#X connect 33 0 34 0;
#X connect 34 0 37 1;
#X connect 35 0 37 1;
#X connect 36 0 37 0;
#X connect 37 0 41 0;
#X connect 38 0 36 0;
#X connect 40 0 41 1;
#X connect 41 0 42 0;
#X connect 42 0 39 0;
#X connect 43 0 110 0;
#X connect 43 1 110 1;
#X connect 44 0 113 0;
#X connect 44 0 114 0;
#X connect 46 1 9 0;
#X connect 46 2 126 0;
#X connect 46 3 47 0;
#X connect 47 0 50 0;
#X connect 49 0 62 0;
#X connect 50 0 48 0;
#X connect 50 0 78 0;
#X connect 50 1 49 0;
#X connect 50 2 102 0;
#X connect 51 0 53 0;
#X connect 52 0 57 2;
#X connect 53 0 54 0;
#X connect 53 0 55 0;
#X connect 54 0 52 0;
#X connect 55 0 56 0;
#X connect 56 0 49 2;
#X connect 58 0 61 0;
#X connect 59 0 58 0;
#X connect 60 0 53 0;
#X connect 61 0 60 0;
#X connect 62 0 57 0;
#X connect 63 0 6 4;
#X connect 64 0 103 1;
#X connect 65 0 66 0;
#X connect 66 0 67 0;
#X connect 67 0 68 0;
#X connect 69 0 5 0;
#X connect 69 1 70 0;
#X connect 70 0 100 0;
#X connect 71 0 72 0;
#X connect 72 0 75 0;
#X connect 73 0 74 0;
#X connect 74 0 77 0;
#X connect 75 0 76 0;
#X connect 77 0 76 0;
#X connect 77 1 76 1;
#X connect 78 0 103 0;
#X connect 79 0 80 0;
#X connect 79 1 81 0;
#X connect 80 0 82 0;
#X connect 81 0 82 0;
#X connect 82 0 83 0;
#X connect 85 0 88 0;
#X connect 86 1 105 0;
#X connect 87 0 98 0;
#X connect 88 0 86 0;
#X connect 89 0 86 0;
#X connect 91 0 6 2;
#X connect 91 0 6 3;
#X connect 91 0 63 0;
#X connect 91 0 112 0;
#X connect 93 0 28 0;
#X connect 93 1 11 0;
#X connect 93 2 12 0;
#X connect 93 2 29 0;
#X connect 93 3 88 0;
#X connect 94 0 88 0;
#X connect 94 1 89 0;
#X connect 94 2 93 0;
#X connect 96 0 99 0;
#X connect 97 0 98 0;
#X connect 97 1 98 1;
#X connect 99 0 97 0;
#X connect 99 0 106 0;
#X connect 100 0 46 0;
#X connect 101 0 102 2;
#X connect 103 1 94 0;
#X connect 104 0 15 0;
#X connect 107 0 109 0;
#X connect 108 0 107 0;
#X connect 109 1 79 0;
#X connect 110 0 27 0;
#X connect 110 0 90 0;
#X connect 111 0 45 0;
#X connect 113 0 87 0;
#X connect 115 0 116 0;
#X connect 116 0 117 0;
#X connect 116 1 117 0;
#X connect 116 2 118 0;
#X connect 117 0 119 0;
#X connect 118 0 119 0;
#X connect 119 0 70 0;
#X connect 120 0 121 0;
#X connect 121 0 122 0;
#X connect 122 0 5 1;
#X connect 123 0 91 0;
#X connect 124 0 109 0;
#X connect 125 0 126 1;
#X connect 126 0 6 0;
