#N canvas 1326 1172 450 345 10;
#X obj 75 9 inlet head;
#X floatatom 141 30 5 0 0 0 - - -;
#X floatatom 189 27 5 0 0 0 - - -;
#X obj 75 68 poftranslate -324 157;
#X obj 75 99 fader 0 \$1 MAL;
#X obj 75 140 fader 2 \$1 MO;
#X obj 75 120 fader 1 \$1 COUV;
#X obj 75 161 fader 3 \$1 BID;
#X obj 75 181 fader 4 \$1 GRI;
#X obj 75 201 fader 5 \$1 BAI;
#X obj 75 222 fader 6 \$1 REG;
#X obj 75 242 fader 7 \$1 ASP;
#X obj 75 263 fader 8 \$1 VER;
#X obj 75 283 fader 9 \$1 MIX;
#X obj 177 117 apf Inst-1 fader-1;
#X obj 175 137 apf Inst-2 fader-2;
#X obj 179 96 apf Inst-0 fade-0;
#X obj 173 157 apf Inst-3 fader-3;
#X obj 173 179 apf Inst-4 fader-0;
#X obj 171 200 apf Inst-5 fader-1;
#X obj 169 221 apf Inst-6 fader-2;
#X obj 167 241 apf Inst-7 fader-3;
#X obj 169 263 apf Inst-8 fader-2;
#X obj 167 283 apf Inst-9 fader-3;
#X connect 0 0 3 0;
#X connect 1 0 3 1;
#X connect 2 0 3 2;
#X connect 3 0 4 0;
#X connect 4 0 6 0;
#X connect 4 1 16 0;
#X connect 5 0 7 0;
#X connect 5 1 15 0;
#X connect 6 0 5 0;
#X connect 6 1 14 0;
#X connect 7 0 8 0;
#X connect 7 1 17 0;
#X connect 8 0 9 0;
#X connect 8 1 18 0;
#X connect 9 0 10 0;
#X connect 9 1 19 0;
#X connect 10 0 11 0;
#X connect 10 1 20 0;
#X connect 11 0 12 0;
#X connect 11 1 21 0;
#X connect 12 0 13 0;
#X connect 12 1 22 0;
#X connect 13 1 23 0;
#X connect 14 0 6 1;
#X connect 15 0 5 1;
#X connect 16 0 4 1;
#X connect 17 0 7 1;
#X connect 18 0 8 1;
#X connect 19 0 9 1;
#X connect 20 0 10 1;
#X connect 21 0 11 1;
#X connect 22 0 12 1;
#X connect 23 0 13 1;
