#N canvas 290 114 921 761 10;
#X obj 37 6 inlet;
#X obj 38 330 outlet;
#X msg 124 406 draw \$1;
#X obj 124 384 tgl 15 0 empty empty empty 17 7 0 10 -262144 -1 -1 1
1;
#X floatatom 197 195 5 0 0 0 - - -;
#X obj 38 309 poftranslate 72;
#X obj 83 192 pofcolor 1 1 1 1;
#X floatatom 91 142 5 0 0 0 - - -;
#X obj 129 139 * -290;
#X floatatom 245 401 5 0 0 0 - - -;
#X obj 226 478 unpack f f;
#X obj 295 481 unpack f f;
#X obj 310 531 -;
#X obj 310 581 +;
#X obj 310 640 clip 0 1;
#X obj 310 555 / -290;
#X obj 352 531 f;
#X obj 352 508 b;
#X obj 760 27 loadbang;
#X floatatom 801 47 5 0 0 0 - - -;
#X msg 760 49 0.665;
#X obj 129 115 r concert-fader-\$1;
#X obj 781 79 s concert-fader-\$1;
#X obj 380 505 r concert-fader-\$1;
#X obj 310 661 s concert-fader-\$1;
#X obj 463 73 r concert-fader-\$1;
#X obj 508 103 s concert-vol-\$1;
#X obj 215 526 t b;
#X obj 175 526 t b;
#X obj 242 521 abs;
#X obj 242 546 > 14;
#X obj 175 551 timer;
#X obj 242 569 sel 1;
#X msg 242 590 0;
#X msg 271 589 1;
#X obj 175 598 sel 1;
#X obj 175 620 spigot;
#X obj 175 574 < 150;
#X obj 175 707 s concert-mute-\$1;
#X obj 190 643 r concert-mute-\$1;
#X obj 175 665 f;
#X obj 175 686 == 0;
#X obj 721 103 s concert-mute-\$1;
#X obj 269 197 poftranslate 0 -145;
#X obj 269 242 pofimage FenteSlider.png 0 317;
#X obj 288 351 poftranslate;
#X obj 269 218 t a a a;
#X obj 517 395 vsl 15 128 0 1 0 0 empty empty empty 0 -9 0 10 -262144
-1 -1 0 1;
#X obj 417 372 + 313;
#X obj 417 320 * 313;
#X obj 417 343 * -1;
#X obj 331 301 * -0.5;
#X obj 334 326 - 0;
#X obj 288 393 pofrect 4 313;
#X obj 464 319 clip 0 0.95;
#X obj 464 298 r concert-inst-level-\$1;
#X obj 464 366 line;
#X msg 464 343 \$1 50;
#X obj 288 373 pofcolor 0 0 0 0.6;
#X obj 191 167 max 0.5;
#X floatatom 176 381 5 0 0 0 - - -;
#X obj 37 29 t a a;
#X obj 104 364 pofcolor 0 0 0 0.5;
#X obj 191 144 f;
#X obj 191 452 route up move down;
#X floatatom 515 239 5 0 0 0 - - -;
#X obj 315 267 pofimage BarGraph1px.png 4 313;
#X obj 104 429 poftouch 55 310;
#X obj 310 607 spigot 1;
#X msg 721 82 1;
#X obj 227 149 tgl 15 0 empty empty empty 17 7 0 10 -262144 -1 -1 1
1;
#X obj 159 7 r concert-instrument-show;
#X obj 159 28 sel -1 \$1;
#X msg 159 49 1;
#X msg 210 48 0;
#X obj 159 70 f;
#X obj 67 244 r concert-instrument-show;
#X obj 67 265 == -1;
#X obj 67 286 * 72;
#X obj 241 55 r concert-instrument-isplaying-\$1;
#X obj 83 217 pofimage Fader.png 40;
#X obj 83 164 poftranslate 12;
#X floatatom 250 83 5 0 0 0 - - -;
#X obj 226 130 tgl 15 0 empty empty empty 17 7 0 10 -262144 -1 -1 0
1;
#X floatatom 784 337 5 0 0 0 - - -;
#X floatatom 676 154 5 0 0 0 - - -;
#X floatatom 720 147 5 0 0 0 - - -;
#X floatatom 770 171 5 0 0 0 - - -;
#X obj 751 671 bng 15 250 50 0 empty empty empty 17 7 0 10 -262144
-1 -1;
#X obj 64 72 fixScaleX;
#X obj 64 51 pofvisible 1;
#X obj 751 693 s concert-MessClock-\$1;
#X obj 630 313 pofcolor 1 1 1 1;
#X obj 738 288 max 0.5;
#X obj 694 255 f;
#X obj 776 271 tgl 15 0 empty empty empty 17 7 0 10 -262144 -1 -1 1
1;
#X obj 689 234 tgl 15 0 empty empty empty 17 7 0 10 -262144 -1 -1 1
1;
#X obj 751 206 r TempoMess-isplaying-\$1;
#X obj 735 386 route up down;
#X msg 735 409 0;
#X msg 772 408 1;
#X obj 735 432 tgl 15 0 empty empty empty 17 7 0 10 -262144 -1 -1 0
1;
#X obj 735 457 s \$0-TempoMessTouched;
#X obj 671 210 r \$1-OnOff;
#X obj 680 478 sel 0 1, f 29;
#X msg 766 549 1;
#X msg 747 502 stop;
#X msg 714 526 0;
#X obj 714 578 f;
#X obj 635 721 s \$1-Set-OnOff;
#X obj 714 600 sel 1;
#X obj 635 696 spigot 1;
#X obj 714 624 t b b b;
#X msg 755 647 0;
#X msg 680 673 1;
#X obj 680 503 t b b b b;
#X obj 647 101 s \$1-OnOff;
#X obj 647 56 loadbang;
#X msg 647 77 0;
#X obj 766 528 del 300;
#X obj 632 358 pofimage instruments/Chronometre.png 45 45;
#X obj 631 382 poftouch 45 45 1;
#X obj 632 185 poftranslate 0 -324;
#X obj 463 40 s concert-fader-\$1;
#X obj 463 15 inlet;
#X obj 463 119 outlet;
#X obj 825 230 outlet;
#X obj 822 252 inlet;
#X obj 823 277 ddemux 0 1;
#X obj 812 301 sel 0 1;
#X obj 836 327 sel 0 1;
#X obj 64 93 t a a a;
#X connect 0 0 61 0;
#X connect 2 0 67 0;
#X connect 3 0 2 0;
#X connect 4 0 80 1;
#X connect 5 0 1 0;
#X connect 6 0 80 0;
#X connect 7 0 81 2;
#X connect 8 0 81 2;
#X connect 9 0 67 2;
#X connect 10 1 12 0;
#X connect 11 1 12 1;
#X connect 11 1 17 0;
#X connect 12 0 15 0;
#X connect 12 0 29 0;
#X connect 13 0 68 0;
#X connect 14 0 24 0;
#X connect 15 0 13 0;
#X connect 16 0 13 1;
#X connect 17 0 16 0;
#X connect 17 0 34 0;
#X connect 18 0 20 0;
#X connect 18 0 69 0;
#X connect 19 0 22 0;
#X connect 20 0 22 0;
#X connect 21 0 8 0;
#X connect 23 0 16 1;
#X connect 25 0 26 0;
#X connect 25 0 125 0;
#X connect 27 0 31 1;
#X connect 28 0 31 0;
#X connect 29 0 30 0;
#X connect 30 0 32 0;
#X connect 31 0 37 0;
#X connect 32 0 33 0;
#X connect 33 0 36 1;
#X connect 34 0 36 1;
#X connect 35 0 36 0;
#X connect 36 0 40 0;
#X connect 37 0 35 0;
#X connect 39 0 40 1;
#X connect 40 0 41 0;
#X connect 41 0 38 0;
#X connect 43 0 46 0;
#X connect 45 0 58 0;
#X connect 46 0 44 0;
#X connect 46 0 62 0;
#X connect 46 1 45 0;
#X connect 46 2 66 0;
#X connect 47 0 49 0;
#X connect 48 0 53 2;
#X connect 49 0 50 0;
#X connect 49 0 51 0;
#X connect 50 0 48 0;
#X connect 51 0 52 0;
#X connect 52 0 45 2;
#X connect 54 0 57 0;
#X connect 55 0 54 0;
#X connect 56 0 49 0;
#X connect 57 0 56 0;
#X connect 58 0 53 0;
#X connect 59 0 6 4;
#X connect 60 0 67 1;
#X connect 61 0 5 0;
#X connect 61 1 90 0;
#X connect 62 0 67 0;
#X connect 63 0 6 2;
#X connect 63 0 6 3;
#X connect 63 0 59 0;
#X connect 63 0 70 0;
#X connect 64 0 27 0;
#X connect 64 1 10 0;
#X connect 64 2 11 0;
#X connect 64 2 28 0;
#X connect 65 0 66 2;
#X connect 67 1 64 0;
#X connect 68 0 14 0;
#X connect 69 0 42 0;
#X connect 71 0 72 0;
#X connect 72 0 73 0;
#X connect 72 1 73 0;
#X connect 72 2 74 0;
#X connect 73 0 75 0;
#X connect 74 0 75 0;
#X connect 75 0 90 0;
#X connect 76 0 77 0;
#X connect 77 0 78 0;
#X connect 78 0 5 1;
#X connect 79 0 63 0;
#X connect 79 0 82 0;
#X connect 81 0 6 0;
#X connect 83 0 63 0;
#X connect 84 0 120 1;
#X connect 85 0 122 1;
#X connect 86 0 122 2;
#X connect 87 0 122 3;
#X connect 88 0 91 0;
#X connect 89 0 131 0;
#X connect 90 0 89 0;
#X connect 92 0 120 0;
#X connect 93 0 92 4;
#X connect 94 0 92 2;
#X connect 94 0 92 3;
#X connect 94 0 93 0;
#X connect 94 0 95 0;
#X connect 94 0 126 0;
#X connect 94 0 128 1;
#X connect 96 0 94 0;
#X connect 97 0 94 0;
#X connect 98 0 99 0;
#X connect 98 1 100 0;
#X connect 99 0 101 0;
#X connect 100 0 101 0;
#X connect 101 0 102 0;
#X connect 101 0 104 0;
#X connect 103 0 96 0;
#X connect 104 0 115 0;
#X connect 104 1 119 0;
#X connect 105 0 108 0;
#X connect 106 0 119 0;
#X connect 107 0 108 0;
#X connect 108 0 110 0;
#X connect 110 0 112 0;
#X connect 111 0 109 0;
#X connect 112 1 88 0;
#X connect 112 2 113 0;
#X connect 113 0 111 1;
#X connect 114 0 111 1;
#X connect 115 0 114 0;
#X connect 115 1 111 0;
#X connect 115 2 107 0;
#X connect 115 3 106 0;
#X connect 117 0 118 0;
#X connect 118 0 116 0;
#X connect 119 0 105 0;
#X connect 120 0 121 0;
#X connect 121 1 98 0;
#X connect 122 0 92 0;
#X connect 124 0 123 0;
#X connect 127 0 128 0;
#X connect 128 0 129 0;
#X connect 128 1 130 0;
#X connect 129 1 99 0;
#X connect 130 0 99 0;
#X connect 131 0 122 0;
#X connect 131 1 81 0;
#X connect 131 2 43 0;
