#N canvas 152 683 687 345 10;
#X obj 321 -1 inlet head;
#X floatatom 387 20 5 0 0 0 - - -;
#X floatatom 435 17 5 0 0 0 - - -;
#X obj 321 58 poftranslate -324 157;
#X obj 321 89 fader 0 \$1 MAL;
#X obj 321 131 fader 2 \$1 MO;
#X obj 321 110 fader 1 \$1 COUV;
#X obj 321 151 fader 3 \$1 BID;
#X obj 321 171 fader 4 \$1 GRI;
#X obj 321 191 fader 5 \$1 BAI;
#X obj 321 212 fader 6 \$1 REG;
#X obj 321 232 fader 7 \$1 ASP;
#X obj 321 253 fader 8 \$1 VER;
#X obj 322 275 fader 9 \$1 MIX;
#X floatatom 119 25 5 0 0 0 - - -;
#X obj 108 113 apf MASTERschoolscape fader-1 1;
#X obj 106 133 apf MASTERschoolscape fader-2 1;
#X obj 104 153 apf MASTERschoolscape fader-3 1;
#X obj 104 175 apf MASTERschoolscape fader-4 1;
#X obj 102 196 apf MASTERschoolscape fader-5 1;
#X obj 100 217 apf MASTERschoolscape fader-6 1;
#X obj 98 237 apf MASTERschoolscape fader-7 1;
#X obj 100 281 apf MASTERschoolscape fader-9 1;
#X obj 100 259 apf MASTERschoolscape fader-8 1;
#X obj 111 91 apf MASTERschoolscape fader-0 1;
#X obj 454 278 api MASTERschoolscape mute-9 1;
#X obj 454 256 api MASTERschoolscape mute-8 1;
#X obj 452 234 api MASTERschoolscape mute-7 1;
#X obj 454 214 api MASTERschoolscape mute-6 1;
#X obj 456 194 api MASTERschoolscape mute-5 1;
#X obj 458 172 api MASTERschoolscape mute-4 1;
#X obj 458 150 api MASTERschoolscape mute-3 1;
#X obj 460 130 api MASTERschoolscape mute-2 1;
#X obj 461 109 api MASTERschoolscape mute-1 1;
#X obj 465 88 api MASTERschoolscape mute-0 1;
#X connect 0 0 3 0;
#X connect 1 0 3 1;
#X connect 2 0 3 2;
#X connect 3 0 4 0;
#X connect 4 0 6 0;
#X connect 4 1 24 0;
#X connect 4 3 34 0;
#X connect 5 0 7 0;
#X connect 5 1 16 0;
#X connect 5 3 32 0;
#X connect 6 0 5 0;
#X connect 6 1 15 0;
#X connect 6 3 33 0;
#X connect 7 0 8 0;
#X connect 7 1 17 0;
#X connect 7 3 31 0;
#X connect 8 0 9 0;
#X connect 8 1 18 0;
#X connect 8 3 30 0;
#X connect 9 0 10 0;
#X connect 9 1 19 0;
#X connect 9 3 29 0;
#X connect 10 0 11 0;
#X connect 10 1 20 0;
#X connect 10 3 28 0;
#X connect 11 0 12 0;
#X connect 11 1 21 0;
#X connect 11 3 27 0;
#X connect 12 0 13 0;
#X connect 12 1 23 0;
#X connect 12 3 26 0;
#X connect 13 1 22 0;
#X connect 13 3 25 0;
#X connect 15 0 6 1;
#X connect 16 0 5 1;
#X connect 17 0 7 1;
#X connect 18 0 8 1;
#X connect 19 0 9 1;
#X connect 20 0 10 1;
#X connect 21 0 11 1;
#X connect 22 0 13 1;
#X connect 23 0 12 1;
#X connect 24 0 4 1;
#X connect 24 0 14 0;
#X connect 25 0 13 3;
#X connect 26 0 12 3;
#X connect 27 0 11 3;
#X connect 28 0 10 3;
#X connect 29 0 9 3;
#X connect 30 0 8 3;
#X connect 31 0 7 3;
#X connect 32 0 5 3;
#X connect 33 0 6 3;
#X connect 34 0 4 3;
