#N canvas 930 852 542 669 10;
#X declare -path ../;
#X obj 49 42 inlet;
#X msg 116 92 draw 1;
#X obj 116 71 loadbang;
#X floatatom 299 89 5 0 0 0 - - -;
#X obj 100 118 poftouch 5000 5000;
#X obj 206 7 declare -path ../;
#X text 116 9 CONCERT;
#X obj 49 367 set/instrBar concert;
#X obj 66 340 concert/faders;
#X obj 93 318 topBar Console;
#X obj 83 143 pofimage ../img/ConsoleVide.png 800 600;
#X obj 93 280 pofvisible 1;
#X obj 49 75 t a a a a;
#X obj 66 247 t a a;
#X obj 66 183 t a a, f 27;
#X obj 225 270 pofvisible 0;
#X obj 378 181 hradio 15 1 0 10 empty empty empty 0 -8 0 10 -262144
-1 -1 0;
#X msg 345 182 -1;
#X obj 128 244 == -1;
#X obj 184 245 != -1;
#X obj 128 207 r concert-instrument-show;
#X obj 363 212 s concert-instrument-show;
#X obj 225 296 outlet;
#X obj 370 331 r concert-instrument-show;
#X obj 324 251 r page;
#X msg 324 295 -2;
#X msg 399 294 0;
#X obj 324 273 route balance;
#X obj 370 378 +;
#X obj 370 354 t b f;
#X obj 324 342 f;
#X obj 370 401 change;
#X obj 370 425 t b;
#X obj 416 378 r NbRecallPrepa;
#X obj 416 402 == 0;
#X obj 416 426 == 0;
#X obj 370 452 spigot;
#X obj 370 527 s PopupSaveSet;
#X obj 325 504 bng 15 250 50 0 empty empty empty 17 7 0 10 -262144
-1 -1;
#X obj 419 464 r SoundRecorded;
#X obj 370 496 spigot;
#X obj 325 536 bng 15 250 50 0 empty empty empty 17 7 0 10 -262144
-1 -1;
#X floatatom 434 497 5 0 0 0 - - -;
#X floatatom 470 422 5 0 0 0 - - -;
#N canvas 495 2067 869 855 popupSaveSet? 1;
#X obj 98 33 inlet;
#X floatatom 639 323 5 0 0 0 - - -;
#X obj 500 143 poftexts vera 35 -1;
#X floatatom 522 34 5 0 0 0 - - -;
#X floatatom 561 61 5 0 0 0 - - -;
#X floatatom 609 58 5 0 0 0 - - -;
#X obj 669 57 loadbang;
#X obj 41 508 t a a;
#X floatatom 165 557 5 0 0 0 - - -;
#X floatatom 213 564 5 0 0 0 - - -;
#X floatatom 266 802 5 0 0 0 - - -;
#X obj 39 287 t a a;
#X obj 312 450 route down;
#X msg 193 421 draw 1;
#X obj 191 399 loadbang;
#X msg 336 476 0;
#X msg 79 107 1;
#X obj 129 444 pofcolor 0 0 0 0.8;
#X obj 136 626 vsl 15 100 0 1 0 0 empty empty empty 0 -9 0 10 -262144
-1 -1 0 1;
#X floatatom 136 733 5 0 0 0 - - -;
#X obj 203 626 vsl 15 100 0 1 0 0 empty empty empty 0 -9 0 10 -262144
-1 -1 0 1;
#X floatatom 203 733 5 0 0 0 - - -;
#X obj 270 625 vsl 15 100 0 1 0 0 empty empty empty 0 -9 0 10 -262144
-1 -1 0 1;
#X floatatom 270 732 5 0 0 0 - - -;
#X obj 337 625 vsl 15 100 0 1 0 0 empty empty empty 0 -9 0 10 -262144
-1 -1 0 1;
#X floatatom 337 732 5 0 0 0 - - -;
#X floatatom 192 802 5 0 0 0 - - -;
#X obj 288 470 bng 15 250 50 0 empty empty empty 17 7 0 10 -262144
-1 -1;
#X obj 386 500 bng 15 250 50 0 empty empty empty 17 7 0 10 -262144
-1 -1;
#N canvas 618 356 344 423 vis 0;
#X obj 22 14 inlet;
#X floatatom 120 111 5 0 0 0 - - -;
#X floatatom 62 130 5 0 0 0 - - -;
#X obj 31 80 unpack f f f;
#X floatatom 10 128 5 0 0 0 - - -;
#X obj 113 326 outlet;
#X obj 28 237 t b;
#X obj 164 236 t b;
#X msg 113 291 0;
#X obj 28 172 moses -365;
#X obj 95 197 moses 365;
#X obj 164 171 moses -230;
#X obj 231 196 moses 260;
#X connect 0 0 3 0;
#X connect 3 0 4 0;
#X connect 3 0 9 0;
#X connect 3 1 2 0;
#X connect 3 1 11 0;
#X connect 3 2 1 0;
#X connect 6 0 8 0;
#X connect 7 0 8 0;
#X connect 8 0 5 0;
#X connect 9 0 6 0;
#X connect 9 1 10 0;
#X connect 10 1 6 0;
#X connect 11 0 7 0;
#X connect 11 1 12 0;
#X connect 12 1 7 0;
#X restore 319 510 pd vis;
#X msg 319 535 0;
#X msg 105 173 0;
#X obj 118 583 poftranslate 0 0;
#X msg 189 359 draw 0;
#X obj 139 235 nbx 5 14 -1e+37 1e+37 0 1 empty empty empty 0 -8 0 10
-262144 -1 -1 -35 256;
#X obj 202 236 nbx 5 14 -1e+37 1e+37 0 1 empty empty empty 0 -8 0 10
-262144 -1 -1 5 256;
#X floatatom 347 387 5 0 0 0 - - -;
#X obj 326 323 r PrefGamme-r;
#X obj 390 352 bng 15 250 50 0 empty empty empty 17 7 0 10 -262144
-1 -1;
#X obj 654 95 f \$1;
#X obj 98 253 poftranslate 0 0;
#X obj 532 177 nbx 5 14 -1e+37 1e+37 0 1 empty empty empty 0 -8 0 10
-262144 -1 -1 -210 256;
#X obj 590 177 nbx 5 14 -1e+37 1e+37 0 1 empty empty empty 0 -8 0 10
-262144 -1 -1 57 256;
#X obj 42 541 t a a;
#X obj 491 196 poftranslate, f 21;
#X obj 119 776 pofcolor 0.6 0 0.7 1, f 37;
#X obj 706 87 bng 15 250 50 0 empty empty empty 17 7 0 10 -262144 -1
-1;
#X obj 33 220 pofvisible;
#X obj 166 39 tgl 15 0 empty empty empty 17 7 0 10 -262144 -1 -1 0
1;
#X obj 208 137 t a a;
#X obj 291 173 poftouch 6000 6000;
#X obj 391 236 route down;
#X msg 318 57 0;
#X obj 203 33 sel 1;
#X msg 188 67 1;
#X msg 364 114 draw 1;
#X obj 364 93 loadbang;
#X obj 291 148 pofcolor 0 0 0 0.75;
#X obj 318 4 r page;
#X obj 382 277 bng 15 250 50 0 empty empty empty 17 7 0 10 -262144
-1 -1;
#X obj 444 268 bng 15 250 50 0 empty empty empty 17 7 0 10 -262144
-1 -1;
#X obj 504 267 poftexts vera 35 -1;
#X obj 538 220 loadbang;
#X obj 533 418 poftexts vera 35 -1;
#X obj 567 371 loadbang;
#X obj 500 346 poftranslate 0 0 0;
#X obj 513 329 nbx 5 14 -1e+37 1e+37 0 1 empty empty empty 0 -8 0 10
-262144 -1 -1 27 256;
#X obj 575 323 nbx 5 14 -1e+37 1e+37 0 1 empty empty empty 0 -8 0 10
-262144 -1 -1 46 256;
#X floatatom 648 488 5 0 0 0 - - -;
#X obj 532 491 nbx 5 14 -1e+37 1e+37 0 1 empty empty empty 0 -8 0 10
-262144 -1 -1 92 256;
#X obj 590 491 nbx 5 14 -1e+37 1e+37 0 1 empty empty empty 0 -8 0 10
-262144 -1 -1 62 256;
#X obj 514 513 poftranslate 0 0 0;
#X obj 131 466 poftouch 530 250;
#X obj 119 825 pofrect 525 245 0 0 0 0;
#X obj 208 88 r overHead;
#X obj 143 298 nbx 5 14 -1e+37 1e+37 0 1 empty empty empty 0 -8 0 10
-262144 -1 -1 -39 256;
#X obj 206 299 nbx 5 14 -1e+37 1e+37 0 1 empty empty empty 0 -8 0 10
-262144 -1 -1 5 256;
#X obj 102 316 poftranslate 0 0;
#X obj 208 113 pofvisible;
#X obj 396 16 r ClosePopupNoSet;
#X msg 546 394 text Do you want to save your set?;
#X msg 513 119 text Caution !;
#N canvas 602 2047 552 499 Yes 1;
#X obj 96 21 inlet;
#X obj 96 42 t a a a;
#X obj 135 67 pofcolor 1 1 1 1;
#X msg 253 53 draw 1;
#X obj 253 32 loadbang;
#X obj 115 280 pofcolor 0.2 0.2 0.2 1;
#X obj 96 370 pofcolor 0.8 0.8 0.8 1;
#X obj 19 305 loadbang;
#X obj 128 350 unpack f f f;
#X obj 147 259 unpack f f f;
#X msg 309 259 0.2 0.2 0.2;
#X msg 309 300 0.8 0.8 0.8;
#X msg 252 300 0 0 0 1;
#X obj 228 107 route down;
#X obj 228 128 b;
#X obj 377 167 loadbang;
#X floatatom 169 142 5 0 0 0 - - -;
#X floatatom 136 191 5 0 0 0 - - -;
#X obj 96 391 poftexts asimov 40;
#X obj 169 126 bng 15 250 50 0 empty empty empty 17 7 0 10 -262144
-1 -1;
#X msg 252 258 1 0 0 0;
#X obj 286 136 t b b;
#X obj 373 214 del 100;
#X obj 322 163 del 150;
#X obj 135 88 poftouch 200 50;
#X obj 115 300 pofrect 195 45;
#X obj 330 77 bng 15 250 50 0 empty empty empty 17 7 0 10 -262144 -1
-1;
#X obj 374 81 s ClosePopupNoSet;
#X msg 20 326 text Yes \, width 200 \, center 1;
#X obj 385 49 s SoundRecorded;
#X msg 390 22 0, f 1;
#X obj 382 121 s set-save;
#X connect 0 0 1 0;
#X connect 1 0 6 0;
#X connect 1 1 5 0;
#X connect 1 2 2 0;
#X connect 2 0 24 0;
#X connect 3 0 24 0;
#X connect 4 0 3 0;
#X connect 5 0 25 0;
#X connect 6 0 18 0;
#X connect 7 0 28 0;
#X connect 8 0 6 1;
#X connect 8 1 6 2;
#X connect 8 2 6 3;
#X connect 9 0 5 1;
#X connect 9 1 5 2;
#X connect 9 2 5 3;
#X connect 10 0 9 0;
#X connect 10 0 11 0;
#X connect 11 0 8 0;
#X connect 12 0 8 0;
#X connect 13 0 14 0;
#X connect 13 1 26 0;
#X connect 14 0 19 0;
#X connect 14 0 21 0;
#X connect 15 0 10 0;
#X connect 20 0 9 0;
#X connect 20 0 12 0;
#X connect 21 1 20 0;
#X connect 21 1 23 0;
#X connect 23 0 10 0;
#X connect 24 1 13 0;
#X connect 26 0 27 0;
#X connect 26 0 30 0;
#X connect 26 0 31 0;
#X connect 28 0 18 0;
#X connect 30 0 29 0;
#X restore 539 566 pd Yes;
#X floatatom 634 603 5 0 0 0 - - -;
#X obj 518 606 nbx 5 14 -1e+37 1e+37 0 1 empty empty empty 0 -8 0 10
-262144 -1 -1 248 256;
#X obj 576 606 nbx 5 14 -1e+37 1e+37 0 1 empty empty empty 0 -8 0 10
-262144 -1 -1 0 256;
#X obj 500 628 poftranslate 0 0 0;
#N canvas 0 2009 552 499 No 1;
#X obj 96 21 inlet;
#X obj 96 42 t a a a;
#X obj 135 67 pofcolor 1 1 1 1;
#X msg 253 53 draw 1;
#X obj 253 32 loadbang;
#X obj 115 280 pofcolor 0.2 0.2 0.2 1;
#X obj 96 370 pofcolor 0.8 0.8 0.8 1;
#X obj 19 305 loadbang;
#X obj 128 350 unpack f f f;
#X obj 147 259 unpack f f f;
#X msg 309 259 0.2 0.2 0.2;
#X msg 309 300 0.8 0.8 0.8;
#X msg 252 300 0 0 0 1;
#X obj 228 107 route down;
#X obj 228 128 b;
#X obj 377 167 loadbang;
#X floatatom 169 142 5 0 0 0 - - -;
#X floatatom 136 191 5 0 0 0 - - -;
#X obj 96 391 poftexts asimov 40;
#X obj 169 126 bng 15 250 50 0 empty empty empty 17 7 0 10 -262144
-1 -1;
#X msg 252 258 1 0 0 0;
#X obj 286 136 t b b;
#X obj 373 214 del 100;
#X obj 322 163 del 150;
#X obj 182 177 s saveTune-rcv;
#X obj 135 88 poftouch 200 50;
#X obj 115 300 pofrect 195 45;
#X obj 330 77 bng 15 250 50 0 empty empty empty 17 7 0 10 -262144 -1
-1;
#X obj 381 78 s ClosePopupNoSet;
#X msg 20 326 text No \, width 200 \, center 1;
#X obj 385 49 s SoundRecorded;
#X msg 390 22 0, f 1;
#X obj 359 127 s ReloadSet;
#X connect 0 0 1 0;
#X connect 1 0 6 0;
#X connect 1 1 5 0;
#X connect 1 2 2 0;
#X connect 2 0 25 0;
#X connect 3 0 25 0;
#X connect 4 0 3 0;
#X connect 5 0 26 0;
#X connect 6 0 18 0;
#X connect 7 0 29 0;
#X connect 8 0 6 1;
#X connect 8 1 6 2;
#X connect 8 2 6 3;
#X connect 9 0 5 1;
#X connect 9 1 5 2;
#X connect 9 2 5 3;
#X connect 10 0 9 0;
#X connect 10 0 11 0;
#X connect 11 0 8 0;
#X connect 12 0 8 0;
#X connect 13 0 14 0;
#X connect 13 1 27 0;
#X connect 14 0 19 0;
#X connect 14 0 21 0;
#X connect 15 0 10 0;
#X connect 20 0 9 0;
#X connect 20 0 12 0;
#X connect 21 1 20 0;
#X connect 21 1 23 0;
#X connect 23 0 10 0;
#X connect 25 1 13 0;
#X connect 27 0 28 0;
#X connect 27 0 31 0;
#X connect 27 0 32 0;
#X connect 29 0 18 0;
#X connect 31 0 30 0;
#X restore 525 681 pd No;
#X obj 488 90 poftranslate -48 -95;
#X msg 517 243 text You've just recorded a new sound;
#X connect 0 0 16 0;
#X connect 0 0 54 0;
#X connect 1 0 65 3;
#X connect 3 0 88 1;
#X connect 4 0 88 2;
#X connect 5 0 88 3;
#X connect 6 0 39 0;
#X connect 7 0 43 0;
#X connect 7 1 32 0;
#X connect 8 0 32 1;
#X connect 9 0 32 2;
#X connect 10 0 73 2;
#X connect 11 0 7 0;
#X connect 11 1 17 0;
#X connect 12 0 15 0;
#X connect 12 0 27 0;
#X connect 12 0 29 0;
#X connect 12 1 28 0;
#X connect 13 0 72 0;
#X connect 14 0 13 0;
#X connect 17 0 72 0;
#X connect 18 0 19 0;
#X connect 19 0 45 1;
#X connect 20 0 21 0;
#X connect 21 0 45 2;
#X connect 22 0 23 0;
#X connect 23 0 45 3;
#X connect 24 0 25 0;
#X connect 25 0 45 4;
#X connect 26 0 73 1;
#X connect 29 0 30 0;
#X connect 31 0 47 0;
#X connect 32 0 45 0;
#X connect 33 0 72 0;
#X connect 34 0 40 1;
#X connect 35 0 40 2;
#X connect 37 0 36 0;
#X connect 37 0 38 0;
#X connect 39 0 81 0;
#X connect 40 0 11 0;
#X connect 41 0 44 1;
#X connect 42 0 44 2;
#X connect 43 1 88 0;
#X connect 44 0 61 0;
#X connect 44 0 65 0;
#X connect 45 0 73 0;
#X connect 46 0 39 0;
#X connect 47 0 11 0;
#X connect 49 0 40 0;
#X connect 49 1 57 0;
#X connect 50 1 51 0;
#X connect 51 0 52 0;
#X connect 51 0 59 0;
#X connect 51 0 31 0;
#X connect 51 1 60 0;
#X connect 52 0 78 0;
#X connect 53 0 54 0;
#X connect 54 0 47 0;
#X connect 54 0 78 0;
#X connect 55 0 50 0;
#X connect 56 0 55 0;
#X connect 57 0 50 0;
#X connect 62 0 89 0;
#X connect 64 0 80 0;
#X connect 65 0 63 0;
#X connect 65 0 71 0;
#X connect 66 0 65 1;
#X connect 67 0 65 2;
#X connect 68 0 71 3;
#X connect 69 0 71 1;
#X connect 70 0 71 2;
#X connect 71 0 82 0;
#X connect 71 0 86 0;
#X connect 74 0 78 0;
#X connect 75 0 77 1;
#X connect 76 0 77 2;
#X connect 78 0 49 0;
#X connect 79 0 52 0;
#X connect 80 0 63 0;
#X connect 81 0 2 0;
#X connect 83 0 86 3;
#X connect 84 0 86 1;
#X connect 85 0 86 2;
#X connect 86 0 87 0;
#X connect 88 0 2 0;
#X connect 88 0 44 0;
#X connect 89 0 61 0;
#X restore 329 593 pd popupSaveSet?;
#X connect 0 0 12 0;
#X connect 1 0 4 0;
#X connect 2 0 1 0;
#X connect 11 0 9 0;
#X connect 12 0 7 0;
#X connect 12 1 14 0;
#X connect 12 2 10 0;
#X connect 12 3 4 0;
#X connect 13 0 8 0;
#X connect 13 1 11 0;
#X connect 14 0 13 0;
#X connect 14 1 15 0;
#X connect 15 0 22 0;
#X connect 16 0 21 0;
#X connect 17 0 21 0;
#X connect 18 0 11 0;
#X connect 19 0 15 0;
#X connect 20 0 18 0;
#X connect 20 0 19 0;
#X connect 23 0 29 0;
#X connect 24 0 27 0;
#X connect 25 0 30 0;
#X connect 26 0 30 0;
#X connect 27 0 25 0;
#X connect 27 1 26 0;
#X connect 28 0 31 0;
#X connect 29 0 28 0;
#X connect 29 1 28 1;
#X connect 30 0 28 0;
#X connect 31 0 32 0;
#X connect 32 0 36 0;
#X connect 33 0 34 0;
#X connect 34 0 35 0;
#X connect 35 0 36 1;
#X connect 35 0 43 0;
#X connect 36 0 38 0;
#X connect 36 0 40 0;
#X connect 39 0 40 1;
#X connect 39 0 42 0;
#X connect 40 0 37 0;
#X connect 40 0 41 0;
#X connect 40 0 44 0;
