#N struct 3889-symarray float x array symbols 3889-sym;
#N struct 3889-sym symbol name float on;
#N struct 3900-symarray float x array symbols 3900-sym;
#N struct 3900-sym symbol name float on;
#N canvas 623 244 577 542 10;
#X declare -path ../;
#X declare -path ../instruments/rj;
#X obj 63 27 inlet;
#X obj 63 60 t a a a;
#X msg 115 82 draw 1;
#X obj 115 61 loadbang;
#X obj 102 113 poftouch 5000 5000;
#X floatatom 222 163 5 0 0 0 - - -;
#X floatatom 356 160 5 0 0 0 - - -;
#X floatatom 188 162 5 0 0 0 - - -;
#N canvas 336 537 468 347 mode 0;
#X obj 113 20 inlet;
#X obj 360 125 nbx 5 14 -1e+37 1e+37 0 1 empty empty empty 0 -8 0 10
-262144 -1 -1 138 256;
#X obj 422 124 nbx 5 14 -1e+37 1e+37 0 1 empty empty empty 0 -8 0 10
-262144 -1 -1 101 256;
#X obj 400 91 bng 15 250 50 0 empty empty empty 17 7 0 10 -262144 -1
-1;
#X floatatom 235 106 5 0 0 0 - - -;
#X obj 113 127 imageTouch balance/Mode.png 0.33;
#X obj 113 165 tgl 15 0 empty empty empty 17 7 0 10 -262144 -1 -1 0
1;
#X obj 164 272 mode/listGui;
#X obj 164 190 r overHead;
#X obj 164 215 pofvisible;
#X obj 164 239 t a a;
#X obj 247 275 poftouch 6000 6000;
#X obj 336 302 route down;
#X msg 236 190 0;
#X obj 134 159 sel 1;
#X msg 134 181 1;
#X msg 320 216 draw 1;
#X obj 320 195 loadbang;
#X obj 247 250 pofcolor 0 0 0 0.75;
#X obj 236 165 r page;
#X obj 71 255 bng 15 250 50 0 empty empty empty 17 7 0 10 -262144 -1
-1;
#X obj 4 225 mode/say 1 OuvertureMode;
#X obj 64 302 mode/say 1 finmode;
#X obj 113 100 fixScaleX;
#X obj 344 144 cadre;
#X obj 113 46 t a a;
#X obj 155 68 cadreVec 138 101;
#X obj 155 46 pofcolor 0.4 0.5 0.5 1;
#X obj 4 200 s InterfaceModeOpened;
#X obj 35 170 t b;
#X connect 0 0 25 0;
#X connect 1 0 24 1;
#X connect 2 0 24 2;
#X connect 3 0 1 0;
#X connect 3 0 2 0;
#X connect 4 0 5 1;
#X connect 5 0 6 0;
#X connect 5 0 14 0;
#X connect 5 0 29 0;
#X connect 8 0 9 0;
#X connect 9 0 10 0;
#X connect 10 0 7 0;
#X connect 10 1 18 0;
#X connect 11 1 12 0;
#X connect 12 0 13 0;
#X connect 12 0 22 0;
#X connect 13 0 9 0;
#X connect 14 0 15 0;
#X connect 15 0 9 0;
#X connect 15 0 21 0;
#X connect 16 0 11 0;
#X connect 17 0 16 0;
#X connect 18 0 11 0;
#X connect 19 0 13 0;
#X connect 20 0 22 0;
#X connect 23 0 5 0;
#X connect 25 0 23 0;
#X connect 25 1 27 0;
#X connect 27 0 26 0;
#X connect 29 0 28 0;
#X restore 63 282 pd mode;
#X obj 63 260 poftranslate 0 8;
#X obj 275 54 declare -path ../;
#X obj 95 238 nbx 5 14 -1e+37 1e+37 0 1 empty empty empty 0 -8 0 10
-262144 -1 -1 -317 256;
#X obj 157 237 nbx 5 14 -1e+37 1e+37 0 1 empty empty empty 0 -8 0 10
-262144 -1 -1 1 256;
#X obj 63 212 t a a a;
#X obj 82 392 set/instrBar balance;
#X text 177 21 BALANCE;
#N canvas 57 1371 450 300 selectInstr 0;
#X obj 195 48 r balance-instruments-touched;
#X msg 195 71 \$2 \$1;
#X obj 195 93 route 1;
#X floatatom 269 93 5 0 0 0 - - -;
#X obj 192 231 s balance-instruments-select;
#X msg 192 203 -1 0 \, \$1 1;
#X obj 195 116 s balance-instr;
#X obj 192 178 r balance-instr;
#X connect 0 0 1 0;
#X connect 1 0 2 0;
#X connect 2 0 6 0;
#X connect 5 0 4 0;
#X connect 7 0 5 0;
#X restore 82 413 pd selectInstr;
#X obj 419 28 r page;
#X obj 419 72 change;
#X obj 419 96 s set-editing;
#X obj 419 50 eqsym balance;
#X obj 418 119 loadbang;
#X msg 418 142 \; balance-instr 0;
#X obj 150 294 poftranslate 0 8;
#X obj 182 272 nbx 5 14 -1e+37 1e+37 0 1 empty empty empty 0 -8 0 10
-262144 -1 -1 -321 256;
#X obj 244 271 nbx 5 14 -1e+37 1e+37 0 1 empty empty empty 0 -8 0 10
-262144 -1 -1 137.57 256;
#N canvas 213 586 987 895 set_load/save 0;
#X obj 152 10 inlet;
#X obj 131 165 tgl 15 0 empty empty empty 17 7 0 10 -262144 -1 -1 0
1;
#X obj 122 211 r overHead;
#X obj 122 283 t a a;
#X obj 149 330 poftouch 6000 6000;
#X obj 254 352 route down;
#X msg 194 234 0;
#X obj 152 159 sel 1;
#X msg 92 225 1;
#X msg 252 260 draw 1;
#X obj 252 239 loadbang;
#X obj 194 209 r page;
#X floatatom 274 76 5 0 0 0 - - -;
#X obj 122 259 pofvisible;
#X obj 337 185 r overHead;
#X obj 409 256 t a a;
#X obj 646 307 poftouch 6000 6000;
#X obj 763 307 route down;
#X msg 443 179 0;
#X msg 409 176 1;
#X msg 708 258 draw 1;
#X obj 708 236 loadbang;
#X obj 484 179 r page;
#X floatatom 515 79 5 0 0 0 - - -;
#X obj 409 232 pofvisible;
#X obj 456 41 nbx 5 14 -1e+37 1e+37 0 1 empty empty empty 0 -8 0 10
-262144 -1 -1 40 256;
#X obj 201 68 nbx 5 14 -1e+37 1e+37 0 1 empty empty empty 0 -8 0 10
-262144 -1 -1 -39 256;
#X obj 409 61 poftranslate;
#X obj 152 136 imageTouchOnOff set/Load 0.28;
#X obj 409 106 imageTouchOnOff set/Save 0.28;
#X obj 322 105 tgl 15 0 empty empty empty 17 7 0 10 -262144 -1 -1 0
1;
#X obj 122 351 set/listGui;
#X obj 152 182 del 200;
#X msg 200 155 1;
#X msg 208 179 0;
#X obj 409 131 sel 1;
#X obj 409 154 del 200;
#X msg 457 127 1;
#X msg 465 151 0;
#X obj 711 412 poftranslate;
#X obj 789 370 nbx 5 14 -1e+37 1e+37 0 1 empty empty empty 0 -8 0 10
-262144 -1 -1 53 256;
#X obj 724 394 nbx 5 14 -1e+37 1e+37 0 1 empty empty empty 0 -8 0 10
-262144 -1 -1 0 256;
#X obj 715 331 nbx 5 14 -1e+37 1e+37 0 1 empty empty empty 0 -8 0 10
-262144 -1 -1 -159 256;
#X obj 659 331 nbx 5 14 -1e+37 1e+37 0 1 empty empty empty 0 -8 0 10
-262144 -1 -1 0 256;
#X obj 636 356 poftranslate;
#X obj 149 305 pofcolor 0 0 0 0.85;
#N canvas 521 86 669 831 setname 0;
#X obj 195 68 t a a;
#X floatatom 279 28 5 0 0 0 - - -;
#X floatatom 349 29 5 0 0 0 - - -;
#X floatatom 308 24 5 0 0 0 - - -;
#X obj 238 82 pofcolor 0 0 0 1;
#X obj 96 79 t a a;
#X obj 96 39 inlet;
#X obj 195 129 pofcolor 1 1 1 14;
#X floatatom 324 139 5 0 0 0 - - -;
#X obj 136 174 pofcolor 0 0 0 1;
#X obj 96 280 poftexts typo 31;
#X obj 219 233 loadbang;
#X floatatom 157 235 5 0 0 0 - - -;
#X floatatom 117 339 5 0 0 0 - - -;
#X obj 53 478 poftexts typo 23;
#X obj 53 448 pofcolor 0 0.5 0 1;
#X msg 170 468 text fred là j'abuse un peu sur la longueur;
#X msg 171 446 text fred énervé;
#X obj 140 529 route up;
#X obj 140 553 isInside 250 50;
#X obj 41 686 poftextbox;
#X obj 41 706 route out;
#X obj 53 378 t a a a;
#X obj 72 402 pofcolor 0.6 0.85 1 1;
#X obj 219 400 pofcolor 0 0 0 1;
#X obj 175 308 loadbang;
#X floatatom 258 186 5 0 0 0 - - -;
#X floatatom 74 334 5 0 0 0 - - -;
#X floatatom 179 363 5 0 0 0 - - -;
#X floatatom 219 357 5 0 0 0 - - -;
#X floatatom 116 234 5 0 0 0 - - -;
#X obj 195 154 pofrect 655 40 6;
#X obj 238 107 pofrect 664 50 10;
#X obj 54 507 poftouch 422 30;
#X msg 55 555 draw \$1;
#X obj 76 531 tgl 15 0 empty empty empty 17 7 0 10 -262144 -1 -1 0
1;
#X obj 41 727 route bang;
#X msg 219 254 text Nom du set : \, spacing -0.5;
#X obj 73 426 pofrect 400 60 4;
#X obj 219 425 pofrect 410 70 6;
#X obj 53 356 poftranslate 0 23;
#X obj 97 252 poftranslate 0 -35;
#X obj 140 756 s set-saving-name;
#X obj 373 367 r set-saving-name;
#X msg 507 368 symbol NouveauSet;
#X obj 388 398 list prepend text;
#X obj 388 419 list trim;
#X msg 13 606 question Nom du set;
#X obj 13 583 loadbang;
#X obj 140 595 list append NouveauSet;
#X msg 140 574 show;
#X obj 140 618 list trim;
#X obj 486 369 bng 15 250 50 0 empty empty empty 17 7 0 10 -262144
-1 -1;
#X msg 175 329 width 400 \, cliplines 3 0 \, text;
#X obj 440 571 loadbang;
#X msg 440 592 text Entrez le nom de votre set;
#X obj 307 591 pofcolor 0 0 0 0.3;
#X obj 307 621 poftexts vera 27;
#X obj 507 481 r set-saving-name;
#X msg 507 503 0;
#X msg 509 433 0.4;
#X obj 464 213 r set-saving-replace;
#X obj 462 236 sel 0;
#X obj 508 279 r set-saving;
#X obj 508 299 sel 1;
#X obj 509 348 b;
#X obj 386 508 symbol;
#X symbolatom 318 559 0 0 0 0 - - -;
#X obj 390 543 s NomDuSetSelectionné;
#X obj 140 662 pofkb/gettext Nom du set:;
#X obj 140 639 route show;
#X connect 0 0 7 0;
#X connect 0 1 4 0;
#X connect 1 0 32 1;
#X connect 2 0 32 2;
#X connect 3 0 4 3;
#X connect 4 0 32 0;
#X connect 5 0 40 0;
#X connect 5 0 41 0;
#X connect 6 0 5 0;
#X connect 7 0 31 0;
#X connect 8 0 31 2;
#X connect 11 0 37 0;
#X connect 12 0 41 2;
#X connect 13 0 40 2;
#X connect 14 0 33 0;
#X connect 15 0 14 0;
#X connect 16 0 14 0;
#X connect 17 0 14 0;
#X connect 18 0 19 0;
#X connect 19 0 50 0;
#X connect 20 0 21 0;
#X connect 21 0 36 0;
#X connect 22 0 15 0;
#X connect 22 0 56 0;
#X connect 22 1 23 0;
#X connect 22 2 24 0;
#X connect 23 0 38 0;
#X connect 24 0 39 0;
#X connect 25 0 53 0;
#X connect 26 0 31 1;
#X connect 27 0 40 1;
#X connect 28 0 38 1;
#X connect 29 0 38 2;
#X connect 30 0 41 1;
#X connect 33 1 18 0;
#X connect 34 0 33 0;
#X connect 35 0 34 0;
#X connect 36 1 42 0;
#X connect 37 0 10 0;
#X connect 40 0 22 0;
#X connect 41 0 10 0;
#X connect 43 0 49 1;
#X connect 43 0 45 0;
#X connect 43 0 66 0;
#X connect 44 0 49 1;
#X connect 45 0 46 0;
#X connect 46 0 14 0;
#X connect 47 0 20 0;
#X connect 48 0 47 0;
#X connect 49 0 51 0;
#X connect 50 0 49 0;
#X connect 51 0 70 0;
#X connect 52 0 45 0;
#X connect 53 0 14 0;
#X connect 54 0 55 0;
#X connect 55 0 57 0;
#X connect 56 0 57 0;
#X connect 58 0 59 0;
#X connect 59 0 56 4;
#X connect 60 0 56 4;
#X connect 61 0 62 0;
#X connect 62 0 65 0;
#X connect 63 0 64 0;
#X connect 64 0 65 0;
#X connect 65 0 44 0;
#X connect 65 0 52 0;
#X connect 65 0 60 0;
#X connect 66 0 67 0;
#X connect 69 0 42 0;
#X connect 70 0 69 0;
#X restore 636 376 pd setname;
#X obj 646 281 pofcolor 0 0 0 0.9;
#X obj 284 438 poftranslate;
#X obj 284 460 t a a;
#X obj 177 585 poftexts typo 36;
#X obj 319 484 pofcolor 1 1 1 0.1;
#X obj 455 301 nbx 5 14 -1e+37 1e+37 0 1 empty empty empty 0 -8 0 10
-262144 -1 -1 215 256;
#X obj 409 318 poftranslate;
#X msg 135 491 text Enregistrer;
#X obj 319 506 pofrect 230 50 10;
#X obj 135 468 loadbang;
#X obj 519 437 poftranslate;
#X obj 519 459 t a a;
#X obj 519 487 poftexts typo 36;
#X obj 625 461 pofcolor 1 1 1 0.1;
#X obj 546 418 nbx 5 14 -1e+37 1e+37 0 1 empty empty empty 0 -8 0 10
-262144 -1 -1 138 256;
#X obj 625 483 pofrect 230 50 10;
#X obj 433 438 loadbang;
#X obj 308 417 * -1;
#X msg 433 461 text Annuler;
#X obj 320 528 poftouch 230 50;
#X obj 407 549 route up;
#X obj 407 570 isInside 230 50;
#X obj 625 503 poftouch 230 50;
#X obj 705 523 route up;
#X obj 704 543 isInside 230 50;
#X msg 703 564 0;
#X obj 177 564 pofcolor 1 1 1 0.1;
#X obj 409 200 tgl 15 0 empty empty empty 17 7 0 10 -262144 -1 -1 0
1;
#X obj 682 92 r set-saving;
#X obj 682 113 sel 1;
#X msg 682 134 0;
#X obj 608 211 s set-saving-save-enabled;
#X obj 163 513 r set-saving-save-enabled;
#X obj 164 534 clip 0.1 1;
#X obj 608 42 r set-saving-name;
#X msg 608 65 1;
#N canvas 689 1371 853 592 PLAY/REC 0;
#X obj 325 131 bng 15 250 50 0 empty empty empty 17 7 0 10 -262144
-1 -1;
#X obj 445 126 bng 15 250 50 0 empty empty empty 17 7 0 10 -262144
-1 -1;
#X obj 325 187 symbol;
#X obj 360 255 r rec-recording;
#X obj 360 302 spigot;
#X obj 325 210 s rec-rectab;
#X obj 445 213 s rec-playtab;
#X obj 360 361 timer;
#X obj 360 333 sel 1 0;
#X obj 360 448 *;
#X obj 387 407 samplerate~;
#X obj 387 428 / 1000;
#X obj 360 383 t f b;
#X obj 360 477 tabwrite set-table-length;
#X obj 362 535 tabread set-table-length;
#X obj 362 513 hradio 15 1 0 11 empty empty empty 0 -8 0 10 -262144
-1 -1 9;
#X floatatom 362 560 8 0 0 0 - - -;
#X obj 445 148 t b b;
#X obj 383 22 loadbang;
#X obj 445 191 pack s 441000;
#X obj 520 170 tabread set-table-length;
#X msg 520 148 10;
#X obj 445 170 symbol;
#X obj 507 431 loadbang;
#X msg 507 453 10;
#X msg 383 52 symbol set-table-10;
#X obj 423 361 s set-saving-name-recorded;
#X obj 182 28 inlet;
#X obj 88 188 poftranslate;
#X obj 148 168 nbx 5 14 -1e+37 1e+37 0 1 empty empty empty 0 -8 0 10
-262144 -1 -1 -128 256;
#X obj 92 168 nbx 5 14 -1e+37 1e+37 0 1 empty empty empty 0 -8 0 10
-262144 -1 -1 0 256;
#X msg 58 144 text Nom et description : \, spacing 0.5;
#X obj 88 211 poftexts typo 31;
#X obj 58 121 loadbang;
#X obj 471 252 r set-saving;
#X obj 445 104 r nomSet-play;
#X obj 325 154 t b b;
#X msg 393 281 1;
#X obj 471 274 sel 0;
#X msg 471 296 0;
#X obj 325 104 r nomSet-rec;
#X obj 207 102 antiFixScaleX;
#X obj 208 179 rec/gui nomSet;
#X obj 224 344 s rec-maxtimeMS;
#X msg 224 321 10000;
#X connect 0 0 36 0;
#X connect 1 0 17 0;
#X connect 2 0 5 0;
#X connect 3 0 4 0;
#X connect 4 0 8 0;
#X connect 7 0 12 0;
#X connect 8 0 7 0;
#X connect 8 1 7 1;
#X connect 8 1 26 0;
#X connect 8 1 39 0;
#X connect 9 0 13 0;
#X connect 10 0 11 0;
#X connect 11 0 9 1;
#X connect 12 0 9 0;
#X connect 12 1 10 0;
#X connect 14 0 16 0;
#X connect 15 0 14 0;
#X connect 17 0 22 0;
#X connect 17 1 21 0;
#X connect 18 0 25 0;
#X connect 19 0 6 0;
#X connect 20 0 19 1;
#X connect 21 0 20 0;
#X connect 22 0 19 0;
#X connect 23 0 24 0;
#X connect 24 0 13 1;
#X connect 25 0 2 1;
#X connect 25 0 22 1;
#X connect 27 0 28 0;
#X connect 27 0 41 0;
#X connect 28 0 32 0;
#X connect 29 0 28 2;
#X connect 30 0 28 1;
#X connect 31 0 32 0;
#X connect 33 0 31 0;
#X connect 34 0 38 0;
#X connect 35 0 1 0;
#X connect 36 0 2 0;
#X connect 36 1 37 0;
#X connect 36 1 44 0;
#X connect 37 0 4 1;
#X connect 38 0 39 0;
#X connect 39 0 4 1;
#X connect 40 0 0 0;
#X connect 41 0 42 0;
#X connect 44 0 43 0;
#X restore 711 434 pd PLAY/REC;
#X msg 636 85 1;
#X obj 608 131 &&;
#X obj 636 106 t b f;
#X obj 636 65 r set-saving-name-recorded;
#X obj 452 593 r set-saving-save-enabled;
#X obj 472 616 r set-saving-name;
#X obj 451 684 s setCreate;
#N canvas 569 96 631 603 ADMIN 0;
#X obj 23 19 inlet;
#X obj 23 57 pofvisible;
#X obj 69 15 r ADMIN;
#X obj 68 34 tgl 15 0 empty empty empty 17 7 0 10 -262144 -1 -1 0 1
;
#X floatatom 99 77 5 0 0 0 - - -;
#X obj 256 138 t a a a;
#X obj 403 226 pofcolor 0 0 0 1;
#X floatatom 51 82 5 0 0 0 - - -;
#X obj 275 228 pofcolor 1 0 0 1;
#X obj 256 362 poftexts typo 33;
#X floatatom 396 282 5 0 0 0 - - -;
#X obj 275 251 pofrect 270 30 4;
#X obj 403 251 pofrect 280 40 6;
#X msg 286 329 text REMPLACER !;
#X obj 286 306 loadbang;
#X obj 22 257 poftouch 270 30;
#X obj 109 303 isInside 270 30;
#X obj 109 279 route up;
#X obj 423 134 max 0.5;
#X obj 422 35 tgl 15 0 empty empty empty 17 7 0 10 -262144 -1 -1 0
1;
#X obj 256 283 pofcolor 1 1 1 1;
#X obj 109 399 s set-saving-replace;
#X obj 124 333 r set-saving-replace;
#X obj 109 355 f;
#X obj 109 376 == 0;
#X obj 422 10 r set-saving-replace;
#X obj 335 149 sel 0 1;
#X obj 302 198 unpack f f f;
#X msg 288 172 0.2 0.2 0.2;
#X msg 364 172 1 0 0;
#X obj 369 126 tgl 15 0 empty empty empty 17 7 0 10 -262144 -1 -1 0
1;
#X obj 369 81 t f f;
#X obj 407 81 sel 0;
#X msg 388 125 0;
#X obj 369 104 metro 400;
#X obj 274 398 r set-saving-replace;
#X obj 274 422 sel 1;
#X obj 438 320 r set;
#X obj 438 380 pofxml sets;
#X msg 438 352 gets /set[@file=\$1][@name];
#X obj 405 479 symbol;
#X obj 405 505 s set-saving-name;
#X msg 95 228 draw \$1;
#X obj 94 208 tgl 15 0 empty empty empty 17 7 0 10 -262144 -1 -1 0
1;
#X symbolatom 514 472 10 0 0 0 - - -;
#X obj 438 405 route gets;
#X obj 438 425 symbol;
#X obj 398 445 bng 15 250 50 0 empty empty empty 17 7 0 10 -262144
-1 -1;
#X obj 23 105 poftranslate 0 -455;
#X connect 0 0 1 0;
#X connect 1 0 48 0;
#X connect 2 0 1 0;
#X connect 3 0 1 0;
#X connect 4 0 48 2;
#X connect 5 0 20 0;
#X connect 5 0 15 0;
#X connect 5 1 8 0;
#X connect 5 2 6 0;
#X connect 6 0 12 0;
#X connect 7 0 48 1;
#X connect 8 0 11 0;
#X connect 10 0 11 1;
#X connect 13 0 9 0;
#X connect 14 0 13 0;
#X connect 15 1 17 0;
#X connect 16 0 23 0;
#X connect 17 0 16 0;
#X connect 18 0 8 4;
#X connect 18 0 6 4;
#X connect 18 0 20 4;
#X connect 19 0 18 0;
#X connect 19 0 31 0;
#X connect 20 0 9 0;
#X connect 22 0 23 1;
#X connect 23 0 24 0;
#X connect 24 0 21 0;
#X connect 25 0 19 0;
#X connect 26 0 28 0;
#X connect 26 1 29 0;
#X connect 27 0 8 1;
#X connect 27 1 8 2;
#X connect 27 2 8 3;
#X connect 28 0 27 0;
#X connect 29 0 27 0;
#X connect 30 0 26 0;
#X connect 31 0 34 0;
#X connect 31 1 32 0;
#X connect 32 0 33 0;
#X connect 33 0 30 0;
#X connect 34 0 30 0;
#X connect 35 0 36 0;
#X connect 36 0 40 0;
#X connect 37 0 39 0;
#X connect 38 0 45 0;
#X connect 39 0 38 0;
#X connect 40 0 41 0;
#X connect 42 0 15 0;
#X connect 43 0 42 0;
#X connect 45 0 46 0;
#X connect 46 0 40 1;
#X connect 46 0 44 0;
#X connect 47 0 40 0;
#X connect 48 0 5 0;
#X restore 186 430 pd ADMIN;
#X obj 682 156 s set-saving-replace;
#X obj 484 640 r set-saving-replace;
#X obj 451 662 ddemux;
#X obj 407 594 ddemux;
#X obj 576 707 s set-save-as;
#X obj 576 684 symbol;
#X obj 451 638 list;
#X obj 609 662 r set;
#X obj 549 727 s setSetName;
#X obj 549 664 t a b;
#X obj 677 180 r set-saving-replace;
#X obj 635 181 t b f;
#X obj 608 181 ||;
#X obj 418 618 t b a;
#X obj 358 590 bng 15 250 50 0 empty empty empty 17 7 0 10 -262144
-1 -1;
#X obj 68 335 bng 15 250 50 0 empty empty empty 17 7 0 10 -262144 -1
-1;
#X obj 344 662 r set-saving;
#X obj 344 683 sel 1;
#X msg 344 704 0;
#X obj 315 641 r set-saving-name;
#X msg 315 664 1;
#X obj 275 708 ddemux;
#X obj 479 245 mode/say 1 OuvertureSaveSet;
#X obj 138 739 mode/say 1 RelanceNomSet;
#X obj 74 384 mode/say 1 OuvertureLoadSet;
#X obj 61 625 mode/say 1 finOuvertureLoadSet;
#X obj 663 624 mode/say 1 finOuvertureSaveSet;
#X obj 310 745 mode/say 1 RelanceRecNom;
#X obj 465 745 mode/say 1 ConfirmSet;
#X msg 515 550 0;
#X obj 702 731 s rec-rec;
#X msg 702 706 cancel;
#X obj 152 112 fixScaleX;
#X obj 409 83 fixScaleX;
#X obj 152 33 t a a;
#X obj 198 33 cadreVec 129 161;
#X obj 198 11 pofcolor 0.4 0.5 0.5 1;
#X obj 490 209 s set-saving;
#X obj 17 182 s InterfaceModeOpened;
#X obj 40 156 t b;
#X obj 265 214 s InterfaceModeOpened;
#X obj 288 188 t b;
#X symbolatom 668 808 10 0 0 0 - - -;
#X obj 446 819 s All-SaveMASTER;
#X obj 447 795 del 500;
#N canvas 0 600 450 300 text 0;
#X obj 71 171 poftexts typo 18;
#X obj 176 39 loadbang;
#X obj 80 66 inlet;
#X floatatom 102 95 5 0 0 0 - - -;
#X floatatom 134 94 5 0 0 0 - - -;
#X msg 177 68 text Sets;
#X obj 59 125 poftranslate -40 34;
#X connect 1 0 5 0;
#X connect 2 0 6 0;
#X connect 3 0 6 1;
#X connect 4 0 6 2;
#X connect 5 0 0 0;
#X connect 6 0 0 0;
#X restore 35 118 pd text Sets;
#X obj 152 89 poftranslate 0 -39;
#X connect 0 0 126 0;
#X connect 2 0 13 0;
#X connect 3 0 31 0;
#X connect 3 1 45 0;
#X connect 4 1 5 0;
#X connect 5 0 6 0;
#X connect 6 0 13 0;
#X connect 6 0 117 0;
#X connect 7 0 32 0;
#X connect 7 0 33 0;
#X connect 8 0 13 0;
#X connect 9 0 4 0;
#X connect 10 0 9 0;
#X connect 11 0 6 0;
#X connect 12 0 28 1;
#X connect 13 0 3 0;
#X connect 14 0 24 0;
#X connect 15 0 39 0;
#X connect 15 0 44 0;
#X connect 15 0 53 0;
#X connect 15 1 47 0;
#X connect 16 1 17 0;
#X connect 18 0 74 0;
#X connect 18 0 123 0;
#X connect 19 0 74 0;
#X connect 19 0 114 0;
#X connect 20 0 16 0;
#X connect 21 0 20 0;
#X connect 22 0 18 0;
#X connect 23 0 29 1;
#X connect 24 0 15 0;
#X connect 25 0 27 2;
#X connect 27 0 125 0;
#X connect 28 0 7 0;
#X connect 28 0 1 0;
#X connect 28 0 131 0;
#X connect 29 0 35 0;
#X connect 29 0 133 0;
#X connect 30 0 28 2;
#X connect 31 0 6 0;
#X connect 32 0 8 0;
#X connect 32 0 34 0;
#X connect 32 0 116 0;
#X connect 33 0 28 2;
#X connect 34 0 28 2;
#X connect 35 0 36 0;
#X connect 35 0 37 0;
#X connect 36 0 38 0;
#X connect 36 0 19 0;
#X connect 37 0 29 2;
#X connect 38 0 29 2;
#X connect 39 0 83 0;
#X connect 40 0 39 2;
#X connect 41 0 39 1;
#X connect 42 0 44 2;
#X connect 43 0 44 1;
#X connect 44 0 46 0;
#X connect 45 0 4 0;
#X connect 47 0 16 0;
#X connect 48 0 49 0;
#X connect 49 0 73 0;
#X connect 49 1 51 0;
#X connect 51 0 55 0;
#X connect 52 0 53 2;
#X connect 53 0 48 0;
#X connect 53 0 57 0;
#X connect 53 0 91 0;
#X connect 54 0 50 0;
#X connect 55 0 66 0;
#X connect 56 0 54 0;
#X connect 57 0 58 0;
#X connect 58 0 59 0;
#X connect 58 1 60 0;
#X connect 60 0 62 0;
#X connect 61 0 57 1;
#X connect 61 0 64 0;
#X connect 62 0 69 0;
#X connect 63 0 65 0;
#X connect 64 0 48 1;
#X connect 65 0 59 0;
#X connect 66 1 67 0;
#X connect 67 0 68 0;
#X connect 68 0 95 0;
#X connect 68 0 106 0;
#X connect 69 1 70 0;
#X connect 70 0 71 0;
#X connect 71 0 72 0;
#X connect 72 0 18 0;
#X connect 72 0 118 0;
#X connect 73 0 50 0;
#X connect 74 0 24 0;
#X connect 74 0 129 0;
#X connect 75 0 76 0;
#X connect 76 0 77 0;
#X connect 77 0 85 1;
#X connect 77 0 85 0;
#X connect 77 0 92 0;
#X connect 79 0 80 0;
#X connect 80 0 73 4;
#X connect 81 0 82 0;
#X connect 82 0 85 0;
#X connect 84 0 86 0;
#X connect 85 0 104 0;
#X connect 86 0 85 0;
#X connect 86 1 85 1;
#X connect 87 0 84 0;
#X connect 88 0 95 1;
#X connect 89 0 98 1;
#X connect 93 0 94 1;
#X connect 94 0 90 0;
#X connect 94 1 101 0;
#X connect 95 0 113 0;
#X connect 95 1 105 0;
#X connect 97 0 96 0;
#X connect 97 0 134 0;
#X connect 98 0 94 0;
#X connect 99 0 97 1;
#X connect 101 0 100 0;
#X connect 101 1 97 0;
#X connect 102 0 103 0;
#X connect 103 0 104 0;
#X connect 103 1 104 1;
#X connect 104 0 78 0;
#X connect 105 0 120 0;
#X connect 105 0 121 0;
#X connect 105 0 136 0;
#X connect 105 1 98 0;
#X connect 107 0 116 0;
#X connect 108 0 109 0;
#X connect 109 0 110 0;
#X connect 110 0 113 1;
#X connect 111 0 112 0;
#X connect 112 0 113 1;
#X connect 113 0 115 0;
#X connect 113 1 119 0;
#X connect 121 0 18 0;
#X connect 123 0 122 0;
#X connect 124 0 28 0;
#X connect 125 0 29 0;
#X connect 126 0 27 0;
#X connect 126 0 138 0;
#X connect 126 1 128 0;
#X connect 128 0 127 0;
#X connect 131 0 130 0;
#X connect 133 0 132 0;
#X connect 136 0 135 0;
#X connect 138 0 124 0;
#X connect 138 0 137 0;
#X restore 150 316 pd set_load/save;
#X obj 291 345 nbx 5 14 -1e+37 1e+37 0 1 empty empty empty 0 -8 0 10
-262144 -1 -1 73 256;
#X obj 353 344 nbx 5 14 -1e+37 1e+37 0 1 empty empty empty 0 -8 0 10
-262144 -1 -1 67 256;
#N canvas 700 1371 663 465 fx 0;
#X obj 46 21 inlet;
#X floatatom 135 170 5 0 0 0 - - -;
#X obj 78 123 nbx 5 14 -1e+37 1e+37 0 1 empty empty empty 0 -8 0 10
-262144 -1 -1 -66 256;
#X obj 140 122 nbx 5 14 -1e+37 1e+37 0 1 empty empty empty 0 -8 0 10
-262144 -1 -1 -50 256;
#X obj 46 145 poftranslate;
#X floatatom 369 170 5 0 0 0 - - -;
#X obj 303 122 nbx 5 14 -1e+37 1e+37 0 1 empty empty empty 0 -8 0 10
-262144 -1 -1 54 256;
#X obj 374 122 nbx 5 14 -1e+37 1e+37 0 1 empty empty empty 0 -8 0 10
-262144 -1 -1 -50 256;
#X obj 280 145 poftranslate;
#X obj 78 245 nbx 5 14 -1e+37 1e+37 0 1 empty empty empty 0 -8 0 10
-262144 -1 -1 0 256;
#X obj 140 244 nbx 5 14 -1e+37 1e+37 0 1 empty empty empty 0 -8 0 10
-262144 -1 -1 80 256;
#X obj 46 267 poftranslate;
#X obj 119 224 bng 15 250 50 0 empty empty empty 17 7 0 10 -262144
-1 -1;
#X obj 312 254 nbx 5 14 -1e+37 1e+37 0 1 empty empty empty 0 -8 0 10
-262144 -1 -1 0 256;
#X obj 374 253 nbx 5 14 -1e+37 1e+37 0 1 empty empty empty 0 -8 0 10
-262144 -1 -1 80 256;
#X obj 280 276 poftranslate;
#X obj 353 233 bng 15 250 50 0 empty empty empty 17 7 0 10 -262144
-1 -1;
#X obj 280 299 imageKnob balance/Param.png 0.3;
#X obj 46 203 pofimage EffetLegend.png 100;
#X obj 280 203 pofimage ParamLegend.png 100;
#X obj 204 10 r balance-instr;
#X obj 463 111 tabread set-table-fx;
#X obj 369 48 * 2;
#X obj 463 88 + 1;
#X obj 229 93 tabread set-table-fx;
#X obj 307 346 tabwrite set-table-fx;
#X obj 73 338 tabwrite set-table-fx;
#X obj 189 393 f;
#X obj 46 313 t b f;
#X obj 280 321 t b f;
#X obj 189 417 s fx-update-instr;
#X obj 46 290 imageKnob balance/Effet.png 0.3;
#X obj 280 174 fixScaleX;
#X obj 46 173 fixScaleX;
#X obj 46 47 t a a;
#X obj 89 58 cadreVec 252 212;
#X obj 89 35 pofcolor 0.4 0.5 0.5 1;
#X floatatom 131 10 5 0 0 0 - - -;
#X connect 0 0 34 0;
#X connect 1 0 18 1;
#X connect 2 0 4 1;
#X connect 3 0 4 2;
#X connect 4 0 33 0;
#X connect 5 0 19 1;
#X connect 6 0 8 1;
#X connect 7 0 8 2;
#X connect 8 0 32 0;
#X connect 9 0 11 1;
#X connect 10 0 11 2;
#X connect 11 0 31 0;
#X connect 12 0 9 0;
#X connect 12 0 10 0;
#X connect 13 0 15 1;
#X connect 14 0 15 2;
#X connect 15 0 17 0;
#X connect 16 0 13 0;
#X connect 16 0 14 0;
#X connect 17 0 29 0;
#X connect 18 0 11 0;
#X connect 19 0 15 0;
#X connect 20 0 22 0;
#X connect 20 0 27 1;
#X connect 21 0 17 3;
#X connect 22 0 23 0;
#X connect 22 0 24 0;
#X connect 22 0 26 1;
#X connect 23 0 21 0;
#X connect 23 0 25 1;
#X connect 24 0 31 3;
#X connect 27 0 30 0;
#X connect 28 0 27 0;
#X connect 28 1 26 0;
#X connect 29 0 27 0;
#X connect 29 1 25 0;
#X connect 31 0 28 0;
#X connect 32 0 19 0;
#X connect 33 0 18 0;
#X connect 34 0 4 0;
#X connect 34 0 8 0;
#X connect 34 1 36 0;
#X connect 36 0 35 0;
#X connect 37 0 35 1;
#X restore 185 439 pd fx;
#X obj 148 503 v;
#X obj 423 289 poftranslate 0 8;
#X obj 455 267 nbx 5 14 -1e+37 1e+37 0 1 empty empty empty 0 -8 0 10
-262144 -1 -1 328 256;
#X obj 517 266 nbx 5 14 -1e+37 1e+37 0 1 empty empty empty 0 -8 0 10
-262144 -1 -1 20 256;
#N canvas 537 240 663 465 fader 0;
#X obj 46 21 inlet;
#X obj 46 44 t a a;
#X obj 73 67 pofcolor 0.9 0.9 0.9 1;
#X floatatom 122 118 5 0 0 0 - - -;
#X obj 46 139 poftranslate 0 145;
#X obj 73 89 cadreVec 70 325;
#X obj 46 184 concert/fader 1 1;
#X obj 46 204 concert/fader 2 1;
#X obj 46 225 concert/fader 3 1;
#X obj 46 245 concert/fader 4 1;
#X obj 46 265 concert/fader 5 1;
#X obj 46 286 concert/fader 6 1;
#X obj 46 306 concert/fader 7 1;
#X obj 46 327 concert/fader 8 1;
#X obj 46 347 concert/fader 9 1;
#X obj 46 163 concert/fader 0 1;
#X obj 164 159 api Inst-0 Tmess-0 1;
#X obj 163 182 api Inst-1 Tmess-1 1;
#X obj 159 203 api Inst-2 Tmess-2 1;
#X obj 158 224 api Inst-3 Tmess-3 1;
#X obj 161 244 api Inst-4 Tmess-4 1;
#X obj 160 266 api Inst-5 Tmess-5 1;
#X obj 156 288 api Inst-6 Tmess-6 1;
#X obj 155 309 api Inst-7 Tmess-7 1;
#X obj 156 329 api Inst-8 Tmess-8 1;
#X obj 155 350 api Inst-9 Tmess-9 1;
#X floatatom 312 160 5 0 0 0 - - -;
#X floatatom 303 184 5 0 0 0 - - -;
#X connect 0 0 1 0;
#X connect 1 0 4 0;
#X connect 1 1 2 0;
#X connect 2 0 5 0;
#X connect 3 0 4 2;
#X connect 4 0 15 0;
#X connect 6 0 7 0;
#X connect 6 2 17 0;
#X connect 7 0 8 0;
#X connect 7 2 18 0;
#X connect 8 0 9 0;
#X connect 8 2 19 0;
#X connect 9 0 10 0;
#X connect 9 2 20 0;
#X connect 10 0 11 0;
#X connect 10 2 21 0;
#X connect 11 0 12 0;
#X connect 11 2 22 0;
#X connect 12 0 13 0;
#X connect 12 2 23 0;
#X connect 13 0 14 0;
#X connect 13 2 24 0;
#X connect 14 2 25 0;
#X connect 15 0 6 0;
#X connect 15 2 16 0;
#X connect 16 0 26 0;
#X connect 16 0 15 2;
#X connect 17 0 6 2;
#X connect 17 0 27 0;
#X connect 18 0 7 2;
#X connect 19 0 8 2;
#X connect 20 0 9 2;
#X connect 21 0 10 2;
#X connect 22 0 11 2;
#X connect 23 0 12 2;
#X connect 24 0 13 2;
#X connect 25 0 14 2;
#X restore 493 519 pd fader;
#X obj 7 113 topBar Balance;
#X obj 82 139 pofimage ../img/ConsoleVide.png 800 600;
#X obj 82 185 pofimage balance/PopUpBalancesVide.png 800 600;
#X obj 82 161 poftranslate 0 0;
#X floatatom 297 413 5 0 0 0 - - -;
#X floatatom 338 433 5 0 0 0 - - -;
#X obj 300 395 hsl 128 15 0 4 0 1 empty empty empty -2 -8 0 10 -262144
-1 -1 2500 1;
#X obj 341 415 hsl 128 15 0 4 0 1 empty empty empty -2 -8 0 10 -262144
-1 -1 2800 1;
#X obj 257 460 pofscale 0.5 1;
#X obj 259 367 poftranslate 0 8;
#X obj 185 85 declare -path ../instruments/rj;
#X obj 250 480 cnv 15 100 40 empty empty empty 20 12 0 14 -4032 -66577
0;
#X obj 257 488 domoseq/0main;
#X obj 2 348 updating/updating;
#X obj 2 325 poftranslate 0 8;
#X obj 34 303 nbx 5 14 -1e+37 1e+37 0 1 empty empty empty 0 -8 0 10
-262144 -1 -1 -315 256;
#X obj 90 303 nbx 5 14 -1e+37 1e+37 0 1 empty empty empty 0 -8 0 10
-262144 -1 -1 252 256;
#X connect 0 0 1 0;
#X connect 1 0 13 0;
#X connect 1 0 35 0;
#X connect 1 1 36 0;
#X connect 1 2 4 0;
#X connect 2 0 4 0;
#X connect 3 0 2 0;
#X connect 5 0 37 1;
#X connect 6 0 37 2;
#X connect 7 0 38 2;
#X connect 9 0 8 0;
#X connect 11 0 9 1;
#X connect 12 0 9 2;
#X connect 13 0 9 0;
#X connect 13 0 49 0;
#X connect 13 1 23 0;
#X connect 13 1 44 0;
#X connect 13 2 31 0;
#X connect 17 0 20 0;
#X connect 18 0 19 0;
#X connect 20 0 18 0;
#X connect 21 0 22 0;
#X connect 23 0 26 0;
#X connect 24 0 23 1;
#X connect 25 0 23 2;
#X connect 27 0 44 1;
#X connect 28 0 44 2;
#X connect 32 0 31 1;
#X connect 33 0 31 2;
#X connect 36 0 38 0;
#X connect 38 0 37 0;
#X connect 39 0 43 1;
#X connect 40 0 43 2;
#X connect 41 0 39 0;
#X connect 42 0 40 0;
#X connect 43 0 47 0;
#X connect 44 0 43 0;
#X connect 49 0 48 0;
#X connect 50 0 49 1;
#X connect 51 0 49 2;
