#N struct 2368-symarray float x array symbols 2368-sym;
#N struct 2368-sym symbol name float on;
#N struct 2379-symarray float x array symbols 2379-sym;
#N struct 2379-sym symbol name float on;
#N canvas 455 954 525 542 10;
#X declare -path ../;
#X declare -path ../instruments/rj;
#X obj 63 27 inlet;
#X obj 63 60 t a a a;
#X msg 115 82 draw 1;
#X obj 115 61 loadbang;
#X obj 102 113 poftouch 5000 5000;
#X floatatom 222 163 5 0 0 0 - - -;
#X floatatom 356 160 5 0 0 0 - - -;
#X floatatom 188 162 5 0 0 0 - - -;
#X obj 275 54 declare -path ../;
#X obj 63 212 t a a a;
#X obj 82 392 set/instrBar balance;
#X text 177 21 BALANCE;
#N canvas 57 1371 450 300 selectInstr 0;
#X obj 195 48 r balance-instruments-touched;
#X msg 195 71 \$2 \$1;
#X obj 195 93 route 1;
#X floatatom 269 93 5 0 0 0 - - -;
#X obj 192 231 s balance-instruments-select;
#X msg 192 203 -1 0 \, \$1 1;
#X obj 195 116 s balance-instr;
#X obj 192 178 r balance-instr;
#X connect 0 0 1 0;
#X connect 1 0 2 0;
#X connect 2 0 6 0;
#X connect 5 0 4 0;
#X connect 7 0 5 0;
#X restore 82 413 pd selectInstr;
#X obj 419 28 r page;
#X obj 419 72 change;
#X obj 419 96 s set-editing;
#X obj 419 50 eqsym balance;
#X obj 418 119 loadbang;
#X msg 418 142 \; balance-instr 0;
#X obj 291 345 nbx 5 14 -1e+37 1e+37 0 1 empty empty empty 0 -8 0 10
-262144 -1 -1 73 256;
#X obj 353 344 nbx 5 14 -1e+37 1e+37 0 1 empty empty empty 0 -8 0 10
-262144 -1 -1 67 256;
#N canvas 700 1371 663 465 fx 0;
#X obj 46 21 inlet;
#X floatatom 135 170 5 0 0 0 - - -;
#X obj 78 123 nbx 5 14 -1e+37 1e+37 0 1 empty empty empty 0 -8 0 10
-262144 -1 -1 -66 256;
#X obj 140 122 nbx 5 14 -1e+37 1e+37 0 1 empty empty empty 0 -8 0 10
-262144 -1 -1 -50 256;
#X obj 46 145 poftranslate;
#X floatatom 369 170 5 0 0 0 - - -;
#X obj 303 122 nbx 5 14 -1e+37 1e+37 0 1 empty empty empty 0 -8 0 10
-262144 -1 -1 54 256;
#X obj 374 122 nbx 5 14 -1e+37 1e+37 0 1 empty empty empty 0 -8 0 10
-262144 -1 -1 -50 256;
#X obj 280 145 poftranslate;
#X obj 78 245 nbx 5 14 -1e+37 1e+37 0 1 empty empty empty 0 -8 0 10
-262144 -1 -1 0 256;
#X obj 140 244 nbx 5 14 -1e+37 1e+37 0 1 empty empty empty 0 -8 0 10
-262144 -1 -1 80 256;
#X obj 46 267 poftranslate;
#X obj 119 224 bng 15 250 50 0 empty empty empty 17 7 0 10 -262144
-1 -1;
#X obj 312 254 nbx 5 14 -1e+37 1e+37 0 1 empty empty empty 0 -8 0 10
-262144 -1 -1 0 256;
#X obj 374 253 nbx 5 14 -1e+37 1e+37 0 1 empty empty empty 0 -8 0 10
-262144 -1 -1 80 256;
#X obj 280 276 poftranslate;
#X obj 353 233 bng 15 250 50 0 empty empty empty 17 7 0 10 -262144
-1 -1;
#X obj 280 299 imageKnob balance/Param.png 0.3;
#X obj 46 203 pofimage EffetLegend.png 100;
#X obj 280 203 pofimage ParamLegend.png 100;
#X obj 204 10 r balance-instr;
#X obj 463 111 tabread set-table-fx;
#X obj 369 48 * 2;
#X obj 463 88 + 1;
#X obj 229 93 tabread set-table-fx;
#X obj 307 346 tabwrite set-table-fx;
#X obj 73 338 tabwrite set-table-fx;
#X obj 189 393 f;
#X obj 46 313 t b f;
#X obj 280 321 t b f;
#X obj 189 417 s fx-update-instr;
#X obj 46 290 imageKnob balance/Effet.png 0.3;
#X obj 280 174 fixScaleX;
#X obj 46 173 fixScaleX;
#X obj 46 47 t a a;
#X obj 89 58 cadreVec 252 212;
#X obj 89 35 pofcolor 0.4 0.5 0.5 1;
#X floatatom 131 10 5 0 0 0 - - -;
#X connect 0 0 34 0;
#X connect 1 0 18 1;
#X connect 2 0 4 1;
#X connect 3 0 4 2;
#X connect 4 0 33 0;
#X connect 5 0 19 1;
#X connect 6 0 8 1;
#X connect 7 0 8 2;
#X connect 8 0 32 0;
#X connect 9 0 11 1;
#X connect 10 0 11 2;
#X connect 11 0 31 0;
#X connect 12 0 9 0;
#X connect 12 0 10 0;
#X connect 13 0 15 1;
#X connect 14 0 15 2;
#X connect 15 0 17 0;
#X connect 16 0 13 0;
#X connect 16 0 14 0;
#X connect 17 0 29 0;
#X connect 18 0 11 0;
#X connect 19 0 15 0;
#X connect 20 0 22 0;
#X connect 20 0 27 1;
#X connect 21 0 17 3;
#X connect 22 0 23 0;
#X connect 22 0 24 0;
#X connect 22 0 26 1;
#X connect 23 0 21 0;
#X connect 23 0 25 1;
#X connect 24 0 31 3;
#X connect 27 0 30 0;
#X connect 28 0 27 0;
#X connect 28 1 26 0;
#X connect 29 0 27 0;
#X connect 29 1 25 0;
#X connect 31 0 28 0;
#X connect 32 0 19 0;
#X connect 33 0 18 0;
#X connect 34 0 4 0;
#X connect 34 0 8 0;
#X connect 34 1 36 0;
#X connect 36 0 35 0;
#X connect 37 0 35 1;
#X restore 185 439 pd fx;
#X obj 148 503 v;
#X obj 327 274 poftranslate 0 8;
#X obj 359 252 nbx 5 14 -1e+37 1e+37 0 1 empty empty empty 0 -8 0 10
-262144 -1 -1 328 256;
#X obj 421 251 nbx 5 14 -1e+37 1e+37 0 1 empty empty empty 0 -8 0 10
-262144 -1 -1 20 256;
#N canvas 537 240 663 465 fader 0;
#X obj 46 21 inlet;
#X obj 46 44 t a a;
#X obj 73 67 pofcolor 0.9 0.9 0.9 1;
#X floatatom 122 118 5 0 0 0 - - -;
#X obj 46 139 poftranslate 0 145;
#X obj 73 89 cadreVec 70 325;
#X obj 46 184 concert/fader 1 1;
#X obj 46 204 concert/fader 2 1;
#X obj 46 225 concert/fader 3 1;
#X obj 46 245 concert/fader 4 1;
#X obj 46 265 concert/fader 5 1;
#X obj 46 286 concert/fader 6 1;
#X obj 46 306 concert/fader 7 1;
#X obj 46 327 concert/fader 8 1;
#X obj 46 347 concert/fader 9 1;
#X obj 46 163 concert/fader 0 1;
#X obj 164 159 api Inst-0 Tmess-0 1;
#X obj 163 182 api Inst-1 Tmess-1 1;
#X obj 159 203 api Inst-2 Tmess-2 1;
#X obj 158 224 api Inst-3 Tmess-3 1;
#X obj 161 244 api Inst-4 Tmess-4 1;
#X obj 160 266 api Inst-5 Tmess-5 1;
#X obj 156 288 api Inst-6 Tmess-6 1;
#X obj 155 309 api Inst-7 Tmess-7 1;
#X obj 156 329 api Inst-8 Tmess-8 1;
#X obj 155 350 api Inst-9 Tmess-9 1;
#X floatatom 312 160 5 0 0 0 - - -;
#X floatatom 303 184 5 0 0 0 - - -;
#X connect 0 0 1 0;
#X connect 1 0 4 0;
#X connect 1 1 2 0;
#X connect 2 0 5 0;
#X connect 3 0 4 2;
#X connect 4 0 15 0;
#X connect 6 0 7 0;
#X connect 6 2 17 0;
#X connect 7 0 8 0;
#X connect 7 2 18 0;
#X connect 8 0 9 0;
#X connect 8 2 19 0;
#X connect 9 0 10 0;
#X connect 9 2 20 0;
#X connect 10 0 11 0;
#X connect 10 2 21 0;
#X connect 11 0 12 0;
#X connect 11 2 22 0;
#X connect 12 0 13 0;
#X connect 12 2 23 0;
#X connect 13 0 14 0;
#X connect 13 2 24 0;
#X connect 14 2 25 0;
#X connect 15 0 6 0;
#X connect 15 2 16 0;
#X connect 16 0 26 0;
#X connect 16 0 15 2;
#X connect 17 0 6 2;
#X connect 17 0 27 0;
#X connect 18 0 7 2;
#X connect 19 0 8 2;
#X connect 20 0 9 2;
#X connect 21 0 10 2;
#X connect 22 0 11 2;
#X connect 23 0 12 2;
#X connect 24 0 13 2;
#X connect 25 0 14 2;
#X restore 399 485 pd fader;
#X obj 82 139 pofimage ../img/ConsoleVide.png 800 600;
#X obj 82 185 pofimage balance/PopUpBalancesVide.png 800 600;
#X obj 82 161 poftranslate 0 0;
#X floatatom 297 413 5 0 0 0 - - -;
#X floatatom 338 433 5 0 0 0 - - -;
#X obj 300 395 hsl 128 15 0 4 0 1 empty empty empty -2 -8 0 10 -262144
-1 -1 2500 1;
#X obj 341 415 hsl 128 15 0 4 0 1 empty empty empty -2 -8 0 10 -262144
-1 -1 2800 1;
#X obj 257 460 pofscale 0.5 1;
#X obj 259 367 poftranslate 0 8;
#X obj 185 85 declare -path ../instruments/rj;
#X obj 250 480 cnv 15 100 40 empty empty empty 20 12 0 14 -4032 -66577
0;
#X obj 257 488 domoseq/0main;
#X obj 7 113 topBar Balance;
#X connect 0 0 1 0;
#X connect 1 0 9 0;
#X connect 1 0 39 0;
#X connect 1 1 27 0;
#X connect 1 2 4 0;
#X connect 2 0 4 0;
#X connect 3 0 2 0;
#X connect 5 0 28 1;
#X connect 6 0 28 2;
#X connect 7 0 29 2;
#X connect 9 1 35 0;
#X connect 9 2 23 0;
#X connect 13 0 16 0;
#X connect 14 0 15 0;
#X connect 16 0 14 0;
#X connect 17 0 18 0;
#X connect 19 0 35 1;
#X connect 20 0 35 2;
#X connect 24 0 23 1;
#X connect 25 0 23 2;
#X connect 27 0 29 0;
#X connect 29 0 28 0;
#X connect 30 0 34 1;
#X connect 31 0 34 2;
#X connect 32 0 30 0;
#X connect 33 0 31 0;
#X connect 34 0 38 0;
#X connect 35 0 34 0;
